ISO-10303-21;
HEADER;
FILE_DESCRIPTION(('ViewDefinition [SchedulingView]'),'2;1');
FILE_NAME('Zuidas Office Building.ifc','2026-09-11T17:47:44',('Mark Bakker'),('Zuidas Development BV'),'Open Planner Studio 0.1','Open Planner Studio','');
FILE_SCHEMA(('IFC4X3'));
ENDSEC;
DATA;
#1=IFCPERSON($,'Mark Bakker',$,$,$,$,$,$);
#2=IFCORGANIZATION($,'Zuidas Development BV',$,$,$);
#3=IFCPERSONANDORGANIZATION(#1,#2,$);
#4=IFCORGANIZATION($,'OpenAEC Foundation',$,$,$);
#5=IFCAPPLICATION(#4,'0.1','Open Planner Studio','OPS');
#6=IFCOWNERHISTORY(#3,#5,$,.NOCHANGE.,$,$,$,1789148864);
#7=IFCSIUNIT(*,.LENGTHUNIT.,$,.METRE.);
#8=IFCSIUNIT(*,.TIMEUNIT.,$,.SECOND.);
#9=IFCUNITASSIGNMENT((#7,#8));
#10=IFCCARTESIANPOINT((0.,0.,0.));
#11=IFCAXIS2PLACEMENT3D(#10,$,$);
#12=IFCGEOMETRICREPRESENTATIONCONTEXT($,'Plan',3,1.0E-05,#11,$);
#13=IFCPROJECT('VXTfCdJFevp91r_VhzNZBP',#6,'Zuidas Office Building','Eight-storey office building with basement car park, BREEAM Excellent',$,$,$,(#12),#9);
#14=IFCTIMEPERIOD('07:00:00','16:00:00');
#15=IFCRECURRENCEPATTERN(.WEEKLY.,$,(1,2,3,4,5),$,$,$,$,(#14));
#16=IFCWORKTIME('Standard work week',.PREDICTED.,$,#15,$,$);
#17=IFCWORKTIME('New Year''s Day',.PREDICTED.,$,$,'2027-01-01','2027-01-01');
#18=IFCWORKTIME('Good Friday',.PREDICTED.,$,$,'2027-03-26','2027-03-26');
#19=IFCWORKTIME('Easter',.PREDICTED.,$,$,'2027-03-28','2027-03-29');
#20=IFCWORKTIME('King''s Day',.PREDICTED.,$,$,'2027-04-27','2027-04-27');
#21=IFCWORKTIME('Liberation Day',.PREDICTED.,$,$,'2027-05-05','2027-05-05');
#22=IFCWORKTIME('Ascension Day',.PREDICTED.,$,$,'2027-05-06','2027-05-06');
#23=IFCWORKTIME('Whitsun',.PREDICTED.,$,$,'2027-05-16','2027-05-17');
#24=IFCWORKTIME('Christmas',.PREDICTED.,$,$,'2027-12-25','2027-12-26');
#25=IFCWORKTIME('Construction holiday (northern region)',.PREDICTED.,$,$,'2027-07-26','2027-08-15');
#26=IFCWORKTIME('New Year''s Day',.PREDICTED.,$,$,'2028-01-01','2028-01-01');
#27=IFCWORKTIME('Good Friday',.PREDICTED.,$,$,'2028-04-14','2028-04-14');
#28=IFCWORKTIME('Easter',.PREDICTED.,$,$,'2028-04-16','2028-04-17');
#29=IFCWORKTIME('King''s Day',.PREDICTED.,$,$,'2028-04-27','2028-04-27');
#30=IFCWORKTIME('Liberation Day',.PREDICTED.,$,$,'2028-05-05','2028-05-05');
#31=IFCWORKTIME('Ascension Day',.PREDICTED.,$,$,'2028-05-25','2028-05-25');
#32=IFCWORKTIME('Whitsun',.PREDICTED.,$,$,'2028-06-04','2028-06-05');
#33=IFCWORKTIME('Christmas',.PREDICTED.,$,$,'2028-12-25','2028-12-26');
#34=IFCWORKTIME('Construction holiday (northern region)',.PREDICTED.,$,$,'2028-07-24','2028-08-13');
#35=IFCWORKCALENDAR('_HlbW$VPl1Yxnv_nBDbFBd',#6,'Construction calendar NL','Standard construction calendar: Mon-Fri 07:00-16:00',$,(#16),(#17,#18,#19,#20,#21,#22,#23,#24,#25,#26,#27,#28,#29,#30,#31,#32,#33,#34),.FIRSTSHIFT.);
#36=IFCPROPERTYSINGLEVALUE('HoursPerDay',$,IFCREAL(8),$);
#37=IFCPROPERTYSET('qL5XmPUFgdlJ6X9$WtAtOZ',#6,'OPS_Calendar',$,(#36));
#38=IFCRELDEFINESBYPROPERTIES('bXh12hy$qvOdOP_VbbYntl',#6,$,$,(#35),#37);
#39=IFCWORKPLAN('9NYhVty$SrxXoVbFqz81Id',#6,'Zuidas Office Building','Eight-storey office building with basement car park, BREEAM Excellent',$,$,'2026-09-11T17:47:44',$,$,$,$,$,'2027-03-01T07:00:00','2027-03-26T07:00:00',.PLANNED.);
#40=IFCWORKSCHEDULE('cbuVaHu7MdPrS7AHyPOXe3',#6,'Construction schedule v1.0',$,$,$,'2026-09-11T17:47:44',$,$,$,$,$,'2027-03-01T07:00:00','2027-03-26T07:00:00',.PLANNED.);
#41=IFCRELAGGREGATES('X$Ph9TPtbVDd8te$ftI1sz',#6,$,$,#39,(#40));
#42=IFCTASKTIME('1. Preparation Time',.PREDICTED.,$,.WORKTIME.,'P0Y0M5D','2027-03-01T07:00:00','2027-03-05T07:00:00','2027-03-01T07:00:00','2027-03-30T07:00:00','2027-03-01T07:00:00','2028-05-04T07:00:00','P0Y0M0D','P0Y0M0D',.T.,$,$,$,$,$,0.00);
#43=IFCTASK('OTDdVN8dNnV3r76lpPar4d',#6,'1. Preparation',$,$,'1',$,$,$,.F.,$,#42,.CONSTRUCTION.);
#44=IFCTASKTIME('Set up site Time',.PREDICTED.,$,.WORKTIME.,'P0Y0M8D','2027-03-01T07:00:00','2027-03-10T07:00:00','2027-03-01T07:00:00','2027-03-10T07:00:00','2027-03-01T07:00:00','2027-03-10T07:00:00','P0Y0M0D','P0Y0M0D',.T.,$,$,$,$,$,0.00);
#45=IFCTASK('uDd327lvOFSjoLgHQPG9Cl',#6,'Set up site',$,$,'1.1',$,$,$,.F.,$,#44,.LOGISTIC.);
#46=IFCTASKTIME('Stakeholder management Time',.PREDICTED.,$,.WORKTIME.,'P0Y0M5D','2027-03-01T07:00:00','2027-03-05T07:00:00','2027-03-11T07:00:00','2027-03-17T07:00:00','2028-04-18T07:00:00','2028-04-24T07:00:00','P0Y0M0D','P0Y0M265D',.F.,$,$,$,$,$,0.00);
#47=IFCTASK('QxKJBv2NAfBF994ljb1Jwx',#6,'Stakeholder management',$,$,'1.2',$,$,$,.F.,$,#46,.ATTENDANCE.);
#48=IFCTASKTIME('Traffic management Time',.PREDICTED.,$,.WORKTIME.,'P0Y0M3D','2027-03-01T07:00:00','2027-03-03T07:00:00','2027-03-18T07:00:00','2027-03-22T07:00:00','2028-04-25T07:00:00','2028-04-28T07:00:00','P0Y0M0D','P0Y0M265D',.F.,$,$,$,$,$,0.00);
#49=IFCTASK('kR5nZx67cXQX_PkXgHpdtl',#6,'Traffic management',$,$,'1.3',$,$,$,.F.,$,#48,.LOGISTIC.);
#50=IFCTASKTIME('Piezometer monitoring Time',.PREDICTED.,$,.WORKTIME.,'P0Y0M3D','2027-03-01T07:00:00','2027-03-03T07:00:00','2027-03-23T07:00:00','2027-03-25T07:00:00','2028-05-01T07:00:00','2028-05-03T07:00:00','P0Y0M0D','P0Y0M265D',.F.,$,$,$,$,$,0.00);
#51=IFCTASK('2ponVDQ7K9ILY371v5gTPd',#6,'Piezometer monitoring',$,$,'1.4',$,$,$,.F.,$,#50,.INSTALLATION.);
#52=IFCTASKTIME('Start of construction Time',.PREDICTED.,$,.WORKTIME.,'P0Y0M0D','2027-03-01T07:00:00','2027-03-01T07:00:00','2027-03-30T07:00:00','2027-03-30T07:00:00','2028-05-04T07:00:00','2028-05-04T07:00:00','P0Y0M265D','P0Y0M265D',.F.,$,$,$,$,$,0.00);
#53=IFCTASK('jNWN4XA1KNslxRSnvXxlJ1',#6,'Start of construction',$,$,'1.5',$,$,$,.T.,$,#52,.CONSTRUCTION.);
#54=IFCTASKTIME('2. Earthworks & foundations Time',.PREDICTED.,$,.WORKTIME.,'P0Y0M5D','2027-03-01T07:00:00','2027-03-05T07:00:00','2027-03-15T07:00:00','2027-09-09T07:00:00','2027-03-15T07:00:00','2028-05-04T07:00:00','P0Y0M0D','P0Y0M0D',.T.,$,$,$,$,$,0.00);
#55=IFCTASK('wn9pDFinElTP0zRFyP07Z9',#6,'2. Earthworks & foundations',$,$,'2',$,$,$,.F.,$,#54,.CONSTRUCTION.);
#56=IFCTASKTIME('Sheet pile sections Time',.PREDICTED.,$,.WORKTIME.,'P0Y0M15D','2027-03-01T07:00:00','2027-03-19T07:00:00','2027-03-15T07:00:00','2027-04-06T07:00:00','2027-03-15T07:00:00','2027-04-06T07:00:00','P0Y0M0D','P0Y0M0D',.T.,$,$,$,$,$,0.00);
#57=IFCTASK('c$$Z4Xs1enC5trIVcznLgp',#6,'Sheet pile sections',$,$,'2.1',$,$,$,.F.,$,#56,.CONSTRUCTION.);
#58=IFCTASKTIME('Wellpoint dewatering Time',.PREDICTED.,$,.WORKTIME.,'P0Y0M5D','2027-03-01T07:00:00','2027-03-05T07:00:00','2027-04-07T07:00:00','2027-04-13T07:00:00','2027-12-23T07:00:00','2027-12-29T07:00:00','P0Y0M0D','P0Y0M167D',.F.,$,$,$,$,$,0.00);
#59=IFCTASK('KP8nR179RBnL2dEXGX$5hf',#6,'Wellpoint dewatering',$,$,'2.2',$,$,$,.F.,$,#58,.INSTALLATION.);
#60=IFCTASKTIME('Excavate to level -2 Time',.PREDICTED.,$,.WORKTIME.,'P0Y0M12D','2027-03-01T07:00:00','2027-03-16T07:00:00','2027-04-14T07:00:00','2027-04-30T07:00:00','2027-12-30T07:00:00','2028-01-14T07:00:00','P0Y0M0D','P0Y0M167D',.F.,$,$,$,$,$,0.00);
#61=IFCTASK('C9IHZNPt$fj7Mtyl$1hHhJ',#6,'Excavate to level -2',$,$,'2.3',$,$,$,.F.,$,#60,.CONSTRUCTION.);
#62=IFCTASKTIME('Excavate to level -1 Time',.PREDICTED.,$,.WORKTIME.,'P0Y0M10D','2027-03-01T07:00:00','2027-03-12T07:00:00','2027-05-03T07:00:00','2027-05-19T07:00:00','2028-01-17T07:00:00','2028-01-28T07:00:00','P0Y0M0D','P0Y0M167D',.F.,$,$,$,$,$,0.00);
#63=IFCTASK('8jpvxHNNaBrn1L6H71fhg9',#6,'Excavate to level -1',$,$,'2.4',$,$,$,.F.,$,#62,.CONSTRUCTION.);
#64=IFCTASKTIME('Bore foundation piles Time',.PREDICTED.,$,.WORKTIME.,'P0Y0M20D','2027-03-01T07:00:00','2027-03-26T07:00:00','2027-05-20T07:00:00','2027-06-16T07:00:00','2028-01-31T07:00:00','2028-02-25T07:00:00','P0Y0M0D','P0Y0M167D',.F.,$,$,$,$,$,0.00);
#65=IFCTASK('5hQjZ5o97Nw$ufClcd81sz',#6,'Bore foundation piles',$,$,'2.5',$,$,$,.F.,$,#64,.CONSTRUCTION.);
#66=IFCTASKTIME('Foundation beams Time',.PREDICTED.,$,.WORKTIME.,'P0Y0M10D','2027-03-01T07:00:00','2027-03-12T07:00:00','2027-06-17T07:00:00','2027-06-30T07:00:00','2028-02-28T07:00:00','2028-03-10T07:00:00','P0Y0M0D','P0Y0M167D',.F.,$,$,$,$,$,0.00);
#67=IFCTASK('7FNJR1tNWxFpiX$VWfI5nR',#6,'Foundation beams',$,$,'2.6',$,$,$,.F.,$,#66,.CONSTRUCTION.);
#68=IFCTASKTIME('Basement floor P2 Time',.PREDICTED.,$,.WORKTIME.,'P0Y0M8D','2027-03-01T07:00:00','2027-03-10T07:00:00','2027-07-01T07:00:00','2027-07-12T07:00:00','2028-03-13T07:00:00','2028-03-22T07:00:00','P0Y0M0D','P0Y0M167D',.F.,$,$,$,$,$,0.00);
#69=IFCTASK('ZzibeRcXnlOdaD7$kzeViV',#6,'Basement floor P2',$,$,'2.7',$,$,$,.F.,$,#68,.CONSTRUCTION.);
#70=IFCTASKTIME('Basement floor P1 Time',.PREDICTED.,$,.WORKTIME.,'P0Y0M8D','2027-03-01T07:00:00','2027-03-10T07:00:00','2027-07-13T07:00:00','2027-07-22T07:00:00','2028-03-23T07:00:00','2028-04-03T07:00:00','P0Y0M0D','P0Y0M167D',.F.,$,$,$,$,$,0.00);
#71=IFCTASK('0lXLXtKXhjwjs5iFMFHrOB',#6,'Basement floor P1',$,$,'2.8',$,$,$,.F.,$,#70,.CONSTRUCTION.);
#72=IFCTASKTIME('Pour basement walls Time',.PREDICTED.,$,.WORKTIME.,'P0Y0M12D','2027-03-01T07:00:00','2027-03-16T07:00:00','2027-07-23T07:00:00','2027-08-30T07:00:00','2028-04-04T07:00:00','2028-04-21T07:00:00','P0Y0M0D','P0Y0M167D',.F.,$,$,$,$,$,0.00);
#73=IFCTASK('L3dL3v9Ne7JfdZ$XYPqbxL',#6,'Pour basement walls',$,$,'2.9',$,$,$,.F.,$,#72,.CONSTRUCTION.);
#74=IFCTASKTIME('Basement waterproofing Time',.PREDICTED.,$,.WORKTIME.,'P0Y0M8D','2027-03-01T07:00:00','2027-03-10T07:00:00','2027-08-31T07:00:00','2027-09-09T07:00:00','2028-04-24T07:00:00','2028-05-04T07:00:00','P0Y0M167D','P0Y0M167D',.F.,$,$,$,$,$,0.00);
#75=IFCTASK('L3$Zi9JXbXb1e$7$25LXml',#6,'Basement waterproofing',$,$,'2.10',$,$,$,.F.,$,#74,.CONSTRUCTION.);
#76=IFCTASKTIME('3. Structural works Time',.PREDICTED.,$,.WORKTIME.,'P0Y0M5D','2027-03-01T07:00:00','2027-03-05T07:00:00','2027-03-23T07:00:00','2027-09-08T07:00:00','2027-03-23T07:00:00','2028-05-04T07:00:00','P0Y0M0D','P0Y0M0D',.T.,$,$,$,$,$,0.00);
#77=IFCTASK('FPsTexgdddqTVFBHfpB$QB',#6,'3. Structural works',$,$,'3',$,$,$,.F.,$,#76,.CONSTRUCTION.);
#78=IFCTASKTIME('Ground floor columns & slab Time',.PREDICTED.,$,.WORKTIME.,'P0Y0M10D','2027-03-01T07:00:00','2027-03-12T07:00:00','2027-03-23T07:00:00','2027-04-07T07:00:00','2027-03-23T07:00:00','2027-04-07T07:00:00','P0Y0M0D','P0Y0M0D',.T.,$,$,$,$,$,0.00);
#79=IFCTASK('X1$ZSJwVJfBn3R0Xn9_HJX',#6,'Ground floor columns & slab',$,$,'3.1',$,$,$,.F.,$,#78,.CONSTRUCTION.);
#80=IFCTASKTIME('Floor 1 structural works Time',.PREDICTED.,$,.WORKTIME.,'P0Y0M8D','2027-03-01T07:00:00','2027-03-10T07:00:00','2027-04-08T07:00:00','2027-04-19T07:00:00','2027-04-08T07:00:00','2027-04-19T07:00:00','P0Y0M0D','P0Y0M0D',.T.,$,$,$,$,$,0.00);
#81=IFCTASK('sJBFXDgdhJgzf7MHIzmtSR',#6,'Floor 1 structural works',$,$,'3.2',$,$,$,.F.,$,#80,.CONSTRUCTION.);
#82=IFCTASKTIME('Floor 2 structural works Time',.PREDICTED.,$,.WORKTIME.,'P0Y0M8D','2027-03-01T07:00:00','2027-03-10T07:00:00','2027-04-20T07:00:00','2027-04-30T07:00:00','2027-04-20T07:00:00','2027-04-30T07:00:00','P0Y0M0D','P0Y0M0D',.T.,$,$,$,$,$,0.00);
#83=IFCTASK('K5PLVtSlVxdri1TFQ39zFV',#6,'Floor 2 structural works',$,$,'3.3',$,$,$,.F.,$,#82,.CONSTRUCTION.);
#84=IFCTASKTIME('Floor 3 structural works Time',.PREDICTED.,$,.WORKTIME.,'P0Y0M8D','2027-03-01T07:00:00','2027-03-10T07:00:00','2027-05-03T07:00:00','2027-05-14T07:00:00','2027-05-03T07:00:00','2027-05-14T07:00:00','P0Y0M0D','P0Y0M0D',.T.,$,$,$,$,$,0.00);
#85=IFCTASK('1ld3cJ6V1LFhk5O$WNcDCZ',#6,'Floor 3 structural works',$,$,'3.4',$,$,$,.F.,$,#84,.CONSTRUCTION.);
#86=IFCTASKTIME('Floor 4 structural works Time',.PREDICTED.,$,.WORKTIME.,'P0Y0M8D','2027-03-01T07:00:00','2027-03-10T07:00:00','2027-05-18T07:00:00','2027-05-27T07:00:00','2027-05-18T07:00:00','2027-05-27T07:00:00','P0Y0M0D','P0Y0M0D',.T.,$,$,$,$,$,0.00);
#87=IFCTASK('vhYLlXZlZ1g3D3BFtZxV85',#6,'Floor 4 structural works',$,$,'3.5',$,$,$,.F.,$,#86,.CONSTRUCTION.);
#88=IFCTASKTIME('Floor 5 structural works Time',.PREDICTED.,$,.WORKTIME.,'P0Y0M8D','2027-03-01T07:00:00','2027-03-10T07:00:00','2027-05-28T07:00:00','2027-06-08T07:00:00','2027-05-28T07:00:00','2027-06-08T07:00:00','P0Y0M0D','P0Y0M0D',.T.,$,$,$,$,$,0.00);
#89=IFCTASK('bXxFhfed1NZtxFznK1$jAT',#6,'Floor 5 structural works',$,$,'3.6',$,$,$,.F.,$,#88,.CONSTRUCTION.);
#90=IFCTASKTIME('Floor 6 structural works Time',.PREDICTED.,$,.WORKTIME.,'P0Y0M8D','2027-03-01T07:00:00','2027-03-10T07:00:00','2027-06-09T07:00:00','2027-06-18T07:00:00','2027-06-09T07:00:00','2027-06-18T07:00:00','P0Y0M0D','P0Y0M0D',.T.,$,$,$,$,$,0.00);
#91=IFCTASK('mvMPt3pXjNxX_JTlOpTfQH',#6,'Floor 6 structural works',$,$,'3.7',$,$,$,.F.,$,#90,.CONSTRUCTION.);
#92=IFCTASKTIME('Floor 7 structural works Time',.PREDICTED.,$,.WORKTIME.,'P0Y0M8D','2027-03-01T07:00:00','2027-03-10T07:00:00','2027-06-21T07:00:00','2027-06-30T07:00:00','2027-06-21T07:00:00','2027-06-30T07:00:00','P0Y0M0D','P0Y0M0D',.T.,$,$,$,$,$,0.00);
#93=IFCTASK('Ev2V8hqFu993L9O1n539Or',#6,'Floor 7 structural works',$,$,'3.8',$,$,$,.F.,$,#92,.CONSTRUCTION.);
#94=IFCTASKTIME('Floor 8 structural works Time',.PREDICTED.,$,.WORKTIME.,'P0Y0M8D','2027-03-01T07:00:00','2027-03-10T07:00:00','2027-07-01T07:00:00','2027-07-12T07:00:00','2027-07-01T07:00:00','2027-07-12T07:00:00','P0Y0M0D','P0Y0M0D',.T.,$,$,$,$,$,0.00);
#95=IFCTASK('ovAvxl1vs9PJwVN129Q7T9',#6,'Floor 8 structural works',$,$,'3.9',$,$,$,.F.,$,#94,.CONSTRUCTION.);
#96=IFCTASKTIME('Concrete stair and lift core Time',.PREDICTED.,$,.WORKTIME.,'P0Y0M20D','2027-03-01T07:00:00','2027-03-26T07:00:00','2027-07-08T07:00:00','2027-08-25T07:00:00','2027-07-08T07:00:00','2027-08-25T07:00:00','P0Y0M0D','P0Y0M0D',.T.,$,$,$,$,$,0.00);
#97=IFCTASK('Y3yB77vtNHDtzR81sxwjoR',#6,'Concrete stair and lift core',$,$,'3.10',$,$,$,.F.,$,#96,.CONSTRUCTION.);
#98=IFCTASKTIME('Steel roof structure Time',.PREDICTED.,$,.WORKTIME.,'P0Y0M10D','2027-03-01T07:00:00','2027-03-12T07:00:00','2027-08-26T07:00:00','2027-09-08T07:00:00','2027-08-26T07:00:00','2027-09-08T07:00:00','P0Y0M0D','P0Y0M0D',.T.,$,$,$,$,$,0.00);
#99=IFCTASK('7HTNy$o9hp_9lz$VCTKJMJ',#6,'Steel roof structure',$,$,'3.11',$,$,$,.F.,$,#98,.CONSTRUCTION.);
#100=IFCTASKTIME('Topping out Time',.PREDICTED.,$,.WORKTIME.,'P0Y0M0D','2027-03-01T07:00:00','2027-03-01T07:00:00','2027-09-08T07:00:00','2027-09-08T07:00:00','2028-05-04T07:00:00','2028-05-04T07:00:00','P0Y0M168D','P0Y0M168D',.F.,$,$,$,$,$,0.00);
#101=IFCTASK('LPeHtTNfSLPjgrkX25DdDD',#6,'Topping out',$,$,'3.12',$,$,$,.T.,$,#100,.CONSTRUCTION.);
#102=IFCTASKTIME('4. Facade Time',.PREDICTED.,$,.WORKTIME.,'P0Y0M5D','2027-03-01T07:00:00','2027-03-05T07:00:00','2027-07-21T07:00:00','2027-10-21T07:00:00','2027-07-21T07:00:00','2028-05-04T07:00:00','P0Y0M0D','P0Y0M0D',.T.,$,$,$,$,$,0.00);
#103=IFCTASK('Z1FpR5dtPj2RbXDl$z0vhp',#6,'4. Facade',$,$,'4',$,$,$,.F.,$,#102,.INSTALLATION.);
#104=IFCTASKTIME('Curtain wall installation, phase 1 Time',.PREDICTED.,$,.WORKTIME.,'P0Y0M15D','2027-03-01T07:00:00','2027-03-19T07:00:00','2027-07-21T07:00:00','2027-08-31T07:00:00','2027-07-21T07:00:00','2027-08-31T07:00:00','P0Y0M0D','P0Y0M0D',.T.,$,$,$,$,$,0.00);
#105=IFCTASK('phrnBPkH5nfxNRGXgr4LwR',#6,'Curtain wall installation, phase 1',$,$,'4.1',$,$,$,.F.,$,#104,.INSTALLATION.);
#106=IFCTASKTIME('Curtain wall installation, phase 2 Time',.PREDICTED.,$,.WORKTIME.,'P0Y0M15D','2027-03-01T07:00:00','2027-03-19T07:00:00','2027-09-01T07:00:00','2027-09-21T07:00:00','2027-09-01T07:00:00','2027-09-21T07:00:00','P0Y0M0D','P0Y0M0D',.T.,$,$,$,$,$,0.00);
#107=IFCTASK('b$9xwT8v6TQpyfu$wp3t4P',#6,'Curtain wall installation, phase 2',$,$,'4.2',$,$,$,.F.,$,#106,.INSTALLATION.);
#108=IFCTASKTIME('Curtain wall installation, phase 3 Time',.PREDICTED.,$,.WORKTIME.,'P0Y0M12D','2027-03-01T07:00:00','2027-03-16T07:00:00','2027-09-22T07:00:00','2027-10-07T07:00:00','2027-09-22T07:00:00','2027-10-07T07:00:00','P0Y0M0D','P0Y0M0D',.T.,$,$,$,$,$,0.00);
#109=IFCTASK('nBdz_B0t55ljoBEXydGfIP',#6,'Curtain wall installation, phase 3',$,$,'4.3',$,$,$,.F.,$,#108,.INSTALLATION.);
#110=IFCTASKTIME('Roof finishes and services Time',.PREDICTED.,$,.WORKTIME.,'P0Y0M10D','2027-03-01T07:00:00','2027-03-12T07:00:00','2027-10-08T07:00:00','2027-10-21T07:00:00','2027-10-08T07:00:00','2027-10-21T07:00:00','P0Y0M0D','P0Y0M0D',.T.,$,$,$,$,$,0.00);
#111=IFCTASK('orvTSnCnelG1KX91axxlHH',#6,'Roof finishes and services',$,$,'4.4',$,$,$,.F.,$,#110,.CONSTRUCTION.);
#112=IFCTASKTIME('Wind and weathertight Time',.PREDICTED.,$,.WORKTIME.,'P0Y0M0D','2027-03-01T07:00:00','2027-03-01T07:00:00','2027-10-21T07:00:00','2027-10-21T07:00:00','2028-05-04T07:00:00','2028-05-04T07:00:00','P0Y0M137D','P0Y0M137D',.F.,$,$,$,$,$,0.00);
#113=IFCTASK('pv_Vqvl70LLl1$$V2fszpl',#6,'Wind and weathertight',$,$,'4.5',$,$,$,.T.,$,#112,.INSTALLATION.);
#114=IFCTASKTIME('5. Building services Time',.PREDICTED.,$,.WORKTIME.,'P0Y0M5D','2027-03-01T07:00:00','2027-03-05T07:00:00','2027-10-22T07:00:00','2028-02-22T07:00:00','2027-10-22T07:00:00','2028-05-04T07:00:00','P0Y0M0D','P0Y0M0D',.T.,$,$,$,$,$,0.00);
#115=IFCTASK('SZ09MbTljfZtFDv$_92HDl',#6,'5. Building services',$,$,'5',$,$,$,.F.,$,#114,.INSTALLATION.);
#116=IFCTASKTIME('Main electrical switchroom Time',.PREDICTED.,$,.WORKTIME.,'P0Y0M10D','2027-03-01T07:00:00','2027-03-12T07:00:00','2027-10-22T07:00:00','2027-11-04T07:00:00','2027-10-22T07:00:00','2027-11-04T07:00:00','P0Y0M0D','P0Y0M0D',.T.,$,$,$,$,$,0.00);
#117=IFCTASK('9DP3gbTl9Xhl7pZn6NMZ$D',#6,'Main electrical switchroom',$,$,'5.1',$,$,$,.F.,$,#116,.INSTALLATION.);
#118=IFCTASKTIME('Risers, electrical Time',.PREDICTED.,$,.WORKTIME.,'P0Y0M12D','2027-03-01T07:00:00','2027-03-16T07:00:00','2027-11-05T07:00:00','2027-11-22T07:00:00','2028-01-13T07:00:00','2028-01-28T07:00:00','P0Y0M0D','P0Y0M49D',.F.,$,$,$,$,$,0.00);
#119=IFCTASK('uLoRqvH78$or8tGVabPx1j',#6,'Risers, electrical',$,$,'5.2',$,$,$,.F.,$,#118,.INSTALLATION.);
#120=IFCTASKTIME('Risers, mechanical services Time',.PREDICTED.,$,.WORKTIME.,'P0Y0M12D','2027-03-01T07:00:00','2027-03-16T07:00:00','2027-11-10T07:00:00','2027-11-25T07:00:00','2028-01-18T07:00:00','2028-02-02T07:00:00','P0Y0M0D','P0Y0M49D',.F.,$,$,$,$,$,0.00);
#121=IFCTASK('L74TiLxnOl0FN7Ml6t2lj1',#6,'Risers, mechanical services',$,$,'5.3',$,$,$,.F.,$,#120,.INSTALLATION.);
#122=IFCTASKTIME('Air handling units Time',.PREDICTED.,$,.WORKTIME.,'P0Y0M10D','2027-03-01T07:00:00','2027-03-12T07:00:00','2027-11-26T07:00:00','2027-12-09T07:00:00','2028-02-03T07:00:00','2028-02-16T07:00:00','P0Y0M0D','P0Y0M49D',.F.,$,$,$,$,$,0.00);
#123=IFCTASK('I94Bxltf6lm$SJjltZZtKJ',#6,'Air handling units',$,$,'5.4',$,$,$,.F.,$,#122,.INSTALLATION.);
#124=IFCTASKTIME('Ventilation ductwork Time',.PREDICTED.,$,.WORKTIME.,'P0Y0M15D','2027-03-01T07:00:00','2027-03-19T07:00:00','2027-12-10T07:00:00','2027-12-30T07:00:00','2028-02-17T07:00:00','2028-03-08T07:00:00','P0Y0M0D','P0Y0M49D',.F.,$,$,$,$,$,0.00);
#125=IFCTASK('gv4rR1$PxbzvU9e1mF3t0f',#6,'Ventilation ductwork',$,$,'5.5',$,$,$,.F.,$,#124,.INSTALLATION.);
#126=IFCTASKTIME('Sprinkler installation Time',.PREDICTED.,$,.WORKTIME.,'P0Y0M10D','2027-03-01T07:00:00','2027-03-12T07:00:00','2027-12-31T07:00:00','2028-01-13T07:00:00','2028-03-09T07:00:00','2028-03-22T07:00:00','P0Y0M0D','P0Y0M49D',.F.,$,$,$,$,$,0.00);
#127=IFCTASK('W1lJB7Ufyljf9rIVonr1Eb',#6,'Sprinkler installation',$,$,'5.6',$,$,$,.F.,$,#126,.INSTALLATION.);
#128=IFCTASKTIME('Lift installation Time',.PREDICTED.,$,.WORKTIME.,'P0Y0M20D','2027-03-01T07:00:00','2027-03-26T07:00:00','2028-01-14T07:00:00','2028-02-10T07:00:00','2028-03-23T07:00:00','2028-04-21T07:00:00','P0Y0M0D','P0Y0M49D',.F.,$,$,$,$,$,0.00);
#129=IFCTASK('FhJP7LS$w3o7QTnXHdaByL',#6,'Lift installation',$,$,'5.7',$,$,$,.F.,$,#128,.INSTALLATION.);
#130=IFCTASKTIME('BMS/building management Time',.PREDICTED.,$,.WORKTIME.,'P0Y0M8D','2027-03-01T07:00:00','2027-03-10T07:00:00','2028-02-11T07:00:00','2028-02-22T07:00:00','2028-04-24T07:00:00','2028-05-04T07:00:00','P0Y0M49D','P0Y0M49D',.F.,$,$,$,$,$,0.00);
#131=IFCTASK('f7azo$UNOF4LwXFVpr3NMJ',#6,'BMS/building management',$,$,'5.8',$,$,$,.F.,$,#130,.INSTALLATION.);
#132=IFCTASKTIME('6. Fit-out Time',.PREDICTED.,$,.WORKTIME.,'P0Y0M5D','2027-03-01T07:00:00','2027-03-05T07:00:00','2027-12-30T07:00:00','2028-03-22T07:00:00','2027-12-30T07:00:00','2028-03-22T07:00:00','P0Y0M0D','P0Y0M0D',.T.,$,$,$,$,$,0.00);
#133=IFCTASK('xhATy1AdxHLHbrIVgnFhoR',#6,'6. Fit-out',$,$,'6',$,$,$,.F.,$,#132,.CONSTRUCTION.);
#134=IFCTASKTIME('Office system partitions Time',.PREDICTED.,$,.WORKTIME.,'P0Y0M15D','2027-03-01T07:00:00','2027-03-19T07:00:00','2027-12-30T07:00:00','2028-01-19T07:00:00','2027-12-30T07:00:00','2028-01-19T07:00:00','P0Y0M0D','P0Y0M0D',.T.,$,$,$,$,$,0.00);
#135=IFCTASK('azCpdR2FKJib9NWVpdixRV',#6,'Office system partitions',$,$,'6.1',$,$,$,.F.,$,#134,.CONSTRUCTION.);
#136=IFCTASKTIME('Suspended ceilings Time',.PREDICTED.,$,.WORKTIME.,'P0Y0M12D','2027-03-01T07:00:00','2027-03-16T07:00:00','2028-01-20T07:00:00','2028-02-04T07:00:00','2028-01-20T07:00:00','2028-02-04T07:00:00','P0Y0M0D','P0Y0M0D',.T.,$,$,$,$,$,0.00);
#137=IFCTASK('RVJ7DjTHjfTtjjN$EnxHPr',#6,'Suspended ceilings',$,$,'6.2',$,$,$,.F.,$,#136,.CONSTRUCTION.);
#138=IFCTASKTIME('Raised floors Time',.PREDICTED.,$,.WORKTIME.,'P0Y0M10D','2027-03-01T07:00:00','2027-03-12T07:00:00','2028-02-07T07:00:00','2028-02-18T07:00:00','2028-02-07T07:00:00','2028-02-18T07:00:00','P0Y0M0D','P0Y0M0D',.T.,$,$,$,$,$,0.00);
#139=IFCTASK('gzNbajUFkh3fh3f1EjoXOB',#6,'Raised floors',$,$,'6.3',$,$,$,.F.,$,#138,.CONSTRUCTION.);
#140=IFCTASKTIME('Sanitary rooms Time',.PREDICTED.,$,.WORKTIME.,'P0Y0M8D','2027-03-01T07:00:00','2027-03-10T07:00:00','2028-02-21T07:00:00','2028-03-01T07:00:00','2028-02-21T07:00:00','2028-03-01T07:00:00','P0Y0M0D','P0Y0M0D',.T.,$,$,$,$,$,0.00);
#141=IFCTASK('Gtaz_hCnufZ9RVDHNfUhA7',#6,'Sanitary rooms',$,$,'6.4',$,$,$,.F.,$,#140,.CONSTRUCTION.);
#142=IFCTASKTIME('Kitchen/pantry fit-out Time',.PREDICTED.,$,.WORKTIME.,'P0Y0M5D','2027-03-01T07:00:00','2027-03-05T07:00:00','2028-03-02T07:00:00','2028-03-08T07:00:00','2028-03-02T07:00:00','2028-03-08T07:00:00','P0Y0M0D','P0Y0M0D',.T.,$,$,$,$,$,0.00);
#143=IFCTASK('8jBnZRolJfrnzbGVyB3NkB',#6,'Kitchen/pantry fit-out',$,$,'6.5',$,$,$,.F.,$,#142,.INSTALLATION.);
#144=IFCTASKTIME('Painting & finishing Time',.PREDICTED.,$,.WORKTIME.,'P0Y0M10D','2027-03-01T07:00:00','2027-03-12T07:00:00','2028-03-09T07:00:00','2028-03-22T07:00:00','2028-03-09T07:00:00','2028-03-22T07:00:00','P0Y0M0D','P0Y0M0D',.T.,$,$,$,$,$,0.00);
#145=IFCTASK('hzdLB3S1_fUNl9O$yrR1cB',#6,'Painting & finishing',$,$,'6.6',$,$,$,.F.,$,#144,.CONSTRUCTION.);
#146=IFCTASKTIME('7. Site works & handover Time',.PREDICTED.,$,.WORKTIME.,'P0Y0M5D','2027-03-01T07:00:00','2027-03-05T07:00:00','2028-03-23T07:00:00','2028-05-04T07:00:00','2028-03-23T07:00:00','2028-05-04T07:00:00','P0Y0M0D','P0Y0M0D',.T.,$,$,$,$,$,0.00);
#147=IFCTASK('qNg3kJB1iJSjoXxnUr3f_V',#6,'7. Site works & handover',$,$,'7',$,$,$,.F.,$,#146,.CONSTRUCTION.);
#148=IFCTASKTIME('Paving & landscaping Time',.PREDICTED.,$,.WORKTIME.,'P0Y0M10D','2027-03-01T07:00:00','2027-03-12T07:00:00','2028-03-23T07:00:00','2028-04-05T07:00:00','2028-03-23T07:00:00','2028-04-05T07:00:00','P0Y0M0D','P0Y0M0D',.T.,$,$,$,$,$,0.00);
#149=IFCTASK('6BQfqv79ddSjUt0Xb19reh',#6,'Paving & landscaping',$,$,'7.1',$,$,$,.F.,$,#148,.CONSTRUCTION.);
#150=IFCTASKTIME('Entrance & lobby fit-out Time',.PREDICTED.,$,.WORKTIME.,'P0Y0M8D','2027-03-01T07:00:00','2027-03-10T07:00:00','2028-04-06T07:00:00','2028-04-19T07:00:00','2028-04-06T07:00:00','2028-04-19T07:00:00','P0Y0M0D','P0Y0M0D',.T.,$,$,$,$,$,0.00);
#151=IFCTASK('LPWf4T0tznqTd3Jl9zvDOT',#6,'Entrance & lobby fit-out',$,$,'7.2',$,$,$,.F.,$,#150,.INSTALLATION.);
#152=IFCTASKTIME('Testing & commissioning Time',.PREDICTED.,$,.WORKTIME.,'P0Y0M10D','2027-03-01T07:00:00','2027-03-12T07:00:00','2028-04-20T07:00:00','2028-05-04T07:00:00','2028-04-20T07:00:00','2028-05-04T07:00:00','P0Y0M0D','P0Y0M0D',.T.,$,$,$,$,$,0.00);
#153=IFCTASK('8rMd17cvmD29LNCl6pTfId',#6,'Testing & commissioning',$,$,'7.3',$,$,$,.F.,$,#152,.ATTENDANCE.);
#154=IFCTASKTIME('Handover Time',.PREDICTED.,$,.WORKTIME.,'P0Y0M0D','2027-03-01T07:00:00','2027-03-01T07:00:00','2028-05-04T07:00:00','2028-05-04T07:00:00','2028-05-04T07:00:00','2028-05-04T07:00:00','P0Y0M0D','P0Y0M0D',.T.,$,$,$,$,$,0.00);
#155=IFCTASK('zJobajwXnzcV2DHV$TKjof',#6,'Handover',$,$,'7.4',$,$,$,.T.,$,#154,.CONSTRUCTION.);
#156=IFCRELNESTS('VV5n7Ph1ABDPWDpFft2HPh',#6,'WBS 1. Preparation',$,#43,( #45,#47,#49,#51,#53));
#157=IFCRELNESTS('$jM3UNv9fFX3jJt$0v8nJz',#6,'WBS 2. Earthworks & foundations',$,#55,( #57,#59,#61,#63,#65,#67,#69,#71,#73,#75));
#158=IFCRELNESTS('gTRHJ1gP5bZdiRKnYv07J$',#6,'WBS 3. Structural works',$,#77,( #79,#81,#83,#85,#87,#89,#91,#93,#95,#97,#99,#101));
#159=IFCRELNESTS('a3C5EXA$Gp2tjp5HKJstCZ',#6,'WBS 4. Facade',$,#103,( #105,#107,#109,#111,#113));
#160=IFCRELNESTS('LvyZCv9fmDAHbBM$jbXpab',#6,'WBS 5. Building services',$,#115,( #117,#119,#121,#123,#125,#127,#129,#131));
#161=IFCRELNESTS('CfM3AL31W5lJErkVEDIxjT',#6,'WBS 6. Fit-out',$,#133,( #135,#137,#139,#141,#143,#145));
#162=IFCRELNESTS('jRrXal0tvNkPOXRFml7br3',#6,'WBS 7. Site works & handover',$,#147,( #149,#151,#153,#155));
#163=IFCRELNESTS('tjjP5r1vgdnD4TBHzDgTrv',#6,'WBS Hoofd',$,#40,(#43,#55,#77,#103,#115,#133,#147));
#164=IFCRELSEQUENCE('b54TWXRXHD8vgLYFR$lzJV',#6,$,$,#45,#47,$,.FINISH_START.,$);
#165=IFCRELSEQUENCE('2nb1Ij5Vl1U5bh6HrpZNUF',#6,$,$,#47,#49,$,.FINISH_START.,$);
#166=IFCRELSEQUENCE('vlz9MRxVVPdradYV3D6jEt',#6,$,$,#49,#51,$,.FINISH_START.,$);
#167=IFCRELSEQUENCE('php7$zCXN51TZtSFzH1J2V',#6,$,$,#51,#53,$,.FINISH_START.,$);
#168=IFCRELSEQUENCE('wrcfG7c74RjNRLYnBtQvPh',#6,$,$,#57,#59,$,.FINISH_START.,$);
#169=IFCRELSEQUENCE('4D2XKhZ1sfZtZLYFb1XpaN',#6,$,$,#59,#61,$,.FINISH_START.,$);
#170=IFCRELSEQUENCE('_pcfaHmfANLlTf0VFNQDqn',#6,$,$,#61,#63,$,.FINISH_START.,$);
#171=IFCRELSEQUENCE('zH1rfHu7khrn$hEnoDIxb1',#6,$,$,#63,#65,$,.FINISH_START.,$);
#172=IFCRELSEQUENCE('$JYLbbB$Od9bTLonYBjvvR',#6,$,$,#65,#67,$,.FINISH_START.,$);
#173=IFCRELSEQUENCE('m7gdfJbVNn7hE$P$C38FB7',#6,$,$,#67,#69,$,.FINISH_START.,$);
#174=IFCRELSEQUENCE('5hERC5d9nnajk5GXyhFLsz',#6,$,$,#69,#71,$,.FINISH_START.,$);
#175=IFCRELSEQUENCE('9jR$oTtNwzYfbhEFEDULQH',#6,$,$,#71,#73,$,.FINISH_START.,$);
#176=IFCRELSEQUENCE('cR8VyT09n36$0T$XQznLgt',#6,$,$,#73,#75,$,.FINISH_START.,$);
#177=IFCRELSEQUENCE('cVpdpHW9tLb$Gr_XnR7bPr',#6,$,$,#79,#81,$,.FINISH_START.,$);
#178=IFCRELSEQUENCE('V1$ZSnaHfH3vUtO1vVj7XP',#6,$,$,#81,#83,$,.FINISH_START.,$);
#179=IFCRELSEQUENCE('I5fbORM$IVrFDT91ffob9J',#6,$,$,#83,#85,$,.FINISH_START.,$);
#180=IFCRELSEQUENCE('gvqxY9jVrfYfdzrFXldxh9',#6,$,$,#85,#87,$,.FINISH_START.,$);
#181=IFCRELSEQUENCE('AtQfihxFCvmVQH3l_bPxdv',#6,$,$,#87,#89,$,.FINISH_START.,$);
#182=IFCRELSEQUENCE('_JULt3T$MP1ZJVFVnNQDmX',#6,$,$,#89,#91,$,.FINISH_START.,$);
#183=IFCRELSEQUENCE('Z$$TqPr1y5VzxH9$ebYnrP',#6,$,$,#91,#93,$,.FINISH_START.,$);
#184=IFCRELSEQUENCE('EdsZe5otrz8v_pHXHBJv9p',#6,$,$,#93,#95,$,.FINISH_START.,$);
#185=IFCLAGTIME('Lag',.PREDICTED.,$,IFCDURATION('P5D'),.WORKTIME.);
#186=IFCRELSEQUENCE('WVDPdbs$aLPJ_dc1sVJvFV',#6,$,$,#95,#97,#185,.START_START.,$);
#187=IFCRELSEQUENCE('3J2rppXPlVMFL9GV4B5XqF',#6,$,$,#97,#99,$,.FINISH_START.,$);
#188=IFCRELSEQUENCE('pLjdxBtNobptX5WV1Taruj',#6,$,$,#99,#101,$,.FINISH_START.,$);
#189=IFCRELSEQUENCE('0nz9sBHdbXBnHzN1cz$5Dj',#6,$,$,#105,#107,$,.FINISH_START.,$);
#190=IFCRELSEQUENCE('kfWfur8v2tAZndIXwf2r4d',#6,$,$,#107,#109,$,.FINISH_START.,$);
#191=IFCRELSEQUENCE('9jxX8B8PZ$oredQ1QdG9OL',#6,$,$,#109,#111,$,.FINISH_START.,$);
#192=IFCRELSEQUENCE('A9MPl$tNahnLczjHNDhV09',#6,$,$,#111,#113,$,.FINISH_START.,$);
#193=IFCRELSEQUENCE('2Hn5EXM1kBPj_jrnPBa3DH',#6,$,$,#117,#119,$,.FINISH_START.,$);
#194=IFCLAGTIME('Lag',.PREDICTED.,$,IFCDURATION('P3D'),.WORKTIME.);
#195=IFCRELSEQUENCE('9Nobqx7ttXLl7JXXgB4Znx',#6,$,$,#119,#121,#194,.START_START.,$);
#196=IFCRELSEQUENCE('NzVzMVTllJypSD71ElfLsP',#6,$,$,#121,#123,$,.FINISH_START.,$);
#197=IFCRELSEQUENCE('oLR$IJjnKfgFdnVV47ijo9',#6,$,$,#123,#125,$,.FINISH_START.,$);
#198=IFCRELSEQUENCE('NZpP3vXPzTMzH3d1$Zijgj',#6,$,$,#125,#127,$,.FINISH_START.,$);
#199=IFCRELSEQUENCE('hzNbO3jXpx$T55O$m1Z9ux',#6,$,$,#127,#129,$,.FINISH_START.,$);
#200=IFCRELSEQUENCE('Ev2X8rO7mzufBDd1uryhER',#6,$,$,#129,#131,$,.FINISH_START.,$);
#201=IFCRELSEQUENCE('KbxFH5d9Pp61iXFVpLHBWP',#6,$,$,#135,#137,$,.FINISH_START.,$);
#202=IFCRELSEQUENCE('6FVhzdh$MPlj_JZla9I1gj',#6,$,$,#137,#139,$,.FINISH_START.,$);
#203=IFCRELSEQUENCE('pPEbe3jXjrLHNR0Xb$dx9H',#6,$,$,#139,#141,$,.FINISH_START.,$);
#204=IFCRELSEQUENCE('SVj7TRwVj9Hre1FVb1vRpH',#6,$,$,#141,#143,$,.FINISH_START.,$);
#205=IFCRELSEQUENCE('G9Kb8re7aBpPu90XlvG94d',#6,$,$,#143,#145,$,.FINISH_START.,$);
#206=IFCRELSEQUENCE('Y11TKh31CPSjY3d$zl1j2z',#6,$,$,#149,#151,$,.FINISH_START.,$);
#207=IFCRELSEQUENCE('bVzt_BWthv0nPnv$UPqRR5',#6,$,$,#151,#153,$,.FINISH_START.,$);
#208=IFCRELSEQUENCE('qf2rlx7tRr7DiRan$3Gtu5',#6,$,$,#153,#155,$,.FINISH_START.,$);
#209=IFCLAGTIME('Lag',.PREDICTED.,$,IFCDURATION('P10D'),.WORKTIME.);
#210=IFCRELSEQUENCE('6rMPfJ5XbVLlJVf1AXjvz7',#6,$,$,#45,#57,#209,.START_START.,$);
#211=IFCLAGTIME('Lag',.PREDICTED.,$,IFCRATIOMEASURE(0.4),.WORKTIME.);
#212=IFCRELSEQUENCE('cVxnRVL1ERBFThwHb5gZN$',#6,$,$,#57,#79,#211,.START_START.,$);
#213=IFCLAGTIME('Lag',.PREDICTED.,$,IFCDURATION('-P21D'),.WORKTIME.);
#214=IFCRELSEQUENCE('6ronbXDFYvuvUznVr9k1YD',#6,$,$,#99,#105,#213,.FINISH_START.,$);
#215=IFCLAGTIME('Lag',.PREDICTED.,$,IFCDURATION('P2D'),.WORKTIME.);
#216=IFCRELSEQUENCE('QR0tAnT1ol3voLYFTZCRnV',#6,$,$,#99,#111,#215,.FINISH_FINISH.,$);
#217=IFCRELSEQUENCE('HN09gXr1ifAHl9mXsVLX09',#6,$,$,#111,#117,$,.FINISH_START.,$);
#218=IFCLAGTIME('Lag',.PREDICTED.,$,IFCDURATION('P49D'),.WORKTIME.);
#219=IFCRELSEQUENCE('_DAvTxk9b1$x7pjnvbUnlB',#6,$,$,#117,#135,#218,.START_START.,$);
#220=IFCRELSEQUENCE('vHxXq7FvsNBFzRe1i1tBK1',#6,$,$,#145,#149,$,.FINISH_START.,$);
#221=IFCCONSTRUCTIONEQUIPMENTRESOURCE('wn$rfHGNijqTJVHVFbXDOT',#6,'Tower crane','One tower crane — the plot has room for a single crane base; floors, core and steel roof all queue for it',$,$,$,$,.USERDEFINED.);
#222=IFCSUBCONTRACTRESOURCE('hTjvlRDF2zWHZtyHRXxl75',#6,'Site works contractor','Site set-up, the traffic measures on the surrounding roads and, at the very end, the paving and landscaping',$,$,$,$,.USERDEFINED.);
#223=IFCLABORRESOURCE('STO1EzZ$AtXbPnt1rDZNQH',#6,'Project management','Stakeholder management towards neighbours and the city, and the handover file',$,$,$,$,.USERDEFINED.);
#224=IFCSUBCONTRACTRESOURCE('Aj39AhhlhJATPzBnt3vDub',#6,'Geotechnical monitoring contractor','Piezometers and deformation monitoring of the adjoining buildings — standard for a deep basement in the inner city',$,$,$,$,.USERDEFINED.);
#225=IFCSUBCONTRACTRESOURCE('5L6p5hhlHpm$ytSnn5B$IL',#6,'Piling contractor','Sheet piling and bored foundation piles',$,$,$,$,.USERDEFINED.);
#226=IFCSUBCONTRACTRESOURCE('jRrXaDUfuVkPG5KlG1zf2V',#6,'Earthworks contractor','Dewatering and the excavation down to level -2',$,$,$,$,.USERDEFINED.);
#227=IFCLABORRESOURCE('$pU1QpQ7yFnDSDt$5Lmfch',#6,'Structural works crew','Two concrete gangs of seven: one finishing the basement while the other climbs the tower',$,$,$,$,.USERDEFINED.);
#228=IFCLABORRESOURCE('0HVL3v1dtVR$u9O$ObMNUl',#6,'Core formwork gang','Dedicated gang on the self-climbing formwork of the stair and lift core, running alongside the floor cycle',$,$,$,$,.USERDEFINED.);
#229=IFCLABORRESOURCE('0lXhTNlPb1vDufCHEDYLcF',#6,'Steel fixers','Two rebar gangs of four, on the heavy elements; the typical floors get prefabricated reinforcement',$,$,$,$,.USERDEFINED.);
#230=IFCCONSTRUCTIONMATERIALRESOURCE('vrondNFP7fUNXlt$GnLXC3',#6,'Concrete C30/37',$,$,$,$,$,.USERDEFINED.);
#231=IFCSUBCONTRACTRESOURCE('DPAZ0lldNRBFv$Tnk3elfT',#6,'Structural steel contractor','Steel erection gang for the roof structure',$,$,$,$,.USERDEFINED.);
#232=IFCSUBCONTRACTRESOURCE('Z1Fp5hRFYv8fhTDnnxB1s3',#6,'Facade contractor','Unitised curtain wall, hoisted with its own monorail hoists off the floor edge — it never queues for the tower crane',$,$,$,$,.USERDEFINED.);
#233=IFCSUBCONTRACTRESOURCE('M3NRapsPN5fxZfe1zHfhMp',#6,'Roofing contractor',$,$,$,$,$,.USERDEFINED.);
#234=IFCLABORRESOURCE('R1$TirHdvZSjkRqH_NwJsP',#6,'Electricians',$,$,$,$,$,.USERDEFINED.);
#235=IFCLABORRESOURCE('nhLHl1$dhp29FJ3HEHfhE9',#6,'Mechanical fitters','Ductwork, air handling, sprinklers; peaks on the ventilation ductwork',$,$,$,$,.USERDEFINED.);
#236=IFCSUBCONTRACTRESOURCE('DBtprzCVrN_tFJ3l6f_B4B',#6,'Lift contractor',$,$,$,$,$,.USERDEFINED.);
#237=IFCLABORRESOURCE('CLz9ETVvGz8fZ9al9dGtOz',#6,'Fit-out crew','System partitions, ceilings and raised floors across eight office storeys',$,$,$,$,.USERDEFINED.);
#238=IFCLABORRESOURCE('RxKJt$UNGzu7MtCFqnVblF',#6,'Painters',$,$,$,$,$,.USERDEFINED.);
#239=IFCPROPERTYSINGLEVALUE('CostPerHour',$,IFCMONETARYMEASURE(110),$);
#240=IFCPROPERTYSINGLEVALUE('Color',$,IFCTEXT('#1E293B'),$);
#241=IFCPROPERTYSET('EdsTiBVvm38fLT3n0PCDyB',#6,'OPS_Resource',$,(#239,#240));
#242=IFCRELDEFINESBYPROPERTIES('rpHbSl0955tbtfWVNtoVqT',#6,$,$,(#221),#241);
#243=IFCPROPERTYSINGLEVALUE('MaxUnits',$,IFCREAL(6),$);
#244=IFCPROPERTYSINGLEVALUE('CostPerHour',$,IFCMONETARYMEASURE(58),$);
#245=IFCPROPERTYSINGLEVALUE('Color',$,IFCTEXT('#B91C1C'),$);
#246=IFCPROPERTYSET('fvqDPboH5Rz7UTzFiX3tab',#6,'OPS_Resource',$,(#243,#244,#245));
#247=IFCRELDEFINESBYPROPERTIES('Gv69QtKFoRD9p3jHb1$jsP',#6,$,$,(#222),#246);
#248=IFCPROPERTYSINGLEVALUE('MaxUnits',$,IFCREAL(2),$);
#249=IFCPROPERTYSINGLEVALUE('CostPerHour',$,IFCMONETARYMEASURE(95),$);
#250=IFCPROPERTYSINGLEVALUE('Color',$,IFCTEXT('#DB2777'),$);
#251=IFCPROPERTYSET('ujxXal0tJ9PJ_jzlYBb123',#6,'OPS_Resource',$,(#248,#249,#250));
#252=IFCRELDEFINESBYPROPERTIES('V$dh93z$aXpPaPs1Nfcpe3',#6,$,$,(#223),#251);
#253=IFCPROPERTYSINGLEVALUE('MaxUnits',$,IFCREAL(2),$);
#254=IFCPROPERTYSINGLEVALUE('CostPerHour',$,IFCMONETARYMEASURE(115),$);
#255=IFCPROPERTYSINGLEVALUE('Color',$,IFCTEXT('#C2410C'),$);
#256=IFCPROPERTYSET('A9_XqPr$8VQXkRyl$XHruR',#6,'OPS_Resource',$,(#253,#254,#255));
#257=IFCRELDEFINESBYPROPERTIES('nhpvppl74RJNpFt$J9A94P',#6,$,$,(#224),#256);
#258=IFCPROPERTYSINGLEVALUE('MaxUnits',$,IFCREAL(4),$);
#259=IFCPROPERTYSINGLEVALUE('CostPerHour',$,IFCMONETARYMEASURE(78),$);
#260=IFCPROPERTYSINGLEVALUE('Color',$,IFCTEXT('#6366F1'),$);
#261=IFCPROPERTYSET('PVTfW$v9v9QDO1VXO5AzlF',#6,'OPS_Resource',$,(#258,#259,#260));
#262=IFCRELDEFINESBYPROPERTIES('0nJd5LJXV7bVErg1$1LH5r',#6,$,$,(#225),#261);
#263=IFCPROPERTYSINGLEVALUE('MaxUnits',$,IFCREAL(6),$);
#264=IFCPROPERTYSINGLEVALUE('CostPerHour',$,IFCMONETARYMEASURE(62),$);
#265=IFCPROPERTYSINGLEVALUE('Color',$,IFCTEXT('#0D9488'),$);
#266=IFCPROPERTYSET('dxS3InqVDx7hM9iHex_BSt',#6,'OPS_Resource',$,(#263,#264,#265));
#267=IFCRELDEFINESBYPROPERTIES('EvEnPN$7gvRXk5WVFbdxvN',#6,$,$,(#226),#266);
#268=IFCPROPERTYSINGLEVALUE('MaxUnits',$,IFCREAL(14),$);
#269=IFCPROPERTYSINGLEVALUE('CostPerHour',$,IFCMONETARYMEASURE(46),$);
#270=IFCPROPERTYSINGLEVALUE('Color',$,IFCTEXT('#D97706'),$);
#271=IFCPROPERTYSET('Lz$TWVbVHJ4p03JllPCbll',#6,'OPS_Resource',$,(#268,#269,#270));
#272=IFCRELDEFINESBYPROPERTIES('ynVLbxlva19zBPw$Sf_Bql',#6,$,$,(#227),#271);
#273=IFCPROPERTYSINGLEVALUE('MaxUnits',$,IFCREAL(6),$);
#274=IFCPROPERTYSINGLEVALUE('CostPerHour',$,IFCMONETARYMEASURE(48),$);
#275=IFCPROPERTYSINGLEVALUE('Color',$,IFCTEXT('#A78BFA'),$);
#276=IFCPROPERTYSET('KbbHFFJXnH8NRBM$LPeHdh',#6,'OPS_Resource',$,(#273,#274,#275));
#277=IFCRELDEFINESBYPROPERTIES('xFF5QpUNOFaj6pTnY7unBP',#6,$,$,(#228),#276);
#278=IFCPROPERTYSINGLEVALUE('MaxUnits',$,IFCREAL(8),$);
#279=IFCPROPERTYSINGLEVALUE('CostPerHour',$,IFCMONETARYMEASURE(44),$);
#280=IFCPROPERTYSINGLEVALUE('Color',$,IFCTEXT('#38BDF8'),$);
#281=IFCPROPERTYSET('KbbHH$Nfc1wjcnf$PraBG$',#6,'OPS_Resource',$,(#278,#279,#280));
#282=IFCRELDEFINESBYPROPERTIES('xFF5wZ8dNn9bt9SHZ1zNYn',#6,$,$,(#229),#281);
#283=IFCPROPERTYSINGLEVALUE('MaxUnits',$,IFCREAL(999),$);
#284=IFCPROPERTYSINGLEVALUE('UnitOfMeasure',$,IFCLABEL('m³'),$);
#285=IFCPROPERTYSINGLEVALUE('Color',$,IFCTEXT('#4ADE80'),$);
#286=IFCPROPERTYSET('R$FpZtT$c1ILA5CHwjd5$j',#6,'OPS_Resource',$,(#283,#284,#285));
#287=IFCRELDEFINESBYPROPERTIES('2jUhjVM1YPSJIFZFgHpPR$',#6,$,$,(#230),#286);
#288=IFCPROPERTYSINGLEVALUE('MaxUnits',$,IFCREAL(4),$);
#289=IFCPROPERTYSINGLEVALUE('CostPerHour',$,IFCMONETARYMEASURE(70),$);
#290=IFCPROPERTYSINGLEVALUE('Color',$,IFCTEXT('#FBBF24'),$);
#291=IFCPROPERTYSET('XzqDVt41GT4LErc$oFTfgj',#6,'OPS_Resource',$,(#288,#289,#290));
#292=IFCRELDEFINESBYPROPERTIES('8rwtURM$_Ti3ZLkF4rzfE5',#6,$,$,(#231),#291);
#293=IFCPROPERTYSINGLEVALUE('MaxUnits',$,IFCREAL(8),$);
#294=IFCPROPERTYSINGLEVALUE('CostPerHour',$,IFCMONETARYMEASURE(72),$);
#295=IFCPROPERTYSINGLEVALUE('Color',$,IFCTEXT('#BEF264'),$);
#296=IFCPROPERTYSET('FhLH9TfNGZK3pTHXZX7DCz',#6,'OPS_Resource',$,(#293,#294,#295));
#297=IFCRELDEFINESBYPROPERTIES('eZh1cJA$4FXzL9WXRxcpy7',#6,$,$,(#232),#296);
#298=IFCPROPERTYSINGLEVALUE('MaxUnits',$,IFCREAL(4),$);
#299=IFCPROPERTYSINGLEVALUE('CostPerHour',$,IFCMONETARYMEASURE(66),$);
#300=IFCPROPERTYSINGLEVALUE('Color',$,IFCTEXT('#1E293B'),$);
#301=IFCPROPERTYSET('M7C5oX2nShfZ1V5nYdCRVv',#6,'OPS_Resource',$,(#298,#299,#300));
#302=IFCRELDEFINESBYPROPERTIES('lbrX8J3HpbrndFHXdnHruJ',#6,$,$,(#233),#301);
#303=IFCPROPERTYSINGLEVALUE('MaxUnits',$,IFCREAL(6),$);
#304=IFCPROPERTYSINGLEVALUE('CostPerHour',$,IFCMONETARYMEASURE(49),$);
#305=IFCPROPERTYSINGLEVALUE('Color',$,IFCTEXT('#1E293B'),$);
#306=IFCPROPERTYSET('HNm7PNFd1htzl3lXF55HZt',#6,'OPS_Resource',$,(#303,#304,#305));
#307=IFCRELDEFINESBYPROPERTIES('gTblLDMPpvrFFpN1tT3NQH',#6,$,$,(#234),#306);
#308=IFCPROPERTYSINGLEVALUE('MaxUnits',$,IFCREAL(8),$);
#309=IFCPROPERTYSINGLEVALUE('CostPerHour',$,IFCMONETARYMEASURE(48),$);
#310=IFCPROPERTYSINGLEVALUE('Color',$,IFCTEXT('#1E293B'),$);
#311=IFCPROPERTYSET('5LULt3T1gxfxRLoF69A9eZ',#6,'OPS_Resource',$,(#308,#309,#310));
#312=IFCRELDEFINESBYPROPERTIES('iduXaJElJN5X2v2nfNszpn',#6,$,$,(#235),#311);
#313=IFCPROPERTYSINGLEVALUE('MaxUnits',$,IFCREAL(3),$);
#314=IFCPROPERTYSINGLEVALUE('CostPerHour',$,IFCMONETARYMEASURE(82),$);
#315=IFCPROPERTYSINGLEVALUE('Color',$,IFCTEXT('#1E293B'),$);
#316=IFCPROPERTYSET('7BEFJzz$Cv8NFdM1fpZN_X',#6,'OPS_Resource',$,(#313,#314,#315));
#317=IFCRELDEFINESBYPROPERTIES('k9yTuhalrT4paJDH$z07zP',#6,$,$,(#236),#316);
#318=IFCPROPERTYSINGLEVALUE('MaxUnits',$,IFCREAL(10),$);
#319=IFCPROPERTYSINGLEVALUE('CostPerHour',$,IFCMONETARYMEASURE(44),$);
#320=IFCPROPERTYSINGLEVALUE('Color',$,IFCTEXT('#1E293B'),$);
#321=IFCPROPERTYSET('8BcN0lXvCz61Kx0X5FHBip',#6,'OPS_Resource',$,(#318,#319,#320));
#322=IFCRELDEFINESBYPROPERTIES('lfmP37v9pPVz1rg$R17bRx',#6,$,$,(#237),#321);
#323=IFCPROPERTYSINGLEVALUE('MaxUnits',$,IFCREAL(6),$);
#324=IFCPROPERTYSINGLEVALUE('CostPerHour',$,IFCMONETARYMEASURE(38),$);
#325=IFCPROPERTYSINGLEVALUE('Color',$,IFCTEXT('#1E293B'),$);
#326=IFCPROPERTYSET('vFtppnSHPvuf9hEFsx_Bml',#6,'OPS_Resource',$,(#323,#324,#325));
#327=IFCRELDEFINESBYPROPERTIES('W19xEZ9NEHD9V5u$YBJvDn',#6,$,$,(#238),#326);
#328=IFCRELASSIGNSTOPROCESS('uBcfebEHbLT9RX5ncd07Dn',#6,$,$,(#222),$,#45,$);
#329=IFCRELASSIGNSTOPROCESS('AJ5XexIt5HjNDnv$EHnZR1',#6,$,$,(#223),$,#47,$);
#330=IFCRELASSIGNSTOPROCESS('U3ahHVh$olLHltmVI1zNs3',#6,$,$,(#222),$,#49,$);
#331=IFCRELASSIGNSTOPROCESS('IRrX4VwVB3e9nDd14BT9Wd',#6,$,$,(#224),$,#51,$);
#332=IFCRELASSIGNSTOPROCESS('gdelNDXdVPdrK$jnFNI5dv',#6,$,$,(#225),$,#57,$);
#333=IFCRELASSIGNSTOPROCESS('4FvTuLS$sNb$apnVHvOX4P',#6,$,$,(#226),$,#59,$);
#334=IFCRELASSIGNSTOPROCESS('aVJvZRklR$lrGhknS9k1Yj',#6,$,$,(#226),$,#61,$);
#335=IFCRELASSIGNSTOPROCESS('uLI5Qf0tpvbVgtiH07OV0N',#6,$,$,(#226),$,#63,$);
#336=IFCRELASSIGNSTOPROCESS('h3FDbxXdFH0FhfqlElnTtl',#6,$,$,(#225),$,#65,$);
#337=IFCRELASSIGNSTOPROCESS('9fYLl$tNedN5bLwHXJUndv',#6,$,$,(#227,#229,#230),$,#67,$);
#338=IFCRELASSIGNSTOPROCESS('pLhHZ9hHNnX3dHbFKXxHPh',#6,$,$,(#227,#230),$,#69,$);
#339=IFCRELASSIGNSTOPROCESS('mvY1oTtfcXUNRhInKXZNQF',#6,$,$,(#227,#230),$,#71,$);
#340=IFCRELASSIGNSTOPROCESS('R5SzMxXdNxFDibalh315b1',#6,$,$,(#227,#229,#230),$,#73,$);
#341=IFCRELASSIGNSTOPROCESS('bxq5EZlPzz29JDjF1$BnBv',#6,$,$,(#227),$,#75,$);
#342=IFCRELASSIGNSTOPROCESS('H9C5M1P9XP7hEVjlvRcvn$',#6,$,$,(#227,#229,#221,#230),$,#79,$);
#343=IFCRELASSIGNSTOPROCESS('6hsZ0Hvtt$1xJXv1ZzWPDj',#6,$,$,(#227,#221,#230),$,#81,$);
#344=IFCRELASSIGNSTOPROCESS('aTe$M$1dV51Z9hwlbxQDa9',#6,$,$,(#227,#221,#230),$,#83,$);
#345=IFCRELASSIGNSTOPROCESS('ndcjZR6Xt$HB03JHVnj7Lp',#6,$,$,(#227,#221,#230),$,#85,$);
#346=IFCRELASSIGNSTOPROCESS('f3$TaH0tBTaJA5yFJb1jE5',#6,$,$,(#227,#221,#230),$,#87,$);
#347=IFCRELASSIGNSTOPROCESS('hdmPt3LHPvWHHfKHOjXpeL',#6,$,$,(#227,#221,#230),$,#89,$);
#348=IFCRELASSIGNSTOPROCESS('WVL1E1sPxnV3N7UnTTKxdd',#6,$,$,(#227,#221,#230),$,#91,$);
#349=IFCRELASSIGNSTOPROCESS('UXRl3vHvC78fZt4lF9_HxL',#6,$,$,(#227,#221,#230),$,#93,$);
#350=IFCRELASSIGNSTOPROCESS('YXTNmtCn8XQVg9CHczVb5h',#6,$,$,(#227,#221,#230),$,#95,$);
#351=IFCRELASSIGNSTOPROCESS('ohTfKNfNWbp9XbSHlh7Dup',#6,$,$,(#228,#229,#230),$,#97,$);
#352=IFCRELASSIGNSTOPROCESS('t9IHX9S$sNLlT9SHLz$5N$',#6,$,$,(#231,#221),$,#99,$);
#353=IFCRELASSIGNSTOPROCESS('3p_VSH0tHD8vYt81QZDP$p',#6,$,$,(#232),$,#105,$);
#354=IFCRELASSIGNSTOPROCESS('hvKJxFZ$wzov6Xf$s$tBeh',#6,$,$,(#232),$,#107,$);
#355=IFCRELASSIGNSTOPROCESS('$joRi9T1Y7m$mLAl8ZjvzP',#6,$,$,(#232),$,#109,$);
#356=IFCRELASSIGNSTOPROCESS('_p6t_hqX1tfTpnv1UdCb5L',#6,$,$,(#233),$,#111,$);
#357=IFCRELASSIGNSTOPROCESS('vLcjpJB1GDgnv1RHA5YLkr',#6,$,$,(#234),$,#117,$);
#358=IFCRELASSIGNSTOPROCESS('ezHjzrmNcpOP0zRFCTqDaR',#6,$,$,(#234),$,#119,$);
#359=IFCRELASSIGNSTOPROCESS('xH39_7NNwlOt5ld$jNAzZt',#6,$,$,(#235),$,#121,$);
#360=IFCRELASSIGNSTOPROCESS('2FTNeTdtrfw$utGVOD3tCn',#6,$,$,(#235),$,#123,$);
#361=IFCRELASSIGNSTOPROCESS('6lZfujB18fZtVbSFbRAtez',#6,$,$,(#235),$,#125,$);
#362=IFCRELASSIGNSTOPROCESS('mNGd9zpVvtILYzXXkVnh2T',#6,$,$,(#235),$,#127,$);
#363=IFCRELASSIGNSTOPROCESS('1DU$ID9Nu97pe171on5ldh',#6,$,$,(#236),$,#129,$);
#364=IFCRELASSIGNSTOPROCESS('7HBnR$Nf6zMn$LUn9zlByP',#6,$,$,(#234),$,#131,$);
#365=IFCRELASSIGNSTOPROCESS('qLD7l5Fvc$Ux3dg1fD5lT9',#6,$,$,(#237),$,#135,$);
#366=IFCRELASSIGNSTOPROCESS('hduXaJs1GTSjo$v1k38Fzh',#6,$,$,(#237),$,#137,$);
#367=IFCRELASSIGNSTOPROCESS('cRGPXNWtFnCT3doVyBLltj',#6,$,$,(#237),$,#139,$);
#368=IFCRELASSIGNSTOPROCESS('0nZfmNmf0BFLQnd1axB1cr',#6,$,$,(#237,#235),$,#141,$);
#369=IFCRELASSIGNSTOPROCESS('8LsTyT0tFTQpqrIXA5gZLN',#6,$,$,(#237),$,#143,$);
#370=IFCRELASSIGNSTOPROCESS('R5a3YtjXp5fx9LAlCHBFXZ',#6,$,$,(#238),$,#145,$);
#371=IFCRELASSIGNSTOPROCESS('MZpPPbYnElrFV5O$iVpP5n',#6,$,$,(#222),$,#149,$);
#372=IFCRELASSIGNSTOPROCESS('5nVhXNGNstVRbXjHxHzNg9',#6,$,$,(#237),$,#151,$);
#373=IFCRELASSIGNSTOPROCESS('OTh$gRh$w3IdavEncZrFrP',#6,$,$,(#234,#235,#223),$,#153,$);
#374=IFCPROPERTYSINGLEVALUE('hTjvlRDF2zWHZtyHRXxl75#0',$,IFCTEXT('6|UNIFORM'),$);
#375=IFCPROPERTYSET('lxlj1T8vE5Vztf0Xnf6joR',#6,'OPS_Assignments',$,(#374));
#376=IFCRELDEFINESBYPROPERTIES('ujb$_rW93ZMzdn9$v1FZ9l',#6,$,$,(#45),#375);
#377=IFCPROPERTYSINGLEVALUE('STO1EzZ$AtXbPnt1rDZNQH#0',$,IFCTEXT('2|UNIFORM'),$);
#378=IFCPROPERTYSET('1Hnxw7ItBfw18fCHUPazfZ',#6,'OPS_Assignments',$,(#377));
#379=IFCRELDEFINESBYPROPERTIES('cbGvVjwXtV3fplbnCljvHF',#6,$,$,(#47),#378);
#380=IFCPROPERTYSINGLEVALUE('hTjvlRDF2zWHZtyHRXxl75#0',$,IFCTEXT('4|UNIFORM'),$);
#381=IFCPROPERTYSET('LdO$EZFPRhJvUte$lhFhwb',#6,'OPS_Assignments',$,(#380));
#382=IFCRELDEFINESBYPROPERTIES('I5Hj9$otx5$ZVF3Fqz8$gJ',#6,$,$,(#49),#381);
#383=IFCPROPERTYSINGLEVALUE('Aj39AhhlhJATPzBnt3vDub#0',$,IFCTEXT('2|UNIFORM'),$);
#384=IFCPROPERTYSET('bVz9gbjnqzMntNWVFxB$AP',#6,'OPS_Assignments',$,(#383));
#385=IFCRELDEFINESBYPROPERTIES('_jcJxFz$aXxVUfaHHh1xf$',#6,$,$,(#51),#384);
#386=IFCPROPERTYSINGLEVALUE('5L6p5hhlHpm$ytSnn5B$IL#0',$,IFCTEXT('4|UNIFORM'),$);
#387=IFCPROPERTYSET('prVL17YfWxHjcl3lsxERVd',#6,'OPS_Assignments',$,(#386));
#388=IFCRELDEFINESBYPROPERTIES('cXZfW179Vx1ZJXVV2N6jwV',#6,$,$,(#57),#387);
#389=IFCPROPERTYSINGLEVALUE('jRrXaDUfuVkPG5KlG1zf2V#0',$,IFCTEXT('3|UNIFORM'),$);
#390=IFCPROPERTYSET('5LcjR$VdX7Td0zzHA52rSf',#6,'OPS_Assignments',$,(#389));
#391=IFCRELDEFINESBYPROPERTIES('iv4BnL5niJCZBjBF5lpdPP',#6,$,$,(#59),#390);
#392=IFCPROPERTYSINGLEVALUE('jRrXaDUfuVkPG5KlG1zf2V#0',$,IFCTEXT('6|UNIFORM'),$);
#393=IFCPROPERTYSET('Rxaz2v9N8$ErulnVxn1xVT',#6,'OPS_Assignments',$,(#392));
#394=IFCRELDEFINESBYPROPERTIES('CfI52BmNmjwJY3v1VHnZ7f',#6,$,$,(#61),#393);
#395=IFCPROPERTYSINGLEVALUE('jRrXaDUfuVkPG5KlG1zf2V#0',$,IFCTEXT('6|UNIFORM'),$);
#396=IFCPROPERTYSET('HRxFppdth7e9XbSl1TSzXd',#6,'OPS_Assignments',$,(#395));
#397=IFCRELDEFINESBYPROPERTIES('upP3o1c7qZIL27glIz07z7',#6,$,$,(#63),#396);
#398=IFCPROPERTYSINGLEVALUE('5L6p5hhlHpm$ytSnn5B$IL#0',$,IFCTEXT('4|UNIFORM'),$);
#399=IFCPROPERTYSET('Y1vrRX3HVvLHxbiF2tEVKX',#6,'OPS_Assignments',$,(#398));
#400=IFCRELDEFINESBYPROPERTIES('5rQfalOdNR37AxSnZ1DdLt',#6,$,$,(#65),#399);
#401=IFCPROPERTYSINGLEVALUE('$pU1QpQ7yFnDSDt$5Lmfch#0',$,IFCTEXT('6|UNIFORM'),$);
#402=IFCPROPERTYSINGLEVALUE('0lXhTNlPb1vDufCHEDYLcF#1',$,IFCTEXT('4|UNIFORM'),$);
#403=IFCPROPERTYSINGLEVALUE('vrondNFP7fUNXlt$GnLXC3#2',$,IFCTEXT('45|UNIFORM'),$);
#404=IFCPROPERTYSET('IRZfanKFYjEBOVDl1TCDGn',#6,'OPS_Assignments',$,(#401,#402,#403));
#405=IFCRELDEFINESBYPROPERTIES('7lD7NFKFANpPmrEXWtYFTR',#6,$,$,(#67),#404);
#406=IFCPROPERTYSINGLEVALUE('$pU1QpQ7yFnDSDt$5Lmfch#0',$,IFCTEXT('6|UNIFORM'),$);
#407=IFCPROPERTYSINGLEVALUE('vrondNFP7fUNXlt$GnLXC3#1',$,IFCTEXT('70|UNIFORM'),$);
#408=IFCPROPERTYSET('4ndzc9CnevRVwJHX5LGfQL',#6,'OPS_Assignments',$,(#406,#407));
#409=IFCRELDEFINESBYPROPERTIES('TZWNiLRnkX3N37oF2bd55H',#6,$,$,(#69),#408);
#410=IFCPROPERTYSINGLEVALUE('$pU1QpQ7yFnDSDt$5Lmfch#0',$,IFCTEXT('6|UNIFORM'),$);
#411=IFCPROPERTYSINGLEVALUE('vrondNFP7fUNXlt$GnLXC3#1',$,IFCTEXT('70|UNIFORM'),$);
#412=IFCPROPERTYSET('d195IHuP9$9zPHplXDQpql',#6,'OPS_Assignments',$,(#410,#411));
#413=IFCRELDEFINESBYPROPERTIES('0FJPTNHPJrpP8HFVNjdxXT',#6,$,$,(#71),#412);
#414=IFCPROPERTYSINGLEVALUE('$pU1QpQ7yFnDSDt$5Lmfch#0',$,IFCTEXT('6|UNIFORM'),$);
#415=IFCPROPERTYSINGLEVALUE('0lXhTNlPb1vDufCHEDYLcF#1',$,IFCTEXT('4|UNIFORM'),$);
#416=IFCPROPERTYSINGLEVALUE('vrondNFP7fUNXlt$GnLXC3#2',$,IFCTEXT('55|FRONT_LOADED'),$);
#417=IFCPROPERTYSET('IN8nvv1dJfjvELsHSxhVuj',#6,'OPS_Assignments',$,(#414,#415,#416));
#418=IFCRELDEFINESBYPROPERTIES('LZrX4TmNednpy9qlsRAtOh',#6,$,$,(#73),#417);
#419=IFCPROPERTYSINGLEVALUE('$pU1QpQ7yFnDSDt$5Lmfch#0',$,IFCTEXT('4|UNIFORM'),$);
#420=IFCPROPERTYSET('INGvj3LHXRLHbLoFYLXb3d',#6,'OPS_Assignments',$,(#419));
#421=IFCRELDEFINESBYPROPERTIES('hTTfeZv99XpdqHrnPBarWd',#6,$,$,(#75),#420);
#422=IFCPROPERTYSINGLEVALUE('$pU1QpQ7yFnDSDt$5Lmfch#0',$,IFCTEXT('8|UNIFORM'),$);
#423=IFCPROPERTYSINGLEVALUE('0lXhTNlPb1vDufCHEDYLcF#1',$,IFCTEXT('4|UNIFORM'),$);
#424=IFCPROPERTYSINGLEVALUE('wn$rfHGNijqTJVHVFbXDOT#2',$,IFCTEXT('1|UNIFORM'),$);
#425=IFCPROPERTYSINGLEVALUE('vrondNFP7fUNXlt$GnLXC3#3',$,IFCTEXT('60|UNIFORM'),$);
#426=IFCPROPERTYSET('ujhHnl17cpuNJ$ZnARMNQH',#6,'OPS_Assignments',$,(#422,#423,#424,#425));
#427=IFCRELDEFINESBYPROPERTIES('VVBV0nDVzlWHhZDFFbdxdd',#6,$,$,(#79),#426);
#428=IFCPROPERTYSINGLEVALUE('$pU1QpQ7yFnDSDt$5Lmfch#0',$,IFCTEXT('8|UNIFORM'),$);
#429=IFCPROPERTYSINGLEVALUE('wn$rfHGNijqTJVHVFbXDOT#1',$,IFCTEXT('1|UNIFORM'),$);
#430=IFCPROPERTYSINGLEVALUE('vrondNFP7fUNXlt$GnLXC3#2',$,IFCTEXT('45|UNIFORM'),$);
#431=IFCPROPERTYSET('ndk5cDotnzIPy3HXJtEXOr',#6,'OPS_Assignments',$,(#428,#429,#430));
#432=IFCRELDEFINESBYPROPERTIES('ADNJh9a1olDtBPoVex6jAv',#6,$,$,(#81),#431);
#433=IFCPROPERTYSINGLEVALUE('$pU1QpQ7yFnDSDt$5Lmfch#0',$,IFCTEXT('8|UNIFORM'),$);
#434=IFCPROPERTYSINGLEVALUE('wn$rfHGNijqTJVHVFbXDOT#1',$,IFCTEXT('1|UNIFORM'),$);
#435=IFCPROPERTYSINGLEVALUE('vrondNFP7fUNXlt$GnLXC3#2',$,IFCTEXT('45|UNIFORM'),$);
#436=IFCPROPERTYSET('JtKRGNOdrfEvQlLF97ijI7',#6,'OPS_Assignments',$,(#433,#434,#435));
#437=IFCRELDEFINESBYPROPERTIES('iRpdRx1P$LFLAdUVRXTfMj',#6,$,$,(#83),#436);
#438=IFCPROPERTYSINGLEVALUE('$pU1QpQ7yFnDSDt$5Lmfch#0',$,IFCTEXT('8|UNIFORM'),$);
#439=IFCPROPERTYSINGLEVALUE('wn$rfHGNijqTJVHVFbXDOT#1',$,IFCTEXT('1|UNIFORM'),$);
#440=IFCPROPERTYSINGLEVALUE('vrondNFP7fUNXlt$GnLXC3#2',$,IFCTEXT('45|UNIFORM'),$);
#441=IFCPROPERTYSET('eTxFfFqnWRrF3RmVuryZh9',#6,'OPS_Assignments',$,(#438,#439,#440));
#442=IFCRELDEFINESBYPROPERTIES('$nb12LKVbBNTdZt1xBi5tn',#6,$,$,(#85),#441);
#443=IFCPROPERTYSINGLEVALUE('$pU1QpQ7yFnDSDt$5Lmfch#0',$,IFCTEXT('8|UNIFORM'),$);
#444=IFCPROPERTYSINGLEVALUE('wn$rfHGNijqTJVHVFbXDOT#1',$,IFCTEXT('1|UNIFORM'),$);
#445=IFCPROPERTYSINGLEVALUE('vrondNFP7fUNXlt$GnLXC3#2',$,IFCTEXT('45|UNIFORM'),$);
#446=IFCPROPERTYSET('W$t5ArXvybbVM9qFyLNTV3',#6,'OPS_Assignments',$,(#443,#444,#445));
#447=IFCRELDEFINESBYPROPERTIES('7rsvh941KpG14NGXmHXpWP',#6,$,$,(#87),#446);
#448=IFCPROPERTYSINGLEVALUE('$pU1QpQ7yFnDSDt$5Lmfch#0',$,IFCTEXT('8|UNIFORM'),$);
#449=IFCPROPERTYSINGLEVALUE('wn$rfHGNijqTJVHVFbXDOT#1',$,IFCTEXT('1|UNIFORM'),$);
#450=IFCPROPERTYSINGLEVALUE('vrondNFP7fUNXlt$GnLXC3#2',$,IFCTEXT('45|UNIFORM'),$);
#451=IFCPROPERTYSET('qrHRSpQvGpEvsbmV4LVRFX',#6,'OPS_Assignments',$,(#448,#449,#450));
#452=IFCRELDEFINESBYPROPERTIES('b1vBVpQ7m3e9dF1VghGfQF',#6,$,$,(#89),#451);
#453=IFCPROPERTYSINGLEVALUE('$pU1QpQ7yFnDSDt$5Lmfch#0',$,IFCTEXT('8|UNIFORM'),$);
#454=IFCPROPERTYSINGLEVALUE('wn$rfHGNijqTJVHVFbXDOT#1',$,IFCTEXT('1|UNIFORM'),$);
#455=IFCPROPERTYSINGLEVALUE('vrondNFP7fUNXlt$GnLXC3#2',$,IFCTEXT('45|UNIFORM'),$);
#456=IFCPROPERTYSET('f7qxYxgPV5FpK581DB3Ncn',#6,'OPS_Assignments',$,(#453,#454,#455));
#457=IFCRELDEFINESBYPROPERTIES('mPsTW1$Pd7mVcZf1$XHBup',#6,$,$,(#91),#456);
#458=IFCPROPERTYSINGLEVALUE('$pU1QpQ7yFnDSDt$5Lmfch#0',$,IFCTEXT('8|UNIFORM'),$);
#459=IFCPROPERTYSINGLEVALUE('wn$rfHGNijqTJVHVFbXDOT#1',$,IFCTEXT('1|UNIFORM'),$);
#460=IFCPROPERTYSINGLEVALUE('vrondNFP7fUNXlt$GnLXC3#2',$,IFCTEXT('45|UNIFORM'),$);
#461=IFCPROPERTYSET('dxaL3vd9vZCZJX$VO5ULkh',#6,'OPS_Assignments',$,(#458,#459,#460));
#462=IFCRELDEFINESBYPROPERTIES('odQjXj_FePvLQzpHVDAzZf',#6,$,$,(#93),#461);
#463=IFCPROPERTYSINGLEVALUE('$pU1QpQ7yFnDSDt$5Lmfch#0',$,IFCTEXT('8|UNIFORM'),$);
#464=IFCPROPERTYSINGLEVALUE('wn$rfHGNijqTJVHVFbXDOT#1',$,IFCTEXT('1|UNIFORM'),$);
#465=IFCPROPERTYSINGLEVALUE('vrondNFP7fUNXlt$GnLXC3#2',$,IFCTEXT('45|UNIFORM'),$);
#466=IFCPROPERTYSET('d5KJb1ffwl87Ixe$VDEbnV',#6,'OPS_Assignments',$,(#463,#464,#465));
#467=IFCRELDEFINESBYPROPERTIES('EdIxkFiXLj_b1Bw1GHNLsP',#6,$,$,(#95),#466);
#468=IFCPROPERTYSINGLEVALUE('0HVL3v1dtVR$u9O$ObMNUl#0',$,IFCTEXT('6|UNIFORM'),$);
#469=IFCPROPERTYSINGLEVALUE('0lXhTNlPb1vDufCHEDYLcF#1',$,IFCTEXT('4|UNIFORM'),$);
#470=IFCPROPERTYSINGLEVALUE('vrondNFP7fUNXlt$GnLXC3#2',$,IFCTEXT('35|UNIFORM'),$);
#471=IFCPROPERTYSET('5F9DnFJV9hxXcnf1fDJ7dr',#6,'OPS_Assignments',$,(#468,#469,#470));
#472=IFCRELDEFINESBYPROPERTIES('UTe1wdg1YJQDO7sl8Tj7tD',#6,$,$,(#97),#471);
#473=IFCPROPERTYSINGLEVALUE('DPAZ0lldNRBFv$Tnk3elfT#0',$,IFCTEXT('4|UNIFORM'),$);
#474=IFCPROPERTYSINGLEVALUE('wn$rfHGNijqTJVHVFbXDOT#1',$,IFCTEXT('1|UNIFORM'),$);
#475=IFCPROPERTYSET('kxdhNpVP$fhHtBg$VH7bjX',#6,'OPS_Assignments',$,(#473,#474));
#476=IFCRELDEFINESBYPROPERTIES('vFlbmfGf_NcXM9yFFfAzbx',#6,$,$,(#99),#475);
#477=IFCPROPERTYSINGLEVALUE('Z1Fp5hRFYv8fhTDnnxB1s3#0',$,IFCTEXT('8|UNIFORM'),$);
#478=IFCPROPERTYSET('C969snbF6lGXcTnXJx39eh',#6,'OPS_Assignments',$,(#477));
#479=IFCRELDEFINESBYPROPERTIES('Dr1rP9DXtXzNrpf$PBSrq3',#6,$,$,(#105),#478);
#480=IFCPROPERTYSINGLEVALUE('Z1Fp5hRFYv8fhTDnnxB1s3#0',$,IFCTEXT('8|UNIFORM'),$);
#481=IFCPROPERTYSET('qhD7t1UNSXb1GrEX8TDP3h',#6,'OPS_Assignments',$,(#480));
#482=IFCRELDEFINESBYPROPERTIES('bVztsnz1yRTPKb4FHdCDC3',#6,$,$,(#107),#481);
#483=IFCPROPERTYSINGLEVALUE('Z1Fp5hRFYv8fhTDnnxB1s3#0',$,IFCTEXT('6|UNIFORM'),$);
#484=IFCPROPERTYSET('sNQjvP3HLdSBGhwldl5XCl',#6,'OPS_Assignments',$,(#483));
#485=IFCRELDEFINESBYPROPERTIES('nh3tEVs$qTkLQzTl8hGtup',#6,$,$,(#109),#484);
#486=IFCPROPERTYSINGLEVALUE('M3NRapsPN5fxZfe1zHfhMp#0',$,IFCTEXT('4|UNIFORM'),$);
#487=IFCPROPERTYSET('r9s7L9KnolLHbhkFuBaBe3',#6,'OPS_Assignments',$,(#486));
#488=IFCRELDEFINESBYPROPERTIES('oLTNuLCXDbTdSplXlrj7hJ',#6,$,$,(#111),#487);
#489=IFCPROPERTYSINGLEVALUE('R1$TirHdvZSjkRqH_NwJsP#0',$,IFCTEXT('4|UNIFORM'),$);
#490=IFCPROPERTYSET('GPULNp9NeddBK1ZFYr3fYj',#6,'OPS_Assignments',$,(#489));
#491=IFCRELDEFINESBYPROPERTIES('tJR1EZFdLpYNXnRHYBjvfZ',#6,$,$,(#117),#490);
#492=IFCPROPERTYSINGLEVALUE('R1$TirHdvZSjkRqH_NwJsP#0',$,IFCTEXT('6|UNIFORM'),$);
#493=IFCPROPERTYSET('XZmvtX_FaV5Xg9yHrfMTL9',#6,'OPS_Assignments',$,(#492));
#494=IFCRELDEFINESBYPROPERTIES('8Bw9_hy1Wb5$4tqHUhfTr7',#6,$,$,(#119),#493);
#495=IFCPROPERTYSINGLEVALUE('nhLHl1$dhp29FJ3HEHfhE9#0',$,IFCTEXT('6|UNIFORM'),$);
#496=IFCPROPERTYSET('4JkxQtyHN5X3FjhFj9Q7j1',#6,'OPS_Assignments',$,(#495));
#497=IFCRELDEFINESBYPROPERTIES('Ld8XmNu7AB5VYznVRXjvr3',#6,$,$,(#121),#496);
#498=IFCPROPERTYSINGLEVALUE('nhLHl1$dhp29FJ3HEHfhE9#0',$,IFCTEXT('6|UNIFORM'),$);
#499=IFCPROPERTYSET('vronR1n7gRLlRhMl_tUnNX',#6,'OPS_Assignments',$,(#498));
#500=IFCRELDEFINESBYPROPERTIES('kfO1MRTlxxnDunTnwNs3R5',#6,$,$,(#123),#499);
#501=IFCPROPERTYSINGLEVALUE('nhLHl1$dhp29FJ3HEHfhE9#0',$,IFCTEXT('8|UNIFORM'),$);
#502=IFCPROPERTYSET('zpEF5FRFAL7pajLFjfgZ3B',#6,'OPS_Assignments',$,(#501));
#503=IFCRELDEFINESBYPROPERTIES('gPe$srvtPvWHH9e$3l9rGX',#6,$,$,(#125),#502);
#504=IFCPROPERTYSINGLEVALUE('nhLHl1$dhp29FJ3HEHfhE9#0',$,IFCTEXT('6|UNIFORM'),$);
#505=IFCPROPERTYSET('vF7Ty$2N_3ufHfSn9PmfIL',#6,'OPS_Assignments',$,(#504));
#506=IFCRELDEFINESBYPROPERTIES('WXxnHbr$q361O$N$RXB$ER',#6,$,$,(#127),#505);
#507=IFCPROPERTYSINGLEVALUE('DBtprzCVrN_tFJ3l6f_B4B#0',$,IFCTEXT('3|UNIFORM'),$);
#508=IFCPROPERTYSET('AtQNW1d9b1fTnPs$ZXt3vb',#6,'OPS_Assignments',$,(#507));
#509=IFCRELDEFINESBYPROPERTIES('FBVhzv9fGjoriVnXDrZ9at',#6,$,$,(#129),#508);
#510=IFCPROPERTYSINGLEVALUE('R1$TirHdvZSjkRqH_NwJsP#0',$,IFCTEXT('4|UNIFORM'),$);
#511=IFCPROPERTYSET('_JQJHxVP5HRVwjv$5HrFXZ',#6,'OPS_Assignments',$,(#510));
#512=IFCRELDEFINESBYPROPERTIES('fd0tUx67YPK39f81cZLlZt',#6,$,$,(#131),#511);
#513=IFCPROPERTYSINGLEVALUE('CLz9ETVvGz8fZ9al9dGtOz#0',$,IFCTEXT('10|UNIFORM'),$);
#514=IFCPROPERTYSET('3lvZmPM1oxHjoh2Fp7mfAv',#6,'OPS_Assignments',$,(#513));
#515=IFCRELDEFINESBYPROPERTIES('SZeHTfndNljf3vknipYhYl',#6,$,$,(#135),#514);
#516=IFCPROPERTYSINGLEVALUE('CLz9ETVvGz8fZ9al9dGtOz#0',$,IFCTEXT('8|UNIFORM'),$);
#517=IFCPROPERTYSET('CBNjb1n76nKRHZrHjbH3B3',#6,'OPS_Assignments',$,(#516));
#518=IFCRELDEFINESBYPROPERTIES('b1XzsLrl5nnDyf0V3jI1Qh',#6,$,$,(#137),#517);
#519=IFCPROPERTYSINGLEVALUE('CLz9ETVvGz8fZ9al9dGtOz#0',$,IFCTEXT('6|UNIFORM'),$);
#520=IFCPROPERTYSET('l9SzU5_foRBFFj5FU70vn1',#6,'OPS_Assignments',$,(#519));
#521=IFCRELDEFINESBYPROPERTIES('gTxFt1YNCTsZzvInips3tJ',#6,$,$,(#139),#520);
#522=IFCPROPERTYSINGLEVALUE('CLz9ETVvGz8fZ9al9dGtOz#0',$,IFCTEXT('4|UNIFORM'),$);
#523=IFCPROPERTYSINGLEVALUE('nhLHl1$dhp29FJ3HEHfhE9#1',$,IFCTEXT('2|UNIFORM'),$);
#524=IFCPROPERTYSET('99EnpJjneFSBChMlElvbBZ',#6,'OPS_Assignments',$,(#522,#523));
#525=IFCRELDEFINESBYPROPERTIES('GNe1YtT1Yvuvw1xHqFNZ5n',#6,$,$,(#141),#524);
#526=IFCPROPERTYSINGLEVALUE('CLz9ETVvGz8fZ9al9dGtOz#0',$,IFCTEXT('4|UNIFORM'),$);
#527=IFCPROPERTYSET('HbZNKtxFqP4LQHDlN92HbR',#6,'OPS_Assignments',$,(#526));
#528=IFCRELDEFINESBYPROPERTIES('8p$BVpk9NxtRb$7$ULfTvf',#6,$,$,(#143),#527);
#529=IFCPROPERTYSINGLEVALUE('RxKJt$UNGzu7MtCFqnVblF#0',$,IFCTEXT('6|UNIFORM'),$);
#530=IFCPROPERTYSET('kf8FXpItb1XRDZXVuT3NcL',#6,'OPS_Assignments',$,(#529));
#531=IFCRELDEFINESBYPROPERTIES('LZBXSl8dvtY5H9u$YrpPTb',#6,$,$,(#145),#530);
#532=IFCPROPERTYSINGLEVALUE('hTjvlRDF2zWHZtyHRXxl75#0',$,IFCTEXT('6|UNIFORM'),$);
#533=IFCPROPERTYSET('XVL$_dB10hLHpHzl_tUFxn',#6,'OPS_Assignments',$,(#532));
#534=IFCRELDEFINESBYPROPERTIES('wLYhJ1Mdhpo7E$HVXjYnZx',#6,$,$,(#149),#533);
#535=IFCPROPERTYSINGLEVALUE('CLz9ETVvGz8fZ9al9dGtOz#0',$,IFCTEXT('6|UNIFORM'),$);
#536=IFCPROPERTYSET('4D_VK93$WbZd8l71J5z9m1',#6,'OPS_Assignments',$,(#535));
#537=IFCRELDEFINESBYPROPERTIES('h7KJr7Mdj9NTTNWVtPWdF5',#6,$,$,(#151),#536);
#538=IFCPROPERTYSINGLEVALUE('R1$TirHdvZSjkRqH_NwJsP#0',$,IFCTEXT('3|UNIFORM'),$);
#539=IFCPROPERTYSINGLEVALUE('nhLHl1$dhp29FJ3HEHfhE9#1',$,IFCTEXT('3|UNIFORM'),$);
#540=IFCPROPERTYSINGLEVALUE('STO1EzZ$AtXbPnt1rDZNQH#2',$,IFCTEXT('1|UNIFORM'),$);
#541=IFCPROPERTYSET('X3CxwP_nWb51KRKFoHdxV3',#6,'OPS_Assignments',$,(#538,#539,#540));
#542=IFCRELDEFINESBYPROPERTIES('uhsZujbXVx1Z7ppnFxbFR1',#6,$,$,(#153),#541);
#543=IFCRELASSIGNSTOCONTROL('rDVhNjbXHjyDCF$VkTSruD',#6,$,$,(#43,#45,#47,#49,#51,#53,#55,#57,#59,#61,#63,#65,#67,#69,#71,#73,#75,#77,#79,#81,#83,#85,#87,#89,#91,#93,#95,#97,#99,#101,#103,#105,#107,#109,#111,#113,#115,#117,#119,#121,#123,#125,#127,#129,#131,#133,#135,#137,#139,#141,#143,#145,#147,#149,#151,#153,#155),$,#40);
#544=IFCPROPERTYSINGLEVALUE('InternalProjectId',$,IFCTEXT('proj-mtx91ezialji1294'),$);
#545=IFCPROPERTYSINGLEVALUE('wbsAutoNumber',$,IFCBOOLEAN(.T.),$);
#546=IFCPROPERTYSINGLEVALUE('DefaultTaskDurationUnit',$,IFCLABEL('days'),$);
#547=IFCPROPERTYSINGLEVALUE('ProjectStartDate',$,IFCDATE('2027-03-01'),$);
#548=IFCPROPERTYSINGLEVALUE('ProjectEndDate',$,$,$);
#549=IFCPROPERTYSINGLEVALUE('CreatedAt',$,IFCTEXT('2026-09-11T17:47:44.286Z'),$);
#550=IFCPROPERTYSINGLEVALUE('ModifiedAt',$,IFCTEXT('2026-09-11T17:47:44.288Z'),$);
#551=IFCPROPERTYSET('e5a3ArlP$tNZvpDF1ZK5n5',#6,'OPS_ProjectSettings',$,(#544,#545,#546,#547,#548,#549,#550));
#552=IFCRELDEFINESBYPROPERTIES('0Hdzo1sPJhdjQlBF$1BF9l',#6,$,$,(#13),#551);
#553=IFCPROPERTYSINGLEVALUE('InternalTaskId',$,IFCTEXT('task-mtx91f044g191313'),$);
#554=IFCPROPERTYSET('rJ5VC5ffMvJf1XLF71tBml',#6,'OPS_TaskIdentity',$,(#553));
#555=IFCRELDEFINESBYPROPERTIES('IfO1AB9NIBXRhfyHPrazrZ',#6,$,$,(#43),#554);
#556=IFCPROPERTYSINGLEVALUE('InternalTaskId',$,IFCTEXT('task-mtx91f06qaem1314'),$);
#557=IFCPROPERTYSET('L3V3sLbnsNb$qLQlhdmNYH',#6,'OPS_TaskIdentity',$,(#556));
#558=IFCRELDEFINESBYPROPERTIES('oPEbCbL1gv5$Ov6H1zOHB3',#6,$,$,(#45),#557);
#559=IFCPROPERTYSINGLEVALUE('InternalTaskId',$,IFCTEXT('task-mtx91f07ffbj1315'),$);
#560=IFCPROPERTYSET('3DAv3LqVBtsZLTRlgB4THB',#6,'OPS_TaskIdentity',$,(#559));
#561=IFCRELDEFINESBYPROPERTIES('4FVhdbA1iJSj2d61ejnTr7',#6,$,$,(#47),#560);
#562=IFCPROPERTYSINGLEVALUE('InternalTaskId',$,IFCTEXT('task-mtx91f08zn3y1316'),$);
#563=IFCPROPERTYSET('lfeHdR2FipOP4NmX4vCD4h',#6,'OPS_TaskIdentity',$,(#562));
#564=IFCRELDEFINESBYPROPERTIES('ebOlrZ09TVYNfb0X9315ZR',#6,$,$,(#49),#563);
#565=IFCPROPERTYSINGLEVALUE('InternalTaskId',$,IFCTEXT('task-mtx91f097cyu1317'),$);
#566=IFCPROPERTYSET('XXpdV9CXrNo7AdUXfJfh2Z',#6,'OPS_TaskIdentity',$,(#565));
#567=IFCRELDEFINESBYPROPERTIES('ezPLLDotp75$OXTlmVPjcr',#6,$,$,(#51),#566);
#568=IFCPROPERTYSINGLEVALUE('InternalTaskId',$,IFCTEXT('task-mtx91f0b6hrs1318'),$);
#569=IFCPROPERTYSET('AtcNaFCnC3o7oB_Xv1NLMp',#6,'OPS_TaskIdentity',$,(#568));
#570=IFCRELDEFINESBYPROPERTIES('zjATuJZHzHWHrJhFnxTNkP',#6,$,$,(#53),#569);
#571=IFCPROPERTYSINGLEVALUE('InternalTaskId',$,IFCTEXT('task-mtx91f0c4hhx1319'),$);
#572=IFCPROPERTYSET('f3PhhjA$edPBCrc$wDB1IL',#6,'OPS_TaskIdentity',$,(#571));
#573=IFCRELDEFINESBYPROPERTIES('md_r$z414HptdlxnwjXDWv',#6,$,$,(#55),#572);
#574=IFCPROPERTYSINGLEVALUE('InternalTaskId',$,IFCTEXT('task-mtx91f0dhqtx1320'),$);
#575=IFCPROPERTYSET('tpHRKBtfMvx$aPM1phFhE5',#6,'OPS_TaskIdentity',$,(#574));
#576=IFCRELDEFINESBYPROPERTIES('mtC5MRxVXPvhkFBlJRdxvt',#6,$,$,(#57),#575);
#577=IFCPROPERTYSINGLEVALUE('InternalTaskId',$,IFCTEXT('task-mtx91f0em9h51321'),$);
#578=IFCPROPERTYSET('9NwD7hylPDMFDZt$J9Qv19',#6,'OPS_TaskIdentity',$,(#577));
#579=IFCRELDEFINESBYPROPERTIES('2DonXjEHPPKRzxSHrphXij',#6,$,$,(#59),#578);
#580=IFCPROPERTYSINGLEVALUE('InternalTaskId',$,IFCTEXT('task-mtx91f0guc2z1322'),$);
#581=IFCPROPERTYSET('f7qDj$_fQDmXIHVXI1b1oN',#6,'OPS_TaskIdentity',$,(#580));
#582=IFCRELDEFINESBYPROPERTIES('UzqDFnjVhdK3NPc$gLGf_V',#6,$,$,(#61),#581);
#583=IFCPROPERTYSINGLEVALUE('InternalTaskId',$,IFCTEXT('task-mtx91f0h9yfn1323'),$);
#584=IFCPROPERTYSET('LTh$_B0thp2t99SH$ZyZr7',#6,'OPS_TaskIdentity',$,(#583));
#585=IFCRELDEFINESBYPROPERTIES('EvMPJVM$k$fTnd2XXDcDe3',#6,$,$,(#63),#584);
#586=IFCPROPERTYSINGLEVALUE('InternalTaskId',$,IFCTEXT('task-mtx91f0ijlne1324'),$);
#587=IFCPROPERTYSET('Y3iROx_N6FKbdHxFojc7XP',#6,'OPS_TaskIdentity',$,(#586));
#588=IFCRELDEFINESBYPROPERTIES('bXztUNHdZpu72jrn1XVRDF',#6,$,$,(#65),#587);
#589=IFCPROPERTYSINGLEVALUE('InternalTaskId',$,IFCTEXT('task-mtx91f0ki71e1325'),$);
#590=IFCPROPERTYSET('gZJ7zBeviN29b$1XEjc7Zf',#6,'OPS_TaskIdentity',$,(#589));
#591=IFCRELDEFINESBYPROPERTIES('FvgPhpUf45lj_DFV5lZ9ml',#6,$,$,(#67),#590);
#592=IFCPROPERTYSINGLEVALUE('InternalTaskId',$,IFCTEXT('task-mtx91f0l12rg1326'),$);
#593=IFCPROPERTYSET('0l9pjXIH3zAHpnFXv5cDa9',#6,'OPS_TaskIdentity',$,(#592));
#594=IFCRELDEFINESBYPROPERTIES('7nF5Uf17kBPJcT$Vs$9BGl',#6,$,$,(#69),#593);
#595=IFCPROPERTYSINGLEVALUE('InternalTaskId',$,IFCTEXT('task-mtx91f0mvr3n1327'),$);
#596=IFCPROPERTYSET('T1PLfjh$sttzLfKFYvOVyv',#6,'OPS_TaskIdentity',$,(#595));
#597=IFCRELDEFINESBYPROPERTIES('gZDPTftNcXEvgtalrj$JMD',#6,$,$,(#71),#596);
#598=IFCPROPERTYSINGLEVALUE('InternalTaskId',$,IFCTEXT('task-mtx91f0ocmvk1328'),$);
#599=IFCPROPERTYSET('ohxXezJXZjyp0TlXT1JvXd',#6,'OPS_TaskIdentity',$,(#598));
#600=IFCRELDEFINESBYPROPERTIES('LPG7RVZlbB15brIVIVNZR1',#6,$,$,(#73),#599);
#601=IFCPROPERTYSINGLEVALUE('InternalTaskId',$,IFCTEXT('task-mtx91f0pumdi1329'),$);
#602=IFCPROPERTYSET('ELZN41gdtVDP8l9$yrj7nX',#6,'OPS_TaskIdentity',$,(#601));
#603=IFCRELDEFINESBYPROPERTIES('LPe1sLz1KJib3bmXEFLXqn',#6,$,$,(#75),#602);
#604=IFCPROPERTYSINGLEVALUE('InternalTaskId',$,IFCTEXT('task-mtx91f0rplf51330'),$);
#605=IFCPROPERTYSET('K74TObEHPdSB8HN$k1TteB',#6,'OPS_TaskIdentity',$,(#604));
#606=IFCRELDEFINESBYPROPERTIES('bxaLl1$d3lGXYTLH71Vp8D',#6,$,$,(#77),#605);
#607=IFCPROPERTYSINGLEVALUE('InternalTaskId',$,IFCTEXT('task-mtx91f0strvq1331'),$);
#608=IFCPROPERTYSET('yl5ViL5Fu1Ih_plXhTzNYp',#6,'OPS_TaskIdentity',$,(#607));
#609=IFCRELDEFINESBYPROPERTIES('rjxXmNmfsB3NxxWVxhmtW7',#6,$,$,(#79),#608);
#610=IFCPROPERTYSINGLEVALUE('InternalTaskId',$,IFCTEXT('task-mtx91f0thchm1332'),$);
#611=IFCPROPERTYSET('jb5FVJcVpR3vclTlC3mNgD',#6,'OPS_TaskIdentity',$,(#610));
#612=IFCRELDEFINESBYPROPERTIES('q9kHXtKXrTaJIxe$abHzPr',#6,$,$,(#81),#611);
#613=IFCPROPERTYSINGLEVALUE('InternalTaskId',$,IFCTEXT('task-mtx91f0vcbx81333'),$);
#614=IFCPROPERTYSET('FrXht3LHXRJfRr_X5rqbBz',#6,'OPS_TaskIdentity',$,(#613));
#615=IFCRELDEFINESBYPROPERTIES('Mvyr1ZWtRXzfVnpnPF151j',#6,$,$,(#83),#614);
#616=IFCPROPERTYSINGLEVALUE('InternalTaskId',$,IFCTEXT('task-mtx91f0xx1bz1334'),$);
#617=IFCPROPERTYSET('SXL$ALLHDvDtxlHXVpMZF5',#6,'OPS_TaskIdentity',$,(#616));
#618=IFCRELDEFINESBYPROPERTIES('hzXzQNO7uXE72vonARk1_3',#6,$,$,(#85),#617);
#619=IFCPROPERTYSINGLEVALUE('InternalTaskId',$,IFCTEXT('task-mtx91f0zfi471335'),$);
#620=IFCPROPERTYSET('azyrP9rHN5Vz71JFNjNLEf',#6,'OPS_TaskIdentity',$,(#619));
#621=IFCRELDEFINESBYPROPERTIES('TVpPDHGNylZd03bF4h1xxH',#6,$,$,(#87),#620);
#622=IFCPROPERTYSINGLEVALUE('InternalTaskId',$,IFCTEXT('task-mtx91f105bj91336'),$);
#623=IFCPROPERTYSET('up$rZ5UfS1lBiRSlBpbFJT',#6,'OPS_TaskIdentity',$,(#622));
#624=IFCRELDEFINESBYPROPERTIES('nrfJVD6vEn7L6XP$jfAzDl',#6,$,$,(#89),#623);
#625=IFCPROPERTYSINGLEVALUE('InternalTaskId',$,IFCTEXT('task-mtx91f12dap71337'),$);
#626=IFCPROPERTYSET('JtaLVta1EHDtzRmVCZarOh',#6,'OPS_TaskIdentity',$,(#625));
#627=IFCRELDEFINESBYPROPERTIES('c5ShLDo9P7mXkF5lKjst0t',#6,$,$,(#91),#626);
#628=IFCPROPERTYSINGLEVALUE('InternalTaskId',$,IFCTEXT('task-mtx91f13d4cw1338'),$);
#629=IFCPROPERTYSET('L7KRmd_Fa1dJsb0XPLeHxB',#6,'OPS_TaskIdentity',$,(#628));
#630=IFCRELDEFINESBYPROPERTIES('azKbaH0t3l87gf81rfszxB',#6,$,$,(#93),#629);
#631=IFCPROPERTYSINGLEVALUE('InternalTaskId',$,IFCTEXT('task-mtx91f15ifgk1339'),$);
#632=IFCPROPERTYSET('h7SzIjzlLP4DSPEXa5r$UJ',#6,'OPS_TaskIdentity',$,(#631));
#633=IFCRELDEFINESBYPROPERTIES('a3S3w3CnCZ2RTBg1jbfhAP',#6,$,$,(#95),#632);
#634=IFCPROPERTYSINGLEVALUE('InternalTaskId',$,IFCTEXT('task-mtx91f17z51k1340'),$);
#635=IFCPROPERTYSET('1H7Z4ZW9l$cpWjnXT3OH9j',#6,'OPS_TaskIdentity',$,(#634));
#636=IFCRELDEFINESBYPROPERTIES('8D7TuDvt1BhHpFlV1TyTb1',#6,$,$,(#97),#635);
#637=IFCPROPERTYSINGLEVALUE('InternalTaskId',$,IFCTEXT('task-mtx91f19c6go1341'),$);
#638=IFCPROPERTYSET('M3NbCvH7m3O9PlJlTzeHrz',#6,'OPS_TaskIdentity',$,(#637));
#639=IFCRELDEFINESBYPROPERTIES('nP6pLJA1WRLHvDxHK$VDO3',#6,$,$,(#99),#638);
#640=IFCPROPERTYSINGLEVALUE('InternalTaskId',$,IFCTEXT('task-mtx91f1agcmq1342'),$);
#641=IFCPROPERTYSET('8BMdFlHdjhHrun3nGlVDux',#6,'OPS_TaskIdentity',$,(#640));
#642=IFCRELDEFINESBYPROPERTIES('1jwppnqXtLTtHZDnHrrFnx',#6,$,$,(#101),#641);
#643=IFCPROPERTYSINGLEVALUE('InternalTaskId',$,IFCTEXT('task-mtx91f1dg17w1343'),$);
#644=IFCPROPERTYSET('wljPRbDFQjSBi1znqlrFDp',#6,'OPS_TaskIdentity',$,(#643));
#645=IFCRELDEFINESBYPROPERTIES('phLHfpfNwl8NdTP$ip2B0t',#6,$,$,(#103),#644);
#646=IFCPROPERTYSINGLEVALUE('InternalTaskId',$,IFCTEXT('task-mtx91f1f3v7e1344'),$);
#647=IFCPROPERTYSET('mvMd9zBHZjqZj$jn5n93Bz',#6,'OPS_TaskIdentity',$,(#646));
#648=IFCRELDEFINESBYPROPERTIES('9fcjhtinkLxV_p1X2fwjAz',#6,$,$,(#105),#647);
#649=IFCPROPERTYSINGLEVALUE('InternalTaskId',$,IFCTEXT('task-mtx91f1ic3wl1345'),$);
#650=IFCPROPERTYSET('8Jz9sBFd9$fThZrlHv81oR',#6,'OPS_TaskIdentity',$,(#649));
#651=IFCRELDEFINESBYPROPERTIES('nh39w7ot1LnLMh6HxrqDqF',#6,$,$,(#107),#650);
#652=IFCPROPERTYSINGLEVALUE('InternalTaskId',$,IFCTEXT('task-mtx91f1k66my1346'),$);
#653=IFCPROPERTYSET('oPQjnr17srrFXbiFYPaBSt',#6,'OPS_TaskIdentity',$,(#652));
#654=IFCRELDEFINESBYPROPERTIES('vrQNG9yHHVMFv$xlKDIxtn',#6,$,$,(#109),#653);
#655=IFCPROPERTYSINGLEVALUE('InternalTaskId',$,IFCTEXT('task-mtx91f1ne99l1347'),$);
#656=IFCPROPERTYSET('FvwtUb_FS$Xb1Bc$k1rFN1',#6,'OPS_TaskIdentity',$,(#655));
#657=IFCRELDEFINESBYPROPERTIES('uhERKhBljLnLsbGXI3071t',#6,$,$,(#111),#656);
#658=IFCPROPERTYSINGLEVALUE('InternalTaskId',$,IFCTEXT('task-mtx91f1pzq1c1348'),$);
#659=IFCPROPERTYSET('gdWfqPpnEFnpqn$XgF$5Bd',#6,'OPS_TaskIdentity',$,(#658));
#660=IFCRELDEFINESBYPROPERTIES('ZZuXO56vkVBnrvIF83t3BT',#6,$,$,(#113),#659);
#661=IFCPROPERTYSINGLEVALUE('InternalTaskId',$,IFCTEXT('task-mtx91f1s5wkw1349'),$);
#662=IFCPROPERTYSET('$Jk5IH8dtV5VQ3pH3lHzZf',#6,'OPS_TaskIdentity',$,(#661));
#663=IFCRELDEFINESBYPROPERTIES('wHrFdNFPrZyDKbqnKXz9OL',#6,$,$,(#115),#662);
#664=IFCPROPERTYSINGLEVALUE('InternalTaskId',$,IFCTEXT('task-mtx91f1v3bzm1350'),$);
#665=IFCPROPERTYSET('KRL1wZ8PfnX3b$nX11R1Qh',#6,'OPS_TaskIdentity',$,(#664));
#666=IFCRELDEFINESBYPROPERTIES('Dv2XSFKXT12bv13FipAzRR',#6,$,$,(#117),#665);
#667=IFCPROPERTYSINGLEVALUE('InternalTaskId',$,IFCTEXT('task-mtx91f1xwwky1351'),$);
#668=IFCPROPERTYSET('bb0tQjA$aVzfBJRnWtwdtH',#6,'OPS_TaskIdentity',$,(#667));
#669=IFCRELDEFINESBYPROPERTIES('UXTf8ha$QjqTDl3HYPyZ3L',#6,$,$,(#119),#668);
#670=IFCPROPERTYSINGLEVALUE('InternalTaskId',$,IFCTEXT('task-mtx91f2099dw1352'),$);
#671=IFCPROPERTYSET('uhk52Ly$qZwJo1d1iVZN6b',#6,'OPS_TaskIdentity',$,(#670));
#672=IFCRELDEFINESBYPROPERTIES('1p_V0FLHTXslZ9yHvxwJsZ',#6,$,$,(#121),#671);
#673=IFCPROPERTYSINGLEVALUE('InternalTaskId',$,IFCTEXT('task-mtx91f22tgw11353'),$);
#674=IFCPROPERTYSET('BtY$kj5VXvptHZ5lGVdjof',#6,'OPS_TaskIdentity',$,(#673));
#675=IFCRELDEFINESBYPROPERTIES('4JQjVjQXVvZd8NKH47yZ$D',#6,$,$,(#123),#674);
#676=IFCPROPERTYSINGLEVALUE('InternalTaskId',$,IFCTEXT('task-mtx91f25vwfr1354'),$);
#677=IFCPROPERTYSET('7rY$oTV7aXLl1V3HYrb16V',#6,'OPS_TaskIdentity',$,(#676));
#678=IFCRELDEFINESBYPROPERTIES('0lvTaDUNOl8fzdw1y7yZv9',#6,$,$,(#125),#677);
#679=IFCPROPERTYSINGLEVALUE('InternalTaskId',$,IFCTEXT('task-mtx91f280k911355'),$);
#680=IFCPROPERTYSET('3lfjrdIHhdq51VRFORc7Vd',#6,'OPS_TaskIdentity',$,(#679));
#681=IFCRELDEFINESBYPROPERTIES('sDfjVpk9dDQVYZrHjb1J2T',#6,$,$,(#127),#680);
#682=IFCPROPERTYSINGLEVALUE('InternalTaskId',$,IFCTEXT('task-mtx91f2afga81356'),$);
#683=IFCPROPERTYSET('o7Av3Bu7YdSJ_PYVJ5TfYF',#6,'OPS_TaskIdentity',$,(#682));
#684=IFCRELDEFINESBYPROPERTIES('7Lg3E1c70BPJ_PM1PryZpj',#6,$,$,(#129),#683);
#685=IFCPROPERTYSINGLEVALUE('InternalTaskId',$,IFCTEXT('task-mtx91f2deulx1357'),$);
#686=IFCPROPERTYSET('wL6pDH8vIhR10T$XkZSz$N',#6,'OPS_TaskIdentity',$,(#685));
#687=IFCRELDEFINESBYPROPERTIES('1HHbORQV3TUxBplVTX7DeT',#6,$,$,(#131),#686);
#688=IFCPROPERTYSINGLEVALUE('InternalTaskId',$,IFCTEXT('task-mtx91f2fts971358'),$);
#689=IFCPROPERTYSET('YzSh1vUfybBnfdYVvbwdDJ',#6,'OPS_TaskIdentity',$,(#688));
#690=IFCRELDEFINESBYPROPERTIES('RXJvzBOvOddBSPUX3pA3bb',#6,$,$,(#133),#689);
#691=IFCPROPERTYSINGLEVALUE('InternalTaskId',$,IFCTEXT('task-mtx91f2h6dxe1359'),$);
#692=IFCPROPERTYSET('$DkHNj5X1NDdi1JF93VbXP',#6,'OPS_TaskIdentity',$,(#691));
#693=IFCRELDEFINESBYPROPERTIES('6nfJB76v_z8fH9GV_xxl5r',#6,$,$,(#135),#692);
#694=IFCPROPERTYSINGLEVALUE('InternalTaskId',$,IFCTEXT('task-mtx91f2jlso41360'),$);
#695=IFCPROPERTYSET('8DdzozJVFlOPaJpHL39zdB',#6,'OPS_TaskIdentity',$,(#694));
#696=IFCRELDEFINESBYPROPERTIES('FB1B91E9ZXkdqBw1GV$59H',#6,$,$,(#137),#695);
#697=IFCPROPERTYSINGLEVALUE('InternalTaskId',$,IFCTEXT('task-mtx91f2kf98t1361'),$);
#698=IFCPROPERTYSET('DrfJDDVdH1Y5BjjHPLu1AT',#6,'OPS_TaskIdentity',$,(#697));
#699=IFCRELDEFINESBYPROPERTIES('i7CDxr9fsfzfhznXPrKjQn',#6,$,$,(#139),#698);
#700=IFCPROPERTYSINGLEVALUE('InternalTaskId',$,IFCTEXT('task-mtx91f2mg4bg1362'),$);
#701=IFCPROPERTYSET('D7Y$g11PLpkPavAHW92HLj',#6,'OPS_TaskIdentity',$,(#700));
#702=IFCRELDEFINESBYPROPERTIES('6hEbqdZHPPKR7VVX29oXuR',#6,$,$,(#141),#701);
#703=IFCPROPERTYSINGLEVALUE('InternalTaskId',$,IFCTEXT('task-mtx91f2okjp81363'),$);
#704=IFCPROPERTYSET('hZJvRVZH5xXzVbqnOJ$JId',#6,'OPS_TaskIdentity',$,(#703));
#705=IFCRELDEFINESBYPROPERTIES('EvIlrZmNkLjvoVjlVFbnhN',#6,$,$,(#143),#704);
#706=IFCPROPERTYSINGLEVALUE('InternalTaskId',$,IFCTEXT('task-mtx91f2q2ne01364'),$);
#707=IFCPROPERTYSET('oh5Xm9KVJ993rv2nbb2lnV',#6,'OPS_TaskIdentity',$,(#706));
#708=IFCRELDEFINESBYPROPERTIES('hdmvZx676Z2bh90VPBaBSx',#6,$,$,(#145),#707);
#709=IFCPROPERTYSINGLEVALUE('InternalTaskId',$,IFCTEXT('task-mtx91f2s6ksk1365'),$);
#710=IFCPROPERTYSET('NPuFdfNfWbJNDHRFOjnZJT',#6,'OPS_TaskIdentity',$,(#709));
#711=IFCRELDEFINESBYPROPERTIES('YZ8FLN09xRLll9GXCFHBGH',#6,$,$,(#147),#710);
#712=IFCPROPERTYSINGLEVALUE('InternalTaskId',$,IFCTEXT('task-mtx91f2viyy81366'),$);
#713=IFCPROPERTYSET('TzKJnrtfw3MnVR4nrtgfkd',#6,'OPS_TaskIdentity',$,(#712));
#714=IFCRELDEFINESBYPROPERTIES('a1FDpFqFWRZPO72nTXPJQh',#6,$,$,(#149),#713);
#715=IFCPROPERTYSINGLEVALUE('InternalTaskId',$,IFCTEXT('task-mtx91f2xjor41367'),$);
#716=IFCPROPERTYSET('8Bon1zCX7ZC5BplVBJlztJ',#6,'OPS_TaskIdentity',$,(#715));
#717=IFCRELDEFINESBYPROPERTIES('1jEbW$vtdv0nL9e$zHFZtl',#6,$,$,(#151),#716);
#718=IFCPROPERTYSINGLEVALUE('InternalTaskId',$,IFCTEXT('task-mtx91f2ypqdk1368'),$);
#719=IFCPROPERTYSET('R5SL9ZVviDuvA5SHhz9zrz',#6,'OPS_TaskIdentity',$,(#718));
#720=IFCRELDEFINESBYPROPERTIES('U$vBpDvtRLBFlznXFNULw5',#6,$,$,(#153),#719);
#721=IFCPROPERTYSINGLEVALUE('InternalTaskId',$,IFCTEXT('task-mtx91f3061id1369'),$);
#722=IFCPROPERTYSET('W$PhtZ9N2ZK3Xx816jvbfZ',#6,'OPS_TaskIdentity',$,(#721));
#723=IFCRELDEFINESBYPROPERTIES('PVDdhjYFon9bN7MlopwJkh',#6,$,$,(#155),#722);
#724=IFCPROPERTYSINGLEVALUE('MilestoneKind',$,IFCLABEL('START'),$);
#725=IFCPROPERTYSET('dXz9E1UfuVIdy31VeDDd9H',#6,'OPS_Milestone',$,(#724));
#726=IFCRELDEFINESBYPROPERTIES('0np7NlmN8X6$Kx0X5H5XCz',#6,$,$,(#53),#725);
#727=IFCPROPERTYSINGLEVALUE('MilestoneKind',$,IFCLABEL('FINISH'),$);
#728=IFCPROPERTYSET('fTxFnrnPbLpdi$bHITSzdh',#6,'OPS_Milestone',$,(#727));
#729=IFCRELDEFINESBYPROPERTIES('2FTf0FbnAfTtFpnXZTKjYl',#6,$,$,(#101),#728);
#730=IFCPROPERTYSINGLEVALUE('MilestoneKind',$,IFCLABEL('FINISH'),$);
#731=IFCPROPERTYSET('7HR1U9T1At$57Jv1dLmfsv',#6,'OPS_Milestone',$,(#730));
#732=IFCRELDEFINESBYPROPERTIES('WVxFPtxnWbJNvDrH1$pPDp',#6,$,$,(#113),#731);
#733=IFCPROPERTYSINGLEVALUE('MilestoneKind',$,IFCLABEL('FINISH'),$);
#734=IFCPROPERTYSINGLEVALUE('Mandatory',$,IFCBOOLEAN(.T.),$);
#735=IFCPROPERTYSET('l9KjjzRFc$orO$7$cdelRx',#6,'OPS_Milestone',$,(#733,#734));
#736=IFCRELDEFINESBYPROPERTIES('M3XzMRRVp7D9jjN$A1H3B3',#6,$,$,(#155),#735);
ENDSEC;
END-ISO-10303-21;
