ISO-10303-21;
HEADER;
FILE_DESCRIPTION(('ViewDefinition [SchedulingView]'),'2;1');
FILE_NAME('N279 Bridge Replacement.ifc','2026-09-03T17:33:16',('Henk Mulder'),('Infra Netherlands BV'),'Open Planner Studio 0.1','Open Planner Studio','');
FILE_SCHEMA(('IFC4X3'));
ENDSEC;
DATA;
#1=IFCPERSON($,'Henk Mulder',$,$,$,$,$,$);
#2=IFCORGANIZATION($,'Infra Netherlands BV',$,$,$);
#3=IFCPERSONANDORGANIZATION(#1,#2,$);
#4=IFCORGANIZATION($,'OpenAEC Foundation',$,$,$);
#5=IFCAPPLICATION(#4,'0.1','Open Planner Studio','OPS');
#6=IFCOWNERHISTORY(#3,#5,$,.NOCHANGE.,$,$,$,1788456796);
#7=IFCSIUNIT(*,.LENGTHUNIT.,$,.METRE.);
#8=IFCSIUNIT(*,.TIMEUNIT.,$,.SECOND.);
#9=IFCUNITASSIGNMENT((#7,#8));
#10=IFCCARTESIANPOINT((0.,0.,0.));
#11=IFCAXIS2PLACEMENT3D(#10,$,$);
#12=IFCGEOMETRICREPRESENTATIONCONTEXT($,'Plan',3,1.0E-05,#11,$);
#13=IFCPROJECT('IxPL9ZV74bhHbrQ1onr1sZ',#6,'N279 Bridge Replacement','Replacement of the existing bridge with a new concrete bridge',$,$,$,(#12),#9);
#14=IFCTIMEPERIOD('07:00:00','16:00:00');
#15=IFCRECURRENCEPATTERN(.WEEKLY.,$,(1,2,3,4,5,6),$,$,$,$,(#14));
#16=IFCWORKTIME('Standard work week',.PREDICTED.,$,#15,$,$);
#17=IFCWORKTIME('New Year''s Day',.PREDICTED.,$,$,'2027-01-01','2027-01-01');
#18=IFCWORKTIME('Good Friday',.PREDICTED.,$,$,'2027-03-26','2027-03-26');
#19=IFCWORKTIME('Easter',.PREDICTED.,$,$,'2027-03-28','2027-03-29');
#20=IFCWORKTIME('King''s Day',.PREDICTED.,$,$,'2027-04-27','2027-04-27');
#21=IFCWORKTIME('Liberation Day',.PREDICTED.,$,$,'2027-05-05','2027-05-05');
#22=IFCWORKTIME('Ascension Day',.PREDICTED.,$,$,'2027-05-06','2027-05-06');
#23=IFCWORKTIME('Whitsun',.PREDICTED.,$,$,'2027-05-16','2027-05-17');
#24=IFCWORKTIME('Christmas',.PREDICTED.,$,$,'2027-12-25','2027-12-26');
#25=IFCWORKTIME('Construction holiday (northern region)',.PREDICTED.,$,$,'2027-07-26','2027-08-15');
#26=IFCWORKTIME('New Year''s Day',.PREDICTED.,$,$,'2028-01-01','2028-01-01');
#27=IFCWORKTIME('Good Friday',.PREDICTED.,$,$,'2028-04-14','2028-04-14');
#28=IFCWORKTIME('Easter',.PREDICTED.,$,$,'2028-04-16','2028-04-17');
#29=IFCWORKTIME('King''s Day',.PREDICTED.,$,$,'2028-04-27','2028-04-27');
#30=IFCWORKTIME('Liberation Day',.PREDICTED.,$,$,'2028-05-05','2028-05-05');
#31=IFCWORKTIME('Ascension Day',.PREDICTED.,$,$,'2028-05-25','2028-05-25');
#32=IFCWORKTIME('Whitsun',.PREDICTED.,$,$,'2028-06-04','2028-06-05');
#33=IFCWORKTIME('Christmas',.PREDICTED.,$,$,'2028-12-25','2028-12-26');
#34=IFCWORKTIME('Construction holiday (northern region)',.PREDICTED.,$,$,'2028-07-24','2028-08-13');
#35=IFCWORKCALENDAR('_HlbW$VPl1Yxnv_nBDbFBd',#6,'Infrastructure calendar Mon-Sat','Infrastructure/hydraulic works: Mon-Sat',$,(#16),(#17,#18,#19,#20,#21,#22,#23,#24,#25,#26,#27,#28,#29,#30,#31,#32,#33,#34),.FIRSTSHIFT.);
#36=IFCPROPERTYSINGLEVALUE('HoursPerDay',$,IFCREAL(8),$);
#37=IFCPROPERTYSET('qL5XmPUFgdlJ6X9$WtAtOZ',#6,'OPS_Calendar',$,(#36));
#38=IFCRELDEFINESBYPROPERTIES('bXh12hy$qvOdOP_VbbYntl',#6,$,$,(#35),#37);
#39=IFCWORKPLAN('ADVh3d5VH$gz7$xlSbH3lH',#6,'N279 Bridge Replacement','Replacement of the existing bridge with a new concrete bridge',$,$,'2026-09-03T17:33:16',$,$,$,$,$,'2027-03-01T07:00:00','2027-03-19T07:00:00',.PLANNED.);
#40=IFCWORKSCHEDULE('jRDdBZ8d3l87MN8$EJoV0N',#6,'Construction schedule v1.0',$,$,$,'2026-09-03T17:33:16',$,$,$,$,$,'2027-03-01T07:00:00','2027-03-19T07:00:00',.PLANNED.);
#41=IFCRELAGGREGATES('X$Ph9TPtbVDd8te$ftI1sz',#6,$,$,#39,(#40));
#42=IFCTASKTIME('1. Preparation & diversions Time',.PREDICTED.,$,.WORKTIME.,'P0Y0M5D','2027-03-01T07:00:00','2027-03-05T07:00:00','2027-03-01T07:00:00','2027-03-25T07:00:00','2027-03-01T07:00:00','2027-09-18T07:00:00','P0Y0M0D','P0Y0M0D',.T.,$,$,$,$,$,0.00);
#43=IFCTASK('tNsZy1gPpvBFFjrF7xI5P7',#6,'1. Preparation & diversions',$,$,'1',$,$,$,.F.,$,#42,.LOGISTIC.);
#44=IFCTASKTIME('Implement traffic management Time',.PREDICTED.,$,.WORKTIME.,'P0Y0M5D','2027-03-01T07:00:00','2027-03-05T07:00:00','2027-03-01T07:00:00','2027-03-05T07:00:00','2027-03-01T07:00:00','2027-03-05T07:00:00','P0Y0M0D','P0Y0M0D',.T.,$,$,$,$,$,0.00);
#45=IFCTASK('DhJdJ1gd55X3xlXV_RH3Xv',#6,'Implement traffic management',$,$,'1.1',$,$,$,.F.,$,#44,.LOGISTIC.);
#46=IFCTASKTIME('Temporary diversion route Time',.PREDICTED.,$,.WORKTIME.,'P0Y0M8D','2027-03-01T07:00:00','2027-03-10T07:00:00','2027-03-06T07:00:00','2027-03-15T07:00:00','2027-08-31T07:00:00','2027-09-08T07:00:00','P0Y0M0D','P0Y0M128D',.F.,$,$,$,$,$,0.00);
#47=IFCTASK('7FP3IHuvsh7pytyFVltBKj',#6,'Temporary diversion route',$,$,'1.2',$,$,$,.F.,$,#46,.LOGISTIC.);
#48=IFCTASKTIME('Set up site Time',.PREDICTED.,$,.WORKTIME.,'P0Y0M5D','2027-03-01T07:00:00','2027-03-05T07:00:00','2027-03-16T07:00:00','2027-03-20T07:00:00','2027-09-09T07:00:00','2027-09-14T07:00:00','P0Y0M0D','P0Y0M128D',.F.,$,$,$,$,$,0.00);
#49=IFCTASK('H9ahhD6vQjarSj5ncvazX7',#6,'Set up site',$,$,'1.3',$,$,$,.F.,$,#48,.LOGISTIC.);
#50=IFCTASKTIME('Impose shipping restrictions Time',.PREDICTED.,$,.WORKTIME.,'P0Y0M3D','2027-03-01T07:00:00','2027-03-03T07:00:00','2027-03-22T07:00:00','2027-03-24T07:00:00','2027-09-15T07:00:00','2027-09-17T07:00:00','P0Y0M0D','P0Y0M128D',.F.,$,$,$,$,$,0.00);
#51=IFCTASK('fzHjpDvt7tUxbBQ1_5xlfT',#6,'Impose shipping restrictions',$,$,'1.4',$,$,$,.F.,$,#50,.LOGISTIC.);
#52=IFCTASKTIME('Start of works Time',.PREDICTED.,$,.WORKTIME.,'P0Y0M0D','2027-03-01T07:00:00','2027-03-01T07:00:00','2027-03-25T07:00:00','2027-03-25T07:00:00','2027-09-18T07:00:00','2027-09-18T07:00:00','P0Y0M128D','P0Y0M128D',.F.,$,$,$,$,$,0.00);
#53=IFCTASK('vHZfap_fAL15TfmXkzOXO3',#6,'Start of works',$,$,'1.5',$,$,$,.T.,$,#52,.LOGISTIC.);
#54=IFCTASKTIME('2. Demolition of old bridge Time',.PREDICTED.,$,.WORKTIME.,'P0Y0M5D','2027-03-01T07:00:00','2027-03-05T07:00:00','2027-03-13T07:00:00','2027-04-28T07:00:00','2027-03-13T07:00:00','2027-09-18T07:00:00','P0Y0M0D','P0Y0M0D',.T.,$,$,$,$,$,0.00);
#55=IFCTASK('bXL1YxotbrXRjj$ViDYLwX',#6,'2. Demolition of old bridge',$,$,'2',$,$,$,.F.,$,#54,.DEMOLITION.);
#56=IFCTASKTIME('Divert services Time',.PREDICTED.,$,.WORKTIME.,'P0Y0M8D','2027-03-01T07:00:00','2027-03-10T07:00:00','2027-03-13T07:00:00','2027-03-22T07:00:00','2027-03-13T07:00:00','2027-03-22T07:00:00','P0Y0M0D','P0Y0M0D',.T.,$,$,$,$,$,0.00);
#57=IFCTASK('FLhHPbwX911x$$VXyrLlb5',#6,'Divert services',$,$,'2.1',$,$,$,.F.,$,#56,.INSTALLATION.);
#58=IFCTASKTIME('Remove asphalt Time',.PREDICTED.,$,.WORKTIME.,'P0Y0M3D','2027-03-01T07:00:00','2027-03-03T07:00:00','2027-03-23T07:00:00','2027-03-25T07:00:00','2027-08-17T07:00:00','2027-08-19T07:00:00','P0Y0M0D','P0Y0M102D',.F.,$,$,$,$,$,0.00);
#59=IFCTASK('m7cfmfedVvhH5xmXQ3VbT9',#6,'Remove asphalt',$,$,'2.2',$,$,$,.F.,$,#58,.DEMOLITION.);
#60=IFCTASKTIME('Remove bridge railings Time',.PREDICTED.,$,.WORKTIME.,'P0Y0M3D','2027-03-01T07:00:00','2027-03-03T07:00:00','2027-03-27T07:00:00','2027-03-31T07:00:00','2027-08-20T07:00:00','2027-08-23T07:00:00','P0Y0M0D','P0Y0M102D',.F.,$,$,$,$,$,0.00);
#61=IFCTASK('f3t5Q9iFYdSBOv_n$3OHdh',#6,'Remove bridge railings',$,$,'2.3',$,$,$,.F.,$,#60,.DEMOLITION.);
#62=IFCTASKTIME('Demolish bridge deck Time',.PREDICTED.,$,.WORKTIME.,'P0Y0M10D','2027-03-01T07:00:00','2027-03-12T07:00:00','2027-04-01T07:00:00','2027-04-12T07:00:00','2027-08-24T07:00:00','2027-09-03T07:00:00','P0Y0M0D','P0Y0M102D',.F.,$,$,$,$,$,0.00);
#63=IFCTASK('$np7jzJVfRz7QZN1HvmNIB',#6,'Demolish bridge deck',$,$,'2.4',$,$,$,.F.,$,#62,.DEMOLITION.);
#64=IFCTASKTIME('Demolish abutments Time',.PREDICTED.,$,.WORKTIME.,'P0Y0M8D','2027-03-01T07:00:00','2027-03-10T07:00:00','2027-04-13T07:00:00','2027-04-21T07:00:00','2027-09-04T07:00:00','2027-09-13T07:00:00','P0Y0M0D','P0Y0M102D',.F.,$,$,$,$,$,0.00);
#65=IFCTASK('mdAZKf17UDkPO1t$NtgNgf',#6,'Demolish abutments',$,$,'2.5',$,$,$,.F.,$,#64,.DEMOLITION.);
#66=IFCTASKTIME('Remove rubble Time',.PREDICTED.,$,.WORKTIME.,'P0Y0M5D','2027-03-01T07:00:00','2027-03-05T07:00:00','2027-04-22T07:00:00','2027-04-28T07:00:00','2027-09-14T07:00:00','2027-09-18T07:00:00','P0Y0M102D','P0Y0M102D',.F.,$,$,$,$,$,0.00);
#67=IFCTASK('ANk5AhjVl1Yx3P2XL3VbdB',#6,'Remove rubble',$,$,'2.6',$,$,$,.F.,$,#66,.LOGISTIC.);
#68=IFCTASKTIME('3. New foundations Time',.PREDICTED.,$,.WORKTIME.,'P0Y0M5D','2027-03-01T07:00:00','2027-03-05T07:00:00','2027-03-17T07:00:00','2027-05-07T07:00:00','2027-03-17T07:00:00','2027-05-07T07:00:00','P0Y0M0D','P0Y0M0D',.T.,$,$,$,$,$,0.00);
#69=IFCTASK('oPYLX9CFarzfVFZn_RXDuR',#6,'3. New foundations',$,$,'3',$,$,$,.F.,$,#68,.CONSTRUCTION.);
#70=IFCTASKTIME('Drive sheet piling Time',.PREDICTED.,$,.WORKTIME.,'P0Y0M10D','2027-03-01T07:00:00','2027-03-12T07:00:00','2027-03-17T07:00:00','2027-03-30T07:00:00','2027-03-17T07:00:00','2027-03-30T07:00:00','P0Y0M0D','P0Y0M0D',.T.,$,$,$,$,$,0.00);
#71=IFCTASK('W$9xklOdnF4pSJZH0dKJYp',#6,'Drive sheet piling',$,$,'3.1',$,$,$,.F.,$,#70,.CONSTRUCTION.);
#72=IFCTASKTIME('Underwater concrete Time',.PREDICTED.,$,.WORKTIME.,'P0Y0M8D','2027-03-01T07:00:00','2027-03-10T07:00:00','2027-03-31T07:00:00','2027-04-08T07:00:00','2027-03-31T07:00:00','2027-04-08T07:00:00','P0Y0M0D','P0Y0M0D',.T.,$,$,$,$,$,0.00);
#73=IFCTASK('VZuX0lldh7GX27wHHBrFzB',#6,'Underwater concrete',$,$,'3.2',$,$,$,.F.,$,#72,.CONSTRUCTION.);
#74=IFCTASKTIME('Dewater excavation pit Time',.PREDICTED.,$,.WORKTIME.,'P0Y0M5D','2027-03-01T07:00:00','2027-03-05T07:00:00','2027-04-09T07:00:00','2027-04-14T07:00:00','2027-04-09T07:00:00','2027-04-14T07:00:00','P0Y0M0D','P0Y0M0D',.T.,$,$,$,$,$,0.00);
#75=IFCTASK('Q1$Ty$_NAr3fXnpFhZpPpp',#6,'Dewater excavation pit',$,$,'3.3',$,$,$,.F.,$,#74,.CONSTRUCTION.);
#76=IFCTASKTIME('Bore pile foundation Time',.PREDICTED.,$,.WORKTIME.,'P0Y0M12D','2027-03-01T07:00:00','2027-03-16T07:00:00','2027-04-15T07:00:00','2027-04-29T07:00:00','2027-04-15T07:00:00','2027-04-29T07:00:00','P0Y0M0D','P0Y0M0D',.T.,$,$,$,$,$,0.00);
#77=IFCTASK('9fEbGtS$QXQXAvgHs1H3nV',#6,'Bore pile foundation',$,$,'3.4',$,$,$,.F.,$,#76,.CONSTRUCTION.);
#78=IFCTASKTIME('Ground improvement Time',.PREDICTED.,$,.WORKTIME.,'P0Y0M5D','2027-03-01T07:00:00','2027-03-05T07:00:00','2027-04-30T07:00:00','2027-05-07T07:00:00','2027-04-30T07:00:00','2027-05-07T07:00:00','P0Y0M0D','P0Y0M0D',.T.,$,$,$,$,$,0.00);
#79=IFCTASK('OxiReRA1mJcp43$VObgfAv',#6,'Ground improvement',$,$,'3.5',$,$,$,.F.,$,#78,.CONSTRUCTION.);
#80=IFCTASKTIME('4. Concrete structure Time',.PREDICTED.,$,.WORKTIME.,'P0Y0M5D','2027-03-01T07:00:00','2027-03-05T07:00:00','2027-04-26T07:00:00','2027-07-17T07:00:00','2027-04-26T07:00:00','2027-07-17T07:00:00','P0Y0M0D','P0Y0M0D',.T.,$,$,$,$,$,0.00);
#81=IFCTASK('3pgPPRklTJqxJXN1k3eln1',#6,'4. Concrete structure',$,$,'4',$,$,$,.F.,$,#80,.CONSTRUCTION.);
#82=IFCTASKTIME('West abutment: rebar and pour Time',.PREDICTED.,$,.WORKTIME.,'P0Y0M15D','2027-03-01T07:00:00','2027-03-19T07:00:00','2027-04-26T07:00:00','2027-05-15T07:00:00','2027-04-26T07:00:00','2027-05-15T07:00:00','P0Y0M0D','P0Y0M0D',.T.,$,$,$,$,$,0.00);
#83=IFCTASK('YVj77dB$0rdJkbiHK1lzDn',#6,'West abutment: rebar and pour',$,$,'4.1',$,$,$,.F.,$,#82,.CONSTRUCTION.);
#84=IFCTASKTIME('East abutment: rebar and pour Time',.PREDICTED.,$,.WORKTIME.,'P0Y0M15D','2027-03-01T07:00:00','2027-03-19T07:00:00','2027-05-03T07:00:00','2027-05-22T07:00:00','2027-05-03T07:00:00','2027-05-22T07:00:00','P0Y0M0D','P0Y0M0D',.T.,$,$,$,$,$,0.00);
#85=IFCTASK('znxVuDtNi96jA5iFgh0vdB',#6,'East abutment: rebar and pour',$,$,'4.2',$,$,$,.F.,$,#84,.CONSTRUCTION.);
#86=IFCTASKTIME('Pour central pier Time',.PREDICTED.,$,.WORKTIME.,'P0Y0M10D','2027-03-01T07:00:00','2027-03-12T07:00:00','2027-05-24T07:00:00','2027-06-03T07:00:00','2027-05-24T07:00:00','2027-06-03T07:00:00','P0Y0M0D','P0Y0M0D',.T.,$,$,$,$,$,0.00);
#87=IFCTASK('uLcjjzDXhDw$Sdg$hPunF5',#6,'Pour central pier',$,$,'4.3',$,$,$,.F.,$,#86,.CONSTRUCTION.);
#88=IFCTASKTIME('Place precast beams Time',.PREDICTED.,$,.WORKTIME.,'P0Y0M8D','2027-03-01T07:00:00','2027-03-10T07:00:00','2027-06-04T07:00:00','2027-06-12T07:00:00','2027-06-04T07:00:00','2027-06-12T07:00:00','P0Y0M0D','P0Y0M0D',.T.,$,$,$,$,$,0.00);
#89=IFCTASK('ovQfOxE9dPK39N8$Nj9r8J',#6,'Place precast beams',$,$,'4.4',$,$,$,.F.,$,#88,.CONSTRUCTION.);
#90=IFCTASKTIME('Bridge deck reinforcement Time',.PREDICTED.,$,.WORKTIME.,'P0Y0M10D','2027-03-01T07:00:00','2027-03-12T07:00:00','2027-06-14T07:00:00','2027-06-24T07:00:00','2027-06-14T07:00:00','2027-06-24T07:00:00','P0Y0M0D','P0Y0M0D',.T.,$,$,$,$,$,0.00);
#91=IFCTASK('d$HJdNNfufDPavAHGnr$kB',#6,'Bridge deck reinforcement',$,$,'4.5',$,$,$,.F.,$,#90,.CONSTRUCTION.);
#92=IFCTASKTIME('Pour bridge deck Time',.PREDICTED.,$,.WORKTIME.,'P0Y0M5D','2027-03-01T07:00:00','2027-03-05T07:00:00','2027-06-25T07:00:00','2027-06-30T07:00:00','2027-06-25T07:00:00','2027-06-30T07:00:00','P0Y0M0D','P0Y0M0D',.T.,$,$,$,$,$,0.00);
#93=IFCTASK('DhTNC51PhpE7YfKnMF15nb',#6,'Pour bridge deck',$,$,'4.6',$,$,$,.F.,$,#92,.CONSTRUCTION.);
#94=IFCTASKTIME('Concrete curing Time',.PREDICTED.,$,.WORKTIME.,'P0Y0M15D','2027-03-01T07:00:00','2027-03-19T07:00:00','2027-07-01T07:00:00','2027-07-17T07:00:00','2027-07-01T07:00:00','2027-07-17T07:00:00','P0Y0M0D','P0Y0M0D',.T.,$,$,$,$,$,0.00);
#95=IFCTASK('XXxn3r8v238vI5GVU7mtCZ',#6,'Concrete curing',$,$,'4.7',$,$,$,.F.,$,#94,.CONSTRUCTION.);
#96=IFCTASKTIME('5. Finishing Time',.PREDICTED.,$,.WORKTIME.,'P0Y0M5D','2027-03-01T07:00:00','2027-03-05T07:00:00','2027-07-19T07:00:00','2027-09-04T07:00:00','2027-07-19T07:00:00','2027-09-04T07:00:00','P0Y0M0D','P0Y0M0D',.T.,$,$,$,$,$,0.00);
#97=IFCTASK('ebGvd9T1g5vLwpDnLZ5X8D',#6,'5. Finishing',$,$,'5',$,$,$,.F.,$,#96,.CONSTRUCTION.);
#98=IFCTASKTIME('Install bridge railings Time',.PREDICTED.,$,.WORKTIME.,'P0Y0M5D','2027-03-01T07:00:00','2027-03-05T07:00:00','2027-07-19T07:00:00','2027-07-23T07:00:00','2027-07-19T07:00:00','2027-07-23T07:00:00','P0Y0M0D','P0Y0M0D',.T.,$,$,$,$,$,0.00);
#99=IFCTASK('ix952hyH7ZCTtrw18Zb$6$',#6,'Install bridge railings',$,$,'5.1',$,$,$,.F.,$,#98,.INSTALLATION.);
#100=IFCTASKTIME('Bridge deck waterproofing Time',.PREDICTED.,$,.WORKTIME.,'P0Y0M5D','2027-03-01T07:00:00','2027-03-05T07:00:00','2027-07-24T07:00:00','2027-08-19T07:00:00','2027-07-24T07:00:00','2027-08-19T07:00:00','P0Y0M0D','P0Y0M0D',.T.,$,$,$,$,$,0.00);
#101=IFCTASK('CNYh$ds$KtkhUfSl3FLXuJ',#6,'Bridge deck waterproofing',$,$,'5.2',$,$,$,.F.,$,#100,.INSTALLATION.);
#102=IFCTASKTIME('Asphalt bridge deck Time',.PREDICTED.,$,.WORKTIME.,'P0Y0M3D','2027-03-01T07:00:00','2027-03-03T07:00:00','2027-08-20T07:00:00','2027-08-23T07:00:00','2027-08-20T07:00:00','2027-08-23T07:00:00','P0Y0M0D','P0Y0M0D',.T.,$,$,$,$,$,0.00);
#103=IFCTASK('gTjvpDH7yHx1GR0X$XHBiV',#6,'Asphalt bridge deck',$,$,'5.3',$,$,$,.F.,$,#102,.CONSTRUCTION.);
#104=IFCTASKTIME('Asphalt tie-ins Time',.PREDICTED.,$,.WORKTIME.,'P0Y0M5D','2027-03-01T07:00:00','2027-03-05T07:00:00','2027-08-24T07:00:00','2027-08-28T07:00:00','2027-08-24T07:00:00','2027-08-28T07:00:00','P0Y0M0D','P0Y0M0D',.T.,$,$,$,$,$,0.00);
#105=IFCTASK('T195g$nv6nar03rn$$T9ip',#6,'Asphalt tie-ins',$,$,'5.4',$,$,$,.F.,$,#104,.CONSTRUCTION.);
#106=IFCTASKTIME('Lighting Time',.PREDICTED.,$,.WORKTIME.,'P0Y0M3D','2027-03-01T07:00:00','2027-03-03T07:00:00','2027-08-30T07:00:00','2027-09-01T07:00:00','2027-08-30T07:00:00','2027-09-01T07:00:00','P0Y0M0D','P0Y0M0D',.T.,$,$,$,$,$,0.00);
#107=IFCTASK('TZGPrz4$4xtRLN4FPBCR5B',#6,'Lighting',$,$,'5.5',$,$,$,.F.,$,#106,.INSTALLATION.);
#108=IFCTASKTIME('Crash barrier Time',.PREDICTED.,$,.WORKTIME.,'P0Y0M3D','2027-03-01T07:00:00','2027-03-03T07:00:00','2027-09-02T07:00:00','2027-09-04T07:00:00','2027-09-02T07:00:00','2027-09-04T07:00:00','P0Y0M0D','P0Y0M0D',.T.,$,$,$,$,$,0.00);
#109=IFCTASK('Nvq5w7w7IVDduFrl93Pjs7',#6,'Crash barrier',$,$,'5.6',$,$,$,.F.,$,#108,.INSTALLATION.);
#110=IFCTASKTIME('6. Handover Time',.PREDICTED.,$,.WORKTIME.,'P0Y0M5D','2027-03-01T07:00:00','2027-03-05T07:00:00','2027-09-06T07:00:00','2027-09-18T07:00:00','2027-09-06T07:00:00','2027-09-18T07:00:00','P0Y0M0D','P0Y0M0D',.T.,$,$,$,$,$,0.00);
#111=IFCTASK('_JATW$VdFlOPChsHWt_HBZ',#6,'6. Handover',$,$,'6',$,$,$,.F.,$,#110,.CONSTRUCTION.);
#112=IFCTASKTIME('Load test Time',.PREDICTED.,$,.WORKTIME.,'P0Y0M3D','2027-03-01T07:00:00','2027-03-03T07:00:00','2027-09-06T07:00:00','2027-09-08T07:00:00','2027-09-06T07:00:00','2027-09-08T07:00:00','P0Y0M0D','P0Y0M0D',.T.,$,$,$,$,$,0.00);
#113=IFCTASK('ZTOlxrnPV5nDe19$dF9z5B',#6,'Load test',$,$,'6.1',$,$,$,.F.,$,#112,.ATTENDANCE.);
#114=IFCTASKTIME('Remove diversions Time',.PREDICTED.,$,.WORKTIME.,'P0Y0M3D','2027-03-01T07:00:00','2027-03-03T07:00:00','2027-09-09T07:00:00','2027-09-11T07:00:00','2027-09-09T07:00:00','2027-09-11T07:00:00','P0Y0M0D','P0Y0M0D',.T.,$,$,$,$,$,0.00);
#115=IFCTASK('4HD7FrnPfHjfl90VPBKjAd',#6,'Remove diversions',$,$,'6.2',$,$,$,.F.,$,#114,.LOGISTIC.);
#116=IFCTASKTIME('Clear site Time',.PREDICTED.,$,.WORKTIME.,'P0Y0M5D','2027-03-01T07:00:00','2027-03-05T07:00:00','2027-09-13T07:00:00','2027-09-17T07:00:00','2027-09-13T07:00:00','2027-09-17T07:00:00','P0Y0M0D','P0Y0M0D',.T.,$,$,$,$,$,0.00);
#117=IFCTASK('ZTuFVjIHv3ePCrs$b5Ixh9',#6,'Clear site',$,$,'6.3',$,$,$,.F.,$,#116,.LOGISTIC.);
#118=IFCTASKTIME('Bridge open to traffic Time',.PREDICTED.,$,.WORKTIME.,'P0Y0M0D','2027-03-01T07:00:00','2027-03-01T07:00:00','2027-09-18T07:00:00','2027-09-18T07:00:00','2027-09-18T07:00:00','2027-09-18T07:00:00','P0Y0M0D','P0Y0M0D',.T.,$,$,$,$,$,0.00);
#119=IFCTASK('C9MPdRg1gdXzZrM$lParCH',#6,'Bridge open to traffic',$,$,'6.4',$,$,$,.T.,$,#118,.CONSTRUCTION.);
#120=IFCRELNESTS('GPATKNvtP7uNhTpF3Hdxpp',#6,'WBS 1. Preparation & diversions',$,#43,( #45,#47,#49,#51,#53));
#121=IFCRELNESTS('YTmv1ZmfgRBFV5O$5riJgJ',#6,'WBS 2. Demolition of old bridge',$,#55,( #57,#59,#61,#63,#65,#67));
#122=IFCRELNESTS('LT3tc9CFif2t$LMHI$DdLt',#6,'WBS 3. New foundations',$,#69,( #71,#73,#75,#77,#79));
#123=IFCRELNESTS('stQfe5sPZp0n71JnNjfh6X',#6,'WBS 4. Concrete structure',$,#81,( #83,#85,#87,#89,#91,#93,#95));
#124=IFCRELNESTS('H9qpXfmf4Rrn5HXX2t2llF',#6,'WBS 5. Finishing',$,#97,( #99,#101,#103,#105,#107,#109));
#125=IFCRELNESTS('tf2BXjkl5ljNNRe$a5xHPr',#6,'WBS 6. Handover',$,#111,( #113,#115,#117,#119));
#126=IFCRELNESTS('tjjP5r1vgdnD4TBHzDgTrv',#6,'WBS Hoofd',$,#40,(#43,#55,#69,#81,#97,#111));
#127=IFCRELSEQUENCE('2jERy1Q7Wbx$uFbl_5J75r',#6,$,$,#45,#47,$,.FINISH_START.,$);
#128=IFCRELSEQUENCE('yHp7tVcVxF1TN5SFn539Wv',#6,$,$,#47,#49,$,.FINISH_START.,$);
#129=IFCRELSEQUENCE('PRmdfptfKf29LfCl_NMZHL',#6,$,$,#49,#51,$,.FINISH_START.,$);
#130=IFCRELSEQUENCE('kNmd3dr1enK3BvglYhVbHl',#6,$,$,#51,#53,$,.FINISH_START.,$);
#131=IFCRELSEQUENCE('EhBFnhpVx57hEBUXVlfL2Z',#6,$,$,#57,#59,$,.FINISH_START.,$);
#132=IFCRELSEQUENCE('FhztAhxFy5nDiXnVjbl37R',#6,$,$,#59,#61,$,.FINISH_START.,$);
#133=IFCRELSEQUENCE('WVbHDHu7gvZPO$91tPWdZx',#6,$,$,#61,#63,$,.FINISH_START.,$);
#134=IFCRELSEQUENCE('sD9DNp1PLjwjk5e$O5sz75',#6,$,$,#63,#65,$,.FINISH_START.,$);
#135=IFCRELSEQUENCE('OZTfaF4HZjiRJDhlxBqbpl',#6,$,$,#65,#67,$,.FINISH_START.,$);
#136=IFCRELSEQUENCE('OxibCx9fGZK3FJpHbRUnTx',#6,$,$,#71,#73,$,.FINISH_START.,$);
#137=IFCRELSEQUENCE('yDQf434$8X29jD3Fm$pdpD',#6,$,$,#73,#75,$,.FINISH_START.,$);
#138=IFCRELSEQUENCE('ndI5o$k99rHBaDv$YL15dv',#6,$,$,#75,#77,$,.FINISH_START.,$);
#139=IFCRELSEQUENCE('L7KRaD2NwZoBeXTlm1LH5h',#6,$,$,#77,#79,$,.FINISH_START.,$);
#140=IFCLAGTIME('Lag',.PREDICTED.,$,IFCDURATION('P5D'),.WORKTIME.);
#141=IFCRELSEQUENCE('KPm7BPkHHVcXgfe1hZ3fgt',#6,$,$,#83,#85,#140,.START_START.,$);
#142=IFCRELSEQUENCE('1Fzt2PbXfntRjDpnVjQ7z7',#6,$,$,#85,#87,$,.FINISH_START.,$);
#143=IFCRELSEQUENCE('HNuFPf7tbLJ7_jrFzJUn7N',#6,$,$,#87,#89,$,.FINISH_START.,$);
#144=IFCRELSEQUENCE('m7EnL9qnarJ76J1XiXxlB3',#6,$,$,#89,#91,$,.FINISH_START.,$);
#145=IFCRELSEQUENCE('d5azsnLH3HG1CBkVopYLo5',#6,$,$,#91,#93,$,.FINISH_START.,$);
#146=IFCRELSEQUENCE('pBnxArFPvtkLwp5HaNI5F5',#6,$,$,#93,#95,$,.FINISH_START.,$);
#147=IFCRELSEQUENCE('Y11TWVxVvTSJ_7sHuZpd$j',#6,$,$,#99,#101,$,.FINISH_START.,$);
#148=IFCRELSEQUENCE('E7QfeR6XV51TXlXVcPG9eZ',#6,$,$,#101,#103,$,.FINISH_START.,$);
#149=IFCRELSEQUENCE('0nxVuJZHZXEvI58$9Zpdlr',#6,$,$,#103,#105,$,.FINISH_START.,$);
#150=IFCRELSEQUENCE('MZz9ABv9T1U5PzhFTXdjAT',#6,$,$,#105,#107,$,.FINISH_START.,$);
#151=IFCRELSEQUENCE('9tIlRRzl$ttzFpt$rjHzVd',#6,$,$,#107,#109,$,.FINISH_START.,$);
#152=IFCRELSEQUENCE('a3ibmtSHdPyLEBA1v$dxVz',#6,$,$,#113,#115,$,.FINISH_START.,$);
#153=IFCRELSEQUENCE('g3txAlv9fnV3NdA$3Hlzxh',#6,$,$,#115,#117,$,.FINISH_START.,$);
#154=IFCRELSEQUENCE('$DgdFFz18$kL_7UFdBCDK$',#6,$,$,#117,#119,$,.FINISH_START.,$);
#155=IFCLAGTIME('Lag',.PREDICTED.,$,IFCDURATION('P11D'),.WORKTIME.);
#156=IFCRELSEQUENCE('8pNJFLjXLdypSjrnNJVp8D',#6,$,$,#45,#57,#155,.START_START.,$);
#157=IFCLAGTIME('Lag',.PREDICTED.,$,IFCRATIOMEASURE(0.4),.WORKTIME.);
#158=IFCRELSEQUENCE('ZTmP37nvQVIde7wHRR_HZ9',#6,$,$,#57,#71,#157,.START_START.,$);
#159=IFCLAGTIME('Lag',.PREDICTED.,$,IFCDURATION('-P8D'),.WORKTIME.);
#160=IFCRELSEQUENCE('KRRHVfuPF3_9l3P19d8nN$',#6,$,$,#79,#83,#159,.FINISH_START.,$);
#161=IFCLAGTIME('Lag',.PREDICTED.,$,IFCDURATION('P2D'),.WORKTIME.);
#162=IFCRELSEQUENCE('xn$Bb1VdbVBFH3918BqpeT',#6,$,$,#79,#95,#161,.FINISH_FINISH.,$);
#163=IFCRELSEQUENCE('phJdzPjnipOdK1xlSt_lNz',#6,$,$,#95,#99,$,.FINISH_START.,$);
#164=IFCRELSEQUENCE('kbZfK9Z1s9t3BPQ1I$Ttaf',#6,$,$,#109,#113,$,.FINISH_START.,$);
#165=IFCCONSTRUCTIONEQUIPMENTRESOURCE('dxKbmNe74Hx$KXN$wJNL65',#6,'Crawler crane 250 t','One crawler crane on site — deck demolition and beam placement share it',$,$,$,$,.USERDEFINED.);
#166=IFCCONSTRUCTIONEQUIPMENTRESOURCE('vrU12dh$o5f5zdYX7xcDeT',#6,'Piling rig',$,$,$,$,$,.USERDEFINED.);
#167=IFCSUBCONTRACTRESOURCE('qNEbCdh$wZMzfdA$JNAzpl',#6,'Traffic management contractor',$,$,$,$,$,.USERDEFINED.);
#168=IFCSUBCONTRACTRESOURCE('T1npX9KXnTY5dz5FsXpPr7',#6,'Demolition contractor',$,$,$,$,$,.USERDEFINED.);
#169=IFCSUBCONTRACTRESOURCE('2DQfW$H7elWHjVd1VJs90f',#6,'Asphalt contractor','Paving gang working inside the agreed road-closure window',$,$,$,$,.USERDEFINED.);
#170=IFCLABORRESOURCE('FLzt2djFKpWH9hgHMrCRhD',#6,'Concrete crew','Two gangs of four; both abutments run in parallel with a five-day stagger',$,$,$,$,.USERDEFINED.);
#171=IFCLABORRESOURCE('5rAvnhbngvbV_jzHoHl3LD',#6,'Steel fixers','Two rebar gangs of four — same parallel abutments',$,$,$,$,.USERDEFINED.);
#172=IFCCONSTRUCTIONMATERIALRESOURCE('mtyTKrldHV_9DzjHXF5HLp',#6,'Concrete C35/45',$,$,$,$,$,.USERDEFINED.);
#173=IFCPROPERTYSINGLEVALUE('CostPerHour',$,IFCMONETARYMEASURE(185),$);
#174=IFCPROPERTYSINGLEVALUE('Color',$,IFCTEXT('#1E293B'),$);
#175=IFCPROPERTYSET('5FFx6TmNYDo7sP2VtvyhsZ',#6,'OPS_Resource',$,(#173,#174));
#176=IFCRELDEFINESBYPROPERTIES('UzaL7ruPRLR18FRHU7OHLJ',#6,$,$,(#165),#175);
#177=IFCPROPERTYSINGLEVALUE('CostPerHour',$,IFCMONETARYMEASURE(150),$);
#178=IFCPROPERTYSINGLEVALUE('Color',$,IFCTEXT('#B91C1C'),$);
#179=IFCPROPERTYSET('R11ZuDHv0L5VgL2F71fL6x',#6,'OPS_Resource',$,(#177,#178));
#180=IFCRELDEFINESBYPROPERTIES('2JoRurGNKNYfH9GVczHrm1',#6,$,$,(#166),#179);
#181=IFCPROPERTYSINGLEVALUE('MaxUnits',$,IFCREAL(3),$);
#182=IFCPROPERTYSINGLEVALUE('CostPerHour',$,IFCMONETARYMEASURE(55),$);
#183=IFCPROPERTYSINGLEVALUE('Color',$,IFCTEXT('#DB2777'),$);
#184=IFCPROPERTYSET('WXblj1MdBz87kbKHyrxXSR',#6,'OPS_Resource',$,(#181,#182,#183));
#185=IFCRELDEFINESBYPROPERTIES('vBcfWVh$AfpPGxanjtMNMp',#6,$,$,(#167),#184);
#186=IFCPROPERTYSINGLEVALUE('MaxUnits',$,IFCREAL(4),$);
#187=IFCPROPERTYSINGLEVALUE('CostPerHour',$,IFCMONETARYMEASURE(62),$);
#188=IFCPROPERTYSINGLEVALUE('Color',$,IFCTEXT('#C2410C'),$);
#189=IFCPROPERTYSET('FLhlJVA1Sh1xz7cHL7yhIL',#6,'OPS_Resource',$,(#186,#187,#188));
#190=IFCRELDEFINESBYPROPERTIES('eZL$o3T1oHJfnP2V1TKJcl',#6,$,$,(#168),#189);
#191=IFCPROPERTYSINGLEVALUE('MaxUnits',$,IFCREAL(6),$);
#192=IFCPROPERTYSINGLEVALUE('CostPerHour',$,IFCMONETARYMEASURE(70),$);
#193=IFCPROPERTYSINGLEVALUE('Color',$,IFCTEXT('#6366F1'),$);
#194=IFCPROPERTYSET('g3t5wZ09TVQVQzTla9YFJz',#6,'OPS_Resource',$,(#191,#192,#193));
#195=IFCRELDEFINESBYPROPERTIES('3nb1kl093lG1WjN1UhlrGV',#6,$,$,(#169),#194);
#196=IFCPROPERTYSINGLEVALUE('MaxUnits',$,IFCREAL(8),$);
#197=IFCPROPERTYSINGLEVALUE('CostPerHour',$,IFCMONETARYMEASURE(47),$);
#198=IFCPROPERTYSINGLEVALUE('Color',$,IFCTEXT('#0D9488'),$);
#199=IFCPROPERTYSET('xhcJl5ffwlWHd33lsXxH7b',#6,'OPS_Resource',$,(#196,#197,#198));
#200=IFCRELDEFINESBYPROPERTIES('KdmPtzpVFZwj6VN$opEbLp',#6,$,$,(#170),#199);
#201=IFCPROPERTYSINGLEVALUE('MaxUnits',$,IFCREAL(8),$);
#202=IFCPROPERTYSINGLEVALUE('CostPerHour',$,IFCMONETARYMEASURE(44),$);
#203=IFCPROPERTYSINGLEVALUE('Color',$,IFCTEXT('#D97706'),$);
#204=IFCPROPERTYSET('d1PhhDAdTDe99tqFijwd3L',#6,'OPS_Resource',$,(#201,#202,#203));
#205=IFCRELDEFINESBYPROPERTIES('0HtpLp2f6Z6JAvsl47Kxlr',#6,$,$,(#171),#204);
#206=IFCPROPERTYSINGLEVALUE('MaxUnits',$,IFCREAL(999),$);
#207=IFCPROPERTYSINGLEVALUE('UnitOfMeasure',$,IFCLABEL('m³'),$);
#208=IFCPROPERTYSINGLEVALUE('Color',$,IFCTEXT('#A78BFA'),$);
#209=IFCPROPERTYSET('4jwpLJA1S$XR1hoFsbYnpj',#6,'OPS_Resource',$,(#206,#207,#208));
#210=IFCRELDEFINESBYPROPERTIES('h7CpLpUNiJSJA7ons5cpij',#6,$,$,(#172),#209);
#211=IFCRELASSIGNSTOPROCESS('3D692dB1GDw$utmVKDMZR$',#6,$,$,(#167),$,#45,$);
#212=IFCRELASSIGNSTOPROCESS('9fER0FRnEHx18FZFoFbnPd',#6,$,$,(#167),$,#47,$);
#213=IFCRELASSIGNSTOPROCESS('WVbl5hrHXd$ZXn3nORYFj3',#6,$,$,(#168),$,#59,$);
#214=IFCRELASSIGNSTOPROCESS('PxiJPtT$23uf1VBFXF3tqH',#6,$,$,(#168),$,#61,$);
#215=IFCRELASSIGNSTOPROCESS('FvQN4XM1_NcVsxKFMHxVOZ',#6,$,$,(#168,#165),$,#63,$);
#216=IFCRELASSIGNSTOPROCESS('W195sLpX3lG$8l7$BN2rOL',#6,$,$,(#168),$,#65,$);
#217=IFCRELASSIGNSTOPROCESS('Q$7BxFpVNnPByZhHpdCbPh',#6,$,$,(#168),$,#67,$);
#218=IFCRELASSIGNSTOPROCESS('mNuF5FDV7fUfdzrnnNERn1',#6,$,$,(#166),$,#71,$);
#219=IFCRELASSIGNSTOPROCESS('nrF56PYng7x$03JlZzGtiV',#6,$,$,(#172),$,#73,$);
#220=IFCRELASSIGNSTOPROCESS('P$dLpnSH9$vDqLAlyP8FpJ',#6,$,$,(#166),$,#77,$);
#221=IFCRELASSIGNSTOPROCESS('k94TWXzHZJ4pyzN1AxMT9n',#6,$,$,(#171,#170,#172),$,#83,$);
#222=IFCRELASSIGNSTOPROCESS('Dv6t_vd9xntRvVf$UB5VeT',#6,$,$,(#171,#170,#172),$,#85,$);
#223=IFCRELASSIGNSTOPROCESS('O3dhDHGNgvZdi$hlPl5Vat',#6,$,$,(#170,#172),$,#87,$);
#224=IFCRELASSIGNSTOPROCESS('YXpdZNX7iD0FLfynjxpd1p',#6,$,$,(#165,#170),$,#89,$);
#225=IFCRELASSIGNSTOPROCESS('fvaLxLJXnnarCFf1j5r$Un',#6,$,$,(#171),$,#91,$);
#226=IFCRELASSIGNSTOPROCESS('zpgdH$HvGJ2bvXFXF9k12$',#6,$,$,(#170,#172),$,#93,$);
#227=IFCRELASSIGNSTOPROCESS('SZ8FP9JVdD297$RHEnbFDp',#6,$,$,(#170),$,#99,$);
#228=IFCRELASSIGNSTOPROCESS('cxyTSlmfW5N5vJN1MLeVqF',#6,$,$,(#169),$,#103,$);
#229=IFCRELASSIGNSTOPROCESS('j9iJfFqVfxN5vjHX5LOHHF',#6,$,$,(#169),$,#105,$);
#230=IFCPROPERTYSINGLEVALUE('qNEbCdh$wZMzfdA$JNAzpl#0',$,IFCTEXT('3|UNIFORM'),$);
#231=IFCPROPERTYSET('Cton7dL$kXBnxH1XGV1xtl',#6,'OPS_Assignments',$,(#230));
#232=IFCRELDEFINESBYPROPERTIES('DB7TaFqVp5vhgLMlIVvDyB',#6,$,$,(#45),#231);
#233=IFCPROPERTYSINGLEVALUE('qNEbCdh$wZMzfdA$JNAzpl#0',$,IFCTEXT('3|UNIFORM'),$);
#234=IFCPROPERTYSET('IbJ71Z8vQ12RxlP$xLu1Yj',#6,'OPS_Assignments',$,(#233));
#235=IFCRELDEFINESBYPROPERTIES('7lz9An3$qzovAv_FdFfTh9',#6,$,$,(#47),#234);
#236=IFCPROPERTYSINGLEVALUE('T1npX9KXnTY5dz5FsXpPr7#0',$,IFCTEXT('3|UNIFORM'),$);
#237=IFCPROPERTYSET('fvShB3iXlD8v_7kFK$9BuJ',#6,'OPS_Assignments',$,(#236));
#238=IFCRELDEFINESBYPROPERTIES('GPcjdt3$SLnLA7sl0vmNQr',#6,$,$,(#59),#237);
#239=IFCPROPERTYSINGLEVALUE('T1npX9KXnTY5dz5FsXpPr7#0',$,IFCTEXT('2|UNIFORM'),$);
#240=IFCPROPERTYSET('mNGdtZlPzz_9lZrHXFxlbx',#6,'OPS_Assignments',$,(#239));
#241=IFCRELDEFINESBYPROPERTIES('NTztEXoHV5NxdTt1f9EVm1',#6,$,$,(#61),#240);
#242=IFCPROPERTYSINGLEVALUE('T1npX9KXnTY5dz5FsXpPr7#0',$,IFCTEXT('4|UNIFORM'),$);
#243=IFCPROPERTYSINGLEVALUE('dxKbmNe74Hx$KXN$wJNL65#1',$,IFCTEXT('1|UNIFORM'),$);
#244=IFCPROPERTYSET('e3HjRVJnaXLHh3$X8ZLlv5',#6,'OPS_Assignments',$,(#242,#243));
#245=IFCRELDEFINESBYPROPERTIES('1ldz_vn7Y7m1K$BlVlXpqF',#6,$,$,(#63),#244);
#246=IFCPROPERTYSINGLEVALUE('T1npX9KXnTY5dz5FsXpPr7#0',$,IFCTEXT('4|UNIFORM'),$);
#247=IFCPROPERTYSET('fPOHNDvtxRjf$$nXhdGfof',#6,'OPS_Assignments',$,(#246));
#248=IFCRELDEFINESBYPROPERTIES('m7_Xe5_NcDOdmh2FJtk$Iv',#6,$,$,(#65),#247);
#249=IFCPROPERTYSINGLEVALUE('T1npX9KXnTY5dz5FsXpPr7#0',$,IFCTEXT('2|UNIFORM'),$);
#250=IFCPROPERTYSET('TZO$gRpFYvOPmhwH3lH3Tf',#6,'OPS_Assignments',$,(#249));
#251=IFCRELDEFINESBYPROPERTIES('s9klHV5Xpbx$KbqnydOVeT',#6,$,$,(#67),#250);
#252=IFCPROPERTYSINGLEVALUE('vrU12dh$o5f5zdYX7xcDeT#0',$,IFCTEXT('1|UNIFORM'),$);
#253=IFCPROPERTYSET('7n1BNnCV1f3NhTpn$zmtSf',#6,'OPS_Assignments',$,(#252));
#254=IFCRELDEFINESBYPROPERTIES('WXztsnZ$cVE7Uz1V0P4h6$',#6,$,$,(#71),#253);
#255=IFCPROPERTYSINGLEVALUE('mtyTKrldHV_9DzjHXF5HLp#0',$,IFCTEXT('60|FRONT_LOADED'),$);
#256=IFCPROPERTYSET('wlDvJZtf_9M335CnmnxlZt',#6,'OPS_Assignments',$,(#255));
#257=IFCRELDEFINESBYPROPERTIES('V3yTaHev8t15dzbnG$hHB3',#6,$,$,(#73),#256);
#258=IFCPROPERTYSINGLEVALUE('vrU12dh$o5f5zdYX7xcDeT#0',$,IFCTEXT('1|UNIFORM'),$);
#259=IFCPROPERTYSET('YzyZOxMPV5N55bSH9du1MD',#6,'OPS_Assignments',$,(#258));
#260=IFCRELDEFINESBYPROPERTIES('t9EFVjM$EFVz1LIn4BpPj3',#6,$,$,(#77),#259);
#261=IFCPROPERTYSINGLEVALUE('5rAvnhbngvbV_jzHoHl3LD#0',$,IFCTEXT('4|UNIFORM'),$);
#262=IFCPROPERTYSINGLEVALUE('FLzt2djFKpWH9hgHMrCRhD#1',$,IFCTEXT('4|UNIFORM'),$);
#263=IFCPROPERTYSINGLEVALUE('mtyTKrldHV_9DzjHXF5HLp#2',$,IFCTEXT('25|UNIFORM'),$);
#264=IFCPROPERTYSET('tJZN8ptfaBjv6DLldlzNo9',#6,'OPS_Assignments',$,(#261,#262,#263));
#265=IFCRELDEFINESBYPROPERTIES('Y$7BRXDnw3AHndc$QZpPjT',#6,$,$,(#83),#264);
#266=IFCPROPERTYSINGLEVALUE('5rAvnhbngvbV_jzHoHl3LD#0',$,IFCTEXT('4|UNIFORM'),$);
#267=IFCPROPERTYSINGLEVALUE('FLzt2djFKpWH9hgHMrCRhD#1',$,IFCTEXT('4|UNIFORM'),$);
#268=IFCPROPERTYSINGLEVALUE('mtyTKrldHV_9DzjHXF5HLp#2',$,IFCTEXT('25|UNIFORM'),$);
#269=IFCPROPERTYSET('M3FpBZOdzTsZnds1NNQD47',#6,'OPS_Assignments',$,(#266,#267,#268));
#270=IFCRELDEFINESBYPROPERTIES('3lvTSl8PZXkdmB61ODTfkh',#6,$,$,(#85),#269);
#271=IFCPROPERTYSINGLEVALUE('FLzt2djFKpWH9hgHMrCRhD#0',$,IFCTEXT('4|UNIFORM'),$);
#272=IFCPROPERTYSINGLEVALUE('mtyTKrldHV_9DzjHXF5HLp#1',$,IFCTEXT('20|FRONT_LOADED'),$);
#273=IFCPROPERTYSET('XT8XeRcV$f5VQHJHnfcDmV',#6,'OPS_Assignments',$,(#271,#272));
#274=IFCRELDEFINESBYPROPERTIES('uroFXD67sLnLMLMlgHrFDD',#6,$,$,(#87),#273);
#275=IFCPROPERTYSINGLEVALUE('dxKbmNe74Hx$KXN$wJNL65#0',$,IFCTEXT('1|UNIFORM'),$);
#276=IFCPROPERTYSINGLEVALUE('FLzt2djFKpWH9hgHMrCRhD#1',$,IFCTEXT('3|UNIFORM'),$);
#277=IFCPROPERTYSET('d54TuptfuXUNRhcHZZyLkv',#6,'OPS_Assignments',$,(#275,#276));
#278=IFCRELDEFINESBYPROPERTIES('Ed2BjTd9rN_txnpnjtoX8b',#6,$,$,(#89),#277);
#279=IFCPROPERTYSINGLEVALUE('5rAvnhbngvbV_jzHoHl3LD#0',$,IFCTEXT('5|UNIFORM'),$);
#280=IFCPROPERTYSET('ohZf0HNNaVBFX5mVCTCRxL',#6,'OPS_Assignments',$,(#279));
#281=IFCRELDEFINESBYPROPERTIES('dVj75nDV55PreX5nYvWPPv',#6,$,$,(#91),#280);
#282=IFCPROPERTYSINGLEVALUE('FLzt2djFKpWH9hgHMrCRhD#0',$,IFCTEXT('6|UNIFORM'),$);
#283=IFCPROPERTYSINGLEVALUE('mtyTKrldHV_9DzjHXF5HLp#1',$,IFCTEXT('90|FRONT_LOADED'),$);
#284=IFCPROPERTYSET('C9Y$AnRnEHBnrdkXYdqR1f',#6,'OPS_Assignments',$,(#282,#283));
#285=IFCRELDEFINESBYPROPERTIES('prNjnrVv4HRX_JBnxnfZnx',#6,$,$,(#93),#284);
#286=IFCPROPERTYSINGLEVALUE('FLzt2djFKpWH9hgHMrCRhD#0',$,IFCTEXT('2|UNIFORM'),$);
#287=IFCPROPERTYSET('j9Sh9ZHdtr1xVl71PBKJ_X',#6,'OPS_Assignments',$,(#286));
#288=IFCRELDEFINESBYPROPERTIES('Kb3t27dtLvGXo$t19d8$cH',#6,$,$,(#99),#287);
#289=IFCPROPERTYSINGLEVALUE('2DQfW$H7elWHjVd1VJs90f#0',$,IFCTEXT('6|UNIFORM'),$);
#290=IFCPROPERTYSET('lf0t2Bed1fR1SpFVph7p0t',#6,'OPS_Assignments',$,(#289));
#291=IFCRELDEFINESBYPROPERTIES('gzvBfny1ed1ZVnrHL7iJwb',#6,$,$,(#103),#290);
#292=IFCPROPERTYSINGLEVALUE('2DQfW$H7elWHjVd1VJs90f#0',$,IFCTEXT('4|UNIFORM'),$);
#293=IFCPROPERTYSET('Ajb$E33$a$$5VnBlJxLXa5',#6,'OPS_Assignments',$,(#292));
#294=IFCRELDEFINESBYPROPERTIES('ZVRlXtKXfFX3jDhlj9_lN3',#6,$,$,(#105),#293);
#295=IFCRELASSIGNSTOCONTROL('rDVhNjbXHjyDCF$VkTSruD',#6,$,$,(#43,#45,#47,#49,#51,#53,#55,#57,#59,#61,#63,#65,#67,#69,#71,#73,#75,#77,#79,#81,#83,#85,#87,#89,#91,#93,#95,#97,#99,#101,#103,#105,#107,#109,#111,#113,#115,#117,#119),$,#40);
#296=IFCPROPERTYSINGLEVALUE('InternalProjectId',$,IFCTEXT('proj-mtlszzkf3vb31574'),$);
#297=IFCPROPERTYSINGLEVALUE('wbsAutoNumber',$,IFCBOOLEAN(.T.),$);
#298=IFCPROPERTYSINGLEVALUE('DefaultTaskDurationUnit',$,IFCLABEL('days'),$);
#299=IFCPROPERTYSINGLEVALUE('ProjectStartDate',$,IFCDATE('2027-03-01'),$);
#300=IFCPROPERTYSINGLEVALUE('ProjectEndDate',$,$,$);
#301=IFCPROPERTYSINGLEVALUE('CreatedAt',$,IFCTEXT('2026-09-03T17:33:15.855Z'),$);
#302=IFCPROPERTYSINGLEVALUE('ModifiedAt',$,IFCTEXT('2026-09-03T17:33:15.857Z'),$);
#303=IFCPROPERTYSET('e5a3ArlP$tNZvpDF1ZK5n5',#6,'OPS_ProjectSettings',$,(#296,#297,#298,#299,#300,#301,#302));
#304=IFCRELDEFINESBYPROPERTIES('0Hdzo1sPJhdjQlBF$1BF9l',#6,$,$,(#13),#303);
#305=IFCPROPERTYSINGLEVALUE('InternalTaskId',$,IFCTEXT('task-mtlszzktmvg71583'),$);
#306=IFCPROPERTYSET('c5qxkHuPlpG1CF$Xghu$EN',#6,'OPS_TaskIdentity',$,(#305));
#307=IFCRELDEFINESBYPROPERTIES('VXTNexktlX2tfdUXv5YLAv',#6,$,$,(#43),#306);
#308=IFCPROPERTYSINGLEVALUE('InternalTaskId',$,IFCTEXT('task-mtlszzkuwas61584'),$);
#309=IFCPROPERTYSET('m7Y$cJ2FqZkhE$N$RVDPrv',#6,'OPS_TaskIdentity',$,(#308));
#310=IFCRELDEFINESBYPROPERTIES('9N2BxFDXrTar4N0VNJdx$J',#6,$,$,(#45),#309);
#311=IFCPROPERTYSINGLEVALUE('InternalTaskId',$,IFCTEXT('task-mtlszzkvl0mn1585'),$);
#312=IFCPROPERTYSET('gZzt2dh1I$vpmB2XbbQvPr',#6,'OPS_TaskIdentity',$,(#311));
#313=IFCRELDEFINESBYPROPERTIES('FvQfyTedzzUfvjlVXpYLkd',#6,$,$,(#47),#312);
#314=IFCPROPERTYSINGLEVALUE('InternalTaskId',$,IFCTEXT('task-mtlszzkxsioe1586'),$);
#315=IFCPROPERTYSET('CNcJLfuPJfpdixWXTXPj_T',#6,'OPS_TaskIdentity',$,(#314));
#316=IFCRELDEFINESBYPROPERTIES('5rgdfJTlhDEvgB2VpPyLgt',#6,$,$,(#49),#315);
#317=IFCPROPERTYSINGLEVALUE('InternalTaskId',$,IFCTEXT('task-mtlszzky90ep1587'),$);
#318=IFCPROPERTYSET('CLrnBdYncX_t994lb$Hz3v',#6,'OPS_TaskIdentity',$,(#317));
#319=IFCRELDEFINESBYPROPERTIES('jfOlr3KFoRjfvpBltZZtm1',#6,$,$,(#51),#318);
#320=IFCPROPERTYSINGLEVALUE('InternalTaskId',$,IFCTEXT('task-mtlszzl1gmce1588'),$);
#321=IFCPROPERTYSET('MzNbq5VPtB7DuH1Vuhu$gj',#6,'OPS_TaskIdentity',$,(#320));
#322=IFCRELDEFINESBYPROPERTIES('ndwppHedVdfxRrg$fpxlHl',#6,$,$,(#53),#321);
#323=IFCPROPERTYSINGLEVALUE('InternalTaskId',$,IFCTEXT('task-mtlszzl26z331589'),$);
#324=IFCPROPERTYSET('upnx_LS$w329FpXV8L81_V',#6,'OPS_TaskIdentity',$,(#323));
#325=IFCRELDEFINESBYPROPERTIES('FBP3UfV7mZiRX5GV255ldL',#6,$,$,(#55),#324);
#326=IFCPROPERTYSINGLEVALUE('InternalTaskId',$,IFCTEXT('task-mtlszzl32h4u1590'),$);
#327=IFCPROPERTYSET('E7oFZ5YNOdljoVrnb1HzHH',#6,'OPS_TaskIdentity',$,(#326));
#328=IFCRELDEFINESBYPROPERTIES('7hYL1vUNKDGVIH9$SR9BqZ',#6,$,$,(#57),#327);
#329=IFCPROPERTYSINGLEVALUE('InternalTaskId',$,IFCTEXT('task-mtlszzl5az0l1591'),$);
#330=IFCPROPERTYSET('jtKb8jpnQVovQFf$3JgNId',#6,'OPS_TaskIdentity',$,(#329));
#331=IFCRELDEFINESBYPROPERTIES('cxiRSpMPJNrFdHDH5LeV4B',#6,$,$,(#59),#330);
#332=IFCPROPERTYSINGLEVALUE('InternalTaskId',$,IFCTEXT('task-mtlszzl7i2u71592'),$);
#333=IFCPROPERTYSET('qL3tQN8dlD8NtrYVLPWdV3',#6,'OPS_TaskIdentity',$,(#332));
#334=IFCRELDEFINESBYPROPERTIES('jNWNOTv9dvm1GRGVuZzN61',#6,$,$,(#61),#333);
#335=IFCPROPERTYSINGLEVALUE('InternalTaskId',$,IFCTEXT('task-mtlszzl9xmze1593'),$);
#336=IFCPROPERTYSET('a$XzIDtN8tNZpl3l25JvfZ',#6,'OPS_TaskIdentity',$,(#335));
#337=IFCRELDEFINESBYPROPERTIES('hTh$YtJX9hpPmxanVJs9ub',#6,$,$,(#63),#336);
#338=IFCPROPERTYSINGLEVALUE('InternalTaskId',$,IFCTEXT('task-mtlszzlbf0rm1594'),$);
#339=IFCPROPERTYSET('JfuX43KnY7mVwXVX2NoR5r',#6,'OPS_TaskIdentity',$,(#338));
#340=IFCRELDEFINESBYPROPERTIES('cRuVO5Q7C3IP4tyF93HBK1',#6,$,$,(#65),#339);
#341=IFCPROPERTYSINGLEVALUE('InternalTaskId',$,IFCTEXT('task-mtlszzldi9qi1595'),$);
#342=IFCPROPERTYSET('PbelrZOPXd1ZhZDFrjd5lh',#6,'OPS_TaskIdentity',$,(#341));
#343=IFCRELDEFINESBYPROPERTIES('WXxFVD2NgdN5BJ5Fwt_HXP',#6,$,$,(#67),#342);
#344=IFCPROPERTYSINGLEVALUE('InternalTaskId',$,IFCTEXT('task-mtlszzlf664u1596'),$);
#345=IFCPROPERTYSET('hdeHj1UNqT6JUTbHU7mt0t',#6,'OPS_TaskIdentity',$,(#344));
#346=IFCRELDEFINESBYPROPERTIES('aZOHFnJVl$ILEXpHp7mN6$',#6,$,$,(#69),#345);
#347=IFCPROPERTYSINGLEVALUE('InternalTaskId',$,IFCTEXT('task-mtlszzlhv7al1597'),$);
#348=IFCPROPERTYSET('3lF56z41S1PjwJHVFb9B4r',#6,'OPS_TaskIdentity',$,(#347));
#349=IFCRELDEFINESBYPROPERTIES('ApnxETldXvrFbXTHi17bn1',#6,$,$,(#71),#348);
#350=IFCPROPERTYSINGLEVALUE('InternalTaskId',$,IFCTEXT('task-mtlszzlizk3k1598'),$);
#351=IFCPROPERTYSET('2FztsHdt1t937XlXbxIx7t',#6,'OPS_TaskIdentity',$,(#350));
#352=IFCRELDEFINESBYPROPERTIES('tjb1Ar9NMPNxVlP$J9MfIP',#6,$,$,(#73),#351);
#353=IFCPROPERTYSINGLEVALUE('InternalTaskId',$,IFCTEXT('task-mtlszzlk4i0h1599'),$);
#354=IFCPROPERTYSET('9DlRKhrlBtcpGB_Vzll3$t',#6,'OPS_TaskIdentity',$,(#353));
#355=IFCRELDEFINESBYPROPERTIES('G9qxM5F7En9bp3xF29k$ox',#6,$,$,(#75),#354);
#356=IFCPROPERTYSINGLEVALUE('InternalTaskId',$,IFCTEXT('task-mtlszzlm0rz31600'),$);
#357=IFCPROPERTYSET('Q5ijLfW9xHbVknpnZVdjw$',#6,'OPS_TaskIdentity',$,(#356));
#358=IFCRELDEFINESBYPROPERTIES('VVRldxgd$hlB4Ne1mVdJox',#6,$,$,(#77),#357);
#359=IFCPROPERTYSINGLEVALUE('InternalTaskId',$,IFCTEXT('task-mtlszzlnhu6c1601'),$);
#360=IFCPROPERTYSET('5BcN0HV7KN610ZVVKpcpG$',#6,'OPS_TaskIdentity',$,(#359));
#361=IFCRELDEFINESBYPROPERTIES('2HFx_vdt7Z4D8lt$mVPjkB',#6,$,$,(#79),#360);
#362=IFCPROPERTYSINGLEVALUE('InternalTaskId',$,IFCTEXT('task-mtlszzlpo53i1602'),$);
#363=IFCPROPERTYSET('WXjvXj_nmJQp03DlNfYhUp',#6,'OPS_TaskIdentity',$,(#362));
#364=IFCRELDEFINESBYPROPERTIES('d$vr5HtfgvD9$Bg$JbXDGX',#6,$,$,(#81),#363);
#365=IFCPROPERTYSINGLEVALUE('InternalTaskId',$,IFCTEXT('task-mtlszzlry9wu1603'),$);
#366=IFCPROPERTYSET('xHDvVDcvq78NnvAHW9gf65',#6,'OPS_TaskIdentity',$,(#365));
#367=IFCRELDEFINESBYPROPERTIES('qLpvzhqnGTibb$91LzdjMp',#6,$,$,(#83),#366);
#368=IFCPROPERTYSINGLEVALUE('InternalTaskId',$,IFCTEXT('task-mtlszzlsoo741604'),$);
#369=IFCPROPERTYSET('c$1ZeTdtHVYNT9iFoD2rSf',#6,'OPS_TaskIdentity',$,(#368));
#370=IFCRELDEFINESBYPROPERTIES('JbrVyXol$L93njDHVpk5tl',#6,$,$,(#85),#369);
#371=IFCPROPERTYSINGLEVALUE('InternalTaskId',$,IFCTEXT('task-mtlszzlub3x61605'),$);
#372=IFCPROPERTYSET('RR8nLt4$mTK3xnJFbV3tiX',#6,'OPS_TaskIdentity',$,(#371));
#373=IFCRELDEFINESBYPROPERTIES('UXRH1PA1mpAl9LAH0P4T5F',#6,$,$,(#87),#372);
#374=IFCPROPERTYSINGLEVALUE('InternalTaskId',$,IFCTEXT('task-mtlszzlw0mhq1606'),$);
#375=IFCPROPERTYSET('h7KJr767wFibpzDllhnhYj',#6,'OPS_TaskIdentity',$,(#374));
#376=IFCRELDEFINESBYPROPERTIES('a3iJfnqnyx9Rf7cl9zdjYn',#6,$,$,(#89),#375);
#377=IFCPROPERTYSINGLEVALUE('InternalTaskId',$,IFCTEXT('task-mtlszzly3qrl1607'),$);
#378=IFCPROPERTYSET('AJp7VpAdxF9bBvkFm$LHnV',#6,'OPS_TaskIdentity',$,(#377));
#379=IFCRELDEFINESBYPROPERTIES('lfeHd5gPF3Yf3Ps1J9EX8D',#6,$,$,(#91),#378);
#380=IFCPROPERTYSINGLEVALUE('InternalTaskId',$,IFCTEXT('task-mtlszzlzmyjz1608'),$);
#381=IFCPROPERTYSET('GvkHtzRFkhpd0zpH7V394d',#6,'OPS_TaskIdentity',$,(#380));
#382=IFCRELDEFINESBYPROPERTIES('9Nk5oXYFANZ9X50VVlnZlh',#6,$,$,(#93),#381);
#383=IFCPROPERTYSINGLEVALUE('InternalTaskId',$,IFCTEXT('task-mtlszzm18fju1609'),$);
#384=IFCPROPERTYSET('4n1BxlnPZXgnN7AluBSB8j',#6,'OPS_TaskIdentity',$,(#383));
#385=IFCRELDEFINESBYPROPERTIES('rDfJP9JXNxljUTTnMn$xPP',#6,$,$,(#95),#384);
#386=IFCPROPERTYSINGLEVALUE('InternalTaskId',$,IFCTEXT('task-mtlszzm4c70s1610'),$);
#387=IFCPROPERTYSET('xLEbSD2NMvbXIbiFkZiJwV',#6,'OPS_TaskIdentity',$,(#386));
#388=IFCRELDEFINESBYPROPERTIES('_F5XeZV7yHZPut0V7xMZR$',#6,$,$,(#97),#387);
#389=IFCPROPERTYSINGLEVALUE('InternalTaskId',$,IFCTEXT('task-mtlszzm5ow1r1611'),$);
#390=IFCPROPERTYSET('nBnxAFrl5l3vwVN16J1j_X',#6,'OPS_TaskIdentity',$,(#389));
#391=IFCRELDEFINESBYPROPERTIES('g7iRWVr1u1Erytqne5oRb5',#6,$,$,(#99),#390);
#392=IFCPROPERTYSINGLEVALUE('InternalTaskId',$,IFCTEXT('task-mtlszzm7nkb31612'),$);
#393=IFCPROPERTYSET('NdWNirnd796JIHnVb1H31t',#6,'OPS_TaskIdentity',$,(#392));
#394=IFCRELDEFINESBYPROPERTIES('UZWNujDnQ$kh6$5HuhmfQr',#6,$,$,(#101),#393);
#395=IFCPROPERTYSINGLEVALUE('InternalTaskId',$,IFCTEXT('task-mtlszzm974o31613'),$);
#396=IFCPROPERTYSET('DLp75nBlpxPByzP1Hh7pSb',#6,'OPS_TaskIdentity',$,(#395));
#397=IFCRELDEFINESBYPROPERTIES('idGPbbr$89PJwpxHi$H3BT',#6,$,$,(#103),#396);
#398=IFCPROPERTYSINGLEVALUE('InternalTaskId',$,IFCTEXT('task-mtlszzmb1isk1614'),$);
#399=IFCPROPERTYSET('6lhH5LBHhdyhgrs$5h0vfT',#6,'OPS_TaskIdentity',$,(#398));
#400=IFCRELDEFINESBYPROPERTIES('Dh39g51dBzGVclhnpvm9Or',#6,$,$,(#105),#399);
#401=IFCPROPERTYSINGLEVALUE('InternalTaskId',$,IFCTEXT('task-mtlszzmda5cv1615'),$);
#402=IFCPROPERTYSET('0Fb1QtaHj9t3tNGVcvSzxL',#6,'OPS_TaskIdentity',$,(#401));
#403=IFCRELDEFINESBYPROPERTIES('vlb1MRzlbXT9RXzH69wdVz',#6,$,$,(#107),#402);
#404=IFCPROPERTYSINGLEVALUE('InternalTaskId',$,IFCTEXT('task-mtlszzmfe9cm1616'),$);
#405=IFCPROPERTYSET('6h_rhtyHNxnp03Tl0PCDux',#6,'OPS_TaskIdentity',$,(#404));
#406=IFCRELDEFINESBYPROPERTIES('1HfJxlFPxx$T7pRlQ7KjId',#6,$,$,(#109),#405);
#407=IFCPROPERTYSINGLEVALUE('InternalTaskId',$,IFCTEXT('task-mtlszzmhl1mj1617'),$);
#408=IFCPROPERTYSET('X$FDz7H7i9wjIxWV1TyhQn',#6,'OPS_TaskIdentity',$,(#407));
#409=IFCRELDEFINESBYPROPERTIES('OTztAhZ1UjMzXx81XHFZpj',#6,$,$,(#111),#408);
#410=IFCPROPERTYSINGLEVALUE('InternalTaskId',$,IFCTEXT('task-mtlszzminyfz1618'),$);
#411=IFCPROPERTYSET('0npvJzrljhnhEVDHjNA3nX',#6,'OPS_TaskIdentity',$,(#410));
#412=IFCRELDEFINESBYPROPERTIES('7lDvvv1PRhR$OvUn7xIxHB',#6,$,$,(#113),#411);
#413=IFCPROPERTYSINGLEVALUE('InternalTaskId',$,IFCTEXT('task-mtlszzmkie071619'),$);
#414=IFCPROPERTYSET('PXh1YtBlXPlJs5KFczHByh',#6,'OPS_TaskIdentity',$,(#413));
#415=IFCRELDEFINESBYPROPERTIES('I5vBL9SHF3gnZBkXI3elf3',#6,$,$,(#115),#414);
#416=IFCPROPERTYSINGLEVALUE('InternalTaskId',$,IFCTEXT('task-mtlszzmmhtrj1620'),$);
#417=IFCPROPERTYSET('0FJPvru7IVhHvD3nW9cv1N',#6,'OPS_TaskIdentity',$,(#416));
#418=IFCRELDEFINESBYPROPERTIES('7HjdRbzl9hhlvDjntTjv7R',#6,$,$,(#117),#417);
#419=IFCPROPERTYSINGLEVALUE('InternalTaskId',$,IFCTEXT('task-mtlszzmp4mv41621'),$);
#420=IFCPROPERTYSET('f7ShHXZlr3uvs5SlJfYhA3',#6,'OPS_TaskIdentity',$,(#419));
#421=IFCRELDEFINESBYPROPERTIES('UzSh5r1vU7ufFPc1IzOHr3',#6,$,$,(#119),#420);
#422=IFCPROPERTYSINGLEVALUE('MilestoneKind',$,IFCLABEL('START'),$);
#423=IFCPROPERTYSET('RxS3UbwX7fAlF7wH9PuFLf',#6,'OPS_Milestone',$,(#422));
#424=IFCRELDEFINESBYPROPERTIES('qtsvJzBlXdHjclTlK$PxzL',#6,$,$,(#53),#423);
ENDSEC;
END-ISO-10303-21;
