ISO-10303-21;
HEADER;
FILE_DESCRIPTION(('ViewDefinition [SchedulingView]'),'2;1');
FILE_NAME('De Linde Care Centre.ifc','2026-09-03T17:33:16',('Linda de Groot'),('Healthcare Construction Netherlands BV'),'Open Planner Studio 0.1','Open Planner Studio','');
FILE_SCHEMA(('IFC4X3'));
ENDSEC;
DATA;
#1=IFCPERSON($,'Linda de Groot',$,$,$,$,$,$);
#2=IFCORGANIZATION($,'Healthcare Construction Netherlands BV',$,$,$);
#3=IFCPERSONANDORGANIZATION(#1,#2,$);
#4=IFCORGANIZATION($,'OpenAEC Foundation',$,$,$);
#5=IFCAPPLICATION(#4,'0.1','Open Planner Studio','OPS');
#6=IFCOWNERHISTORY(#3,#5,$,.NOCHANGE.,$,$,$,1788456796);
#7=IFCSIUNIT(*,.LENGTHUNIT.,$,.METRE.);
#8=IFCSIUNIT(*,.TIMEUNIT.,$,.SECOND.);
#9=IFCUNITASSIGNMENT((#7,#8));
#10=IFCCARTESIANPOINT((0.,0.,0.));
#11=IFCAXIS2PLACEMENT3D(#10,$,$);
#12=IFCGEOMETRICREPRESENTATIONCONTEXT($,'Plan',3,1.0E-05,#11,$);
#13=IFCPROJECT('W$$TW1dt$NDPKVv$93tznV',#6,'De Linde Care Centre','New-build care centre with 60 rooms and treatment areas',$,$,$,(#12),#9);
#14=IFCTIMEPERIOD('07:00:00','16:00:00');
#15=IFCRECURRENCEPATTERN(.WEEKLY.,$,(1,2,3,4,5),$,$,$,$,(#14));
#16=IFCWORKTIME('Standard work week',.PREDICTED.,$,#15,$,$);
#17=IFCWORKTIME('New Year''s Day',.PREDICTED.,$,$,'2027-01-01','2027-01-01');
#18=IFCWORKTIME('Good Friday',.PREDICTED.,$,$,'2027-03-26','2027-03-26');
#19=IFCWORKTIME('Easter',.PREDICTED.,$,$,'2027-03-28','2027-03-29');
#20=IFCWORKTIME('King''s Day',.PREDICTED.,$,$,'2027-04-27','2027-04-27');
#21=IFCWORKTIME('Liberation Day',.PREDICTED.,$,$,'2027-05-05','2027-05-05');
#22=IFCWORKTIME('Ascension Day',.PREDICTED.,$,$,'2027-05-06','2027-05-06');
#23=IFCWORKTIME('Whitsun',.PREDICTED.,$,$,'2027-05-16','2027-05-17');
#24=IFCWORKTIME('Christmas',.PREDICTED.,$,$,'2027-12-25','2027-12-26');
#25=IFCWORKTIME('Construction holiday (northern region)',.PREDICTED.,$,$,'2027-07-26','2027-08-15');
#26=IFCWORKTIME('New Year''s Day',.PREDICTED.,$,$,'2028-01-01','2028-01-01');
#27=IFCWORKTIME('Good Friday',.PREDICTED.,$,$,'2028-04-14','2028-04-14');
#28=IFCWORKTIME('Easter',.PREDICTED.,$,$,'2028-04-16','2028-04-17');
#29=IFCWORKTIME('King''s Day',.PREDICTED.,$,$,'2028-04-27','2028-04-27');
#30=IFCWORKTIME('Liberation Day',.PREDICTED.,$,$,'2028-05-05','2028-05-05');
#31=IFCWORKTIME('Ascension Day',.PREDICTED.,$,$,'2028-05-25','2028-05-25');
#32=IFCWORKTIME('Whitsun',.PREDICTED.,$,$,'2028-06-04','2028-06-05');
#33=IFCWORKTIME('Christmas',.PREDICTED.,$,$,'2028-12-25','2028-12-26');
#34=IFCWORKTIME('Construction holiday (northern region)',.PREDICTED.,$,$,'2028-07-24','2028-08-13');
#35=IFCWORKCALENDAR('_HlbW$VPl1Yxnv_nBDbFBd',#6,'Construction calendar NL','Standard construction calendar: Mon-Fri 07:00-16:00',$,(#16),(#17,#18,#19,#20,#21,#22,#23,#24,#25,#26,#27,#28,#29,#30,#31,#32,#33,#34),.FIRSTSHIFT.);
#36=IFCPROPERTYSINGLEVALUE('HoursPerDay',$,IFCREAL(8),$);
#37=IFCPROPERTYSET('qL5XmPUFgdlJ6X9$WtAtOZ',#6,'OPS_Calendar',$,(#36));
#38=IFCRELDEFINESBYPROPERTIES('bXh12hy$qvOdOP_VbbYntl',#6,$,$,(#35),#37);
#39=IFCWORKPLAN('OR8XCRDFkXT9bVLFhTT9GX',#6,'De Linde Care Centre','New-build care centre with 60 rooms and treatment areas',$,$,'2026-09-03T17:33:16',$,$,$,$,$,'2027-03-01T07:00:00','2027-03-19T07:00:00',.PLANNED.);
#40=IFCWORKSCHEDULE('xB2X4V2F45PBOvUFrtcvtp',#6,'Construction schedule v1.0',$,$,$,'2026-09-03T17:33:16',$,$,$,$,$,'2027-03-01T07:00:00','2027-03-19T07:00:00',.PLANNED.);
#41=IFCRELAGGREGATES('X$Ph9TPtbVDd8te$ftI1sz',#6,$,$,#39,(#40));
#42=IFCTASKTIME('1. Preparation Time',.PREDICTED.,$,.WORKTIME.,'P0Y0M5D','2027-03-01T07:00:00','2027-03-05T07:00:00','2027-03-01T07:00:00','2027-03-16T07:00:00','2027-03-01T07:00:00','2028-01-18T07:00:00','P0Y0M0D','P0Y0M0D',.T.,$,$,$,$,$,0.00);
#43=IFCTASK('MPmvH5n7Ypw$8fCFCZaBqT',#6,'1. Preparation',$,$,'1',$,$,$,.F.,$,#42,.CONSTRUCTION.);
#44=IFCTASKTIME('Set up site Time',.PREDICTED.,$,.WORKTIME.,'P0Y0M5D','2027-03-01T07:00:00','2027-03-05T07:00:00','2027-03-01T07:00:00','2027-03-05T07:00:00','2027-03-01T07:00:00','2027-03-05T07:00:00','P0Y0M0D','P0Y0M0D',.T.,$,$,$,$,$,0.00);
#45=IFCTASK('0nLlNpn7ArZtLtu1NpxHVd',#6,'Set up site',$,$,'1.1',$,$,$,.F.,$,#44,.LOGISTIC.);
#46=IFCTASKTIME('Additional soil investigation Time',.PREDICTED.,$,.WORKTIME.,'P0Y0M3D','2027-03-01T07:00:00','2027-03-03T07:00:00','2027-03-08T07:00:00','2027-03-10T07:00:00','2028-01-10T07:00:00','2028-01-12T07:00:00','P0Y0M0D','P0Y0M199D',.F.,$,$,$,$,$,0.00);
#47=IFCTASK('BNsTuLCFuXEv2JTlS9MNIr',#6,'Additional soil investigation',$,$,'1.2',$,$,$,.F.,$,#46,.CONSTRUCTION.);
#48=IFCTASKTIME('Fell and transplant trees Time',.PREDICTED.,$,.WORKTIME.,'P0Y0M3D','2027-03-01T07:00:00','2027-03-03T07:00:00','2027-03-11T07:00:00','2027-03-15T07:00:00','2028-01-13T07:00:00','2028-01-17T07:00:00','P0Y0M0D','P0Y0M199D',.F.,$,$,$,$,$,0.00);
#49=IFCTASK('d1dhBZevi9wJcZd$OJFTjT',#6,'Fell and transplant trees',$,$,'1.3',$,$,$,.F.,$,#48,.DEMOLITION.);
#50=IFCTASKTIME('Start of construction Time',.PREDICTED.,$,.WORKTIME.,'P0Y0M0D','2027-03-01T07:00:00','2027-03-01T07:00:00','2027-03-16T07:00:00','2027-03-16T07:00:00','2028-01-18T07:00:00','2028-01-18T07:00:00','P0Y0M199D','P0Y0M199D',.F.,$,$,$,$,$,0.00);
#51=IFCTASK('fTBX4zalB3G$edIVcPu$QH',#6,'Start of construction',$,$,'1.4',$,$,$,.T.,$,#50,.CONSTRUCTION.);
#52=IFCTASKTIME('2. Foundations Time',.PREDICTED.,$,.WORKTIME.,'P0Y0M5D','2027-03-01T07:00:00','2027-03-05T07:00:00','2027-03-09T07:00:00','2027-04-30T07:00:00','2027-03-09T07:00:00','2028-01-18T07:00:00','P0Y0M0D','P0Y0M0D',.T.,$,$,$,$,$,0.00);
#53=IFCTASK('GtahtZHP7387MtyHDhXbbR',#6,'2. Foundations',$,$,'2',$,$,$,.F.,$,#52,.CONSTRUCTION.);
#54=IFCTASKTIME('Pile driving, foundation piles Time',.PREDICTED.,$,.WORKTIME.,'P0Y0M12D','2027-03-01T07:00:00','2027-03-16T07:00:00','2027-03-09T07:00:00','2027-03-24T07:00:00','2027-03-09T07:00:00','2027-03-24T07:00:00','P0Y0M0D','P0Y0M0D',.T.,$,$,$,$,$,0.00);
#55=IFCTASK('MZz9U9JXZD0F35Cl6JfLA7',#6,'Pile driving, foundation piles',$,$,'2.1',$,$,$,.F.,$,#54,.CONSTRUCTION.);
#56=IFCTASKTIME('Foundation beams Time',.PREDICTED.,$,.WORKTIME.,'P0Y0M8D','2027-03-01T07:00:00','2027-03-10T07:00:00','2027-03-25T07:00:00','2027-04-07T07:00:00','2027-12-16T07:00:00','2027-12-27T07:00:00','P0Y0M0D','P0Y0M169D',.F.,$,$,$,$,$,0.00);
#57=IFCTASK('fZxnFhBl5FtbXb4lxlZ90t',#6,'Foundation beams',$,$,'2.2',$,$,$,.F.,$,#56,.CONSTRUCTION.);
#58=IFCTASKTIME('Sewerage and underground pipework Time',.PREDICTED.,$,.WORKTIME.,'P0Y0M8D','2027-03-01T07:00:00','2027-03-10T07:00:00','2027-04-08T07:00:00','2027-04-19T07:00:00','2027-12-28T07:00:00','2028-01-06T07:00:00','P0Y0M0D','P0Y0M169D',.F.,$,$,$,$,$,0.00);
#59=IFCTASK('FdEbqxnvE5$T1XrF75szVd',#6,'Sewerage and underground pipework',$,$,'2.3',$,$,$,.F.,$,#58,.INSTALLATION.);
#60=IFCTASKTIME('Pour ground floor slab Time',.PREDICTED.,$,.WORKTIME.,'P0Y0M8D','2027-03-01T07:00:00','2027-03-10T07:00:00','2027-04-20T07:00:00','2027-04-30T07:00:00','2028-01-07T07:00:00','2028-01-18T07:00:00','P0Y0M169D','P0Y0M169D',.F.,$,$,$,$,$,0.00);
#61=IFCTASK('7rgdJXQXD59bZrkXwpbFJZ',#6,'Pour ground floor slab',$,$,'2.4',$,$,$,.F.,$,#60,.CONSTRUCTION.);
#62=IFCTASKTIME('3. Structural works Time',.PREDICTED.,$,.WORKTIME.,'P0Y0M5D','2027-03-01T07:00:00','2027-03-05T07:00:00','2027-03-16T07:00:00','2027-06-24T07:00:00','2027-03-16T07:00:00','2028-01-18T07:00:00','P0Y0M0D','P0Y0M0D',.T.,$,$,$,$,$,0.00);
#63=IFCTASK('aZmvjz3$WRx$G5qHA56JEb',#6,'3. Structural works',$,$,'3',$,$,$,.F.,$,#62,.CONSTRUCTION.);
#64=IFCTASKTIME('Ground floor load-bearing structure Time',.PREDICTED.,$,.WORKTIME.,'P0Y0M12D','2027-03-01T07:00:00','2027-03-16T07:00:00','2027-03-16T07:00:00','2027-04-02T07:00:00','2027-03-16T07:00:00','2027-04-02T07:00:00','P0Y0M0D','P0Y0M0D',.T.,$,$,$,$,$,0.00);
#65=IFCTASK('R$V3slnPX5XzVbKnoDYLot',#6,'Ground floor load-bearing structure',$,$,'3.1',$,$,$,.F.,$,#64,.CONSTRUCTION.);
#66=IFCTASKTIME('Floor 1 concrete Time',.PREDICTED.,$,.WORKTIME.,'P0Y0M10D','2027-03-01T07:00:00','2027-03-12T07:00:00','2027-04-05T07:00:00','2027-04-16T07:00:00','2027-04-05T07:00:00','2027-04-16T07:00:00','P0Y0M0D','P0Y0M0D',.T.,$,$,$,$,$,0.00);
#67=IFCTASK('_FxVOxsdtBvp4fu1wJVDKX',#6,'Floor 1 concrete',$,$,'3.2',$,$,$,.F.,$,#66,.CONSTRUCTION.);
#68=IFCTASKTIME('Floor 2 concrete Time',.PREDICTED.,$,.WORKTIME.,'P0Y0M10D','2027-03-01T07:00:00','2027-03-12T07:00:00','2027-04-19T07:00:00','2027-05-03T07:00:00','2027-04-19T07:00:00','2027-05-03T07:00:00','P0Y0M0D','P0Y0M0D',.T.,$,$,$,$,$,0.00);
#69=IFCTASK('5rAvR$9fKjajkbSnXDwjob',#6,'Floor 2 concrete',$,$,'3.3',$,$,$,.F.,$,#68,.CONSTRUCTION.);
#70=IFCTASKTIME('Facade masonry Time',.PREDICTED.,$,.WORKTIME.,'P0Y0M15D','2027-03-01T07:00:00','2027-03-19T07:00:00','2027-05-04T07:00:00','2027-05-27T07:00:00','2027-05-04T07:00:00','2027-05-27T07:00:00','P0Y0M0D','P0Y0M0D',.T.,$,$,$,$,$,0.00);
#71=IFCTASK('j9ShxLLlXxX3RXTH8rix5n',#6,'Facade masonry',$,$,'3.4',$,$,$,.F.,$,#70,.CONSTRUCTION.);
#72=IFCTASKTIME('Internal walls, sand-lime brick Time',.PREDICTED.,$,.WORKTIME.,'P0Y0M10D','2027-03-01T07:00:00','2027-03-12T07:00:00','2027-05-28T07:00:00','2027-06-10T07:00:00','2027-05-28T07:00:00','2027-06-10T07:00:00','P0Y0M0D','P0Y0M0D',.T.,$,$,$,$,$,0.00);
#73=IFCTASK('mf0t_BGNWbD9fPc1Yrzf23',#6,'Internal walls, sand-lime brick',$,$,'3.5',$,$,$,.F.,$,#72,.CONSTRUCTION.);
#74=IFCTASKTIME('Roof structure Time',.PREDICTED.,$,.WORKTIME.,'P0Y0M10D','2027-03-01T07:00:00','2027-03-12T07:00:00','2027-06-11T07:00:00','2027-06-24T07:00:00','2027-06-11T07:00:00','2027-06-24T07:00:00','P0Y0M0D','P0Y0M0D',.T.,$,$,$,$,$,0.00);
#75=IFCTASK('8jR$EzbFMbRVEhAly7i5VZ',#6,'Roof structure',$,$,'3.6',$,$,$,.F.,$,#74,.CONSTRUCTION.);
#76=IFCTASKTIME('Topping out Time',.PREDICTED.,$,.WORKTIME.,'P0Y0M0D','2027-03-01T07:00:00','2027-03-01T07:00:00','2027-06-24T07:00:00','2027-06-24T07:00:00','2028-01-18T07:00:00','2028-01-18T07:00:00','P0Y0M133D','P0Y0M133D',.F.,$,$,$,$,$,0.00);
#77=IFCTASK('9pn5U5Uf4FnpedIXUdixPP',#6,'Topping out',$,$,'3.7',$,$,$,.T.,$,#76,.CONSTRUCTION.);
#78=IFCTASKTIME('4. Facade & roof Time',.PREDICTED.,$,.WORKTIME.,'P0Y0M5D','2027-03-01T07:00:00','2027-03-05T07:00:00','2027-06-08T07:00:00','2027-08-16T07:00:00','2027-06-08T07:00:00','2028-01-18T07:00:00','P0Y0M0D','P0Y0M0D',.T.,$,$,$,$,$,0.00);
#79=IFCTASK('6F7ZW$H78VIdunxHSt6Prd',#6,'4. Facade & roof',$,$,'4',$,$,$,.F.,$,#78,.CONSTRUCTION.);
#80=IFCTASKTIME('Facade insulation and finish Time',.PREDICTED.,$,.WORKTIME.,'P0Y0M12D','2027-03-01T07:00:00','2027-03-16T07:00:00','2027-06-08T07:00:00','2027-06-23T07:00:00','2027-06-08T07:00:00','2027-06-23T07:00:00','P0Y0M0D','P0Y0M0D',.T.,$,$,$,$,$,0.00);
#81=IFCTASK('$lFxQ941ylrFrPM193HBup',#6,'Facade insulation and finish',$,$,'4.1',$,$,$,.F.,$,#80,.INSTALLATION.);
#82=IFCTASKTIME('Window frames and screens Time',.PREDICTED.,$,.WORKTIME.,'P0Y0M10D','2027-03-01T07:00:00','2027-03-12T07:00:00','2027-06-24T07:00:00','2027-07-07T07:00:00','2027-06-24T07:00:00','2027-07-07T07:00:00','P0Y0M0D','P0Y0M0D',.T.,$,$,$,$,$,0.00);
#83=IFCTASK('jxvB5n31elWHNbO1S92l$9',#6,'Window frames and screens',$,$,'4.2',$,$,$,.F.,$,#82,.INSTALLATION.);
#84=IFCTASKTIME('Roof insulation and covering Time',.PREDICTED.,$,.WORKTIME.,'P0Y0M8D','2027-03-01T07:00:00','2027-03-10T07:00:00','2027-07-08T07:00:00','2027-07-19T07:00:00','2027-07-08T07:00:00','2027-07-19T07:00:00','P0Y0M0D','P0Y0M0D',.T.,$,$,$,$,$,0.00);
#85=IFCTASK('5FNJjTtfY787gBoVSxr1Ef',#6,'Roof insulation and covering',$,$,'4.3',$,$,$,.F.,$,#84,.CONSTRUCTION.);
#86=IFCTASKTIME('Roof edges and rainwater drainage Time',.PREDICTED.,$,.WORKTIME.,'P0Y0M5D','2027-03-01T07:00:00','2027-03-05T07:00:00','2027-07-20T07:00:00','2027-08-16T07:00:00','2027-07-20T07:00:00','2027-08-16T07:00:00','P0Y0M0D','P0Y0M0D',.T.,$,$,$,$,$,0.00);
#87=IFCTASK('6hEbiLxnOnyh2vsHipERLJ',#6,'Roof edges and rainwater drainage',$,$,'4.4',$,$,$,.F.,$,#86,.CONSTRUCTION.);
#88=IFCTASKTIME('Wind and weathertight Time',.PREDICTED.,$,.WORKTIME.,'P0Y0M0D','2027-03-01T07:00:00','2027-03-01T07:00:00','2027-08-16T07:00:00','2027-08-16T07:00:00','2028-01-18T07:00:00','2028-01-18T07:00:00','P0Y0M111D','P0Y0M111D',.F.,$,$,$,$,$,0.00);
#89=IFCTASK('i5Hjd9BHTjajQTP$mFhXyh',#6,'Wind and weathertight',$,$,'4.5',$,$,$,.T.,$,#88,.CONSTRUCTION.);
#90=IFCTASKTIME('5. Building services Time',.PREDICTED.,$,.WORKTIME.,'P0Y0M5D','2027-03-01T07:00:00','2027-03-05T07:00:00','2027-08-17T07:00:00','2027-11-24T07:00:00','2027-08-17T07:00:00','2028-01-18T07:00:00','P0Y0M0D','P0Y0M0D',.T.,$,$,$,$,$,0.00);
#91=IFCTASK('ErNjl51PRBt3Pn1VYrLl1f',#6,'5. Building services',$,$,'5',$,$,$,.F.,$,#90,.INSTALLATION.);
#92=IFCTASKTIME('Main electrical distribution Time',.PREDICTED.,$,.WORKTIME.,'P0Y0M8D','2027-03-01T07:00:00','2027-03-10T07:00:00','2027-08-17T07:00:00','2027-08-26T07:00:00','2027-08-17T07:00:00','2027-08-26T07:00:00','P0Y0M0D','P0Y0M0D',.T.,$,$,$,$,$,0.00);
#93=IFCTASK('mtCDXNuP9X5VcFf1fjnTZ5',#6,'Main electrical distribution',$,$,'5.1',$,$,$,.F.,$,#92,.INSTALLATION.);
#94=IFCTASKTIME('Emergency power supply Time',.PREDICTED.,$,.WORKTIME.,'P0Y0M5D','2027-03-01T07:00:00','2027-03-05T07:00:00','2027-08-27T07:00:00','2027-09-02T07:00:00','2027-10-21T07:00:00','2027-10-27T07:00:00','P0Y0M0D','P0Y0M39D',.F.,$,$,$,$,$,0.00);
#95=IFCTASK('eztxYR6XJfLH9LwHNN_Bij',#6,'Emergency power supply',$,$,'5.2',$,$,$,.F.,$,#94,.INSTALLATION.);
#96=IFCTASKTIME('Oxygen and medical gases Time',.PREDICTED.,$,.WORKTIME.,'P0Y0M8D','2027-03-01T07:00:00','2027-03-10T07:00:00','2027-09-03T07:00:00','2027-09-14T07:00:00','2027-10-28T07:00:00','2027-11-08T07:00:00','P0Y0M0D','P0Y0M39D',.F.,$,$,$,$,$,0.00);
#97=IFCTASK('BJR$MVTlZV2tPF91PnFhgt',#6,'Oxygen and medical gases',$,$,'5.3',$,$,$,.F.,$,#96,.INSTALLATION.);
#98=IFCTASKTIME('Heating and cooling Time',.PREDICTED.,$,.WORKTIME.,'P0Y0M10D','2027-03-01T07:00:00','2027-03-12T07:00:00','2027-09-08T07:00:00','2027-09-21T07:00:00','2027-11-02T07:00:00','2027-11-15T07:00:00','P0Y0M0D','P0Y0M39D',.F.,$,$,$,$,$,0.00);
#99=IFCTASK('2nxXW1P93zEvgrw$SxRFtl',#6,'Heating and cooling',$,$,'5.4',$,$,$,.F.,$,#98,.INSTALLATION.);
#100=IFCTASKTIME('Ventilation with HEPA filters Time',.PREDICTED.,$,.WORKTIME.,'P0Y0M10D','2027-03-01T07:00:00','2027-03-12T07:00:00','2027-09-22T07:00:00','2027-10-05T07:00:00','2027-11-16T07:00:00','2027-11-29T07:00:00','P0Y0M0D','P0Y0M39D',.F.,$,$,$,$,$,0.00);
#101=IFCTASK('q9MdtZV7aht3PHrnDLVbTt',#6,'Ventilation with HEPA filters',$,$,'5.5',$,$,$,.F.,$,#100,.INSTALLATION.);
#102=IFCTASKTIME('Sprinkler and fire alarm Time',.PREDICTED.,$,.WORKTIME.,'P0Y0M8D','2027-03-01T07:00:00','2027-03-10T07:00:00','2027-10-06T07:00:00','2027-10-15T07:00:00','2027-11-30T07:00:00','2027-12-09T07:00:00','P0Y0M0D','P0Y0M39D',.F.,$,$,$,$,$,0.00);
#103=IFCTASK('UXBX8r0tHJSrKXd$nb$JkL',#6,'Sprinkler and fire alarm',$,$,'5.6',$,$,$,.F.,$,#102,.INSTALLATION.);
#104=IFCTASKTIME('Lift installation Time',.PREDICTED.,$,.WORKTIME.,'P0Y0M15D','2027-03-01T07:00:00','2027-03-19T07:00:00','2027-10-18T07:00:00','2027-11-05T07:00:00','2027-12-10T07:00:00','2027-12-30T07:00:00','P0Y0M0D','P0Y0M39D',.F.,$,$,$,$,$,0.00);
#105=IFCTASK('Xz4ZWXJnuVE7k50VNJtByL',#6,'Lift installation',$,$,'5.7',$,$,$,.F.,$,#104,.INSTALLATION.);
#106=IFCTASKTIME('Nurse call system Time',.PREDICTED.,$,.WORKTIME.,'P0Y0M5D','2027-03-01T07:00:00','2027-03-05T07:00:00','2027-11-08T07:00:00','2027-11-12T07:00:00','2027-12-31T07:00:00','2028-01-06T07:00:00','P0Y0M0D','P0Y0M39D',.F.,$,$,$,$,$,0.00);
#107=IFCTASK('BtQNW$7tD7Td0zrn75wjsP',#6,'Nurse call system',$,$,'5.8',$,$,$,.F.,$,#106,.INSTALLATION.);
#108=IFCTASKTIME('ICT cabling Time',.PREDICTED.,$,.WORKTIME.,'P0Y0M8D','2027-03-01T07:00:00','2027-03-10T07:00:00','2027-11-15T07:00:00','2027-11-24T07:00:00','2028-01-07T07:00:00','2028-01-18T07:00:00','P0Y0M39D','P0Y0M39D',.F.,$,$,$,$,$,0.00);
#109=IFCTASK('b5iRmN87E5npul1XCzuFBv',#6,'ICT cabling',$,$,'5.9',$,$,$,.F.,$,#108,.INSTALLATION.);
#110=IFCTASKTIME('6. Fit-out Time',.PREDICTED.,$,.WORKTIME.,'P0Y0M5D','2027-03-01T07:00:00','2027-03-05T07:00:00','2027-10-11T07:00:00','2027-12-23T07:00:00','2027-10-11T07:00:00','2027-12-23T07:00:00','P0Y0M0D','P0Y0M0D',.T.,$,$,$,$,$,0.00);
#111=IFCTASK('oBNJ3hSHd7Odi$DFxr4TTx',#6,'6. Fit-out',$,$,'6',$,$,$,.F.,$,#110,.CONSTRUCTION.);
#112=IFCTASKTIME('Partition walls Time',.PREDICTED.,$,.WORKTIME.,'P0Y0M8D','2027-03-01T07:00:00','2027-03-10T07:00:00','2027-10-11T07:00:00','2027-10-20T07:00:00','2027-10-11T07:00:00','2027-10-20T07:00:00','P0Y0M0D','P0Y0M0D',.T.,$,$,$,$,$,0.00);
#113=IFCTASK('INe1EXwXjtNZhZ3n07WPhN',#6,'Partition walls',$,$,'6.1',$,$,$,.F.,$,#112,.CONSTRUCTION.);
#114=IFCTASKTIME('Finish ceilings and walls Time',.PREDICTED.,$,.WORKTIME.,'P0Y0M10D','2027-03-01T07:00:00','2027-03-12T07:00:00','2027-10-21T07:00:00','2027-11-03T07:00:00','2027-10-21T07:00:00','2027-11-03T07:00:00','P0Y0M0D','P0Y0M0D',.T.,$,$,$,$,$,0.00);
#115=IFCTASK('LdGP$vw7I1153Pw$G1R$2$',#6,'Finish ceilings and walls',$,$,'6.2',$,$,$,.F.,$,#114,.CONSTRUCTION.);
#116=IFCTASKTIME('Tiling, wet rooms Time',.PREDICTED.,$,.WORKTIME.,'P0Y0M8D','2027-03-01T07:00:00','2027-03-10T07:00:00','2027-11-04T07:00:00','2027-11-15T07:00:00','2027-11-04T07:00:00','2027-11-15T07:00:00','P0Y0M0D','P0Y0M0D',.T.,$,$,$,$,$,0.00);
#117=IFCTASK('7h6pFld99L5Vo$$V6j$J_T',#6,'Tiling, wet rooms',$,$,'6.3',$,$,$,.F.,$,#116,.CONSTRUCTION.);
#118=IFCTASKTIME('Screeds and floor finishes Time',.PREDICTED.,$,.WORKTIME.,'P0Y0M8D','2027-03-01T07:00:00','2027-03-10T07:00:00','2027-11-16T07:00:00','2027-11-25T07:00:00','2027-11-16T07:00:00','2027-11-25T07:00:00','P0Y0M0D','P0Y0M0D',.T.,$,$,$,$,$,0.00);
#119=IFCTASK('5nlbuhqXthb1y39$W9gfw$',#6,'Screeds and floor finishes',$,$,'6.4',$,$,$,.F.,$,#118,.CONSTRUCTION.);
#120=IFCTASKTIME('Painting Time',.PREDICTED.,$,.WORKTIME.,'P0Y0M10D','2027-03-01T07:00:00','2027-03-12T07:00:00','2027-11-26T07:00:00','2027-12-09T07:00:00','2027-11-26T07:00:00','2027-12-09T07:00:00','P0Y0M0D','P0Y0M0D',.T.,$,$,$,$,$,0.00);
#121=IFCTASK('yD2VSFaH7NkdufKnEj6P5F',#6,'Painting',$,$,'6.5',$,$,$,.F.,$,#120,.CONSTRUCTION.);
#122=IFCTASKTIME('Kitchens and pantry Time',.PREDICTED.,$,.WORKTIME.,'P0Y0M5D','2027-03-01T07:00:00','2027-03-05T07:00:00','2027-12-10T07:00:00','2027-12-16T07:00:00','2027-12-10T07:00:00','2027-12-16T07:00:00','P0Y0M0D','P0Y0M0D',.T.,$,$,$,$,$,0.00);
#123=IFCTASK('xhcjJZFPVRRVsvclLdu$gN',#6,'Kitchens and pantry',$,$,'6.6',$,$,$,.F.,$,#122,.INSTALLATION.);
#124=IFCTASKTIME('Install sanitary fittings Time',.PREDICTED.,$,.WORKTIME.,'P0Y0M5D','2027-03-01T07:00:00','2027-03-05T07:00:00','2027-12-17T07:00:00','2027-12-23T07:00:00','2027-12-17T07:00:00','2027-12-23T07:00:00','P0Y0M0D','P0Y0M0D',.T.,$,$,$,$,$,0.00);
#125=IFCTASK('tNcJhfuvwFqTTNe1n5r$cn',#6,'Install sanitary fittings',$,$,'6.7',$,$,$,.F.,$,#124,.INSTALLATION.);
#126=IFCTASKTIME('7. Handover Time',.PREDICTED.,$,.WORKTIME.,'P0Y0M5D','2027-03-01T07:00:00','2027-03-05T07:00:00','2027-12-24T07:00:00','2028-01-18T07:00:00','2027-12-24T07:00:00','2028-01-18T07:00:00','P0Y0M0D','P0Y0M0D',.T.,$,$,$,$,$,0.00);
#127=IFCTASK('5HxXeRwXZX_tz5Cl6NAzNZ',#6,'7. Handover',$,$,'7',$,$,$,.F.,$,#126,.CONSTRUCTION.);
#128=IFCTASKTIME('Construct external areas Time',.PREDICTED.,$,.WORKTIME.,'P0Y0M8D','2027-03-01T07:00:00','2027-03-10T07:00:00','2027-12-24T07:00:00','2028-01-04T07:00:00','2027-12-24T07:00:00','2028-01-04T07:00:00','P0Y0M0D','P0Y0M0D',.T.,$,$,$,$,$,0.00);
#129=IFCTASK('qL5X8JpFEF7h6jd19vCbf3',#6,'Construct external areas',$,$,'7.1',$,$,$,.F.,$,#128,.CONSTRUCTION.);
#130=IFCTASKTIME('Room furnishing Time',.PREDICTED.,$,.WORKTIME.,'P0Y0M5D','2027-03-01T07:00:00','2027-03-05T07:00:00','2028-01-05T07:00:00','2028-01-11T07:00:00','2028-01-05T07:00:00','2028-01-11T07:00:00','P0Y0M0D','P0Y0M0D',.T.,$,$,$,$,$,0.00);
#131=IFCTASK('Bp7T4$YNaVZ9JJN1EnJ75B',#6,'Room furnishing',$,$,'7.2',$,$,$,.F.,$,#130,.LOGISTIC.);
#132=IFCTASKTIME('Test building services Time',.PREDICTED.,$,.WORKTIME.,'P0Y0M5D','2027-03-01T07:00:00','2027-03-05T07:00:00','2028-01-12T07:00:00','2028-01-18T07:00:00','2028-01-12T07:00:00','2028-01-18T07:00:00','P0Y0M0D','P0Y0M0D',.T.,$,$,$,$,$,0.00);
#133=IFCTASK('Ob0t2PL$6T6JM9ilqTqRNz',#6,'Test building services',$,$,'7.3',$,$,$,.F.,$,#132,.ATTENDANCE.);
#134=IFCTASKTIME('Handover Time',.PREDICTED.,$,.WORKTIME.,'P0Y0M0D','2027-03-01T07:00:00','2027-03-01T07:00:00','2028-01-18T07:00:00','2028-01-18T07:00:00','2028-01-18T07:00:00','2028-01-18T07:00:00','P0Y0M0D','P0Y0M0D',.T.,$,$,$,$,$,0.00);
#135=IFCTASK('R$1ZSDsdL70n1hgHEFhVeT',#6,'Handover',$,$,'7.4',$,$,$,.T.,$,#134,.CONSTRUCTION.);
#136=IFCRELNESTS('nrHbanalhDEvAR0X93vpSR',#6,'WBS 1. Preparation',$,#43,( #45,#47,#49,#51));
#137=IFCRELNESTS('9jz9oXwV$LdjgtynrtwdfX',#6,'WBS 2. Foundations',$,#53,( #55,#57,#59,#61));
#138=IFCRELNESTS('L7qD5hjXXPFpWJ7$1$zNAd',#6,'WBS 3. Structural works',$,#63,( #65,#67,#69,#71,#73,#75,#77));
#139=IFCRELNESTS('1Jwpzd5Vl1_brP2XrpjvRx',#6,'WBS 4. Facade & roof',$,#79,( #81,#83,#85,#87,#89));
#140=IFCRELNESTS('vHztMVpnI1nLQZnX1Xnhsz',#6,'WBS 5. Building services',$,#91,( #93,#95,#97,#99,#101,#103,#105,#107,#109));
#141=IFCRELNESTS('7l3t_P3HTpufzvEFI$DdTb',#6,'WBS 6. Fit-out',$,#111,( #113,#115,#117,#119,#121,#123,#125));
#142=IFCRELNESTS('2jwDLjYnQJKbxlFVtzPJEx',#6,'WBS 7. Handover',$,#127,( #129,#131,#133,#135));
#143=IFCRELNESTS('tjjP5r1vgdnD4TBHzDgTrv',#6,'WBS Hoofd',$,#40,(#43,#53,#63,#79,#91,#111,#127));
#144=IFCRELSEQUENCE('rDFxQ9iV7tgzFJJHr9c7JV',#6,$,$,#45,#47,$,.FINISH_START.,$);
#145=IFCRELSEQUENCE('WXbHlVpFEnN5dzplBjP59F',#6,$,$,#47,#49,$,.FINISH_START.,$);
#146=IFCRELSEQUENCE('5BEnrvAdnHO9lZZFwjvbN3',#6,$,$,#49,#51,$,.FINISH_START.,$);
#147=IFCRELSEQUENCE('KPWNupP9tLTtR$HVpdijkr',#6,$,$,#55,#57,$,.FINISH_START.,$);
#148=IFCRELSEQUENCE('M37rH5793nKzv1hlzlnTlB',#6,$,$,#57,#59,$,.FINISH_START.,$);
#149=IFCRELSEQUENCE('uBU1cD6vYvWHNbO$znTNMD',#6,$,$,#59,#61,$,.FINISH_START.,$);
#150=IFCRELSEQUENCE('gvC5UtJXz3gnrvsH4hHBuj',#6,$,$,#65,#67,$,.FINISH_START.,$);
#151=IFCRELSEQUENCE('KbrVq7nvolx$adEX8ryZZx',#6,$,$,#67,#69,$,.FINISH_START.,$);
#152=IFCRELSEQUENCE('$pU$gXr1WbhH1VZH8TxXK1',#6,$,$,#69,#71,$,.FINISH_START.,$);
#153=IFCRELSEQUENCE('oLhHZtrlZDWHthYFRVr$2V',#6,$,$,#71,#73,$,.FINISH_START.,$);
#154=IFCRELSEQUENCE('gTz9sHtfcJCZzvQlfpbnHL',#6,$,$,#73,#75,$,.FINISH_START.,$);
#155=IFCRELSEQUENCE('YXxnNlOPzTcpK50VJRnZ1J',#6,$,$,#75,#77,$,.FINISH_START.,$);
#156=IFCRELSEQUENCE('whMzsHP9dj_blZRHw9s9Or',#6,$,$,#81,#83,$,.FINISH_START.,$);
#157=IFCRELSEQUENCE('E7U$cN0tjNjvkx81_xDd1j',#6,$,$,#83,#85,$,.FINISH_START.,$);
#158=IFCRELSEQUENCE('7HDvzhalT16j2PIX_NMTfV',#6,$,$,#85,#87,$,.FINISH_START.,$);
#159=IFCRELSEQUENCE('0HdzU5otd7edulP1Jfs3Tt',#6,$,$,#87,#89,$,.FINISH_START.,$);
#160=IFCRELSEQUENCE('ZTmdV9qFSXb$0Tv$Uh93rT',#6,$,$,#93,#95,$,.FINISH_START.,$);
#161=IFCRELSEQUENCE('aVxnVp2fgdPre$$VcvK5Lt',#6,$,$,#95,#97,$,.FINISH_START.,$);
#162=IFCLAGTIME('Lag',.PREDICTED.,$,IFCDURATION('P3D'),.WORKTIME.);
#163=IFCRELSEQUENCE('k9yrdNVvWx1Zzvknu3XRZN',#6,$,$,#97,#99,#162,.START_START.,$);
#164=IFCRELSEQUENCE('LzvB5HNfKtgz5FhHHBJ7Zf',#6,$,$,#99,#101,$,.FINISH_START.,$);
#165=IFCRELSEQUENCE('mN09kJZlFZkLMLMlA5ob3v',#6,$,$,#101,#103,$,.FINISH_START.,$);
#166=IFCRELSEQUENCE('hd09_LiXLJcDGxKlaR1jUH',#6,$,$,#103,#105,$,.FINISH_START.,$);
#167=IFCRELSEQUENCE('n7EnJzjVLvedSdA1rJVDSN',#6,$,$,#105,#107,$,.FINISH_START.,$);
#168=IFCRELSEQUENCE('VV39g$1dDd9RFj3HEpcpyP',#6,$,$,#107,#109,$,.FINISH_START.,$);
#169=IFCRELSEQUENCE('9fg36Pg$A9HBK5e1OppPtl',#6,$,$,#113,#115,$,.FINISH_START.,$);
#170=IFCRELSEQUENCE('M7yZSHW99hJ7ErIXoFpPvf',#6,$,$,#115,#117,$,.FINISH_START.,$);
#171=IFCRELSEQUENCE('7HJdhpQvqPypm5aHNfobtJ',#6,$,$,#117,#119,$,.FINISH_START.,$);
#172=IFCRELSEQUENCE('cxiRap2fEbrn3bu$L7CDyh',#6,$,$,#119,#121,$,.FINISH_START.,$);
#173=IFCRELSEQUENCE('5n9DvLyH9BHBmr_VXjcvHH',#6,$,$,#121,#123,$,.FINISH_START.,$);
#174=IFCRELSEQUENCE('6hoRK9BHjLvp0zRn4dOlJX',#6,$,$,#123,#125,$,.FINISH_START.,$);
#175=IFCRELSEQUENCE('qBPzcNu7cpmVkbyHHvWPNV',#6,$,$,#129,#131,$,.FINISH_START.,$);
#176=IFCRELSEQUENCE('NzvrBvcv81U5VlVXc3vpaR',#6,$,$,#131,#133,$,.FINISH_START.,$);
#177=IFCRELSEQUENCE('Hxljd9BHjr3ftLkn0dyh6$',#6,$,$,#133,#135,$,.FINISH_START.,$);
#178=IFCLAGTIME('Lag',.PREDICTED.,$,IFCDURATION('P6D'),.WORKTIME.);
#179=IFCRELSEQUENCE('5FfJzBmfCZY5lt0XRXhXm1',#6,$,$,#45,#55,#178,.START_START.,$);
#180=IFCLAGTIME('Lag',.PREDICTED.,$,IFCRATIOMEASURE(0.4),.WORKTIME.);
#181=IFCRELSEQUENCE('QVTNq79fePvLE191v1VDW7',#6,$,$,#55,#65,#180,.START_START.,$);
#182=IFCLAGTIME('Lag',.PREDICTED.,$,IFCDURATION('-P13D'),.WORKTIME.);
#183=IFCRELSEQUENCE('vnfJVJoHRh3N$$N$LPmfgt',#6,$,$,#75,#81,#182,.FINISH_START.,$);
#184=IFCLAGTIME('Lag',.PREDICTED.,$,IFCDURATION('P2D'),.WORKTIME.);
#185=IFCRELSEQUENCE('xrcfiNndJfpP4TLl3HHzhj',#6,$,$,#75,#87,#184,.FINISH_FINISH.,$);
#186=IFCRELSEQUENCE('3DsvLNedBN2t$LsHqndjQh',#6,$,$,#87,#93,$,.FINISH_START.,$);
#187=IFCLAGTIME('Lag',.PREDICTED.,$,IFCDURATION('P39D'),.WORKTIME.);
#188=IFCRELSEQUENCE('M7qDFHHdRX5Xwjd1JtcvXd',#6,$,$,#93,#113,#187,.START_START.,$);
#189=IFCRELSEQUENCE('cVztEVA$a$93TBoVuZBFf$',#6,$,$,#125,#129,$,.FINISH_START.,$);
#190=IFCSUBCONTRACTRESOURCE('oh39gxv97tM3h9e1J9Qv3d',#6,'Civils and landscaping contractor','Site set-up, tree work, the underground pipework and the external areas at handover',$,$,$,$,.USERDEFINED.);
#191=IFCSUBCONTRACTRESOURCE('qLjPtzrl7Z4LwXXX6t_lPL',#6,'Piling contractor',$,$,$,$,$,.USERDEFINED.);
#192=IFCLABORRESOURCE('4lpvxlFPdvWl3vkFWf2r4L',#6,'Structural works crew','Concrete gangs for foundations and superstructure; the two phases overlap',$,$,$,$,.USERDEFINED.);
#193=IFCLABORRESOURCE('iduVC5$PfHTPCLwHJfk5nb',#6,'Bricklayers','Facade masonry and the sand-lime brick internal walls, one gang moving through the building',$,$,$,$,.USERDEFINED.);
#194=IFCCONSTRUCTIONEQUIPMENTRESOURCE('dR8X8Dv9pvjNBDv$oDYL2z',#6,'Mobile crane','One mobile crane for the floors, the masonry supply and the roof structure',$,$,$,$,.USERDEFINED.);
#195=IFCCONSTRUCTIONMATERIALRESOURCE('lNuXWV5Xfx9R3xiFI3GfoR',#6,'Concrete C30/37',$,$,$,$,$,.USERDEFINED.);
#196=IFCSUBCONTRACTRESOURCE('c$nD7reP3TM39fu$3DIxr7',#6,'Facade contractor','Facade insulation and finish, window frames and sun screens',$,$,$,$,.USERDEFINED.);
#197=IFCSUBCONTRACTRESOURCE('lb5nBvcvGjcDSdQ$cPelXv',#6,'Roofing contractor',$,$,$,$,$,.USERDEFINED.);
#198=IFCLABORRESOURCE('5HjP$vk9Bf29DZVVaRl3j1',#6,'Electricians','Distribution, emergency power, nurse call and the data cabling',$,$,$,$,.USERDEFINED.);
#199=IFCLABORRESOURCE('MvahX9yHPJILMrs$HL7pyv',#6,'Mechanical fitters',$,$,$,$,$,.USERDEFINED.);
#200=IFCSUBCONTRACTRESOURCE('a$HjBdA$ufb$evIFyr3Nkd',#6,'Medical gas contractor','Certified installer for oxygen and medical gases — a care-specific package',$,$,$,$,.USERDEFINED.);
#201=IFCSUBCONTRACTRESOURCE('CBP3IJzlrtsTLTJFRX39OB',#6,'Lift contractor',$,$,$,$,$,.USERDEFINED.);
#202=IFCLABORRESOURCE('OZ5nNluPvNAlFvslKpIxBP',#6,'Fit-out crew','Partitions, ceilings, screeds, pantries and finally the room furnishing',$,$,$,$,.USERDEFINED.);
#203=IFCLABORRESOURCE('b$fRaH87IVDdClZlepztuj',#6,'Tilers',$,$,$,$,$,.USERDEFINED.);
#204=IFCLABORRESOURCE('sJDvHbxVnH8NnvonYL15Dp',#6,'Painters',$,$,$,$,$,.USERDEFINED.);
#205=IFCLABORRESOURCE('K57B3LCniJSBWDRlgLWdvf',#6,'Commissioning engineer','Balances and tests the services with the care provider before handover',$,$,$,$,.USERDEFINED.);
#206=IFCPROPERTYSINGLEVALUE('MaxUnits',$,IFCREAL(5),$);
#207=IFCPROPERTYSINGLEVALUE('CostPerHour',$,IFCMONETARYMEASURE(56),$);
#208=IFCPROPERTYSINGLEVALUE('Color',$,IFCTEXT('#1E293B'),$);
#209=IFCPROPERTYSET('6B_Vqvdt5FFpeXRFaNMTL9',#6,'OPS_Resource',$,(#206,#207,#208));
#210=IFCRELDEFINESBYPROPERTIES('jfmP933$O73vwJHVxLGfId',#6,$,$,(#190),#209);
#211=IFCPROPERTYSINGLEVALUE('MaxUnits',$,IFCREAL(4),$);
#212=IFCPROPERTYSINGLEVALUE('CostPerHour',$,IFCMONETARYMEASURE(78),$);
#213=IFCPROPERTYSINGLEVALUE('Color',$,IFCTEXT('#B91C1C'),$);
#214=IFCPROPERTYSET('urA79$Et9X5XkHnX5lTtSt',#6,'OPS_Resource',$,(#211,#212,#213));
#215=IFCRELDEFINESBYPROPERTIES('HfWfCRL$QXAl3dA1j9AtKj',#6,$,$,(#191),#214);
#216=IFCPROPERTYSINGLEVALUE('MaxUnits',$,IFCREAL(12),$);
#217=IFCPROPERTYSINGLEVALUE('CostPerHour',$,IFCMONETARYMEASURE(46),$);
#218=IFCPROPERTYSINGLEVALUE('Color',$,IFCTEXT('#DB2777'),$);
#219=IFCPROPERTYSET('G7gPpniV3F4LIRSFj9gfQB',#6,'OPS_Resource',$,(#216,#217,#218));
#220=IFCRELDEFINESBYPROPERTIES('tJZfeR6Vj915JXHXzl1JA7',#6,$,$,(#192),#219);
#221=IFCPROPERTYSINGLEVALUE('MaxUnits',$,IFCREAL(6),$);
#222=IFCPROPERTYSINGLEVALUE('CostPerHour',$,IFCMONETARYMEASURE(46),$);
#223=IFCPROPERTYSINGLEVALUE('Color',$,IFCTEXT('#C2410C'),$);
#224=IFCPROPERTYSET('0FR1M1d9nl8v_JJlNpxlDl',#6,'OPS_Resource',$,(#221,#222,#223));
#225=IFCRELDEFINESBYPROPERTIES('PbOH5hDV3lGXsdEXuzlrq3',#6,$,$,(#193),#224);
#226=IFCPROPERTYSINGLEVALUE('CostPerHour',$,IFCMONETARYMEASURE(95),$);
#227=IFCPROPERTYSINGLEVALUE('Color',$,IFCTEXT('#6366F1'),$);
#228=IFCPROPERTYSET('5HR$oXQVR$lBGL6lLz9zzP',#6,'OPS_Resource',$,(#226,#227));
#229=IFCRELDEFINESBYPROPERTIES('YTGPH$XPrNgnv$bl2R$Jwb',#6,$,$,(#194),#228);
#230=IFCPROPERTYSINGLEVALUE('MaxUnits',$,IFCREAL(999),$);
#231=IFCPROPERTYSINGLEVALUE('UnitOfMeasure',$,IFCLABEL('m³'),$);
#232=IFCPROPERTYSINGLEVALUE('Color',$,IFCTEXT('#0D9488'),$);
#233=IFCPROPERTYSET('3jUL7LqFa1t37VXXUBR$ob',#6,'OPS_Resource',$,(#230,#231,#232));
#234=IFCRELDEFINESBYPROPERTIES('gdmPfJbXD75$KRylNJ$jch',#6,$,$,(#195),#233);
#235=IFCPROPERTYSINGLEVALUE('MaxUnits',$,IFCREAL(6),$);
#236=IFCPROPERTYSINGLEVALUE('CostPerHour',$,IFCMONETARYMEASURE(68),$);
#237=IFCPROPERTYSINGLEVALUE('Color',$,IFCTEXT('#D97706'),$);
#238=IFCPROPERTYSET('ItKJPtZ$_Z4hE11XgByZR$',#6,'OPS_Resource',$,(#235,#236,#237));
#239=IFCRELDEFINESBYPROPERTIES('hT39U5gdflRV6$zFOpTNw$',#6,$,$,(#196),#238);
#240=IFCPROPERTYSINGLEVALUE('MaxUnits',$,IFCREAL(4),$);
#241=IFCPROPERTYSINGLEVALUE('CostPerHour',$,IFCMONETARYMEASURE(66),$);
#242=IFCPROPERTYSINGLEVALUE('Color',$,IFCTEXT('#A78BFA'),$);
#243=IFCPROPERTYSET('RxCxsLbFYPyhEVhFJ9MfIP',#6,'OPS_Resource',$,(#240,#241,#242));
#244=IFCRELDEFINESBYPROPERTIES('qtU$AB9fU7uvkxWVnxRnJ3',#6,$,$,(#197),#243);
#245=IFCPROPERTYSINGLEVALUE('MaxUnits',$,IFCREAL(4),$);
#246=IFCPROPERTYSINGLEVALUE('CostPerHour',$,IFCMONETARYMEASURE(49),$);
#247=IFCPROPERTYSINGLEVALUE('Color',$,IFCTEXT('#38BDF8'),$);
#248=IFCPROPERTYSET('FPgzcjA1yFX3ttCFWfs3Zt',#6,'OPS_Resource',$,(#245,#246,#247));
#249=IFCRELDEFINESBYPROPERTIES('AjhHJXkH$9FhY9O$Kpk5Dj',#6,$,$,(#198),#248);
#250=IFCPROPERTYSINGLEVALUE('MaxUnits',$,IFCREAL(6),$);
#251=IFCPROPERTYSINGLEVALUE('CostPerHour',$,IFCMONETARYMEASURE(48),$);
#252=IFCPROPERTYSINGLEVALUE('Color',$,IFCTEXT('#4ADE80'),$);
#253=IFCPROPERTYSET('2H$BTxEt$h1xXlnXxFfTv9',#6,'OPS_Resource',$,(#250,#251,#252));
#254=IFCRELDEFINESBYPROPERTIES('RxCxAhRF6nypad2Xj96P9H',#6,$,$,(#199),#253);
#255=IFCPROPERTYSINGLEVALUE('MaxUnits',$,IFCREAL(3),$);
#256=IFCPROPERTYSINGLEVALUE('CostPerHour',$,IFCMONETARYMEASURE(88),$);
#257=IFCPROPERTYSINGLEVALUE('Color',$,IFCTEXT('#FBBF24'),$);
#258=IFCPROPERTYSET('G9qDzdjnSrJv6XnVPhOVKX',#6,'OPS_Resource',$,(#255,#256,#257));
#259=IFCRELDEFINESBYPROPERTIES('fZrVm7EtddKz5H1XStUFtF',#6,$,$,(#200),#258);
#260=IFCPROPERTYSINGLEVALUE('MaxUnits',$,IFCREAL(3),$);
#261=IFCPROPERTYSINGLEVALUE('CostPerHour',$,IFCMONETARYMEASURE(82),$);
#262=IFCPROPERTYSINGLEVALUE('Color',$,IFCTEXT('#BEF264'),$);
#263=IFCPROPERTYSET('8LATWVh1I$vpSPQ1U70vLD',#6,'OPS_Resource',$,(#260,#261,#262));
#264=IFCRELDEFINESBYPROPERTIES('ltCpxrnPhDcVsP61mH9BaR',#6,$,$,(#201),#263);
#265=IFCPROPERTYSINGLEVALUE('MaxUnits',$,IFCREAL(6),$);
#266=IFCPROPERTYSINGLEVALUE('CostPerHour',$,IFCMONETARYMEASURE(44),$);
#267=IFCPROPERTYSINGLEVALUE('Color',$,IFCTEXT('#1E293B'),$);
#268=IFCPROPERTYSET('KPOHPRcV5HptdHRFGVXR5B',#6,'OPS_Resource',$,(#265,#266,#267));
#269=IFCRELDEFINESBYPROPERTIES('jxNRq5l7mJg3xFjFtThlhJ',#6,$,$,(#202),#268);
#270=IFCPROPERTYSINGLEVALUE('MaxUnits',$,IFCREAL(4),$);
#271=IFCPROPERTYSINGLEVALUE('CostPerHour',$,IFCMONETARYMEASURE(43),$);
#272=IFCPROPERTYSINGLEVALUE('Color',$,IFCTEXT('#1E293B'),$);
#273=IFCPROPERTYSET('lNO$MbL1QDWHXnbHgryL2T',#6,'OPS_Resource',$,(#270,#271,#272));
#274=IFCRELDEFINESBYPROPERTIES('MTDdDninw3E7IbKnUh15hN',#6,$,$,(#203),#273);
#275=IFCPROPERTYSINGLEVALUE('MaxUnits',$,IFCREAL(5),$);
#276=IFCPROPERTYSINGLEVALUE('CostPerHour',$,IFCMONETARYMEASURE(38),$);
#277=IFCPROPERTYSINGLEVALUE('Color',$,IFCTEXT('#1E293B'),$);
#278=IFCPROPERTYSET('stIl$ds$uNLHx5mXml9rml',#6,'OPS_Resource',$,(#275,#276,#277));
#279=IFCRELDEFINESBYPROPERTIES('FLTfKLpVV5N5DHxn6JXpi$',#6,$,$,(#204),#278);
#280=IFCPROPERTYSINGLEVALUE('MaxUnits',$,IFCREAL(2),$);
#281=IFCPROPERTYSINGLEVALUE('CostPerHour',$,IFCMONETARYMEASURE(85),$);
#282=IFCPROPERTYSINGLEVALUE('Color',$,IFCTEXT('#1E293B'),$);
#283=IFCPROPERTYSET('O5SLLjIlN5ljsvYFR1fLo5',#6,'OPS_Resource',$,(#280,#281,#282));
#284=IFCRELDEFINESBYPROPERTIES('nP6p5hxFWbrnJpJnrtMfox',#6,$,$,(#205),#283);
#285=IFCRELASSIGNSTOPROCESS('mPM3MVTHnZQpmxSFDPyTZb',#6,$,$,(#190),$,#45,$);
#286=IFCRELASSIGNSTOPROCESS('f7S32PL1gd9bnDHXZXlr8b',#6,$,$,(#190),$,#49,$);
#287=IFCRELASSIGNSTOPROCESS('cxiJxFhldvmV2d2Xbbc7xr',#6,$,$,(#191),$,#55,$);
#288=IFCRELASSIGNSTOPROCESS('PRGdpl0t3H8fBpHV7$nTj3',#6,$,$,(#192,#195),$,#57,$);
#289=IFCRELASSIGNSTOPROCESS('X$nDfJ5XlVkPO$f$9ZTtKp',#6,$,$,(#190),$,#59,$);
#290=IFCRELASSIGNSTOPROCESS('fZh1cfGNWbp9bXJHZZqDyr',#6,$,$,(#192,#195),$,#61,$);
#291=IFCRELASSIGNSTOPROCESS('h7Kby$ktB9orufKl8zt3HF',#6,$,$,(#192,#194,#195),$,#65,$);
#292=IFCRELASSIGNSTOPROCESS('oPwDLJwXtVR1CHjH3DMZfX',#6,$,$,(#192,#194,#195),$,#67,$);
#293=IFCRELASSIGNSTOPROCESS('LTTNuDHv8tlr8NyFtZpPvN',#6,$,$,(#192,#194,#195),$,#69,$);
#294=IFCRELASSIGNSTOPROCESS('zFztQfePxFVzR$FVDrR161',#6,$,$,(#193,#194),$,#71,$);
#295=IFCRELASSIGNSTOPROCESS('0l1rflu7cp8fxbSnBJP5JT',#6,$,$,(#193),$,#73,$);
#296=IFCRELASSIGNSTOPROCESS('8Lcjl59f8$cpuFTFQZzNgD',#6,$,$,(#192,#194),$,#75,$);
#297=IFCRELASSIGNSTOPROCESS('FP2BDDfNEnnDWj7$b$FZ$J',#6,$,$,(#196),$,#81,$);
#298=IFCRELASSIGNSTOPROCESS('T3yTSFKFYpgn7$rHtZxViJ',#6,$,$,(#196),$,#83,$);
#299=IFCRELASSIGNSTOPROCESS('rNcjHbDFolrnz5qlwtYntl',#6,$,$,(#197),$,#85,$);
#300=IFCRELASSIGNSTOPROCESS('gzNRiNV7ahnLA76H5h07Hn',#6,$,$,(#197),$,#87,$);
#301=IFCRELASSIGNSTOPROCESS('0nD7NniXnTUx3PIVkZCDSb',#6,$,$,(#198),$,#93,$);
#302=IFCRELASSIGNSTOPROCESS('Ob8Fv7PtVvhH9rM1hvSBG$',#6,$,$,(#198),$,#95,$);
#303=IFCRELASSIGNSTOPROCESS('5rQNqbDFYJY5FvUFnNwJQn',#6,$,$,(#200),$,#97,$);
#304=IFCRELASSIGNSTOPROCESS('odwpJ1cviJCxtrUXxHpdN1',#6,$,$,(#199),$,#99,$);
#305=IFCRELASSIGNSTOPROCESS('aXL$oXoHljKbR$XV8ByLMp',#6,$,$,(#199),$,#101,$);
#306=IFCRELASSIGNSTOPROCESS('k9Cx2PTHJN3fpH5ngLeHF$',#6,$,$,(#199),$,#103,$);
#307=IFCRELASSIGNSTOPROCESS('nLLlBZ0tT12bVbCn0d4TBd',#6,$,$,(#201),$,#105,$);
#308=IFCRELASSIGNSTOPROCESS('RVRHJ$I9l1Ih6j1VyLXRZf',#6,$,$,(#198),$,#107,$);
#309=IFCRELASSIGNSTOPROCESS('BJJdb5F7ALfTP3BFT3OHZf',#6,$,$,(#198),$,#109,$);
#310=IFCRELASSIGNSTOPROCESS('2lHby1APp51Txx81wj$JUj',#6,$,$,(#202),$,#113,$);
#311=IFCRELASSIGNSTOPROCESS('xFn5wZu7_fgFhfiFQ3HriX',#6,$,$,(#202),$,#115,$);
#312=IFCRELASSIGNSTOPROCESS('f3vrnBNN0LJvMrEXCZ4LMp',#6,$,$,(#203),$,#117,$);
#313=IFCRELASSIGNSTOPROCESS('rfIxE$wvY7uNn7knKVB1s7',#6,$,$,(#202),$,#119,$);
#314=IFCRELASSIGNSTOPROCESS('ibz9cJEHZXQXQnXV07u1w5',#6,$,$,(#204),$,#121,$);
#315=IFCRELASSIGNSTOPROCESS('h3FpLj_Fenqx7jXVwJvRB3',#6,$,$,(#202),$,#123,$);
#316=IFCRELASSIGNSTOPROCESS('d$V32LS$2T4DKXt$OJ1jMf',#6,$,$,(#199),$,#125,$);
#317=IFCRELASSIGNSTOPROCESS('4jMzABV70hR$O7In8Zj7NT',#6,$,$,(#190),$,#129,$);
#318=IFCRELASSIGNSTOPROCESS('xL2BR$VPl$oBChUFNDbFr7',#6,$,$,(#202),$,#131,$);
#319=IFCRELASSIGNSTOPROCESS('8D$BJzjVPjkLIn5HqZaBWP',#6,$,$,(#205,#198,#199),$,#133,$);
#320=IFCPROPERTYSINGLEVALUE('oh39gxv97tM3h9e1J9Qv3d#0',$,IFCTEXT('4|UNIFORM'),$);
#321=IFCPROPERTYSET('PX3tcJA$mp6$03DHN9QvdL',#6,'OPS_Assignments',$,(#320));
#322=IFCRELDEFINESBYPROPERTIES('0lVLRbjFa1vDOvQlXHHz9J',#6,$,$,(#45),#321);
#323=IFCPROPERTYSINGLEVALUE('oh39gxv97tM3h9e1J9Qv3d#0',$,IFCTEXT('3|UNIFORM'),$);
#324=IFCPROPERTYSET('oLhHJVs1KjibRVJlTZKjgj',#6,'OPS_Assignments',$,(#323));
#325=IFCRELDEFINESBYPROPERTIES('dXrV4Xoldv0FvVf1IXFLYn',#6,$,$,(#49),#324);
#326=IFCPROPERTYSINGLEVALUE('qLjPtzrl7Z4LwXXX6t_lPL#0',$,IFCTEXT('4|UNIFORM'),$);
#327=IFCPROPERTYSET('HNmdhjkl33slRBM$3DcDWv',#6,'OPS_Assignments',$,(#326));
#328=IFCRELDEFINESBYPROPERTIES('gztxAFrlrNkd4TpnZ$zNox',#6,$,$,(#55),#327);
#329=IFCPROPERTYSINGLEVALUE('4lpvxlFPdvWl3vkFWf2r4L#0',$,IFCTEXT('5|UNIFORM'),$);
#330=IFCPROPERTYSINGLEVALUE('lNuXWV5Xfx9R3xiFI3GfoR#1',$,IFCTEXT('35|UNIFORM'),$);
#331=IFCPROPERTYSET('m9q5sLDV1rj7A7EFMlT9W7',#6,'OPS_Assignments',$,(#329,#330));
#332=IFCRELDEFINESBYPROPERTIES('NzvB3rePfbrnv$BlXlnZdP',#6,$,$,(#57),#331);
#333=IFCPROPERTYSINGLEVALUE('oh39gxv97tM3h9e1J9Qv3d#0',$,IFCTEXT('4|UNIFORM'),$);
#334=IFCPROPERTYSET('O5aLXNGfCTkh2vwHXJc7vb',#6,'OPS_Assignments',$,(#333));
#335=IFCRELDEFINESBYPROPERTIES('F7QN8J5VdjQDmxKFghGtOr',#6,$,$,(#59),#334);
#336=IFCPROPERTYSINGLEVALUE('4lpvxlFPdvWl3vkFWf2r4L#0',$,IFCTEXT('5|UNIFORM'),$);
#337=IFCPROPERTYSINGLEVALUE('lNuXWV5Xfx9R3xiFI3GfoR#1',$,IFCTEXT('55|FRONT_LOADED'),$);
#338=IFCPROPERTYSET('WXZNKN$v_TCZLTZFYda3JX',#6,'OPS_Assignments',$,(#336,#337));
#339=IFCRELDEFINESBYPROPERTIES('7LsTalePJLfTvDTFwNs3jV',#6,$,$,(#61),#338);
#340=IFCPROPERTYSINGLEVALUE('4lpvxlFPdvWl3vkFWf2r4L#0',$,IFCTEXT('7|UNIFORM'),$);
#341=IFCPROPERTYSINGLEVALUE('dR8X8Dv9pvjNBDv$oDYL2z#1',$,IFCTEXT('1|UNIFORM'),$);
#342=IFCPROPERTYSINGLEVALUE('lNuXWV5Xfx9R3xiFI3GfoR#2',$,IFCTEXT('40|UNIFORM'),$);
#343=IFCPROPERTYSET('ChBFzLa1Qp0nb1HXhTj7ZN',#6,'OPS_Assignments',$,(#340,#341,#342));
#344=IFCRELDEFINESBYPROPERTIES('bXL1_PpF_toBWJ71VFB1Ih',#6,$,$,(#65),#343);
#345=IFCPROPERTYSINGLEVALUE('4lpvxlFPdvWl3vkFWf2r4L#0',$,IFCTEXT('7|UNIFORM'),$);
#346=IFCPROPERTYSINGLEVALUE('dR8X8Dv9pvjNBDv$oDYL2z#1',$,IFCTEXT('1|UNIFORM'),$);
#347=IFCPROPERTYSINGLEVALUE('lNuXWV5Xfx9R3xiFI3GfoR#2',$,IFCTEXT('45|UNIFORM'),$);
#348=IFCPROPERTYSET('fTbl3v$Pflx1GxClYrJ7nV',#6,'OPS_Assignments',$,(#345,#346,#347));
#349=IFCRELDEFINESBYPROPERTIES('_lvZSj2Fm3OPCrQ1UPixjz',#6,$,$,(#67),#348);
#350=IFCPROPERTYSINGLEVALUE('4lpvxlFPdvWl3vkFWf2r4L#0',$,IFCTEXT('7|UNIFORM'),$);
#351=IFCPROPERTYSINGLEVALUE('dR8X8Dv9pvjNBDv$oDYL2z#1',$,IFCTEXT('1|UNIFORM'),$);
#352=IFCPROPERTYSINGLEVALUE('lNuXWV5Xfx9R3xiFI3GfoR#2',$,IFCTEXT('45|UNIFORM'),$);
#353=IFCPROPERTYSET('UVbHT9JVLdiRZBYX3DQD4P',#6,'OPS_Assignments',$,(#350,#351,#352));
#354=IFCRELDEFINESBYPROPERTIES('xhEby3qFKD0FJJHXzFpPPv',#6,$,$,(#69),#353);
#355=IFCPROPERTYSINGLEVALUE('iduVC5$PfHTPCLwHJfk5nb#0',$,IFCTEXT('6|UNIFORM'),$);
#356=IFCPROPERTYSINGLEVALUE('dR8X8Dv9pvjNBDv$oDYL2z#1',$,IFCTEXT('1|UNIFORM'),$);
#357=IFCPROPERTYSET('wh2BfHGfUP4LkHXVElvbF1',#6,'OPS_Assignments',$,(#355,#356));
#358=IFCRELDEFINESBYPROPERTIES('JfuVKtBHpbbVs5il8L0vXP',#6,$,$,(#71),#357);
#359=IFCPROPERTYSINGLEVALUE('iduVC5$PfHTPCLwHJfk5nb#0',$,IFCTEXT('6|UNIFORM'),$);
#360=IFCPROPERTYSET('tf_BDDF7obzvwX7$FNcD0t',#6,'OPS_Assignments',$,(#359));
#361=IFCRELDEFINESBYPROPERTIES('m9CDhDE97twJ_dkVYPCRRx',#6,$,$,(#73),#360);
#362=IFCPROPERTYSINGLEVALUE('4lpvxlFPdvWl3vkFWf2r4L#0',$,IFCTEXT('6|UNIFORM'),$);
#363=IFCPROPERTYSINGLEVALUE('dR8X8Dv9pvjNBDv$oDYL2z#1',$,IFCTEXT('1|UNIFORM'),$);
#364=IFCPROPERTYSET('HbJ7zrudnZY5xbynnfYLg9',#6,'OPS_Assignments',$,(#362,#363));
#365=IFCRELDEFINESBYPROPERTIES('8DF5ABfNO7D9lzt$yhnhoN',#6,$,$,(#75),#364);
#366=IFCPROPERTYSINGLEVALUE('c$nD7reP3TM39fu$3DIxr7#0',$,IFCTEXT('6|UNIFORM'),$);
#367=IFCPROPERTYSET('eTj7jZXv81sTfbmXGnZNIh',#6,'OPS_Assignments',$,(#366));
#368=IFCRELDEFINESBYPROPERTIES('1Fz9ArtfUdizFjhnHhvDW7',#6,$,$,(#81),#367);
#369=IFCPROPERTYSINGLEVALUE('c$nD7reP3TM39fu$3DIxr7#0',$,IFCTEXT('4|UNIFORM'),$);
#370=IFCPROPERTYSET('id09Q9inEbJfrjLFftoXOz',#6,'OPS_Assignments',$,(#369));
#371=IFCRELDEFINESBYPROPERTIES('JbJvd9Z$kr93vV71LP8nRX',#6,$,$,(#83),#370);
#372=IFCPROPERTYSINGLEVALUE('lb5nBvcvGjcDSdQ$cPelXv#0',$,IFCTEXT('4|UNIFORM'),$);
#373=IFCPROPERTYSET('KRBX4ZO7SBBFPlpHJf2BqZ',#6,'OPS_Assignments',$,(#372));
#374=IFCRELDEFINESBYPROPERTIES('xHrn7vNfcJSJo$P1mFr$kd',#6,$,$,(#85),#373);
#375=IFCPROPERTYSINGLEVALUE('lb5nBvcvGjcDSdQ$cPelXv#0',$,IFCTEXT('3|UNIFORM'),$);
#376=IFCPROPERTYSET('X$PhtzBHxFtRFpHVBpDP9l',#6,'OPS_Assignments',$,(#375));
#377=IFCRELDEFINESBYPROPERTIES('6BU1gVRV1LfTh3lVVDA3ZN',#6,$,$,(#87),#376);
#378=IFCPROPERTYSINGLEVALUE('5HjP$vk9Bf29DZVVaRl3j1#0',$,IFCTEXT('4|UNIFORM'),$);
#379=IFCPROPERTYSET('t9U$_halLjoreXrntTzf2Z',#6,'OPS_Assignments',$,(#378));
#380=IFCRELDEFINESBYPROPERTIES('mNOl5rdtDxlJ2pf$Z3u$kB',#6,$,$,(#93),#379);
#381=IFCPROPERTYSINGLEVALUE('5HjP$vk9Bf29DZVVaRl3j1#0',$,IFCTEXT('3|UNIFORM'),$);
#382=IFCPROPERTYSET('nB$rJzZ1cD8NLTrHpL1xdd',#6,'OPS_Assignments',$,(#381));
#383=IFCRELDEFINESBYPROPERTIES('OZz9UNNNq7mXEhkFKJgfQB',#6,$,$,(#95),#382);
#384=IFCPROPERTYSINGLEVALUE('a$HjBdA$ufb$evIFyr3Nkd#0',$,IFCTEXT('3|UNIFORM'),$);
#385=IFCPROPERTYSET('E7IHtTPt1tVRZLYF5FFLcH',#6,'OPS_Assignments',$,(#384));
#386=IFCRELDEFINESBYPROPERTIES('Bpdz63KVHjaJMLYFJRNLgN',#6,$,$,(#97),#385);
#387=IFCPROPERTYSINGLEVALUE('MvahX9yHPJILMrs$HL7pyv#0',$,IFCTEXT('6|UNIFORM'),$);
#388=IFCPROPERTYSET('fTbH5Lrl5Hz7sRe$LZZtWv',#6,'OPS_Assignments',$,(#387));
#389=IFCRELDEFINESBYPROPERTIES('_H7TaludTVcXUTDn1zeXuj',#6,$,$,(#99),#388);
#390=IFCPROPERTYSINGLEVALUE('MvahX9yHPJILMrs$HL7pyv#0',$,IFCTEXT('6|UNIFORM'),$);
#391=IFCPROPERTYSET('bxCx2rmNyxdreXRna9wd7N',#6,'OPS_Assignments',$,(#390));
#392=IFCRELDEFINESBYPROPERTIES('CNcjxH79rzWHjXP$DPqDaR',#6,$,$,(#101),#391);
#393=IFCPROPERTYSINGLEVALUE('MvahX9yHPJILMrs$HL7pyv#0',$,IFCTEXT('4|UNIFORM'),$);
#394=IFCPROPERTYSET('9jhlZ9hlr38vsPoVCZa39J',#6,'OPS_Assignments',$,(#393));
#395=IFCRELDEFINESBYPROPERTIES('Y$$TKfnPd7OPqnHVTVXbpl',#6,$,$,(#103),#394);
#396=IFCPROPERTYSINGLEVALUE('CBP3IJzlrtsTLTJFRX39OB#0',$,IFCTEXT('3|UNIFORM'),$);
#397=IFCPROPERTYSET('6n1BpDXdnlG1ajrnZTixBP',#6,'OPS_Assignments',$,(#396));
#398=IFCRELDEFINESBYPROPERTIES('VZWNKtbFoHDtTrUVn92HDn',#6,$,$,(#105),#397);
#399=IFCPROPERTYSINGLEVALUE('5HjP$vk9Bf29DZVVaRl3j1#0',$,IFCTEXT('3|UNIFORM'),$);
#400=IFCPROPERTYSET('aTmPJ1MPPvGVsRO1qZ4LAz',#6,'OPS_Assignments',$,(#399));
#401=IFCRELDEFINESBYPROPERTIES('rfgz2LyHtLjv2v_FD7OXCF',#6,$,$,(#107),#400);
#402=IFCPROPERTYSINGLEVALUE('5HjP$vk9Bf29DZVVaRl3j1#0',$,IFCTEXT('4|UNIFORM'),$);
#403=IFCPROPERTYSET('2HdzYRA1GDovU981hv4Zpp',#6,'OPS_Assignments',$,(#402));
#404=IFCRELDEFINESBYPROPERTIES('bbuFNHW95lpt71xlG$R1E9',#6,$,$,(#109),#403);
#405=IFCPROPERTYSINGLEVALUE('OZ5nNluPvNAlFvslKpIxBP#0',$,IFCTEXT('6|UNIFORM'),$);
#406=IFCPROPERTYSET('vLUhlXh1_9U5N5KHyB3Nsd',#6,'OPS_Assignments',$,(#405));
#407=IFCRELDEFINESBYPROPERTIES('k9a3Q9iX$rT9nDlXt7ix3h',#6,$,$,(#113),#406);
#408=IFCPROPERTYSINGLEVALUE('OZ5nNluPvNAlFvslKpIxBP#0',$,IFCTEXT('6|UNIFORM'),$);
#409=IFCPROPERTYSET('4DkH9TFPJN5XELYFXnRn3r',#6,'OPS_Assignments',$,(#408));
#410=IFCRELDEFINESBYPROPERTIES('Lv4Ze3hHBZSjA5qHcThHZN',#6,$,$,(#115),#409);
#411=IFCPROPERTYSINGLEVALUE('b$fRaH87IVDdClZlepztuj#0',$,IFCTEXT('4|UNIFORM'),$);
#412=IFCPROPERTYSET('W1$ZObs$eHGVU3lVDvmtqH',#6,'OPS_Assignments',$,(#411));
#413=IFCRELDEFINESBYPROPERTIES('7rIHRxXPfbptPFFVphNZlr',#6,$,$,(#117),#412);
#414=IFCPROPERTYSINGLEVALUE('OZ5nNluPvNAlFvslKpIxBP#0',$,IFCTEXT('5|UNIFORM'),$);
#415=IFCPROPERTYSET('KRDPhJs1mT4DytilSxhVGX',#6,'OPS_Assignments',$,(#414));
#416=IFCRELDEFINESBYPROPERTIES('xlTNCPDn_fUN7jP1vVhVG$',#6,$,$,(#119),#415);
#417=IFCPROPERTYSINGLEVALUE('sJDvHbxVnH8NnvonYL15Dp#0',$,IFCTEXT('5|UNIFORM'),$);
#418=IFCPROPERTYSET('TXJ79XkHtLBnXbqlEnJ7rz',#6,'OPS_Assignments',$,(#417));
#419=IFCRELDEFINESBYPROPERTIES('4JYLDFaHZ$U55R4lxn15FR',#6,$,$,(#121),#418);
#420=IFCPROPERTYSINGLEVALUE('OZ5nNluPvNAlFvslKpIxBP#0',$,IFCTEXT('3|UNIFORM'),$);
#421=IFCPROPERTYSET('U$7BBvQ7OluvghMlU7OXKp',#6,'OPS_Assignments',$,(#420));
#422=IFCRELDEFINESBYPROPERTIES('5rcfCPRVt$HBWp3na5pdRV',#6,$,$,(#123),#421);
#423=IFCPROPERTYSINGLEVALUE('MvahX9yHPJILMrs$HL7pyv#0',$,IFCTEXT('3|UNIFORM'),$);
#424=IFCPROPERTYSET('YzqxArtNcD87_JRnCZar09',#6,'OPS_Assignments',$,(#423));
#425=IFCRELDEFINESBYPROPERTIES('99MP7rGf_3mV_pd1uheVC3',#6,$,$,(#125),#424);
#426=IFCPROPERTYSINGLEVALUE('oh39gxv97tM3h9e1J9Qv3d#0',$,IFCTEXT('5|UNIFORM'),$);
#427=IFCPROPERTYSET('pdg3g5FvYpQVgfe$t7SB47',#6,'OPS_Assignments',$,(#426));
#428=IFCRELDEFINESBYPROPERTIES('CBlRiL5FCT2bV5mVyhVRdh',#6,$,$,(#129),#427);
#429=IFCPROPERTYSINGLEVALUE('OZ5nNluPvNAlFvslKpIxBP#0',$,IFCTEXT('4|UNIFORM'),$);
#430=IFCPROPERTYSET('EPg3Y5gd$rBn35alZXNTv9',#6,'OPS_Assignments',$,(#429));
#431=IFCRELDEFINESBYPROPERTIES('rJTf0nxnyn9bb1FXrfcDqz',#6,$,$,(#131),#430);
#432=IFCPROPERTYSINGLEVALUE('K57B3LCniJSBWDRlgLWdvf#0',$,IFCTEXT('2|UNIFORM'),$);
#433=IFCPROPERTYSINGLEVALUE('5HjP$vk9Bf29DZVVaRl3j1#1',$,IFCTEXT('2|UNIFORM'),$);
#434=IFCPROPERTYSINGLEVALUE('MvahX9yHPJILMrs$HL7pyv#2',$,IFCTEXT('2|UNIFORM'),$);
#435=IFCPROPERTYSET('1J2B9VwXvNo72dUV3JwdTb',#6,'OPS_Assignments',$,(#432,#433,#434));
#436=IFCRELDEFINESBYPROPERTIES('exqpfj5VX7TdytyldrCbV7',#6,$,$,(#133),#435);
#437=IFCRELASSIGNSTOCONTROL('rDVhNjbXHjyDCF$VkTSruD',#6,$,$,(#43,#45,#47,#49,#51,#53,#55,#57,#59,#61,#63,#65,#67,#69,#71,#73,#75,#77,#79,#81,#83,#85,#87,#89,#91,#93,#95,#97,#99,#101,#103,#105,#107,#109,#111,#113,#115,#117,#119,#121,#123,#125,#127,#129,#131,#133,#135),$,#40);
#438=IFCPROPERTYSINGLEVALUE('InternalProjectId',$,IFCTEXT('proj-mtlszzzx4rnm1833'),$);
#439=IFCPROPERTYSINGLEVALUE('wbsAutoNumber',$,IFCBOOLEAN(.T.),$);
#440=IFCPROPERTYSINGLEVALUE('DefaultTaskDurationUnit',$,IFCLABEL('days'),$);
#441=IFCPROPERTYSINGLEVALUE('ProjectStartDate',$,IFCDATE('2027-03-01'),$);
#442=IFCPROPERTYSINGLEVALUE('ProjectEndDate',$,$,$);
#443=IFCPROPERTYSINGLEVALUE('CreatedAt',$,IFCTEXT('2026-09-03T17:33:16.413Z'),$);
#444=IFCPROPERTYSINGLEVALUE('ModifiedAt',$,IFCTEXT('2026-09-03T17:33:16.415Z'),$);
#445=IFCPROPERTYSET('e5a3ArlP$tNZvpDF1ZK5n5',#6,'OPS_ProjectSettings',$,(#438,#439,#440,#441,#442,#443,#444));
#446=IFCRELDEFINESBYPROPERTIES('0Hdzo1sPJhdjQlBF$1BF9l',#6,$,$,(#13),#445);
#447=IFCPROPERTYSINGLEVALUE('InternalTaskId',$,IFCTEXT('task-mtlt000k5pdk1850'),$);
#448=IFCPROPERTYSET('7hM3UNnPpvJf7D3F4hnLYF',#6,'OPS_TaskIdentity',$,(#447));
#449=IFCRELDEFINESBYPROPERTIES('0Fjdbxd9z3Yf9hoFUhvpaR',#6,$,$,(#43),#448);
#450=IFCPROPERTYSINGLEVALUE('InternalTaskId',$,IFCTEXT('task-mtlt000m5jau1851'),$);
#451=IFCPROPERTYSET('TXDPVfWt$Nb1Ovsl83PJYj',#6,'OPS_TaskIdentity',$,(#450));
#452=IFCRELDEFINESBYPROPERTIES('MzFpB3S$6zgnR1FXZZi5JZ',#6,$,$,(#45),#451);
#453=IFCPROPERTYSINGLEVALUE('InternalTaskId',$,IFCTEXT('task-mtlt000nxize1852'),$);
#454=IFCPROPERTYSET('exqDl$VPJhlri5mVmHtBKV',#6,'OPS_TaskIdentity',$,(#453));
#455=IFCRELDEFINESBYPROPERTIES('V3qxYf1vgRptHTBHLvi5pp',#6,$,$,(#47),#454);
#456=IFCPROPERTYSINGLEVALUE('InternalTaskId',$,IFCTEXT('task-mtlt000opth01853'),$);
#457=IFCPROPERTYSET('AjxVmNmN6ToBGxCHI$hHPr',#6,'OPS_TaskIdentity',$,(#456));
#458=IFCRELDEFINESBYPROPERTIES('lNm7TbQVFlu7M9Kn69AtSR',#6,$,$,(#49),#457);
#459=IFCPROPERTYSINGLEVALUE('InternalTaskId',$,IFCTEXT('task-mtlt000qyzgq1854'),$);
#460=IFCPROPERTYSET('CrlbqxtN89vDOvgHY7u1sZ',#6,'OPS_TaskIdentity',$,(#459));
#461=IFCRELDEFINESBYPROPERTIES('j9S3YNNNGz8v6VVVgh8Fxl',#6,$,$,(#51),#460);
#462=IFCPROPERTYSINGLEVALUE('InternalTaskId',$,IFCTEXT('task-mtlt000rvk7r1855'),$);
#463=IFCPROPERTYSET('pvMdXNOPnHG1uFZFIVfTL9',#6,'OPS_TaskIdentity',$,(#462));
#464=IFCRELDEFINESBYPROPERTIES('6hAZGvcvGpkPe$$VQvi51D',#6,$,$,(#53),#463);
#465=IFCPROPERTYSINGLEVALUE('InternalTaskId',$,IFCTEXT('task-mtlt000t2rel1856'),$);
#466=IFCPROPERTYSET('DLzt6ZWtB9QDqLoF2xztmn',#6,'OPS_TaskIdentity',$,(#465));
#467=IFCRELDEFINESBYPROPERTIES('KPWfSpw76FC5DnHVHLlBa5',#6,$,$,(#55),#466);
#468=IFCPROPERTYSINGLEVALUE('InternalTaskId',$,IFCTEXT('task-mtlt000u5fvi1857'),$);
#469=IFCPROPERTYSET('qr$BdNP9r9g3VbaHT$Dd5l',#6,'OPS_TaskIdentity',$,(#468));
#470=IFCRELDEFINESBYPROPERTIES('jtCDH$d9HXIdyz9$837pm1',#6,$,$,(#57),#469);
#471=IFCPROPERTYSINGLEVALUE('InternalTaskId',$,IFCTEXT('task-mtlt000wxrsb1858'),$);
#472=IFCPROPERTYSET('i7ibCbpFALtzz5qneDr$QB',#6,'OPS_TaskIdentity',$,(#471));
#473=IFCRELDEFINESBYPROPERTIES('RxyT0lX7u$g3z5alf9gfMN',#6,$,$,(#59),#472);
#474=IFCPROPERTYSINGLEVALUE('InternalTaskId',$,IFCTEXT('task-mtlt000xq4i51859'),$);
#475=IFCPROPERTYSET('SZGPJ$otlDOtBv_FbbQ75r',#6,'OPS_TaskIdentity',$,(#474));
#476=IFCRELDEFINESBYPROPERTIES('Z1vB7PxV3ZkLMfu1AV5lJX',#6,$,$,(#61),#475);
#477=IFCPROPERTYSINGLEVALUE('InternalTaskId',$,IFCTEXT('task-mtlt000zznlr1860'),$);
#478=IFCPROPERTYSET('$j_Brd6VJt7p8FjnHvOHpH',#6,'OPS_TaskIdentity',$,(#477));
#479=IFCRELDEFINESBYPROPERTIES('6lxVq7fNQVMnpT1XgLeXSN',#6,$,$,(#63),#478);
#480=IFCPROPERTYSINGLEVALUE('InternalTaskId',$,IFCTEXT('task-mtlt0011upiz1861'),$);
#481=IFCPROPERTYSET('8jR1M$tNKjK3DTf1VnTNEt',#6,'OPS_TaskIdentity',$,(#480));
#482=IFCRELDEFINESBYPROPERTIES('Fhb1wZmNQDm$ChMHwppPDJ',#6,$,$,(#65),#481);
#483=IFCPROPERTYSINGLEVALUE('InternalTaskId',$,IFCTEXT('task-mtlt0013tih91862'),$);
#484=IFCPROPERTYSET('RVBVmPkl73etfdoVu3NZ1D',#6,'OPS_TaskIdentity',$,(#483));
#485=IFCRELDEFINESBYPROPERTIES('i5$TSlW9$t$xBjBnzJMNch',#6,$,$,(#67),#484);
#486=IFCPROPERTYSINGLEVALUE('InternalTaskId',$,IFCTEXT('task-mtlt0014vu9w1863'),$);
#487=IFCPROPERTYSET('UZO$snjVdpMFTrw1KXpdrP',#6,'OPS_TaskIdentity',$,(#486));
#488=IFCRELDEFINESBYPROPERTIES('R11TSJA1ShnLUZDFXpQD09',#6,$,$,(#69),#487);
#489=IFCPROPERTYSINGLEVALUE('InternalTaskId',$,IFCTEXT('task-mtlt00168l641864'),$);
#490=IFCPROPERTYSET('sNULR5Nf_z0nzxal$Z4Z9n',#6,'OPS_TaskIdentity',$,(#489));
#491=IFCRELDEFINESBYPROPERTIES('zp_Xihz$4HTdCrg$Z3elnX',#6,$,$,(#71),#490);
#492=IFCPROPERTYSINGLEVALUE('InternalTaskId',$,IFCTEXT('task-mtlt0018xas61865'),$);
#493=IFCPROPERTYSET('DdYh5hxn0LDdKRCnK$FZL9',#6,'OPS_TaskIdentity',$,(#492));
#494=IFCRELDEFINESBYPROPERTIES('wrwto1gPHJSj_d2XbR2lR5',#6,$,$,(#73),#493);
#495=IFCPROPERTYSINGLEVALUE('InternalTaskId',$,IFCTEXT('task-mtlt001a7m481866'),$);
#496=IFCPROPERTYSET('hZ39w7ItxHLlBjxnk13fUj',#6,'OPS_TaskIdentity',$,(#495));
#497=IFCRELDEFINESBYPROPERTIES('Ev_Xmd6XBZKbnjplbbYFHh',#6,$,$,(#75),#496);
#498=IFCPROPERTYSINGLEVALUE('InternalTaskId',$,IFCTEXT('task-mtlt001cxx2j1867'),$);
#499=IFCPROPERTYSET('KRztYbElfHbV6J$X0darGX',#6,'OPS_TaskIdentity',$,(#498));
#500=IFCRELDEFINESBYPROPERTIES('D7QNWXDFEFvLsv6lLznhYn',#6,$,$,(#77),#499);
#501=IFCPROPERTYSINGLEVALUE('InternalTaskId',$,IFCTEXT('task-mtlt001dpm5k1868'),$);
#502=IFCPROPERTYSET('NzNbuJzHD5XzdlxFMl5XuD',#6,'OPS_TaskIdentity',$,(#501));
#503=IFCRELDEFINESBYPROPERTIES('GPI5o3pX5RRX6V$X8h0vtJ',#6,$,$,(#79),#502);
#504=IFCPROPERTYSINGLEVALUE('InternalTaskId',$,IFCTEXT('task-mtlt001fgkpw1869'),$);
#505=IFCPROPERTYSET('aXztcfW9rNgnPHplpdSBeB',#6,'OPS_TaskIdentity',$,(#504));
#506=IFCRELDEFINESBYPROPERTIES('h3t5QjEllpm$4NGXcZb1QH',#6,$,$,(#81),#505);
#507=IFCPROPERTYSINGLEVALUE('InternalTaskId',$,IFCTEXT('task-mtlt001gngfm1870'),$);
#508=IFCPROPERTYSET('mfGdl11dtVrFlZJn7xgTLf',#6,'OPS_TaskIdentity',$,(#507));
#509=IFCRELDEFINESBYPROPERTIES('fdGdDniVlDedO$91dl5XCF',#6,$,$,(#83),#508);
#510=IFCPROPERTYSINGLEVALUE('InternalTaskId',$,IFCTEXT('task-mtlt001iih6l1871'),$);
#511=IFCPROPERTYSET('OT5FR$nvsr5VghUnJ5hV0t',#6,'OPS_TaskIdentity',$,(#510));
#512=IFCRELDEFINESBYPROPERTIES('HxHjP9rlZpGVgNmXIZSrij',#6,$,$,(#85),#511);
#513=IFCPROPERTYSINGLEVALUE('InternalTaskId',$,IFCTEXT('task-mtlt001k2fgz1872'),$);
#514=IFCPROPERTYSET('ZZO1UftNERrF99qH_5ZNUn',#6,'OPS_TaskIdentity',$,(#513));
#515=IFCRELDEFINESBYPROPERTIES('aXBVGNW9N5X3rd6$S5hVyL',#6,$,$,(#87),#514);
#516=IFCPROPERTYSINGLEVALUE('InternalTaskId',$,IFCTEXT('task-mtlt001mrkgd1873'),$);
#517=IFCPROPERTYSET('nrNJdfnPFzMnfvoF2fA337',#6,'OPS_TaskIdentity',$,(#516));
#518=IFCRELDEFINESBYPROPERTIES('gvqpNpFv6zsl3ds1Pn151D',#6,$,$,(#89),#517);
#519=IFCPROPERTYSINGLEVALUE('InternalTaskId',$,IFCTEXT('task-mtlt001otpz31874'),$);
#520=IFCPROPERTYSET('F7MdLj6X1rhlvp5HqnFLsd',#6,'OPS_TaskIdentity',$,(#519));
#521=IFCRELDEFINESBYPROPERTIES('8h_rhtqF4F9bPl3lIXdJIB',#6,$,$,(#91),#520);
#522=IFCPROPERTYSINGLEVALUE('InternalTaskId',$,IFCTEXT('task-mtlt001qnr6f1875'),$);
#523=IFCPROPERTYSET('DvkH$P6XLDgnXR4FRXRFR1',#6,'OPS_TaskIdentity',$,(#522));
#524=IFCRELDEFINESBYPROPERTIES('wh_r9XYnMd$TdzTlijYnrd',#6,$,$,(#93),#523);
#525=IFCPROPERTYSINGLEVALUE('InternalTaskId',$,IFCTEXT('task-mtlt001rrc9r1876'),$);
#526=IFCPROPERTYSET('rDnxAHlP$NhlTNe1i1VDOz',#6,'OPS_TaskIdentity',$,(#525));
#527=IFCRELDEFINESBYPROPERTIES('k9KbW1HvqPizDT71cva3Hl',#6,$,$,(#95),#526);
#528=IFCPROPERTYSINGLEVALUE('InternalTaskId',$,IFCTEXT('task-mtlt001ttn5e1877'),$);
#529=IFCPROPERTYSET('I5X3AHvt5RD97Xv1Hv0vV7',#6,'OPS_TaskIdentity',$,(#528));
#530=IFCRELDEFINESBYPROPERTIES('BfUL37H7yxFpmrM1Z3u$2T',#6,$,$,(#97),#529);
#531=IFCPROPERTYSINGLEVALUE('InternalTaskId',$,IFCTEXT('task-mtlt001vjak21878'),$);
#532=IFCPROPERTYSET('RXrXOTNNevDt7VXVczPjwX',#6,'OPS_TaskIdentity',$,(#531));
#533=IFCRELDEFINESBYPROPERTIES('Kx1ZaJ_n89VRfdEVa5ZfMJ',#6,$,$,(#99),#532);
#534=IFCPROPERTYSINGLEVALUE('InternalTaskId',$,IFCTEXT('task-mtlt001xf3v61879'),$);
#535=IFCPROPERTYSET('fvaL$7k9tLpd89u$DBxV0N',#6,'OPS_TaskIdentity',$,(#534));
#536=IFCRELDEFINESBYPROPERTIES('YzShB3iVjt$xFPIVkXtzvb',#6,$,$,(#101),#535);
#537=IFCPROPERTYSINGLEVALUE('InternalTaskId',$,IFCTEXT('task-mtlt0020udz91880'),$);
#538=IFCPROPERTYSET('5l5XGt4$0B$xhTTnsVB$oN',#6,'OPS_TaskIdentity',$,(#537));
#539=IFCRELDEFINESBYPROPERTIES('ChxXiNfNa1PJoXZlyLXbDn',#6,$,$,(#103),#538);
#540=IFCPROPERTYSINGLEVALUE('InternalTaskId',$,IFCTEXT('task-mtlt0022pwwx1881'),$);
#541=IFCPROPERTYSET('2lFxgX3HLPCxh3t18h0vf3',#6,'OPS_TaskIdentity',$,(#540));
#542=IFCRELDEFINESBYPROPERTIES('9pF5QpAPb$dJMhAHaRtrqZ',#6,$,$,(#105),#541);
#543=IFCPROPERTYSINGLEVALUE('InternalTaskId',$,IFCTEXT('task-mtlt00244a9g1882'),$);
#544=IFCPROPERTYSET('ObWN0lfN8fT9jJ9$4L7pub',#6,'OPS_TaskIdentity',$,(#543));
#545=IFCRELDEFINESBYPROPERTIES('XTWNapktdpEvQnP1ejl3n$',#6,$,$,(#107),#544);
#546=IFCPROPERTYSINGLEVALUE('InternalTaskId',$,IFCTEXT('task-mtlt0026cf831883'),$);
#547=IFCPROPERTYSET('_JERG9yHPjErOdUVrNYh_V',#6,'OPS_TaskIdentity',$,(#546));
#548=IFCRELDEFINESBYPROPERTIES('5F9pPx_NEH5$uFDn1z8FX3',#6,$,$,(#109),#547);
#549=IFCPROPERTYSINGLEVALUE('InternalTaskId',$,IFCTEXT('task-mtlt0029cq431884'),$);
#550=IFCPROPERTYSET('nvgPHXjnShHr0ZnVXnDPzB',#6,'OPS_TaskIdentity',$,(#549));
#551=IFCRELDEFINESBYPROPERTIES('uL2BFBd9BtoBaj5n2N6JUH',#6,$,$,(#111),#550);
#552=IFCPROPERTYSINGLEVALUE('InternalTaskId',$,IFCTEXT('task-mtlt002a1gvh1885'),$);
#553=IFCPROPERTYSET('Bf_rVpAPf5V3ZL_nT$pPLN',#6,'OPS_TaskIdentity',$,(#552));
#554=IFCRELDEFINESBYPROPERTIES('ypY1kp1PV5f5L3v$lvunZb',#6,$,$,(#113),#553);
#555=IFCPROPERTYSINGLEVALUE('InternalTaskId',$,IFCTEXT('task-mtlt002ciejv1886'),$);
#556=IFCPROPERTYSET('uB2XKtDXNHZdad6$qlxV0f',#6,'OPS_TaskIdentity',$,(#555));
#557=IFCRELDEFINESBYPROPERTIES('1JULZtRnwT_bPHLntPmNgN',#6,$,$,(#115),#556);
#558=IFCPROPERTYSINGLEVALUE('InternalTaskId',$,IFCTEXT('task-mtlt002faxwh1887'),$);
#559=IFCPROPERTYSET('a3qpNJh1MbBntfWVbbwdpD',#6,'OPS_TaskIdentity',$,(#558));
#560=IFCRELDEFINESBYPROPERTIES('ZV5FTxQ7Oddr8l1VuLOV0f',#6,$,$,(#117),#559);
#561=IFCPROPERTYSINGLEVALUE('InternalTaskId',$,IFCTEXT('task-mtlt002hckk41888'),$);
#562=IFCPROPERTYSET('OZZNuh4$W5$ZT9yFFtwPb1',#6,'OPS_TaskIdentity',$,(#561));
#563=IFCRELDEFINESBYPROPERTIES('H5fRCPbXvfgFDZHXv$7bR5',#6,$,$,(#119),#562);
#564=IFCPROPERTYSINGLEVALUE('InternalTaskId',$,IFCTEXT('task-mtlt002j6uou1889'),$);
#565=IFCPROPERTYSET('XzyZKhRFERJNVFDFznTN21',#6,'OPS_TaskIdentity',$,(#564));
#566=IFCRELDEFINESBYPROPERTIES('Q1V3_hCFynHjwjVX6JtreZ',#6,$,$,(#121),#565);
#567=IFCPROPERTYSINGLEVALUE('InternalTaskId',$,IFCTEXT('task-mtlt002loeuk1890'),$);
#568=IFCPROPERTYSET('Yzib8jpFsLFLY3VVolH3j1',#6,'OPS_TaskIdentity',$,(#567));
#569=IFCRELDEFINESBYPROPERTIES('RX3toVoHv9EB0Tt$f9YFf1',#6,$,$,(#123),#568);
#570=IFCPROPERTYSINGLEVALUE('InternalTaskId',$,IFCTEXT('task-mtlt002nrrqv1891'),$);
#571=IFCPROPERTYSET('c5SLLJwVbBHrKVd1xLWP3h',#6,'OPS_TaskIdentity',$,(#570));
#572=IFCRELDEFINESBYPROPERTIES('VXJv13KXxx$ZTt4FdBqbfT',#6,$,$,(#125),#571);
#573=IFCPROPERTYSINGLEVALUE('InternalTaskId',$,IFCTEXT('task-mtlt002q3vl81892'),$);
#574=IFCPROPERTYSET('O3NRuBOdPJsT5RSHjNoRX7',#6,'OPS_TaskIdentity',$,(#573));
#575=IFCRELDEFINESBYPROPERTIES('HbTNSluv23Od0ZlVRxI57t',#6,$,$,(#127),#574);
#576=IFCPROPERTYSINGLEVALUE('InternalTaskId',$,IFCTEXT('task-mtlt002snb321893'),$);
#577=IFCPROPERTYSET('lbTNmdIldDo7s5yFZ3OlXv',#6,'OPS_TaskIdentity',$,(#576));
#578=IFCRELDEFINESBYPROPERTIES('s9Y1w7gd$rrFNdoXWtYnTx',#6,$,$,(#129),#577);
#579=IFCPROPERTYSINGLEVALUE('InternalTaskId',$,IFCTEXT('task-mtlt002udr121894'),$);
#580=IFCPROPERTYSET('IbTNiN79HpGXIbanT1R$23',#6,'OPS_TaskIdentity',$,(#579));
#581=IFCRELDEFINESBYPROPERTIES('B9w9cDYNmjcpGBYV$XNZr7',#6,$,$,(#131),#580);
#582=IFCPROPERTYSINGLEVALUE('InternalTaskId',$,IFCTEXT('task-mtlt002waga41895'),$);
#583=IFCPROPERTYSET('5L2B13CVX7zvwJnXB96Pxn',#6,'OPS_TaskIdentity',$,(#582));
#584=IFCRELDEFINESBYPROPERTIES('_nrnlR3H7zmX_PA1dn7DK$',#6,$,$,(#133),#583);
#585=IFCPROPERTYSINGLEVALUE('InternalTaskId',$,IFCTEXT('task-mtlt002ydn4m1896'),$);
#586=IFCPROPERTYSET('8jxVir79NlJNxxmX_t_lXP',#6,'OPS_TaskIdentity',$,(#585));
#587=IFCRELDEFINESBYPROPERTIES('Fh5XmvEtljqZ37AHWf_rGH',#6,$,$,(#135),#586);
#588=IFCPROPERTYSINGLEVALUE('MilestoneKind',$,IFCLABEL('START'),$);
#589=IFCPROPERTYSET('3pU$URIl9LzNLzP1HrR$Ul',#6,'OPS_Milestone',$,(#588));
#590=IFCRELDEFINESBYPROPERTIES('gvijpjJFqzsHdzpHfNk55F',#6,$,$,(#51),#589);
#591=IFCPROPERTYSINGLEVALUE('MilestoneKind',$,IFCLABEL('FINISH'),$);
#592=IFCPROPERTYSET('TT8Vaj6XHDG1qF$Xwj7bhj',#6,'OPS_Milestone',$,(#591));
#593=IFCRELDEFINESBYPROPERTIES('sNcJXjYngRhHNxqHgL07NT',#6,$,$,(#77),#592);
#594=IFCPROPERTYSINGLEVALUE('MilestoneKind',$,IFCLABEL('FINISH'),$);
#595=IFCPROPERTYSET('0HfJbVbX55Xztt4H3DoRJ$',#6,'OPS_Milestone',$,(#594));
#596=IFCRELDEFINESBYPROPERTIES('PxSzYf7t9XxVEhMl2NobFV',#6,$,$,(#89),#595);
#597=IFCPROPERTYSINGLEVALUE('MilestoneKind',$,IFCLABEL('FINISH'),$);
#598=IFCPROPERTYSINGLEVALUE('Mandatory',$,IFCBOOLEAN(.T.),$);
#599=IFCPROPERTYSET('7hM3kDn7sL7pGhMl_toX0N',#6,'OPS_Milestone',$,(#597,#598));
#600=IFCRELDEFINESBYPROPERTIES('kfuFT5AdnHe9Zrg$rfMZL9',#6,$,$,(#135),#599);
ENDSEC;
END-ISO-10303-21;
