ISO-10303-21;
HEADER;
FILE_DESCRIPTION(('ViewDefinition [SchedulingView]'),'2;1');
FILE_NAME('Agriport A7 Data Centre.ifc','2026-09-11T17:47:46',('Vincent Kok'),('Digital Infrastructure BV'),'Open Planner Studio 0.1','Open Planner Studio','');
FILE_SCHEMA(('IFC4X3'));
ENDSEC;
DATA;
#1=IFCPERSON($,'Vincent Kok',$,$,$,$,$,$);
#2=IFCORGANIZATION($,'Digital Infrastructure BV',$,$,$);
#3=IFCPERSONANDORGANIZATION(#1,#2,$);
#4=IFCORGANIZATION($,'OpenAEC Foundation',$,$,$);
#5=IFCAPPLICATION(#4,'0.1','Open Planner Studio','OPS');
#6=IFCOWNERHISTORY(#3,#5,$,.NOCHANGE.,$,$,$,1789148866);
#7=IFCSIUNIT(*,.LENGTHUNIT.,$,.METRE.);
#8=IFCSIUNIT(*,.TIMEUNIT.,$,.SECOND.);
#9=IFCUNITASSIGNMENT((#7,#8));
#10=IFCCARTESIANPOINT((0.,0.,0.));
#11=IFCAXIS2PLACEMENT3D(#10,$,$);
#12=IFCGEOMETRICREPRESENTATIONCONTEXT($,'Plan',3,1.0E-05,#11,$);
#13=IFCPROJECT('l9SL7rWtTjqTpnN193XR$f',#6,'Agriport A7 Data Centre','5,000 m2 data centre with its own power supply',$,$,$,(#12),#9);
#14=IFCTIMEPERIOD('07:00:00','16:00:00');
#15=IFCRECURRENCEPATTERN(.WEEKLY.,$,(1,2,3,4,5),$,$,$,$,(#14));
#16=IFCWORKTIME('Standard work week',.PREDICTED.,$,#15,$,$);
#17=IFCWORKTIME('New Year''s Day',.PREDICTED.,$,$,'2027-01-01','2027-01-01');
#18=IFCWORKTIME('Good Friday',.PREDICTED.,$,$,'2027-03-26','2027-03-26');
#19=IFCWORKTIME('Easter',.PREDICTED.,$,$,'2027-03-28','2027-03-29');
#20=IFCWORKTIME('King''s Day',.PREDICTED.,$,$,'2027-04-27','2027-04-27');
#21=IFCWORKTIME('Liberation Day',.PREDICTED.,$,$,'2027-05-05','2027-05-05');
#22=IFCWORKTIME('Ascension Day',.PREDICTED.,$,$,'2027-05-06','2027-05-06');
#23=IFCWORKTIME('Whitsun',.PREDICTED.,$,$,'2027-05-16','2027-05-17');
#24=IFCWORKTIME('Christmas',.PREDICTED.,$,$,'2027-12-25','2027-12-26');
#25=IFCWORKTIME('Construction holiday (northern region)',.PREDICTED.,$,$,'2027-07-26','2027-08-15');
#26=IFCWORKTIME('New Year''s Day',.PREDICTED.,$,$,'2028-01-01','2028-01-01');
#27=IFCWORKTIME('Good Friday',.PREDICTED.,$,$,'2028-04-14','2028-04-14');
#28=IFCWORKTIME('Easter',.PREDICTED.,$,$,'2028-04-16','2028-04-17');
#29=IFCWORKTIME('King''s Day',.PREDICTED.,$,$,'2028-04-27','2028-04-27');
#30=IFCWORKTIME('Liberation Day',.PREDICTED.,$,$,'2028-05-05','2028-05-05');
#31=IFCWORKTIME('Ascension Day',.PREDICTED.,$,$,'2028-05-25','2028-05-25');
#32=IFCWORKTIME('Whitsun',.PREDICTED.,$,$,'2028-06-04','2028-06-05');
#33=IFCWORKTIME('Christmas',.PREDICTED.,$,$,'2028-12-25','2028-12-26');
#34=IFCWORKTIME('Construction holiday (northern region)',.PREDICTED.,$,$,'2028-07-24','2028-08-13');
#35=IFCWORKCALENDAR('_HlbW$VPl1Yxnv_nBDbFBd',#6,'Construction calendar NL','Standard construction calendar: Mon-Fri 07:00-16:00',$,(#16),(#17,#18,#19,#20,#21,#22,#23,#24,#25,#26,#27,#28,#29,#30,#31,#32,#33,#34),.FIRSTSHIFT.);
#36=IFCPROPERTYSINGLEVALUE('HoursPerDay',$,IFCREAL(8),$);
#37=IFCPROPERTYSET('qL5XmPUFgdlJ6X9$WtAtOZ',#6,'OPS_Calendar',$,(#36));
#38=IFCRELDEFINESBYPROPERTIES('bXh12hy$qvOdOP_VbbYntl',#6,$,$,(#35),#37);
#39=IFCWORKPLAN('vlLHxBNNKfgFtfu1gryZZ5',#6,'Agriport A7 Data Centre','5,000 m2 data centre with its own power supply',$,$,'2026-09-11T17:47:46',$,$,$,$,$,'2027-03-01T07:00:00','2027-03-16T07:00:00',.PLANNED.);
#40=IFCWORKSCHEDULE('MTRHBZu7MdHJEVRFyPelF$',#6,'Construction schedule v1.0',$,$,$,'2026-09-11T17:47:46',$,$,$,$,$,'2027-03-01T07:00:00','2027-03-16T07:00:00',.PLANNED.);
#41=IFCRELAGGREGATES('X$Ph9TPtbVDd8te$ftI1sz',#6,$,$,#39,(#40));
#42=IFCTASKTIME('1. Preparation Time',.PREDICTED.,$,.WORKTIME.,'P0Y0M5D','2027-03-01T07:00:00','2027-03-05T07:00:00','2027-03-01T07:00:00','2027-04-01T07:00:00','2027-03-01T07:00:00','2027-10-15T07:00:00','P0Y0M0D','P0Y0M0D',.T.,$,$,$,$,$,0.00);
#43=IFCTASK('iPO$IniXF3_9ZBc1on39Cl',#6,'1. Preparation',$,$,'1',$,$,$,.F.,$,#42,.CONSTRUCTION.);
#44=IFCTASKTIME('Prepare site for construction Time',.PREDICTED.,$,.WORKTIME.,'P0Y0M8D','2027-03-01T07:00:00','2027-03-10T07:00:00','2027-03-01T07:00:00','2027-03-10T07:00:00','2027-03-01T07:00:00','2027-03-10T07:00:00','P0Y0M0D','P0Y0M0D',.T.,$,$,$,$,$,0.00);
#45=IFCTASK('VVDdR5PtxHz7cZnV9znhgp',#6,'Prepare site for construction',$,$,'1.1',$,$,$,.F.,$,#44,.CONSTRUCTION.);
#46=IFCTASKTIME('10 kV utility connections Time',.PREDICTED.,$,.WORKTIME.,'P0Y0M10D','2027-03-01T07:00:00','2027-03-12T07:00:00','2027-03-11T07:00:00','2027-03-24T07:00:00','2027-09-28T07:00:00','2027-10-11T07:00:00','P0Y0M0D','P0Y0M122D',.F.,$,$,$,$,$,0.00);
#47=IFCTASK('T3yTOZHddJsZDn7$YvWPzL',#6,'10 kV utility connections',$,$,'1.2',$,$,$,.F.,$,#46,.INSTALLATION.);
#48=IFCTASKTIME('Temporary security fencing Time',.PREDICTED.,$,.WORKTIME.,'P0Y0M3D','2027-03-01T07:00:00','2027-03-03T07:00:00','2027-03-25T07:00:00','2027-03-31T07:00:00','2027-10-12T07:00:00','2027-10-14T07:00:00','P0Y0M0D','P0Y0M122D',.F.,$,$,$,$,$,0.00);
#49=IFCTASK('s92X0ldtdDgFJjlVlhlBa5',#6,'Temporary security fencing',$,$,'1.3',$,$,$,.F.,$,#48,.INSTALLATION.);
#50=IFCTASKTIME('Start of construction Time',.PREDICTED.,$,.WORKTIME.,'P0Y0M0D','2027-03-01T07:00:00','2027-03-01T07:00:00','2027-04-01T07:00:00','2027-04-01T07:00:00','2027-10-15T07:00:00','2027-10-15T07:00:00','P0Y0M122D','P0Y0M122D',.F.,$,$,$,$,$,0.00);
#51=IFCTASK('xhAZqdh$YvWlxxe$uTb1gD',#6,'Start of construction',$,$,'1.4',$,$,$,.T.,$,#50,.CONSTRUCTION.);
#52=IFCTASKTIME('2. Foundations Time',.PREDICTED.,$,.WORKTIME.,'P0Y0M5D','2027-03-01T07:00:00','2027-03-05T07:00:00','2027-03-16T07:00:00','2027-04-30T07:00:00','2027-03-16T07:00:00','2027-10-15T07:00:00','P0Y0M0D','P0Y0M0D',.T.,$,$,$,$,$,0.00);
#53=IFCTASK('0HPzo$gdvtQDyTZFgFdJQl',#6,'2. Foundations',$,$,'2',$,$,$,.F.,$,#52,.CONSTRUCTION.);
#54=IFCTASKTIME('Pile driving, foundation piles Time',.PREDICTED.,$,.WORKTIME.,'P0Y0M10D','2027-03-01T07:00:00','2027-03-12T07:00:00','2027-03-16T07:00:00','2027-03-31T07:00:00','2027-03-16T07:00:00','2027-03-31T07:00:00','P0Y0M0D','P0Y0M0D',.T.,$,$,$,$,$,0.00);
#55=IFCTASK('FLJdvhKVzFK3PlhnDdqD8D',#6,'Pile driving, foundation piles',$,$,'2.1',$,$,$,.F.,$,#54,.CONSTRUCTION.);
#56=IFCTASKTIME('Foundation beams Time',.PREDICTED.,$,.WORKTIME.,'P0Y0M8D','2027-03-01T07:00:00','2027-03-10T07:00:00','2027-04-01T07:00:00','2027-04-12T07:00:00','2027-09-17T07:00:00','2027-09-28T07:00:00','P0Y0M0D','P0Y0M102D',.F.,$,$,$,$,$,0.00);
#57=IFCTASK('j5fbCRzHhPaJUTDFBpr1cL',#6,'Foundation beams',$,$,'2.2',$,$,$,.F.,$,#56,.CONSTRUCTION.);
#58=IFCTASKTIME('Pour slab on piles Time',.PREDICTED.,$,.WORKTIME.,'P0Y0M8D','2027-03-01T07:00:00','2027-03-10T07:00:00','2027-04-13T07:00:00','2027-04-22T07:00:00','2027-09-29T07:00:00','2027-10-08T07:00:00','P0Y0M0D','P0Y0M102D',.F.,$,$,$,$,$,0.00);
#59=IFCTASK('j5Xzcpk9V7zvM9yF9T3fgJ',#6,'Pour slab on piles',$,$,'2.3',$,$,$,.F.,$,#58,.CONSTRUCTION.);
#60=IFCTASKTIME('Cable trays in floor Time',.PREDICTED.,$,.WORKTIME.,'P0Y0M5D','2027-03-01T07:00:00','2027-03-05T07:00:00','2027-04-23T07:00:00','2027-04-30T07:00:00','2027-10-11T07:00:00','2027-10-15T07:00:00','P0Y0M102D','P0Y0M102D',.F.,$,$,$,$,$,0.00);
#61=IFCTASK('cVbH7LKXJ97DiX1Xyd07JX',#6,'Cable trays in floor',$,$,'2.4',$,$,$,.F.,$,#60,.INSTALLATION.);
#62=IFCTASKTIME('3. Structure Time',.PREDICTED.,$,.WORKTIME.,'P0Y0M5D','2027-03-01T07:00:00','2027-03-05T07:00:00','2027-03-22T07:00:00','2027-05-20T07:00:00','2027-03-22T07:00:00','2027-10-15T07:00:00','P0Y0M0D','P0Y0M0D',.T.,$,$,$,$,$,0.00);
#63=IFCTASK('mPsZeZ$7UJIhMNe1WfMTh9',#6,'3. Structure',$,$,'3',$,$,$,.F.,$,#62,.CONSTRUCTION.);
#64=IFCTASKTIME('Precast concrete walls Time',.PREDICTED.,$,.WORKTIME.,'P0Y0M12D','2027-03-01T07:00:00','2027-03-16T07:00:00','2027-03-22T07:00:00','2027-04-08T07:00:00','2027-03-22T07:00:00','2027-04-08T07:00:00','P0Y0M0D','P0Y0M0D',.T.,$,$,$,$,$,0.00);
#65=IFCTASK('fvSh17otlpWHTtinoDA39J',#6,'Precast concrete walls',$,$,'3.1',$,$,$,.F.,$,#64,.CONSTRUCTION.);
#66=IFCTASKTIME('Structural steel, roof Time',.PREDICTED.,$,.WORKTIME.,'P0Y0M8D','2027-03-01T07:00:00','2027-03-10T07:00:00','2027-04-09T07:00:00','2027-04-20T07:00:00','2027-04-09T07:00:00','2027-04-20T07:00:00','P0Y0M0D','P0Y0M0D',.T.,$,$,$,$,$,0.00);
#67=IFCTASK('6HR$UbQVHVo7cl5nwjXDeB',#6,'Structural steel, roof',$,$,'3.2',$,$,$,.F.,$,#66,.CONSTRUCTION.);
#68=IFCTASKTIME('Sandwich roof panels Time',.PREDICTED.,$,.WORKTIME.,'P0Y0M8D','2027-03-01T07:00:00','2027-03-10T07:00:00','2027-04-21T07:00:00','2027-05-03T07:00:00','2027-04-21T07:00:00','2027-05-03T07:00:00','P0Y0M0D','P0Y0M0D',.T.,$,$,$,$,$,0.00);
#69=IFCTASK('7hER8L4$0hR1OdA1xrCblH',#6,'Sandwich roof panels',$,$,'3.3',$,$,$,.F.,$,#68,.INSTALLATION.);
#70=IFCTASKTIME('Raised computer floor Time',.PREDICTED.,$,.WORKTIME.,'P0Y0M10D','2027-03-01T07:00:00','2027-03-12T07:00:00','2027-05-04T07:00:00','2027-05-20T07:00:00','2027-05-04T07:00:00','2027-05-20T07:00:00','P0Y0M0D','P0Y0M0D',.T.,$,$,$,$,$,0.00);
#71=IFCTASK('rJ5XyZmN6lO9fdM$1$rnpp',#6,'Raised computer floor',$,$,'3.4',$,$,$,.F.,$,#70,.INSTALLATION.);
#72=IFCTASKTIME('Topping out Time',.PREDICTED.,$,.WORKTIME.,'P0Y0M0D','2027-03-01T07:00:00','2027-03-01T07:00:00','2027-05-20T07:00:00','2027-05-20T07:00:00','2027-10-15T07:00:00','2027-10-15T07:00:00','P0Y0M91D','P0Y0M91D',.F.,$,$,$,$,$,0.00);
#73=IFCTASK('aXz9gVJnifw1O1XXWtA9KD',#6,'Topping out',$,$,'3.5',$,$,$,.T.,$,#72,.CONSTRUCTION.);
#74=IFCTASKTIME('4. Facade & weathertight Time',.PREDICTED.,$,.WORKTIME.,'P0Y0M5D','2027-03-01T07:00:00','2027-03-05T07:00:00','2027-05-10T07:00:00','2027-06-07T07:00:00','2027-05-10T07:00:00','2027-10-15T07:00:00','P0Y0M0D','P0Y0M0D',.T.,$,$,$,$,$,0.00);
#75=IFCTASK('_jkxo1APLv8NBJxFcdOlTN',#6,'4. Facade & weathertight',$,$,'4',$,$,$,.F.,$,#74,.CONSTRUCTION.);
#76=IFCTASKTIME('Facade insulation and cladding Time',.PREDICTED.,$,.WORKTIME.,'P0Y0M10D','2027-03-01T07:00:00','2027-03-12T07:00:00','2027-05-10T07:00:00','2027-05-24T07:00:00','2027-05-10T07:00:00','2027-05-24T07:00:00','P0Y0M0D','P0Y0M0D',.T.,$,$,$,$,$,0.00);
#77=IFCTASK('7LsTW$dtTjSBiXlXPnXbVd',#6,'Facade insulation and cladding',$,$,'4.1',$,$,$,.F.,$,#76,.INSTALLATION.);
#78=IFCTASKTIME('Loading docks and doors Time',.PREDICTED.,$,.WORKTIME.,'P0Y0M5D','2027-03-01T07:00:00','2027-03-05T07:00:00','2027-05-25T07:00:00','2027-05-31T07:00:00','2027-05-25T07:00:00','2027-05-31T07:00:00','P0Y0M0D','P0Y0M0D',.T.,$,$,$,$,$,0.00);
#79=IFCTASK('b5ibuBW95lx1O7EnsX3tab',#6,'Loading docks and doors',$,$,'4.2',$,$,$,.F.,$,#78,.INSTALLATION.);
#80=IFCTASKTIME('Roof waterproofing Time',.PREDICTED.,$,.WORKTIME.,'P0Y0M5D','2027-03-01T07:00:00','2027-03-05T07:00:00','2027-06-01T07:00:00','2027-06-07T07:00:00','2027-06-01T07:00:00','2027-06-07T07:00:00','P0Y0M0D','P0Y0M0D',.T.,$,$,$,$,$,0.00);
#81=IFCTASK('NZZNmN8vg7JNLzlXdFHrml',#6,'Roof waterproofing',$,$,'4.3',$,$,$,.F.,$,#80,.CONSTRUCTION.);
#82=IFCTASKTIME('Wind and weathertight Time',.PREDICTED.,$,.WORKTIME.,'P0Y0M0D','2027-03-01T07:00:00','2027-03-01T07:00:00','2027-06-07T07:00:00','2027-06-07T07:00:00','2027-10-15T07:00:00','2027-10-15T07:00:00','P0Y0M79D','P0Y0M79D',.F.,$,$,$,$,$,0.00);
#83=IFCTASK('BjjPpniV9$7DK$DFJ9gfYn',#6,'Wind and weathertight',$,$,'4.4',$,$,$,.T.,$,#82,.CONSTRUCTION.);
#84=IFCTASKTIME('5. Power & cooling Time',.PREDICTED.,$,.WORKTIME.,'P0Y0M5D','2027-03-01T07:00:00','2027-03-05T07:00:00','2027-06-08T07:00:00','2027-09-22T07:00:00','2027-06-08T07:00:00','2027-10-15T07:00:00','P0Y0M0D','P0Y0M0D',.T.,$,$,$,$,$,0.00);
#85=IFCTASK('3jATiNHPZD0FlTrlT3071N',#6,'5. Power & cooling',$,$,'5',$,$,$,.F.,$,#84,.INSTALLATION.);
#86=IFCTASKTIME('10 kV transformers Time',.PREDICTED.,$,.WORKTIME.,'P0Y0M8D','2027-03-01T07:00:00','2027-03-10T07:00:00','2027-06-08T07:00:00','2027-06-17T07:00:00','2027-06-08T07:00:00','2027-06-17T07:00:00','P0Y0M0D','P0Y0M0D',.T.,$,$,$,$,$,0.00);
#87=IFCTASK('B9QfGPg1wz61aDv1oFzt4v',#6,'10 kV transformers',$,$,'5.1',$,$,$,.F.,$,#86,.INSTALLATION.);
#88=IFCTASKTIME('UPS systems Time',.PREDICTED.,$,.WORKTIME.,'P0Y0M10D','2027-03-01T07:00:00','2027-03-12T07:00:00','2027-06-18T07:00:00','2027-07-01T07:00:00','2027-07-13T07:00:00','2027-08-16T07:00:00','P0Y0M0D','P0Y0M17D',.F.,$,$,$,$,$,0.00);
#89=IFCTASK('HR5nlRr$KtATTfu1LvCRb5',#6,'UPS systems',$,$,'5.2',$,$,$,.F.,$,#88,.INSTALLATION.);
#90=IFCTASKTIME('Emergency generators Time',.PREDICTED.,$,.WORKTIME.,'P0Y0M8D','2027-03-01T07:00:00','2027-03-10T07:00:00','2027-07-02T07:00:00','2027-07-13T07:00:00','2027-08-17T07:00:00','2027-08-26T07:00:00','P0Y0M0D','P0Y0M17D',.F.,$,$,$,$,$,0.00);
#91=IFCTASK('jxNbKBfNeFqZfxqnCTiJMJ',#6,'Emergency generators',$,$,'5.3',$,$,$,.F.,$,#90,.INSTALLATION.);
#92=IFCTASKTIME('Main distribution and PDUs Time',.PREDICTED.,$,.WORKTIME.,'P0Y0M10D','2027-03-01T07:00:00','2027-03-12T07:00:00','2027-07-14T07:00:00','2027-08-17T07:00:00','2027-08-27T07:00:00','2027-09-09T07:00:00','P0Y0M0D','P0Y0M17D',.F.,$,$,$,$,$,0.00);
#93=IFCTASK('vFNJB7w763sH7jlXpPKjwX',#6,'Main distribution and PDUs',$,$,'5.4',$,$,$,.F.,$,#92,.INSTALLATION.);
#94=IFCTASKTIME('Chillers Time',.PREDICTED.,$,.WORKTIME.,'P0Y0M10D','2027-03-01T07:00:00','2027-03-12T07:00:00','2027-08-18T07:00:00','2027-08-31T07:00:00','2027-09-10T07:00:00','2027-09-23T07:00:00','P0Y0M0D','P0Y0M17D',.F.,$,$,$,$,$,0.00);
#95=IFCTASK('8j3toX_FC7edqFXXSxjv5L',#6,'Chillers',$,$,'5.5',$,$,$,.F.,$,#94,.INSTALLATION.);
#96=IFCTASKTIME('CRAH units, data halls Time',.PREDICTED.,$,.WORKTIME.,'P0Y0M8D','2027-03-01T07:00:00','2027-03-10T07:00:00','2027-09-01T07:00:00','2027-09-10T07:00:00','2027-09-24T07:00:00','2027-10-05T07:00:00','P0Y0M0D','P0Y0M17D',.F.,$,$,$,$,$,0.00);
#97=IFCTASK('Ht4TeT1vIXrnFjTlej7b$9',#6,'CRAH units, data halls',$,$,'5.6',$,$,$,.F.,$,#96,.INSTALLATION.);
#98=IFCTASKTIME('External cooling towers Time',.PREDICTED.,$,.WORKTIME.,'P0Y0M8D','2027-03-01T07:00:00','2027-03-10T07:00:00','2027-09-13T07:00:00','2027-09-22T07:00:00','2027-10-06T07:00:00','2027-10-15T07:00:00','P0Y0M17D','P0Y0M17D',.F.,$,$,$,$,$,0.00);
#99=IFCTASK('kxHj7Pr1ynf5lfyndrar4P',#6,'External cooling towers',$,$,'5.7',$,$,$,.F.,$,#98,.INSTALLATION.);
#100=IFCTASKTIME('6. ICT & security Time',.PREDICTED.,$,.WORKTIME.,'P0Y0M5D','2027-03-01T07:00:00','2027-03-05T07:00:00','2027-07-21T07:00:00','2027-09-24T07:00:00','2027-07-21T07:00:00','2027-09-24T07:00:00','P0Y0M0D','P0Y0M0D',.T.,$,$,$,$,$,0.00);
#101=IFCTASK('vnHbCbTHD7jfHt0VH7mNgf',#6,'6. ICT & security',$,$,'6',$,$,$,.F.,$,#100,.INSTALLATION.);
#102=IFCTASKTIME('Incoming fibre optics Time',.PREDICTED.,$,.WORKTIME.,'P0Y0M5D','2027-03-01T07:00:00','2027-03-05T07:00:00','2027-07-21T07:00:00','2027-08-17T07:00:00','2027-07-21T07:00:00','2027-08-17T07:00:00','P0Y0M0D','P0Y0M0D',.T.,$,$,$,$,$,0.00);
#103=IFCTASK('FvMdBTuPzHm$qlRnSRXDS5',#6,'Incoming fibre optics',$,$,'6.1',$,$,$,.F.,$,#102,.INSTALLATION.);
#104=IFCTASKTIME('Patch panels and cabling Time',.PREDICTED.,$,.WORKTIME.,'P0Y0M8D','2027-03-01T07:00:00','2027-03-10T07:00:00','2027-08-18T07:00:00','2027-08-27T07:00:00','2027-08-18T07:00:00','2027-08-27T07:00:00','P0Y0M0D','P0Y0M0D',.T.,$,$,$,$,$,0.00);
#105=IFCTASK('JfmPFH9NQjKzfP61K1vbb5',#6,'Patch panels and cabling',$,$,'6.2',$,$,$,.F.,$,#104,.INSTALLATION.);
#106=IFCTASKTIME('Gas fire suppression system Time',.PREDICTED.,$,.WORKTIME.,'P0Y0M5D','2027-03-01T07:00:00','2027-03-05T07:00:00','2027-08-30T07:00:00','2027-09-03T07:00:00','2027-08-30T07:00:00','2027-09-03T07:00:00','P0Y0M0D','P0Y0M0D',.T.,$,$,$,$,$,0.00);
#107=IFCTASK('l9qp5LT$6niRXban1T4hoN',#6,'Gas fire suppression system',$,$,'6.3',$,$,$,.F.,$,#106,.INSTALLATION.);
#108=IFCTASKTIME('Biometric access control Time',.PREDICTED.,$,.WORKTIME.,'P0Y0M5D','2027-03-01T07:00:00','2027-03-05T07:00:00','2027-09-06T07:00:00','2027-09-10T07:00:00','2027-09-06T07:00:00','2027-09-10T07:00:00','P0Y0M0D','P0Y0M0D',.T.,$,$,$,$,$,0.00);
#109=IFCTASK('$pA7XD_N_ZSra7YndB4hox',#6,'Biometric access control',$,$,'6.4',$,$,$,.F.,$,#108,.INSTALLATION.);
#110=IFCTASKTIME('CCTV system Time',.PREDICTED.,$,.WORKTIME.,'P0Y0M5D','2027-03-01T07:00:00','2027-03-05T07:00:00','2027-09-13T07:00:00','2027-09-17T07:00:00','2027-09-13T07:00:00','2027-09-17T07:00:00','P0Y0M0D','P0Y0M0D',.T.,$,$,$,$,$,0.00);
#111=IFCTASK('8jR16Pg$UjATpHTH47KjQF',#6,'CCTV system',$,$,'6.5',$,$,$,.F.,$,#110,.INSTALLATION.);
#112=IFCTASKTIME('BMS monitoring Time',.PREDICTED.,$,.WORKTIME.,'P0Y0M5D','2027-03-01T07:00:00','2027-03-05T07:00:00','2027-09-20T07:00:00','2027-09-24T07:00:00','2027-09-20T07:00:00','2027-09-24T07:00:00','P0Y0M0D','P0Y0M0D',.T.,$,$,$,$,$,0.00);
#113=IFCTASK('E7IHNJpn_3OtpzRFCTqbbx',#6,'BMS monitoring',$,$,'6.6',$,$,$,.F.,$,#112,.INSTALLATION.);
#114=IFCTASKTIME('7. Handover Time',.PREDICTED.,$,.WORKTIME.,'P0Y0M5D','2027-03-01T07:00:00','2027-03-05T07:00:00','2027-09-27T07:00:00','2027-10-15T07:00:00','2027-09-27T07:00:00','2027-10-15T07:00:00','P0Y0M0D','P0Y0M0D',.T.,$,$,$,$,$,0.00);
#115=IFCTASK('qtklpFKF2z8fZ9qn8TxVC3',#6,'7. Handover',$,$,'7',$,$,$,.F.,$,#114,.CONSTRUCTION.);
#116=IFCTASKTIME('Test failover scenario Time',.PREDICTED.,$,.WORKTIME.,'P0Y0M5D','2027-03-01T07:00:00','2027-03-05T07:00:00','2027-09-27T07:00:00','2027-10-01T07:00:00','2027-09-27T07:00:00','2027-10-01T07:00:00','P0Y0M0D','P0Y0M0D',.T.,$,$,$,$,$,0.00);
#117=IFCTASK('c54BFLpVj915pFXXepzt0f',#6,'Test failover scenario',$,$,'7.1',$,$,$,.F.,$,#116,.ATTENDANCE.);
#118=IFCTASKTIME('Site finishing Time',.PREDICTED.,$,.WORKTIME.,'P0Y0M5D','2027-03-01T07:00:00','2027-03-05T07:00:00','2027-10-04T07:00:00','2027-10-08T07:00:00','2027-10-04T07:00:00','2027-10-08T07:00:00','P0Y0M0D','P0Y0M0D',.T.,$,$,$,$,$,0.00);
#119=IFCTASK('sJhlBTmNCzIPWjVXgnvpuj',#6,'Site finishing',$,$,'7.2',$,$,$,.F.,$,#118,.CONSTRUCTION.);
#120=IFCTASKTIME('Tier III certification Time',.PREDICTED.,$,.WORKTIME.,'P0Y0M5D','2027-03-01T07:00:00','2027-03-05T07:00:00','2027-10-11T07:00:00','2027-10-15T07:00:00','2027-10-11T07:00:00','2027-10-15T07:00:00','P0Y0M0D','P0Y0M0D',.T.,$,$,$,$,$,0.00);
#121=IFCTASK('E7IHLJYn_fsHVnTF_fs3dr',#6,'Tier III certification',$,$,'7.3',$,$,$,.F.,$,#120,.ATTENDANCE.);
#122=IFCTASKTIME('Handover Time',.PREDICTED.,$,.WORKTIME.,'P0Y0M0D','2027-03-01T07:00:00','2027-03-01T07:00:00','2027-10-15T07:00:00','2027-10-15T07:00:00','2027-10-15T07:00:00','2027-10-15T07:00:00','P0Y0M0D','P0Y0M0D',.T.,$,$,$,$,$,0.00);
#123=IFCTASK('BNULDl0tflbXAdA1jNobHn',#6,'Handover',$,$,'7.4',$,$,$,.T.,$,#122,.CONSTRUCTION.);
#124=IFCRELNESTS('pB1BzrmfCz_9BvongHR$YJ',#6,'WBS 1. Preparation',$,#43,( #45,#47,#49,#51));
#125=IFCRELNESTS('7LYh3vffkBtz$BYVPraryh',#6,'WBS 2. Foundations',$,#53,( #55,#57,#59,#61));
#126=IFCRELNESTS('fZRH5LLHPv8vohoFYhfZFR',#6,'WBS 3. Structure',$,#63,( #65,#67,#69,#71,#73));
#127=IFCRELNESTS('9fgz6vIt33w$O1t1TX1xPP',#6,'WBS 4. Facade & weathertight',$,#75,( #77,#79,#81,#83));
#128=IFCRELNESTS('sf2rLta1ALFLQ3zlMLGfcr',#6,'WBS 5. Power & cooling',$,#85,( #87,#89,#91,#93,#95,#97,#99));
#129=IFCRELNESTS('0FR$cjElnzw$KV1XuBK5Vz',#6,'WBS 6. ICT & security',$,#101,( #103,#105,#107,#109,#111,#113));
#130=IFCRELNESTS('Jxt5wP_nC3slpnXV4rDd5H',#6,'WBS 7. Handover',$,#115,( #117,#119,#121,#123));
#131=IFCRELNESTS('tjjP5r1vgdnD4TBHzDgTrv',#6,'WBS Hoofd',$,#40,(#43,#53,#63,#75,#85,#101,#115));
#132=IFCRELSEQUENCE('k94BJZ$v6Fq5JV7$HveVmX',#6,$,$,#45,#47,$,.FINISH_START.,$);
#133=IFCRELSEQUENCE('G7sv9XcV$frFHTDnzltryr',#6,$,$,#47,#49,$,.FINISH_START.,$);
#134=IFCRELSEQUENCE('yHp75njXzTM3pTv$wJNLwV',#6,$,$,#49,#51,$,.FINISH_START.,$);
#135=IFCRELSEQUENCE('h3FpfpfNQJKRNdw1aR1JAd',#6,$,$,#55,#57,$,.FINISH_START.,$);
#136=IFCRELSEQUENCE('W1ljHbL1QVQX6jHXfNI5lL',#6,$,$,#57,#59,$,.FINISH_START.,$);
#137=IFCRELSEQUENCE('R$Vz_LS1oHTP4Nu$69EXqn',#6,$,$,#59,#61,$,.FINISH_START.,$);
#138=IFCRELSEQUENCE('Q5yBFhJXxFdByfmVW9EXuJ',#6,$,$,#65,#67,$,.FINISH_START.,$);
#139=IFCRELSEQUENCE('7BMdtZffCP4D8tO1iX5HVv',#6,$,$,#67,#69,$,.FINISH_START.,$);
#140=IFCRELSEQUENCE('zFp7J3DVB3GXw$BlLdG94r',#6,$,$,#69,#71,$,.FINISH_START.,$);
#141=IFCRELSEQUENCE('odg3snBlXdnp4TjnF92HLp',#6,$,$,#71,#73,$,.FINISH_START.,$);
#142=IFCRELSEQUENCE('ZXztYx6vcVIPWDRl2RnZZb',#6,$,$,#77,#79,$,.FINISH_START.,$);
#143=IFCRELSEQUENCE('tNk5AFhHJfZtxF5lC38$6x',#6,$,$,#79,#81,$,.FINISH_START.,$);
#144=IFCRELSEQUENCE('cbWfSlePZJSjQZ1XIZi5zr',#6,$,$,#81,#83,$,.FINISH_START.,$);
#145=IFCRELSEQUENCE('2nhl9zT$I$fT3dA$zn5HNZ',#6,$,$,#87,#89,$,.FINISH_START.,$);
#146=IFCRELSEQUENCE('9f2BVp6vMvJf$$FXBfYLA3',#6,$,$,#89,#91,$,.FINISH_START.,$);
#147=IFCRELSEQUENCE('vlBndthl5bp9xHv$TZqRzP',#6,$,$,#91,#93,$,.FINISH_START.,$);
#148=IFCRELSEQUENCE('R1PLJV2FqP4LgtClYL93NZ',#6,$,$,#93,#95,$,.FINISH_START.,$);
#149=IFCRELSEQUENCE('Q5ibqPRVFZIhEXpHzlVp4L',#6,$,$,#95,#97,$,.FINISH_START.,$);
#150=IFCRELSEQUENCE('$n39wdElRBFL6JnVTTyLcB',#6,$,$,#97,#99,$,.FINISH_START.,$);
#151=IFCRELSEQUENCE('JfGvlbjn8Xw1y3$VS539yP',#6,$,$,#103,#105,$,.FINISH_START.,$);
#152=IFCRELSEQUENCE('4Dw9M1Ptr9EBqh2nxheVSx',#6,$,$,#105,#107,$,.FINISH_START.,$);
#153=IFCRELSEQUENCE('QxSLND79znyLgtiH831xf1',#6,$,$,#107,#109,$,.FINISH_START.,$);
#154=IFCRELSEQUENCE('m72VORUF23Othtu$_NYL21',#6,$,$,#109,#111,$,.FINISH_START.,$);
#155=IFCRELSEQUENCE('ApNjdfnd9XT9FDXXKXj7JX',#6,$,$,#111,#113,$,.FINISH_START.,$);
#156=IFCRELSEQUENCE('ZVrXqdjnybLHL3HX$3untH',#6,$,$,#117,#119,$,.FINISH_START.,$);
#157=IFCRELSEQUENCE('lf8XCRJFybTPe1lXRbgfgD',#6,$,$,#119,#121,$,.FINISH_START.,$);
#158=IFCRELSEQUENCE('aV3tE$Q7W5PBmLonUh15HL',#6,$,$,#121,#123,$,.FINISH_START.,$);
#159=IFCLAGTIME('Lag',.PREDICTED.,$,IFCDURATION('P11D'),.WORKTIME.);
#160=IFCRELSEQUENCE('7Bon91k9NRTPul91CZqRzv',#6,$,$,#45,#55,#159,.START_START.,$);
#161=IFCLAGTIME('Lag',.PREDICTED.,$,IFCRATIOMEASURE(0.4),.WORKTIME.);
#162=IFCRELSEQUENCE('AptpXfuPlpG1ufynLPWdjZ',#6,$,$,#55,#65,#161,.START_START.,$);
#163=IFCLAGTIME('Lag',.PREDICTED.,$,IFCDURATION('-P8D'),.WORKTIME.);
#164=IFCRELSEQUENCE('n7onDjJFeHmV613FCFFLw5',#6,$,$,#71,#77,#163,.FINISH_START.,$);
#165=IFCLAGTIME('Lag',.PREDICTED.,$,IFCDURATION('P2D'),.WORKTIME.);
#166=IFCRELSEQUENCE('6LsZSDMPZXUfbhMHAxMZ1J',#6,$,$,#71,#81,#165,.FINISH_FINISH.,$);
#167=IFCRELSEQUENCE('5hYL93JVr9MzdnXViDwJEN',#6,$,$,#81,#87,$,.FINISH_START.,$);
#168=IFCLAGTIME('Lag',.PREDICTED.,$,IFCDURATION('P31D'),.WORKTIME.);
#169=IFCRELSEQUENCE('ErF5AhhHXbrnl31V4rb1kr',#6,$,$,#87,#103,#168,.START_START.,$);
#170=IFCRELSEQUENCE('TX5FnLhlddCTth2FlLNTRX',#6,$,$,#113,#117,$,.FINISH_START.,$);
#171=IFCLABORRESOURCE('VTuX0Fz1C3E7wXFVn9wP$j',#6,'Electricians','Power distribution from the 10 kV connection down to the PDUs — the dominant discipline here',$,$,$,$,.USERDEFINED.);
#172=IFCLABORRESOURCE('b5Cp172N2twjAxKH4BxVy7',#6,'Mechanical fitters',$,$,$,$,$,.USERDEFINED.);
#173=IFCLABORRESOURCE('stIlFlnPBzWlZN8$A5Uhch',#6,'ICT cabling technicians',$,$,$,$,$,.USERDEFINED.);
#174=IFCLABORRESOURCE('T$fRqd5XhvWHvJN1wtk$o9',#6,'Commissioning engineer','Integral testing of the failover scenario and the Tier III certification',$,$,$,$,.USERDEFINED.);
#175=IFCLABORRESOURCE('h7Cxo3rlRXT9XRqHc3nhgN',#6,'Structural crew','Shell and core; secondary on this project',$,$,$,$,.USERDEFINED.);
#176=IFCCONSTRUCTIONEQUIPMENTRESOURCE('rjz9ALBHL7ePe7oF2tI$Un',#6,'Mobile crane',$,$,$,$,$,.USERDEFINED.);
#177=IFCSUBCONTRACTRESOURCE('qtIll$H7q70npZHXlLXRj1',#6,'UPS and generator supplier',$,$,$,$,$,.USERDEFINED.);
#178=IFCSUBCONTRACTRESOURCE('tpd32PZH7tU5l9WXtPGte3',#6,'Cooling contractor',$,$,$,$,$,.USERDEFINED.);
#179=IFCSUBCONTRACTRESOURCE('k9q5gR3HdpcV6X9$uBCpqn',#6,'Fire suppression contractor',$,$,$,$,$,.USERDEFINED.);
#180=IFCPROPERTYSINGLEVALUE('MaxUnits',$,IFCREAL(12),$);
#181=IFCPROPERTYSINGLEVALUE('CostPerHour',$,IFCMONETARYMEASURE(49),$);
#182=IFCPROPERTYSINGLEVALUE('Color',$,IFCTEXT('#1E293B'),$);
#183=IFCPROPERTYSET('rjR1AhT1_NQXgNGXWfIxDp',#6,'OPS_Resource',$,(#180,#181,#182));
#184=IFCRELDEFINESBYPROPERTIES('SV5n1TevylJfRL_FrJvbzP',#6,$,$,(#171),#183);
#185=IFCPROPERTYSINGLEVALUE('MaxUnits',$,IFCREAL(8),$);
#186=IFCPROPERTYSINGLEVALUE('CostPerHour',$,IFCMONETARYMEASURE(48),$);
#187=IFCPROPERTYSINGLEVALUE('Color',$,IFCTEXT('#B91C1C'),$);
#188=IFCPROPERTYSET('7nNJTRwVRhrFXxO1DdyTTR',#6,'OPS_Resource',$,(#185,#186,#187));
#189=IFCRELDEFINESBYPROPERTIES('W1fbSF41mDw14tSH3lH319',#6,$,$,(#172),#188);
#190=IFCPROPERTYSINGLEVALUE('MaxUnits',$,IFCREAL(6),$);
#191=IFCPROPERTYSINGLEVALUE('CostPerHour',$,IFCMONETARYMEASURE(47),$);
#192=IFCPROPERTYSINGLEVALUE('Color',$,IFCTEXT('#DB2777'),$);
#193=IFCPROPERTYSET('U$lJJZPtX7bXkF5lW9gNUl',#6,'OPS_Resource',$,(#190,#191,#192));
#194=IFCRELDEFINESBYPROPERTIES('5L6pTtLlJ9Vb$hMHI15Vup',#6,$,$,(#173),#193);
#195=IFCPROPERTYSINGLEVALUE('MaxUnits',$,IFCREAL(2),$);
#196=IFCPROPERTYSINGLEVALUE('CostPerHour',$,IFCMONETARYMEASURE(85),$);
#197=IFCPROPERTYSINGLEVALUE('Color',$,IFCTEXT('#C2410C'),$);
#198=IFCPROPERTYSET('FLTNuJB1yxPryfWXRxQpql',#6,'OPS_Resource',$,(#195,#196,#197));
#199=IFCRELDEFINESBYPROPERTIES('eTDdDHWtLdCx$Vrnl7WPVz',#6,$,$,(#174),#198);
#200=IFCPROPERTYSINGLEVALUE('MaxUnits',$,IFCREAL(8),$);
#201=IFCPROPERTYSINGLEVALUE('CostPerHour',$,IFCMONETARYMEASURE(45),$);
#202=IFCPROPERTYSINGLEVALUE('Color',$,IFCTEXT('#6366F1'),$);
#203=IFCPROPERTYSET('$HlbitpXDvhl9hEF_9Ynh9',#6,'OPS_Resource',$,(#200,#201,#202));
#204=IFCRELDEFINESBYPROPERTIES('cxyrvPjF4HD9R$VVqHjvRb',#6,$,$,(#175),#203);
#205=IFCPROPERTYSINGLEVALUE('CostPerHour',$,IFCMONETARYMEASURE(95),$);
#206=IFCPROPERTYSINGLEVALUE('Color',$,IFCTEXT('#0D9488'),$);
#207=IFCPROPERTYSET('tNM3QNmNa$vpyZLlj96dDj',#6,'OPS_Resource',$,(#205,#206));
#208=IFCRELDEFINESBYPROPERTIES('GNmd1PUnk$HB4fe$0v8Fjz',#6,$,$,(#176),#207);
#209=IFCPROPERTYSINGLEVALUE('MaxUnits',$,IFCREAL(4),$);
#210=IFCPROPERTYSINGLEVALUE('CostPerHour',$,IFCMONETARYMEASURE(95),$);
#211=IFCPROPERTYSINGLEVALUE('Color',$,IFCTEXT('#D97706'),$);
#212=IFCPROPERTYSET('W$ljTRA18tHBeV3HQZZtqH',#6,'OPS_Resource',$,(#209,#210,#211));
#213=IFCRELDEFINESBYPROPERTIES('7LobqPpF_tY5z7Alu3HriV',#6,$,$,(#177),#212);
#214=IFCPROPERTYSINGLEVALUE('MaxUnits',$,IFCREAL(6),$);
#215=IFCPROPERTYSINGLEVALUE('CostPerHour',$,IFCMONETARYMEASURE(72),$);
#216=IFCPROPERTYSINGLEVALUE('Color',$,IFCTEXT('#A78BFA'),$);
#217=IFCPROPERTYSET('rt_V4TW9HXQVAxKHats90t',#6,'OPS_Resource',$,(#214,#215,#216));
#218=IFCRELDEFINESBYPROPERTIES('ErNJZ5It1tvDiXt1axRnv9',#6,$,$,(#178),#217);
#219=IFCPROPERTYSINGLEVALUE('MaxUnits',$,IFCREAL(3),$);
#220=IFCPROPERTYSINGLEVALUE('CostPerHour',$,IFCMONETARYMEASURE(78),$);
#221=IFCPROPERTYSINGLEVALUE('Color',$,IFCTEXT('#38BDF8'),$);
#222=IFCPROPERTYSET('_jMzg$Hv4lJNHNCFuL8FVT',#6,'OPS_Resource',$,(#219,#220,#221));
#223=IFCRELDEFINESBYPROPERTIES('fv4BZxAdZpWH5baF$T4T1j',#6,$,$,(#179),#222);
#224=IFCRELASSIGNSTOPROCESS('pLztURYnAtvDadg$PL8$23',#6,$,$,(#171),$,#47,$);
#225=IFCRELASSIGNSTOPROCESS('Z3qpvBevijKzNPYVl7mt0t',#6,$,$,(#175),$,#57,$);
#226=IFCRELASSIGNSTOPROCESS('Z3ibW$795x1TrJbFafYhId',#6,$,$,(#175),$,#59,$);
#227=IFCRELASSIGNSTOPROCESS('gvyBJZ17sL7pWJ1VODRnP7',#6,$,$,(#171),$,#61,$);
#228=IFCRELASSIGNSTOPROCESS('vH39Qj2nGZSjIH7$t3vpyv',#6,$,$,(#176,#175),$,#65,$);
#229=IFCRELASSIGNSTOPROCESS('sfg3oTndljCZVFhHhZzfcH',#6,$,$,(#176,#175),$,#67,$);
#230=IFCRELASSIGNSTOPROCESS('N3HjnBtNYP4DiRalvVTfUp',#6,$,$,(#175),$,#69,$);
#231=IFCRELASSIGNSTOPROCESS('xrwtIDd9dp_9xHt$WNEbBz',#6,$,$,(#172),$,#71,$);
#232=IFCRELASSIGNSTOPROCESS('f3t5Yb2n4lhHzPw$e5I59H',#6,$,$,(#175),$,#77,$);
#233=IFCRELASSIGNSTOPROCESS('RXblT9rl7ZajQZ1V_bd5nR',#6,$,$,(#171),$,#87,$);
#234=IFCRELASSIGNSTOPROCESS('XZmP3dJn8X295Fbl2xTNwb',#6,$,$,(#177,#171),$,#89,$);
#235=IFCRELASSIGNSTOPROCESS('T3CpPRQXFFaJE1P$C3unN1',#6,$,$,(#177,#172),$,#91,$);
#236=IFCRELASSIGNSTOPROCESS('tfYL17sdRV3NL3t$0v0v3P',#6,$,$,(#171),$,#93,$);
#237=IFCRELASSIGNSTOPROCESS('uLULpnin29M3h9u$wt_H$t',#6,$,$,(#178,#172),$,#95,$);
#238=IFCRELASSIGNSTOPROCESS('1n392LKVnZ_RJDBHFNgTvN',#6,$,$,(#178,#172),$,#97,$);
#239=IFCRELASSIGNSTOPROCESS('UZ8VWVh1oHhHLzN1_f2rub',#6,$,$,(#178),$,#99,$);
#240=IFCRELASSIGNSTOPROCESS('VVL$Ezz$C7G$e$P$afgTJZ',#6,$,$,(#173),$,#103,$);
#241=IFCRELASSIGNSTOPROCESS('zHdzcjs$mJQpWp3nSts9qH',#6,$,$,(#173),$,#105,$);
#242=IFCRELASSIGNSTOPROCESS('$nDvzB0t3FyLgrc1Ejc7hp',#6,$,$,(#179),$,#107,$);
#243=IFCRELASSIGNSTOPROCESS('HbTNCxH7KJaJ_JzHEl$JIh',#6,$,$,(#173),$,#109,$);
#244=IFCRELASSIGNSTOPROCESS('uLcJdfP9$9nLcFXXipQDm1',#6,$,$,(#173),$,#111,$);
#245=IFCRELASSIGNSTOPROCESS('YXL$YtJVl1cDmbu1MFNTBP',#6,$,$,(#173,#171),$,#113,$);
#246=IFCRELASSIGNSTOPROCESS('sjTfqRB1S17p4zv$Zz8$cB',#6,$,$,(#174,#171),$,#117,$);
#247=IFCRELASSIGNSTOPROCESS('UXh1cNedPDkPap1Vcz93f3',#6,$,$,(#174),$,#121,$);
#248=IFCPROPERTYSINGLEVALUE('VTuX0Fz1C3E7wXFVn9wP$j#0',$,IFCTEXT('4|UNIFORM'),$);
#249=IFCPROPERTYSET('yF$Bxl9NUdq5rD1XcTJv3v',#6,'OPS_Assignments',$,(#248));
#250=IFCRELDEFINESBYPROPERTIES('TZ8VyTu7MvLlFdoXqnHr0t',#6,$,$,(#47),#249);
#251=IFCPROPERTYSINGLEVALUE('h7Cxo3rlRXT9XRqHc3nhgN#0',$,IFCTEXT('4|UNIFORM'),$);
#252=IFCPROPERTYSET('iPmvL9yH33IPe1XVipob9j',#6,'OPS_Assignments',$,(#251));
#253=IFCRELDEFINESBYPROPERTIES('jbTNmtKX1rhlN5Kn_NgT$j',#6,$,$,(#57),#252);
#254=IFCPROPERTYSINGLEVALUE('h7Cxo3rlRXT9XRqHc3nhgN#0',$,IFCTEXT('4|UNIFORM'),$);
#255=IFCPROPERTYSET('iPelxh31Wxf5119$9delRR',#6,'OPS_Assignments',$,(#254));
#256=IFCRELDEFINESBYPROPERTIES('jbL$sFDXDdN5XF5H831x3L',#6,$,$,(#59),#255);
#257=IFCPROPERTYSINGLEVALUE('VTuX0Fz1C3E7wXFVn9wP$j#0',$,IFCTEXT('4|UNIFORM'),$);
#258=IFCPROPERTYSET('phb$g5$dLJIhEBoV4rLlBZ',#6,'OPS_Assignments',$,(#257));
#259=IFCRELDEFINESBYPROPERTIES('c$npz7ff_3GVQF9$JNMZVZ',#6,$,$,(#61),#258);
#260=IFCPROPERTYSINGLEVALUE('rjz9ALBHL7ePe7oF2tI$Un#0',$,IFCTEXT('1|UNIFORM'),$);
#261=IFCPROPERTYSINGLEVALUE('h7Cxo3rlRXT9XRqHc3nhgN#1',$,IFCTEXT('4|UNIFORM'),$);
#262=IFCPROPERTYSET('_jI52hyl7TCxVnbHMndjsv',#6,'OPS_Assignments',$,(#260,#261));
#263=IFCRELDEFINESBYPROPERTIES('Nd8X8Be7enSJQ33HwJ9ryr',#6,$,$,(#65),#262);
#264=IFCPROPERTYSINGLEVALUE('rjz9ALBHL7ePe7oF2tI$Un#0',$,IFCTEXT('1|UNIFORM'),$);
#265=IFCPROPERTYSINGLEVALUE('h7Cxo3rlRXT9XRqHc3nhgN#1',$,IFCTEXT('4|UNIFORM'),$);
#266=IFCPROPERTYSET('Jb5FxlX78NZtTLUFNJtBK$',#6,'OPS_Assignments',$,(#264,#265));
#267=IFCRELDEFINESBYPROPERTIES('wFPz6ZmNCv0F$r_Xp7uFpD',#6,$,$,(#67),#266);
#268=IFCPROPERTYSINGLEVALUE('h7Cxo3rlRXT9XRqHc3nhgN#0',$,IFCTEXT('4|UNIFORM'),$);
#269=IFCPROPERTYSET('W$PLhp67_9kLcnXVSfI5zr',#6,'OPS_Assignments',$,(#268));
#270=IFCRELDEFINESBYPROPERTIES('vrwt_dh1Q$U5jXXVQzNZJ3',#6,$,$,(#69),#269);
#271=IFCPROPERTYSINGLEVALUE('b5Cp172N2twjAxKH4BxVy7#0',$,IFCTEXT('4|UNIFORM'),$);
#272=IFCPROPERTYSET('o7EF5nz1qZwJUfSlrppPpD',#6,'OPS_Assignments',$,(#271));
#273=IFCRELDEFINESBYPROPERTIES('rp7TO3T$ArxXohgHghWPV3',#6,$,$,(#71),#272);
#274=IFCPROPERTYSINGLEVALUE('h7Cxo3rlRXT9XRqHc3nhgN#0',$,IFCTEXT('4|UNIFORM'),$);
#275=IFCPROPERTYSET('W1HjzLyHb1nLoXJljRdx9l',#6,'OPS_Assignments',$,(#274));
#276=IFCRELDEFINESBYPROPERTIES('7r2XyT8PtX3NtBM$5lLln1',#6,$,$,(#77),#275);
#277=IFCPROPERTYSINGLEVALUE('VTuX0Fz1C3E7wXFVn9wP$j#0',$,IFCTEXT('6|UNIFORM'),$);
#278=IFCPROPERTYSET('SZmPTtDVvtIhgBYXTzmfYD',#6,'OPS_Assignments',$,(#277));
#279=IFCRELDEFINESBYPROPERTIES('rNMzIjr$8XQXUfKnwJnTTb',#6,$,$,(#87),#278);
#280=IFCPROPERTYSINGLEVALUE('qtIll$H7q70npZHXlLXRj1#0',$,IFCTEXT('4|UNIFORM'),$);
#281=IFCPROPERTYSINGLEVALUE('VTuX0Fz1C3E7wXFVn9wP$j#1',$,IFCTEXT('4|UNIFORM'),$);
#282=IFCPROPERTYSET('M7Sz6zKnM7JNfR0XR19rOZ',#6,'OPS_Assignments',$,(#280,#281));
#283=IFCRELDEFINESBYPROPERTIES('l5HJrv6vIXR1qlZHijA9qZ',#6,$,$,(#89),#282);
#284=IFCPROPERTYSINGLEVALUE('qtIll$H7q70npZHXlLXRj1#0',$,IFCTEXT('4|UNIFORM'),$);
#285=IFCPROPERTYSINGLEVALUE('b5Cp172N2twjAxKH4BxVy7#1',$,IFCTEXT('4|UNIFORM'),$);
#286=IFCPROPERTYSET('idm7BvgdDvbVMBw$GH7RNT',#6,'OPS_Assignments',$,(#284,#285));
#287=IFCRELDEFINESBYPROPERTIES('JbTNm7UN4brFTBc$wjP5Vz',#6,$,$,(#91),#286);
#288=IFCPROPERTYSINGLEVALUE('VTuX0Fz1C3E7wXFVn9wP$j#0',$,IFCTEXT('8|UNIFORM'),$);
#289=IFCPROPERTYSET('kRTNqPpFshNZj$xHuBK5XT',#6,'OPS_Assignments',$,(#288));
#290=IFCRELDEFINESBYPROPERTIES('vlD77vlvWbhHh37$Xl9rm1',#6,$,$,(#93),#289);
#291=IFCPROPERTYSINGLEVALUE('tpd32PZH7tU5l9WXtPGte3#0',$,IFCTEXT('6|UNIFORM'),$);
#292=IFCPROPERTYSINGLEVALUE('b5Cp172N2twjAxKH4BxVy7#1',$,IFCTEXT('4|UNIFORM'),$);
#293=IFCPROPERTYSET('HbL$E$ktRVpPm5CFm1Ddxl',#6,'OPS_Assignments',$,(#291,#292));
#294=IFCRELDEFINESBYPROPERTIES('uptpJ$gPrZSjQTVVuznLcr',#6,$,$,(#95),#293);
#295=IFCPROPERTYSINGLEVALUE('tpd32PZH7tU5l9WXtPGte3#0',$,IFCTEXT('4|UNIFORM'),$);
#296=IFCPROPERTYSINGLEVALUE('b5Cp172N2twjAxKH4BxVy7#1',$,IFCTEXT('4|UNIFORM'),$);
#297=IFCPROPERTYSET('8L_BFBFP3FKRZL6H1ZyTvf',#6,'OPS_Assignments',$,(#295,#296));
#298=IFCRELDEFINESBYPROPERTIES('lN8VaDo9vf29fv_n$307$9',#6,$,$,(#97),#297);
#299=IFCPROPERTYSINGLEVALUE('tpd32PZH7tU5l9WXtPGte3#0',$,IFCTEXT('4|UNIFORM'),$);
#300=IFCPROPERTYSET('hvC563CVXvTdqLQHPh07bR',#6,'OPS_Assignments',$,(#299));
#301=IFCRELDEFINESBYPROPERTIES('IbJ7RXr$mj6JQ3zlEJMfMD',#6,$,$,(#99),#300);
#302=IFCPROPERTYSINGLEVALUE('stIlFlnPBzWlZN8$A5Uhch#0',$,IFCTEXT('4|UNIFORM'),$);
#303=IFCPROPERTYSET('OR0tsB9NQ1IhM9SF7VB$cF',#6,'OPS_Assignments',$,(#302));
#304=IFCRELDEFINESBYPROPERTIES('nPsT4Zud7NQXoBc$oHXDq3',#6,$,$,(#103),#303);
#305=IFCPROPERTYSINGLEVALUE('stIlFlnPBzWlZN8$A5Uhch#0',$,IFCTEXT('6|UNIFORM'),$);
#306=IFCPROPERTYSET('6Bw9kp$dhjAZ55O$FRFTvt',#6,'OPS_Assignments',$,(#305));
#307=IFCRELDEFINESBYPROPERTIES('JtSLzdjF4bhlz7MHgFNTb1',#6,$,$,(#105),#306);
#308=IFCPROPERTYSINGLEVALUE('k9q5gR3HdpcV6X9$uBCpqn#0',$,IFCTEXT('3|UNIFORM'),$);
#309=IFCPROPERTYSET('uLEbKhxnO7LlXH91mFTfcB',#6,'OPS_Assignments',$,(#308));
#310=IFCRELDEFINESBYPROPERTIES('HNellVjFq3w$8H7$fDLX4P',#6,$,$,(#107),#309);
#311=IFCPROPERTYSINGLEVALUE('stIlFlnPBzWlZN8$A5Uhch#0',$,IFCTEXT('3|UNIFORM'),$);
#312=IFCPROPERTYSET('QVbHFnz1CzE7ghQlfDTNQH',#6,'OPS_Assignments',$,(#311));
#313=IFCRELDEFINESBYPROPERTIES('$J_rj3hlvt2RdlLnJfcpux',#6,$,$,(#109),#312);
#314=IFCPROPERTYSINGLEVALUE('stIlFlnPBzWlZN8$A5Uhch#0',$,IFCTEXT('3|UNIFORM'),$);
#315=IFCPROPERTYSET('HbjvLfOvCdibBPg$Vll3FV',#6,'OPS_Assignments',$,(#314));
#316=IFCRELDEFINESBYPROPERTIES('upF5UNfNqzgFLt0VdhOVWv',#6,$,$,(#111),#315);
#317=IFCPROPERTYSINGLEVALUE('stIlFlnPBzWlZN8$A5Uhch#0',$,IFCTEXT('2|UNIFORM'),$);
#318=IFCPROPERTYSINGLEVALUE('VTuX0Fz1C3E7wXFVn9wP$j#1',$,IFCTEXT('2|UNIFORM'),$);
#319=IFCPROPERTYSET('PxCxU5AdL7m14z7$7bwPV3',#6,'OPS_Assignments',$,(#317,#318));
#320=IFCRELDEFINESBYPROPERTIES('EdsZGP6XJtt3XRaFbxcDqF',#6,$,$,(#113),#319);
#321=IFCPROPERTYSINGLEVALUE('T$fRqd5XhvWHvJN1wtk$o9#0',$,IFCTEXT('2|UNIFORM'),$);
#322=IFCPROPERTYSINGLEVALUE('VTuX0Fz1C3E7wXFVn9wP$j#1',$,IFCTEXT('2|UNIFORM'),$);
#323=IFCPROPERTYSET('$l9ptZffWbbXcHDlffMTXz',#6,'OPS_Assignments',$,(#321,#322));
#324=IFCRELDEFINESBYPROPERTIES('QRO$oZ9NoRLH1$HXrJHzBz',#6,$,$,(#117),#323);
#325=IFCPROPERTYSINGLEVALUE('T$fRqd5XhvWHvJN1wtk$o9#0',$,IFCTEXT('2|UNIFORM'),$);
#326=IFCPROPERTYSET('dxqxsLT$krlBulXXEpoRdh',#6,'OPS_Assignments',$,(#325));
#327=IFCRELDEFINESBYPROPERTIES('odAZalmfkVDdqlbF47qD8R',#6,$,$,(#121),#326);
#328=IFCRELASSIGNSTOCONTROL('rDVhNjbXHjyDCF$VkTSruD',#6,$,$,(#43,#45,#47,#49,#51,#53,#55,#57,#59,#61,#63,#65,#67,#69,#71,#73,#75,#77,#79,#81,#83,#85,#87,#89,#91,#93,#95,#97,#99,#101,#103,#105,#107,#109,#111,#113,#115,#117,#119,#121,#123),$,#40);
#329=IFCPROPERTYSINGLEVALUE('InternalProjectId',$,IFCTEXT('proj-mtx91gr1acw32426'),$);
#330=IFCPROPERTYSINGLEVALUE('wbsAutoNumber',$,IFCBOOLEAN(.T.),$);
#331=IFCPROPERTYSINGLEVALUE('DefaultTaskDurationUnit',$,IFCLABEL('days'),$);
#332=IFCPROPERTYSINGLEVALUE('ProjectStartDate',$,IFCDATE('2027-03-01'),$);
#333=IFCPROPERTYSINGLEVALUE('ProjectEndDate',$,$,$);
#334=IFCPROPERTYSINGLEVALUE('CreatedAt',$,IFCTEXT('2026-09-11T17:47:46.573Z'),$);
#335=IFCPROPERTYSINGLEVALUE('ModifiedAt',$,IFCTEXT('2026-09-11T17:47:46.575Z'),$);
#336=IFCPROPERTYSET('e5a3ArlP$tNZvpDF1ZK5n5',#6,'OPS_ProjectSettings',$,(#329,#330,#331,#332,#333,#334,#335));
#337=IFCRELDEFINESBYPROPERTIES('0Hdzo1sPJhdjQlBF$1BF9l',#6,$,$,(#13),#336);
#338=IFCPROPERTYSINGLEVALUE('InternalTaskId',$,IFCTEXT('task-mtx91grg9dqz2436'),$);
#339=IFCPROPERTYSET('9NATirvtPPyDCl5nwNk5zh',#6,'OPS_TaskIdentity',$,(#338));
#340=IFCRELDEFINESBYPROPERTIES('_DU1_rGNILR$KRqHIZKjsT',#6,$,$,(#43),#339);
#341=IFCPROPERTYSINGLEVALUE('InternalTaskId',$,IFCTEXT('task-mtx91grh0nop2437'),$);
#342=IFCPROPERTYSET('4F7Z0llP9BHByN81cPG9S5',#6,'OPS_TaskIdentity',$,(#341));
#343=IFCRELDEFINESBYPROPERTIES('BDXL7rePTJ4pGhYFJxJv9p',#6,$,$,(#45),#342);
#344=IFCPROPERTYSINGLEVALUE('InternalTaskId',$,IFCTEXT('task-mtx91grj02b82438'),$);
#345=IFCPROPERTYSET('0lnxoZPtVdPBWJFX3DszF1',#6,'OPS_TaskIdentity',$,(#344));
#346=IFCRELDEFINESBYPROPERTIES('vFPzInaHZX2ttfu$hdu1w1',#6,$,$,(#47),#345);
#347=IFCPROPERTYSINGLEVALUE('InternalTaskId',$,IFCTEXT('task-mtx91grlqx1x2439'),$);
#348=IFCPROPERTYSET('dxKbezpV3nyDG54lt3NTfV',#6,'OPS_TaskIdentity',$,(#347));
#349=IFCRELDEFINESBYPROPERTIES('W$txwzCV9LpPmrA$pv07xB',#6,$,$,(#49),#348);
#350=IFCPROPERTYSINGLEVALUE('InternalTaskId',$,IFCTEXT('task-mtx91grm0fk12440'),$);
#351=IFCPROPERTYSET('YzShnlP9p5Fp0zDl3ldxP7',#6,'OPS_TaskIdentity',$,(#350));
#352=IFCRELDEFINESBYPROPERTIES('bVj7Dp$PljyL6pRHIz0vnX',#6,$,$,(#51),#351);
#353=IFCPROPERTYSINGLEVALUE('InternalTaskId',$,IFCTEXT('task-mtx91grovndj2441'),$);
#354=IFCPROPERTYSET('T1Vz6Z8PtVj7MhslmV$57f',#6,'OPS_TaskIdentity',$,(#353));
#355=IFCRELDEFINESBYPROPERTIES('MTL1kDHvitEBCrYX3pkxxH',#6,$,$,(#53),#354);
#356=IFCPROPERTYSINGLEVALUE('InternalTaskId',$,IFCTEXT('task-mtx91grqdkad2442'),$);
#357=IFCPROPERTYSET('ovA7zBePTDOdO7UnZ3u1w5',#6,'OPS_TaskIdentity',$,(#356));
#358=IFCRELDEFINESBYPROPERTIES('7hgzo$sPVPvLcFf$VHl35h',#6,$,$,(#55),#357);
#359=IFCPROPERTYSINGLEVALUE('InternalTaskId',$,IFCTEXT('task-mtx91grsryvt2443'),$);
#360=IFCPROPERTYSET('mN0tYb_FSh7DCLclPrijox',#6,'OPS_TaskIdentity',$,(#359));
#361=IFCRELDEFINESBYPROPERTIES('fP0toXIHfxHjErM1phFhk7',#6,$,$,(#57),#360);
#362=IFCPROPERTYSINGLEVALUE('InternalTaskId',$,IFCTEXT('task-mtx91grtki5z2444'),$);
#363=IFCPROPERTYSET('mNuVe3T$Y7WlzPc$A$dxR1',#6,'OPS_TaskIdentity',$,(#362));
#364=IFCRELDEFINESBYPROPERTIES('fP8XKtjX3ZkhYTbHYL$5NV',#6,$,$,(#59),#363);
#365=IFCPROPERTYSINGLEVALUE('InternalTaskId',$,IFCTEXT('task-mtx91grv80op2445'),$);
#366=IFCPROPERTYSET('9JLHVty1yFlJkx0VRV5HVd',#6,'OPS_TaskIdentity',$,(#365));
#367=IFCRELDEFINESBYPROPERTIES('mf8nPf$7oR37wJHX1T4TJZ',#6,$,$,(#61),#366);
#368=IFCPROPERTYSINGLEVALUE('InternalTaskId',$,IFCTEXT('task-mtx91grxfbm12446'),$);
#369=IFCPROPERTYSET('JNuVm9yHhPq5rJjl5lLlfT',#6,'OPS_TaskIdentity',$,(#368));
#370=IFCRELDEFINESBYPROPERTIES('cbuVifVvipOt$rg$9TJ7r3',#6,$,$,(#63),#369);
#371=IFCPROPERTYSINGLEVALUE('InternalTaskId',$,IFCTEXT('task-mtx91gry4zkj2447'),$);
#372=IFCPROPERTYSET('whkxQt4$ShvD8Fhlf9wddd',#6,'OPS_TaskIdentity',$,(#371));
#373=IFCRELDEFINESBYPROPERTIES('1ldz2hqFu$sTHtGVw9wPN1',#6,$,$,(#65),#372);
#374=IFCPROPERTYSINGLEVALUE('InternalTaskId',$,IFCTEXT('task-mtx91gs0bqd22448'),$);
#375=IFCPROPERTYSET('NZh16P6V3nCxrp7$MlrFvt',#6,'OPS_TaskIdentity',$,(#374));
#376=IFCRELDEFINESBYPROPERTIES('G7_VG9S1c1EBeXpHBjtrmn',#6,$,$,(#67),#375);
#377=IFCPROPERTYSINGLEVALUE('InternalTaskId',$,IFCTEXT('task-mtx91gs2yvjz2449'),$);
#378=IFCPROPERTYSET('Szqx2hSlvfUftLEFkzmfkd',#6,'OPS_TaskIdentity',$,(#377));
#379=IFCRELDEFINESBYPROPERTIES('ZVTf4V_nOnqxNbGVexI5Zx',#6,$,$,(#69),#378);
#380=IFCPROPERTYSINGLEVALUE('InternalTaskId',$,IFCTEXT('task-mtx91gs43sl32450'),$);
#381=IFCPROPERTYSET('Ix1TqbB1S1dJYZhHPlxVyL',#6,'OPS_TaskIdentity',$,(#380));
#382=IFCRELDEFINESBYPROPERTIES('rf2B9$gPJfhHndw18L8FpJ',#6,$,$,(#71),#381);
#383=IFCPROPERTYSINGLEVALUE('InternalTaskId',$,IFCTEXT('task-mtx91gs5judw2451'),$);
#384=IFCPROPERTYSET('vHLlpnKnolJfPZP1ur4LcH',#6,'OPS_TaskIdentity',$,(#383));
#385=IFCRELDEFINESBYPROPERTIES('oLhlPxAdLvWlzvoF6DTN_3',#6,$,$,(#73),#384);
#386=IFCPROPERTYSINGLEVALUE('InternalTaskId',$,IFCTEXT('task-mtx91gs761z42452'),$);
#387=IFCPROPERTYSET('V$vr5F3$SB3N$VBFvRgfw$',#6,'OPS_TaskIdentity',$,(#386));
#388=IFCRELDEFINESBYPROPERTIES('OZ5FfF4lD5dBWpjnFtoVGH',#6,$,$,(#75),#387);
#389=IFCPROPERTYSINGLEVALUE('InternalTaskId',$,IFCTEXT('task-mtx91gs9rlob2453'),$);
#390=IFCPROPERTYSET('azyT0nLlHDm$03rFb1FZ5n',#6,'OPS_TaskIdentity',$,(#389));
#391=IFCRELDEFINESBYPROPERTIES('ZXh$wzyH5lBFfPQ$czXRj$',#6,$,$,(#77),#390);
#392=IFCPROPERTYSINGLEVALUE('InternalTaskId',$,IFCTEXT('task-mtx91gsct1j12454'),$);
#393=IFCPROPERTYSET('_Job8L4$KtU511XV8LWd3L',#6,'OPS_TaskIdentity',$,(#392));
#394=IFCRELDEFINESBYPROPERTIES('5F9D1vgP3lG1CHDltvyLkv',#6,$,$,(#79),#393);
#395=IFCPROPERTYSINGLEVALUE('InternalTaskId',$,IFCTEXT('task-mtx91gsetf9v2455'),$);
#396=IFCPROPERTYSET('CrfJfHW9l1UxdzJlBtk1IB',#6,'OPS_TaskIdentity',$,(#395));
#397=IFCRELDEFINESBYPROPERTIES('JtC5o3Z123G1Wjt$G1ZtWP',#6,$,$,(#81),#396);
#398=IFCPROPERTYSINGLEVALUE('InternalTaskId',$,IFCTEXT('task-mtx91gsgzit32456'),$);
#399=IFCPROPERTYSET('IxPhpHWtNx7LwDBHldyZ3r',#6,'OPS_TaskIdentity',$,(#398));
#400=IFCRELDEFINESBYPROPERTIES('BN6DXtS1AtnLghknK1fLIB',#6,$,$,(#83),#399);
#401=IFCPROPERTYSINGLEVALUE('InternalTaskId',$,IFCTEXT('task-mtx91gsik6a32457'),$);
#402=IFCPROPERTYSET('W$FpnHX70r7DClhFFRH33d',#6,'OPS_TaskIdentity',$,(#401));
#403=IFCRELDEFINESBYPROPERTIES('dXbljVcX19vpulHVL3djYp',#6,$,$,(#85),#402);
#404=IFCPROPERTYSINGLEVALUE('InternalTaskId',$,IFCTEXT('task-mtx91gskrm902458'),$);
#405=IFCPROPERTYSET('ORWfm76vsh$xj$znClrnJz',#6,'OPS_TaskIdentity',$,(#404));
#406=IFCRELDEFINESBYPROPERTIES('VTWNiB1vkBVR$h6HT$5V4r',#6,$,$,(#87),#405);
#407=IFCPROPERTYSINGLEVALUE('InternalTaskId',$,IFCTEXT('task-mtx91gsm9yzc2459'),$);
#408=IFCPROPERTYSET('I9qp5BVvCZcD8FBHLdmtmX',#6,'OPS_TaskIdentity',$,(#407));
#409=IFCRELDEFINESBYPROPERTIES('P5CDVNuvYpw$K$rlLvKJkv',#6,$,$,(#89),#408);
#410=IFCPROPERTYSINGLEVALUE('InternalTaskId',$,IFCTEXT('task-mtx91gso3egd2460'),$);
#411=IFCPROPERTYSET('mf0t_B09x5vhQ3DldnnLUl',#6,'OPS_TaskIdentity',$,(#410));
#412=IFCRELDEFINESBYPROPERTIES('fd0tIHGNondrCLclzDYhgp',#6,$,$,(#91),#411);
#413=IFCPROPERTYSINGLEVALUE('InternalTaskId',$,IFCTEXT('task-mtx91gsrz5lv2461'),$);
#414=IFCPROPERTYSET('gTJvjzz$W5Vz3R0V1VdJwb',#6,'OPS_TaskIdentity',$,(#413));
#415=IFCRELDEFINESBYPROPERTIES('nvMdbRzHJhnh6Xt1qlT9Oz',#6,$,$,(#93),#414);
#416=IFCPROPERTYSINGLEVALUE('InternalTaskId',$,IFCTEXT('task-mtx91gst6z102462'),$);
#417=IFCPROPERTYSET('LTblvL41yRzvMhknODr$A3',#6,'OPS_TaskIdentity',$,(#416));
#418=IFCRELDEFINESBYPROPERTIES('EvQfSDMdtXhlRL_nT$pPPd',#6,$,$,(#95),#417);
#419=IFCPROPERTYSINGLEVALUE('InternalTaskId',$,IFCTEXT('task-mtx91gsv5h2h2463'),$);
#420=IFCPROPERTYSET('CfYLzdTHLjYx5RaldlJ7pF',#6,'OPS_TaskIdentity',$,(#419));
#421=IFCRELDEFINESBYPROPERTIES('5B2VifV70LTtNvoFEFJvj1',#6,$,$,(#97),#420);
#422=IFCPROPERTYSINGLEVALUE('InternalTaskId',$,IFCTEXT('task-mtx91gsy040n2464'),$);
#423=IFCPROPERTYSET('l9SLpnKFsBzf3voFQ315dP',#6,'OPS_TaskIdentity',$,(#422));
#424=IFCRELDEFINESBYPROPERTIES('e5SLP567_z0n5ld1J9UFLt',#6,$,$,(#99),#423);
#425=IFCPROPERTYSINGLEVALUE('InternalTaskId',$,IFCTEXT('task-mtx91gt0b0ka2465'),$);
#426=IFCPROPERTYSET('gZxnTxAPXPvLA7sHu3XbBZ',#6,'OPS_TaskIdentity',$,(#425));
#427=IFCRELDEFINESBYPROPERTIES('n7kHDHWtdDAlPT7$A19B4B',#6,$,$,(#101),#426);
#428=IFCPROPERTYSINGLEVALUE('InternalTaskId',$,IFCTEXT('task-mtx91gt242hu2466'),$);
#429=IFCPROPERTYSET('KPmPB3S1UjorWJFXt3tz$t',#6,'OPS_TaskIdentity',$,(#428));
#430=IFCRELDEFINESBYPROPERTIES('RRGd9331SV3fPTXVOxMZZR',#6,$,$,(#103),#429);
#431=IFCPROPERTYSINGLEVALUE('InternalTaskId',$,IFCTEXT('task-mtx91gt53eb92467'),$);
#432=IFCPROPERTYSET('s9gdlXRXPv0ndl5Fwt_ltD',#6,'OPS_TaskIdentity',$,(#431));
#433=IFCRELDEFINESBYPROPERTIES('3J6D3v9f4n1Z7JP1T1b$A3',#6,$,$,(#105),#432);
#434=IFCPROPERTYSINGLEVALUE('InternalTaskId',$,IFCTEXT('task-mtx91gt7k1lj2468'),$);
#435=IFCPROPERTYSET('qNIx2PL$wnCxXH1V4POH$f',#6,'OPS_TaskIdentity',$,(#434));
#436=IFCRELDEFINESBYPROPERTIES('xrIHdbA$GzmV_vEns1Vp4L',#6,$,$,(#107),#435);
#437=IFCPROPERTYSINGLEVALUE('InternalTaskId',$,IFCTEXT('task-mtx91gt9okcv2469'),$);
#438=IFCPROPERTYSET('YVBXajYFgbjfBjpHj9_lpn',#6,'OPS_TaskIdentity',$,(#437));
#439=IFCRELDEFINESBYPROPERTIES('Nz$TmNGN6zslbLInej9BSN',#6,$,$,(#109),#438);
#440=IFCPROPERTYSINGLEVALUE('InternalTaskId',$,IFCTEXT('task-mtx91gtbu4ga2470'),$);
#441=IFCPROPERTYSET('LTz9IJL$oH51m5anbx6JsT',#6,'OPS_TaskIdentity',$,(#440));
#442=IFCRELDEFINESBYPROPERTIES('Ev2V8pHvCToBCh2nBDztub',#6,$,$,(#111),#441);
#443=IFCPROPERTYSINGLEVALUE('InternalTaskId',$,IFCTEXT('task-mtx91gteth8c2471'),$);
#444=IFCPROPERTYSET('h7ahH$l7q3Mn5lf$cvCpeT',#6,'OPS_TaskIdentity',$,(#443));
#445=IFCRELDEFINESBYPROPERTIES('Szahxhz$4x7hoLglQdWdJZ',#6,$,$,(#113),#444);
#446=IFCPROPERTYSINGLEVALUE('InternalTaskId',$,IFCTEXT('task-mtx91gthz85t2472'),$);
#447=IFCPROPERTYSET('f7qpT95nmzGXQHxF25pPd7',#6,'OPS_TaskIdentity',$,(#446));
#448=IFCRELDEFINESBYPROPERTIES('Y3CpVtSH$B5VMfe$GX93n1',#6,$,$,(#115),#447);
#449=IFCPROPERTYSINGLEVALUE('InternalTaskId',$,IFCTEXT('task-mtx91gtjfmle2473'),$);
#450=IFCPROPERTYSET('zpY127d99BNZTfGXMrKjUl',#6,'OPS_TaskIdentity',$,(#449));
#451=IFCRELDEFINESBYPROPERTIES('ynvZm7gPZ1oBSdoXGFhX4L',#6,$,$,(#117),#450);
#452=IFCPROPERTYSINGLEVALUE('InternalTaskId',$,IFCTEXT('task-mtx91gtmge9g2474'),$);
#453=IFCPROPERTYSET('jbblpny$Sh7pG5ynJxZf2$',#6,'OPS_TaskIdentity',$,(#452));
#454=IFCRELDEFINESBYPROPERTIES('q9onZbA$C7O9dFd$SNEbNz',#6,$,$,(#119),#453);
#455=IFCPROPERTYSINGLEVALUE('InternalTaskId',$,IFCTEXT('task-mtx91gtoilzh2475'),$);
#456=IFCPROPERTYSET('L7aLTfldnnSre$N$3pMTBP',#6,'OPS_TaskIdentity',$,(#455));
#457=IFCRELDEFINESBYPROPERTIES('azaLfjjn4H5$49SHTXvpaR',#6,$,$,(#121),#456);
#458=IFCPROPERTYSINGLEVALUE('InternalTaskId',$,IFCTEXT('task-mtx91gtrfv112476'),$);
#459=IFCPROPERTYSET('O5KbObA1qdCZDF9$$3elN3',#6,'OPS_TaskIdentity',$,(#458));
#460=IFCRELDEFINESBYPROPERTIES('V3yZq7n7M7372JxnkV9zn1',#6,$,$,(#123),#459);
#461=IFCPROPERTYSINGLEVALUE('MilestoneKind',$,IFCLABEL('START'),$);
#462=IFCPROPERTYSET('FBNj$TGfc1MzbVBFLdeXax',#6,'OPS_Milestone',$,(#461));
#463=IFCRELDEFINESBYPROPERTIES('e3fbure7S1FhUznXH7elBT',#6,$,$,(#51),#462);
#464=IFCPROPERTYSINGLEVALUE('MilestoneKind',$,IFCLABEL('FINISH'),$);
#465=IFCPROPERTYSET('urcNSl0tj9NTZNmVoHfLYH',#6,'OPS_Milestone',$,(#464));
#466=IFCRELDEFINESBYPROPERTIES('HfGdt3T$I1fTbhwln5jv9J',#6,$,$,(#73),#465);
#467=IFCPROPERTYSINGLEVALUE('MilestoneKind',$,IFCLABEL('FINISH'),$);
#468=IFCPROPERTYSET('X3ijlxHvqZATZ9KFgrCD0N',#6,'OPS_Milestone',$,(#467));
#469=IFCRELDEFINESBYPROPERTIES('urQNihpXhJILM9KHGnB1o9',#6,$,$,(#83),#468);
#470=IFCPROPERTYSINGLEVALUE('MilestoneKind',$,IFCLABEL('FINISH'),$);
#471=IFCPROPERTYSINGLEVALUE('Mandatory',$,IFCBOOLEAN(.T.),$);
#472=IFCPROPERTYSET('tpdzURwV1h7D0zrnZZareZ',#6,'OPS_Milestone',$,(#470,#471));
#473=IFCRELDEFINESBYPROPERTIES('U1HjJTfNWRD9R$N1PLmteh',#6,$,$,(#123),#472);
ENDSEC;
END-ISO-10303-21;
