ISO-10303-21;
HEADER;
FILE_DESCRIPTION(('ViewDefinition [SchedulingView]'),'2;1');
FILE_NAME('New-Build Canal House, Amsterdam.ifc','2026-09-11T17:47:44',('Jan de Vries'),('Amsterdam Construction BV'),'Open Planner Studio 0.1','Open Planner Studio','');
FILE_SCHEMA(('IFC4X3'));
ENDSEC;
DATA;
#1=IFCPERSON($,'Jan de Vries',$,$,$,$,$,$);
#2=IFCORGANIZATION($,'Amsterdam Construction BV',$,$,$);
#3=IFCPERSONANDORGANIZATION(#1,#2,$);
#4=IFCORGANIZATION($,'OpenAEC Foundation',$,$,$);
#5=IFCAPPLICATION(#4,'0.1','Open Planner Studio','OPS');
#6=IFCOWNERHISTORY(#3,#5,$,.NOCHANGE.,$,$,$,1789148864);
#7=IFCSIUNIT(*,.LENGTHUNIT.,$,.METRE.);
#8=IFCSIUNIT(*,.TIMEUNIT.,$,.SECOND.);
#9=IFCUNITASSIGNMENT((#7,#8));
#10=IFCCARTESIANPOINT((0.,0.,0.));
#11=IFCAXIS2PLACEMENT3D(#10,$,$);
#12=IFCGEOMETRICREPRESENTATIONCONTEXT($,'Plan',3,1.0E-05,#11,$);
#13=IFCPROJECT('3joRqv$dfHbV2JZl0v8$2V',#6,'New-Build Canal House, Amsterdam','New three-storey canal house with basement',$,$,$,(#12),#9);
#14=IFCTIMEPERIOD('07:00:00','16:00:00');
#15=IFCRECURRENCEPATTERN(.WEEKLY.,$,(1,2,3,4,5),$,$,$,$,(#14));
#16=IFCWORKTIME('Standard work week',.PREDICTED.,$,#15,$,$);
#17=IFCWORKTIME('New Year''s Day',.PREDICTED.,$,$,'2027-01-01','2027-01-01');
#18=IFCWORKTIME('Good Friday',.PREDICTED.,$,$,'2027-03-26','2027-03-26');
#19=IFCWORKTIME('Easter',.PREDICTED.,$,$,'2027-03-28','2027-03-29');
#20=IFCWORKTIME('King''s Day',.PREDICTED.,$,$,'2027-04-27','2027-04-27');
#21=IFCWORKTIME('Liberation Day',.PREDICTED.,$,$,'2027-05-05','2027-05-05');
#22=IFCWORKTIME('Ascension Day',.PREDICTED.,$,$,'2027-05-06','2027-05-06');
#23=IFCWORKTIME('Whitsun',.PREDICTED.,$,$,'2027-05-16','2027-05-17');
#24=IFCWORKTIME('Christmas',.PREDICTED.,$,$,'2027-12-25','2027-12-26');
#25=IFCWORKTIME('Construction holiday (northern region)',.PREDICTED.,$,$,'2027-07-26','2027-08-15');
#26=IFCWORKTIME('New Year''s Day',.PREDICTED.,$,$,'2028-01-01','2028-01-01');
#27=IFCWORKTIME('Good Friday',.PREDICTED.,$,$,'2028-04-14','2028-04-14');
#28=IFCWORKTIME('Easter',.PREDICTED.,$,$,'2028-04-16','2028-04-17');
#29=IFCWORKTIME('King''s Day',.PREDICTED.,$,$,'2028-04-27','2028-04-27');
#30=IFCWORKTIME('Liberation Day',.PREDICTED.,$,$,'2028-05-05','2028-05-05');
#31=IFCWORKTIME('Ascension Day',.PREDICTED.,$,$,'2028-05-25','2028-05-25');
#32=IFCWORKTIME('Whitsun',.PREDICTED.,$,$,'2028-06-04','2028-06-05');
#33=IFCWORKTIME('Christmas',.PREDICTED.,$,$,'2028-12-25','2028-12-26');
#34=IFCWORKTIME('Construction holiday (northern region)',.PREDICTED.,$,$,'2028-07-24','2028-08-13');
#35=IFCWORKCALENDAR('_HlbW$VPl1Yxnv_nBDbFBd',#6,'Construction calendar NL','Standard construction calendar: Mon-Fri 07:00-16:00',$,(#16),(#17,#18,#19,#20,#21,#22,#23,#24,#25,#26,#27,#28,#29,#30,#31,#32,#33,#34),.FIRSTSHIFT.);
#36=IFCPROPERTYSINGLEVALUE('HoursPerDay',$,IFCREAL(8),$);
#37=IFCPROPERTYSET('qL5XmPUFgdlJ6X9$WtAtOZ',#6,'OPS_Calendar',$,(#36));
#38=IFCRELDEFINESBYPROPERTIES('bXh12hy$qvOdOP_VbbYntl',#6,$,$,(#35),#37);
#39=IFCWORKPLAN('b5ahrzCnGDcX2jhnhz9319',#6,'New-Build Canal House, Amsterdam','New three-storey canal house with basement',$,$,'2026-09-11T17:47:44',$,$,$,$,$,'2027-03-01T07:00:00','2027-03-19T07:00:00',.PLANNED.);
#40=IFCWORKSCHEDULE('2pgdb5VPTpWHDHrFXlFTxH',#6,'Construction schedule v1.0',$,$,$,'2026-09-11T17:47:44',$,$,$,$,$,'2027-03-01T07:00:00','2027-03-19T07:00:00',.PLANNED.);
#41=IFCRELAGGREGATES('X$Ph9TPtbVDd8te$ftI1sz',#6,$,$,#39,(#40));
#42=IFCTASKTIME('1. Preparation Time',.PREDICTED.,$,.WORKTIME.,'P0Y0M5D','2027-03-01T07:00:00','2027-03-05T07:00:00','2027-03-01T07:00:00','2027-04-05T07:00:00','2027-03-01T07:00:00','2028-01-12T07:00:00','P0Y0M0D','P0Y0M0D',.T.,$,$,$,$,$,0.00);
#43=IFCTASK('5rAvxnRnUvmVMLwH3n3t85',#6,'1. Preparation',$,$,'1',$,$,$,.F.,$,#42,.CONSTRUCTION.);
#44=IFCTASKTIME('Set up site Time',.PREDICTED.,$,.WORKTIME.,'P0Y0M5D','2027-03-01T07:00:00','2027-03-05T07:00:00','2027-03-01T07:00:00','2027-03-05T07:00:00','2027-03-01T07:00:00','2027-03-05T07:00:00','P0Y0M0D','P0Y0M0D',.T.,$,$,$,$,$,0.00);
#45=IFCTASK('U1VzsnZ1MdtRD3JHrfIxFb',#6,'Set up site',$,$,'1.1',$,$,$,.F.,$,#44,.LOGISTIC.);
#46=IFCTASKTIME('Install sheet piling Time',.PREDICTED.,$,.WORKTIME.,'P0Y0M10D','2027-03-01T07:00:00','2027-03-12T07:00:00','2027-03-08T07:00:00','2027-03-19T07:00:00','2027-12-17T07:00:00','2027-12-30T07:00:00','P0Y0M0D','P0Y0M183D',.F.,$,$,$,$,$,0.00);
#47=IFCTASK('yDgPb59NW5fx1XTlyhfTvN',#6,'Install sheet piling',$,$,'1.2',$,$,$,.F.,$,#46,.CONSTRUCTION.);
#48=IFCTASKTIME('Install dewatering Time',.PREDICTED.,$,.WORKTIME.,'P0Y0M5D','2027-03-01T07:00:00','2027-03-05T07:00:00','2027-03-22T07:00:00','2027-03-30T07:00:00','2027-12-31T07:00:00','2028-01-06T07:00:00','P0Y0M0D','P0Y0M183D',.F.,$,$,$,$,$,0.00);
#49=IFCTASK('Zz4TKNNfyH3vYNinYd4ZFb',#6,'Install dewatering',$,$,'1.3',$,$,$,.F.,$,#48,.INSTALLATION.);
#50=IFCTASKTIME('Carry out soil investigation Time',.PREDICTED.,$,.WORKTIME.,'P0Y0M3D','2027-03-01T07:00:00','2027-03-03T07:00:00','2027-03-31T07:00:00','2027-04-02T07:00:00','2028-01-07T07:00:00','2028-01-11T07:00:00','P0Y0M0D','P0Y0M183D',.F.,$,$,$,$,$,0.00);
#51=IFCTASK('Kd0tAFDVT1_RZL6lHr5V8x',#6,'Carry out soil investigation',$,$,'1.4',$,$,$,.F.,$,#50,.CONSTRUCTION.);
#52=IFCTASKTIME('Start of construction Time',.PREDICTED.,$,.WORKTIME.,'P0Y0M0D','2027-03-01T07:00:00','2027-03-01T07:00:00','2027-04-05T07:00:00','2027-04-05T07:00:00','2028-01-12T07:00:00','2028-01-12T07:00:00','P0Y0M183D','P0Y0M183D',.F.,$,$,$,$,$,0.00);
#53=IFCTASK('YVBVGdUngv3vcHDH$zu1cL',#6,'Start of construction',$,$,'1.5',$,$,$,.T.,$,#52,.CONSTRUCTION.);
#54=IFCTASKTIME('2. Foundations & basement Time',.PREDICTED.,$,.WORKTIME.,'P0Y0M5D','2027-03-01T07:00:00','2027-03-05T07:00:00','2027-03-17T07:00:00','2027-06-14T07:00:00','2027-03-17T07:00:00','2028-01-12T07:00:00','P0Y0M0D','P0Y0M0D',.T.,$,$,$,$,$,0.00);
#55=IFCTASK('a1ljXJcVJL$xfRO$8zVRhJ',#6,'2. Foundations & basement',$,$,'2',$,$,$,.F.,$,#54,.CONSTRUCTION.);
#56=IFCTASKTIME('Excavate building pit Time',.PREDICTED.,$,.WORKTIME.,'P0Y0M10D','2027-03-01T07:00:00','2027-03-12T07:00:00','2027-03-17T07:00:00','2027-04-01T07:00:00','2027-03-17T07:00:00','2027-04-01T07:00:00','P0Y0M0D','P0Y0M0D',.T.,$,$,$,$,$,0.00);
#57=IFCTASK('FrXLxBldnFC55RiluTpPlh',#6,'Excavate building pit',$,$,'2.1',$,$,$,.F.,$,#56,.CONSTRUCTION.);
#58=IFCTASKTIME('Drive foundation piles Time',.PREDICTED.,$,.WORKTIME.,'P0Y0M15D','2027-03-01T07:00:00','2027-03-19T07:00:00','2027-04-02T07:00:00','2027-04-22T07:00:00','2027-11-08T07:00:00','2027-11-26T07:00:00','P0Y0M0D','P0Y0M137D',.F.,$,$,$,$,$,0.00);
#59=IFCTASK('hTztUR_FyHbXkFbH_5B1UD',#6,'Drive foundation piles',$,$,'2.2',$,$,$,.F.,$,#58,.CONSTRUCTION.);
#60=IFCTASKTIME('Rebar fixing, basement Time',.PREDICTED.,$,.WORKTIME.,'P0Y0M8D','2027-03-01T07:00:00','2027-03-10T07:00:00','2027-04-23T07:00:00','2027-05-07T07:00:00','2027-11-29T07:00:00','2027-12-08T07:00:00','P0Y0M0D','P0Y0M137D',.F.,$,$,$,$,$,0.00);
#61=IFCTASK('4jERGty$0BdJAvknWNwjwX',#6,'Rebar fixing, basement',$,$,'2.3',$,$,$,.F.,$,#60,.CONSTRUCTION.);
#62=IFCTASKTIME('Pour basement floor Time',.PREDICTED.,$,.WORKTIME.,'P0Y0M5D','2027-03-01T07:00:00','2027-03-05T07:00:00','2027-05-10T07:00:00','2027-05-14T07:00:00','2027-12-09T07:00:00','2027-12-15T07:00:00','P0Y0M0D','P0Y0M137D',.F.,$,$,$,$,$,0.00);
#63=IFCTASK('$FZf0nJVl$Mz5FpnZXHrSt',#6,'Pour basement floor',$,$,'2.4',$,$,$,.F.,$,#62,.CONSTRUCTION.);
#64=IFCTASKTIME('Pour basement walls Time',.PREDICTED.,$,.WORKTIME.,'P0Y0M10D','2027-03-01T07:00:00','2027-03-12T07:00:00','2027-05-18T07:00:00','2027-05-31T07:00:00','2027-12-16T07:00:00','2027-12-29T07:00:00','P0Y0M0D','P0Y0M137D',.F.,$,$,$,$,$,0.00);
#65=IFCTASK('ston9XElLJ6JgNu$LPG9i1',#6,'Pour basement walls',$,$,'2.5',$,$,$,.F.,$,#64,.CONSTRUCTION.);
#66=IFCTASKTIME('Basement waterproofing Time',.PREDICTED.,$,.WORKTIME.,'P0Y0M5D','2027-03-01T07:00:00','2027-03-05T07:00:00','2027-06-01T07:00:00','2027-06-07T07:00:00','2027-12-30T07:00:00','2028-01-05T07:00:00','P0Y0M0D','P0Y0M137D',.F.,$,$,$,$,$,0.00);
#67=IFCTASK('L3nDbxnvcVYfrp$XUPKx9F',#6,'Basement waterproofing',$,$,'2.6',$,$,$,.F.,$,#66,.CONSTRUCTION.);
#68=IFCTASKTIME('Backfill building pit Time',.PREDICTED.,$,.WORKTIME.,'P0Y0M5D','2027-03-01T07:00:00','2027-03-05T07:00:00','2027-06-08T07:00:00','2027-06-14T07:00:00','2028-01-06T07:00:00','2028-01-12T07:00:00','P0Y0M137D','P0Y0M137D',.F.,$,$,$,$,$,0.00);
#69=IFCTASK('b1NRuBOP$fDP03DHlrJv1t',#6,'Backfill building pit',$,$,'2.7',$,$,$,.F.,$,#68,.LOGISTIC.);
#70=IFCTASKTIME('3. Structural works Time',.PREDICTED.,$,.WORKTIME.,'P0Y0M5D','2027-03-01T07:00:00','2027-03-05T07:00:00','2027-03-23T07:00:00','2027-07-09T07:00:00','2027-03-23T07:00:00','2028-01-12T07:00:00','P0Y0M0D','P0Y0M0D',.T.,$,$,$,$,$,0.00);
#71=IFCTASK('9pvZuJJF0LDPKVFVdLGfMJ',#6,'3. Structural works',$,$,'3',$,$,$,.F.,$,#70,.CONSTRUCTION.);
#72=IFCTASKTIME('Ground floor masonry Time',.PREDICTED.,$,.WORKTIME.,'P0Y0M12D','2027-03-01T07:00:00','2027-03-16T07:00:00','2027-03-23T07:00:00','2027-04-09T07:00:00','2027-03-23T07:00:00','2027-04-09T07:00:00','P0Y0M0D','P0Y0M0D',.T.,$,$,$,$,$,0.00);
#73=IFCTASK('6BoFdfnPB3ufltWVRbgfAd',#6,'Ground floor masonry',$,$,'3.1',$,$,$,.F.,$,#72,.CONSTRUCTION.);
#74=IFCTASKTIME('First floor slab Time',.PREDICTED.,$,.WORKTIME.,'P0Y0M5D','2027-03-01T07:00:00','2027-03-05T07:00:00','2027-04-12T07:00:00','2027-04-16T07:00:00','2027-04-12T07:00:00','2027-04-16T07:00:00','P0Y0M0D','P0Y0M0D',.T.,$,$,$,$,$,0.00);
#75=IFCTASK('_HVh$dwXtXrnPlTHuZJ75L',#6,'First floor slab',$,$,'3.2',$,$,$,.F.,$,#74,.CONSTRUCTION.);
#76=IFCTASKTIME('First floor masonry Time',.PREDICTED.,$,.WORKTIME.,'P0Y0M10D','2027-03-01T07:00:00','2027-03-12T07:00:00','2027-04-19T07:00:00','2027-05-03T07:00:00','2027-04-19T07:00:00','2027-05-03T07:00:00','P0Y0M0D','P0Y0M0D',.T.,$,$,$,$,$,0.00);
#77=IFCTASK('V1npd5w76TIhcFf1DrDdZx',#6,'First floor masonry',$,$,'3.3',$,$,$,.F.,$,#76,.CONSTRUCTION.);
#78=IFCTASKTIME('Second floor slab Time',.PREDICTED.,$,.WORKTIME.,'P0Y0M5D','2027-03-01T07:00:00','2027-03-05T07:00:00','2027-05-04T07:00:00','2027-05-12T07:00:00','2027-05-04T07:00:00','2027-05-12T07:00:00','P0Y0M0D','P0Y0M0D',.T.,$,$,$,$,$,0.00);
#79=IFCTASK('sjxXy1gPNlptpzLnNts9K1',#6,'Second floor slab',$,$,'3.4',$,$,$,.F.,$,#78,.CONSTRUCTION.);
#80=IFCTASKTIME('Second floor masonry Time',.PREDICTED.,$,.WORKTIME.,'P0Y0M10D','2027-03-01T07:00:00','2027-03-12T07:00:00','2027-05-13T07:00:00','2027-05-27T07:00:00','2027-05-13T07:00:00','2027-05-27T07:00:00','P0Y0M0D','P0Y0M0D',.T.,$,$,$,$,$,0.00);
#81=IFCTASK('mN8V4Vg$2N2ttfu1kV$x1D',#6,'Second floor masonry',$,$,'3.5',$,$,$,.F.,$,#80,.CONSTRUCTION.);
#82=IFCTASKTIME('Third floor slab Time',.PREDICTED.,$,.WORKTIME.,'P0Y0M5D','2027-03-01T07:00:00','2027-03-05T07:00:00','2027-05-28T07:00:00','2027-06-03T07:00:00','2027-05-28T07:00:00','2027-06-03T07:00:00','P0Y0M0D','P0Y0M0D',.T.,$,$,$,$,$,0.00);
#83=IFCTASK('zDEF5HvtD7LlhTxlatEVWv',#6,'Third floor slab',$,$,'3.6',$,$,$,.F.,$,#82,.CONSTRUCTION.);
#84=IFCTASKTIME('Third floor masonry Time',.PREDICTED.,$,.WORKTIME.,'P0Y0M8D','2027-03-01T07:00:00','2027-03-10T07:00:00','2027-06-04T07:00:00','2027-06-15T07:00:00','2027-06-04T07:00:00','2027-06-15T07:00:00','P0Y0M0D','P0Y0M0D',.T.,$,$,$,$,$,0.00);
#85=IFCTASK('LTJvlxP9b115N5yF9ZDPLf',#6,'Third floor masonry',$,$,'3.7',$,$,$,.F.,$,#84,.CONSTRUCTION.);
#86=IFCTASKTIME('Timber roof structure Time',.PREDICTED.,$,.WORKTIME.,'P0Y0M10D','2027-03-01T07:00:00','2027-03-12T07:00:00','2027-06-16T07:00:00','2027-06-29T07:00:00','2027-06-16T07:00:00','2027-06-29T07:00:00','P0Y0M0D','P0Y0M0D',.T.,$,$,$,$,$,0.00);
#87=IFCTASK('4DIllXh1oxdr49il4POXiJ',#6,'Timber roof structure',$,$,'3.8',$,$,$,.F.,$,#86,.CONSTRUCTION.);
#88=IFCTASKTIME('Roofing Time',.PREDICTED.,$,.WORKTIME.,'P0Y0M8D','2027-03-01T07:00:00','2027-03-10T07:00:00','2027-06-30T07:00:00','2027-07-09T07:00:00','2027-06-30T07:00:00','2027-07-09T07:00:00','P0Y0M0D','P0Y0M0D',.T.,$,$,$,$,$,0.00);
#89=IFCTASK('WX5FT5UfShlBmLUFprb1kd',#6,'Roofing',$,$,'3.9',$,$,$,.F.,$,#88,.CONSTRUCTION.);
#90=IFCTASKTIME('Topping out Time',.PREDICTED.,$,.WORKTIME.,'P0Y0M0D','2027-03-01T07:00:00','2027-03-01T07:00:00','2027-07-09T07:00:00','2027-07-09T07:00:00','2028-01-12T07:00:00','2028-01-12T07:00:00','P0Y0M118D','P0Y0M118D',.F.,$,$,$,$,$,0.00);
#91=IFCTASK('zps7dtBH7zOPqnd$OpZNsZ',#6,'Topping out',$,$,'3.10',$,$,$,.T.,$,#90,.CONSTRUCTION.);
#92=IFCTASKTIME('4. Facade & roof Time',.PREDICTED.,$,.WORKTIME.,'P0Y0M5D','2027-03-01T07:00:00','2027-03-05T07:00:00','2027-06-21T07:00:00','2027-09-01T07:00:00','2027-06-21T07:00:00','2028-01-12T07:00:00','P0Y0M0D','P0Y0M0D',.T.,$,$,$,$,$,0.00);
#93=IFCTASK('K595cJYn_NgFFjRFObUFvt',#6,'4. Facade & roof',$,$,'4',$,$,$,.F.,$,#92,.CONSTRUCTION.);
#94=IFCTASKTIME('Facade insulation Time',.PREDICTED.,$,.WORKTIME.,'P0Y0M8D','2027-03-01T07:00:00','2027-03-10T07:00:00','2027-06-21T07:00:00','2027-06-30T07:00:00','2027-06-21T07:00:00','2027-06-30T07:00:00','P0Y0M0D','P0Y0M0D',.T.,$,$,$,$,$,0.00);
#95=IFCTASK('2llRqdpFwZATfR0Xntk1oR',#6,'Facade insulation',$,$,'4.1',$,$,$,.F.,$,#94,.INSTALLATION.);
#96=IFCTASKTIME('Natural stone cladding Time',.PREDICTED.,$,.WORKTIME.,'P0Y0M15D','2027-03-01T07:00:00','2027-03-19T07:00:00','2027-07-01T07:00:00','2027-07-21T07:00:00','2027-07-01T07:00:00','2027-07-21T07:00:00','P0Y0M0D','P0Y0M0D',.T.,$,$,$,$,$,0.00);
#97=IFCTASK('CNcjr7APzZM3VRSFFx5HvR',#6,'Natural stone cladding',$,$,'4.2',$,$,$,.F.,$,#96,.CONSTRUCTION.);
#98=IFCTASKTIME('Install window frames Time',.PREDICTED.,$,.WORKTIME.,'P0Y0M10D','2027-03-01T07:00:00','2027-03-12T07:00:00','2027-07-22T07:00:00','2027-08-25T07:00:00','2027-07-22T07:00:00','2027-08-25T07:00:00','P0Y0M0D','P0Y0M0D',.T.,$,$,$,$,$,0.00);
#99=IFCTASK('G7w9o1c7G30FNdQ$onLXez',#6,'Install window frames',$,$,'4.3',$,$,$,.F.,$,#98,.INSTALLATION.);
#100=IFCTASKTIME('Glazing Time',.PREDICTED.,$,.WORKTIME.,'P0Y0M5D','2027-03-01T07:00:00','2027-03-05T07:00:00','2027-08-26T07:00:00','2027-09-01T07:00:00','2027-08-26T07:00:00','2027-09-01T07:00:00','P0Y0M0D','P0Y0M0D',.T.,$,$,$,$,$,0.00);
#101=IFCTASK('zjEROTvtzHG$O$7$EDgT9l',#6,'Glazing',$,$,'4.4',$,$,$,.F.,$,#100,.INSTALLATION.);
#102=IFCTASKTIME('Wind and weathertight Time',.PREDICTED.,$,.WORKTIME.,'P0Y0M0D','2027-03-01T07:00:00','2027-03-01T07:00:00','2027-09-01T07:00:00','2027-09-01T07:00:00','2028-01-12T07:00:00','2028-01-12T07:00:00','P0Y0M95D','P0Y0M95D',.F.,$,$,$,$,$,0.00);
#103=IFCTASK('uDfJ5H$vg7jNZ9aHnRlzFV',#6,'Wind and weathertight',$,$,'4.5',$,$,$,.T.,$,#102,.CONSTRUCTION.);
#104=IFCTASKTIME('5. Building services Time',.PREDICTED.,$,.WORKTIME.,'P0Y0M5D','2027-03-01T07:00:00','2027-03-05T07:00:00','2027-09-02T07:00:00','2027-10-21T07:00:00','2027-09-02T07:00:00','2028-01-12T07:00:00','P0Y0M0D','P0Y0M0D',.T.,$,$,$,$,$,0.00);
#105=IFCTASK('iPGPR5vt3HePute1i$FT$J',#6,'5. Building services',$,$,'5',$,$,$,.F.,$,#104,.INSTALLATION.);
#106=IFCTASKTIME('Electrical first fix Time',.PREDICTED.,$,.WORKTIME.,'P0Y0M10D','2027-03-01T07:00:00','2027-03-12T07:00:00','2027-09-02T07:00:00','2027-09-15T07:00:00','2027-09-02T07:00:00','2027-09-15T07:00:00','P0Y0M0D','P0Y0M0D',.T.,$,$,$,$,$,0.00);
#107=IFCTASK('nBXhH1$dLJQpWpLljNwJYJ',#6,'Electrical first fix',$,$,'5.1',$,$,$,.F.,$,#106,.INSTALLATION.);
#108=IFCTASKTIME('Plumbing first fix Time',.PREDICTED.,$,.WORKTIME.,'P0Y0M8D','2027-03-01T07:00:00','2027-03-10T07:00:00','2027-09-16T07:00:00','2027-09-27T07:00:00','2027-12-08T07:00:00','2027-12-17T07:00:00','P0Y0M0D','P0Y0M59D',.F.,$,$,$,$,$,0.00);
#109=IFCTASK('1ldzw3qFSrjv27EFUrDdnR',#6,'Plumbing first fix',$,$,'5.2',$,$,$,.F.,$,#108,.INSTALLATION.);
#110=IFCTASKTIME('Heating installation Time',.PREDICTED.,$,.WORKTIME.,'P0Y0M10D','2027-03-01T07:00:00','2027-03-12T07:00:00','2027-09-21T07:00:00','2027-10-04T07:00:00','2027-12-13T07:00:00','2027-12-24T07:00:00','P0Y0M0D','P0Y0M59D',.F.,$,$,$,$,$,0.00);
#111=IFCTASK('BtQNy3KXbr9z3R0V$VFhw1',#6,'Heating installation',$,$,'5.3',$,$,$,.F.,$,#110,.INSTALLATION.);
#112=IFCTASKTIME('Ventilation system Time',.PREDICTED.,$,.WORKTIME.,'P0Y0M8D','2027-03-01T07:00:00','2027-03-10T07:00:00','2027-10-05T07:00:00','2027-10-14T07:00:00','2027-12-27T07:00:00','2028-01-05T07:00:00','P0Y0M0D','P0Y0M59D',.F.,$,$,$,$,$,0.00);
#113=IFCTASK('mvEnhfednnSJIHf$YhFhIh',#6,'Ventilation system',$,$,'5.4',$,$,$,.F.,$,#112,.INSTALLATION.);
#114=IFCTASKTIME('Home automation cabling Time',.PREDICTED.,$,.WORKTIME.,'P0Y0M5D','2027-03-01T07:00:00','2027-03-05T07:00:00','2027-10-15T07:00:00','2027-10-21T07:00:00','2028-01-06T07:00:00','2028-01-12T07:00:00','P0Y0M59D','P0Y0M59D',.F.,$,$,$,$,$,0.00);
#115=IFCTASK('idGv3r099$lrS7Yn752BOZ',#6,'Home automation cabling',$,$,'5.5',$,$,$,.F.,$,#114,.INSTALLATION.);
#116=IFCTASKTIME('6. Fit-out Time',.PREDICTED.,$,.WORKTIME.,'P0Y0M5D','2027-03-01T07:00:00','2027-03-05T07:00:00','2027-10-01T07:00:00','2027-12-28T07:00:00','2027-10-01T07:00:00','2027-12-28T07:00:00','P0Y0M0D','P0Y0M0D',.T.,$,$,$,$,$,0.00);
#117=IFCTASK('4D2X0HFd9$NZ1VLnR5cDyB',#6,'6. Fit-out',$,$,'6',$,$,$,.F.,$,#116,.CONSTRUCTION.);
#118=IFCTASKTIME('Internal walls Time',.PREDICTED.,$,.WORKTIME.,'P0Y0M10D','2027-03-01T07:00:00','2027-03-12T07:00:00','2027-10-01T07:00:00','2027-10-14T07:00:00','2027-10-01T07:00:00','2027-10-14T07:00:00','P0Y0M0D','P0Y0M0D',.T.,$,$,$,$,$,0.00);
#119=IFCTASK('SzyZqP3ll1ormB2V$3mfkr',#6,'Internal walls',$,$,'6.1',$,$,$,.F.,$,#118,.CONSTRUCTION.);
#120=IFCTASKTIME('Plastering Time',.PREDICTED.,$,.WORKTIME.,'P0Y0M12D','2027-03-01T07:00:00','2027-03-16T07:00:00','2027-10-15T07:00:00','2027-11-01T07:00:00','2027-10-15T07:00:00','2027-11-01T07:00:00','P0Y0M0D','P0Y0M0D',.T.,$,$,$,$,$,0.00);
#121=IFCTASK('qN_B13SH$h$5XnDndF93rz',#6,'Plastering',$,$,'6.2',$,$,$,.F.,$,#120,.CONSTRUCTION.);
#122=IFCTASKTIME('Bathroom tiling Time',.PREDICTED.,$,.WORKTIME.,'P0Y0M8D','2027-03-01T07:00:00','2027-03-10T07:00:00','2027-11-02T07:00:00','2027-11-11T07:00:00','2027-11-02T07:00:00','2027-11-11T07:00:00','P0Y0M0D','P0Y0M0D',.T.,$,$,$,$,$,0.00);
#123=IFCTASK('S1NbG9a$A9XRDZXVuTb$UJ',#6,'Bathroom tiling',$,$,'6.3',$,$,$,.F.,$,#122,.CONSTRUCTION.);
#124=IFCTASKTIME('Screed floors Time',.PREDICTED.,$,.WORKTIME.,'P0Y0M5D','2027-03-01T07:00:00','2027-03-05T07:00:00','2027-11-12T07:00:00','2027-11-18T07:00:00','2027-11-12T07:00:00','2027-11-18T07:00:00','P0Y0M0D','P0Y0M0D',.T.,$,$,$,$,$,0.00);
#125=IFCTASK('P54BRXJniJCZhTxlebYn3r',#6,'Screed floors',$,$,'6.4',$,$,$,.F.,$,#124,.CONSTRUCTION.);
#126=IFCTASKTIME('Painting Time',.PREDICTED.,$,.WORKTIME.,'P0Y0M10D','2027-03-01T07:00:00','2027-03-12T07:00:00','2027-11-19T07:00:00','2027-12-02T07:00:00','2027-11-19T07:00:00','2027-12-02T07:00:00','P0Y0M0D','P0Y0M0D',.T.,$,$,$,$,$,0.00);
#127=IFCTASK('R$VzAHX7ynVz7V1VWNs33d',#6,'Painting',$,$,'6.5',$,$,$,.F.,$,#126,.CONSTRUCTION.);
#128=IFCTASKTIME('Install kitchen Time',.PREDICTED.,$,.WORKTIME.,'P0Y0M5D','2027-03-01T07:00:00','2027-03-05T07:00:00','2027-12-03T07:00:00','2027-12-09T07:00:00','2027-12-03T07:00:00','2027-12-09T07:00:00','P0Y0M0D','P0Y0M0D',.T.,$,$,$,$,$,0.00);
#129=IFCTASK('8BY$g$7tpPtRR1t$NfszZN',#6,'Install kitchen',$,$,'6.6',$,$,$,.F.,$,#128,.INSTALLATION.);
#130=IFCTASKTIME('Second-fix sanitary fittings Time',.PREDICTED.,$,.WORKTIME.,'P0Y0M5D','2027-03-01T07:00:00','2027-03-05T07:00:00','2027-12-10T07:00:00','2027-12-16T07:00:00','2027-12-10T07:00:00','2027-12-16T07:00:00','P0Y0M0D','P0Y0M0D',.T.,$,$,$,$,$,0.00);
#131=IFCTASK('XXbHNpnvwZATLTxHeJFZ9n',#6,'Second-fix sanitary fittings',$,$,'6.7',$,$,$,.F.,$,#130,.INSTALLATION.);
#132=IFCTASKTIME('Floor finishes Time',.PREDICTED.,$,.WORKTIME.,'P0Y0M8D','2027-03-01T07:00:00','2027-03-10T07:00:00','2027-12-17T07:00:00','2027-12-28T07:00:00','2027-12-17T07:00:00','2027-12-28T07:00:00','P0Y0M0D','P0Y0M0D',.T.,$,$,$,$,$,0.00);
#133=IFCTASK('BpHbW1Ptf5ljs5ynLdOXm$',#6,'Floor finishes',$,$,'6.8',$,$,$,.F.,$,#132,.CONSTRUCTION.);
#134=IFCTASKTIME('7. Handover Time',.PREDICTED.,$,.WORKTIME.,'P0Y0M5D','2027-03-01T07:00:00','2027-03-05T07:00:00','2027-12-29T07:00:00','2028-01-12T07:00:00','2027-12-29T07:00:00','2028-01-12T07:00:00','P0Y0M0D','P0Y0M0D',.T.,$,$,$,$,$,0.00);
#135=IFCTASK('5LEbW$n7on9b3R81IzOHX7',#6,'7. Handover',$,$,'7',$,$,$,.F.,$,#134,.CONSTRUCTION.);
#136=IFCTASKTIME('Construct outdoor areas Time',.PREDICTED.,$,.WORKTIME.,'P0Y0M5D','2027-03-01T07:00:00','2027-03-05T07:00:00','2027-12-29T07:00:00','2028-01-04T07:00:00','2027-12-29T07:00:00','2028-01-04T07:00:00','P0Y0M0D','P0Y0M0D',.T.,$,$,$,$,$,0.00);
#137=IFCTASK('Gv_V41MdjfZ9Zr61y74Z5F',#6,'Construct outdoor areas',$,$,'7.1',$,$,$,.F.,$,#136,.CONSTRUCTION.);
#138=IFCTASKTIME('Cleaning Time',.PREDICTED.,$,.WORKTIME.,'P0Y0M3D','2027-03-01T07:00:00','2027-03-03T07:00:00','2028-01-05T07:00:00','2028-01-07T07:00:00','2028-01-05T07:00:00','2028-01-07T07:00:00','P0Y0M0D','P0Y0M0D',.T.,$,$,$,$,$,0.00);
#139=IFCTASK('XZWfGfGN4FfxVFJFNJXD8D',#6,'Cleaning',$,$,'7.2',$,$,$,.F.,$,#138,.LOGISTIC.);
#140=IFCTASKTIME('Final inspection of services Time',.PREDICTED.,$,.WORKTIME.,'P0Y0M3D','2027-03-01T07:00:00','2027-03-03T07:00:00','2028-01-10T07:00:00','2028-01-12T07:00:00','2028-01-10T07:00:00','2028-01-12T07:00:00','P0Y0M0D','P0Y0M0D',.T.,$,$,$,$,$,0.00);
#141=IFCTASK('l94TKBPtXvhHdzzl6t_HZf',#6,'Final inspection of services',$,$,'7.3',$,$,$,.F.,$,#140,.CONSTRUCTION.);
#142=IFCTASKTIME('Handover Time',.PREDICTED.,$,.WORKTIME.,'P0Y0M0D','2027-03-01T07:00:00','2027-03-01T07:00:00','2028-01-12T07:00:00','2028-01-12T07:00:00','2028-01-12T07:00:00','2028-01-12T07:00:00','P0Y0M0D','P0Y0M0D',.T.,$,$,$,$,$,0.00);
#143=IFCTASK('idm7bXbVHD8fjVnX11rn$D',#6,'Handover',$,$,'7.4',$,$,$,.T.,$,#142,.CONSTRUCTION.);
#144=IFCRELNESTS('qtIHj1gd$BT9TLInGFxHTt',#6,'WBS 1. Preparation',$,#43,( #45,#47,#49,#51,#53));
#145=IFCRELNESTS('ZTuXW$1dZ1sTXnLHrpZN23',#6,'WBS 2. Foundations & basement',$,#55,( #57,#59,#61,#63,#65,#67,#69));
#146=IFCRELNESTS('_FD75FJVzTATFPA1tdeXy7',#6,'WBS 3. Structural works',$,#71,( #73,#75,#77,#79,#81,#83,#85,#87,#89,#91));
#147=IFCRELNESTS('b11T0lX7edlj_v6lZVNZdd',#6,'WBS 4. Facade & roof',$,#93,( #95,#97,#99,#101,#103));
#148=IFCRELNESTS('DrtDDl8dB30ndHJljxLXSx',#6,'WBS 5. Building services',$,#105,( #107,#109,#111,#113,#115));
#149=IFCRELNESTS('r9Av13y$Ov37MLsle5I5HL',#6,'WBS 6. Fit-out',$,#117,( #119,#121,#123,#125,#127,#129,#131,#133));
#150=IFCRELNESTS('qNk5E$I9jL1xrDN$NjP5nx',#6,'WBS 7. Handover',$,#135,( #137,#139,#141,#143));
#151=IFCRELNESTS('tjjP5r1vgdnD4TBHzDgTrv',#6,'WBS Hoofd',$,#40,(#43,#55,#71,#93,#105,#117,#135));
#152=IFCRELSEQUENCE('UXxnTxQ7ah9z5nblcznL6x',#6,$,$,#45,#47,$,.FINISH_START.,$);
#153=IFCRELSEQUENCE('QbmPFHldvZ4DClRFSfIx1J',#6,$,$,#47,#49,$,.FINISH_START.,$);
#154=IFCRELSEQUENCE('jbTfGN8dFzkPWjP19P8n7t',#6,$,$,#49,#51,$,.FINISH_START.,$);
#155=IFCRELSEQUENCE('rJLlj$otbBVR$LYn3Dcpyv',#6,$,$,#51,#53,$,.FINISH_START.,$);
#156=IFCRELSEQUENCE('tJ39QjUFQ1Eri5u$AxgTRX',#6,$,$,#57,#59,$,.FINISH_START.,$);
#157=IFCRELSEQUENCE('b17rHbL1QXAlhZBHZzOHxL',#6,$,$,#59,#61,$,.FINISH_START.,$);
#158=IFCRELSEQUENCE('ANk5ct4lPJIhQnv1MhWPdP',#6,$,$,#61,#63,$,.FINISH_START.,$);
#159=IFCRELSEQUENCE('HtCxIpvtJ9XbHZZFk$T9SN',#6,$,$,#63,#65,$,.FINISH_START.,$);
#160=IFCRELSEQUENCE('m7_X8LKn2fQVwDzFGVlrKD',#6,$,$,#65,#67,$,.FINISH_START.,$);
#161=IFCRELSEQUENCE('T3azwP_nCzw1CrYXzDQpyr',#6,$,$,#67,#69,$,.FINISH_START.,$);
#162=IFCRELSEQUENCE('iP8npDVPNbZd8t0XLvazfT',#6,$,$,#73,#75,$,.FINISH_START.,$);
#163=IFCRELSEQUENCE('c$Phzvv9vNkP4Nu1vxIxf$',#6,$,$,#75,#77,$,.FINISH_START.,$);
#164=IFCRELSEQUENCE('gvCpTtDV1rT9npXVGnjvzP',#6,$,$,#77,#79,$,.FINISH_START.,$);
#165=IFCRELSEQUENCE('rplbe5cvu1ILQ3RFC3eHdL',#6,$,$,#79,#81,$,.FINISH_START.,$);
#166=IFCRELSEQUENCE('3DklV9qnShtzL9WV9deHbb',#6,$,$,#81,#83,$,.FINISH_START.,$);
#167=IFCRELSEQUENCE('ZT0tY9jXV751apt1N9I$ot',#6,$,$,#83,#85,$,.FINISH_START.,$);
#168=IFCRELSEQUENCE('xFVhX9qVv3GV61pFNN6JIv',#6,$,$,#85,#87,$,.FINISH_START.,$);
#169=IFCRELSEQUENCE('oP6D$PUnon$ZFd6$0dix7f',#6,$,$,#87,#89,$,.FINISH_START.,$);
#170=IFCRELSEQUENCE('Lv4B$zyl5FX3h9O$zHP5jT',#6,$,$,#89,#91,$,.FINISH_START.,$);
#171=IFCRELSEQUENCE('a1PLLJQV9hj727UntzXRdh',#6,$,$,#95,#97,$,.FINISH_START.,$);
#172=IFCRELSEQUENCE('UXh1U5Qv0BXbr7wHj96PB7',#6,$,$,#97,#99,$,.FINISH_START.,$);
#173=IFCRELSEQUENCE('I9SLB3yHD5f5fRO1qlBFlL',#6,$,$,#99,#101,$,.FINISH_START.,$);
#174=IFCRELSEQUENCE('SZuFv7Hv81Y5zvIFCTyhI7',#6,$,$,#101,#103,$,.FINISH_START.,$);
#175=IFCRELSEQUENCE('qBHbuJh1oHz7sdYV3DszHF',#6,$,$,#107,#109,$,.FINISH_START.,$);
#176=IFCLAGTIME('Lag',.PREDICTED.,$,IFCDURATION('P3D'),.WORKTIME.);
#177=IFCRELSEQUENCE('mNuXKthl$L9zdlTH0diJof',#6,$,$,#109,#111,#176,.START_START.,$);
#178=IFCRELSEQUENCE('KR5FhtCFqzw$ute$uBqRZf',#6,$,$,#111,#113,$,.FINISH_START.,$);
#179=IFCRELSEQUENCE('php7XDEt1ht3Bdc1kVlrmH',#6,$,$,#113,#115,$,.FINISH_START.,$);
#180=IFCRELSEQUENCE('H5dhnlnd$BJ7_v2nrjvRV7',#6,$,$,#119,#121,$,.FINISH_START.,$);
#181=IFCRELSEQUENCE('7hoRC7$dhJAZdT1XYvOldB',#6,$,$,#121,#123,$,.FINISH_START.,$);
#182=IFCRELSEQUENCE('3HPzQDYNut7p8nDF97Cb5L',#6,$,$,#123,#125,$,.FINISH_START.,$);
#183=IFCRELSEQUENCE('FrlbiLT$gdN57DhH3nJv$t',#6,$,$,#125,#127,$,.FINISH_START.,$);
#184=IFCRELSEQUENCE('R1lJPfFdLjIhQTXXatk1s7',#6,$,$,#127,#129,$,.FINISH_START.,$);
#185=IFCRELSEQUENCE('lRBVSDYfqzcVkbyFPheVOB',#6,$,$,#129,#131,$,.FINISH_START.,$);
#186=IFCRELSEQUENCE('7hcj13CF4xljw$3nabNhgf',#6,$,$,#131,#133,$,.FINISH_START.,$);
#187=IFCRELSEQUENCE('pB7Zy$AdRVR1OVTHORMf21',#6,$,$,#137,#139,$,.FINISH_START.,$);
#188=IFCRELSEQUENCE('ndYLvhiXpPdrKRSlNf_BGX',#6,$,$,#139,#141,$,.FINISH_START.,$);
#189=IFCRELSEQUENCE('r9onPftfAhPJMtal7XTN_X',#6,$,$,#141,#143,$,.FINISH_START.,$);
#190=IFCLAGTIME('Lag',.PREDICTED.,$,IFCDURATION('P12D'),.WORKTIME.);
#191=IFCRELSEQUENCE('KvqpZfnP1r5VEXLFHh93pn',#6,$,$,#45,#57,#190,.START_START.,$);
#192=IFCLAGTIME('Lag',.PREDICTED.,$,IFCRATIOMEASURE(0.4),.WORKTIME.);
#193=IFCRELSEQUENCE('HfelNjRXp7Zdi5GVqHLltD',#6,$,$,#57,#73,#192,.START_START.,$);
#194=IFCLAGTIME('Lag',.PREDICTED.,$,IFCDURATION('-P15D'),.WORKTIME.);
#195=IFCRELSEQUENCE('i5npb5NNk$7p4fe$qZqbTt',#6,$,$,#89,#95,#194,.FINISH_START.,$);
#196=IFCLAGTIME('Lag',.PREDICTED.,$,IFCDURATION('P2D'),.WORKTIME.);
#197=IFCRELSEQUENCE('T1vBFhrl19VRVRiHG$BFP7',#6,$,$,#89,#101,#196,.FINISH_FINISH.,$);
#198=IFCRELSEQUENCE('3p_VexkttL3N37wHrJ9rKV',#6,$,$,#101,#107,$,.FINISH_START.,$);
#199=IFCLAGTIME('Lag',.PREDICTED.,$,IFCDURATION('P21D'),.WORKTIME.);
#200=IFCRELSEQUENCE('2HnxYtLlv9ILkH71LvK5N1',#6,$,$,#107,#119,#199,.START_START.,$);
#201=IFCRELSEQUENCE('fzVzozrlrt_bpZt$HL1xj3',#6,$,$,#133,#137,$,.FINISH_START.,$);
#202=IFCCREWRESOURCE('7hYLnFhlrzm$mRe107u$ox',#6,'Restoration crew','Overarching restoration crew for the shell; small crews because of the narrow canal-side site',$,$,$,$,.USERDEFINED.);
#203=IFCLABORRESOURCE('X$7rVDk9LPyDytSn7$fh_z',#6,'Restoration bricklayers','Bricklayers in restoration work (historic bond and pointing) — restoration rate',$,$,$,$,.USERDEFINED.);
#204=IFCLABORRESOURCE('xnXh5B$72ZCZ9Bg1JbVDiJ',#6,'Carpenters','Roof structure and joinery; peaks at 5 where the roof works overlap the window frames',$,$,$,$,.USERDEFINED.);
#205=IFCLABORRESOURCE('QXbHpnKFwz_9TroVy7CR9p',#6,'Plasterers',$,$,$,$,$,.USERDEFINED.);
#206=IFCCONSTRUCTIONEQUIPMENTRESOURCE('DhDvRXJFK9khorQ1IZa3bR',#6,'Mobile crane','One crane slot on the quay — the canal street has room for nothing more',$,$,$,$,.USERDEFINED.);
#207=IFCSUBCONTRACTRESOURCE('nd2rJzrldpYfBJ5FEpQD0f',#6,'Piling contractor','Sheet piling and foundation piles, low-vibration technique for the inner city',$,$,$,$,.USERDEFINED.);
#208=IFCCONSTRUCTIONMATERIALRESOURCE('N7qDd56vQVEvc3rFhPm9yL',#6,'Concrete C20/25',$,$,$,$,$,.USERDEFINED.);
#209=IFCPROPERTYSINGLEVALUE('Color',$,IFCTEXT('#1E293B'),$);
#210=IFCPROPERTYSET('bVRlDF41qZATl90VzDMTvf',#6,'OPS_Resource',$,(#209));
#211=IFCRELDEFINESBYPROPERTIES('_D2VO3z1CdyhY3N$wJlzPh',#6,$,$,(#202),#210);
#212=IFCPROPERTYSINGLEVALUE('MaxUnits',$,IFCREAL(3),$);
#213=IFCPROPERTYSINGLEVALUE('CostPerHour',$,IFCMONETARYMEASURE(52),$);
#214=IFCPROPERTYSINGLEVALUE('Color',$,IFCTEXT('#B91C1C'),$);
#215=IFCPROPERTYSINGLEVALUE('ParentGuid',$,IFCTEXT('7hYLnFhlrzm$mRe107u$ox'),$);
#216=IFCPROPERTYSET('phBFpjRX7No7knjFb$H3dB',#6,'OPS_Resource',$,(#212,#213,#214,#215));
#217=IFCRELDEFINESBYPROPERTIES('cVTfanKXt$vDe11XMFXbz7',#6,$,$,(#203),#216);
#218=IFCPROPERTYSINGLEVALUE('MaxUnits',$,IFCREAL(5),$);
#219=IFCPROPERTYSINGLEVALUE('CostPerHour',$,IFCMONETARYMEASURE(45),$);
#220=IFCPROPERTYSINGLEVALUE('Color',$,IFCTEXT('#DB2777'),$);
#221=IFCPROPERTYSINGLEVALUE('ParentGuid',$,IFCTEXT('7hYLnFhlrzm$mRe107u$ox'),$);
#222=IFCPROPERTYSET('nvsvzLCXHX_trdw$C3mNo5',#6,'OPS_Resource',$,(#218,#219,#220,#221));
#223=IFCRELDEFINESBYPROPERTIES('ApF56ZuvkLDPqB2Vbbk$sZ',#6,$,$,(#204),#222);
#224=IFCPROPERTYSINGLEVALUE('MaxUnits',$,IFCREAL(3),$);
#225=IFCPROPERTYSINGLEVALUE('CostPerHour',$,IFCMONETARYMEASURE(42),$);
#226=IFCPROPERTYSINGLEVALUE('Color',$,IFCTEXT('#C2410C'),$);
#227=IFCPROPERTYSET('IfuFxlNfmjcD8981sbgfwR',#6,'OPS_Resource',$,(#224,#225,#226));
#228=IFCRELDEFINESBYPROPERTIES('h3XzM5FvE51ZbL6lNNERfZ',#6,$,$,(#205),#227);
#229=IFCPROPERTYSINGLEVALUE('CostPerHour',$,IFCMONETARYMEASURE(95),$);
#230=IFCPROPERTYSINGLEVALUE('Color',$,IFCTEXT('#6366F1'),$);
#231=IFCPROPERTYSET('7hAZeRcVlV6$WDznqz07TN',#6,'OPS_Resource',$,(#229,#230));
#232=IFCRELDEFINESBYPROPERTIES('kfelZfPtpR37g9ClIz8nhN',#6,$,$,(#206),#231);
#233=IFCPROPERTYSINGLEVALUE('MaxUnits',$,IFCREAL(2),$);
#234=IFCPROPERTYSINGLEVALUE('CostPerHour',$,IFCMONETARYMEASURE(78),$);
#235=IFCPROPERTYSINGLEVALUE('Color',$,IFCTEXT('#0D9488'),$);
#236=IFCPROPERTYSET('Z3KjbX5VvTSJgrYVfDDdPP',#6,'OPS_Resource',$,(#233,#234,#235));
#237=IFCRELDEFINESBYPROPERTIES('A92V0HlPV7rF5l$V4BrFhf',#6,$,$,(#207),#236);
#238=IFCPROPERTYSINGLEVALUE('MaxUnits',$,IFCREAL(999),$);
#239=IFCPROPERTYSINGLEVALUE('UnitOfMeasure',$,IFCLABEL('m³'),$);
#240=IFCPROPERTYSINGLEVALUE('Color',$,IFCTEXT('#D97706'),$);
#241=IFCPROPERTYSET('3HNJxn5FKf_tjJf$6J$jA3',#6,'OPS_Resource',$,(#238,#239,#240));
#242=IFCRELDEFINESBYPROPERTIES('SzCx6Tmf0hpPCnlXvXbnb$',#6,$,$,(#208),#241);
#243=IFCRELNESTS('1jwpJVol9$t3v1znKp2rSR',#6,'Ploeg Restoration crew',$,#202,(#203,#204));
#244=IFCRELASSIGNSTOPROCESS('ibL$wPwXvfMFZh6H$307$t',#6,$,$,(#207),$,#47,$);
#245=IFCRELASSIGNSTOPROCESS('bR8Fl5Hvu9nL6jv1FfobfZ',#6,$,$,(#207),$,#59,$);
#246=IFCRELASSIGNSTOPROCESS('F7gPple7a1VbX5O$v17RdB',#6,$,$,(#208),$,#63,$);
#247=IFCRELASSIGNSTOPROCESS('QXBXCRjnGz8vgtClULdJw5',#6,$,$,(#208),$,#65,$);
#248=IFCRELASSIGNSTOPROCESS('gTBXSJIH5nHJELYFHPK59F',#6,$,$,(#203),$,#73,$);
#249=IFCRELASSIGNSTOPROCESS('o7U$2hqV7zOdmxKF69Yndd',#6,$,$,(#206),$,#75,$);
#250=IFCRELASSIGNSTOPROCESS('lt4rr7o9tXhlRrA$nRtr09',#6,$,$,(#203),$,#77,$);
#251=IFCRELASSIGNSTOPROCESS('wh6pNp7tLJATP3hFjfQDyd',#6,$,$,(#206),$,#79,$);
#252=IFCRELASSIGNSTOPROCESS('0ltp$d_nKp0FxnJn1XvD4h',#6,$,$,(#203),$,#81,$);
#253=IFCRELASSIGNSTOPROCESS('jRDPJ$QvOHmVg94nfjlzdh',#6,$,$,(#206),$,#83,$);
#254=IFCRELASSIGNSTOPROCESS('bbuXGfuPhJoByf8$ITK5Hr',#6,$,$,(#203),$,#85,$);
#255=IFCRELASSIGNSTOPROCESS('iRJv$TW9JLFh6pZn6NULsP',#6,$,$,(#204,#206),$,#87,$);
#256=IFCRELASSIGNSTOPROCESS('G94T4V2FSBDdqLAHODj7FX',#6,$,$,(#204),$,#89,$);
#257=IFCRELASSIGNSTOPROCESS('WX5FTRYnon9bNvMHglLl1t',#6,$,$,(#204),$,#99,$);
#258=IFCRELASSIGNSTOPROCESS('a1ljRVbXNFPBCh2n7X5Hb5',#6,$,$,(#205),$,#121,$);
#259=IFCPROPERTYSINGLEVALUE('nd2rJzrldpYfBJ5FEpQD0f#0',$,IFCTEXT('2|UNIFORM'),$);
#260=IFCPROPERTYSET('TV5FJzz$4l37grs$$3unTb',#6,'OPS_Assignments',$,(#259));
#261=IFCRELDEFINESBYPROPERTIES('4J6DXNOPjrLlzPs1Jtgfgp',#6,$,$,(#47),#260);
#262=IFCPROPERTYSINGLEVALUE('nd2rJzrldpYfBJ5FEpQD0f#0',$,IFCTEXT('2|UNIFORM'),$);
#263=IFCPROPERTYSET('k9ahHVr18NBn35SnBJFTzr',#6,'OPS_Assignments',$,(#262));
#264=IFCRELDEFINESBYPROPERTIES('hz9xwT8PVRDtZBg$bVxHrZ',#6,$,$,(#59),#263);
#265=IFCPROPERTYSINGLEVALUE('N7qDd56vQVEvc3rFhPm9yL#0',$,IFCTEXT('40|FRONT_LOADED'),$);
#266=IFCPROPERTYSET('e3$TOb_nyHrnRXJlxF1xLf',#6,'OPS_Assignments',$,(#265));
#267=IFCRELDEFINESBYPROPERTIES('1HNJbXbVfH37QlpHD707$f',#6,$,$,(#63),#266);
#268=IFCPROPERTYSINGLEVALUE('N7qDd56vQVEvc3rFhPm9yL#0',$,IFCTEXT('30|FRONT_LOADED'),$);
#269=IFCPROPERTYSET('Z3ibCv791r5VIFbHITyhIL',#6,'OPS_Assignments',$,(#268));
#270=IFCRELDEFINESBYPROPERTIES('sNwDtTFPPve9ZrIVI3073P',#6,$,$,(#65),#269);
#271=IFCPROPERTYSINGLEVALUE('X$7rVDk9LPyDytSn7$fh_z#0',$,IFCTEXT('3|UNIFORM'),$);
#272=IFCPROPERTYSET('XVz9_7Vd19lrunrHVHnTzr',#6,'OPS_Assignments',$,(#271));
#273=IFCRELDEFINESBYPROPERTIES('6hMzYRIHdDAltBM1BNwj6X',#6,$,$,(#73),#272);
#274=IFCPROPERTYSINGLEVALUE('DhDvRXJFK9khorQ1IZa3bR#0',$,IFCTEXT('1|UNIFORM'),$);
#275=IFCPROPERTYSET('fznDXt4$q7G1e7oFw9EVWd',#6,'OPS_Assignments',$,(#274));
#276=IFCRELDEFINESBYPROPERTIES('_nxX8LqXLPaJkH7$T3WPxF',#6,$,$,(#75),#275);
#277=IFCPROPERTYSINGLEVALUE('X$7rVDk9LPyDytSn7$fh_z#0',$,IFCTEXT('3|UNIFORM'),$);
#278=IFCPROPERTYSET('8Jb1_dTlhpkdeVhn71vbz7',#6,'OPS_Assignments',$,(#277));
#279=IFCRELDEFINESBYPROPERTIES('XXblBTed$fT97$pFNfA35r',#6,$,$,(#77),#278);
#280=IFCPROPERTYSINGLEVALUE('DhDvRXJFK9khorQ1IZa3bR#0',$,IFCTEXT('1|UNIFORM'),$);
#281=IFCPROPERTYSET('nP_BlbJn8X61unTFwpTNE9',#6,'OPS_Assignments',$,(#280));
#282=IFCRELDEFINESBYPROPERTIES('sD7Ze3pXRLhHrDFX1XfZh9',#6,$,$,(#79),#281);
#283=IFCPROPERTYSINGLEVALUE('X$7rVDk9LPyDytSn7$fh_z#0',$,IFCTEXT('3|UNIFORM'),$);
#284=IFCPROPERTYSET('tNQjdftNwFSBmBkV2fQpK$',#6,'OPS_Assignments',$,(#283));
#285=IFCRELDEFINESBYPROPERTIES('mtKbGv_f636$43d$nRvbR5',#6,$,$,(#81),#284);
#286=IFCPROPERTYSINGLEVALUE('DhDvRXJFK9khorQ1IZa3bR#0',$,IFCTEXT('1|UNIFORM'),$);
#287=IFCPROPERTYSET('SVh12BGNOF4LAvUnHvGfAT',#6,'OPS_Assignments',$,(#286));
#288=IFCRELDEFINESBYPROPERTIES('3jEbKhDVJ9tz1hMH6fk59l',#6,$,$,(#83),#287);
#289=IFCPROPERTYSINGLEVALUE('X$7rVDk9LPyDytSn7$fh_z#0',$,IFCTEXT('2|UNIFORM'),$);
#290=IFCPROPERTYSET('I9C5IlW9LvufHtO$rphXuj',#6,'OPS_Assignments',$,(#289));
#291=IFCRELDEFINESBYPROPERTIES('h3vrht4Hp5nDWjHVNt_HBT',#6,$,$,(#85),#290);
#292=IFCPROPERTYSINGLEVALUE('xnXh5B$72ZCZ9Bg1JbVDiJ#0',$,IFCTEXT('3|UNIFORM'),$);
#293=IFCPROPERTYSINGLEVALUE('DhDvRXJFK9khorQ1IZa3bR#1',$,IFCTEXT('1|UNIFORM'),$);
#294=IFCPROPERTYSET('ZVTfWVzHFHGVEV5nglLlVP',#6,'OPS_Assignments',$,(#292,#293));
#295=IFCRELDEFINESBYPROPERTIES('4jk5oVUFQ16JcTXX4vyTb1',#6,$,$,(#87),#294);
#296=IFCPROPERTYSINGLEVALUE('xnXh5B$72ZCZ9Bg1JbVDiJ#0',$,IFCTEXT('2|UNIFORM'),$);
#297=IFCPROPERTYSET('vlZNCb5XZpeP89WXRRYnvN',#6,'OPS_Assignments',$,(#296));
#298=IFCRELDEFINESBYPROPERTIES('W$7rt1otJfb1qB_XXj2lln',#6,$,$,(#89),#297);
#299=IFCPROPERTYSINGLEVALUE('xnXh5B$72ZCZ9Bg1JbVDiJ#0',$,IFCTEXT('2|UNIFORM'),$);
#300=IFCPROPERTYSET('Nv4BvPpFc$ILcTnVbXRFDp',#6,'OPS_Assignments',$,(#299));
#301=IFCRELDEFINESBYPROPERTIES('Gd6pdRM$U7G$WpbHA5_ryh',#6,$,$,(#99),#300);
#302=IFCPROPERTYSINGLEVALUE('QXbHpnKFwz_9TroVy7CR9p#0',$,IFCTEXT('3|UNIFORM'),$);
#303=IFCPROPERTYSET('RbG71T8PPPSBKRqHgHR$21',#6,'OPS_Assignments',$,(#302));
#304=IFCRELDEFINESBYPROPERTIES('C96tMXzH5nf5ltWXh3PJQr',#6,$,$,(#121),#303);
#305=IFCRELASSIGNSTOCONTROL('rDVhNjbXHjyDCF$VkTSruD',#6,$,$,(#43,#45,#47,#49,#51,#53,#55,#57,#59,#61,#63,#65,#67,#69,#71,#73,#75,#77,#79,#81,#83,#85,#87,#89,#91,#93,#95,#97,#99,#101,#103,#105,#107,#109,#111,#113,#115,#117,#119,#121,#123,#125,#127,#129,#131,#133,#135,#137,#139,#141,#143),$,#40);
#306=IFCPROPERTYSINGLEVALUE('InternalProjectId',$,IFCTEXT('proj-mtx91eqf8vxo1107'),$);
#307=IFCPROPERTYSINGLEVALUE('wbsAutoNumber',$,IFCBOOLEAN(.T.),$);
#308=IFCPROPERTYSINGLEVALUE('DefaultTaskDurationUnit',$,IFCLABEL('days'),$);
#309=IFCPROPERTYSINGLEVALUE('ProjectStartDate',$,IFCDATE('2027-03-01'),$);
#310=IFCPROPERTYSINGLEVALUE('ProjectEndDate',$,$,$);
#311=IFCPROPERTYSINGLEVALUE('CreatedAt',$,IFCTEXT('2026-09-11T17:47:43.959Z'),$);
#312=IFCPROPERTYSINGLEVALUE('ModifiedAt',$,IFCTEXT('2026-09-11T17:47:43.960Z'),$);
#313=IFCPROPERTYSET('e5a3ArlP$tNZvpDF1ZK5n5',#6,'OPS_ProjectSettings',$,(#306,#307,#308,#309,#310,#311,#312));
#314=IFCRELDEFINESBYPROPERTIES('0Hdzo1sPJhdjQlBF$1BF9l',#6,$,$,(#13),#313);
#315=IFCPROPERTYSINGLEVALUE('InternalTaskId',$,IFCTEXT('task-mtx91eqrgrdk1115'),$);
#316=IFCPROPERTYSET('UZO$MX5Xhv8vUN4F5HBFFR',#6,'OPS_TaskIdentity',$,(#315));
#317=IFCRELDEFINESBYPROPERTIES('R11TyZe7mDw$OdEX8Zb$QH',#6,$,$,(#43),#316);
#318=IFCPROPERTYSINGLEVALUE('InternalTaskId',$,IFCTEXT('task-mtx91eqs379l1116'),$);
#319=IFCPROPERTYSET('5FFxE3jVb1t3VxmXYvu1QF',#6,'OPS_TaskIdentity',$,(#318));
#320=IFCRELDEFINESBYPROPERTIES('qrn56ZW9p5NxBpd1Cn15HL',#6,$,$,(#45),#319);
#321=IFCPROPERTYSINGLEVALUE('InternalTaskId',$,IFCTEXT('task-mtx91eqto4eo1117'),$);
#322=IFCPROPERTYSET('XzaLpHOPbVZtXbSFjtQvHn',#6,'OPS_TaskIdentity',$,(#321));
#323=IFCRELDEFINESBYPROPERTIES('Q1vBlxtfKNkdWJv1bVxlnX',#6,$,$,(#47),#322);
#324=IFCPROPERTYSINGLEVALUE('InternalTaskId',$,IFCTEXT('task-mtx91equy62c1118'),$);
#325=IFCPROPERTYSET('0HF5UfldH$6jwpLH3lnTTR',#6,'OPS_TaskIdentity',$,(#324));
#326=IFCRELDEFINESBYPROPERTIES('7nd3_LCV7ZSBO7knKpgZ9H',#6,$,$,(#49),#325);
#327=IFCPROPERTYSINGLEVALUE('InternalTaskId',$,IFCTEXT('task-mtx91eqvux0p1119'),$);
#328=IFCPROPERTYSET('tfkxYx67UDMFTrIXk1hHX7',#6,'OPS_TaskIdentity',$,(#327));
#329=IFCRELDEFINESBYPROPERTIES('2p696ziF6l8fdZHXdlTt8J',#6,$,$,(#51),#328);
#330=IFCPROPERTYSINGLEVALUE('InternalTaskId',$,IFCTEXT('task-mtx91eqxd6dk1120'),$);
#331=IFCPROPERTYSET('5lxVe5E9Z$or8NClARI$AP',#6,'OPS_TaskIdentity',$,(#330));
#332=IFCRELDEFINESBYPROPERTIES('qLxXy34$mZCxpn91$Za3xB',#6,$,$,(#53),#331);
#333=IFCPROPERTYSINGLEVALUE('InternalTaskId',$,IFCTEXT('task-mtx91eqytjm01121'),$);
#334=IFCPROPERTYSET('vnfjlRzl$NxVIl$Va9oX8b',#6,'OPS_TaskIdentity',$,(#333));
#335=IFCRELDEFINESBYPROPERTIES('orNJb1Fvk$vD8Ht$Opr1kr',#6,$,$,(#55),#334);
#336=IFCPROPERTYSINGLEVALUE('InternalTaskId',$,IFCTEXT('task-mtx91eqz6ga21122'),$);
#337=IFCPROPERTYSET('EPk5UNNNylRXEVrnphVRv5',#6,'OPS_TaskIdentity',$,(#336));
#338=IFCRELDEFINESBYPROPERTIES('vBY1EZ9fkBlB4z91W9s9S9',#6,$,$,(#57),#337);
#339=IFCPROPERTYSINGLEVALUE('InternalTaskId',$,IFCTEXT('task-mtx91er0l51p1123'),$);
#340=IFCPROPERTYSET('Ern5Y5sPhdCZjX71l7unxl',#6,'OPS_TaskIdentity',$,(#339));
#341=IFCRELDEFINESBYPROPERTIES('h7ibGf0tD7z7oLcHB9k1UF',#6,$,$,(#59),#340);
#342=IFCPROPERTYSINGLEVALUE('InternalTaskId',$,IFCTEXT('task-mtx91er1fagc1124'),$);
#343=IFCPROPERTYSET('XZmvpjL$stHBuNSlznJ7xB',#6,'OPS_TaskIdentity',$,(#342));
#344=IFCRELDEFINESBYPROPERTIES('cXpP9z3189HB4talPHJ79p',#6,$,$,(#61),#343);
#345=IFCPROPERTYSINGLEVALUE('InternalTaskId',$,IFCTEXT('task-mtx91er3z2t51125'),$);
#346=IFCPROPERTYSET('a1HJVD2fYpAHhz71B9c7r3',#6,'OPS_TaskIdentity',$,(#345));
#347=IFCRELDEFINESBYPROPERTIES('hZxnTb_nShPj6DbHQvKJUF',#6,$,$,(#63),#346);
#348=IFCPROPERTYSINGLEVALUE('InternalTaskId',$,IFCTEXT('task-mtx91er4i5331126'),$);
#349=IFCPROPERTYSET('PxyB$3yl7TKzb1t1hTzNs3',#6,'OPS_TaskIdentity',$,(#348));
#350=IFCRELDEFINESBYPROPERTIES('W1PLZNNfyb372DnXvRgfYl',#6,$,$,(#65),#349);
#351=IFCPROPERTYSINGLEVALUE('InternalTaskId',$,IFCTEXT('task-mtx91er5tfg41127'),$);
#352=IFCPROPERTYSET('ohjPRxtN8XkdqL6HJfwJsz',#6,'OPS_TaskIdentity',$,(#351));
#353=IFCRELDEFINESBYPROPERTIES('LPuFDp9NC3YfRroX0veltp',#6,$,$,(#67),#352);
#354=IFCPROPERTYSINGLEVALUE('InternalTaskId',$,IFCTEXT('task-mtx91er7nsh91128'),$);
#355=IFCPROPERTYSET('8jZN8B8dbBXbLtO$a5bnHL',#6,'OPS_TaskIdentity',$,(#354));
#356=IFCRELDEFINESBYPROPERTIES('nLTfalevyn9bVbaFXjstuR',#6,$,$,(#69),#355);
#357=IFCPROPERTYSINGLEVALUE('InternalTaskId',$,IFCTEXT('task-mtx91er88sv31129'),$);
#358=IFCPROPERTYSET('KbrXOTldNbD9pT9$ftk$2V',#6,'OPS_TaskIdentity',$,(#357));
#359=IFCRELDEFINESBYPROPERTIES('D7Y$cfGNUjsTBDv$sb6P7N',#6,$,$,(#71),#358);
#360=IFCPROPERTYSINGLEVALUE('InternalTaskId',$,IFCTEXT('task-mtx91er9hro71130'),$);
#361=IFCPROPERTYSET('Z34rFhDVpvZdqLsleDxHpH',#6,'OPS_TaskIdentity',$,(#360));
#362=IFCRELDEFINESBYPROPERTIES('a1dLJ1cvC3Id0zBFbXJ7j1',#6,$,$,(#73),#361);
#363=IFCPROPERTYSINGLEVALUE('InternalTaskId',$,IFCTEXT('task-mtx91eradjfq1131'),$);
#364=IFCPROPERTYSET('b$$TiLxnGTqZZ9CnqHb1Ir',#6,'OPS_TaskIdentity',$,(#363));
#365=IFCRELDEFINESBYPROPERTIES('iRpdpFS$cJiRxHXV6tI1cL',#6,$,$,(#75),#364);
#366=IFCPROPERTYSINGLEVALUE('InternalTaskId',$,IFCTEXT('task-mtx91erbskrh1132'),$);
#367=IFCPROPERTYSET('4lLHPRIllXIdavcl1XHryr',#6,'OPS_TaskIdentity',$,(#366));
#368=IFCRELDEFINESBYPROPERTIES('BjhlRbh1MRptRVrn1XvDqT',#6,$,$,(#77),#367);
#369=IFCPROPERTYSINGLEVALUE('InternalTaskId',$,IFCTEXT('task-mtx91erdqopf1133'),$);
#370=IFCPROPERTYSET('JbrVihrH9BlrOXhFb5ULch',#6,'OPS_TaskIdentity',$,(#369));
#371=IFCRELDEFINESBYPROPERTIES('qtU$MbzH9rnhAbGXqnVRZf',#6,$,$,(#79),#370);
#372=IFCPROPERTYSINGLEVALUE('InternalTaskId',$,IFCTEXT('task-mtx91erexmad1134'),$);
#373=IFCPROPERTYSET('DPcjlx7979oBuHHV9P8FnR',#6,'OPS_TaskIdentity',$,(#372));
#374=IFCRELDEFINESBYPROPERTIES('wB2V8rmfk1t3vXnVTTaB4v',#6,$,$,(#81),#373);
#375=IFCPROPERTYSINGLEVALUE('InternalTaskId',$,IFCTEXT('task-mtx91erfx2i21135'),$);
#376=IFCPROPERTYSET('WVblRbbXfFdrWjFVzpwJUp',#6,'OPS_TaskIdentity',$,(#375));
#377=IFCRELDEFINESBYPROPERTIES('P1Fp7rmf0LxV_J5F_92ltD',#6,$,$,(#83),#376);
#378=IFCPROPERTYSINGLEVALUE('InternalTaskId',$,IFCTEXT('task-mtx91erh7yco1136'),$);
#379=IFCPROPERTYSET('EB1BVDUNS1djcFf$5n153r',#6,'OPS_TaskIdentity',$,(#378));
#380=IFCRELDEFINESBYPROPERTIES('L7ahlX3HH1Y5pn$X2tA9ip',#6,$,$,(#85),#379);
#381=IFCPROPERTYSINGLEVALUE('InternalTaskId',$,IFCTEXT('task-mtx91erik8jz1137'),$);
#382=IFCPROPERTYSET('X3qpFFDVnzAHJ$RHQZ5V4B',#6,'OPS_TaskIdentity',$,(#381));
#383=IFCRELDEFINESBYPROPERTIES('c1ljZbcVZJCx7pZn_fEbVv',#6,$,$,(#87),#382);
#384=IFCPROPERTYSINGLEVALUE('InternalTaskId',$,IFCTEXT('task-mtx91erk40su1138'),$);
#385=IFCPROPERTYSET('znDvb1Hvif2tlZRH_fA3pn',#6,'OPS_TaskIdentity',$,(#384));
#386=IFCRELDEFINESBYPROPERTIES('sjpv91AP$fzfP35ns5QpCz',#6,$,$,(#89),#385);
#387=IFCPROPERTYSINGLEVALUE('InternalTaskId',$,IFCTEXT('task-mtx91erl5c9d1139'),$);
#388=IFCPROPERTYSET('WVDdXta1w329xnrHZTqpWP',#6,'OPS_TaskIdentity',$,(#387));
#389=IFCRELDEFINESBYPROPERTIES('P$PL37lva$15$1HV$zG9qZ',#6,$,$,(#91),#388);
#390=IFCPROPERTYSINGLEVALUE('InternalTaskId',$,IFCTEXT('task-mtx91ernnkdw1140'),$);
#391=IFCPROPERTYSET('FrnxE$c74nljY31XijQvr3',#6,'OPS_TaskIdentity',$,(#390));
#392=IFCRELDEFINESBYPROPERTIES('MvibSlGfMxNxZt4nPLeVq3',#6,$,$,(#93),#391);
#393=IFCPROPERTYSINGLEVALUE('InternalTaskId',$,IFCTEXT('task-mtx91ero0d6f1141'),$);
#394=IFCPROPERTYSET('R1HJjZvtbr15nds$jNULM9',#6,'OPS_TaskIdentity',$,(#393));
#395=IFCRELDEFINESBYPROPERTIES('KbZfuJjnWxPBi$jFLdeHZf',#6,$,$,(#95),#394);
#396=IFCPROPERTYSINGLEVALUE('InternalTaskId',$,IFCTEXT('task-mtx91erqyplh1142'),$);
#397=IFCPROPERTYSET('fd8VOZnPDdfxrjpl$z8nvN',#6,'OPS_TaskIdentity',$,(#396));
#398=IFCRELDEFINESBYPROPERTIES('UT8XqRZlpPfxLTxlGFhXWd',#6,$,$,(#97),#397);
#399=IFCPROPERTYSINGLEVALUE('InternalTaskId',$,IFCTEXT('task-mtx91errdtz71143'),$);
#400=IFCPROPERTYSET('j9qxsB1vobrFVbalDv81g9',#6,'OPS_TaskIdentity',$,(#399));
#401=IFCRELDEFINESBYPROPERTIES('QxqxUbg$UPSBGrYVHP4TZx',#6,$,$,(#99),#400);
#402=IFCPROPERTYSINGLEVALUE('InternalTaskId',$,IFCTEXT('task-mtx91ertvxxm1144'),$);
#403=IFCPROPERTYSET('W1PLZtpXBTKzBvAHK17RhJ',#6,'OPS_TaskIdentity',$,(#402));
#404=IFCRELDEFINESBYPROPERTIES('PXpP$v_NMxlJ6$pFjNIx5n',#6,$,$,(#101),#403);
#405=IFCPROPERTYSINGLEVALUE('InternalTaskId',$,IFCTEXT('task-mtx91eruay191145'),$);
#406=IFCPROPERTYSET('L3HJb$vtBZqx1$lXbREXSR',#6,'OPS_TaskIdentity',$,(#405));
#407=IFCRELDEFINESBYPROPERTIES('oPULH1n7Upw1e1N$vxwjQn',#6,$,$,(#103),#406);
#408=IFCPROPERTYSINGLEVALUE('InternalTaskId',$,IFCTEXT('task-mtx91erwrqk51146'),$);
#409=IFCPROPERTYSET('tfYLpHuvk$tzhNCH_5r1YJ',#6,'OPS_TaskIdentity',$,(#408));
#410=IFCRELDEFINESBYPROPERTIES('_DMddbM1wn4peVZlKX5Hj$',#6,$,$,(#105),#409);
#411=IFCPROPERTYSINGLEVALUE('InternalTaskId',$,IFCTEXT('task-mtx91eryc7f31147'),$);
#412=IFCPROPERTYSET('odk5g$$PTXkPGhwlzlXpKp',#6,'OPS_TaskIdentity',$,(#411));
#413=IFCRELDEFINESBYPROPERTIES('vBU$MxVddjcDm54nb$P5b$',#6,$,$,(#107),#412);
#414=IFCPROPERTYSINGLEVALUE('InternalTaskId',$,IFCTEXT('task-mtx91es053tr1148'),$);
#415=IFCPROPERTYSET('SXh$gbjFufzNTNWVf9I$gf',#6,'OPS_TaskIdentity',$,(#414));
#416=IFCRELDEFINESBYPROPERTIES('hzVz6vgd3nSrCFFXDrBFlL',#6,$,$,(#109),#415);
#417=IFCPROPERTYSINGLEVALUE('InternalTaskId',$,IFCTEXT('task-mtx91es1kjtc1149'),$);
#418=IFCPROPERTYSET('eRWNy3y1S1dJo1d10ParOT',#6,'OPS_TaskIdentity',$,(#417));
#419=IFCRELDEFINESBYPROPERTIES('VZWfWVL$QpWlbrs$lBDPDJ',#6,$,$,(#111),#418);
#420=IFCPROPERTYSINGLEVALUE('InternalTaskId',$,IFCTEXT('task-mtx91es3f1rx1150'),$);
#421=IFCPROPERTYSET('j9KjDptfOdHj6pLHtvKjYp',#6,'OPS_TaskIdentity',$,(#420));
#422=IFCRELDEFINESBYPROPERTIES('c5iJ13a$6z6$SDd$Wf2rKj',#6,$,$,(#113),#421);
#423=IFCPROPERTYSINGLEVALUE('InternalTaskId',$,IFCTEXT('task-mtx91es4kgby1151'),$);
#424=IFCPROPERTYSET('9f_B5nT1Qp0nPF91xL0v$N',#6,'OPS_TaskIdentity',$,(#423));
#425=IFCRELDEFINESBYPROPERTIES('_pAvfFS1_z0nX5mXm$hHfT',#6,$,$,(#115),#424);
#426=IFCPROPERTYSINGLEVALUE('InternalTaskId',$,IFCTEXT('task-mtx91es6u9c71152'),$);
#427=IFCPROPERTYSET('Vz4ZebUFI1FhkxmXsbEV8D',#6,'OPS_TaskIdentity',$,(#426));
#428=IFCRELDEFINESBYPROPERTIES('c1VzMRzH5lzv6pLl5rqDu5',#6,$,$,(#117),#427);
#429=IFCPROPERTYSINGLEVALUE('InternalTaskId',$,IFCTEXT('task-mtx91es704cu1153'),$);
#430=IFCPROPERTYSET('1D2VyTmNk$vDO7Ql5FlBOr',#6,'OPS_TaskIdentity',$,(#429));
#431=IFCRELDEFINESBYPROPERTIES('wnP3Y5Q7S1PJUtGXAboVyd',#6,$,$,(#119),#430);
#432=IFCPROPERTYSINGLEVALUE('InternalTaskId',$,IFCTEXT('task-mtx91es9xzp91154'),$);
#433=IFCPROPERTYSET('fd09_PbXBZaBWjFVJxpdTb',#6,'OPS_TaskIdentity',$,(#432));
#434=IFCRELDEFINESBYPROPERTIES('YZ09c9qVTDufhTDFrjNhUj',#6,$,$,(#121),#433);
#435=IFCPROPERTYSINGLEVALUE('InternalTaskId',$,IFCTEXT('task-mtx91esbqc651155'),$);
#436=IFCPROPERTYSET('vFlbeZ7tRh5VkbKHmHfLgj',#6,'OPS_TaskIdentity',$,(#435));
#437=IFCRELDEFINESBYPROPERTIES('ErHRyzy1m3ufHtWX3FxlJ$',#6,$,$,(#123),#436);
#438=IFCPROPERTYSINGLEVALUE('InternalTaskId',$,IFCTEXT('task-mtx91esdxe4j1156'),$);
#439=IFCPROPERTYSET('4JQjR$9fuN3N55e$GXFhUn',#6,'OPS_TaskIdentity',$,(#438));
#440=IFCRELDEFINESBYPROPERTIES('zHXLvhink$nhU3nX7xI5lh',#6,$,$,(#125),#439);
#441=IFCPROPERTYSINGLEVALUE('InternalTaskId',$,IFCTEXT('task-mtx91ese2mxj1157'),$);
#442=IFCPROPERTYSET('8jb1g$dtl$Y5xbCFWNQp8p',#6,'OPS_TaskIdentity',$,(#441));
#443=IFCRELDEFINESBYPROPERTIES('nLb16TWtr9gz9fO$W9Q7$N',#6,$,$,(#127),#442);
#444=IFCPROPERTYSINGLEVALUE('InternalTaskId',$,IFCTEXT('task-mtx91esg4p7x1158'),$);
#445=IFCPROPERTYSET('R5azYb_niJibLte1yvKj21',#6,'OPS_TaskIdentity',$,(#444));
#446=IFCRELDEFINESBYPROPERTIES('Y1$TCbTH$L$xh3P$Fxjv3d',#6,$,$,(#129),#445);
#447=IFCPROPERTYSINGLEVALUE('InternalTaskId',$,IFCTEXT('task-mtx91esiazgq1159'),$);
#448=IFCPROPERTYSET('4nXLfj5XvTCxFvEFUh$5Lt',#6,'OPS_TaskIdentity',$,(#447));
#449=IFCRELDEFINESBYPROPERTIES('rD9pr3a1MbhHXnBH9ZxVWP',#6,$,$,(#131),#448);
#450=IFCPROPERTYSINGLEVALUE('InternalTaskId',$,IFCTEXT('task-mtx91eskaa9n1160'),$);
#451=IFCPROPERTYSET('Ib5nFr1vc$ErClTlOjtriV',#6,'OPS_TaskIdentity',$,(#450));
#452=IFCRELDEFINESBYPROPERTIES('B9IlNpH74RJfJVlVDdixb$',#6,$,$,(#133),#451);
#453=IFCPROPERTYSINGLEVALUE('InternalTaskId',$,IFCTEXT('task-mtx91esnkgl11161'),$);
#454=IFCPROPERTYSET('U3a3g$FvM5lJcn$XARstiV',#6,'OPS_TaskIdentity',$,(#453));
#455=IFCRELDEFINESBYPROPERTIES('RXrVirNfShnhoV5nc3$5jT',#6,$,$,(#135),#454);
#456=IFCPROPERTYSINGLEVALUE('InternalTaskId',$,IFCTEXT('task-mtx91esp6k6t1162'),$);
#457=IFCPROPERTYSET('J94ZirPtZj4Dixu$Ej6d5n',#6,'OPS_TaskIdentity',$,(#456));
#458=IFCRELDEFINESBYPROPERTIES('Q5yZ8hS1Ud4pOdQ1_x39yd',#6,$,$,(#137),#457);
#459=IFCPROPERTYSINGLEVALUE('InternalTaskId',$,IFCTEXT('task-mtx91esr589u1163'),$);
#460=IFCPROPERTYSET('_FhHrzyHXPHjIn5lqZK5tn',#6,'OPS_TaskIdentity',$,(#459));
#461=IFCRELDEFINESBYPROPERTIES('9j39QJwXT12RJDTFwNgZvN',#6,$,$,(#139),#460);
#462=IFCPROPERTYSINGLEVALUE('InternalTaskId',$,IFCTEXT('task-mtx91ess9dim1164'),$);
#463=IFCPROPERTYSET('qNULPx6vwHOP0zBFZZK5bX',#6,'OPS_TaskIdentity',$,(#462));
#464=IFCRELDEFINESBYPROPERTIES('5B_XW$1d7NgFnpv$MHxVyP',#6,$,$,(#141),#463);
#465=IFCPROPERTYSINGLEVALUE('InternalTaskId',$,IFCTEXT('task-mtx91esuf7hf1165'),$);
#466=IFCPROPERTYSET('tN_rzh4HTD0n7VnXbVZN2z',#6,'OPS_TaskIdentity',$,(#465));
#467=IFCRELDEFINESBYPROPERTIES('_ps7Vpcv4b51qlLFHhVbjX',#6,$,$,(#143),#466);
#468=IFCPROPERTYSINGLEVALUE('MilestoneKind',$,IFCLABEL('START'),$);
#469=IFCPROPERTYSET('A9A7Ptbnk$PJ_dYV1X$5HL',#6,'OPS_Milestone',$,(#468));
#470=IFCRELDEFINESBYPROPERTIES('nhLlZfP9DbD95njnhPuFX3',#6,$,$,(#53),#469);
#471=IFCPROPERTYSINGLEVALUE('MilestoneKind',$,IFCLABEL('FINISH'),$);
#472=IFCPROPERTYSET('lfuFL9KnQ$U5PzrF3ps3VP',#6,'OPS_Milestone',$,(#471));
#473=IFCRELDEFINESBYPROPERTIES('MZ39UNlPNb37MhknyhvpqT',#6,$,$,(#91),#472);
#474=IFCPROPERTYSINGLEVALUE('MilestoneKind',$,IFCLABEL('FINISH'),$);
#475=IFCPROPERTYSET('SZ0tU5ItN5$TH9u$t3tzZN',#6,'OPS_Milestone',$,(#474));
#476=IFCRELDEFINESBYPROPERTIES('r9Y$g$FvEbhHtLYnfJl3Bz',#6,$,$,(#103),#475);
#477=IFCPROPERTYSINGLEVALUE('MilestoneKind',$,IFCLABEL('FINISH'),$);
#478=IFCPROPERTYSINGLEVALUE('Mandatory',$,IFCBOOLEAN(.T.),$);
#479=IFCPROPERTYSET('O3PLbbB1GJor0zhnBJP5XT',#6,'OPS_Milestone',$,(#477,#478));
#480=IFCRELDEFINESBYPROPERTIES('$F39oZX70L5V61BlDhFhsP',#6,$,$,(#143),#479);
ENDSEC;
END-ISO-10303-21;
