ISO-10303-21;
HEADER;
FILE_DESCRIPTION(('ViewDefinition [SchedulingView]'),'2;1');
FILE_NAME('Renovation of De Regenboog Primary School.ifc','2026-09-11T17:47:44',('Petra Jansen'),('SchoolBuild Netherlands'),'Open Planner Studio 0.1','Open Planner Studio','');
FILE_SCHEMA(('IFC4X3'));
ENDSEC;
DATA;
#1=IFCPERSON($,'Petra Jansen',$,$,$,$,$,$);
#2=IFCORGANIZATION($,'SchoolBuild Netherlands',$,$,$);
#3=IFCPERSONANDORGANIZATION(#1,#2,$);
#4=IFCORGANIZATION($,'OpenAEC Foundation',$,$,$);
#5=IFCAPPLICATION(#4,'0.1','Open Planner Studio','OPS');
#6=IFCOWNERHISTORY(#3,#5,$,.NOCHANGE.,$,$,$,1789148864);
#7=IFCSIUNIT(*,.LENGTHUNIT.,$,.METRE.);
#8=IFCSIUNIT(*,.TIMEUNIT.,$,.SECOND.);
#9=IFCUNITASSIGNMENT((#7,#8));
#10=IFCCARTESIANPOINT((0.,0.,0.));
#11=IFCAXIS2PLACEMENT3D(#10,$,$);
#12=IFCGEOMETRICREPRESENTATIONCONTEXT($,'Plan',3,1.0E-05,#11,$);
#13=IFCPROJECT('jfmvb$vtr3u7w1BlxHzfgJ',#6,'Renovation of De Regenboog Primary School','Energy-efficiency renovation and extension of a primary school',$,$,$,(#12),#9);
#14=IFCTIMEPERIOD('07:00:00','16:00:00');
#15=IFCRECURRENCEPATTERN(.WEEKLY.,$,(1,2,3,4,5),$,$,$,$,(#14));
#16=IFCWORKTIME('Standard work week',.PREDICTED.,$,#15,$,$);
#17=IFCWORKTIME('New Year''s Day',.PREDICTED.,$,$,'2027-01-01','2027-01-01');
#18=IFCWORKTIME('Good Friday',.PREDICTED.,$,$,'2027-03-26','2027-03-26');
#19=IFCWORKTIME('Easter',.PREDICTED.,$,$,'2027-03-28','2027-03-29');
#20=IFCWORKTIME('King''s Day',.PREDICTED.,$,$,'2027-04-27','2027-04-27');
#21=IFCWORKTIME('Liberation Day',.PREDICTED.,$,$,'2027-05-05','2027-05-05');
#22=IFCWORKTIME('Ascension Day',.PREDICTED.,$,$,'2027-05-06','2027-05-06');
#23=IFCWORKTIME('Whitsun',.PREDICTED.,$,$,'2027-05-16','2027-05-17');
#24=IFCWORKTIME('Christmas',.PREDICTED.,$,$,'2027-12-25','2027-12-26');
#25=IFCWORKTIME('Construction holiday (northern region)',.PREDICTED.,$,$,'2027-07-26','2027-08-15');
#26=IFCWORKTIME('New Year''s Day',.PREDICTED.,$,$,'2028-01-01','2028-01-01');
#27=IFCWORKTIME('Good Friday',.PREDICTED.,$,$,'2028-04-14','2028-04-14');
#28=IFCWORKTIME('Easter',.PREDICTED.,$,$,'2028-04-16','2028-04-17');
#29=IFCWORKTIME('King''s Day',.PREDICTED.,$,$,'2028-04-27','2028-04-27');
#30=IFCWORKTIME('Liberation Day',.PREDICTED.,$,$,'2028-05-05','2028-05-05');
#31=IFCWORKTIME('Ascension Day',.PREDICTED.,$,$,'2028-05-25','2028-05-25');
#32=IFCWORKTIME('Whitsun',.PREDICTED.,$,$,'2028-06-04','2028-06-05');
#33=IFCWORKTIME('Christmas',.PREDICTED.,$,$,'2028-12-25','2028-12-26');
#34=IFCWORKTIME('Construction holiday (northern region)',.PREDICTED.,$,$,'2028-07-24','2028-08-13');
#35=IFCWORKCALENDAR('_HlbW$VPl1Yxnv_nBDbFBd',#6,'Construction calendar NL','Standard construction calendar: Mon-Fri 07:00-16:00',$,(#16),(#17,#18,#19,#20,#21,#22,#23,#24,#25,#26,#27,#28,#29,#30,#31,#32,#33,#34),.FIRSTSHIFT.);
#36=IFCPROPERTYSINGLEVALUE('HoursPerDay',$,IFCREAL(8),$);
#37=IFCPROPERTYSET('qL5XmPUFgdlJ6X9$WtAtOZ',#6,'OPS_Calendar',$,(#36));
#38=IFCRELDEFINESBYPROPERTIES('bXh12hy$qvOdOP_VbbYntl',#6,$,$,(#35),#37);
#39=IFCWORKPLAN('5lDvl59fqZ2bLtWXdHhlBT',#6,'Renovation of De Regenboog Primary School','Energy-efficiency renovation and extension of a primary school',$,$,'2026-09-11T17:47:44',$,$,$,$,$,'2027-03-01T07:00:00','2027-03-12T07:00:00',.PLANNED.);
#40=IFCWORKSCHEDULE('eTJvVD6vQXcXcnP1KXTfwV',#6,'Construction schedule v1.0',$,$,$,'2026-09-11T17:47:44',$,$,$,$,$,'2027-03-01T07:00:00','2027-03-12T07:00:00',.PLANNED.);
#41=IFCRELAGGREGATES('X$Ph9TPtbVDd8te$ftI1sz',#6,$,$,#39,(#40));
#42=IFCTASKTIME('1. Preparation Time',.PREDICTED.,$,.WORKTIME.,'P0Y0M5D','2027-03-01T07:00:00','2027-03-05T07:00:00','2027-03-01T07:00:00','2027-03-16T07:00:00','2027-03-01T07:00:00','2027-09-06T07:00:00','P0Y0M0D','P0Y0M0D',.T.,$,$,$,$,$,0.00);
#43=IFCTASK('b11T8DXP5nnDib4HfD5ltp',#6,'1. Preparation',$,$,'1',$,$,$,.F.,$,#42,.CONSTRUCTION.);
#44=IFCTASKTIME('Asbestos survey Time',.PREDICTED.,$,.WORKTIME.,'P0Y0M3D','2027-03-01T07:00:00','2027-03-03T07:00:00','2027-03-01T07:00:00','2027-03-03T07:00:00','2027-03-01T07:00:00','2027-03-03T07:00:00','P0Y0M0D','P0Y0M0D',.T.,$,$,$,$,$,0.00);
#45=IFCTASK('cVrV0lX7qzYNbLUnbVTNs3',#6,'Asbestos survey',$,$,'1.1',$,$,$,.F.,$,#44,.CONSTRUCTION.);
#46=IFCTASKTIME('Set up temporary accommodation Time',.PREDICTED.,$,.WORKTIME.,'P0Y0M5D','2027-03-01T07:00:00','2027-03-05T07:00:00','2027-03-04T07:00:00','2027-03-10T07:00:00','2027-08-25T07:00:00','2027-08-31T07:00:00','P0Y0M0D','P0Y0M103D',.F.,$,$,$,$,$,0.00);
#47=IFCTASK('B9A7Xj6X5xtRtfu$ITqbBT',#6,'Set up temporary accommodation',$,$,'1.2',$,$,$,.F.,$,#46,.LOGISTIC.);
#48=IFCTASKTIME('Set up site Time',.PREDICTED.,$,.WORKTIME.,'P0Y0M3D','2027-03-01T07:00:00','2027-03-03T07:00:00','2027-03-11T07:00:00','2027-03-15T07:00:00','2027-09-01T07:00:00','2027-09-03T07:00:00','P0Y0M0D','P0Y0M103D',.F.,$,$,$,$,$,0.00);
#49=IFCTASK('PXh$YbwXjNzf$$1XwtoXS9',#6,'Set up site',$,$,'1.3',$,$,$,.F.,$,#48,.LOGISTIC.);
#50=IFCTASKTIME('Start of renovation Time',.PREDICTED.,$,.WORKTIME.,'P0Y0M0D','2027-03-01T07:00:00','2027-03-01T07:00:00','2027-03-16T07:00:00','2027-03-16T07:00:00','2027-09-06T07:00:00','2027-09-06T07:00:00','P0Y0M103D','P0Y0M103D',.F.,$,$,$,$,$,0.00);
#51=IFCTASK('XVRldxw72TypytKn2xz9CT',#6,'Start of renovation',$,$,'1.4',$,$,$,.T.,$,#50,.CONSTRUCTION.);
#52=IFCTASKTIME('2. Demolition & strip-out Time',.PREDICTED.,$,.WORKTIME.,'P0Y0M5D','2027-03-01T07:00:00','2027-03-05T07:00:00','2027-03-09T07:00:00','2027-04-15T07:00:00','2027-03-09T07:00:00','2027-09-06T07:00:00','P0Y0M0D','P0Y0M0D',.T.,$,$,$,$,$,0.00);
#53=IFCTASK('0nR$Yb2FSVBFlTJn5FlreL',#6,'2. Demolition & strip-out',$,$,'2',$,$,$,.F.,$,#52,.DEMOLITION.);
#54=IFCTASKTIME('Asbestos removal Time',.PREDICTED.,$,.WORKTIME.,'P0Y0M5D','2027-03-01T07:00:00','2027-03-05T07:00:00','2027-03-09T07:00:00','2027-03-15T07:00:00','2027-03-09T07:00:00','2027-03-15T07:00:00','P0Y0M0D','P0Y0M0D',.T.,$,$,$,$,$,0.00);
#55=IFCTASK('hdWf8jjFq7GVUZRHwJVDmX',#6,'Asbestos removal',$,$,'2.1',$,$,$,.F.,$,#54,.DEMOLITION.);
#56=IFCTASKTIME('Strip out interior Time',.PREDICTED.,$,.WORKTIME.,'P0Y0M8D','2027-03-01T07:00:00','2027-03-10T07:00:00','2027-03-16T07:00:00','2027-03-25T07:00:00','2027-07-19T07:00:00','2027-08-18T07:00:00','P0Y0M0D','P0Y0M83D',.F.,$,$,$,$,$,0.00);
#57=IFCTASK('CfoRSHed5FtbJJXVIZSzXv',#6,'Strip out interior',$,$,'2.2',$,$,$,.F.,$,#56,.DEMOLITION.);
#58=IFCTASKTIME('Demolish internal walls Time',.PREDICTED.,$,.WORKTIME.,'P0Y0M5D','2027-03-01T07:00:00','2027-03-05T07:00:00','2027-03-30T07:00:00','2027-04-05T07:00:00','2027-08-19T07:00:00','2027-08-25T07:00:00','P0Y0M0D','P0Y0M83D',.F.,$,$,$,$,$,0.00);
#59=IFCTASK('7HR$sHFd3lediX1XGXXRfz',#6,'Demolish internal walls',$,$,'2.3',$,$,$,.F.,$,#58,.DEMOLITION.);
#60=IFCTASKTIME('Remove roofing Time',.PREDICTED.,$,.WORKTIME.,'P0Y0M5D','2027-03-01T07:00:00','2027-03-05T07:00:00','2027-04-06T07:00:00','2027-04-12T07:00:00','2027-08-26T07:00:00','2027-09-01T07:00:00','P0Y0M0D','P0Y0M83D',.F.,$,$,$,$,$,0.00);
#61=IFCTASK('a$FDplu7sfj7wj1VqnVbbR',#6,'Remove roofing',$,$,'2.4',$,$,$,.F.,$,#60,.DEMOLITION.);
#62=IFCTASKTIME('Remove window frames Time',.PREDICTED.,$,.WORKTIME.,'P0Y0M3D','2027-03-01T07:00:00','2027-03-03T07:00:00','2027-04-13T07:00:00','2027-04-15T07:00:00','2027-09-02T07:00:00','2027-09-06T07:00:00','P0Y0M83D','P0Y0M83D',.F.,$,$,$,$,$,0.00);
#63=IFCTASK('ylpvlRDFcVsltBYVprZ9C3',#6,'Remove window frames',$,$,'2.5',$,$,$,.F.,$,#62,.DEMOLITION.);
#64=IFCTASKTIME('3. Structural works Time',.PREDICTED.,$,.WORKTIME.,'P0Y0M5D','2027-03-01T07:00:00','2027-03-05T07:00:00','2027-03-11T07:00:00','2027-04-29T07:00:00','2027-03-11T07:00:00','2027-04-29T07:00:00','P0Y0M0D','P0Y0M0D',.T.,$,$,$,$,$,0.00);
#65=IFCTASK('cVj7JzRn2fUN9Bg$5n1xpj',#6,'3. Structural works',$,$,'3',$,$,$,.F.,$,#64,.CONSTRUCTION.);
#66=IFCTASKTIME('Foundation repair Time',.PREDICTED.,$,.WORKTIME.,'P0Y0M5D','2027-03-01T07:00:00','2027-03-05T07:00:00','2027-03-11T07:00:00','2027-03-17T07:00:00','2027-03-11T07:00:00','2027-03-17T07:00:00','P0Y0M0D','P0Y0M0D',.T.,$,$,$,$,$,0.00);
#67=IFCTASK('tfAT0FxFa19z5HXVoHVpK$',#6,'Foundation repair',$,$,'3.1',$,$,$,.F.,$,#66,.CONSTRUCTION.);
#68=IFCTASKTIME('Structural steel strengthening Time',.PREDICTED.,$,.WORKTIME.,'P0Y0M8D','2027-03-01T07:00:00','2027-03-10T07:00:00','2027-03-18T07:00:00','2027-03-31T07:00:00','2027-03-18T07:00:00','2027-03-31T07:00:00','P0Y0M0D','P0Y0M0D',.T.,$,$,$,$,$,0.00);
#69=IFCTASK('5h_BHx9fOP1ThTzFSfI55n',#6,'Structural steel strengthening',$,$,'3.2',$,$,$,.F.,$,#68,.CONSTRUCTION.);
#70=IFCTASKTIME('New roof structure Time',.PREDICTED.,$,.WORKTIME.,'P0Y0M10D','2027-03-01T07:00:00','2027-03-12T07:00:00','2027-04-01T07:00:00','2027-04-14T07:00:00','2027-04-01T07:00:00','2027-04-14T07:00:00','P0Y0M0D','P0Y0M0D',.T.,$,$,$,$,$,0.00);
#71=IFCTASK('PX39oX2Fq329LfKHOxcD0f',#6,'New roof structure',$,$,'3.3',$,$,$,.F.,$,#70,.CONSTRUCTION.);
#72=IFCTASKTIME('Extension masonry Time',.PREDICTED.,$,.WORKTIME.,'P0Y0M10D','2027-03-01T07:00:00','2027-03-12T07:00:00','2027-04-15T07:00:00','2027-04-29T07:00:00','2027-04-15T07:00:00','2027-04-29T07:00:00','P0Y0M0D','P0Y0M0D',.T.,$,$,$,$,$,0.00);
#73=IFCTASK('ibZfSDQ7e7x$WJt$i$tBqT',#6,'Extension masonry',$,$,'3.4',$,$,$,.F.,$,#72,.CONSTRUCTION.);
#74=IFCTASKTIME('4. Facade & roof Time',.PREDICTED.,$,.WORKTIME.,'P0Y0M5D','2027-03-01T07:00:00','2027-03-05T07:00:00','2027-04-20T07:00:00','2027-05-31T07:00:00','2027-04-20T07:00:00','2027-09-06T07:00:00','P0Y0M0D','P0Y0M0D',.T.,$,$,$,$,$,0.00);
#75=IFCTASK('7L_BNFalx5dBSP6147ar4h',#6,'4. Facade & roof',$,$,'4',$,$,$,.F.,$,#74,.CONSTRUCTION.);
#76=IFCTASKTIME('External facade insulation Time',.PREDICTED.,$,.WORKTIME.,'P0Y0M10D','2027-03-01T07:00:00','2027-03-12T07:00:00','2027-04-20T07:00:00','2027-05-04T07:00:00','2027-04-20T07:00:00','2027-05-04T07:00:00','P0Y0M0D','P0Y0M0D',.T.,$,$,$,$,$,0.00);
#77=IFCTASK('_lnxYNFPbBdJA7glkzeXmV',#6,'External facade insulation',$,$,'4.1',$,$,$,.F.,$,#76,.INSTALLATION.);
#78=IFCTASKTIME('New HR++ window frames Time',.PREDICTED.,$,.WORKTIME.,'P0Y0M8D','2027-03-01T07:00:00','2027-03-10T07:00:00','2027-05-07T07:00:00','2027-05-19T07:00:00','2027-05-07T07:00:00','2027-05-19T07:00:00','P0Y0M0D','P0Y0M0D',.T.,$,$,$,$,$,0.00);
#79=IFCTASK('wlJPlXbXZ1gzR$1XcvSz$9',#6,'New HR++ window frames',$,$,'4.2',$,$,$,.F.,$,#78,.INSTALLATION.);
#80=IFCTASKTIME('Roof insulation and roofing Time',.PREDICTED.,$,.WORKTIME.,'P0Y0M8D','2027-03-01T07:00:00','2027-03-10T07:00:00','2027-05-20T07:00:00','2027-05-31T07:00:00','2027-05-20T07:00:00','2027-05-31T07:00:00','P0Y0M0D','P0Y0M0D',.T.,$,$,$,$,$,0.00);
#81=IFCTASK('PXpdtzhlhjwjcZf1j5LVSb',#6,'Roof insulation and roofing',$,$,'4.3',$,$,$,.F.,$,#80,.CONSTRUCTION.);
#82=IFCTASKTIME('Wind and weathertight Time',.PREDICTED.,$,.WORKTIME.,'P0Y0M0D','2027-03-01T07:00:00','2027-03-01T07:00:00','2027-05-31T07:00:00','2027-05-31T07:00:00','2027-09-06T07:00:00','2027-09-06T07:00:00','P0Y0M55D','P0Y0M55D',.F.,$,$,$,$,$,0.00);
#83=IFCTASK('2JwDrzyHl1IhQlDl97azF1',#6,'Wind and weathertight',$,$,'4.4',$,$,$,.T.,$,#82,.CONSTRUCTION.);
#84=IFCTASKTIME('5. Building services Time',.PREDICTED.,$,.WORKTIME.,'P0Y0M5D','2027-03-01T07:00:00','2027-03-05T07:00:00','2027-06-01T07:00:00','2027-07-08T07:00:00','2027-06-01T07:00:00','2027-09-06T07:00:00','P0Y0M0D','P0Y0M0D',.T.,$,$,$,$,$,0.00);
#85=IFCTASK('zJQjr7MdVb372plVn5B1UD',#6,'5. Building services',$,$,'5',$,$,$,.F.,$,#84,.INSTALLATION.);
#86=IFCTASKTIME('Renew electrical installation Time',.PREDICTED.,$,.WORKTIME.,'P0Y0M8D','2027-03-01T07:00:00','2027-03-10T07:00:00','2027-06-01T07:00:00','2027-06-10T07:00:00','2027-06-01T07:00:00','2027-06-10T07:00:00','P0Y0M0D','P0Y0M0D',.T.,$,$,$,$,$,0.00);
#87=IFCTASK('qtA71zCFe7zv6DrHxH5VeL',#6,'Renew electrical installation',$,$,'5.1',$,$,$,.F.,$,#86,.INSTALLATION.);
#88=IFCTASKTIME('Install heat pump Time',.PREDICTED.,$,.WORKTIME.,'P0Y0M5D','2027-03-01T07:00:00','2027-03-05T07:00:00','2027-06-11T07:00:00','2027-06-17T07:00:00','2027-07-20T07:00:00','2027-08-16T07:00:00','P0Y0M0D','P0Y0M27D',.F.,$,$,$,$,$,0.00);
#89=IFCTASK('AptpnnT16zMnpZf$$X7pOL',#6,'Install heat pump',$,$,'5.2',$,$,$,.F.,$,#88,.INSTALLATION.);
#90=IFCTASKTIME('Underfloor heating Time',.PREDICTED.,$,.WORKTIME.,'P0Y0M8D','2027-03-01T07:00:00','2027-03-10T07:00:00','2027-06-15T07:00:00','2027-06-24T07:00:00','2027-07-22T07:00:00','2027-08-23T07:00:00','P0Y0M0D','P0Y0M27D',.F.,$,$,$,$,$,0.00);
#91=IFCTASK('yJcJppHv0LzNndkXs1Hz9j',#6,'Underfloor heating',$,$,'5.3',$,$,$,.F.,$,#90,.INSTALLATION.);
#92=IFCTASKTIME('Heat recovery ventilation Time',.PREDICTED.,$,.WORKTIME.,'P0Y0M5D','2027-03-01T07:00:00','2027-03-05T07:00:00','2027-06-25T07:00:00','2027-07-01T07:00:00','2027-08-24T07:00:00','2027-08-30T07:00:00','P0Y0M0D','P0Y0M27D',.F.,$,$,$,$,$,0.00);
#93=IFCTASK('ItShb5n7wzQVkb4HtTpdf1',#6,'Heat recovery ventilation',$,$,'5.4',$,$,$,.F.,$,#92,.INSTALLATION.);
#94=IFCTASKTIME('Solar panels Time',.PREDICTED.,$,.WORKTIME.,'P0Y0M5D','2027-03-01T07:00:00','2027-03-05T07:00:00','2027-07-02T07:00:00','2027-07-08T07:00:00','2027-08-31T07:00:00','2027-09-06T07:00:00','P0Y0M27D','P0Y0M27D',.F.,$,$,$,$,$,0.00);
#95=IFCTASK('vFvTW11dJt93dn$X_bH3Tf',#6,'Solar panels',$,$,'5.5',$,$,$,.F.,$,#94,.INSTALLATION.);
#96=IFCTASKTIME('6. Fit-out Time',.PREDICTED.,$,.WORKTIME.,'P0Y0M5D','2027-03-01T07:00:00','2027-03-05T07:00:00','2027-06-23T07:00:00','2027-08-23T07:00:00','2027-06-23T07:00:00','2027-08-23T07:00:00','P0Y0M0D','P0Y0M0D',.T.,$,$,$,$,$,0.00);
#97=IFCTASK('VTmdBTeP$NT9p3LFvX39m$',#6,'6. Fit-out',$,$,'6',$,$,$,.F.,$,#96,.CONSTRUCTION.);
#98=IFCTASKTIME('Install internal walls Time',.PREDICTED.,$,.WORKTIME.,'P0Y0M8D','2027-03-01T07:00:00','2027-03-10T07:00:00','2027-06-23T07:00:00','2027-07-02T07:00:00','2027-06-23T07:00:00','2027-07-02T07:00:00','P0Y0M0D','P0Y0M0D',.T.,$,$,$,$,$,0.00);
#99=IFCTASK('ChhHH$XPl1Eru9mXY7Wdd7',#6,'Install internal walls',$,$,'6.1',$,$,$,.F.,$,#98,.CONSTRUCTION.);
#100=IFCTASKTIME('Ceilings Time',.PREDICTED.,$,.WORKTIME.,'P0Y0M5D','2027-03-01T07:00:00','2027-03-05T07:00:00','2027-07-05T07:00:00','2027-07-09T07:00:00','2027-07-05T07:00:00','2027-07-09T07:00:00','P0Y0M0D','P0Y0M0D',.T.,$,$,$,$,$,0.00);
#101=IFCTASK('uDlbaHO7u$_bFpFVxn1xtl',#6,'Ceilings',$,$,'6.2',$,$,$,.F.,$,#100,.CONSTRUCTION.);
#102=IFCTASKTIME('Floor finishes Time',.PREDICTED.,$,.WORKTIME.,'P0Y0M5D','2027-03-01T07:00:00','2027-03-05T07:00:00','2027-07-12T07:00:00','2027-07-16T07:00:00','2027-07-12T07:00:00','2027-07-16T07:00:00','P0Y0M0D','P0Y0M0D',.T.,$,$,$,$,$,0.00);
#103=IFCTASK('ynnxQp2fEbbVU3nXHP4Trv',#6,'Floor finishes',$,$,'6.3',$,$,$,.F.,$,#102,.CONSTRUCTION.);
#104=IFCTASKTIME('Painting Time',.PREDICTED.,$,.WORKTIME.,'P0Y0M8D','2027-03-01T07:00:00','2027-03-10T07:00:00','2027-07-19T07:00:00','2027-08-18T07:00:00','2027-07-19T07:00:00','2027-08-18T07:00:00','P0Y0M0D','P0Y0M0D',.T.,$,$,$,$,$,0.00);
#105=IFCTASK('99svHx9fCPi335yl75k5Fb',#6,'Painting',$,$,'6.4',$,$,$,.F.,$,#104,.CONSTRUCTION.);
#106=IFCTASKTIME('Sanitary fittings Time',.PREDICTED.,$,.WORKTIME.,'P0Y0M3D','2027-03-01T07:00:00','2027-03-03T07:00:00','2027-08-19T07:00:00','2027-08-23T07:00:00','2027-08-19T07:00:00','2027-08-23T07:00:00','P0Y0M0D','P0Y0M0D',.T.,$,$,$,$,$,0.00);
#107=IFCTASK('Ap1BXjA1mZCxF76HpPKJIB',#6,'Sanitary fittings',$,$,'6.5',$,$,$,.F.,$,#106,.INSTALLATION.);
#108=IFCTASKTIME('7. Handover Time',.PREDICTED.,$,.WORKTIME.,'P0Y0M5D','2027-03-01T07:00:00','2027-03-05T07:00:00','2027-08-24T07:00:00','2027-09-06T07:00:00','2027-08-24T07:00:00','2027-09-06T07:00:00','P0Y0M0D','P0Y0M0D',.T.,$,$,$,$,$,0.00);
#109=IFCTASK('rt2XSl87wTEB4N0V9TDddd',#6,'7. Handover',$,$,'7',$,$,$,.F.,$,#108,.CONSTRUCTION.);
#110=IFCTASKTIME('Classroom furnishing Time',.PREDICTED.,$,.WORKTIME.,'P0Y0M5D','2027-03-01T07:00:00','2027-03-05T07:00:00','2027-08-24T07:00:00','2027-08-30T07:00:00','2027-08-24T07:00:00','2027-08-30T07:00:00','P0Y0M0D','P0Y0M0D',.T.,$,$,$,$,$,0.00);
#111=IFCTASK('0HtDzP5V9BVbdHBnND3tOL',#6,'Classroom furnishing',$,$,'7.1',$,$,$,.F.,$,#110,.LOGISTIC.);
#112=IFCTASKTIME('External areas Time',.PREDICTED.,$,.WORKTIME.,'P0Y0M5D','2027-03-01T07:00:00','2027-03-05T07:00:00','2027-08-31T07:00:00','2027-09-06T07:00:00','2027-08-31T07:00:00','2027-09-06T07:00:00','P0Y0M0D','P0Y0M0D',.T.,$,$,$,$,$,0.00);
#113=IFCTASK('ynP3ABNNarTtrds$LzdjwX',#6,'External areas',$,$,'7.2',$,$,$,.F.,$,#112,.CONSTRUCTION.);
#114=IFCTASKTIME('Handover Time',.PREDICTED.,$,.WORKTIME.,'P0Y0M0D','2027-03-01T07:00:00','2027-03-01T07:00:00','2027-09-06T07:00:00','2027-09-06T07:00:00','2027-09-06T07:00:00','2027-09-06T07:00:00','P0Y0M0D','P0Y0M0D',.T.,$,$,$,$,$,0.00);
#115=IFCTASK('BtEnxnhlVxX3fPUVH7m9Or',#6,'Handover',$,$,'7.3',$,$,$,.T.,$,#114,.CONSTRUCTION.);
#116=IFCRELNESTS('YzCD3PRVVbLHxbalpdCDSt',#6,'WBS 1. Preparation',$,#43,( #45,#47,#49,#51));
#117=IFCRELNESTS('7BA7PfX7WxNxRLEnEnxlz7',#6,'WBS 2. Demolition & strip-out',$,#53,( #55,#57,#59,#61,#63));
#118=IFCRELNESTS('X3iRy1sd3TEBGRmV0PKJId',#6,'WBS 3. Structural works',$,#65,( #67,#69,#71,#73));
#119=IFCRELNESTS('oPQj7PTHtVhl3d_V7$tre3',#6,'WBS 4. Facade & roof',$,#75,( #77,#79,#81,#83));
#120=IFCRELNESTS('ANI5Y9bnob5$unTnwf6job',#6,'WBS 5. Building services',$,#85,( #87,#89,#91,#93,#95));
#121=IFCRELNESTS('exiJdfP9pxvhoXzlEjc7Rb',#6,'WBS 6. Fit-out',$,#97,( #99,#101,#103,#105,#107));
#122=IFCRELNESTS('k5nD$dM$_TKRJjP1D707$t',#6,'WBS 7. Handover',$,#109,( #111,#113,#115));
#123=IFCRELNESTS('tjjP5r1vgdnD4TBHzDgTrv',#6,'WBS Hoofd',$,#40,(#43,#53,#65,#75,#85,#97,#109));
#124=IFCRELSEQUENCE('oLb$cJ6VfnNxT9SnDvWPpJ',#6,$,$,#45,#47,$,.FINISH_START.,$);
#125=IFCRELSEQUENCE('EPI5kp79xbjNplTHClZt8b',#6,$,$,#47,#49,$,.FINISH_START.,$);
#126=IFCRELSEQUENCE('6lZNGNOPPpkdqlbn4hdjcL',#6,$,$,#49,#51,$,.FINISH_START.,$);
#127=IFCRELSEQUENCE('R5iJbVRXHJK33bGXOpJvlH',#6,$,$,#55,#57,$,.FINISH_START.,$);
#128=IFCRELSEQUENCE('2Fp7tVcVvzGX2PIVglzNYn',#6,$,$,#57,#59,$,.FINISH_START.,$);
#129=IFCRELSEQUENCE('aZm7j33$4n7hgL2FHrR1kd',#6,$,$,#59,#61,$,.FINISH_START.,$);
#130=IFCRELSEQUENCE('K5fb4X_nOd9Rb$v$wNERHF',#6,$,$,#61,#63,$,.FINISH_START.,$);
#131=IFCRELSEQUENCE('3FR1UffNitEB0ZN1BNIxjz',#6,$,$,#67,#69,$,.FINISH_START.,$);
#132=IFCRELSEQUENCE('E7Ent1I9Nx9bxn5HmH1JUp',#6,$,$,#69,#71,$,.FINISH_START.,$);
#133=IFCRELSEQUENCE('IRrXKLz14ntbtN0VjRnZB7',#6,$,$,#71,#73,$,.FINISH_START.,$);
#134=IFCRELSEQUENCE('BNk5kFiVzH8N9hkFuzPJ_X',#6,$,$,#77,#79,$,.FINISH_START.,$);
#135=IFCRELSEQUENCE('3J6Dzv1dflbVE1$XcT5XC3',#6,$,$,#79,#81,$,.FINISH_START.,$);
#136=IFCRELSEQUENCE('6H3twT8dzl0nrdkXYB5VOB',#6,$,$,#81,#83,$,.FINISH_START.,$);
#137=IFCRELSEQUENCE('0FBnNHGfEF9RxnTn2bFTpp',#6,$,$,#87,#89,$,.FINISH_START.,$);
#138=IFCLAGTIME('Lag',.PREDICTED.,$,IFCDURATION('P2D'),.WORKTIME.);
#139=IFCRELSEQUENCE('tpfjxFBHrN29R1nVxHb1Ad',#6,$,$,#89,#91,#138,.START_START.,$);
#140=IFCRELSEQUENCE('Qb092Ph1kB93$hQHlvmN65',#6,$,$,#91,#93,$,.FINISH_START.,$);
#141=IFCRELSEQUENCE('_pU$g1tNWxvLknLHftUn1D',#6,$,$,#93,#95,$,.FINISH_START.,$);
#142=IFCRELSEQUENCE('EhjdTtz1SXhH376HdFHruD',#6,$,$,#99,#101,$,.FINISH_START.,$);
#143=IFCRELSEQUENCE('TzqDP5cvmjM3$h_FT15XSf',#6,$,$,#101,#103,$,.FINISH_START.,$);
#144=IFCRELSEQUENCE('cxShl1vtxxPBu98$oJoXmF',#6,$,$,#103,#105,$,.FINISH_START.,$);
#145=IFCRELSEQUENCE('WXrVG9KVJfT9DTf$h7qR5r',#6,$,$,#105,#107,$,.FINISH_START.,$);
#146=IFCRELSEQUENCE('yp_XOzbnkLLl1$nXxlb1_X',#6,$,$,#111,#113,$,.FINISH_START.,$);
#147=IFCRELSEQUENCE('3DAvdN9NwFqZJVv1dLmN_z',#6,$,$,#113,#115,$,.FINISH_START.,$);
#148=IFCLAGTIME('Lag',.PREDICTED.,$,IFCDURATION('P6D'),.WORKTIME.);
#149=IFCRELSEQUENCE('ezFD3Ph1I1NZ3vcH75cpWP',#6,$,$,#45,#55,#148,.START_START.,$);
#150=IFCLAGTIME('Lag',.PREDICTED.,$,IFCRATIOMEASURE(0.4),.WORKTIME.);
#151=IFCRELSEQUENCE('xnNjFrvtT1gz5FZFYrrnP7',#6,$,$,#55,#67,#150,.START_START.,$);
#152=IFCLAGTIME('Lag',.PREDICTED.,$,IFCDURATION('-P7D'),.WORKTIME.);
#153=IFCRELSEQUENCE('QVBXaFqFmDgFf7gHk$b$_3',#6,$,$,#73,#77,#152,.FINISH_START.,$);
#154=IFCLAGTIME('Lag',.PREDICTED.,$,IFCDURATION('P2D'),.WORKTIME.);
#155=IFCRELSEQUENCE('kx$TeZfNKJC5zvEnk3WPzh',#6,$,$,#73,#81,#154,.FINISH_FINISH.,$);
#156=IFCRELSEQUENCE('NPWfW1n7c$ErevAlK1VpCz',#6,$,$,#81,#87,$,.FINISH_START.,$);
#157=IFCLAGTIME('Lag',.PREDICTED.,$,IFCDURATION('P16D'),.WORKTIME.);
#158=IFCRELSEQUENCE('6lztsB1vYpYNhZLlzFpPHL',#6,$,$,#87,#99,#157,.START_START.,$);
#159=IFCRELSEQUENCE('AtgdLjklR$nLMBoVORoViD',#6,$,$,#107,#111,$,.FINISH_START.,$);
#160=IFCRELASSIGNSTOCONTROL('rDVhNjbXHjyDCF$VkTSruD',#6,$,$,(#43,#45,#47,#49,#51,#53,#55,#57,#59,#61,#63,#65,#67,#69,#71,#73,#75,#77,#79,#81,#83,#85,#87,#89,#91,#93,#95,#97,#99,#101,#103,#105,#107,#109,#111,#113,#115),$,#40);
#161=IFCPROPERTYSINGLEVALUE('InternalProjectId',$,IFCTEXT('proj-mtx91ewxquyv1226'),$);
#162=IFCPROPERTYSINGLEVALUE('wbsAutoNumber',$,IFCBOOLEAN(.T.),$);
#163=IFCPROPERTYSINGLEVALUE('DefaultTaskDurationUnit',$,IFCLABEL('days'),$);
#164=IFCPROPERTYSINGLEVALUE('ProjectStartDate',$,IFCDATE('2027-03-01'),$);
#165=IFCPROPERTYSINGLEVALUE('ProjectEndDate',$,$,$);
#166=IFCPROPERTYSINGLEVALUE('CreatedAt',$,IFCTEXT('2026-09-11T17:47:44.193Z'),$);
#167=IFCPROPERTYSINGLEVALUE('ModifiedAt',$,IFCTEXT('2026-09-11T17:47:44.195Z'),$);
#168=IFCPROPERTYSET('e5a3ArlP$tNZvpDF1ZK5n5',#6,'OPS_ProjectSettings',$,(#161,#162,#163,#164,#165,#166,#167));
#169=IFCRELDEFINESBYPROPERTIES('0Hdzo1sPJhdjQlBF$1BF9l',#6,$,$,(#13),#168);
#170=IFCPROPERTYSINGLEVALUE('InternalTaskId',$,IFCTEXT('task-mtx91ex00egu1227'),$);
#171=IFCPROPERTYSET('uJxXeTndflrnPnd$CZyZbV',#6,'OPS_TaskIdentity',$,(#170));
#172=IFCRELDEFINESBYPROPERTIES('FhxVKfV70rvDqhUnDh93B3',#6,$,$,(#43),#171);
#173=IFCPROPERTYSINGLEVALUE('InternalTaskId',$,IFCTEXT('task-mtx91ex13ved1228'),$);
#174=IFCPROPERTYSET('9J5V8p9N4lz7w1TnglZtK1',#6,'OPS_TaskIdentity',$,(#173));
#175=IFCRELDEFINESBYPROPERTIES('mfe$oT9Nwzo7kFZFMh0v5h',#6,$,$,(#45),#174);
#176=IFCPROPERTYSINGLEVALUE('InternalTaskId',$,IFCTEXT('task-mtx91ex2k54y1229'),$);
#177=IFCPROPERTYSET('ebmvVJ6XbBvpSjJHvbYFZ5',#6,'OPS_TaskIdentity',$,(#176));
#178=IFCRELDEFINESBYPROPERTIES('VTGvxllP33UNJ1rH75IxJZ',#6,$,$,(#47),#177);
#179=IFCPROPERTYSINGLEVALUE('InternalTaskId',$,IFCTEXT('task-mtx91ex3g3ec1230'),$);
#180=IFCPROPERTYSET('ApP3YRQVJhfTJ1Rls1Xp0N',#6,'OPS_TaskIdentity',$,(#179));
#181=IFCRELDEFINESBYPROPERTIES('Ht4Tm9CV5lbXwX914dWdzL',#6,$,$,(#49),#180);
#182=IFCPROPERTYSINGLEVALUE('InternalTaskId',$,IFCTEXT('task-mtx91ex40b5e1231'),$);
#183=IFCPROPERTYSET('4FXLvhqV9r7D8lN$w9I$QH',#6,'OPS_TaskIdentity',$,(#182));
#184=IFCRELDEFINESBYPROPERTIES('rp9DRRh$khj7oXbni$nTDJ',#6,$,$,(#51),#183);
#185=IFCPROPERTYSINGLEVALUE('InternalTaskId',$,IFCTEXT('task-mtx91ex5ouw01232'),$);
#186=IFCPROPERTYSET('TV3tMV3HXPVzPnVVK17R$f',#6,'OPS_TaskIdentity',$,(#185));
#187=IFCRELDEFINESBYPROPERTIES('gzXz_P3HDx7L2Dd1epZNA7',#6,$,$,(#53),#186);
#188=IFCPROPERTYSINGLEVALUE('InternalTaskId',$,IFCTEXT('task-mtx91ex6onb51233'),$);
#189=IFCPROPERTYSET('8BoFJzDX3HeP8F3nODbFP7',#6,'OPS_TaskIdentity',$,(#188));
#190=IFCRELDEFINESBYPROPERTIES('$JEbyX_Fqd4paDP1yrzfo5',#6,$,$,(#55),#189);
#191=IFCPROPERTYSINGLEVALUE('InternalTaskId',$,IFCTEXT('task-mtx91ex7vd891234'),$);
#192=IFCPROPERTYSET('fdG7lbxVvZaj_v2nDPa3Tf',#6,'OPS_TaskIdentity',$,(#191));
#193=IFCRELDEFINESBYPROPERTIES('UTGvjZFPBZCxDlJHfD3t0t',#6,$,$,(#57),#192);
#194=IFCPROPERTYSINGLEVALUE('InternalTaskId',$,IFCTEXT('task-mtx91ex8p8um1235'),$);
#195=IFCPROPERTYSET('gzV3M$ffoFN5j1RlEJ2lF1',#6,'OPS_TaskIdentity',$,(#194));
#196=IFCRELDEFINESBYPROPERTIES('FdobuJZHt1NTXlP1PnFh21',#6,$,$,(#59),#195);
#197=IFCPROPERTYSINGLEVALUE('InternalTaskId',$,IFCTEXT('task-mtx91ex9pis51236'),$);
#198=IFCPROPERTYSET('vF9D5B$7I17D8H$XyB3fIh',#6,'OPS_TaskIdentity',$,(#197));
#199=IFCRELDEFINESBYPROPERTIES('oB9DHXDnsrhH11$XMLu1Av',#6,$,$,(#61),#198);
#200=IFCPROPERTYSINGLEVALUE('InternalTaskId',$,IFCTEXT('task-mtx91exaubdi1237'),$);
#201=IFCPROPERTYSET('dVL127vtB3mVMNmVyhnhYF',#6,'OPS_TaskIdentity',$,(#200));
#202=IFCRELDEFINESBYPROPERTIES('kx7BBvk91f3N3PYX3JI1sd',#6,$,$,(#63),#201);
#203=IFCPROPERTYSINGLEVALUE('InternalTaskId',$,IFCTEXT('task-mtx91exbieuk1238'),$);
#204=IFCPROPERTYSET('tjDvbVjnOP9bbXrF7R6Pf$',#6,'OPS_TaskIdentity',$,(#203));
#205=IFCRELDEFINESBYPROPERTIES('mfGPxLrHvTSr89u$75EbBz',#6,$,$,(#65),#204);
#206=IFCPROPERTYSINGLEVALUE('InternalTaskId',$,IFCTEXT('task-mtx91exckwnc1239'),$);
#207=IFCPROPERTYSET('cxqxAnT$UvWlXlnXND39yr',#6,'OPS_TaskIdentity',$,(#206));
#208=IFCRELDEFINESBYPROPERTIES('VVZfCRzlTpufLzHXVpk5Dp',#6,$,$,(#67),#207);
#209=IFCPROPERTYSINGLEVALUE('InternalTaskId',$,IFCTEXT('task-mtx91exdh3ps1240'),$);
#210=IFCPROPERTYSET('UzCDplGNaBj76Xf$2x5H9j',#6,'OPS_TaskIdentity',$,(#209));
#211=IFCRELDEFINESBYPROPERTIES('bXxnXDQ7O7RX6DpFVpcpOr',#6,$,$,(#69),#210);
#212=IFCPROPERTYSINGLEVALUE('InternalTaskId',$,IFCTEXT('task-mtx91exeqhyz1241'),$);
#213=IFCPROPERTYSET('sDnx2dZlpvbVkR4nFtEVWP',#6,'OPS_TaskIdentity',$,(#212));
#214=IFCRELDEFINESBYPROPERTIES('HtKbajolFzYfDnN1zpI59l',#6,$,$,(#71),#213);
#215=IFCPROPERTYSINGLEVALUE('InternalTaskId',$,IFCTEXT('task-mtx91exfv6oj1242'),$);
#216=IFCPROPERTYSET('nLBFDj3lthhlZN0VJb7Rtp',#6,'OPS_TaskIdentity',$,(#215));
#217=IFCRELDEFINESBYPROPERTIES('MdeH5LbFkhBn3R8129Unj3',#6,$,$,(#73),#216);
#218=IFCPROPERTYSINGLEVALUE('InternalTaskId',$,IFCTEXT('task-mtx91exg9jav1243'),$);
#219=IFCPROPERTYSET('S3ahB341Kpm1WDzFa9s9Gn',#6,'OPS_TaskIdentity',$,(#218));
#220=IFCRELDEFINESBYPROPERTIES('TVJ7FBnPHD8vEhAl4vCR1t',#6,$,$,(#75),#219);
#221=IFCPROPERTYSINGLEVALUE('InternalTaskId',$,IFCTEXT('task-mtx91exh1a741244'),$);
#222=IFCPROPERTYSET('b1nDfp$PrzWlthUnZZ4hwx',#6,'OPS_TaskIdentity',$,(#221));
#223=IFCRELDEFINESBYPROPERTIES('ib3toz3$4xfxd3zlUhvD8j',#6,$,$,(#77),#222);
#224=IFCPROPERTYSINGLEVALUE('InternalTaskId',$,IFCTEXT('task-mtx91exip9ci1245'),$);
#225=IFCPROPERTYSET('NZDPt3RFArT9Zh2nL3vD8p',#6,'OPS_TaskIdentity',$,(#224));
#226=IFCRELDEFINESBYPROPERTIES('mvs7Hb3ljhXbxn5lODxl7b',#6,$,$,(#79),#225);
#227=IFCPROPERTYSINGLEVALUE('InternalTaskId',$,IFCTEXT('task-mtx91exjti8q1246'),$);
#228=IFCPROPERTYSET('ApVhfj3HpRrnLfanvXhVqF',#6,'OPS_TaskIdentity',$,(#227));
#229=IFCRELDEFINESBYPROPERTIES('Ht4rdtZ1M7jfrD1X2539y7',#6,$,$,(#81),#228);
#230=IFCPROPERTYSINGLEVALUE('InternalTaskId',$,IFCTEXT('task-mtx91exl46ee1247'),$);
#231=IFCPROPERTYSET('X1X3UxUfKp0F1BQ$gheHJ$',#6,'OPS_TaskIdentity',$,(#230));
#232=IFCRELDEFINESBYPROPERTIES('eTJv1ZmfAfxVoXplxBKjYl',#6,$,$,(#83),#231);
#233=IFCPROPERTYSINGLEVALUE('InternalTaskId',$,IFCTEXT('task-mtx91exm3gva1248'),$);
#234=IFCPROPERTYSET('W1$TmfW9FlWlrJZl8ZLHnX',#6,'OPS_TaskIdentity',$,(#233));
#235=IFCRELDEFINESBYPROPERTIES('PVrVq5dt3ZMzL9O1eRk$Id',#6,$,$,(#85),#234);
#236=IFCPROPERTYSINGLEVALUE('InternalTaskId',$,IFCTEXT('task-mtx91exnl5f11249'),$);
#237=IFCPROPERTYSET('NvyrdfvtXRbX_pP1i$NhYH',#6,'OPS_TaskIdentity',$,(#236));
#238=IFCRELDEFINESBYPROPERTIES('Y3yBbXZlHD0nPHTH4rJ79j',#6,$,$,(#87),#237);
#239=IFCPROPERTYSINGLEVALUE('InternalTaskId',$,IFCTEXT('task-mtx91exokxkq1250'),$);
#240=IFCPROPERTYSET('jxdh9TPtnnSjQFVXKjQ73d',#6,'OPS_TaskIdentity',$,(#239));
#241=IFCRELDEFINESBYPROPERTIES('CfobSpcv8XYNNR0VXnpPJZ',#6,$,$,(#89),#240);
#242=IFCPROPERTYSINGLEVALUE('InternalTaskId',$,IFCTEXT('task-mtx91exqtb5i1251'),$);
#243=IFCPROPERTYSET('XTe$wdM1AfJ7wpJnB9MNAP',#6,'OPS_TaskIdentity',$,(#242));
#244=IFCRELDEFINESBYPROPERTIES('QXrXCdRXzFSjwpZFEjAtS9',#6,$,$,(#91),#243);
#245=IFCPROPERTYSINGLEVALUE('InternalTaskId',$,IFCTEXT('task-mtx91exseu1v1252'),$);
#246=IFCPROPERTYSET('B9_VeZ9NILR1yNGVuTBn5H',#6,'OPS_TaskIdentity',$,(#245));
#247=IFCRELDEFINESBYPROPERTIES('4j6DtzrHxnHj_7clL74Z79',#6,$,$,(#93),#246);
#248=IFCPROPERTYSINGLEVALUE('InternalTaskId',$,IFCTEXT('task-mtx91extnfcs1253'),$);
#249=IFCPROPERTYSET('gZZfWXpFQ$AZxRKFc7iJ6X',#6,'OPS_TaskIdentity',$,(#248));
#250=IFCRELDEFINESBYPROPERTIES('n769E3z$a$lBO1lVNf2r09',#6,$,$,(#95),#249);
#251=IFCPROPERTYSINGLEVALUE('InternalTaskId',$,IFCTEXT('task-mtx91exu8y411254'),$);
#252=IFCPROPERTYSET('_FR$cN0trzm18FBH3JI$2V',#6,'OPS_TaskIdentity',$,(#251));
#253=IFCRELDEFINESBYPROPERTIES('9jpvXpkt19NZthQlXFTNA7',#6,$,$,(#97),#252);
#254=IFCPROPERTYSINGLEVALUE('InternalTaskId',$,IFCTEXT('task-mtx91exwk23t1255'),$);
#255=IFCPROPERTYSET('HRDdPxMdn3o7IHv$75obbb',#6,'OPS_TaskIdentity',$,(#254));
#256=IFCRELDEFINESBYPROPERTIES('AtEFVpotr3ettf8$v5kxZx',#6,$,$,(#99),#255);
#257=IFCPROPERTYSINGLEVALUE('InternalTaskId',$,IFCTEXT('task-mtx91exx4tv81256'),$);
#258=IFCPROPERTYSET('hzfRy3inMdX3V58$7bI1AT',#6,'OPS_TaskIdentity',$,(#257));
#259=IFCRELDEFINESBYPROPERTIES('EdwDLDwv_zO9vVlXLT5VCH',#6,$,$,(#101),#258);
#260=IFCPROPERTYSINGLEVALUE('InternalTaskId',$,IFCTEXT('task-mtx91exy10wt1257'),$);
#261=IFCPROPERTYSET('P$95EVEHBTareXBFDhfTJT',#6,'OPS_TaskIdentity',$,(#260));
#262=IFCRELDEFINESBYPROPERTIES('kbztcf0tNF7L_p$VAXJvn1',#6,$,$,(#103),#261);
#263=IFCPROPERTYSINGLEVALUE('InternalTaskId',$,IFCTEXT('task-mtx91ey0lc6w1258'),$);
#264=IFCPROPERTYSET('QRe$sBdtTjCxLzd13nRnRV',#6,'OPS_TaskIdentity',$,(#263));
#265=IFCRELDEFINESBYPROPERTIES('X$1TW$9fSVxXMtKFYB5XOT',#6,$,$,(#105),#264);
#266=IFCPROPERTYSINGLEVALUE('InternalTaskId',$,IFCTEXT('task-mtx91ey1i06x1259'),$);
#267=IFCPROPERTYSET('jxX327F7Q$2R1hcHF9UFZR',#6,'OPS_TaskIdentity',$,(#266));
#268=IFCRELDEFINESBYPROPERTIES('CfQj7dzl9BXRnDlX5razZt',#6,$,$,(#107),#267);
#269=IFCPROPERTYSINGLEVALUE('InternalTaskId',$,IFCTEXT('task-mtx91ey3gue31260'),$);
#270=IFCPROPERTYSET('OR8VyXs1S1HBSpt$lh15nb',#6,'OPS_TaskIdentity',$,(#269));
#271=IFCRELDEFINESBYPROPERTIES('XZ8X8h4HRVZ9hN4l1VlrOB',#6,$,$,(#109),#270);
#272=IFCPROPERTYSINGLEVALUE('InternalTaskId',$,IFCTEXT('task-mtx91ey433q61261'),$);
#273=IFCPROPERTYSET('T1nDhjIlvZ4DmhQH1$zfEN',#6,'OPS_TaskIdentity',$,(#272));
#274=IFCRELDEFINESBYPROPERTIES('MTblVNWtjLNTF7ongnVRFV',#6,$,$,(#111),#273);
#275=IFCPROPERTYSINGLEVALUE('InternalTaskId',$,IFCTEXT('task-mtx91ey5myw21262'),$);
#276=IFCPROPERTYSET('P$Vz_d3HzZMzX5O1uZpdzL',#6,'OPS_TaskIdentity',$,(#275));
#277=IFCRELDEFINESBYPROPERTIES('kbh1AHvtJN5V6J71l7GfQF',#6,$,$,(#113),#276);
#278=IFCPROPERTYSINGLEVALUE('InternalTaskId',$,IFCTEXT('task-mtx91ey7ec0g1263'),$);
#279=IFCPROPERTYSET('ObuFRXbVRhpPe$FVnfkxhN',#6,'OPS_TaskIdentity',$,(#278));
#280=IFCRELDEFINESBYPROPERTIES('VZun1Tu7khDPu90VTzmf6b',#6,$,$,(#115),#279);
#281=IFCPROPERTYSINGLEVALUE('MilestoneKind',$,IFCLABEL('START'),$);
#282=IFCPROPERTYSET('B9EnzLinAtnLor_XrjnTjT',#6,'OPS_Milestone',$,(#281));
#283=IFCRELDEFINESBYPROPERTIES('ordzwZ87_Ti3X5GXs5Yhox',#6,$,$,(#51),#282);
#284=IFCPROPERTYSINGLEVALUE('MilestoneKind',$,IFCLABEL('FINISH'),$);
#285=IFCPROPERTYSET('kNmdVfGNWb37gtyF75s3tp',#6,'OPS_Milestone',$,(#284));
#286=IFCRELDEFINESBYPROPERTIES('LzNby$c7S19ztt4lldaB8p',#6,$,$,(#83),#285);
#287=IFCPROPERTYSINGLEVALUE('MilestoneKind',$,IFCLABEL('FINISH'),$);
#288=IFCPROPERTYSINGLEVALUE('Mandatory',$,IFCBOOLEAN(.T.),$);
#289=IFCPROPERTYSET('9j39AFjXdp_t$LYFb$dxLt',#6,'OPS_Milestone',$,(#287,#288));
#290=IFCRELDEFINESBYPROPERTIES('UVh1MVRXdPSJMr2XLT5Xyh',#6,$,$,(#115),#289);
ENDSEC;
END-ISO-10303-21;
