ISO-10303-21;
HEADER;
FILE_DESCRIPTION(('ViewDefinition [SchedulingView]'),'2;1');
FILE_NAME('Zuidas Office Building.ifc','2026-09-03T17:33:15',('Mark Bakker'),('Zuidas Development BV'),'Open Planner Studio 0.1','Open Planner Studio','');
FILE_SCHEMA(('IFC4X3'));
ENDSEC;
DATA;
#1=IFCPERSON($,'Mark Bakker',$,$,$,$,$,$);
#2=IFCORGANIZATION($,'Zuidas Development BV',$,$,$);
#3=IFCPERSONANDORGANIZATION(#1,#2,$);
#4=IFCORGANIZATION($,'OpenAEC Foundation',$,$,$);
#5=IFCAPPLICATION(#4,'0.1','Open Planner Studio','OPS');
#6=IFCOWNERHISTORY(#3,#5,$,.NOCHANGE.,$,$,$,1788456795);
#7=IFCSIUNIT(*,.LENGTHUNIT.,$,.METRE.);
#8=IFCSIUNIT(*,.TIMEUNIT.,$,.SECOND.);
#9=IFCUNITASSIGNMENT((#7,#8));
#10=IFCCARTESIANPOINT((0.,0.,0.));
#11=IFCAXIS2PLACEMENT3D(#10,$,$);
#12=IFCGEOMETRICREPRESENTATIONCONTEXT($,'Plan',3,1.0E-05,#11,$);
#13=IFCPROJECT('b5KJ$TudNF9RDZd1CF9zxh',#6,'Zuidas Office Building','Eight-storey office building with basement car park, BREEAM Excellent',$,$,$,(#12),#9);
#14=IFCTIMEPERIOD('07:00:00','16:00:00');
#15=IFCRECURRENCEPATTERN(.WEEKLY.,$,(1,2,3,4,5),$,$,$,$,(#14));
#16=IFCWORKTIME('Standard work week',.PREDICTED.,$,#15,$,$);
#17=IFCWORKTIME('New Year''s Day',.PREDICTED.,$,$,'2027-01-01','2027-01-01');
#18=IFCWORKTIME('Good Friday',.PREDICTED.,$,$,'2027-03-26','2027-03-26');
#19=IFCWORKTIME('Easter',.PREDICTED.,$,$,'2027-03-28','2027-03-29');
#20=IFCWORKTIME('King''s Day',.PREDICTED.,$,$,'2027-04-27','2027-04-27');
#21=IFCWORKTIME('Liberation Day',.PREDICTED.,$,$,'2027-05-05','2027-05-05');
#22=IFCWORKTIME('Ascension Day',.PREDICTED.,$,$,'2027-05-06','2027-05-06');
#23=IFCWORKTIME('Whitsun',.PREDICTED.,$,$,'2027-05-16','2027-05-17');
#24=IFCWORKTIME('Christmas',.PREDICTED.,$,$,'2027-12-25','2027-12-26');
#25=IFCWORKTIME('Construction holiday (northern region)',.PREDICTED.,$,$,'2027-07-26','2027-08-15');
#26=IFCWORKTIME('New Year''s Day',.PREDICTED.,$,$,'2028-01-01','2028-01-01');
#27=IFCWORKTIME('Good Friday',.PREDICTED.,$,$,'2028-04-14','2028-04-14');
#28=IFCWORKTIME('Easter',.PREDICTED.,$,$,'2028-04-16','2028-04-17');
#29=IFCWORKTIME('King''s Day',.PREDICTED.,$,$,'2028-04-27','2028-04-27');
#30=IFCWORKTIME('Liberation Day',.PREDICTED.,$,$,'2028-05-05','2028-05-05');
#31=IFCWORKTIME('Ascension Day',.PREDICTED.,$,$,'2028-05-25','2028-05-25');
#32=IFCWORKTIME('Whitsun',.PREDICTED.,$,$,'2028-06-04','2028-06-05');
#33=IFCWORKTIME('Christmas',.PREDICTED.,$,$,'2028-12-25','2028-12-26');
#34=IFCWORKTIME('Construction holiday (northern region)',.PREDICTED.,$,$,'2028-07-24','2028-08-13');
#35=IFCWORKCALENDAR('_HlbW$VPl1Yxnv_nBDbFBd',#6,'Construction calendar NL','Standard construction calendar: Mon-Fri 07:00-16:00',$,(#16),(#17,#18,#19,#20,#21,#22,#23,#24,#25,#26,#27,#28,#29,#30,#31,#32,#33,#34),.FIRSTSHIFT.);
#36=IFCPROPERTYSINGLEVALUE('HoursPerDay',$,IFCREAL(8),$);
#37=IFCPROPERTYSET('qL5XmPUFgdlJ6X9$WtAtOZ',#6,'OPS_Calendar',$,(#36));
#38=IFCRELDEFINESBYPROPERTIES('bXh12hy$qvOdOP_VbbYntl',#6,$,$,(#35),#37);
#39=IFCWORKPLAN('3DkHXfGNIBHB4zd1Fxz9K$',#6,'Zuidas Office Building','Eight-storey office building with basement car park, BREEAM Excellent',$,$,'2026-09-03T17:33:15',$,$,$,$,$,'2027-03-01T07:00:00','2027-03-26T07:00:00',.PLANNED.);
#40=IFCWORKSCHEDULE('W$Hj$34$OP9bh981UdyLUj',#6,'Construction schedule v1.0',$,$,$,'2026-09-03T17:33:15',$,$,$,$,$,'2027-03-01T07:00:00','2027-03-26T07:00:00',.PLANNED.);
#41=IFCRELAGGREGATES('X$Ph9TPtbVDd8te$ftI1sz',#6,$,$,#39,(#40));
#42=IFCTASKTIME('1. Preparation Time',.PREDICTED.,$,.WORKTIME.,'P0Y0M5D','2027-03-01T07:00:00','2027-03-05T07:00:00','2027-03-01T07:00:00','2027-03-30T07:00:00','2027-03-01T07:00:00','2028-05-04T07:00:00','P0Y0M0D','P0Y0M0D',.T.,$,$,$,$,$,0.00);
#43=IFCTASK('e5qx67wvER5$43lVdlj7Hl',#6,'1. Preparation',$,$,'1',$,$,$,.F.,$,#42,.CONSTRUCTION.);
#44=IFCTASKTIME('Set up site Time',.PREDICTED.,$,.WORKTIME.,'P0Y0M8D','2027-03-01T07:00:00','2027-03-10T07:00:00','2027-03-01T07:00:00','2027-03-10T07:00:00','2027-03-01T07:00:00','2027-03-10T07:00:00','P0Y0M0D','P0Y0M0D',.T.,$,$,$,$,$,0.00);
#45=IFCTASK('BtQNqxFvcjKz$LAlmlVDeB',#6,'Set up site',$,$,'1.1',$,$,$,.F.,$,#44,.LOGISTIC.);
#46=IFCTASKTIME('Stakeholder management Time',.PREDICTED.,$,.WORKTIME.,'P0Y0M5D','2027-03-01T07:00:00','2027-03-05T07:00:00','2027-03-11T07:00:00','2027-03-17T07:00:00','2028-04-18T07:00:00','2028-04-24T07:00:00','P0Y0M0D','P0Y0M265D',.F.,$,$,$,$,$,0.00);
#47=IFCTASK('V1FDNptNmDQX_7cl9ThH1t',#6,'Stakeholder management',$,$,'1.2',$,$,$,.F.,$,#46,.ATTENDANCE.);
#48=IFCTASKTIME('Traffic management Time',.PREDICTED.,$,.WORKTIME.,'P0Y0M3D','2027-03-01T07:00:00','2027-03-03T07:00:00','2027-03-18T07:00:00','2027-03-22T07:00:00','2028-04-25T07:00:00','2028-04-28T07:00:00','P0Y0M0D','P0Y0M265D',.F.,$,$,$,$,$,0.00);
#49=IFCTASK('K5Vzc941Srb$eXDlDvWPTb',#6,'Traffic management',$,$,'1.3',$,$,$,.F.,$,#48,.LOGISTIC.);
#50=IFCTASKTIME('Piezometer monitoring Time',.PREDICTED.,$,.WORKTIME.,'P0Y0M3D','2027-03-01T07:00:00','2027-03-03T07:00:00','2027-03-23T07:00:00','2027-03-25T07:00:00','2028-05-01T07:00:00','2028-05-03T07:00:00','P0Y0M0D','P0Y0M265D',.F.,$,$,$,$,$,0.00);
#51=IFCTASK('bRO1_re7ufZ9dlhFxLOHJX',#6,'Piezometer monitoring',$,$,'1.4',$,$,$,.F.,$,#50,.INSTALLATION.);
#52=IFCTASKTIME('Start of construction Time',.PREDICTED.,$,.WORKTIME.,'P0Y0M0D','2027-03-01T07:00:00','2027-03-01T07:00:00','2027-03-30T07:00:00','2027-03-30T07:00:00','2028-05-04T07:00:00','2028-05-04T07:00:00','P0Y0M265D','P0Y0M265D',.F.,$,$,$,$,$,0.00);
#53=IFCTASK('ovQfy$w7QXMn9f81gF93pH',#6,'Start of construction',$,$,'1.5',$,$,$,.T.,$,#52,.CONSTRUCTION.);
#54=IFCTASKTIME('2. Earthworks & foundations Time',.PREDICTED.,$,.WORKTIME.,'P0Y0M5D','2027-03-01T07:00:00','2027-03-05T07:00:00','2027-03-15T07:00:00','2027-09-09T07:00:00','2027-03-15T07:00:00','2028-05-04T07:00:00','P0Y0M0D','P0Y0M0D',.T.,$,$,$,$,$,0.00);
#55=IFCTASK('SZWNujJF8VgFTrg1BNI5hN',#6,'2. Earthworks & foundations',$,$,'2',$,$,$,.F.,$,#54,.CONSTRUCTION.);
#56=IFCTASKTIME('Sheet pile sections Time',.PREDICTED.,$,.WORKTIME.,'P0Y0M15D','2027-03-01T07:00:00','2027-03-19T07:00:00','2027-03-15T07:00:00','2027-04-06T07:00:00','2027-03-15T07:00:00','2027-04-06T07:00:00','P0Y0M0D','P0Y0M0D',.T.,$,$,$,$,$,0.00);
#57=IFCTASK('VTGv$TedNRbV_v_nbbk1ot',#6,'Sheet pile sections',$,$,'2.1',$,$,$,.F.,$,#56,.CONSTRUCTION.);
#58=IFCTASKTIME('Wellpoint dewatering Time',.PREDICTED.,$,.WORKTIME.,'P0Y0M5D','2027-03-01T07:00:00','2027-03-05T07:00:00','2027-04-07T07:00:00','2027-04-13T07:00:00','2027-12-23T07:00:00','2027-12-29T07:00:00','P0Y0M0D','P0Y0M167D',.F.,$,$,$,$,$,0.00);
#59=IFCTASK('kRJ7htqVTpO9LNSFnbl3BT',#6,'Wellpoint dewatering',$,$,'2.2',$,$,$,.F.,$,#58,.INSTALLATION.);
#60=IFCTASKTIME('Excavate to level -2 Time',.PREDICTED.,$,.WORKTIME.,'P0Y0M12D','2027-03-01T07:00:00','2027-03-16T07:00:00','2027-04-14T07:00:00','2027-04-30T07:00:00','2027-12-30T07:00:00','2028-01-14T07:00:00','P0Y0M0D','P0Y0M167D',.F.,$,$,$,$,$,0.00);
#61=IFCTASK('eTpPr3qFmzG1SdYVZZqb1f',#6,'Excavate to level -2',$,$,'2.3',$,$,$,.F.,$,#60,.CONSTRUCTION.);
#62=IFCTASKTIME('Excavate to level -1 Time',.PREDICTED.,$,.WORKTIME.,'P0Y0M10D','2027-03-01T07:00:00','2027-03-12T07:00:00','2027-05-03T07:00:00','2027-05-19T07:00:00','2028-01-17T07:00:00','2028-01-28T07:00:00','P0Y0M0D','P0Y0M167D',.F.,$,$,$,$,$,0.00);
#63=IFCTASK('JfmdvhKXB3ufT9ql_f6J_X',#6,'Excavate to level -1',$,$,'2.4',$,$,$,.F.,$,#62,.CONSTRUCTION.);
#64=IFCTASKTIME('Bore foundation piles Time',.PREDICTED.,$,.WORKTIME.,'P0Y0M20D','2027-03-01T07:00:00','2027-03-26T07:00:00','2027-05-20T07:00:00','2027-06-16T07:00:00','2028-01-31T07:00:00','2028-02-25T07:00:00','P0Y0M0D','P0Y0M167D',.F.,$,$,$,$,$,0.00);
#65=IFCTASK('MdO$wZW9dpAHXFpnNfwjcB',#6,'Bore foundation piles',$,$,'2.5',$,$,$,.F.,$,#64,.CONSTRUCTION.);
#66=IFCTASKTIME('Foundation beams Time',.PREDICTED.,$,.WORKTIME.,'P0Y0M10D','2027-03-01T07:00:00','2027-03-12T07:00:00','2027-06-17T07:00:00','2027-06-30T07:00:00','2028-02-28T07:00:00','2028-03-10T07:00:00','P0Y0M0D','P0Y0M167D',.F.,$,$,$,$,$,0.00);
#67=IFCTASK('LTTNORoHLjcDSd2VnxbF3h',#6,'Foundation beams',$,$,'2.6',$,$,$,.F.,$,#66,.CONSTRUCTION.);
#68=IFCTASKTIME('Basement floor P2 Time',.PREDICTED.,$,.WORKTIME.,'P0Y0M8D','2027-03-01T07:00:00','2027-03-10T07:00:00','2027-07-01T07:00:00','2027-07-12T07:00:00','2028-03-13T07:00:00','2028-03-22T07:00:00','P0Y0M0D','P0Y0M167D',.F.,$,$,$,$,$,0.00);
#69=IFCTASK('pPsTCvVdTJyhsRu16t_HVv',#6,'Basement floor P2',$,$,'2.7',$,$,$,.F.,$,#68,.CONSTRUCTION.);
#70=IFCTASKTIME('Basement floor P1 Time',.PREDICTED.,$,.WORKTIME.,'P0Y0M8D','2027-03-01T07:00:00','2027-03-10T07:00:00','2027-07-13T07:00:00','2027-07-22T07:00:00','2028-03-23T07:00:00','2028-04-03T07:00:00','P0Y0M0D','P0Y0M167D',.F.,$,$,$,$,$,0.00);
#71=IFCTASK('1pwtUbYns9vDOXhn9d07hD',#6,'Basement floor P1',$,$,'2.8',$,$,$,.F.,$,#70,.CONSTRUCTION.);
#72=IFCTASKTIME('Pour basement walls Time',.PREDICTED.,$,.WORKTIME.,'P0Y0M12D','2027-03-01T07:00:00','2027-03-16T07:00:00','2027-07-23T07:00:00','2027-08-30T07:00:00','2028-04-04T07:00:00','2028-04-21T07:00:00','P0Y0M0D','P0Y0M167D',.F.,$,$,$,$,$,0.00);
#73=IFCTASK('DB1rzhKVT1MznpnX1VPJot',#6,'Pour basement walls',$,$,'2.9',$,$,$,.F.,$,#72,.CONSTRUCTION.);
#74=IFCTASKTIME('Basement waterproofing Time',.PREDICTED.,$,.WORKTIME.,'P0Y0M8D','2027-03-01T07:00:00','2027-03-10T07:00:00','2027-08-31T07:00:00','2027-09-09T07:00:00','2028-04-24T07:00:00','2028-05-04T07:00:00','P0Y0M167D','P0Y0M167D',.F.,$,$,$,$,$,0.00);
#75=IFCTASK('TVrX8Bedfx1ZBjpl5B4ZzL',#6,'Basement waterproofing',$,$,'2.10',$,$,$,.F.,$,#74,.CONSTRUCTION.);
#76=IFCTASKTIME('3. Structural works Time',.PREDICTED.,$,.WORKTIME.,'P0Y0M5D','2027-03-01T07:00:00','2027-03-05T07:00:00','2027-03-23T07:00:00','2027-09-08T07:00:00','2027-03-23T07:00:00','2028-05-04T07:00:00','P0Y0M0D','P0Y0M0D',.T.,$,$,$,$,$,0.00);
#77=IFCTASK('nvs791cviJaBSds$ffobTf',#6,'3. Structural works',$,$,'3',$,$,$,.F.,$,#76,.CONSTRUCTION.);
#78=IFCTASKTIME('Ground floor columns & slab Time',.PREDICTED.,$,.WORKTIME.,'P0Y0M10D','2027-03-01T07:00:00','2027-03-12T07:00:00','2027-03-23T07:00:00','2027-04-07T07:00:00','2027-03-23T07:00:00','2027-04-07T07:00:00','P0Y0M0D','P0Y0M0D',.T.,$,$,$,$,$,0.00);
#79=IFCTASK('9tU$Ar17UDgFVb4nfj$jsd',#6,'Ground floor columns & slab',$,$,'3.1',$,$,$,.F.,$,#78,.CONSTRUCTION.);
#80=IFCTASKTIME('Floor 1 structural works Time',.PREDICTED.,$,.WORKTIME.,'P0Y0M8D','2027-03-01T07:00:00','2027-03-10T07:00:00','2027-04-08T07:00:00','2027-04-19T07:00:00','2027-04-08T07:00:00','2027-04-19T07:00:00','P0Y0M0D','P0Y0M0D',.T.,$,$,$,$,$,0.00);
#81=IFCTASK('I9S3cJs$u99zxH71$XPJwx',#6,'Floor 1 structural works',$,$,'3.2',$,$,$,.F.,$,#80,.CONSTRUCTION.);
#82=IFCTASKTIME('Floor 2 structural works Time',.PREDICTED.,$,.WORKTIME.,'P0Y0M8D','2027-03-01T07:00:00','2027-03-10T07:00:00','2027-04-20T07:00:00','2027-04-30T07:00:00','2027-04-20T07:00:00','2027-04-30T07:00:00','P0Y0M0D','P0Y0M0D',.T.,$,$,$,$,$,0.00);
#83=IFCTASK('kbh1o3Ll3nqZDFv1IZKxR1',#6,'Floor 2 structural works',$,$,'3.3',$,$,$,.F.,$,#82,.CONSTRUCTION.);
#84=IFCTASKTIME('Floor 3 structural works Time',.PREDICTED.,$,.WORKTIME.,'P0Y0M8D','2027-03-01T07:00:00','2027-03-10T07:00:00','2027-05-03T07:00:00','2027-05-14T07:00:00','2027-05-03T07:00:00','2027-05-14T07:00:00','P0Y0M0D','P0Y0M0D',.T.,$,$,$,$,$,0.00);
#85=IFCTASK('SZGdzdDFUvWHXnjF$XHBuJ',#6,'Floor 3 structural works',$,$,'3.4',$,$,$,.F.,$,#84,.CONSTRUCTION.);
#86=IFCTASKTIME('Floor 4 structural works Time',.PREDICTED.,$,.WORKTIME.,'P0Y0M8D','2027-03-01T07:00:00','2027-03-10T07:00:00','2027-05-18T07:00:00','2027-05-27T07:00:00','2027-05-18T07:00:00','2027-05-27T07:00:00','P0Y0M0D','P0Y0M0D',.T.,$,$,$,$,$,0.00);
#87=IFCTASK('mPI5cNOdlXId8lP$rDTfwR',#6,'Floor 4 structural works',$,$,'3.5',$,$,$,.F.,$,#86,.CONSTRUCTION.);
#88=IFCTASKTIME('Floor 5 structural works Time',.PREDICTED.,$,.WORKTIME.,'P0Y0M8D','2027-03-01T07:00:00','2027-03-10T07:00:00','2027-05-28T07:00:00','2027-06-08T07:00:00','2027-05-28T07:00:00','2027-06-08T07:00:00','P0Y0M0D','P0Y0M0D',.T.,$,$,$,$,$,0.00);
#89=IFCTASK('P$vBdNtNg5PBqFd1KXTfIL',#6,'Floor 5 structural works',$,$,'3.6',$,$,$,.F.,$,#88,.CONSTRUCTION.);
#90=IFCTASKTIME('Floor 6 structural works Time',.PREDICTED.,$,.WORKTIME.,'P0Y0M8D','2027-03-01T07:00:00','2027-03-10T07:00:00','2027-06-09T07:00:00','2027-06-18T07:00:00','2027-06-09T07:00:00','2027-06-18T07:00:00','P0Y0M0D','P0Y0M0D',.T.,$,$,$,$,$,0.00);
#91=IFCTASK('e5ij5HlPfRz7_JxFsbwPXZ',#6,'Floor 6 structural works',$,$,'3.7',$,$,$,.F.,$,#90,.CONSTRUCTION.);
#92=IFCTASKTIME('Floor 7 structural works Time',.PREDICTED.,$,.WORKTIME.,'P0Y0M8D','2027-03-01T07:00:00','2027-03-10T07:00:00','2027-06-21T07:00:00','2027-06-30T07:00:00','2027-06-21T07:00:00','2027-06-30T07:00:00','P0Y0M0D','P0Y0M0D',.T.,$,$,$,$,$,0.00);
#93=IFCTASK('xhYh9zhHjt7DGb0Xr9k$o5',#6,'Floor 7 structural works',$,$,'3.8',$,$,$,.F.,$,#92,.CONSTRUCTION.);
#94=IFCTASKTIME('Floor 8 structural works Time',.PREDICTED.,$,.WORKTIME.,'P0Y0M8D','2027-03-01T07:00:00','2027-03-10T07:00:00','2027-07-01T07:00:00','2027-07-12T07:00:00','2027-07-01T07:00:00','2027-07-12T07:00:00','P0Y0M0D','P0Y0M0D',.T.,$,$,$,$,$,0.00);
#95=IFCTASK('3HVLLjElDdnpWppnT1T9af',#6,'Floor 8 structural works',$,$,'3.9',$,$,$,.F.,$,#94,.CONSTRUCTION.);
#96=IFCTASKTIME('Concrete stair and lift core Time',.PREDICTED.,$,.WORKTIME.,'P0Y0M20D','2027-03-01T07:00:00','2027-03-26T07:00:00','2027-07-08T07:00:00','2027-08-25T07:00:00','2027-07-08T07:00:00','2027-08-25T07:00:00','P0Y0M0D','P0Y0M0D',.T.,$,$,$,$,$,0.00);
#97=IFCTASK('mvY$634HfxX3lzf1YLPjoN',#6,'Concrete stair and lift core',$,$,'3.10',$,$,$,.F.,$,#96,.CONSTRUCTION.);
#98=IFCTASKTIME('Steel roof structure Time',.PREDICTED.,$,.WORKTIME.,'P0Y0M10D','2027-03-01T07:00:00','2027-03-12T07:00:00','2027-08-26T07:00:00','2027-09-08T07:00:00','2027-08-26T07:00:00','2027-09-08T07:00:00','P0Y0M0D','P0Y0M0D',.T.,$,$,$,$,$,0.00);
#99=IFCTASK('tDvZ4$EtbBfZRLYFTZyhA3',#6,'Steel roof structure',$,$,'3.11',$,$,$,.F.,$,#98,.CONSTRUCTION.);
#100=IFCTASKTIME('Topping out Time',.PREDICTED.,$,.WORKTIME.,'P0Y0M0D','2027-03-01T07:00:00','2027-03-01T07:00:00','2027-09-08T07:00:00','2027-09-08T07:00:00','2028-05-04T07:00:00','2028-05-04T07:00:00','P0Y0M168D','P0Y0M168D',.F.,$,$,$,$,$,0.00);
#101=IFCTASK('C9kHLJElT$MzfPw$W9MNo5',#6,'Topping out',$,$,'3.12',$,$,$,.T.,$,#100,.CONSTRUCTION.);
#102=IFCTASKTIME('4. Facade Time',.PREDICTED.,$,.WORKTIME.,'P0Y0M5D','2027-03-01T07:00:00','2027-03-05T07:00:00','2027-07-21T07:00:00','2027-10-21T07:00:00','2027-07-21T07:00:00','2028-05-04T07:00:00','P0Y0M0D','P0Y0M0D',.T.,$,$,$,$,$,0.00);
#103=IFCTASK('8BwtIDFv_NIdWj9$eDB$MJ',#6,'4. Facade',$,$,'4',$,$,$,.F.,$,#102,.INSTALLATION.);
#104=IFCTASKTIME('Curtain wall installation, phase 1 Time',.PREDICTED.,$,.WORKTIME.,'P0Y0M15D','2027-03-01T07:00:00','2027-03-19T07:00:00','2027-07-21T07:00:00','2027-08-31T07:00:00','2027-07-21T07:00:00','2027-08-31T07:00:00','P0Y0M0D','P0Y0M0D',.T.,$,$,$,$,$,0.00);
#105=IFCTASK('HRRlpFiVDP9bTh2F1T4hkh',#6,'Curtain wall installation, phase 1',$,$,'4.1',$,$,$,.F.,$,#104,.INSTALLATION.);
#106=IFCTASKTIME('Curtain wall installation, phase 2 Time',.PREDICTED.,$,.WORKTIME.,'P0Y0M15D','2027-03-01T07:00:00','2027-03-19T07:00:00','2027-09-01T07:00:00','2027-09-21T07:00:00','2027-09-01T07:00:00','2027-09-21T07:00:00','P0Y0M0D','P0Y0M0D',.T.,$,$,$,$,$,0.00);
#107=IFCTASK('xHDvR1VdbV3N$VpH1z07J$',#6,'Curtain wall installation, phase 2',$,$,'4.2',$,$,$,.F.,$,#106,.INSTALLATION.);
#108=IFCTASKTIME('Curtain wall installation, phase 3 Time',.PREDICTED.,$,.WORKTIME.,'P0Y0M12D','2027-03-01T07:00:00','2027-03-16T07:00:00','2027-09-22T07:00:00','2027-10-07T07:00:00','2027-09-22T07:00:00','2027-10-07T07:00:00','P0Y0M0D','P0Y0M0D',.T.,$,$,$,$,$,0.00);
#109=IFCTASK('0l7Zan4$KpmXcHzl2xhV0N',#6,'Curtain wall installation, phase 3',$,$,'4.3',$,$,$,.F.,$,#108,.INSTALLATION.);
#110=IFCTASKTIME('Roof finishes and services Time',.PREDICTED.,$,.WORKTIME.,'P0Y0M10D','2027-03-01T07:00:00','2027-03-12T07:00:00','2027-10-08T07:00:00','2027-10-21T07:00:00','2027-10-08T07:00:00','2027-10-21T07:00:00','P0Y0M0D','P0Y0M0D',.T.,$,$,$,$,$,0.00);
#111=IFCTASK('XVJvzr8vcpGVQzRF4BBnfV',#6,'Roof finishes and services',$,$,'4.4',$,$,$,.F.,$,#110,.CONSTRUCTION.);
#112=IFCTASKTIME('Wind and weathertight Time',.PREDICTED.,$,.WORKTIME.,'P0Y0M0D','2027-03-01T07:00:00','2027-03-01T07:00:00','2027-10-21T07:00:00','2027-10-21T07:00:00','2028-05-04T07:00:00','2028-05-04T07:00:00','P0Y0M137D','P0Y0M137D',.F.,$,$,$,$,$,0.00);
#113=IFCTASK('Frtp1vI919PjIxWV5rCpWP',#6,'Wind and weathertight',$,$,'4.5',$,$,$,.T.,$,#112,.INSTALLATION.);
#114=IFCTASKTIME('5. Building services Time',.PREDICTED.,$,.WORKTIME.,'P0Y0M5D','2027-03-01T07:00:00','2027-03-05T07:00:00','2027-10-22T07:00:00','2028-02-22T07:00:00','2027-10-22T07:00:00','2028-05-04T07:00:00','P0Y0M0D','P0Y0M0D',.T.,$,$,$,$,$,0.00);
#115=IFCTASK('SXJvxH$vMbZPePc1oJA9Sx',#6,'5. Building services',$,$,'5',$,$,$,.F.,$,#114,.INSTALLATION.);
#116=IFCTASKTIME('Main electrical switchroom Time',.PREDICTED.,$,.WORKTIME.,'P0Y0M10D','2027-03-01T07:00:00','2027-03-12T07:00:00','2027-10-22T07:00:00','2027-11-04T07:00:00','2027-10-22T07:00:00','2027-11-04T07:00:00','P0Y0M0D','P0Y0M0D',.T.,$,$,$,$,$,0.00);
#117=IFCTASK('gvCD9ZlPdDAHn7AHiJEX8b',#6,'Main electrical switchroom',$,$,'5.1',$,$,$,.F.,$,#116,.INSTALLATION.);
#118=IFCTASKTIME('Risers, electrical Time',.PREDICTED.,$,.WORKTIME.,'P0Y0M12D','2027-03-01T07:00:00','2027-03-16T07:00:00','2027-11-05T07:00:00','2027-11-22T07:00:00','2028-01-13T07:00:00','2028-01-28T07:00:00','P0Y0M0D','P0Y0M49D',.F.,$,$,$,$,$,0.00);
#119=IFCTASK('uLsTuDXdl$_Rh9WXtd075r',#6,'Risers, electrical',$,$,'5.2',$,$,$,.F.,$,#118,.INSTALLATION.);
#120=IFCTASKTIME('Risers, mechanical services Time',.PREDICTED.,$,.WORKTIME.,'P0Y0M12D','2027-03-01T07:00:00','2027-03-16T07:00:00','2027-11-10T07:00:00','2027-11-25T07:00:00','2028-01-18T07:00:00','2028-02-02T07:00:00','P0Y0M0D','P0Y0M49D',.F.,$,$,$,$,$,0.00);
#121=IFCTASK('uhgzUbwXDPdrWJP1tPmN_1',#6,'Risers, mechanical services',$,$,'5.3',$,$,$,.F.,$,#120,.INSTALLATION.);
#122=IFCTASKTIME('Air handling units Time',.PREDICTED.,$,.WORKTIME.,'P0Y0M10D','2027-03-01T07:00:00','2027-03-12T07:00:00','2027-11-26T07:00:00','2027-12-09T07:00:00','2028-02-03T07:00:00','2028-02-16T07:00:00','P0Y0M0D','P0Y0M49D',.F.,$,$,$,$,$,0.00);
#123=IFCTASK('9fobSDMdJNR189O$RbwPb1',#6,'Air handling units',$,$,'5.4',$,$,$,.F.,$,#122,.INSTALLATION.);
#124=IFCTASKTIME('Ventilation ductwork Time',.PREDICTED.,$,.WORKTIME.,'P0Y0M15D','2027-03-01T07:00:00','2027-03-19T07:00:00','2027-12-10T07:00:00','2027-12-30T07:00:00','2028-02-17T07:00:00','2028-03-08T07:00:00','P0Y0M0D','P0Y0M49D',.F.,$,$,$,$,$,0.00);
#125=IFCTASK('tNwplV3Hfx9RJjf$AXz9Oz',#6,'Ventilation ductwork',$,$,'5.5',$,$,$,.F.,$,#124,.INSTALLATION.);
#126=IFCTASKTIME('Sprinkler installation Time',.PREDICTED.,$,.WORKTIME.,'P0Y0M10D','2027-03-01T07:00:00','2027-03-12T07:00:00','2027-12-31T07:00:00','2028-01-13T07:00:00','2028-03-09T07:00:00','2028-03-22T07:00:00','P0Y0M0D','P0Y0M49D',.F.,$,$,$,$,$,0.00);
#127=IFCTASK('ktKROz5n4HJfTN0V9TJvVv',#6,'Sprinkler installation',$,$,'5.6',$,$,$,.F.,$,#126,.INSTALLATION.);
#128=IFCTASKTIME('Lift installation Time',.PREDICTED.,$,.WORKTIME.,'P0Y0M20D','2027-03-01T07:00:00','2027-03-26T07:00:00','2028-01-14T07:00:00','2028-02-10T07:00:00','2028-03-23T07:00:00','2028-04-21T07:00:00','P0Y0M0D','P0Y0M49D',.F.,$,$,$,$,$,0.00);
#129=IFCTASK('EP_rlbr14RLllfSlbx6JER',#6,'Lift installation',$,$,'5.7',$,$,$,.F.,$,#128,.INSTALLATION.);
#130=IFCTASKTIME('BMS/building management Time',.PREDICTED.,$,.WORKTIME.,'P0Y0M8D','2027-03-01T07:00:00','2027-03-10T07:00:00','2028-02-11T07:00:00','2028-02-22T07:00:00','2028-04-24T07:00:00','2028-05-04T07:00:00','P0Y0M49D','P0Y0M49D',.F.,$,$,$,$,$,0.00);
#131=IFCTASK('R1PLJXYnUve95llXLzNTB7',#6,'BMS/building management',$,$,'5.8',$,$,$,.F.,$,#130,.INSTALLATION.);
#132=IFCTASKTIME('6. Fit-out Time',.PREDICTED.,$,.WORKTIME.,'P0Y0M5D','2027-03-01T07:00:00','2027-03-05T07:00:00','2027-12-30T07:00:00','2028-03-22T07:00:00','2027-12-30T07:00:00','2028-03-22T07:00:00','P0Y0M0D','P0Y0M0D',.T.,$,$,$,$,$,0.00);
#133=IFCTASK('jfelTfv9bLLH1$v12xB$Ef',#6,'6. Fit-out',$,$,'6',$,$,$,.F.,$,#132,.CONSTRUCTION.);
#134=IFCTASKTIME('Office system partitions Time',.PREDICTED.,$,.WORKTIME.,'P0Y0M15D','2027-03-01T07:00:00','2027-03-19T07:00:00','2027-12-30T07:00:00','2028-01-19T07:00:00','2027-12-30T07:00:00','2028-01-19T07:00:00','P0Y0M0D','P0Y0M0D',.T.,$,$,$,$,$,0.00);
#135=IFCTASK('W1fRK9T16FK3FjRFWtk$kr',#6,'Office system partitions',$,$,'6.1',$,$,$,.F.,$,#134,.CONSTRUCTION.);
#136=IFCTASKTIME('Suspended ceilings Time',.PREDICTED.,$,.WORKTIME.,'P0Y0M12D','2027-03-01T07:00:00','2027-03-16T07:00:00','2028-01-20T07:00:00','2028-02-04T07:00:00','2028-01-20T07:00:00','2028-02-04T07:00:00','P0Y0M0D','P0Y0M0D',.T.,$,$,$,$,$,0.00);
#137=IFCTASK('bxqDj1ktFFyL2JzlQP0737',#6,'Suspended ceilings',$,$,'6.2',$,$,$,.F.,$,#136,.CONSTRUCTION.);
#138=IFCTASKTIME('Raised floors Time',.PREDICTED.,$,.WORKTIME.,'P0Y0M10D','2027-03-01T07:00:00','2027-03-12T07:00:00','2028-02-07T07:00:00','2028-02-18T07:00:00','2028-02-07T07:00:00','2028-02-18T07:00:00','P0Y0M0D','P0Y0M0D',.T.,$,$,$,$,$,0.00);
#139=IFCTASK('wLUL3dbVBZSJMNWV7VbFZx',#6,'Raised floors',$,$,'6.3',$,$,$,.F.,$,#138,.CONSTRUCTION.);
#140=IFCTASKTIME('Sanitary rooms Time',.PREDICTED.,$,.WORKTIME.,'P0Y0M8D','2027-03-01T07:00:00','2027-03-10T07:00:00','2028-02-21T07:00:00','2028-03-01T07:00:00','2028-02-21T07:00:00','2028-03-01T07:00:00','P0Y0M0D','P0Y0M0D',.T.,$,$,$,$,$,0.00);
#141=IFCTASK('XzijL9a$MbLlrp71sVJvzP',#6,'Sanitary rooms',$,$,'6.4',$,$,$,.F.,$,#140,.CONSTRUCTION.);
#142=IFCTASKTIME('Kitchen/pantry fit-out Time',.PREDICTED.,$,.WORKTIME.,'P0Y0M5D','2027-03-01T07:00:00','2027-03-05T07:00:00','2028-03-02T07:00:00','2028-03-08T07:00:00','2028-03-02T07:00:00','2028-03-08T07:00:00','P0Y0M0D','P0Y0M0D',.T.,$,$,$,$,$,0.00);
#143=IFCTASK('yntDLDgd3lePKbSnZXFLob',#6,'Kitchen/pantry fit-out',$,$,'6.5',$,$,$,.F.,$,#142,.INSTALLATION.);
#144=IFCTASKTIME('Painting & finishing Time',.PREDICTED.,$,.WORKTIME.,'P0Y0M10D','2027-03-01T07:00:00','2027-03-12T07:00:00','2028-03-09T07:00:00','2028-03-22T07:00:00','2028-03-09T07:00:00','2028-03-22T07:00:00','P0Y0M0D','P0Y0M0D',.T.,$,$,$,$,$,0.00);
#145=IFCTASK('AjxVe3z$GZSJQzxFwDRFT5',#6,'Painting & finishing',$,$,'6.6',$,$,$,.F.,$,#144,.CONSTRUCTION.);
#146=IFCTASKTIME('7. Site works & handover Time',.PREDICTED.,$,.WORKTIME.,'P0Y0M5D','2027-03-01T07:00:00','2027-03-05T07:00:00','2028-03-23T07:00:00','2028-05-04T07:00:00','2028-03-23T07:00:00','2028-05-04T07:00:00','P0Y0M0D','P0Y0M0D',.T.,$,$,$,$,$,0.00);
#147=IFCTASK('_lVhLJYF_Nsl37AHyBJvb5',#6,'7. Site works & handover',$,$,'7',$,$,$,.F.,$,#146,.CONSTRUCTION.);
#148=IFCTASKTIME('Paving & landscaping Time',.PREDICTED.,$,.WORKTIME.,'P0Y0M10D','2027-03-01T07:00:00','2027-03-12T07:00:00','2028-03-23T07:00:00','2028-04-05T07:00:00','2028-03-23T07:00:00','2028-04-05T07:00:00','P0Y0M0D','P0Y0M0D',.T.,$,$,$,$,$,0.00);
#149=IFCTASK('mtibKNd9nnyLUZRHMnfTlr',#6,'Paving & landscaping',$,$,'7.1',$,$,$,.F.,$,#148,.CONSTRUCTION.);
#150=IFCTASKTIME('Entrance & lobby fit-out Time',.PREDICTED.,$,.WORKTIME.,'P0Y0M8D','2027-03-01T07:00:00','2027-03-10T07:00:00','2028-04-06T07:00:00','2028-04-19T07:00:00','2028-04-06T07:00:00','2028-04-19T07:00:00','P0Y0M0D','P0Y0M0D',.T.,$,$,$,$,$,0.00);
#151=IFCTASK('AJz9gRr1qZgzb$f$lP4TRV',#6,'Entrance & lobby fit-out',$,$,'7.2',$,$,$,.F.,$,#150,.INSTALLATION.);
#152=IFCTASKTIME('Testing & commissioning Time',.PREDICTED.,$,.WORKTIME.,'P0Y0M10D','2027-03-01T07:00:00','2027-03-12T07:00:00','2028-04-20T07:00:00','2028-05-04T07:00:00','2028-04-20T07:00:00','2028-05-04T07:00:00','P0Y0M0D','P0Y0M0D',.T.,$,$,$,$,$,0.00);
#153=IFCTASK('jx7BTRcVzTMzFpXVK17R5r',#6,'Testing & commissioning',$,$,'7.3',$,$,$,.F.,$,#152,.ATTENDANCE.);
#154=IFCTASKTIME('Handover Time',.PREDICTED.,$,.WORKTIME.,'P0Y0M0D','2027-03-01T07:00:00','2027-03-01T07:00:00','2028-05-04T07:00:00','2028-05-04T07:00:00','2028-05-04T07:00:00','2028-05-04T07:00:00','P0Y0M0D','P0Y0M0D',.T.,$,$,$,$,$,0.00);
#155=IFCTASK('HNuVO3DVvfEvsRWX$z07PB',#6,'Handover',$,$,'7.4',$,$,$,.T.,$,#154,.CONSTRUCTION.);
#156=IFCRELNESTS('HfGPLDYNKtkhQFFV3pMZnR',#6,'WBS 1. Preparation',$,#43,( #45,#47,#49,#51,#53));
#157=IFCRELNESTS('h7S3_vdtb$fTNbO1Lznh2V',#6,'WBS 2. Earthworks & foundations',$,#55,( #57,#59,#61,#63,#65,#67,#69,#71,#73,#75));
#158=IFCRELNESTS('MzfRSH8PPdqZdzJHn9cvvx',#6,'WBS 3. Structural works',$,#77,( #79,#81,#83,#85,#87,#89,#91,#93,#95,#97,#99,#101));
#159=IFCRELNESTS('Fv_VWXxVfRx1Cn1V6pLVuj',#6,'WBS 4. Facade',$,#103,( #105,#107,#109,#111,#113));
#160=IFCRELNESTS('TzKJFh5nmJEBe171cdOV8b',#6,'WBS 5. Building services',$,#115,( #117,#119,#121,#123,#125,#127,#129,#131));
#161=IFCRELNESTS('qrnxc9SHJNT9DZd$u31xLN',#6,'WBS 6. Fit-out',$,#133,( #135,#137,#139,#141,#143,#145));
#162=IFCRELNESTS('xL_rFrHd5FN5BJpllrzfoR',#6,'WBS 7. Site works & handover',$,#147,( #149,#151,#153,#155));
#163=IFCRELNESTS('tjjP5r1vgdnD4TBHzDgTrv',#6,'WBS Hoofd',$,#40,(#43,#55,#77,#103,#115,#133,#147));
#164=IFCRELSEQUENCE('phZNm9iXZXw1ePYVZTi5d7',#6,$,$,#45,#47,$,.FINISH_START.,$);
#165=IFCRELSEQUENCE('odsTexcvW5V3nJzH_5r1UD',#6,$,$,#47,#49,$,.FINISH_START.,$);
#166=IFCRELSEQUENCE('a3SLHVxXtrfT376HL3PjM9',#6,$,$,#49,#51,$,.FINISH_START.,$);
#167=IFCRELSEQUENCE('ibJvlxvt9VpdmBEX4rDdF5',#6,$,$,#51,#53,$,.FINISH_START.,$);
#168=IFCRELSEQUENCE('rp$rTbkH$fj7IFxlejtBOh',#6,$,$,#57,#59,$,.FINISH_START.,$);
#169=IFCRELSEQUENCE('N3PLnnrltrNT7p5lCFFhAT',#6,$,$,#59,#61,$,.FINISH_START.,$);
#170=IFCRELSEQUENCE('qf2r9$2Ng7RXoBoXebYnPd',#6,$,$,#61,#63,$,.FINISH_START.,$);
#171=IFCRELSEQUENCE('99_XyT0tfFvLoLwlR5_ra9',#6,$,$,#63,#65,$,.FINISH_START.,$);
#172=IFCRELSEQUENCE('2H7ZalmfolbVQlBn1Vtzxh',#6,$,$,#65,#67,$,.FINISH_START.,$);
#173=IFCRELSEQUENCE('i7qxcNmfkBlB8lP171NhER',#6,$,$,#67,#69,$,.FINISH_START.,$);
#174=IFCRELSEQUENCE('jNOHVNOd19XRl3t$4BT90f',#6,$,$,#69,#71,$,.FINISH_START.,$);
#175=IFCRELSEQUENCE('dXpdvBW9Dx$TjVd1lrhHDH',#6,$,$,#71,#73,$,.FINISH_START.,$);
#176=IFCRELSEQUENCE('rJLlP5ktPjM3PF$VQTLl$9',#6,$,$,#73,#75,$,.FINISH_START.,$);
#177=IFCRELSEQUENCE('NZTfCd3HFn4hUZrlTZa3xh',#6,$,$,#79,#81,$,.FINISH_START.,$);
#178=IFCRELSEQUENCE('xrcNCdbV7fsHjXFXvRYnv9',#6,$,$,#81,#83,$,.FINISH_START.,$);
#179=IFCRELSEQUENCE('9pHby1o95RzvA5qnqndjkB',#6,$,$,#83,#85,$,.FINISH_START.,$);
#180=IFCRELSEQUENCE('BfUhvBevenKRThQHNpLXab',#6,$,$,#85,#87,$,.FINISH_START.,$);
#181=IFCRELSEQUENCE('IRL$QfW93TQpiXf$Izu1Ad',#6,$,$,#87,#89,$,.FINISH_START.,$);
#182=IFCRELSEQUENCE('EPoRC7nvwlu7EBIV69oXOB',#6,$,$,#89,#91,$,.FINISH_START.,$);
#183=IFCRELSEQUENCE('pBvZWVJFmjIL2jZH83t375',#6,$,$,#91,#93,$,.FINISH_START.,$);
#184=IFCRELSEQUENCE('FdcJXJ_FG3WHtLslCHhHNZ',#6,$,$,#93,#95,$,.FINISH_START.,$);
#185=IFCLAGTIME('Lag',.PREDICTED.,$,IFCDURATION('P5D'),.WORKTIME.);
#186=IFCRELSEQUENCE('LPmvr7kt1fBFh90XH7WPLf',#6,$,$,#95,#97,#185,.START_START.,$);
#187=IFCRELSEQUENCE('$JwphjQVzTErOXRnWfAzLJ',#6,$,$,#97,#99,$,.FINISH_START.,$);
#188=IFCRELSEQUENCE('Dv2Xajs$GTibPFN1Vl7bBT',#6,$,$,#99,#101,$,.FINISH_START.,$);
#189=IFCRELSEQUENCE('ZVjv3B8dT$AZRhglEpcDy7',#6,$,$,#105,#107,$,.FINISH_START.,$);
#190=IFCRELSEQUENCE('8jD7RXzlz3MFZLYFDh7pW7',#6,$,$,#107,#109,$,.FINISH_START.,$);
#191=IFCRELSEQUENCE('O3vrxHndfH5$49SFpPKjAZ',#6,$,$,#109,#111,$,.FINISH_START.,$);
#192=IFCRELSEQUENCE('BN_BpjRXZ16j6JXXs1d5b1',#6,$,$,#111,#113,$,.FINISH_START.,$);
#193=IFCRELSEQUENCE('BDdzoz3$iJypadQ1EpA3fT',#6,$,$,#117,#119,$,.FINISH_START.,$);
#194=IFCLAGTIME('Lag',.PREDICTED.,$,IFCDURATION('P3D'),.WORKTIME.);
#195=IFCRELSEQUENCE('UXrV4XIHrf61Wj1VyvK5FR',#6,$,$,#119,#121,#194,.START_START.,$);
#196=IFCRELSEQUENCE('HxlJhf8vABj7cHhntdu$ER',#6,$,$,#121,#123,$,.FINISH_START.,$);
#197=IFCRELSEQUENCE('W1ljvv$PdvOd8nBl$X$xRX',#6,$,$,#123,#125,$,.FINISH_START.,$);
#198=IFCRELSEQUENCE('UVbHxhz181oB0zhFXD6JEN',#6,$,$,#125,#127,$,.FINISH_START.,$);
#199=IFCRELSEQUENCE('ORWf8JzHfx9b1h_npveVqF',#6,$,$,#127,#129,$,.FINISH_START.,$);
#200=IFCRELSEQUENCE('7Hp713qXFlOdWDxlatwdZx',#6,$,$,#129,#131,$,.FINISH_START.,$);
#201=IFCRELSEQUENCE('4Fn5w3yHZpe9PHrn$$zfI7',#6,$,$,#135,#137,$,.FINISH_START.,$);
#202=IFCRELSEQUENCE('ktibqRzHhdarutu1MlpPn5',#6,$,$,#137,#139,$,.FINISH_START.,$);
#203=IFCRELSEQUENCE('sJ5VC5VdvZC5JXv19T3NcH',#6,$,$,#139,#141,$,.FINISH_START.,$);
#204=IFCRELSEQUENCE('YTO$AnJVTpWHjV1XOJNLQl',#6,$,$,#141,#143,$,.FINISH_START.,$);
#205=IFCRELSEQUENCE('b$95sF31u$IL_jrnPBCpi$',#6,$,$,#143,#145,$,.FINISH_START.,$);
#206=IFCRELSEQUENCE('_pklr3iXnToBCHJHvbI$_$',#6,$,$,#149,#151,$,.FINISH_START.,$);
#207=IFCRELSEQUENCE('sNsT8r8PNF$Z9BYVrtgNAZ',#6,$,$,#151,#153,$,.FINISH_START.,$);
#208=IFCRELSEQUENCE('znZNq7tf4Hx$WDxHSNoRzd',#6,$,$,#153,#155,$,.FINISH_START.,$);
#209=IFCLAGTIME('Lag',.PREDICTED.,$,IFCDURATION('P10D'),.WORKTIME.);
#210=IFCRELSEQUENCE('JNmvZxcvSLvDCrQ1ARQ73v',#6,$,$,#45,#57,#209,.START_START.,$);
#211=IFCLAGTIME('Lag',.PREDICTED.,$,IFCRATIOMEASURE(0.4),.WORKTIME.);
#212=IFCRELSEQUENCE('mP2rZREH9XhHpFd$OJ1Jcr',#6,$,$,#57,#79,#211,.START_START.,$);
#213=IFCLAGTIME('Lag',.PREDICTED.,$,IFCDURATION('-P21D'),.WORKTIME.);
#214=IFCRELSEQUENCE('wHhHZNldtBdJkld$nRXD0t',#6,$,$,#99,#105,#213,.FINISH_START.,$);
#215=IFCLAGTIME('Lag',.PREDICTED.,$,IFCDURATION('P2D'),.WORKTIME.);
#216=IFCRELSEQUENCE('jt4TihRF2TK3XRylBtoXuR',#6,$,$,#99,#111,#215,.FINISH_FINISH.,$);
#217=IFCRELSEQUENCE('FL39IHevarj7kF3F0PSzJ1',#6,$,$,#111,#117,$,.FINISH_START.,$);
#218=IFCLAGTIME('Lag',.PREDICTED.,$,IFCDURATION('P49D'),.WORKTIME.);
#219=IFCRELSEQUENCE('2H9pbbpFMvrnLfalTXvpuj',#6,$,$,#117,#135,#218,.START_START.,$);
#220=IFCRELSEQUENCE('6F1BXjg$kX5XsvInydGfIv',#6,$,$,#145,#149,$,.FINISH_START.,$);
#221=IFCCONSTRUCTIONEQUIPMENTRESOURCE('prF5IH87sNDPm54F$XVbhD',#6,'Tower crane','One tower crane — the plot has room for a single crane base; floors, core and steel roof all queue for it',$,$,$,$,.USERDEFINED.);
#222=IFCSUBCONTRACTRESOURCE('g7CphpsPnFqZFdA$rJ7RXd',#6,'Site works contractor','Site set-up, the traffic measures on the surrounding roads and, at the very end, the paving and landscaping',$,$,$,$,.USERDEFINED.);
#223=IFCLABORRESOURCE('1pMdb5nvcDO9vXt$0dyhIL',#6,'Project management','Stakeholder management towards neighbours and the city, and the handover file',$,$,$,$,.USERDEFINED.);
#224=IFCSUBCONTRACTRESOURCE('o7Ilpn4lDxX3lZjnNjvRzd',#6,'Geotechnical monitoring contractor','Piezometers and deformation monitoring of the adjoining buildings — standard for a deep basement in the inner city',$,$,$,$,.USERDEFINED.);
#225=IFCSUBCONTRACTRESOURCE('DBnxQ9S1oRZPqnd$y7CDax',#6,'Piling contractor','Sheet piling and bored foundation piles',$,$,$,$,.USERDEFINED.);
#226=IFCSUBCONTRACTRESOURCE('4nvZW$XPf5f5pHDHtPOlXv',#6,'Earthworks contractor','Dewatering and the excavation down to level -2',$,$,$,$,.USERDEFINED.);
#227=IFCLABORRESOURCE('fzljJzrHpbz7QTnVxHrFHh',#6,'Structural works crew','Two concrete gangs of seven: one finishing the basement while the other climbs the tower',$,$,$,$,.USERDEFINED.);
#228=IFCLABORRESOURCE('Gdg363KF_zePSvkFmH9BKj',#6,'Core formwork gang','Dedicated gang on the self-climbing formwork of the stair and lift core, running alongside the floor cycle',$,$,$,$,.USERDEFINED.);
#229=IFCLABORRESOURCE('A9Mdl1XdPjcpO1lVFbnTR1',#6,'Steel fixers','Two rebar gangs of four, on the heavy elements; the typical floors get prefabricated reinforcement',$,$,$,$,.USERDEFINED.);
#230=IFCCONSTRUCTIONMATERIALRESOURCE('xBcNGfe7mjwjgroXODB1w1',#6,'Concrete C30/37',$,$,$,$,$,.USERDEFINED.);
#231=IFCSUBCONTRACTRESOURCE('d5a3IHGfOv5$8F3nu3NT5n',#6,'Structural steel contractor','Steel erection gang for the roof structure',$,$,$,$,.USERDEFINED.);
#232=IFCSUBCONTRACTRESOURCE('d1npHV3HTD8Nh3P1xBKxJz',#6,'Facade contractor','Unitised curtain wall, hoisted with its own monorail hoists off the floor edge — it never queues for the tower crane',$,$,$,$,.USERDEFINED.);
#233=IFCSUBCONTRACTRESOURCE('mfOHZNHd1tt3FjbnS9A9uj',#6,'Roofing contractor',$,$,$,$,$,.USERDEFINED.);
#234=IFCLABORRESOURCE('b$X3In4lBNQXYNynPhmNcl',#6,'Electricians',$,$,$,$,$,.USERDEFINED.);
#235=IFCLABORRESOURCE('C9s73BW95HrFzRWVVDs3DH',#6,'Mechanical fitters','Ductwork, air handling, sprinklers; peaks on the ventilation ductwork',$,$,$,$,.USERDEFINED.);
#236=IFCSUBCONTRACTRESOURCE('6h_B3B8Pd7ePO$d1G$hH7x',#6,'Lift contractor',$,$,$,$,$,.USERDEFINED.);
#237=IFCLABORRESOURCE('VzShpniFgvp9p3jHvbQvDF',#6,'Fit-out crew','System partitions, ceilings and raised floors across eight office storeys',$,$,$,$,.USERDEFINED.);
#238=IFCLABORRESOURCE('c$nDvhalD7jNF7sHml$Jox',#6,'Painters',$,$,$,$,$,.USERDEFINED.);
#239=IFCPROPERTYSINGLEVALUE('CostPerHour',$,IFCMONETARYMEASURE(110),$);
#240=IFCPROPERTYSINGLEVALUE('Color',$,IFCTEXT('#1E293B'),$);
#241=IFCPROPERTYSET('vrcfKL3$WxdBSDt$bb6PLN',#6,'OPS_Resource',$,(#239,#240));
#242=IFCRELDEFINESBYPROPERTIES('I9SL7BW9738vgB6$G1DdPd',#6,$,$,(#221),#241);
#243=IFCPROPERTYSINGLEVALUE('MaxUnits',$,IFCREAL(6),$);
#244=IFCPROPERTYSINGLEVALUE('CostPerHour',$,IFCMONETARYMEASURE(58),$);
#245=IFCPROPERTYSINGLEVALUE('Color',$,IFCTEXT('#B91C1C'),$);
#246=IFCPROPERTYSET('_lfJH5Xd5F$Z1XBF1$T9qZ',#6,'OPS_Resource',$,(#243,#244,#245));
#247=IFCRELDEFINESBYPROPERTIES('b5Sz6P_F8frFbXZHGXtzvb',#6,$,$,(#222),#246);
#248=IFCPROPERTYSINGLEVALUE('MaxUnits',$,IFCREAL(2),$);
#249=IFCPROPERTYSINGLEVALUE('CostPerHour',$,IFCMONETARYMEASURE(95),$);
#250=IFCPROPERTYSINGLEVALUE('Color',$,IFCTEXT('#DB2777'),$);
#251=IFCPROPERTYSET('h3vB1zinc1cDe$d1SfIxd7',#6,'OPS_Resource',$,(#248,#249,#250));
#252=IFCRELDEFINESBYPROPERTIES('ynNjFhZ1Q16J2Pg1$XvDmV',#6,$,$,(#223),#251);
#253=IFCPROPERTYSINGLEVALUE('MaxUnits',$,IFCREAL(2),$);
#254=IFCPROPERTYSINGLEVALUE('CostPerHour',$,IFCMONETARYMEASURE(115),$);
#255=IFCPROPERTYSINGLEVALUE('Color',$,IFCTEXT('#C2410C'),$);
#256=IFCPROPERTYSET('Y3qpl$NfQDG$yTTnc3tzV7',#6,'OPS_Resource',$,(#253,#254,#255));
#257=IFCRELDEFINESBYPROPERTIES('tfsTm9CVb1lrK$JnjR7bxr',#6,$,$,(#224),#256);
#258=IFCPROPERTYSINGLEVALUE('MaxUnits',$,IFCREAL(4),$);
#259=IFCPROPERTYSINGLEVALUE('CostPerHour',$,IFCMONETARYMEASURE(78),$);
#260=IFCPROPERTYSINGLEVALUE('Color',$,IFCTEXT('#6366F1'),$);
#261=IFCPROPERTYSET('7rQNeZV7yn1Zx5O1uZLlXv',#6,'OPS_Resource',$,(#258,#259,#260));
#262=IFCRELDEFINESBYPROPERTIES('ktahpFKFANT9FDN$R$$j_X',#6,$,$,(#225),#261);
#263=IFCPROPERTYSINGLEVALUE('MaxUnits',$,IFCREAL(6),$);
#264=IFCPROPERTYSINGLEVALUE('CostPerHour',$,IFCMONETARYMEASURE(62),$);
#265=IFCPROPERTYSINGLEVALUE('Color',$,IFCTEXT('#0D9488'),$);
#266=IFCPROPERTYSET('mdMzURElbr$5tLcH$X9zPL',#6,'OPS_Resource',$,(#263,#264,#265));
#267=IFCRELDEFINESBYPROPERTIES('9D9Dnnxn0Bnhc3xFonJ7rz',#6,$,$,(#226),#266);
#268=IFCPROPERTYSINGLEVALUE('MaxUnits',$,IFCREAL(14),$);
#269=IFCPROPERTYSINGLEVALUE('CostPerHour',$,IFCMONETARYMEASURE(46),$);
#270=IFCPROPERTYSINGLEVALUE('Color',$,IFCTEXT('#D97706'),$);
#271=IFCPROPERTYSET('hd09E16vk$XbLfiFUhlBSx',#6,'OPS_Resource',$,(#268,#269,#270));
#272=IFCRELDEFINESBYPROPERTIES('IbrVW1d99LZ9njDHBD3tCZ',#6,$,$,(#227),#271);
#273=IFCPROPERTYSINGLEVALUE('MaxUnits',$,IFCREAL(6),$);
#274=IFCPROPERTYSINGLEVALUE('CostPerHour',$,IFCMONETARYMEASURE(48),$);
#275=IFCPROPERTYSINGLEVALUE('Color',$,IFCTEXT('#A78BFA'),$);
#276=IFCPROPERTYSET('SZG75lld3Zg3DZ$XEp6J_X',#6,'OPS_Resource',$,(#273,#274,#275));
#277=IFCRELDEFINESBYPROPERTIES('r9oFDplvaXj7s5SFPHxVa5',#6,$,$,(#228),#276);
#278=IFCPROPERTYSINGLEVALUE('MaxUnits',$,IFCREAL(8),$);
#279=IFCPROPERTYSINGLEVALUE('CostPerHour',$,IFCMONETARYMEASURE(44),$);
#280=IFCPROPERTYSINGLEVALUE('Color',$,IFCTEXT('#38BDF8'),$);
#281=IFCPROPERTYSET('Y1vBDD$PHDuvkFDF97KjUj',#6,'OPS_Resource',$,(#278,#279,#280));
#282=IFCRELDEFINESBYPROPERTIES('xh2B7vNfwnyL_JBnfpr$_z',#6,$,$,(#229),#281);
#283=IFCPROPERTYSINGLEVALUE('MaxUnits',$,IFCREAL(999),$);
#284=IFCPROPERTYSINGLEVALUE('UnitOfMeasure',$,IFCLABEL('m³'),$);
#285=IFCPROPERTYSINGLEVALUE('Color',$,IFCTEXT('#4ADE80'),$);
#286=IFCPROPERTYSET('P$9xgx79vfw$iXFXNDz9ab',#6,'OPS_Resource',$,(#283,#284,#285));
#287=IFCRELDEFINESBYPROPERTIES('0lPzwZ09JNjvgr_VdlrFn5',#6,$,$,(#230),#286);
#288=IFCPROPERTYSINGLEVALUE('MaxUnits',$,IFCREAL(4),$);
#289=IFCPROPERTYSINGLEVALUE('CostPerHour',$,IFCMONETARYMEASURE(70),$);
#290=IFCPROPERTYSINGLEVALUE('Color',$,IFCTEXT('#FBBF24'),$);
#291=IFCPROPERTYSET('xnvT8jTHxxdBixO$4LHBS5',#6,'OPS_Resource',$,(#288,#289,#290));
#292=IFCRELDEFINESBYPROPERTIES('Y3iJ3BW9zzUNrpFX1$xVWv',#6,$,$,(#231),#291);
#293=IFCPROPERTYSINGLEVALUE('MaxUnits',$,IFCREAL(8),$);
#294=IFCPROPERTYSINGLEVALUE('CostPerHour',$,IFCMONETARYMEASURE(72),$);
#295=IFCPROPERTYSINGLEVALUE('Color',$,IFCTEXT('#BEF264'),$);
#296=IFCPROPERTYSET('jfuFHRjFq78fBjhnHhNZR$',#6,'OPS_Resource',$,(#293,#294,#295));
#297=IFCRELDEFINESBYPROPERTIES('Kbh1Y5c7ePFpyN8$lPSzDH',#6,$,$,(#232),#296);
#298=IFCPROPERTYSINGLEVALUE('MaxUnits',$,IFCREAL(4),$);
#299=IFCPROPERTYSINGLEVALUE('CostPerHour',$,IFCMONETARYMEASURE(66),$);
#300=IFCPROPERTYSINGLEVALUE('Color',$,IFCTEXT('#1E293B'),$);
#301=IFCPROPERTYSET('yDkHFFLlXbjfz7kF07mfch',#6,'OPS_Resource',$,(#298,#299,#300));
#302=IFCRELDEFINESBYPROPERTIES('hPO1kJr14HzvYTxlurix1D',#6,$,$,(#233),#301);
#303=IFCPROPERTYSINGLEVALUE('MaxUnits',$,IFCREAL(6),$);
#304=IFCPROPERTYSINGLEVALUE('CostPerHour',$,IFCMONETARYMEASURE(49),$);
#305=IFCPROPERTYSINGLEVALUE('Color',$,IFCTEXT('#1E293B'),$);
#306=IFCPROPERTYSET('lfGdtTv9JfBnPHZl8Z3fI7',#6,'OPS_Resource',$,(#303,#304,#305));
#307=IFCRELDEFINESBYPROPERTIES('MZ5F3Ly$yRJffxqlkVPJAP',#6,$,$,(#234),#306);
#308=IFCPROPERTYSINGLEVALUE('MaxUnits',$,IFCREAL(8),$);
#309=IFCPROPERTYSINGLEVALUE('CostPerHour',$,IFCMONETARYMEASURE(48),$);
#310=IFCPROPERTYSINGLEVALUE('Color',$,IFCTEXT('#1E293B'),$);
#311=IFCPROPERTYSET('W$Ph1PQVhdCTJXXVopAzHH',#6,'OPS_Resource',$,(#308,#309,#310));
#312=IFCRELDEFINESBYPROPERTIES('vLQJHx9felOPe$d1iXZfUH',#6,$,$,(#235),#311);
#313=IFCPROPERTYSINGLEVALUE('MaxUnits',$,IFCREAL(3),$);
#314=IFCPROPERTYSINGLEVALUE('CostPerHour',$,IFCMONETARYMEASURE(82),$);
#315=IFCPROPERTYSINGLEVALUE('Color',$,IFCTEXT('#1E293B'),$);
#316=IFCPROPERTYSET('cX5F5FbFolbV6Xd1LTBFr7',#6,'OPS_Resource',$,(#313,#314,#315));
#317=IFCRELDEFINESBYPROPERTIES('$pU1QpgPhp61mhEnIz8$cl',#6,$,$,(#236),#316);
#318=IFCPROPERTYSINGLEVALUE('MaxUnits',$,IFCREAL(10),$);
#319=IFCPROPERTYSINGLEVALUE('CostPerHour',$,IFCMONETARYMEASURE(44),$);
#320=IFCPROPERTYSINGLEVALUE('Color',$,IFCTEXT('#1E293B'),$);
#321=IFCPROPERTYSET('Bp1BPNv9hjQpWDrHzpMZdP',#6,'OPS_Resource',$,(#318,#319,#320));
#322=IFCRELDEFINESBYPROPERTIES('a1lJPtxnif_t5Hv$dL07BZ',#6,$,$,(#237),#321);
#323=IFCPROPERTYSINGLEVALUE('MaxUnits',$,IFCREAL(6),$);
#324=IFCPROPERTYSINGLEVALUE('CostPerHour',$,IFCMONETARYMEASURE(38),$);
#325=IFCPROPERTYSINGLEVALUE('Color',$,IFCTEXT('#1E293B'),$);
#326=IFCPROPERTYSET('ItijdffNif614fO1ObYnj3',#6,'OPS_Resource',$,(#323,#324,#325));
#327=IFCRELDEFINESBYPROPERTIES('hT39Ubs$yxNxRrA$NtEVmV',#6,$,$,(#238),#326);
#328=IFCRELASSIGNSTOPROCESS('RXbHd5sdPD6$Ch2Fb56J_1',#6,$,$,(#222),$,#45,$);
#329=IFCRELASSIGNSTOPROCESS('Ht4BRXZHnZ2bJJHVdFt3xL',#6,$,$,(#223),$,#47,$);
#330=IFCRELASSIGNSTOPROCESS('SZWfiBd9FlWl5RilyrT9Wv',#6,$,$,(#222),$,#49,$);
#331=IFCRELASSIGNSTOPROCESS('BpHRup7trT4pGBIVoDQDWd',#6,$,$,(#224),$,#51,$);
#332=IFCRELASSIGNSTOPROCESS('nBvZqdJFmZ4DGBM15lJv$9',#6,$,$,(#225),$,#57,$);
#333=IFCRELASSIGNSTOPROCESS('U34ZiLjXb1nLY9O1iVDPLN',#6,$,$,(#226),$,#59,$);
#334=IFCRELASSIGNSTOPROCESS('exq5wZuPzH0nNdoX0PKxd7',#6,$,$,(#226),$,#61,$);
#335=IFCRELASSIGNSTOPROCESS('zlPzYfffOFKbVbqlMhunNX',#6,$,$,(#226),$,#63,$);
#336=IFCRELASSIGNSTOPROCESS('wFHRajM$6nC5RBg15nFL2$',#6,$,$,(#225),$,#65,$);
#337=IFCRELASSIGNSTOPROCESS('bbOlzvtf8t$xzdkVQ7qbTt',#6,$,$,(#227,#229,#230),$,#67,$);
#338=IFCRELASSIGNSTOPROCESS('T$V3kluPflD9npd$OpDPF5',#6,$,$,(#227,#230),$,#69,$);
#339=IFCRELASSIGNSTOPROCESS('HbjvNHudLDMFr7Enojk1IL',#6,$,$,(#227,#230),$,#71,$);
#340=IFCRELASSIGNSTOPROCESS('3jUL$7sPbVR1yT3nW96dbX',#6,$,$,(#227,#229,#230),$,#73,$);
#341=IFCRELASSIGNSTOPROCESS('jN09MbB$Kf_txlFVTTCbvR',#6,$,$,(#227),$,#75,$);
#342=IFCRELASSIGNSTOPROCESS('dXxFTRA$0h5XAbWV7$7bHl',#6,$,$,(#227,#229,#221,#230),$,#79,$);
#343=IFCRELASSIGNSTOPROCESS('2nBnb1XPX7BFVxu$sXpd3r',#6,$,$,(#227,#221,#230),$,#81,$);
#344=IFCRELASSIGNSTOPROCESS('Y3KRy$2f6Hu7A7UFBNMTV3',#6,$,$,(#227,#221,#230),$,#83,$);
#345=IFCRELASSIGNSTOPROCESS('qBnxgXB$S1lB8FrltzfZJT',#6,$,$,(#227,#221,#230),$,#85,$);
#346=IFCRELASSIGNSTOPROCESS('W$lj13yHR$PJsR0VjbP5b1',#6,$,$,(#227,#221,#230),$,#87,$);
#347=IFCRELASSIGNSTOPROCESS('Nv4TujL$I1vp49ilWtUFR$',#6,$,$,(#227,#221,#230),$,#89,$);
#348=IFCRELASSIGNSTOPROCESS('8jjPDna1QjqT$$9$nbdx$J',#6,$,$,(#227,#221,#230),$,#91,$);
#349=IFCRELASSIGNSTOPROCESS('LzdLPRs$WRjfDn71QTLl9p',#6,$,$,(#227,#221,#230),$,#93,$);
#350=IFCRELASSIGNSTOPROCESS('pP6Dbxff6nqxRL_FFblzJ$',#6,$,$,(#227,#221,#230),$,#95,$);
#351=IFCRELASSIGNSTOPROCESS('WXTfiNV7Gjcp0ZnXvxYhYn',#6,$,$,(#228,#229,#230),$,#97,$);
#352=IFCRELASSIGNSTOPROCESS('vh6DnFz$CZQDWjFV$$pdDJ',#6,$,$,(#231,#221),$,#99,$);
#353=IFCRELASSIGNSTOPROCESS('VTG7FrFPxRJNtLoF6jd5f1',#6,$,$,(#232),$,#105,$);
#354=IFCRELASSIGNSTOPROCESS('B9cNy3iVbhZ9FD$VAX3tmV',#6,$,$,(#232),$,#107,$);
#355=IFCRELASSIGNSTOPROCESS('Gv69IpHvOdX3xnDn13mtij',#6,$,$,(#232),$,#109,$);
#356=IFCRELASSIGNSTOPROCESS('lfuVKL5FKtsZFP2XBj9Bi1',#6,$,$,(#233),$,#111,$);
#357=IFCRELASSIGNSTOPROCESS('wHR1ABv9flRX_pP$KVRFr7',#6,$,$,(#234),$,#117,$);
#358=IFCRELASSIGNSTOPROCESS('e3t5Ybg16zkdavUnr9A90t',#6,$,$,(#234),$,#119,$);
#359=IFCRELASSIGNSTOPROCESS('OzfReZdtdpMFFJ5ns5_Byv',#6,$,$,(#235),$,#121,$);
#360=IFCRELASSIGNSTOPROCESS('d$PLdRUn6TY5L3XVwNERlF',#6,$,$,(#235),$,#123,$);
#361=IFCRELASSIGNSTOPROCESS('d$1ZuJxVfbhHrp$VUrZt47',#6,$,$,(#235),$,#125,$);
#362=IFCRELASSIGNSTOPROCESS('2nJPBT0tr3Otb$N1j5ztOZ',#6,$,$,(#235),$,#127,$);
#363=IFCRELASSIGNSTOPROCESS('Y$dLrZOd5F$ZlfCHIXFLUp',#6,$,$,(#236),$,#129,$);
#364=IFCRELASSIGNSTOPROCESS('h7azw3yHrf_91hEnY7WPZx',#6,$,$,(#234),$,#131,$);
#365=IFCRELASSIGNSTOPROCESS('mfOld5Etj9VRFjBn93XbF$',#6,$,$,(#237),$,#135,$);
#366=IFCRELASSIGNSTOPROCESS('BjR$AHFdt$15zdw$ijc7HH',#6,$,$,(#237),$,#137,$);
#367=IFCRELASSIGNSTOPROCESS('MzPLpnCnOv3vARWVznzteB',#6,$,$,(#237),$,#139,$);
#368=IFCRELASSIGNSTOPROCESS('nLxX0HfNSXDd0Zd$G13NUF',#6,$,$,(#237,#235),$,#141,$);
#369=IFCRELASSIGNSTOPROCESS('q9AvfHWtfRrFLfynpB3NQB',#6,$,$,(#237),$,#143,$);
#370=IFCRELASSIGNSTOPROCESS('wL6Dxh31CTU5J1pF13mNAP',#6,$,$,(#238),$,#145,$);
#371=IFCRELASSIGNSTOPROCESS('0FLH$dQXHVo7o1HVrJVpuj',#6,$,$,(#222),$,#149,$);
#372=IFCRELASSIGNSTOPROCESS('whUhLj_FKJCZ9LoFYrj7rT',#6,$,$,(#237),$,#151,$);
#373=IFCRELASSIGNSTOPROCESS('T3yZ43Cn0rvD8HN$IZarWd',#6,$,$,(#234,#235,#223),$,#153,$);
#374=IFCPROPERTYSINGLEVALUE('g7CphpsPnFqZFdA$rJ7RXd#0',$,IFCTEXT('6|UNIFORM'),$);
#375=IFCPROPERTYSET('aZmPFnT1I1FLkx0XtZLlVv',#6,'OPS_Assignments',$,(#374));
#376=IFCRELDEFINESBYPROPERTIES('rNM3InKV5bjfXlXV6tUnlL',#6,$,$,(#45),#375);
#377=IFCPROPERTYSINGLEVALUE('1pMdb5nvcDO9vXt$0dyhIL#0',$,IFCTEXT('2|UNIFORM'),$);
#378=IFCPROPERTYSET('8jb1IlGf4FFpqnFVT307Tf',#6,'OPS_Assignments',$,(#377));
#379=IFCRELDEFINESBYPROPERTIES('VXbH5Lz1ufZtB7onUBjv1N',#6,$,$,(#47),#378);
#380=IFCPROPERTYSINGLEVALUE('g7CphpsPnFqZFdA$rJ7RXd#0',$,IFCTEXT('4|UNIFORM'),$);
#381=IFCPROPERTYSET('JtqD7Bu7Q1Yxzv6HRxwjUl',#6,'OPS_Assignments',$,(#380));
#382=IFCRELDEFINESBYPROPERTIES('Kbh1gbJnuXIdyfmVgFVb5B',#6,$,$,(#49),#381);
#383=IFCPROPERTYSINGLEVALUE('o7Ilpn4lDxX3lZjnNjvRzd#0',$,IFCTEXT('2|UNIFORM'),$);
#384=IFCPROPERTYSET('2nJPRbzlpxnpqhUnZzGtaN',#6,'OPS_Assignments',$,(#383));
#385=IFCRELDEFINESBYPROPERTIES('b5Sz6T0tHj4DGLkFeJ9rat',#6,$,$,(#51),#384);
#386=IFCPROPERTYSINGLEVALUE('DBnxQ9S1oRZPqnd$y7CDax#0',$,IFCTEXT('4|UNIFORM'),$);
#387=IFCPROPERTYSET('wHhllXzHl1Y53dg15nPJ6V',#6,'OPS_Assignments',$,(#386));
#388=IFCRELDEFINESBYPROPERTIES('Vz4BRV3HRVBFVxGXI$LHf3',#6,$,$,(#57),#387);
#389=IFCPROPERTYSINGLEVALUE('4nvZW$XPf5f5pHDHtPOlXv#0',$,IFCTEXT('3|UNIFORM'),$);
#390=IFCPROPERTYSET('hd096d2FedvL_vUFb$vbX7',#6,'OPS_Assignments',$,(#389));
#391=IFCRELDEFINESBYPROPERTIES('I57BHx$Pv9kLo$$X6p3tyB',#6,$,$,(#59),#390);
#392=IFCPROPERTYSINGLEVALUE('4nvZW$XPf5f5pHDHtPOlXv#0',$,IFCTEXT('6|UNIFORM'),$);
#393=IFCPROPERTYSET('nLLlBTWtVP7hcT91lhFL_X',#6,'OPS_Assignments',$,(#392));
#394=IFCRELDEFINESBYPROPERTIES('ez1ZyTmfYJ_bPlJHHvGNcl',#6,$,$,(#61),#393);
#395=IFCPROPERTYSINGLEVALUE('4nvZW$XPf5f5pHDHtPOlXv#0',$,IFCTEXT('6|UNIFORM'),$);
#396=IFCPROPERTYSET('6B69snLH7N_tzRWVL3lBat',#6,'OPS_Assignments',$,(#395));
#397=IFCRELDEFINESBYPROPERTIES('J9Sh5BHPD5f5lt0V11DdR$',#6,$,$,(#63),#396);
#398=IFCPROPERTYSINGLEVALUE('DBnxQ9S1oRZPqnd$y7CDax#0',$,IFCTEXT('4|UNIFORM'),$);
#399=IFCPROPERTYSET('3jEbyzylPJIhc3JlNDRFhf',#6,'OPS_Assignments',$,(#398));
#400=IFCRELDEFINESBYPROPERTIES('M7azkDl7GZCTrDXVq38$Ef',#6,$,$,(#65),#399);
#401=IFCPROPERTYSINGLEVALUE('fzljJzrHpbz7QTnVxHrFHh#0',$,IFCTEXT('6|UNIFORM'),$);
#402=IFCPROPERTYSINGLEVALUE('A9Mdl1XdPjcpO1lVFbnTR1#1',$,IFCTEXT('4|UNIFORM'),$);
#403=IFCPROPERTYSINGLEVALUE('xBcNGfe7mjwjgroXODB1w1#2',$,IFCTEXT('45|UNIFORM'),$);
#404=IFCPROPERTYSET('ItyrvPjnufpPmL2nZ15X8D',#6,'OPS_Assignments',$,(#401,#402,#403));
#405=IFCRELDEFINESBYPROPERTIES('h3NbyTuvMvpthNCFm1T9yr',#6,$,$,(#67),#404);
#406=IFCPROPERTYSINGLEVALUE('fzljJzrHpbz7QTnVxHrFHh#0',$,IFCTEXT('6|UNIFORM'),$);
#407=IFCPROPERTYSINGLEVALUE('xBcNGfe7mjwjgroXODB1w1#1',$,IFCTEXT('70|UNIFORM'),$);
#408=IFCPROPERTYSET('cxq5Q9CXNbDt1BA1PlpP1D',#6,'OPS_Assignments',$,(#406,#407));
#409=IFCRELDEFINESBYPROPERTIES('pvMPrzy18Xo7klv$jxRnhf',#6,$,$,(#69),#408);
#410=IFCPROPERTYSINGLEVALUE('fzljJzrHpbz7QTnVxHrFHh#0',$,IFCTEXT('6|UNIFORM'),$);
#411=IFCPROPERTYSINGLEVALUE('xBcNGfe7mjwjgroXODB1w1#1',$,IFCTEXT('70|UNIFORM'),$);
#412=IFCPROPERTYSET('QVBX0ldtLdSByNGVuznLcr',#6,'OPS_Assignments',$,(#410,#411));
#413=IFCRELDEFINESBYPROPERTIES('$jI5U95nKNAH5xGVW9Yndd',#6,$,$,(#71),#412);
#414=IFCPROPERTYSINGLEVALUE('fzljJzrHpbz7QTnVxHrFHh#0',$,IFCTEXT('6|UNIFORM'),$);
#415=IFCPROPERTYSINGLEVALUE('A9Mdl1XdPjcpO1lVFbnTR1#1',$,IFCTEXT('4|UNIFORM'),$);
#416=IFCPROPERTYSINGLEVALUE('xBcNGfe7mjwjgroXODB1w1#2',$,IFCTEXT('55|FRONT_LOADED'),$);
#417=IFCPROPERTYSET('CNAZG9a12NEvkb4lFNERRb',#6,'OPS_Assignments',$,(#414,#415,#416));
#418=IFCRELDEFINESBYPROPERTIES('DhD7v7F7MbRX27kn0dixJT',#6,$,$,(#73),#417);
#419=IFCPROPERTYSINGLEVALUE('fzljJzrHpbz7QTnVxHrFHh#0',$,IFCTEXT('4|UNIFORM'),$);
#420=IFCPROPERTYSET('Ap9DxhJXFFCZVnBHPB4TNV',#6,'OPS_Assignments',$,(#419));
#421=IFCRELDEFINESBYPROPERTIES('Z11Ty34$elm1KbCFafgZDj',#6,$,$,(#75),#420);
#422=IFCPROPERTYSINGLEVALUE('fzljJzrHpbz7QTnVxHrFHh#0',$,IFCTEXT('8|UNIFORM'),$);
#423=IFCPROPERTYSINGLEVALUE('A9Mdl1XdPjcpO1lVFbnTR1#1',$,IFCTEXT('4|UNIFORM'),$);
#424=IFCPROPERTYSINGLEVALUE('prF5IH87sNDPm54F$XVbhD#2',$,IFCTEXT('1|UNIFORM'),$);
#425=IFCPROPERTYSINGLEVALUE('xBcNGfe7mjwjgroXODB1w1#3',$,IFCTEXT('60|UNIFORM'),$);
#426=IFCPROPERTYSET('UZGvvdbVPdKb9t4lVFztiD',#6,'OPS_Assignments',$,(#422,#423,#424,#425));
#427=IFCRELDEFINESBYPROPERTIES('9NATuB8vQ1QpajBnR1fLgD',#6,$,$,(#79),#426);
#428=IFCPROPERTYSINGLEVALUE('fzljJzrHpbz7QTnVxHrFHh#0',$,IFCTEXT('8|UNIFORM'),$);
#429=IFCPROPERTYSINGLEVALUE('prF5IH87sNDPm54F$XVbhD#1',$,IFCTEXT('1|UNIFORM'),$);
#430=IFCPROPERTYSINGLEVALUE('xBcNGfe7mjwjgroXODB1w1#2',$,IFCTEXT('45|UNIFORM'),$);
#431=IFCPROPERTYSET('7rsvVjUn_Zajo$P1eDhVyB',#6,'OPS_Assignments',$,(#428,#429,#430));
#432=IFCRELDEFINESBYPROPERTIES('kN09Y5_fYJY5Zf0XFt2lnX',#6,$,$,(#81),#431);
#433=IFCPROPERTYSINGLEVALUE('fzljJzrHpbz7QTnVxHrFHh#0',$,IFCTEXT('8|UNIFORM'),$);
#434=IFCPROPERTYSINGLEVALUE('prF5IH87sNDPm54F$XVbhD#1',$,IFCTEXT('1|UNIFORM'),$);
#435=IFCPROPERTYSINGLEVALUE('xBcNGfe7mjwjgroXODB1w1#2',$,IFCTEXT('45|UNIFORM'),$);
#436=IFCPROPERTYSET('hPOHFllPdDQVUT3FmV$5X3',#6,'OPS_Assignments',$,(#433,#434,#435));
#437=IFCRELDEFINESBYPROPERTIES('k5V3knSlLD2t3xily7yTfX',#6,$,$,(#83),#436);
#438=IFCPROPERTYSINGLEVALUE('fzljJzrHpbz7QTnVxHrFHh#0',$,IFCTEXT('8|UNIFORM'),$);
#439=IFCPROPERTYSINGLEVALUE('prF5IH87sNDPm54F$XVbhD#1',$,IFCTEXT('1|UNIFORM'),$);
#440=IFCPROPERTYSINGLEVALUE('xBcNGfe7mjwjgroXODB1w1#2',$,IFCTEXT('45|UNIFORM'),$);
#441=IFCPROPERTYSET('zFrnR1n7Mvp9dFnXXFDPN$',#6,'OPS_Assignments',$,(#438,#439,#440));
#442=IFCRELDEFINESBYPROPERTIES('S34Tif7t7fcV6DZnw9s94v',#6,$,$,(#85),#441);
#443=IFCPROPERTYSINGLEVALUE('fzljJzrHpbz7QTnVxHrFHh#0',$,IFCTEXT('8|UNIFORM'),$);
#444=IFCPROPERTYSINGLEVALUE('prF5IH87sNDPm54F$XVbhD#1',$,IFCTEXT('1|UNIFORM'),$);
#445=IFCPROPERTYSINGLEVALUE('xBcNGfe7mjwjgroXODB1w1#2',$,IFCTEXT('45|UNIFORM'),$);
#446=IFCPROPERTYSET('fdG7L9CVTJ4pSJJHDhlBiV',#6,'OPS_Assignments',$,(#443,#444,#445));
#447=IFCRELDEFINESBYPROPERTIES('mv6tEXEHRrPJcTlXnR9rSR',#6,$,$,(#87),#446);
#448=IFCPROPERTYSINGLEVALUE('fzljJzrHpbz7QTnVxHrFHh#0',$,IFCTEXT('8|UNIFORM'),$);
#449=IFCPROPERTYSINGLEVALUE('prF5IH87sNDPm54F$XVbhD#1',$,IFCTEXT('1|UNIFORM'),$);
#450=IFCPROPERTYSINGLEVALUE('xBcNGfe7mjwjgroXODB1w1#2',$,IFCTEXT('45|UNIFORM'),$);
#451=IFCPROPERTYSET('EhrnH5tfu$Qpe7InGXtzJV',#6,'OPS_Assignments',$,(#448,#449,#450));
#452=IFCRELDEFINESBYPROPERTIES('PVh$kjJn0hhll9e$$zeX8b',#6,$,$,(#89),#451);
#453=IFCPROPERTYSINGLEVALUE('fzljJzrHpbz7QTnVxHrFHh#0',$,IFCTEXT('8|UNIFORM'),$);
#454=IFCPROPERTYSINGLEVALUE('prF5IH87sNDPm54F$XVbhD#1',$,IFCTEXT('1|UNIFORM'),$);
#455=IFCPROPERTYSINGLEVALUE('xBcNGfe7mjwjgroXODB1w1#2',$,IFCTEXT('45|UNIFORM'),$);
#456=IFCPROPERTYSET('$D_XWVRXNHrFX50VzpQDWv',#6,'OPS_Assignments',$,(#453,#454,#455));
#457=IFCRELDEFINESBYPROPERTIES('eR8FVJkH9rVbjpTnElFTN$',#6,$,$,(#91),#456);
#458=IFCPROPERTYSINGLEVALUE('fzljJzrHpbz7QTnVxHrFHh#0',$,IFCTEXT('8|UNIFORM'),$);
#459=IFCPROPERTYSINGLEVALUE('prF5IH87sNDPm54F$XVbhD#1',$,IFCTEXT('1|UNIFORM'),$);
#460=IFCPROPERTYSINGLEVALUE('xBcNGfe7mjwjgroXODB1w1#2',$,IFCTEXT('45|UNIFORM'),$);
#461=IFCPROPERTYSET('U1V3kFKnQ$AZP3BF9zlBm$',#6,'OPS_Assignments',$,(#458,#459,#460));
#462=IFCRELDEFINESBYPROPERTIES('xBEnzLy$89nLQz3lQZDPzh',#6,$,$,(#93),#461);
#463=IFCPROPERTYSINGLEVALUE('fzljJzrHpbz7QTnVxHrFHh#0',$,IFCTEXT('8|UNIFORM'),$);
#464=IFCPROPERTYSINGLEVALUE('prF5IH87sNDPm54F$XVbhD#1',$,IFCTEXT('1|UNIFORM'),$);
#465=IFCPROPERTYSINGLEVALUE('xBcNGfe7mjwjgroXODB1w1#2',$,IFCTEXT('45|UNIFORM'),$);
#466=IFCPROPERTYSET('gTblDn4ldJkLYTJnprR$Yp',#6,'OPS_Assignments',$,(#463,#464,#465));
#467=IFCRELDEFINESBYPROPERTIES('zF5V4zylVdX3nDN$J5bnDp',#6,$,$,(#95),#466);
#468=IFCPROPERTYSINGLEVALUE('Gdg363KF_zePSvkFmH9BKj#0',$,IFCTEXT('6|UNIFORM'),$);
#469=IFCPROPERTYSINGLEVALUE('A9Mdl1XdPjcpO1lVFbnTR1#1',$,IFCTEXT('4|UNIFORM'),$);
#470=IFCPROPERTYSINGLEVALUE('xBcNGfe7mjwjgroXODB1w1#2',$,IFCTEXT('35|UNIFORM'),$);
#471=IFCPROPERTYSET('fvijVDEtRr1x7DZnEp2BOz',#6,'OPS_Assignments',$,(#468,#469,#470));
#472=IFCRELDEFINESBYPROPERTIES('mdk5cN09VbhlDFVVOjd5lL',#6,$,$,(#97),#471);
#473=IFCPROPERTYSINGLEVALUE('d5a3IHGfOv5$8F3nu3NT5n#0',$,IFCTEXT('4|UNIFORM'),$);
#474=IFCPROPERTYSINGLEVALUE('prF5IH87sNDPm54F$XVbhD#1',$,IFCTEXT('1|UNIFORM'),$);
#475=IFCPROPERTYSET('mP2rdfFPJNR1SDVX4deVux',#6,'OPS_Assignments',$,(#473,#474));
#476=IFCRELDEFINESBYPROPERTIES('tj5XW1tNO7bVYfyHXl7RRR',#6,$,$,(#99),#475);
#477=IFCPROPERTYSINGLEVALUE('d1npHV3HTD8Nh3P1xBKxJz#0',$,IFCTEXT('8|UNIFORM'),$);
#478=IFCPROPERTYSET('MvyZCPRVDvRV2pv$c3FLot',#6,'OPS_Assignments',$,(#477));
#479=IFCRELDEFINESBYPROPERTIES('HxnpNDtfCZ2bDTt$dlrFpJ',#6,$,$,(#105),#478);
#480=IFCPROPERTYSINGLEVALUE('d1npHV3HTD8Nh3P1xBKxJz#0',$,IFCTEXT('8|UNIFORM'),$);
#481=IFCPROPERTYSET('i5HJZxktpbz7Uzv1tZTtCH',#6,'OPS_Assignments',$,(#480));
#482=IFCRELDEFINESBYPROPERTIES('5Fd3ABPt7zufRrs$zFzteB',#6,$,$,(#107),#481);
#483=IFCPROPERTYSINGLEVALUE('d1npHV3HTD8Nh3P1xBKxJz#0',$,IFCTEXT('6|UNIFORM'),$);
#484=IFCPROPERTYSET('P$FDXNW9vT4D8t8$s1$jw1',#6,'OPS_Assignments',$,(#483));
#485=IFCRELDEFINESBYPROPERTIES('0F5Ve3BHzzMnThUnRXpd5l',#6,$,$,(#109),#484);
#486=IFCPROPERTYSINGLEVALUE('mfOHZNHd1tt3FjbnS9A9uj#0',$,IFCTEXT('4|UNIFORM'),$);
#487=IFCPROPERTYSET('upNJBd6VfFdrCrM175gThf',#6,'OPS_Assignments',$,(#486));
#488=IFCRELDEFINESBYPROPERTIES('X$V36TmfqdqTJX$VCHLlDH',#6,$,$,(#111),#487);
#489=IFCPROPERTYSINGLEVALUE('b$X3In4lBNQXYNynPhmNcl#0',$,IFCTEXT('4|UNIFORM'),$);
#490=IFCPROPERTYSET('zD6tsnLlJNj7UfaHftQ7Rx',#6,'OPS_Assignments',$,(#489));
#491=IFCRELDEFINESBYPROPERTIES('MdmPZfHdVvjNdTt$JN_rup',#6,$,$,(#117),#490);
#492=IFCPROPERTYSINGLEVALUE('b$X3In4lBNQXYNynPhmNcl#0',$,IFCTEXT('6|UNIFORM'),$);
#493=IFCPROPERTYSET('VZOl5r1vobJNtrA$pPCD8R',#6,'OPS_Assignments',$,(#492));
#494=IFCRELDEFINESBYPROPERTIES('8r_VyZWtNRDtD3plD781Av',#6,$,$,(#119),#493);
#495=IFCPROPERTYSINGLEVALUE('C9s73BW95HrFzRWVVDs3DH#0',$,IFCTEXT('6|UNIFORM'),$);
#496=IFCPROPERTYSET('XZ8nJzbFI$NTPzJlh7qbtp',#6,'OPS_Assignments',$,(#495));
#497=IFCRELDEFINESBYPROPERTIES('uBY1gRDnEbhHBjzHoj_H9J',#6,$,$,(#121),#496);
#498=IFCPROPERTYSINGLEVALUE('C9s73BW95HrFzRWVVDs3DH#0',$,IFCTEXT('6|UNIFORM'),$);
#499=IFCPROPERTYSET('UzyTaHOPjh7pWpBHv52BmF',#6,'OPS_Assignments',$,(#498));
#500=IFCRELDEFINESBYPROPERTIES('99En3hSlPdqZnPc$I3uF9H',#6,$,$,(#123),#499);
#501=IFCPROPERTYSINGLEVALUE('C9s73BW95HrFzRWVVDs3DH#0',$,IFCTEXT('8|UNIFORM'),$);
#502=IFCPROPERTYSET('Y3iR8DVP1fJ7M9yH7xYLYH',#6,'OPS_Assignments',$,(#501));
#503=IFCRELDEFINESBYPROPERTIES('99Avlbr1aVR$mhMl_N6j6b',#6,$,$,(#125),#502);
#504=IFCPROPERTYSINGLEVALUE('C9s73BW95HrFzRWVVDs3DH#0',$,IFCTEXT('6|UNIFORM'),$);
#505=IFCPROPERTYSET('vr2XOb6V3HG$CHTlyBhHVP',#6,'OPS_Assignments',$,(#504));
#506=IFCRELDEFINESBYPROPERTIES('kNunP9bFEbp9fdYVPBKxtl',#6,$,$,(#127),#505);
#507=IFCPROPERTYSINGLEVALUE('6h_B3B8Pd7ePO$d1G$hH7x#0',$,IFCTEXT('3|UNIFORM'),$);
#508=IFCPROPERTYSET('Pb8XWVRXp7514fGXK19ByL',#6,'OPS_Assignments',$,(#507));
#509=IFCRELDEFINESBYPROPERTIES('EvEndtT$2TiRdF9$BJvb$f',#6,$,$,(#129),#508);
#510=IFCPROPERTYSINGLEVALUE('b$X3In4lBNQXYNynPhmNcl#0',$,IFCTEXT('4|UNIFORM'),$);
#511=IFCPROPERTYSET('Ch39QfudNlx1K1RlQdmNsd',#6,'OPS_Assignments',$,(#510));
#512=IFCRELDEFINESBYPROPERTIES('bVpdtTlPl1gzFD1VYdaBWv',#6,$,$,(#131),#511);
#513=IFCPROPERTYSINGLEVALUE('VzShpniFgvp9p3jHvbQvDF#0',$,IFCTEXT('10|UNIFORM'),$);
#514=IFCPROPERTYSET('vnVhl1n7_fUfplxFAVr$YJ',#6,'OPS_Assignments',$,(#513));
#515=IFCRELDEFINESBYPROPERTIES('WXTfGPoHzFSjcn$VEJAtGl',#6,$,$,(#135),#514);
#516=IFCPROPERTYSINGLEVALUE('VzShpniFgvp9p3jHvbQvDF#0',$,IFCTEXT('8|UNIFORM'),$);
#517=IFCPROPERTYSET('2HHRiNFPbh5VoBkXkTqD4v',#6,'OPS_Assignments',$,(#516));
#518=IFCRELDEFINESBYPROPERTIES('bRGdFltNYvOPu9GXODTNs3',#6,$,$,(#137),#517);
#519=IFCPROPERTYSINGLEVALUE('VzShpniFgvp9p3jHvbQvDF#0',$,IFCTEXT('6|UNIFORM'),$);
#520=IFCPROPERTYSET('V$9x_rW9Zp0Fb1$V_5hVaR',#6,'OPS_Assignments',$,(#519));
#521=IFCRELDEFINESBYPROPERTIES('wBoFXjg$Qp0nPlDlLZDddP',#6,$,$,(#139),#520);
#522=IFCPROPERTYSINGLEVALUE('VzShpniFgvp9p3jHvbQvDF#0',$,IFCTEXT('4|UNIFORM'),$);
#523=IFCPROPERTYSINGLEVALUE('C9s73BW95HrFzRWVVDs3DH#1',$,IFCTEXT('2|UNIFORM'),$);
#524=IFCPROPERTYSET('6nFx2BGfaXBFdFFVxnlBG$',#6,'OPS_Assignments',$,(#522,#523));
#525=IFCRELDEFINESBYPROPERTIES('VZm79Xs$89fZFd_VJfEbDl',#6,$,$,(#141),#524);
#526=IFCPROPERTYSINGLEVALUE('VzShpniFgvp9p3jHvbQvDF#0',$,IFCTEXT('4|UNIFORM'),$);
#527=IFCPROPERTYSET('hzXzwPoldP4pytyl93vDyB',#6,'OPS_Assignments',$,(#526));
#528=IFCRELDEFINESBYPROPERTIES('ylLHnFT$MRptzbmX8Zzf_Z',#6,$,$,(#143),#527);
#529=IFCPROPERTYSINGLEVALUE('c$nDvhalD7jNF7sHml$Jox#0',$,IFCTEXT('6|UNIFORM'),$);
#530=IFCPROPERTYSET('nP2r3rePR1vp43d13nLXSx',#6,'OPS_Assignments',$,(#529));
#531=IFCRELDEFINESBYPROPERTIES('spvTKhbnI$NTVlHVDPqD0t',#6,$,$,(#145),#530);
#532=IFCPROPERTYSINGLEVALUE('g7CphpsPnFqZFdA$rJ7RXd#0',$,IFCTEXT('6|UNIFORM'),$);
#533=IFCPROPERTYSET('t9gPlXZlFTg3ht81AxEbZt',#6,'OPS_Assignments',$,(#532));
#534=IFCRELDEFINESBYPROPERTIES('GfWNm7Q7W5ljklXV2xJ7dB',#6,$,$,(#149),#533);
#535=IFCPROPERTYSINGLEVALUE('VzShpniFgvp9p3jHvbQvDF#0',$,IFCTEXT('6|UNIFORM'),$);
#536=IFCPROPERTYSET('FPsZuBmNgxdr8H7$1VNZn5',#6,'OPS_Assignments',$,(#535));
#537=IFCRELDEFINESBYPROPERTIES('sDF5Q9ingdHJcnt1T$3fYJ',#6,$,$,(#151),#536);
#538=IFCPROPERTYSINGLEVALUE('b$X3In4lBNQXYNynPhmNcl#0',$,IFCTEXT('3|UNIFORM'),$);
#539=IFCPROPERTYSINGLEVALUE('C9s73BW95HrFzRWVVDs3DH#1',$,IFCTEXT('3|UNIFORM'),$);
#540=IFCPROPERTYSINGLEVALUE('1pMdb5nvcDO9vXt$0dyhIL#2',$,IFCTEXT('1|UNIFORM'),$);
#541=IFCPROPERTYSET('id09oZ9fExFpSvEFgHzf2X',#6,'OPS_Assignments',$,(#538,#539,#540));
#542=IFCRELDEFINESBYPROPERTIES('JbjvnrPtfRzvw$hHdHxVaf',#6,$,$,(#153),#541);
#543=IFCRELASSIGNSTOCONTROL('rDVhNjbXHjyDCF$VkTSruD',#6,$,$,(#43,#45,#47,#49,#51,#53,#55,#57,#59,#61,#63,#65,#67,#69,#71,#73,#75,#77,#79,#81,#83,#85,#87,#89,#91,#93,#95,#97,#99,#101,#103,#105,#107,#109,#111,#113,#115,#117,#119,#121,#123,#125,#127,#129,#131,#133,#135,#137,#139,#141,#143,#145,#147,#149,#151,#153,#155),$,#40);
#544=IFCPROPERTYSINGLEVALUE('InternalProjectId',$,IFCTEXT('proj-mtlszyvvsv841275'),$);
#545=IFCPROPERTYSINGLEVALUE('wbsAutoNumber',$,IFCBOOLEAN(.T.),$);
#546=IFCPROPERTYSINGLEVALUE('DefaultTaskDurationUnit',$,IFCLABEL('days'),$);
#547=IFCPROPERTYSINGLEVALUE('ProjectStartDate',$,IFCDATE('2027-03-01'),$);
#548=IFCPROPERTYSINGLEVALUE('ProjectEndDate',$,$,$);
#549=IFCPROPERTYSINGLEVALUE('CreatedAt',$,IFCTEXT('2026-09-03T17:33:14.971Z'),$);
#550=IFCPROPERTYSINGLEVALUE('ModifiedAt',$,IFCTEXT('2026-09-03T17:33:14.973Z'),$);
#551=IFCPROPERTYSET('e5a3ArlP$tNZvpDF1ZK5n5',#6,'OPS_ProjectSettings',$,(#544,#545,#546,#547,#548,#549,#550));
#552=IFCRELDEFINESBYPROPERTIES('0Hdzo1sPJhdjQlBF$1BF9l',#6,$,$,(#13),#551);
#553=IFCPROPERTYSINGLEVALUE('InternalTaskId',$,IFCTEXT('task-mtlszywl3bru1294'),$);
#554=IFCPROPERTYSET('xrwtE3LHfF1Zpnf15n1xZx',#6,'OPS_TaskIdentity',$,(#553));
#555=IFCRELDEFINESBYPROPERTIES('2Hlb4zy1Cz2tdFv$AR_l$t',#6,$,$,(#43),#554);
#556=IFCPROPERTYSINGLEVALUE('InternalTaskId',$,IFCTEXT('task-mtlszywnb66n1295'),$);
#557=IFCPROPERTYSET('ObWfirX7WbRVgB2XLTb$A7',#6,'OPS_TaskIdentity',$,(#556));
#558=IFCRELDEFINESBYPROPERTIES('XTWNm7c7u$U5Z9ylfjd5zh',#6,$,$,(#45),#557);
#559=IFCPROPERTYSINGLEVALUE('InternalTaskId',$,IFCTEXT('task-mtlszywoda8q1296'),$);
#560=IFCPROPERTYSET('4lhlt3bFkrdjMfWX$38nN1',#6,'OPS_TaskIdentity',$,(#559));
#561=IFCRELDEFINESBYPROPERTIES('BjhHBzingvhl$Xzlw9gf21',#6,$,$,(#47),#560);
#562=IFCPROPERTYSINGLEVALUE('InternalTaskId',$,IFCTEXT('task-mtlszywqnj5w1297'),$);
#563=IFCPROPERTYSET('nBPzETHd7ZajwXt$a9Mfsd',#6,'OPS_TaskIdentity',$,(#562));
#564=IFCRELDEFINESBYPROPERTIES('MvyZ8DHvSBhHBJ3HUv8F$p',#6,$,$,(#49),#563);
#565=IFCPROPERTYSINGLEVALUE('InternalTaskId',$,IFCTEXT('task-mtlszywr48o61298'),$);
#566=IFCPROPERTYSET('2DU$_Ly$81UxpHJHpB3Ngf',#6,'OPS_TaskIdentity',$,(#565));
#567=IFCRELDEFINESBYPROPERTIES('5HxVK93$ePnpy3FVhdWPPd',#6,$,$,(#51),#566);
#568=IFCPROPERTYSINGLEVALUE('InternalTaskId',$,IFCTEXT('task-mtlszywsjlec1299'),$);
#569=IFCPROPERTYSET('h7ijXJM$2f_9Nd_Xj9YF79',#6,'OPS_TaskIdentity',$,(#568));
#570=IFCRELDEFINESBYPROPERTIES('a3iJJ3z$KjaBGb8$pBLlVd',#6,$,$,(#53),#569);
#571=IFCPROPERTYSINGLEVALUE('InternalTaskId',$,IFCTEXT('task-mtlszywu9yfm1300'),$);
#572=IFCPROPERTYSET('1JoRGNmNut7pmL2FFRVp4h',#6,'OPS_TaskIdentity',$,(#571));
#573=IFCRELDEFINESBYPROPERTIES('wlLH$PcX1fZtnjJHVFLVOz',#6,$,$,(#55),#572);
#574=IFCPROPERTYSINGLEVALUE('InternalTaskId',$,IFCTEXT('task-mtlszywvipyz1301'),$);
#575=IFCPROPERTYSET('2nxX4TmfMRDtTB2VFxB1s7',#6,'OPS_TaskIdentity',$,(#574));
#576=IFCRELDEFINESBYPROPERTIES('tJjPhDk99rHrSjDH$TyLQl',#6,$,$,(#57),#575);
#577=IFCPROPERTYSINGLEVALUE('InternalTaskId',$,IFCTEXT('task-mtlszywxq3yk1302'),$);
#578=IFCPROPERTYSET('lfmd7r872fAHLZJF3pIxPP',#6,'OPS_TaskIdentity',$,(#577));
#579=IFCRELDEFINESBYPROPERTIES('ebmPJXg$kVzNN5CFGVVbb5',#6,$,$,(#59),#578);
#580=IFCPROPERTYSINGLEVALUE('InternalTaskId',$,IFCTEXT('task-mtlszywz0arl1303'),$);
#581=IFCPROPERTYSET('BJxV8jDFQ$U5DFlXFbNhgt',#6,'OPS_TaskIdentity',$,(#580));
#582=IFCRELDEFINESBYPROPERTIES('kfO1ozjVtBVb9Nu$wJ9Beh',#6,$,$,(#61),#581);
#583=IFCPROPERTYSINGLEVALUE('InternalTaskId',$,IFCTEXT('task-mtlszyx0m1jf1304'),$);
#584=IFCPROPERTYSET('s9Md7rmfitIhUTBHVl$JcL',#6,'OPS_TaskIdentity',$,(#583));
#585=IFCRELDEFINESBYPROPERTIES('3JwDBziF2tQDi5u1sbAtWv',#6,$,$,(#63),#584);
#586=IFCPROPERTYSINGLEVALUE('InternalTaskId',$,IFCTEXT('task-mtlszyx2gcae1305'),$);
#587=IFCPROPERTYSET('vhob4VM$khBFHTDnPHrnj3',#6,'OPS_TaskIdentity',$,(#586));
#588=IFCRELDEFINESBYPROPERTIES('0nxVmdEHFZwJoXxFgFNZ$D',#6,$,$,(#65),#587);
#589=IFCPROPERTYSINGLEVALUE('InternalTaskId',$,IFCTEXT('task-mtlszyx3ra2v1306'),$);
#590=IFCPROPERTYSET('EBlRe5UfSXxXgfWVlrj7F1',#6,'OPS_TaskIdentity',$,(#589));
#591=IFCRELDEFINESBYPROPERTIES('L7C5cNOPJrb$WpLlxhWdHh',#6,$,$,(#67),#590);
#592=IFCPROPERTYSINGLEVALUE('InternalTaskId',$,IFCTEXT('task-mtlszyx57w9q1307'),$);
#593=IFCPROPERTYSET('MvSLFl$vk$XbTh2FbRcvhJ',#6,'OPS_TaskIdentity',$,(#592));
#594=IFCRELDEFINESBYPROPERTIES('Z3Sh3PJny5npqLclTZyLcB',#6,$,$,(#69),#593);
#595=IFCPROPERTYSINGLEVALUE('InternalTaskId',$,IFCTEXT('task-mtlszyx7wbc91308'),$);
#596=IFCPROPERTYSET('YX5n9VolHjKRnDlVzldxdd',#6,'OPS_TaskIdentity',$,(#595));
#597=IFCRELDEFINESBYPROPERTIES('N3ljLf099XpPOVhn7$1j_3',#6,$,$,(#71),#596);
#598=IFCPROPERTYSINGLEVALUE('InternalTaskId',$,IFCTEXT('task-mtlszyx8edzh1309'),$);
#599=IFCPROPERTYSET('mdATCRjFGTKzfP6$G$pP1J',#6,'OPS_TaskIdentity',$,(#598));
#600=IFCRELDEFINESBYPROPERTIES('9tgdRR3ljBLHTtin2btr8R',#6,$,$,(#73),#599);
#601=IFCPROPERTYSINGLEVALUE('InternalTaskId',$,IFCTEXT('task-mtlszyxaf71d1310'),$);
#602=IFCPROPERTYSET('6n7Z8hqnaV5XYf4lXll3pl',#6,'OPS_TaskIdentity',$,(#601));
#603=IFCRELDEFINESBYPROPERTIES('DrvT4$6vox$ZRBA$Z$BF9F',#6,$,$,(#75),#602);
#604=IFCPROPERTYSINGLEVALUE('InternalTaskId',$,IFCTEXT('task-mtlszyxcvsrd1311'),$);
#605=IFCPROPERTYSET('idG7NFCFqdSJMB61WtMfYH',#6,'OPS_TaskIdentity',$,(#604));
#606=IFCRELDEFINESBYPROPERTIES('bbmvT56vQVE7czhnhTJvn$',#6,$,$,(#77),#605);
#607=IFCPROPERTYSINGLEVALUE('InternalTaskId',$,IFCTEXT('task-mtlszyxe91ga1312'),$);
#608=IFCPROPERTYSET('cR09ALT12ZSrO$f$prpdXZ',#6,'OPS_TaskIdentity',$,(#607));
#609=IFCRELDEFINESBYPROPERTIES('X1fRWXzHPjErO$9$7$XDOz',#6,$,$,(#79),#608);
#610=IFCPROPERTYSINGLEVALUE('InternalTaskId',$,IFCTEXT('task-mtlszyxgi8x31313'),$);
#611=IFCPROPERTYSET('BtwtIHOvmpw$mBoX8hOl7b',#6,'OPS_TaskIdentity',$,(#610));
#612=IFCRELDEFINESBYPROPERTIES('4J_Bb$HvqzkP8faHFb$Js3',#6,$,$,(#81),#611);
#613=IFCPROPERTYSINGLEVALUE('InternalTaskId',$,IFCTEXT('task-mtlszyxik0ca1314'),$);
#614=IFCPROPERTYSET('lNuV41ItnHGXYZBl3p2rmF',#6,'OPS_TaskIdentity',$,(#613));
#615=IFCRELDEFINESBYPROPERTIES('eRuX0F31SLfZlfqlgLWP1j',#6,$,$,(#83),#614);
#616=IFCPROPERTYSINGLEVALUE('InternalTaskId',$,IFCTEXT('task-mtlszyxk0neu1315'),$);
#617=IFCPROPERTYSET('$jUhr34$i96JIx81Mh07FV',#6,'OPS_TaskIdentity',$,(#616));
#618=IFCRELDEFINESBYPROPERTIES('wlR$Yf7tBZqT1XZHaf2BWd',#6,$,$,(#85),#617);
#619=IFCPROPERTYSINGLEVALUE('InternalTaskId',$,IFCTEXT('task-mtlszyxlpr421316'),$);
#620=IFCPROPERTYSET('JN0tkjL$sL7D8nbHMlZt8j',#6,'OPS_TaskIdentity',$,(#619));
#621=IFCRELDEFINESBYPROPERTIES('cb0tABndT$kLYZpFxh8FDD',#6,$,$,(#87),#620);
#622=IFCPROPERTYSINGLEVALUE('InternalTaskId',$,IFCTEXT('task-mtlszyxncxqp1317'),$);
#623=IFCPROPERTYSET('sJb$E16763AHj13FCTCpa9',#6,'OPS_TaskIdentity',$,(#622));
#624=IFCRELDEFINESBYPROPERTIES('HfGP9ZFddP4LIbClEjs9qH',#6,$,$,(#89),#623);
#625=IFCPROPERTYSINGLEVALUE('InternalTaskId',$,IFCTEXT('task-mtlszyxp44ik1318'),$);
#626=IFCPROPERTYSET('5BonzrOP$9dJ_DVVmV7pax',#6,'OPS_TaskIdentity',$,(#625));
#627=IFCRELDEFINESBYPROPERTIES('2H9pP5o9$BLHHNSlnx390t',#6,$,$,(#91),#626);
#628=IFCPROPERTYSINGLEVALUE('InternalTaskId',$,IFCTEXT('task-mtlszyxrl6wo1319'),$);
#629=IFCPROPERTYSET('YzKJ$TePLv0Ffv2nftUnhN',#6,'OPS_TaskIdentity',$,(#628));
#630=IFCRELDEFINESBYPROPERTIES('RXRlbxlvKNE7U9e$5L81I7',#6,$,$,(#93),#629);
#631=IFCPROPERTYSINGLEVALUE('InternalTaskId',$,IFCTEXT('task-mtlszyxtzr931320'),$);
#632=IFCPROPERTYSET('QVrXGd6XnZAZvJlVRR_HV7',#6,'OPS_TaskIdentity',$,(#631));
#633=IFCRELDEFINESBYPROPERTIES('Jx1Zq5F7cp0FnJzH2NI5nb',#6,$,$,(#95),#632);
#634=IFCPROPERTYSINGLEVALUE('InternalTaskId',$,IFCTEXT('task-mtlszyxv6ykd1321'),$);
#635=IFCPROPERTYSET('J9Sz271P$LFhsv6HHLlrGH',#6,'OPS_TaskIdentity',$,(#634));
#636=IFCRELDEFINESBYPROPERTIES('cxSzsFxFqdC5JVVVQz$5F5',#6,$,$,(#97),#635);
#637=IFCPROPERTYSINGLEVALUE('InternalTaskId',$,IFCTEXT('task-mtlszyxxykr21322'),$);
#638=IFCPROPERTYSET('KbBXK931C7OPe$f$fDbFHL',#6,'OPS_TaskIdentity',$,(#637));
#639=IFCRELDEFINESBYPROPERTIES('pvY$MRB1qzQX6VnX5nXbnV',#6,$,$,(#99),#638);
#640=IFCPROPERTYSINGLEVALUE('InternalTaskId',$,IFCTEXT('task-mtlszyxzsh2w1323'),$);
#641=IFCPROPERTYSET('NvqDhDYNyFfxbrIXQdWPVZ',#6,'OPS_TaskIdentity',$,(#640));
#642=IFCRELDEFINESBYPROPERTIES('UzCD7hKXr30nTBEVuZJ7Pr',#6,$,$,(#101),#641);
#643=IFCPROPERTYSINGLEVALUE('InternalTaskId',$,IFCTEXT('task-mtlszyy113qv1324'),$);
#644=IFCPROPERTYSET('b5Cxwvot3Fq5pHBnHPyhsd',#6,'OPS_TaskIdentity',$,(#643));
#645=IFCRELDEFINESBYPROPERTIES('Y$NbSlOv45fxXlP$znLXGF',#6,$,$,(#103),#644);
#646=IFCPROPERTYSINGLEVALUE('InternalTaskId',$,IFCTEXT('task-mtlszyy3hq9k1325'),$);
#647=IFCPROPERTYSET('ktKJlx79XxfxpnXX4L9zXv',#6,'OPS_TaskIdentity',$,(#646));
#648=IFCRELDEFINESBYPROPERTIES('P5KJrvUNSht3JjN1EjwPjZ',#6,$,$,(#105),#647);
#649=IFCPROPERTYSINGLEVALUE('InternalTaskId',$,IFCTEXT('task-mtlszyy5sw7a1326'),$);
#650=IFCPROPERTYSET('e3VzsHXv8$Yxj1zFuBijg9',#6,'OPS_TaskIdentity',$,(#649));
#651=IFCRELDEFINESBYPROPERTIES('lbh1cpYfqZEBi1pF5L8Fpp',#6,$,$,(#107),#650);
#652=IFCPROPERTYSINGLEVALUE('InternalTaskId',$,IFCTEXT('task-mtlszyy7353w1327'),$);
#653=IFCPROPERTYSET('T$$TSpE9x5tbjjN1AbwP$j',#6,'OPS_TaskIdentity',$,(#652));
#654=IFCRELDEFINESBYPROPERTIES('MZrVe3JVTJaBClLFF5LV85',#6,$,$,(#109),#653);
#655=IFCPROPERTYSINGLEVALUE('InternalTaskId',$,IFCTEXT('task-mtlszyy9pf5c1328'),$);
#656=IFCPROPERTYSET('ynPz_BOvyF$ZZNe$3l$J6x',#6,'OPS_TaskIdentity',$,(#655));
#657=IFCRELDEFINESBYPROPERTIES('rp$rd9hlp7Tdu90XbVTNkL',#6,$,$,(#111),#656);
#658=IFCPROPERTYSINGLEVALUE('InternalTaskId',$,IFCTEXT('task-mtlszyybhyxo1329'),$);
#659=IFCPROPERTYSET('EdMzcfudFTQpO$P1W9MNIL',#6,'OPS_TaskIdentity',$,(#658));
#660=IFCRELDEFINESBYPROPERTIES('7BsvVDsdFH0F$roV4vaB4P',#6,$,$,(#113),#659);
#661=IFCPROPERTYSINGLEVALUE('InternalTaskId',$,IFCTEXT('task-mtlszyyelgcl1330'),$);
#662=IFCPROPERTYSET('7lR$URM1oFdryNGXEFxH5L',#6,'OPS_TaskIdentity',$,(#661));
#663=IFCRELDEFINESBYPROPERTIES('Ehb1wZud1rrnPlhndHBnpp',#6,$,$,(#115),#662);
#664=IFCPROPERTYSINGLEVALUE('InternalTaskId',$,IFCTEXT('task-mtlszyygdgbr1331'),$);
#665=IFCPROPERTYSET('vBgP1dIH1fb$KX71TZCbxh',#6,'OPS_TaskIdentity',$,(#664));
#666=IFCRELDEFINESBYPROPERTIES('0l$rLtSlznKRvXf12bXD09',#6,$,$,(#117),#665);
#667=IFCPROPERTYSINGLEVALUE('InternalTaskId',$,IFCTEXT('task-mtlszyyilbrn1332'),$);
#668=IFCPROPERTYSET('bb8Xmd6X7NkdGRu13pkx3r',#6,'OPS_TaskIdentity',$,(#667));
#669=IFCRELDEFINESBYPROPERTIES('UXL$2dB1GTCZNbe$8hG9yr',#6,$,$,(#119),#668);
#670=IFCPROPERTYSINGLEVALUE('InternalTaskId',$,IFCTEXT('task-mtlszyyk5k9r1333'),$);
#671=IFCPROPERTYSET('Rbe1slXvqZg3lzXVoHNLk7',#6,'OPS_TaskIdentity',$,(#670));
#672=IFCRELDEFINESBYPROPERTIES('UVBV4$o9t$fT7Jt$axr1Yp',#6,$,$,(#121),#671);
#673=IFCPROPERTYSINGLEVALUE('InternalTaskId',$,IFCTEXT('task-mtlszyym80wj1334'),$);
#674=IFCPROPERTYSET('c5iJVjg$oHjfvJt1OJl3b5',#6,'OPS_TaskIdentity',$,(#673));
#675=IFCRELDEFINESBYPROPERTIES('XVblxrFdZV6$GbGVoH$JQB',#6,$,$,(#123),#674);
#676=IFCPROPERTYSINGLEVALUE('InternalTaskId',$,IFCTEXT('task-mtlszyyo4nf41335'),$);
#677=IFCPROPERTYSET('c54rb1v9D737ghsluBSzVP',#6,'OPS_TaskIdentity',$,(#676));
#678=IFCRELDEFINESBYPROPERTIES('VXDdtTHPhdyDulXXs1NhsP',#6,$,$,(#125),#677);
#679=IFCPROPERTYSINGLEVALUE('InternalTaskId',$,IFCTEXT('task-mtlszyyqm1mi1336'),$);
#680=IFCPROPERTYSET('BtoFRVzHXvDtHZ5H8hmN6$',#6,'OPS_TaskIdentity',$,(#679));
#681=IFCRELDEFINESBYPROPERTIES('yjsTqdL1sfpPi5u$oJk$6X',#6,$,$,(#127),#680);
#682=IFCPROPERTYSINGLEVALUE('InternalTaskId',$,IFCTEXT('task-mtlszyytt91h1337'),$);
#683=IFCPROPERTYSET('Ld8FpJB$arrFtN81kZyTdv',#6,'OPS_TaskIdentity',$,(#682));
#684=IFCRELDEFINESBYPROPERTIES('SZuFnBlPnl0FZBg193FLwX',#6,$,$,(#129),#683);
#685=IFCPROPERTYSINGLEVALUE('InternalTaskId',$,IFCTEXT('task-mtlszyyvqn5d1338'),$);
#686=IFCPROPERTYSET('8JjdJXkHLv8vo$v$EjstaN',#6,'OPS_TaskIdentity',$,(#685));
#687=IFCRELDEFINESBYPROPERTIES('FLJPFHPtnFizjpblgBKJIv',#6,$,$,(#131),#686);
#688=IFCPROPERTYSINGLEVALUE('InternalTaskId',$,IFCTEXT('task-mtlszyyxyfyc1339'),$);
#689=IFCPROPERTYSET('A9kHBzKXtXhlDFnXdBiJgJ',#6,'OPS_TaskIdentity',$,(#688));
#690=IFCRELDEFINESBYPROPERTIES('zJI5AFRnkhjv_Pw$0Pijgf',#6,$,$,(#133),#689);
#691=IFCPROPERTYSINGLEVALUE('InternalTaskId',$,IFCTEXT('task-mtlszyz05an91340'),$);
#692=IFCPROPERTYSET('3llbKLZ$cVIPWp5lW9Atyr',#6,'OPS_TaskIdentity',$,(#691));
#693=IFCRELDEFINESBYPROPERTIES('sDlbO5gPRrlB8l7$9ThlDn',#6,$,$,(#135),#692);
#694=IFCPROPERTYSINGLEVALUE('InternalTaskId',$,IFCTEXT('task-mtlszyz2h53u1341'),$);
#695=IFCPROPERTYSET('2J6DLJg$oxf5vJ1Vatgfox',#6,'OPS_TaskIdentity',$,(#694));
#696=IFCRELDEFINESBYPROPERTIES('5n$rlbB$O7TdKXnVzj2lX7',#6,$,$,(#137),#695);
#697=IFCPROPERTYSINGLEVALUE('InternalTaskId',$,IFCTEXT('task-mtlszyz584tb1342'),$);
#698=IFCPROPERTYSET('ZTunbX3HjL7p8NynLP81I7',#6,'OPS_TaskIdentity',$,(#697));
#699=IFCRELDEFINESBYPROPERTIES('SXbHFFBHxlRXcn1VYBb$Qh',#6,$,$,(#139),#698);
#700=IFCPROPERTYSINGLEVALUE('InternalTaskId',$,IFCTEXT('task-mtlszyz7oy0r1343'),$);
#701=IFCPROPERTYSET('2lXLhjQVRXzfTtCHsbUnDJ',#6,'OPS_TaskIdentity',$,(#700));
#702=IFCRELDEFINESBYPROPERTIES('9pXh7B87wHWl$VjHRVTNM9',#6,$,$,(#141),#701);
#703=IFCPROPERTYSINGLEVALUE('InternalTaskId',$,IFCTEXT('task-mtlszyz9xkpk1344'),$);
#704=IFCPROPERTYSET('P1npzPL$cjCZPZFXJ5zt09',#6,'OPS_TaskIdentity',$,(#703));
#705=IFCRELDEFINESBYPROPERTIES('kbbltTP9L7WHXHt$ydeX4v',#6,$,$,(#143),#704);
#706=IFCPROPERTYSINGLEVALUE('InternalTaskId',$,IFCTEXT('task-mtlszyzc4rl71345'),$);
#707=IFCPROPERTYSET('JRrVWXDnQJyLoL2FFblzTf',#6,'OPS_TaskIdentity',$,(#706));
#708=IFCRELDEFINESBYPROPERTIES('CtU1Anz$GDovQzDlFbtrSt',#6,$,$,(#145),#707);
#709=IFCPROPERTYSINGLEVALUE('InternalTaskId',$,IFCTEXT('task-mtlszyzgf3e41346'),$);
#710=IFCPROPERTYSET('b11ZeR6VBz0nt9inEJMNMt',#6,'OPS_TaskIdentity',$,(#709));
#711=IFCRELDEFINESBYPROPERTIES('ibDP7LqnG3OPWp3FCzeH$t',#6,$,$,(#147),#710);
#712=IFCPROPERTYSINGLEVALUE('InternalTaskId',$,IFCTEXT('task-mtlszyzidawa1347'),$);
#713=IFCPROPERTYSET('p7cN4Zuvk$djw$JFdLeXSf',#6,'OPS_TaskIdentity',$,(#712));
#714=IFCRELDEFINESBYPROPERTIES('whcjTxQ70hR1mbGVMrix9H',#6,$,$,(#149),#713);
#715=IFCPROPERTYSINGLEVALUE('InternalTaskId',$,IFCTEXT('task-mtlszyzlnxvi1348'),$);
#716=IFCPROPERTYSET('Jbz9EVUF_3uftr_VxhmtyL',#6,'OPS_TaskIdentity',$,(#715));
#717=IFCRELDEFINESBYPROPERTIES('C9QNSnqnu$2R9Ne1XJYnXz',#6,$,$,(#151),#716);
#718=IFCPROPERTYSINGLEVALUE('InternalTaskId',$,IFCTEXT('task-mtlszyzn9fxh1349'),$);
#719=IFCPROPERTYSET('mfGPdbolvNkP4N0XxFvD0f',#6,'OPS_TaskIdentity',$,(#718));
#720=IFCRELDEFINESBYPROPERTIES('fdmdxBfNCTEBqn$X6p5l5L',#6,$,$,(#153),#719);
#721=IFCPROPERTYSINGLEVALUE('InternalTaskId',$,IFCTEXT('task-mtlszyzqzr7g1350'),$);
#722=IFCPROPERTYSET('CtcNO3JXDxtbb11VIVHrmV',#6,'OPS_TaskIdentity',$,(#721));
#723=IFCRELDEFINESBYPROPERTIES('5LcJNFinsfhlBpv$ollzn1',#6,$,$,(#155),#722);
#724=IFCPROPERTYSINGLEVALUE('MilestoneKind',$,IFCLABEL('START'),$);
#725=IFCPROPERTYSET('6nF5UtT$kBlBOdUX5FFL_X',#6,'OPS_Milestone',$,(#724));
#726=IFCRELDEFINESBYPROPERTIES('V3SLPbs1ePPBapVXWNMTZx',#6,$,$,(#53),#725);
#727=IFCPROPERTYSINGLEVALUE('MilestoneKind',$,IFCLABEL('FINISH'),$);
#728=IFCPROPERTYSET('uDfjBdQVNRp9DT1Vcv4ZzL',#6,'OPS_Milestone',$,(#727));
#729=IFCRELDEFINESBYPROPERTIES('VVBXC7PtNRJf1X5nwJnZ1J',#6,$,$,(#101),#728);
#730=IFCPROPERTYSINGLEVALUE('MilestoneKind',$,IFCLABEL('FINISH'),$);
#731=IFCPROPERTYSET('Z1nDBzqXHXMn$LYnDhdJYD',#6,'OPS_Milestone',$,(#730));
#732=IFCRELDEFINESBYPROPERTIES('yjYLrTudxbRX_doXmnZNIP',#6,$,$,(#113),#731);
#733=IFCPROPERTYSINGLEVALUE('MilestoneKind',$,IFCLABEL('FINISH'),$);
#734=IFCPROPERTYSINGLEVALUE('Mandatory',$,IFCBOOLEAN(.T.),$);
#735=IFCPROPERTYSET('RVh1oTX7u12bp3DlVDEb9p',#6,'OPS_Milestone',$,(#733,#734));
#736=IFCRELDEFINESBYPROPERTIES('_pIl377tFTYxbrYXrfobBZ',#6,$,$,(#155),#735);
ENDSEC;
END-ISO-10303-21;
