ISO-10303-21;
HEADER;
FILE_DESCRIPTION(('ViewDefinition [SchedulingView]'),'2;1');
FILE_NAME('24 Apartments, Eindhoven.ifc','2026-09-11T17:47:45',('Sophie van Dijk'),('Housing South BV'),'Open Planner Studio 0.1','Open Planner Studio','');
FILE_SCHEMA(('IFC4X3'));
ENDSEC;
DATA;
#1=IFCPERSON($,'Sophie van Dijk',$,$,$,$,$,$);
#2=IFCORGANIZATION($,'Housing South BV',$,$,$);
#3=IFCPERSONANDORGANIZATION(#1,#2,$);
#4=IFCORGANIZATION($,'OpenAEC Foundation',$,$,$);
#5=IFCAPPLICATION(#4,'0.1','Open Planner Studio','OPS');
#6=IFCOWNERHISTORY(#3,#5,$,.NOCHANGE.,$,$,$,1789148865);
#7=IFCSIUNIT(*,.LENGTHUNIT.,$,.METRE.);
#8=IFCSIUNIT(*,.TIMEUNIT.,$,.SECOND.);
#9=IFCUNITASSIGNMENT((#7,#8));
#10=IFCCARTESIANPOINT((0.,0.,0.));
#11=IFCAXIS2PLACEMENT3D(#10,$,$);
#12=IFCGEOMETRICREPRESENTATIONCONTEXT($,'Plan',3,1.0E-05,#11,$);
#13=IFCPROJECT('W$XzkDdtf5fxZ9yntZTtWP',#6,'24 Apartments, Eindhoven','24 apartments over four storeys with basement car park',$,$,$,(#12),#9);
#14=IFCTIMEPERIOD('07:00:00','16:00:00');
#15=IFCRECURRENCEPATTERN(.WEEKLY.,$,(1,2,3,4,5),$,$,$,$,(#14));
#16=IFCWORKTIME('Standard work week',.PREDICTED.,$,#15,$,$);
#17=IFCWORKTIME('New Year''s Day',.PREDICTED.,$,$,'2027-01-01','2027-01-01');
#18=IFCWORKTIME('Good Friday',.PREDICTED.,$,$,'2027-03-26','2027-03-26');
#19=IFCWORKTIME('Easter',.PREDICTED.,$,$,'2027-03-28','2027-03-29');
#20=IFCWORKTIME('King''s Day',.PREDICTED.,$,$,'2027-04-27','2027-04-27');
#21=IFCWORKTIME('Liberation Day',.PREDICTED.,$,$,'2027-05-05','2027-05-05');
#22=IFCWORKTIME('Ascension Day',.PREDICTED.,$,$,'2027-05-06','2027-05-06');
#23=IFCWORKTIME('Whitsun',.PREDICTED.,$,$,'2027-05-16','2027-05-17');
#24=IFCWORKTIME('Christmas',.PREDICTED.,$,$,'2027-12-25','2027-12-26');
#25=IFCWORKTIME('Construction holiday (northern region)',.PREDICTED.,$,$,'2027-07-26','2027-08-15');
#26=IFCWORKTIME('New Year''s Day',.PREDICTED.,$,$,'2028-01-01','2028-01-01');
#27=IFCWORKTIME('Good Friday',.PREDICTED.,$,$,'2028-04-14','2028-04-14');
#28=IFCWORKTIME('Easter',.PREDICTED.,$,$,'2028-04-16','2028-04-17');
#29=IFCWORKTIME('King''s Day',.PREDICTED.,$,$,'2028-04-27','2028-04-27');
#30=IFCWORKTIME('Liberation Day',.PREDICTED.,$,$,'2028-05-05','2028-05-05');
#31=IFCWORKTIME('Ascension Day',.PREDICTED.,$,$,'2028-05-25','2028-05-25');
#32=IFCWORKTIME('Whitsun',.PREDICTED.,$,$,'2028-06-04','2028-06-05');
#33=IFCWORKTIME('Christmas',.PREDICTED.,$,$,'2028-12-25','2028-12-26');
#34=IFCWORKTIME('Construction holiday (northern region)',.PREDICTED.,$,$,'2028-07-24','2028-08-13');
#35=IFCWORKCALENDAR('_HlbW$VPl1Yxnv_nBDbFBd',#6,'Construction calendar NL','Standard construction calendar: Mon-Fri 07:00-16:00',$,(#16),(#17,#18,#19,#20,#21,#22,#23,#24,#25,#26,#27,#28,#29,#30,#31,#32,#33,#34),.FIRSTSHIFT.);
#36=IFCPROPERTYSINGLEVALUE('HoursPerDay',$,IFCREAL(8),$);
#37=IFCPROPERTYSET('qL5XmPUFgdlJ6X9$WtAtOZ',#6,'OPS_Calendar',$,(#36));
#38=IFCRELDEFINESBYPROPERTIES('bXh12hy$qvOdOP_VbbYntl',#6,$,$,(#35),#37);
#39=IFCWORKPLAN('ORO$E1UfGJUxj$RH_9c7f3',#6,'24 Apartments, Eindhoven','24 apartments over four storeys with basement car park',$,$,'2026-09-11T17:47:45',$,$,$,$,$,'2027-03-01T07:00:00','2027-03-26T07:00:00',.PLANNED.);
#40=IFCWORKSCHEDULE('xBU$M5ffANrnh9e1pPCDCn',#6,'Construction schedule v1.0',$,$,$,'2026-09-11T17:47:45',$,$,$,$,$,'2027-03-01T07:00:00','2027-03-26T07:00:00',.PLANNED.);
#41=IFCRELAGGREGATES('X$Ph9TPtbVDd8te$ftI1sz',#6,$,$,#39,(#40));
#42=IFCTASKTIME('1. Preparation Time',.PREDICTED.,$,.WORKTIME.,'P0Y0M5D','2027-03-01T07:00:00','2027-03-05T07:00:00','2027-03-01T07:00:00','2027-03-23T07:00:00','2027-03-01T07:00:00','2028-03-15T07:00:00','P0Y0M0D','P0Y0M0D',.T.,$,$,$,$,$,0.00);
#43=IFCTASK('eTzt2vXd9hzf7Dblojstij',#6,'1. Preparation',$,$,'1',$,$,$,.F.,$,#42,.CONSTRUCTION.);
#44=IFCTASKTIME('Set up site Time',.PREDICTED.,$,.WORKTIME.,'P0Y0M5D','2027-03-01T07:00:00','2027-03-05T07:00:00','2027-03-01T07:00:00','2027-03-05T07:00:00','2027-03-01T07:00:00','2027-03-05T07:00:00','P0Y0M0D','P0Y0M0D',.T.,$,$,$,$,$,0.00);
#45=IFCTASK('0H$BTxQ78Vw$qlzHMndJMJ',#6,'Set up site',$,$,'1.1',$,$,$,.F.,$,#44,.LOGISTIC.);
#46=IFCTASKTIME('Pile load test Time',.PREDICTED.,$,.WORKTIME.,'P0Y0M3D','2027-03-01T07:00:00','2027-03-03T07:00:00','2027-03-08T07:00:00','2027-03-10T07:00:00','2028-02-29T07:00:00','2028-03-02T07:00:00','P0Y0M0D','P0Y0M235D',.F.,$,$,$,$,$,0.00);
#47=IFCTASK('xhMzcD6vwFypuHXXUv8FFx',#6,'Pile load test',$,$,'1.2',$,$,$,.F.,$,#46,.CONSTRUCTION.);
#48=IFCTASKTIME('Divert utilities Time',.PREDICTED.,$,.WORKTIME.,'P0Y0M8D','2027-03-01T07:00:00','2027-03-10T07:00:00','2027-03-11T07:00:00','2027-03-22T07:00:00','2028-03-03T07:00:00','2028-03-14T07:00:00','P0Y0M0D','P0Y0M235D',.F.,$,$,$,$,$,0.00);
#49=IFCTASK('g7Cx_hSHP78fLzHVD7u1Qn',#6,'Divert utilities',$,$,'1.3',$,$,$,.F.,$,#48,.INSTALLATION.);
#50=IFCTASKTIME('Start of construction Time',.PREDICTED.,$,.WORKTIME.,'P0Y0M0D','2027-03-01T07:00:00','2027-03-01T07:00:00','2027-03-23T07:00:00','2027-03-23T07:00:00','2028-03-15T07:00:00','2028-03-15T07:00:00','P0Y0M235D','P0Y0M235D',.F.,$,$,$,$,$,0.00);
#51=IFCTASK('IxFpH1nvwTErGLEns5I5rv',#6,'Start of construction',$,$,'1.4',$,$,$,.T.,$,#50,.CONSTRUCTION.);
#52=IFCTASKTIME('2. Foundations Time',.PREDICTED.,$,.WORKTIME.,'P0Y0M5D','2027-03-01T07:00:00','2027-03-05T07:00:00','2027-03-11T07:00:00','2027-05-28T07:00:00','2027-03-11T07:00:00','2028-03-15T07:00:00','P0Y0M0D','P0Y0M0D',.T.,$,$,$,$,$,0.00);
#53=IFCTASK('YVJ7nB79rTC5xx0XjRVpqn',#6,'2. Foundations',$,$,'2',$,$,$,.F.,$,#52,.CONSTRUCTION.);
#54=IFCTASKTIME('Pile driving, foundation piles Time',.PREDICTED.,$,.WORKTIME.,'P0Y0M15D','2027-03-01T07:00:00','2027-03-19T07:00:00','2027-03-11T07:00:00','2027-04-02T07:00:00','2027-03-11T07:00:00','2027-04-02T07:00:00','P0Y0M0D','P0Y0M0D',.T.,$,$,$,$,$,0.00);
#55=IFCTASK('9tcNmf8PxRx1iXv1H78nVz',#6,'Pile driving, foundation piles',$,$,'2.1',$,$,$,.F.,$,#54,.CONSTRUCTION.);
#56=IFCTASKTIME('Earthworks, basement car park Time',.PREDICTED.,$,.WORKTIME.,'P0Y0M10D','2027-03-01T07:00:00','2027-03-12T07:00:00','2027-04-05T07:00:00','2027-04-16T07:00:00','2028-01-26T07:00:00','2028-02-08T07:00:00','P0Y0M0D','P0Y0M193D',.F.,$,$,$,$,$,0.00);
#57=IFCTASK('qLjdnH9NEbrnjpDFT1xV4v',#6,'Earthworks, basement car park',$,$,'2.2',$,$,$,.F.,$,#56,.CONSTRUCTION.);
#58=IFCTASKTIME('Foundation beams and pile caps Time',.PREDICTED.,$,.WORKTIME.,'P0Y0M8D','2027-03-01T07:00:00','2027-03-10T07:00:00','2027-04-19T07:00:00','2027-04-29T07:00:00','2028-02-09T07:00:00','2028-02-18T07:00:00','P0Y0M0D','P0Y0M193D',.F.,$,$,$,$,$,0.00);
#59=IFCTASK('rfob8LCX1NLljXf1cPG94B',#6,'Foundation beams and pile caps',$,$,'2.3',$,$,$,.F.,$,#58,.CONSTRUCTION.);
#60=IFCTASKTIME('Pour basement floor Time',.PREDICTED.,$,.WORKTIME.,'P0Y0M5D','2027-03-01T07:00:00','2027-03-05T07:00:00','2027-04-30T07:00:00','2027-05-10T07:00:00','2028-02-21T07:00:00','2028-02-25T07:00:00','P0Y0M0D','P0Y0M193D',.F.,$,$,$,$,$,0.00);
#61=IFCTASK('H9yTKB9NkLrn5HFVDL$xTR',#6,'Pour basement floor',$,$,'2.4',$,$,$,.F.,$,#60,.CONSTRUCTION.);
#62=IFCTASKTIME('Basement walls Time',.PREDICTED.,$,.WORKTIME.,'P0Y0M8D','2027-03-01T07:00:00','2027-03-10T07:00:00','2027-05-11T07:00:00','2027-05-21T07:00:00','2028-02-28T07:00:00','2028-03-08T07:00:00','P0Y0M0D','P0Y0M193D',.F.,$,$,$,$,$,0.00);
#63=IFCTASK('Jxfb0lHP9BlreVZlKJwPP7',#6,'Basement walls',$,$,'2.5',$,$,$,.F.,$,#62,.CONSTRUCTION.);
#64=IFCTASKTIME('Waterproofing Time',.PREDICTED.,$,.WORKTIME.,'P0Y0M5D','2027-03-01T07:00:00','2027-03-05T07:00:00','2027-05-24T07:00:00','2027-05-28T07:00:00','2028-03-09T07:00:00','2028-03-15T07:00:00','P0Y0M193D','P0Y0M193D',.F.,$,$,$,$,$,0.00);
#65=IFCTASK('rNAZCvvtLjcp49iHexkxzB',#6,'Waterproofing',$,$,'2.6',$,$,$,.F.,$,#64,.CONSTRUCTION.);
#66=IFCTASKTIME('3. Structural works Time',.PREDICTED.,$,.WORKTIME.,'P0Y0M5D','2027-03-01T07:00:00','2027-03-05T07:00:00','2027-03-19T07:00:00','2027-09-03T07:00:00','2027-03-19T07:00:00','2028-03-15T07:00:00','P0Y0M0D','P0Y0M0D',.T.,$,$,$,$,$,0.00);
#67=IFCTASK('5BgPPRA$S1$5dzRFSRtBK1',#6,'3. Structural works',$,$,'3',$,$,$,.F.,$,#66,.CONSTRUCTION.);
#68=IFCTASKTIME('Ground floor walls and slab Time',.PREDICTED.,$,.WORKTIME.,'P0Y0M12D','2027-03-01T07:00:00','2027-03-16T07:00:00','2027-03-19T07:00:00','2027-04-07T07:00:00','2027-03-19T07:00:00','2027-04-07T07:00:00','P0Y0M0D','P0Y0M0D',.T.,$,$,$,$,$,0.00);
#69=IFCTASK('RXztsLT$EHjNH90VF96Plh',#6,'Ground floor walls and slab',$,$,'3.1',$,$,$,.F.,$,#68,.CONSTRUCTION.);
#70=IFCTASKTIME('First floor concrete Time',.PREDICTED.,$,.WORKTIME.,'P0Y0M10D','2027-03-01T07:00:00','2027-03-12T07:00:00','2027-04-08T07:00:00','2027-04-21T07:00:00','2027-04-08T07:00:00','2027-04-21T07:00:00','P0Y0M0D','P0Y0M0D',.T.,$,$,$,$,$,0.00);
#71=IFCTASK('B96tAFxnevBFnp1VA1lzDn',#6,'First floor concrete',$,$,'3.2',$,$,$,.F.,$,#70,.CONSTRUCTION.);
#72=IFCTASKTIME('Second floor concrete Time',.PREDICTED.,$,.WORKTIME.,'P0Y0M10D','2027-03-01T07:00:00','2027-03-12T07:00:00','2027-04-22T07:00:00','2027-05-10T07:00:00','2027-04-22T07:00:00','2027-05-10T07:00:00','P0Y0M0D','P0Y0M0D',.T.,$,$,$,$,$,0.00);
#73=IFCTASK('PVbHnnxnaV5XsRO1xByTlL',#6,'Second floor concrete',$,$,'3.3',$,$,$,.F.,$,#72,.CONSTRUCTION.);
#74=IFCTASKTIME('Third floor concrete Time',.PREDICTED.,$,.WORKTIME.,'P0Y0M10D','2027-03-01T07:00:00','2027-03-12T07:00:00','2027-05-11T07:00:00','2027-05-25T07:00:00','2027-05-11T07:00:00','2027-05-25T07:00:00','P0Y0M0D','P0Y0M0D',.T.,$,$,$,$,$,0.00);
#75=IFCTASK('i5t5ID79Jf5V6Xf1c3Pjk7',#6,'Third floor concrete',$,$,'3.4',$,$,$,.F.,$,#74,.CONSTRUCTION.);
#76=IFCTASKTIME('Fourth floor concrete Time',.PREDICTED.,$,.WORKTIME.,'P0Y0M10D','2027-03-01T07:00:00','2027-03-12T07:00:00','2027-05-26T07:00:00','2027-06-08T07:00:00','2027-05-26T07:00:00','2027-06-08T07:00:00','P0Y0M0D','P0Y0M0D',.T.,$,$,$,$,$,0.00);
#77=IFCTASK('Vz4BFrXvW5PBmh6ltPGfUp',#6,'Fourth floor concrete',$,$,'3.5',$,$,$,.F.,$,#76,.CONSTRUCTION.);
#78=IFCTASKTIME('Concrete stair core Time',.PREDICTED.,$,.WORKTIME.,'P0Y0M15D','2027-03-01T07:00:00','2027-03-19T07:00:00','2027-06-02T07:00:00','2027-06-22T07:00:00','2027-06-02T07:00:00','2027-06-22T07:00:00','P0Y0M0D','P0Y0M0D',.T.,$,$,$,$,$,0.00);
#79=IFCTASK('VZOH9TV7qzkdm5aFBJ1JAd',#6,'Concrete stair core',$,$,'3.6',$,$,$,.F.,$,#78,.CONSTRUCTION.);
#80=IFCTASKTIME('Roof build-up Time',.PREDICTED.,$,.WORKTIME.,'P0Y0M8D','2027-03-01T07:00:00','2027-03-10T07:00:00','2027-06-23T07:00:00','2027-07-02T07:00:00','2027-06-23T07:00:00','2027-07-02T07:00:00','P0Y0M0D','P0Y0M0D',.T.,$,$,$,$,$,0.00);
#81=IFCTASK('6HxXSJ6VvtMzb19$xByTj3',#6,'Roof build-up',$,$,'3.7',$,$,$,.F.,$,#80,.CONSTRUCTION.);
#82=IFCTASKTIME('Balcony structures Time',.PREDICTED.,$,.WORKTIME.,'P0Y0M10D','2027-03-01T07:00:00','2027-03-12T07:00:00','2027-07-05T07:00:00','2027-07-16T07:00:00','2027-07-05T07:00:00','2027-07-16T07:00:00','P0Y0M0D','P0Y0M0D',.T.,$,$,$,$,$,0.00);
#83=IFCTASK('mPcj5FZ$EHzvQZd1GX155F',#6,'Balcony structures',$,$,'3.8',$,$,$,.F.,$,#82,.CONSTRUCTION.);
#84=IFCTASKTIME('Facade masonry Time',.PREDICTED.,$,.WORKTIME.,'P0Y0M20D','2027-03-01T07:00:00','2027-03-26T07:00:00','2027-07-19T07:00:00','2027-09-03T07:00:00','2027-07-19T07:00:00','2027-09-03T07:00:00','P0Y0M0D','P0Y0M0D',.T.,$,$,$,$,$,0.00);
#85=IFCTASK('t9IHJ$w7_9gzRX5FolVp0t',#6,'Facade masonry',$,$,'3.9',$,$,$,.F.,$,#84,.CONSTRUCTION.);
#86=IFCTASKTIME('Topping out Time',.PREDICTED.,$,.WORKTIME.,'P0Y0M0D','2027-03-01T07:00:00','2027-03-01T07:00:00','2027-09-03T07:00:00','2027-09-03T07:00:00','2028-03-15T07:00:00','2028-03-15T07:00:00','P0Y0M138D','P0Y0M138D',.F.,$,$,$,$,$,0.00);
#87=IFCTASK('1lHby$AdPjUxplZHKpk5jT',#6,'Topping out',$,$,'3.10',$,$,$,.T.,$,#86,.CONSTRUCTION.);
#88=IFCTASKTIME('4. Facade & roof Time',.PREDICTED.,$,.WORKTIME.,'P0Y0M5D','2027-03-01T07:00:00','2027-03-05T07:00:00','2027-07-16T07:00:00','2027-09-23T07:00:00','2027-07-16T07:00:00','2028-03-15T07:00:00','P0Y0M0D','P0Y0M0D',.T.,$,$,$,$,$,0.00);
#89=IFCTASK('$J6pP5otzHet$hgHQ3XbTN',#6,'4. Facade & roof',$,$,'4',$,$,$,.F.,$,#88,.CONSTRUCTION.);
#90=IFCTASKTIME('Facade insulation Time',.PREDICTED.,$,.WORKTIME.,'P0Y0M12D','2027-03-01T07:00:00','2027-03-16T07:00:00','2027-07-16T07:00:00','2027-08-23T07:00:00','2027-07-16T07:00:00','2027-08-23T07:00:00','P0Y0M0D','P0Y0M0D',.T.,$,$,$,$,$,0.00);
#91=IFCTASK('kfm75Hd9nHuvklP1t7SB8b',#6,'Facade insulation',$,$,'4.1',$,$,$,.F.,$,#90,.INSTALLATION.);
#92=IFCTASKTIME('Window frames and glazing Time',.PREDICTED.,$,.WORKTIME.,'P0Y0M10D','2027-03-01T07:00:00','2027-03-12T07:00:00','2027-08-24T07:00:00','2027-09-06T07:00:00','2027-08-24T07:00:00','2027-09-06T07:00:00','P0Y0M0D','P0Y0M0D',.T.,$,$,$,$,$,0.00);
#93=IFCTASK('BtAvNF41qdyhw1jnF9Un$J',#6,'Window frames and glazing',$,$,'4.2',$,$,$,.F.,$,#92,.INSTALLATION.);
#94=IFCTASKTIME('Roofing and insulation Time',.PREDICTED.,$,.WORKTIME.,'P0Y0M8D','2027-03-01T07:00:00','2027-03-10T07:00:00','2027-09-07T07:00:00','2027-09-16T07:00:00','2027-09-07T07:00:00','2027-09-16T07:00:00','P0Y0M0D','P0Y0M0D',.T.,$,$,$,$,$,0.00);
#95=IFCTASK('6lLlNJxXhd4h2jxnwtc7Rb',#6,'Roofing and insulation',$,$,'4.3',$,$,$,.F.,$,#94,.CONSTRUCTION.);
#96=IFCTASKTIME('Balcony balustrades Time',.PREDICTED.,$,.WORKTIME.,'P0Y0M5D','2027-03-01T07:00:00','2027-03-05T07:00:00','2027-09-17T07:00:00','2027-09-23T07:00:00','2027-09-17T07:00:00','2027-09-23T07:00:00','P0Y0M0D','P0Y0M0D',.T.,$,$,$,$,$,0.00);
#97=IFCTASK('j9iJ1ZuP3FarO7In4d07fZ',#6,'Balcony balustrades',$,$,'4.4',$,$,$,.F.,$,#96,.INSTALLATION.);
#98=IFCTASKTIME('Wind and weathertight Time',.PREDICTED.,$,.WORKTIME.,'P0Y0M0D','2027-03-01T07:00:00','2027-03-01T07:00:00','2027-09-23T07:00:00','2027-09-23T07:00:00','2028-03-15T07:00:00','2028-03-15T07:00:00','P0Y0M124D','P0Y0M124D',.F.,$,$,$,$,$,0.00);
#99=IFCTASK('dVztozz1mTSjg9SHZ$J7Tf',#6,'Wind and weathertight',$,$,'4.5',$,$,$,.T.,$,#98,.CONSTRUCTION.);
#100=IFCTASKTIME('5. Building services Time',.PREDICTED.,$,.WORKTIME.,'P0Y0M5D','2027-03-01T07:00:00','2027-03-05T07:00:00','2027-09-24T07:00:00','2027-12-07T07:00:00','2027-09-24T07:00:00','2028-03-15T07:00:00','P0Y0M0D','P0Y0M0D',.T.,$,$,$,$,$,0.00);
#101=IFCTASK('hdGPJ1wvkLTtXb4F$1xVW7',#6,'5. Building services',$,$,'5',$,$,$,.F.,$,#100,.INSTALLATION.);
#102=IFCTASKTIME('Electrical risers Time',.PREDICTED.,$,.WORKTIME.,'P0Y0M10D','2027-03-01T07:00:00','2027-03-12T07:00:00','2027-09-24T07:00:00','2027-10-07T07:00:00','2027-09-24T07:00:00','2027-10-07T07:00:00','P0Y0M0D','P0Y0M0D',.T.,$,$,$,$,$,0.00);
#103=IFCTASK('$J6DHV3lHVw1035nI$Z9iJ',#6,'Electrical risers',$,$,'5.1',$,$,$,.F.,$,#102,.INSTALLATION.);
#104=IFCTASKTIME('Plumbing risers Time',.PREDICTED.,$,.WORKTIME.,'P0Y0M10D','2027-03-01T07:00:00','2027-03-12T07:00:00','2027-09-29T07:00:00','2027-10-12T07:00:00','2028-01-06T07:00:00','2028-01-19T07:00:00','P0Y0M0D','P0Y0M71D',.F.,$,$,$,$,$,0.00);
#105=IFCTASK('JRZfCvlvKjSr4tqFO5gZBv',#6,'Plumbing risers',$,$,'5.2',$,$,$,.F.,$,#104,.INSTALLATION.);
#106=IFCTASKTIME('Heating pipework per dwelling Time',.PREDICTED.,$,.WORKTIME.,'P0Y0M12D','2027-03-01T07:00:00','2027-03-16T07:00:00','2027-10-13T07:00:00','2027-10-28T07:00:00','2028-01-20T07:00:00','2028-02-04T07:00:00','P0Y0M0D','P0Y0M71D',.F.,$,$,$,$,$,0.00);
#107=IFCTASK('Nz9x2B8Pzl0npZnVr9wdJT',#6,'Heating pipework per dwelling',$,$,'5.3',$,$,$,.F.,$,#106,.INSTALLATION.);
#108=IFCTASKTIME('Heat recovery ventilation units Time',.PREDICTED.,$,.WORKTIME.,'P0Y0M8D','2027-03-01T07:00:00','2027-03-10T07:00:00','2027-10-29T07:00:00','2027-11-09T07:00:00','2028-02-07T07:00:00','2028-02-16T07:00:00','P0Y0M0D','P0Y0M71D',.F.,$,$,$,$,$,0.00);
#109=IFCTASK('a3SLb5l7u9HrWJN$sRstKD',#6,'Heat recovery ventilation units',$,$,'5.4',$,$,$,.F.,$,#108,.INSTALLATION.);
#110=IFCTASKTIME('Lift installation Time',.PREDICTED.,$,.WORKTIME.,'P0Y0M15D','2027-03-01T07:00:00','2027-03-19T07:00:00','2027-11-10T07:00:00','2027-11-30T07:00:00','2028-02-17T07:00:00','2028-03-08T07:00:00','P0Y0M0D','P0Y0M71D',.F.,$,$,$,$,$,0.00);
#111=IFCTASK('NzvBnBNNu1gzrP_XzHNLQH',#6,'Lift installation',$,$,'5.5',$,$,$,.F.,$,#110,.INSTALLATION.);
#112=IFCTASKTIME('Intercom and access control Time',.PREDICTED.,$,.WORKTIME.,'P0Y0M5D','2027-03-01T07:00:00','2027-03-05T07:00:00','2027-12-01T07:00:00','2027-12-07T07:00:00','2028-03-09T07:00:00','2028-03-15T07:00:00','P0Y0M71D','P0Y0M71D',.F.,$,$,$,$,$,0.00);
#113=IFCTASK('PRGdhpwvAr3NnPw1afMZlh',#6,'Intercom and access control',$,$,'5.6',$,$,$,.F.,$,#112,.INSTALLATION.);
#114=IFCTASKTIME('6. Fit-out Time',.PREDICTED.,$,.WORKTIME.,'P0Y0M5D','2027-03-01T07:00:00','2027-03-05T07:00:00','2027-11-05T07:00:00','2028-02-11T07:00:00','2027-11-05T07:00:00','2028-02-11T07:00:00','P0Y0M0D','P0Y0M0D',.T.,$,$,$,$,$,0.00);
#115=IFCTASK('S$lJ$zS1YjkLM9qHsV5Hj$',#6,'6. Fit-out',$,$,'6',$,$,$,.F.,$,#114,.CONSTRUCTION.);
#116=IFCTASKTIME('Set out internal walls Time',.PREDICTED.,$,.WORKTIME.,'P0Y0M10D','2027-03-01T07:00:00','2027-03-12T07:00:00','2027-11-05T07:00:00','2027-11-18T07:00:00','2027-11-05T07:00:00','2027-11-18T07:00:00','P0Y0M0D','P0Y0M0D',.T.,$,$,$,$,$,0.00);
#117=IFCTASK('M3nplXB18Xw$e1$VQd0vbR',#6,'Set out internal walls',$,$,'6.1',$,$,$,.F.,$,#116,.CONSTRUCTION.);
#118=IFCTASKTIME('Plastering Time',.PREDICTED.,$,.WORKTIME.,'P0Y0M12D','2027-03-01T07:00:00','2027-03-16T07:00:00','2027-11-19T07:00:00','2027-12-06T07:00:00','2027-11-19T07:00:00','2027-12-06T07:00:00','P0Y0M0D','P0Y0M0D',.T.,$,$,$,$,$,0.00);
#119=IFCTASK('7HJd5BFd9X5Vs7MlMrijYF',#6,'Plastering',$,$,'6.2',$,$,$,.F.,$,#118,.CONSTRUCTION.);
#120=IFCTASKTIME('Tiling Time',.PREDICTED.,$,.WORKTIME.,'P0Y0M10D','2027-03-01T07:00:00','2027-03-12T07:00:00','2027-12-07T07:00:00','2027-12-20T07:00:00','2027-12-07T07:00:00','2027-12-20T07:00:00','P0Y0M0D','P0Y0M0D',.T.,$,$,$,$,$,0.00);
#121=IFCTASK('gPe$6zqVpRhl$$XXm$Zt4v',#6,'Tiling',$,$,'6.3',$,$,$,.F.,$,#120,.CONSTRUCTION.);
#122=IFCTASKTIME('Screed floors Time',.PREDICTED.,$,.WORKTIME.,'P0Y0M8D','2027-03-01T07:00:00','2027-03-10T07:00:00','2027-12-21T07:00:00','2027-12-30T07:00:00','2027-12-21T07:00:00','2027-12-30T07:00:00','P0Y0M0D','P0Y0M0D',.T.,$,$,$,$,$,0.00);
#123=IFCTASK('_pMdVf8dX5$TTf0VNjP5J3',#6,'Screed floors',$,$,'6.4',$,$,$,.F.,$,#122,.CONSTRUCTION.);
#124=IFCTASKTIME('Internal doors Time',.PREDICTED.,$,.WORKTIME.,'P0Y0M5D','2027-03-01T07:00:00','2027-03-05T07:00:00','2027-12-31T07:00:00','2028-01-06T07:00:00','2027-12-31T07:00:00','2028-01-06T07:00:00','P0Y0M0D','P0Y0M0D',.T.,$,$,$,$,$,0.00);
#125=IFCTASK('Ap9DlXpn2tEBytKleJXpm1',#6,'Internal doors',$,$,'6.5',$,$,$,.F.,$,#124,.INSTALLATION.);
#126=IFCTASKTIME('Kitchen units installation Time',.PREDICTED.,$,.WORKTIME.,'P0Y0M8D','2027-03-01T07:00:00','2027-03-10T07:00:00','2028-01-07T07:00:00','2028-01-18T07:00:00','2028-01-07T07:00:00','2028-01-18T07:00:00','P0Y0M0D','P0Y0M0D',.T.,$,$,$,$,$,0.00);
#127=IFCTASK('BfUhl1$PrZaB8njnTZCbxr',#6,'Kitchen units installation',$,$,'6.6',$,$,$,.F.,$,#126,.INSTALLATION.);
#128=IFCTASKTIME('Painting Time',.PREDICTED.,$,.WORKTIME.,'P0Y0M10D','2027-03-01T07:00:00','2027-03-12T07:00:00','2028-01-19T07:00:00','2028-02-01T07:00:00','2028-01-19T07:00:00','2028-02-01T07:00:00','P0Y0M0D','P0Y0M0D',.T.,$,$,$,$,$,0.00);
#129=IFCTASK('zlFxEZFdLJsZzdM$$XNTdP',#6,'Painting',$,$,'6.7',$,$,$,.F.,$,#128,.CONSTRUCTION.);
#130=IFCTASKTIME('Floor finishes Time',.PREDICTED.,$,.WORKTIME.,'P0Y0M8D','2027-03-01T07:00:00','2027-03-10T07:00:00','2028-02-02T07:00:00','2028-02-11T07:00:00','2028-02-02T07:00:00','2028-02-11T07:00:00','P0Y0M0D','P0Y0M0D',.T.,$,$,$,$,$,0.00);
#131=IFCTASK('rfAZC5VPtrtzzbu1jxzteL',#6,'Floor finishes',$,$,'6.8',$,$,$,.F.,$,#130,.CONSTRUCTION.);
#132=IFCTASKTIME('7. Handover Time',.PREDICTED.,$,.WORKTIME.,'P0Y0M5D','2027-03-01T07:00:00','2027-03-05T07:00:00','2028-02-14T07:00:00','2028-03-15T07:00:00','2028-02-14T07:00:00','2028-03-15T07:00:00','P0Y0M0D','P0Y0M0D',.T.,$,$,$,$,$,0.00);
#133=IFCTASK('2jkxsHd9JLvpapd1WNcDqn',#6,'7. Handover',$,$,'7',$,$,$,.F.,$,#132,.CONSTRUCTION.);
#134=IFCTASKTIME('Site paving Time',.PREDICTED.,$,.WORKTIME.,'P0Y0M8D','2027-03-01T07:00:00','2027-03-10T07:00:00','2028-02-14T07:00:00','2028-02-23T07:00:00','2028-02-14T07:00:00','2028-02-23T07:00:00','P0Y0M0D','P0Y0M0D',.T.,$,$,$,$,$,0.00);
#135=IFCTASK('bxCDBZ09D7D93RGVO5IxlL',#6,'Site paving',$,$,'7.1',$,$,$,.F.,$,#134,.CONSTRUCTION.);
#136=IFCTASKTIME('Landscaping Time',.PREDICTED.,$,.WORKTIME.,'P0Y0M5D','2027-03-01T07:00:00','2027-03-05T07:00:00','2028-02-24T07:00:00','2028-03-01T07:00:00','2028-02-24T07:00:00','2028-03-01T07:00:00','P0Y0M0D','P0Y0M0D',.T.,$,$,$,$,$,0.00);
#137=IFCTASK('LTrX4zSH3l0FHT3FGVHBqn',#6,'Landscaping',$,$,'7.2',$,$,$,.F.,$,#136,.CONSTRUCTION.);
#138=IFCTASKTIME('Cleaning Time',.PREDICTED.,$,.WORKTIME.,'P0Y0M5D','2027-03-01T07:00:00','2027-03-05T07:00:00','2028-03-02T07:00:00','2028-03-08T07:00:00','2028-03-02T07:00:00','2028-03-08T07:00:00','P0Y0M0D','P0Y0M0D',.T.,$,$,$,$,$,0.00);
#139=IFCTASK('8JBFTRs1ufTtb$lVFxLV8j',#6,'Cleaning',$,$,'7.3',$,$,$,.F.,$,#138,.LOGISTIC.);
#140=IFCTASKTIME('Pre-handover inspection, dwellings Time',.PREDICTED.,$,.WORKTIME.,'P0Y0M5D','2027-03-01T07:00:00','2027-03-05T07:00:00','2028-03-09T07:00:00','2028-03-15T07:00:00','2028-03-09T07:00:00','2028-03-15T07:00:00','P0Y0M0D','P0Y0M0D',.T.,$,$,$,$,$,0.00);
#141=IFCTASK('bXBVW1HvK9cDGLoFMFlB4v',#6,'Pre-handover inspection, dwellings',$,$,'7.4',$,$,$,.F.,$,#140,.ATTENDANCE.);
#142=IFCTASKTIME('Handover Time',.PREDICTED.,$,.WORKTIME.,'P0Y0M0D','2027-03-01T07:00:00','2027-03-01T07:00:00','2028-03-15T07:00:00','2028-03-15T07:00:00','2028-03-15T07:00:00','2028-03-15T07:00:00','P0Y0M0D','P0Y0M0D',.T.,$,$,$,$,$,0.00);
#143=IFCTASK('RXL1oZldHVUf7Jt$a9cvxh',#6,'Handover',$,$,'7.5',$,$,$,.T.,$,#142,.CONSTRUCTION.);
#144=IFCRELNESTS('VXrVeZv9xxdBmr_XDvu$Up',#6,'WBS 1. Preparation',$,#43,( #45,#47,#49,#51));
#145=IFCRELNESTS('bxibGtyHjB5XEBEXyP8$cL',#6,'WBS 2. Foundations',$,#53,( #55,#57,#59,#61,#63,#65));
#146=IFCRELNESTS('q9EFTb2Fufrn1rkXgHpdv9',#6,'WBS 3. Structural works',$,#67,( #69,#71,#73,#75,#77,#79,#81,#83,#85,#87));
#147=IFCRELNESTS('uhQJ3LqXVdPrOvMH69A9uJ',#6,'WBS 4. Facade & roof',$,#89,( #91,#93,#95,#97,#99));
#148=IFCRELNESTS('or9DjXA$yxvLYZzF0darSf',#6,'WBS 5. Building services',$,#101,( #103,#105,#107,#109,#111,#113));
#149=IFCRELNESTS('TZ8V0npVfHRVMLonIX$x$D',#6,'WBS 6. Fit-out',$,#115,( #117,#119,#121,#123,#125,#127,#129,#131));
#150=IFCRELNESTS('9Ng3UN1vgvbXghknabl3V7',#6,'WBS 7. Handover',$,#133,( #135,#137,#139,#141,#143));
#151=IFCRELNESTS('tjjP5r1vgdnD4TBHzDgTrv',#6,'WBS Hoofd',$,#40,(#43,#53,#67,#89,#101,#115,#133));
#152=IFCRELSEQUENCE('lbztIHGfoRhHjVFXVnDdNV',#6,$,$,#45,#47,$,.FINISH_START.,$);
#153=IFCRELSEQUENCE('bVj7d9jXlXgnXb4lHdqRxr',#6,$,$,#47,#49,$,.FINISH_START.,$);
#154=IFCRELSEQUENCE('3j2rLfGfYD2t5HlVdnlriV',#6,$,$,#49,#51,$,.FINISH_START.,$);
#155=IFCRELSEQUENCE('e31ZuJxVXPXzpzBn3DoRDH',#6,$,$,#55,#57,$,.FINISH_START.,$);
#156=IFCRELSEQUENCE('ZT8F91UfmJY5bhQlNpbnTx',#6,$,$,#57,#59,$,.FINISH_START.,$);
#157=IFCRELSEQUENCE('UZWNGP6Vv9kL_jrnXFz9uR',#6,$,$,#59,#61,$,.FINISH_START.,$);
#158=IFCRELSEQUENCE('cxyTKfldnn4LUNSnp7Gf65',#6,$,$,#61,#63,$,.FINISH_START.,$);
#159=IFCRELSEQUENCE('xn$rj33$0rlBKV9$yBLHX7',#6,$,$,#63,#65,$,.FINISH_START.,$);
#160=IFCRELSEQUENCE('LdWNSFKFExPB0Zv$gHb$6b',#6,$,$,#69,#71,$,.FINISH_START.,$);
#161=IFCRELSEQUENCE('fv4BNH8PRLT9ZBEXqHDP$j',#6,$,$,#71,#73,$,.FINISH_START.,$);
#162=IFCRELSEQUENCE('7ntpFlFdFZM3ThgH69UFDj',#6,$,$,#73,#75,$,.FINISH_START.,$);
#163=IFCRELSEQUENCE('9DNJtXUF2TyhU391ura3ln',#6,$,$,#75,#77,$,.FINISH_START.,$);
#164=IFCLAGTIME('Lag',.PREDICTED.,$,IFCDURATION('P5D'),.WORKTIME.);
#165=IFCRELSEQUENCE('V$vBXpYfW5FDqnv1wN_rCn',#6,$,$,#77,#79,#164,.START_START.,$);
#166=IFCRELSEQUENCE('PxiJP9T$EnFpSPw1qlrnr7',#6,$,$,#79,#81,$,.FINISH_START.,$);
#167=IFCRELSEQUENCE('3Hn5o3bngRTPu9e$G$rnTx',#6,$,$,#81,#83,$,.FINISH_START.,$);
#168=IFCRELSEQUENCE('7Bw9sBX7aLHr03hFLTDP$j',#6,$,$,#83,#85,$,.FINISH_START.,$);
#169=IFCRELSEQUENCE('IfG7VJIlR$fZbrg1Z3OVq3',#6,$,$,#85,#87,$,.FINISH_START.,$);
#170=IFCRELSEQUENCE('WXpPRRxXl16jQljHzD2rez',#6,$,$,#91,#93,$,.FINISH_START.,$);
#171=IFCRELSEQUENCE('M31ZmvQvCdqxTNO$SfYhUp',#6,$,$,#93,#95,$,.FINISH_START.,$);
#172=IFCRELSEQUENCE('TzaLplO7a$15brg1b1$jQF',#6,$,$,#95,#97,$,.FINISH_START.,$);
#173=IFCRELSEQUENCE('sfsZ4T8voHDt9N8$Qd81gt',#6,$,$,#97,#99,$,.FINISH_START.,$);
#174=IFCLAGTIME('Lag',.PREDICTED.,$,IFCDURATION('P3D'),.WORKTIME.);
#175=IFCRELSEQUENCE('mdk5ozBlH$wJw1BHntk$_X',#6,$,$,#103,#105,#174,.START_START.,$);
#176=IFCRELSEQUENCE('CLZNebQXDRbX6pbHAb6P9F',#6,$,$,#105,#107,$,.FINISH_START.,$);
#177=IFCRELSEQUENCE('wH3tEzpXVRTPqBM1lvOXql',#6,$,$,#107,#109,$,.FINISH_START.,$);
#178=IFCRELSEQUENCE('99QfSD_f2tIh6$LHjN6JwR',#6,$,$,#109,#111,$,.FINISH_START.,$);
#179=IFCRELSEQUENCE('b$dLzdL1wTQDKRCFabVpOT',#6,$,$,#111,#113,$,.FINISH_START.,$);
#180=IFCRELSEQUENCE('exyBnrfNW59bhNCFafQpSb',#6,$,$,#117,#119,$,.FINISH_START.,$);
#181=IFCRELSEQUENCE('ypY1wZmfgP7hwJt1ijA9Wd',#6,$,$,#119,#121,$,.FINISH_START.,$);
#182=IFCRELSEQUENCE('e54ZW1FvoxdrmL6HDP4LUp',#6,$,$,#121,#123,$,.FINISH_START.,$);
#183=IFCRELSEQUENCE('Nz9xoTXv8V_t1rQ1cTxVmV',#6,$,$,#123,#125,$,.FINISH_START.,$);
#184=IFCRELSEQUENCE('7HZf0lP973uNz7QHntcvNT',#6,$,$,#125,#127,$,.FINISH_START.,$);
#185=IFCRELSEQUENCE('f3txYb_FCdypyTjnpBpPf1',#6,$,$,#127,#129,$,.FINISH_START.,$);
#186=IFCRELSEQUENCE('Bfgzw3aH7fQXUzHVBDz9mV',#6,$,$,#129,#131,$,.FINISH_START.,$);
#187=IFCRELSEQUENCE('wFn5ALrH$fBFlZLljtk$wR',#6,$,$,#135,#137,$,.FINISH_START.,$);
#188=IFCRELSEQUENCE('4DU$sH9f63cVknDnZVnL2V',#6,$,$,#137,#139,$,.FINISH_START.,$);
#189=IFCRELSEQUENCE('iPWNaFqXhPSBCH3lAXhXWv',#6,$,$,#139,#141,$,.FINISH_START.,$);
#190=IFCRELSEQUENCE('Fdcjhf0tRLJvYNan5BKjot',#6,$,$,#141,#143,$,.FINISH_START.,$);
#191=IFCLAGTIME('Lag',.PREDICTED.,$,IFCDURATION('P8D'),.WORKTIME.);
#192=IFCRELSEQUENCE('e5yZeZffyF7hMNWX5rixxF',#6,$,$,#45,#55,#191,.START_START.,$);
#193=IFCLAGTIME('Lag',.PREDICTED.,$,IFCRATIOMEASURE(0.4),.WORKTIME.);
#194=IFCRELSEQUENCE('ST09ozDV$BT9npnVHvOXub',#6,$,$,#55,#69,#193,.START_START.,$);
#195=IFCLAGTIME('Lag',.PREDICTED.,$,IFCDURATION('-P21D'),.WORKTIME.);
#196=IFCRELSEQUENCE('EhhHvr8dJ9XR7VN$cZDdL9',#6,$,$,#85,#91,#195,.FINISH_START.,$);
#197=IFCLAGTIME('Lag',.PREDICTED.,$,IFCDURATION('P2D'),.WORKTIME.);
#198=IFCRELSEQUENCE('1H9Dd5Mdd7ufXnznqFPJ6V',#6,$,$,#85,#97,#197,.FINISH_FINISH.,$);
#199=IFCRELSEQUENCE('2HXLnHHdZjKzLNqFWfYLgj',#6,$,$,#97,#103,$,.FINISH_START.,$);
#200=IFCLAGTIME('Lag',.PREDICTED.,$,IFCDURATION('P30D'),.WORKTIME.);
#201=IFCRELSEQUENCE('gPWfmdoH1hfTxRSnHLPJId',#6,$,$,#103,#117,#200,.START_START.,$);
#202=IFCRELSEQUENCE('rNgzET79LDE7cHhFRx2Ba9',#6,$,$,#131,#135,$,.FINISH_START.,$);
#203=IFCRELASSIGNSTOCONTROL('rDVhNjbXHjyDCF$VkTSruD',#6,$,$,(#43,#45,#47,#49,#51,#53,#55,#57,#59,#61,#63,#65,#67,#69,#71,#73,#75,#77,#79,#81,#83,#85,#87,#89,#91,#93,#95,#97,#99,#101,#103,#105,#107,#109,#111,#113,#115,#117,#119,#121,#123,#125,#127,#129,#131,#133,#135,#137,#139,#141,#143),$,#40);
#204=IFCPROPERTYSINGLEVALUE('InternalProjectId',$,IFCTEXT('proj-mtx91fec3fv71497'),$);
#205=IFCPROPERTYSINGLEVALUE('wbsAutoNumber',$,IFCBOOLEAN(.T.),$);
#206=IFCPROPERTYSINGLEVALUE('DefaultTaskDurationUnit',$,IFCLABEL('days'),$);
#207=IFCPROPERTYSINGLEVALUE('ProjectStartDate',$,IFCDATE('2027-03-01'),$);
#208=IFCPROPERTYSINGLEVALUE('ProjectEndDate',$,$,$);
#209=IFCPROPERTYSINGLEVALUE('CreatedAt',$,IFCTEXT('2026-09-11T17:47:44.821Z'),$);
#210=IFCPROPERTYSINGLEVALUE('ModifiedAt',$,IFCTEXT('2026-09-11T17:47:44.823Z'),$);
#211=IFCPROPERTYSET('e5a3ArlP$tNZvpDF1ZK5n5',#6,'OPS_ProjectSettings',$,(#204,#205,#206,#207,#208,#209,#210));
#212=IFCRELDEFINESBYPROPERTIES('0Hdzo1sPJhdjQlBF$1BF9l',#6,$,$,(#13),#211);
#213=IFCPROPERTYSINGLEVALUE('InternalTaskId',$,IFCTEXT('task-mtx91fegsvqm1498'),$);
#214=IFCPROPERTYSET('rjLltTNNeFajQH3Hk3GtCz',#6,'OPS_TaskIdentity',$,(#213));
#215=IFCRELDEFINESBYPROPERTIES('kf8nl5H7ijKbb$1Vk3GtGH',#6,$,$,(#43),#214);
#216=IFCPROPERTYSINGLEVALUE('InternalTaskId',$,IFCTEXT('task-mtx91feh3pz21499'),$);
#217=IFCPROPERTYSET('Z17rxltN2TaBOVJlR1l3JV',#6,'OPS_TaskIdentity',$,(#216));
#218=IFCRELDEFINESBYPROPERTIES('MZJvNlmfcVw$8FRHolFZ5H',#6,$,$,(#45),#217);
#219=IFCPROPERTYSINGLEVALUE('InternalTaskId',$,IFCTEXT('task-mtx91fej8a5y1500'),$);
#220=IFCPROPERTYSET('Yz4rVDUfmjATNxiFUPyZXz',#6,'OPS_TaskIdentity',$,(#219));
#221=IFCRELDEFINESBYPROPERTIES('RXpPbbDFYdK3$h2FLTBFPd',#6,$,$,(#47),#220);
#222=IFCPROPERTYSINGLEVALUE('InternalTaskId',$,IFCTEXT('task-mtx91fekmqoq1501'),$);
#223=IFCPROPERTYSET('7BkHXNmfIVpPmrQ1_N6Jox',#6,'OPS_TaskIdentity',$,(#222));
#224=IFCRELDEFINESBYPROPERTIES('0HNjZ5gP55$TN5aHZXHBqH',#6,$,$,(#49),#223);
#225=IFCPROPERTYSINGLEVALUE('InternalTaskId',$,IFCTEXT('task-mtx91fem2osq1502'),$);
#226=IFCPROPERTYSET('H9yrpJZlZ$_bf7clNj9rCZ',#6,'OPS_TaskIdentity',$,(#225));
#227=IFCRELDEFINESBYPROPERTIES('O54BVJkHHVE7cZ71ARstW7',#6,$,$,(#51),#226);
#228=IFCPROPERTYSINGLEVALUE('InternalTaskId',$,IFCTEXT('task-mtx91fenut6d1503'),$);
#229=IFCPROPERTYSET('xHD7fHGNGjAT37wHVjQvN3',#6,'OPS_TaskIdentity',$,(#228));
#230=IFCRELDEFINESBYPROPERTIES('qLp7xHNNmDQX2PkXQPmf_z',#6,$,$,(#53),#229);
#231=IFCPROPERTYSINGLEVALUE('InternalTaskId',$,IFCTEXT('task-mtx91feobft01504'),$);
#232=IFCPROPERTYSET('QbunL9qFOlO9Pl3Hk$pdTb',#6,'OPS_TaskIdentity',$,(#231));
#233=IFCRELDEFINESBYPROPERTIES('V$nDdbYn6TATn7Unxlj73P',#6,$,$,(#55),#232);
#234=IFCPROPERTYSINGLEVALUE('InternalTaskId',$,IFCTEXT('task-mtx91feq9dgn1505'),$);
#235=IFCPROPERTYSET('lbrVSjQXPDMn3Re10PqRvx',#6,'OPS_TaskIdentity',$,(#234));
#236=IFCRELDEFINESBYPROPERTIES('s9Av$TGNUvuv6XnXpLHBup',#6,$,$,(#57),#235);
#237=IFCPROPERTYSINGLEVALUE('InternalTaskId',$,IFCTEXT('task-mtx91fesh5cn1506'),$);
#238=IFCPROPERTYSET('exyBZ5UfqdiRdnf$XHd5tl',#6,'OPS_TaskIdentity',$,(#237));
#239=IFCRELDEFINESBYPROPERTIES('V3Kj7PTln3UfFvEF_xRn3h',#6,$,$,(#59),#238);
#240=IFCPROPERTYSINGLEVALUE('InternalTaskId',$,IFCTEXT('task-mtx91fetcqos1507'),$);
#241=IFCPROPERTYSET('CNYhP5APLv87k5mVqzOVql',#6,'OPS_TaskIdentity',$,(#240));
#242=IFCRELDEFINESBYPROPERTIES('5r2XW$l7if_9VbSF5LGNkv',#6,$,$,(#61),#241);
#243=IFCPROPERTYSINGLEVALUE('InternalTaskId',$,IFCTEXT('task-mtx91fev5wjs1508'),$);
#244=IFCPROPERTYSET('Gf0tknSH$r3NZtKlOxMTZb',#6,'OPS_TaskIdentity',$,(#243));
#245=IFCRELDEFINESBYPROPERTIES('Nd092LCFCvOPCrM$PheH9p',#6,$,$,(#63),#244);
#246=IFCPROPERTYSINGLEVALUE('InternalTaskId',$,IFCTEXT('task-mtx91fewqey61509'),$);
#247=IFCPROPERTYSET('e5CDR5d9FFCZNRe$PHJvdr',#6,'OPS_TaskIdentity',$,(#246));
#248=IFCRELDEFINESBYPROPERTIES('X3C52B09xx7Lkl918TLlRR',#6,$,$,(#65),#247);
#249=IFCPROPERTYSINGLEVALUE('InternalTaskId',$,IFCTEXT('task-mtx91feytr781510'),$);
#250=IFCPROPERTYSET('UT8VajoHxxdre7MlkZaBu5',#6,'OPS_TaskIdentity',$,(#249));
#251=IFCRELDEFINESBYPROPERTIES('b1V3ct4l7T4D8fCl_t6PV3',#6,$,$,(#67),#250);
#252=IFCPROPERTYSINGLEVALUE('InternalTaskId',$,IFCTEXT('task-mtx91ff0mmfx1511'),$);
#253=IFCPROPERTYSET('uDtDfJDn6nqx3v_FdnXbN3',#6,'OPS_TaskIdentity',$,(#252));
#254=IFCRELDEFINESBYPROPERTIES('FrFxQtiFAtPjwXv1nNcpqn',#6,$,$,(#69),#253);
#255=IFCPROPERTYSINGLEVALUE('InternalTaskId',$,IFCTEXT('task-mtx91ff2tcqa1512'),$);
#256=IFCPROPERTYSET('eb0tgX5VvTCxbLwHVpwjo5',#6,'OPS_TaskIdentity',$,(#255));
#257=IFCRELDEFINESBYPROPERTIES('VT09w3qXTD87EXDHVpwjUl',#6,$,$,(#71),#256);
#258=IFCPROPERTYSINGLEVALUE('InternalTaskId',$,IFCTEXT('task-mtx91ff4glhq1513'),$);
#259=IFCPROPERTYSET('ADtpHVB$GzmXoXjHVHdxZ5',#6,'OPS_TaskIdentity',$,(#258));
#260=IFCRELDEFINESBYPROPERTIES('ltKj$zqFyl5149iFAVhXOz',#6,$,$,(#73),#259);
#261=IFCPROPERTYSINGLEVALUE('InternalTaskId',$,IFCTEXT('task-mtx91ff6e5771514'),$);
#262=IFCPROPERTYSET('nrF5ctin6H0njjHVjfwJ6b',#6,'OPS_TaskIdentity',$,(#261));
#263=IFCRELDEFINESBYPROPERTIES('gvKRGPElfFvhIRiHuZxVeh',#6,$,$,(#75),#262);
#264=IFCPROPERTYSINGLEVALUE('InternalTaskId',$,IFCTEXT('task-mtx91ff8c2rc1515'),$);
#265=IFCPROPERTYSET('_l7TCbTHflrFBdkXAbQ7jV',#6,'OPS_TaskIdentity',$,(#264));
#266=IFCRELDEFINESBYPROPERTIES('tp7Zmv67ExnD0TN1Hd4hgt',#6,$,$,(#77),#265);
#267=IFCPROPERTYSINGLEVALUE('InternalTaskId',$,IFCTEXT('task-mtx91ffare251516'),$);
#268=IFCPROPERTYSET('_nDv91Q7CPyDuHv$NDbFXz',#6,'OPS_TaskIdentity',$,(#267));
#269=IFCRELDEFINESBYPROPERTIES('tjBnBP2Fq3o7wVnVXF5Hpl',#6,$,$,(#79),#268);
#270=IFCPROPERTYSINGLEVALUE('InternalTaskId',$,IFCTEXT('task-mtx91ffb59by1517'),$);
#271=IFCPROPERTYSET('NZBVitjXDxN5Vn3FiV5Hxh',#6,'OPS_TaskIdentity',$,(#270));
#272=IFCRELDEFINESBYPROPERTIES('G7U$_d5Vh7u76Vf1EjgNIr',#6,$,$,(#81),#271);
#273=IFCPROPERTYSINGLEVALUE('InternalTaskId',$,IFCTEXT('task-mtx91ffdytr91518'),$);
#274=IFCPROPERTYSET('JNuF3B09Xx$TrJ5nghOVi$',#6,'OPS_TaskIdentity',$,(#273));
#275=IFCRELDEFINESBYPROPERTIES('cbunVj2n0hJ7gN8$MFvDKj',#6,$,$,(#83),#274);
#276=IFCPROPERTYSINGLEVALUE('InternalTaskId',$,IFCTEXT('task-mtx91fffi1om1519'),$);
#277=IFCPROPERTYSET('cRGdrz4lD5FpqHjHFtQvxB',#6,'OPS_TaskIdentity',$,(#276));
#278=IFCRELDEFINESBYPROPERTIES('V$7rHbJnSBZtR1P$aNobdB',#6,$,$,(#85),#277);
#279=IFCPROPERTYSINGLEVALUE('InternalTaskId',$,IFCTEXT('task-mtx91ffhh3i61520'),$);
#280=IFCPROPERTYSET('SXTNqvtfif29RVjHJbfhgt',#6,'OPS_TaskIdentity',$,(#279));
#281=IFCRELDEFINESBYPROPERTIES('L3NR8DffQjyhIRin_NIxlh',#6,$,$,(#87),#280);
#282=IFCPROPERTYSINGLEVALUE('InternalTaskId',$,IFCTEXT('task-mtx91ffjf6wz1521'),$);
#283=IFCPROPERTYSET('Y$7rnBndVRx14zf1_btBKJ',#6,'OPS_TaskIdentity',$,(#282));
#284=IFCRELDEFINESBYPROPERTIES('NTJ7B72Nox7h6$xl8ByT1D',#6,$,$,(#89),#283);
#285=IFCPROPERTYSINGLEVALUE('InternalTaskId',$,IFCTEXT('task-mtx91ffl053q1522'),$);
#286=IFCPROPERTYSET('Bf6p9Z$vQ12R71RlY7uFFR',#6,'OPS_TaskIdentity',$,(#285));
#287=IFCRELDEFINESBYPROPERTIES('ypsvnrd9p5XzVbCFOboV8J',#6,$,$,(#91),#286);
#288=IFCPROPERTYSINGLEVALUE('InternalTaskId',$,IFCTEXT('task-mtx91ffn5fwi1523'),$);
#289=IFCPROPERTYSET('ObG7tXwXljyD4tKnkzeVKD',#6,'OPS_TaskIdentity',$,(#288));
#290=IFCRELDEFINESBYPROPERTIES('VZG7TbcVLPypi1pn$3071t',#6,$,$,(#93),#289);
#291=IFCPROPERTYSINGLEVALUE('InternalTaskId',$,IFCTEXT('task-mtx91ffpb1ln1524'),$);
#292=IFCPROPERTYSET('NTblnFT16nSrmhwHtdGtGH',#6,'OPS_TaskIdentity',$,(#291));
#293=IFCRELDEFINESBYPROPERTIES('Gvon9$gPlj4padQ$gBSBqz',#6,$,$,(#95),#292);
#294=IFCPROPERTYSINGLEVALUE('InternalTaskId',$,IFCTEXT('task-mtx91ffrh0tg1525'),$);
#295=IFCPROPERTYSET('sN6prZe7itILMrg$tz15tF',#6,'OPS_TaskIdentity',$,(#294));
#296=IFCRELDEFINESBYPROPERTIES('3DA7bX3lxHbVMfO1Clrntn',#6,$,$,(#97),#295);
#297=IFCPROPERTYSINGLEVALUE('InternalTaskId',$,IFCTEXT('task-mtx91ffttnwi1526'),$);
#298=IFCPROPERTYSET('ApFxIJpFsfxXUz91ablzpl',#6,'OPS_TaskIdentity',$,(#297));
#299=IFCRELDEFINESBYPROPERTIES('l9ib0FRnE59RZh2FdlZ9yr',#6,$,$,(#99),#298);
#300=IFCPROPERTYSINGLEVALUE('InternalTaskId',$,IFCTEXT('task-mtx91ffv2yi91527'),$);
#301=IFCPROPERTYSET('8B_VeRwVNntbXxWXRbQ7X7',#6,'OPS_TaskIdentity',$,(#300));
#302=IFCRELDEFINESBYPROPERTIES('$JYLFnhlNHD9$hAH8ZjvVv',#6,$,$,(#101),#301);
#303=IFCPROPERTYSINGLEVALUE('InternalTaskId',$,IFCTEXT('task-mtx91ffx4o5x1528'),$);
#304=IFCPROPERTYSET('Y$7Bv7Hv8tvpqrYXnt6dN1',#6,'OPS_TaskIdentity',$,(#303));
#305=IFCRELDEFINESBYPROPERTIES('NTJ7j3bnABhHth6lR5kxdd',#6,$,$,(#103),#304);
#306=IFCPROPERTYSINGLEVALUE('InternalTaskId',$,IFCTEXT('task-mtx91fg0kzty1529'),$);
#307=IFCPROPERTYSET('G9CpPRs1a1t3Nds$dFlBCl',#6,'OPS_TaskIdentity',$,(#306));
#308=IFCRELDEFINESBYPROPERTIES('N7C5QDYNKN618nTFs5oRXv',#6,$,$,(#105),#307);
#309=IFCPROPERTYSINGLEVALUE('InternalTaskId',$,IFCTEXT('task-mtx91fg2t1wr1530'),$);
#310=IFCPROPERTYSET('CL39_LS$2TKRPnlX1Ti5Pv',#6,'OPS_TaskIdentity',$,(#309));
#311=IFCRELDEFINESBYPROPERTIES('jfWN0nT$QJqxvjlX$Tar85',#6,$,$,(#107),#310);
#312=IFCPROPERTYSINGLEVALUE('InternalTaskId',$,IFCTEXT('task-mtx91fg4wq3a1531'),$);
#313=IFCPROPERTYSET('$pMdDHW9pRhH37kF8rS3Zt',#6,'OPS_TaskIdentity',$,(#312));
#314=IFCRELDEFINESBYPROPERTIES('6F$BH5lvipWHLTbloFB$Yp',#6,$,$,(#109),#313);
#315=IFCPROPERTYSINGLEVALUE('InternalTaskId',$,IFCTEXT('task-mtx91fg7kc811532'),$);
#316=IFCPROPERTYSET('Chp7$TW9FHu7kFJnzJcvj1',#6,'OPS_TaskIdentity',$,(#315));
#317=IFCRELDEFINESBYPROPERTIES('JfmPnn5Fa1fZRBc$sxUhQr',#6,$,$,(#111),#316);
#318=IFCPROPERTYSINGLEVALUE('InternalTaskId',$,IFCTEXT('task-mtx91fgah8rx1533'),$);
#319=IFCPROPERTYSET('4D2Xm7sdDxtbLNSFnx5H9D',#6,'OPS_TaskIdentity',$,(#318));
#320=IFCRELDEFINESBYPROPERTIES('zFR1MxtNOl0nlThHv1P5DJ',#6,$,$,(#113),#319);
#321=IFCPROPERTYSINGLEVALUE('InternalTaskId',$,IFCTEXT('task-mtx91fgcoosq1534'),$);
#322=IFCPROPERTYSET('7FfJnr9NArLHRhUnJbfhkB',#6,'OPS_TaskIdentity',$,(#321));
#323=IFCRELDEFINESBYPROPERTIES('EBfJ5lffOdvLwJ$VGV15vt',#6,$,$,(#115),#322);
#324=IFCPROPERTYSINGLEVALUE('InternalTaskId',$,IFCTEXT('task-mtx91fge4q481535'),$);
#325=IFCPROPERTYSET('pBVLfJRXT1wjwpxH8raBOB',#6,'OPS_TaskIdentity',$,(#324));
#326=IFCRELDEFINESBYPROPERTIES('KvyrVpMP9$7D4tanBDhVGH',#6,$,$,(#117),#325);
#327=IFCPROPERTYSINGLEVALUE('InternalTaskId',$,IFCTEXT('task-mtx91fgh3gag1536'),$);
#328=IFCPROPERTYSET('gzdhb5Hv4HBnfds15rSzT9',#6,'OPS_TaskIdentity',$,(#327));
#329=IFCRELDEFINESBYPROPERTIES('FdgzEZ9fwzMF5FpnjfA3tp',#6,$,$,(#119),#328);
#330=IFCPROPERTYSINGLEVALUE('InternalTaskId',$,IFCTEXT('task-mtx91fgj8uqz1537'),$);
#331=IFCPROPERTYSET('vhob41kt3zMFRXDH3nJ7lH',#6,'OPS_TaskIdentity',$,(#330));
#332=IFCRELDEFINESBYPROPERTIES('0F5VG7gPljq5XnznmVvDeh',#6,$,$,(#121),#331);
#333=IFCPROPERTYSINGLEVALUE('InternalTaskId',$,IFCTEXT('task-mtx91fglhc1a1538'),$);
#334=IFCPROPERTYSET('VXh16TGNoFNxBDVXiXztGF',#6,'OPS_TaskIdentity',$,(#333));
#335=IFCRELDEFINESBYPROPERTIES('OzX3YRUnQXQVI5mXCZijsZ',#6,$,$,(#123),#334);
#336=IFCPROPERTYSINGLEVALUE('InternalTaskId',$,IFCTEXT('task-mtx91fgo2bu81539'),$);
#337=IFCPROPERTYSET('J5PLfJJnSrb1a7AlyrDPTR',#6,'OPS_TaskIdentity',$,(#336));
#338=IFCRELDEFINESBYPROPERTIES('CfERyzS$MP$TxbKHKjk$65',#6,$,$,(#125),#337);
#339=IFCPROPERTYSINGLEVALUE('InternalTaskId',$,IFCTEXT('task-mtx91fgqihov1540'),$);
#340=IFCPROPERTYSET('e5iRCdh1oF7hQlxnIVlrOZ',#6,'OPS_TaskIdentity',$,(#339));
#341=IFCRELDEFINESBYPROPERTIES('Vz4ZO5Yfe7ptFplXFb7RDH',#6,$,$,(#127),#340);
#342=IFCPROPERTYSINGLEVALUE('InternalTaskId',$,IFCTEXT('task-mtx91fgs5wi81541'),$);
#343=IFCPROPERTYSET('QXbH371dHjKztfGXSNI5rd',#6,'OPS_TaskIdentity',$,(#342));
#344=IFCRELDEFINESBYPROPERTIES('j5npnnJVV7BnH3$X8Lm9Cn',#6,$,$,(#129),#343);
#345=IFCPROPERTYSINGLEVALUE('InternalTaskId',$,IFCTEXT('task-mtx91fgvms921542'),$);
#346=IFCPROPERTYSET('exqpj1ItJLnLIH1XiXxlxr',#6,'OPS_TaskIdentity',$,(#345));
#347=IFCRELDEFINESBYPROPERTIES('Xzq5sn5nGDE7Y9WXbx_BOz',#6,$,$,(#131),#346);
#348=IFCPROPERTYSINGLEVALUE('InternalTaskId',$,IFCTEXT('task-mtx91fgx342v1543'),$);
#349=IFCPROPERTYSET('V17BVpk9p5$TbLkFSbtByd',#6,'OPS_TaskIdentity',$,(#348));
#350=IFCRELDEFINESBYPROPERTIES('eZxnJZFPpv3vgBYX7bst8R',#6,$,$,(#133),#349);
#351=IFCPROPERTYSINGLEVALUE('InternalTaskId',$,IFCTEXT('task-mtx91fgzqfyc1544'),$);
#352=IFCPROPERTYSET('2JwDzvFv_TSrO7_np7uFzB',#6,'OPS_TaskIdentity',$,(#351));
#353=IFCRELDEFINESBYPROPERTIES('5n$rv7d9ZDWlHt0XvbMN6$',#6,$,$,(#135),#352);
#354=IFCPROPERTYSINGLEVALUE('InternalTaskId',$,IFCTEXT('task-mtx91fh133x01545'),$);
#355=IFCPROPERTYSET('or7TqxNN_ze9JppnDdKJIr',#6,'OPS_TaskIdentity',$,(#354));
#356=IFCRELDEFINESBYPROPERTIES('L7a3E1AdFFizvVv$1VNT$j',#6,$,$,(#137),#355);
#357=IFCPROPERTYSINGLEVALUE('InternalTaskId',$,IFCTEXT('task-mtx91fh2awqn1546'),$);
#358=IFCPROPERTYSET('LZJvbVB14FlJELEnARAt8x',#6,'OPS_TaskIdentity',$,(#357));
#359=IFCRELDEFINESBYPROPERTIES('E7klrTOvWRDtzxanBjdxN1',#6,$,$,(#139),#358);
#360=IFCPROPERTYSINGLEVALUE('InternalTaskId',$,IFCTEXT('task-mtx91fh49f661547'),$);
#361=IFCPROPERTYSET('uplbWVZH1Llr0Z$Xc7SBGX',#6,'OPS_TaskIdentity',$,(#360));
#362=IFCRELDEFINESBYPROPERTIES('nrvTirFPVR5$yzFV1$R1IP',#6,$,$,(#141),#361);
#363=IFCPROPERTYSINGLEVALUE('InternalTaskId',$,IFCTEXT('task-mtx91fh59p8l1548'),$);
#364=IFCPROPERTYSET('uDFxE33$ahlBGhQltzNTPP',#6,'OPS_TaskIdentity',$,(#363));
#365=IFCRELDEFINESBYPROPERTIES('FrdzklGNq7G$i1Tn_t2lz7',#6,$,$,(#143),#364);
#366=IFCPROPERTYSINGLEVALUE('MilestoneKind',$,IFCLABEL('START'),$);
#367=IFCPROPERTYSET('2H9pRRzHdpMFTrA$BjtBK$',#6,'OPS_Milestone',$,(#366));
#368=IFCRELDEFINESBYPROPERTIES('RxyZO5w7_Tiz$BQ1c3$5hN',#6,$,$,(#51),#367);
#369=IFCPROPERTYSINGLEVALUE('MilestoneKind',$,IFCLABEL('FINISH'),$);
#370=IFCPROPERTYSET('hPe16vc7SrDdibCHk3GNkB',#6,'OPS_Milestone',$,(#369));
#371=IFCRELDEFINESBYPROPERTIES('kRDP1PQX7zuf1V3HsbAt4P',#6,$,$,(#87),#370);
#372=IFCPROPERTYSINGLEVALUE('MilestoneKind',$,IFCLABEL('FINISH'),$);
#373=IFCPROPERTYSET('5r2Vq5PttLR$aDFVfj1jAT',#6,'OPS_Milestone',$,(#372));
#374=IFCRELDEFINESBYPROPERTIES('ivaLvBu7Elz7kxu12xLV4r',#6,$,$,(#99),#373);
#375=IFCPROPERTYSINGLEVALUE('MilestoneKind',$,IFCLABEL('FINISH'),$);
#376=IFCPROPERTYSINGLEVALUE('Mandatory',$,IFCBOOLEAN(.T.),$);
#377=IFCPROPERTYSET('vB2VKLpVddyhcT91VJwdf1',#6,'OPS_Milestone',$,(#375,#376));
#378=IFCRELDEFINESBYPROPERTIES('I9qDfjr1C3ov_pt$nxRFBv',#6,$,$,(#143),#377);
ENDSEC;
END-ISO-10303-21;
