ISO-10303-21;
HEADER;
FILE_DESCRIPTION(('ViewDefinition [SchedulingView]'),'2;1');
FILE_NAME('N279 Bridge Replacement.ifc','2026-09-11T17:47:45',('Henk Mulder'),('Infra Netherlands BV'),'Open Planner Studio 0.1','Open Planner Studio','');
FILE_SCHEMA(('IFC4X3'));
ENDSEC;
DATA;
#1=IFCPERSON($,'Henk Mulder',$,$,$,$,$,$);
#2=IFCORGANIZATION($,'Infra Netherlands BV',$,$,$);
#3=IFCPERSONANDORGANIZATION(#1,#2,$);
#4=IFCORGANIZATION($,'OpenAEC Foundation',$,$,$);
#5=IFCAPPLICATION(#4,'0.1','Open Planner Studio','OPS');
#6=IFCOWNERHISTORY(#3,#5,$,.NOCHANGE.,$,$,$,1789148865);
#7=IFCSIUNIT(*,.LENGTHUNIT.,$,.METRE.);
#8=IFCSIUNIT(*,.TIMEUNIT.,$,.SECOND.);
#9=IFCUNITASSIGNMENT((#7,#8));
#10=IFCCARTESIANPOINT((0.,0.,0.));
#11=IFCAXIS2PLACEMENT3D(#10,$,$);
#12=IFCGEOMETRICREPRESENTATIONCONTEXT($,'Plan',3,1.0E-05,#11,$);
#13=IFCPROJECT('ttEnZ5QvaB3Nh3lVbx_ryB',#6,'N279 Bridge Replacement','Replacement of the existing bridge with a new concrete bridge',$,$,$,(#12),#9);
#14=IFCTIMEPERIOD('07:00:00','16:00:00');
#15=IFCRECURRENCEPATTERN(.WEEKLY.,$,(1,2,3,4,5,6),$,$,$,$,(#14));
#16=IFCWORKTIME('Standard work week',.PREDICTED.,$,#15,$,$);
#17=IFCWORKTIME('New Year''s Day',.PREDICTED.,$,$,'2027-01-01','2027-01-01');
#18=IFCWORKTIME('Good Friday',.PREDICTED.,$,$,'2027-03-26','2027-03-26');
#19=IFCWORKTIME('Easter',.PREDICTED.,$,$,'2027-03-28','2027-03-29');
#20=IFCWORKTIME('King''s Day',.PREDICTED.,$,$,'2027-04-27','2027-04-27');
#21=IFCWORKTIME('Liberation Day',.PREDICTED.,$,$,'2027-05-05','2027-05-05');
#22=IFCWORKTIME('Ascension Day',.PREDICTED.,$,$,'2027-05-06','2027-05-06');
#23=IFCWORKTIME('Whitsun',.PREDICTED.,$,$,'2027-05-16','2027-05-17');
#24=IFCWORKTIME('Christmas',.PREDICTED.,$,$,'2027-12-25','2027-12-26');
#25=IFCWORKTIME('Construction holiday (northern region)',.PREDICTED.,$,$,'2027-07-26','2027-08-15');
#26=IFCWORKTIME('New Year''s Day',.PREDICTED.,$,$,'2028-01-01','2028-01-01');
#27=IFCWORKTIME('Good Friday',.PREDICTED.,$,$,'2028-04-14','2028-04-14');
#28=IFCWORKTIME('Easter',.PREDICTED.,$,$,'2028-04-16','2028-04-17');
#29=IFCWORKTIME('King''s Day',.PREDICTED.,$,$,'2028-04-27','2028-04-27');
#30=IFCWORKTIME('Liberation Day',.PREDICTED.,$,$,'2028-05-05','2028-05-05');
#31=IFCWORKTIME('Ascension Day',.PREDICTED.,$,$,'2028-05-25','2028-05-25');
#32=IFCWORKTIME('Whitsun',.PREDICTED.,$,$,'2028-06-04','2028-06-05');
#33=IFCWORKTIME('Christmas',.PREDICTED.,$,$,'2028-12-25','2028-12-26');
#34=IFCWORKTIME('Construction holiday (northern region)',.PREDICTED.,$,$,'2028-07-24','2028-08-13');
#35=IFCWORKCALENDAR('_HlbW$VPl1Yxnv_nBDbFBd',#6,'Infrastructure calendar Mon-Sat','Infrastructure/hydraulic works: Mon-Sat',$,(#16),(#17,#18,#19,#20,#21,#22,#23,#24,#25,#26,#27,#28,#29,#30,#31,#32,#33,#34),.FIRSTSHIFT.);
#36=IFCPROPERTYSINGLEVALUE('HoursPerDay',$,IFCREAL(8),$);
#37=IFCPROPERTYSET('qL5XmPUFgdlJ6X9$WtAtOZ',#6,'OPS_Calendar',$,(#36));
#38=IFCRELDEFINESBYPROPERTIES('bXh12hy$qvOdOP_VbbYntl',#6,$,$,(#35),#37);
#39=IFCWORKPLAN('XXDdzdZlbB$5rjDHRbYFNX',#6,'N279 Bridge Replacement','Replacement of the existing bridge with a new concrete bridge',$,$,'2026-09-11T17:47:45',$,$,$,$,$,'2027-03-01T07:00:00','2027-03-19T07:00:00',.PLANNED.);
#40=IFCWORKSCHEDULE('4lJdDlWtFlmXg9qls1FZ9F',#6,'Construction schedule v1.0',$,$,$,'2026-09-11T17:47:45',$,$,$,$,$,'2027-03-01T07:00:00','2027-03-19T07:00:00',.PLANNED.);
#41=IFCRELAGGREGATES('X$Ph9TPtbVDd8te$ftI1sz',#6,$,$,#39,(#40));
#42=IFCTASKTIME('1. Preparation & diversions Time',.PREDICTED.,$,.WORKTIME.,'P0Y0M5D','2027-03-01T07:00:00','2027-03-05T07:00:00','2027-03-01T07:00:00','2027-03-25T07:00:00','2027-03-01T07:00:00','2027-09-18T07:00:00','P0Y0M0D','P0Y0M0D',.T.,$,$,$,$,$,0.00);
#43=IFCTASK('azCDdbEH3HO9dHTHODZfYJ',#6,'1. Preparation & diversions',$,$,'1',$,$,$,.F.,$,#42,.LOGISTIC.);
#44=IFCTASKTIME('Implement traffic management Time',.PREDICTED.,$,.WORKTIME.,'P0Y0M5D','2027-03-01T07:00:00','2027-03-05T07:00:00','2027-03-01T07:00:00','2027-03-05T07:00:00','2027-03-01T07:00:00','2027-03-05T07:00:00','P0Y0M0D','P0Y0M0D',.T.,$,$,$,$,$,0.00);
#45=IFCTASK('xHb$gXJFKt6jkHd1FxLVi1',#6,'Implement traffic management',$,$,'1.1',$,$,$,.F.,$,#44,.LOGISTIC.);
#46=IFCTASKTIME('Temporary diversion route Time',.PREDICTED.,$,.WORKTIME.,'P0Y0M8D','2027-03-01T07:00:00','2027-03-10T07:00:00','2027-03-06T07:00:00','2027-03-15T07:00:00','2027-08-31T07:00:00','2027-09-08T07:00:00','P0Y0M0D','P0Y0M128D',.F.,$,$,$,$,$,0.00);
#47=IFCTASK('7Hz9_PJFaBZtX5O19d0vNT',#6,'Temporary diversion route',$,$,'1.2',$,$,$,.F.,$,#46,.LOGISTIC.);
#48=IFCTASKTIME('Set up site Time',.PREDICTED.,$,.WORKTIME.,'P0Y0M5D','2027-03-01T07:00:00','2027-03-05T07:00:00','2027-03-16T07:00:00','2027-03-20T07:00:00','2027-09-09T07:00:00','2027-09-14T07:00:00','P0Y0M0D','P0Y0M128D',.F.,$,$,$,$,$,0.00);
#49=IFCTASK('rpd3wZGf4HbVE1P$0vWPDJ',#6,'Set up site',$,$,'1.3',$,$,$,.F.,$,#48,.LOGISTIC.);
#50=IFCTASKTIME('Impose shipping restrictions Time',.PREDICTED.,$,.WORKTIME.,'P0Y0M3D','2027-03-01T07:00:00','2027-03-03T07:00:00','2027-03-22T07:00:00','2027-03-24T07:00:00','2027-09-15T07:00:00','2027-09-17T07:00:00','P0Y0M0D','P0Y0M128D',.F.,$,$,$,$,$,0.00);
#51=IFCTASK('9j5VqvnvU7mVMfGXSbVpOB',#6,'Impose shipping restrictions',$,$,'1.4',$,$,$,.F.,$,#50,.LOGISTIC.);
#52=IFCTASKTIME('Start of works Time',.PREDICTED.,$,.WORKTIME.,'P0Y0M0D','2027-03-01T07:00:00','2027-03-01T07:00:00','2027-03-25T07:00:00','2027-03-25T07:00:00','2027-09-18T07:00:00','2027-09-18T07:00:00','P0Y0M128D','P0Y0M128D',.F.,$,$,$,$,$,0.00);
#53=IFCTASK('jR39gRL$6FqxZtKFQ3PjIr',#6,'Start of works',$,$,'1.5',$,$,$,.T.,$,#52,.LOGISTIC.);
#54=IFCTASKTIME('2. Demolition of old bridge Time',.PREDICTED.,$,.WORKTIME.,'P0Y0M5D','2027-03-01T07:00:00','2027-03-05T07:00:00','2027-03-13T07:00:00','2027-04-28T07:00:00','2027-03-13T07:00:00','2027-09-18T07:00:00','P0Y0M0D','P0Y0M0D',.T.,$,$,$,$,$,0.00);
#55=IFCTASK('U3q5E1gdLJ6JsPUV1VHr8p',#6,'2. Demolition of old bridge',$,$,'2',$,$,$,.F.,$,#54,.DEMOLITION.);
#56=IFCTASKTIME('Divert services Time',.PREDICTED.,$,.WORKTIME.,'P0Y0M8D','2027-03-01T07:00:00','2027-03-10T07:00:00','2027-03-13T07:00:00','2027-03-22T07:00:00','2027-03-13T07:00:00','2027-03-22T07:00:00','P0Y0M0D','P0Y0M0D',.T.,$,$,$,$,$,0.00);
#57=IFCTASK('V1npr3ylb1HBa7YnphPJox',#6,'Divert services',$,$,'2.1',$,$,$,.F.,$,#56,.INSTALLATION.);
#58=IFCTASKTIME('Remove asphalt Time',.PREDICTED.,$,.WORKTIME.,'P0Y0M3D','2027-03-01T07:00:00','2027-03-03T07:00:00','2027-03-23T07:00:00','2027-03-25T07:00:00','2027-08-17T07:00:00','2027-08-19T07:00:00','P0Y0M0D','P0Y0M102D',.F.,$,$,$,$,$,0.00);
#59=IFCTASK('2p2XC5VdRXpd4NGXsRoXuj',#6,'Remove asphalt',$,$,'2.2',$,$,$,.F.,$,#58,.DEMOLITION.);
#60=IFCTASKTIME('Remove bridge railings Time',.PREDICTED.,$,.WORKTIME.,'P0Y0M3D','2027-03-01T07:00:00','2027-03-03T07:00:00','2027-03-27T07:00:00','2027-03-31T07:00:00','2027-08-20T07:00:00','2027-08-23T07:00:00','P0Y0M0D','P0Y0M102D',.F.,$,$,$,$,$,0.00);
#61=IFCTASK('VTunLNeviDOdWjN$QdGf_T',#6,'Remove bridge railings',$,$,'2.3',$,$,$,.F.,$,#60,.DEMOLITION.);
#62=IFCTASKTIME('Demolish bridge deck Time',.PREDICTED.,$,.WORKTIME.,'P0Y0M10D','2027-03-01T07:00:00','2027-03-12T07:00:00','2027-04-01T07:00:00','2027-04-12T07:00:00','2027-08-24T07:00:00','2027-09-03T07:00:00','P0Y0M0D','P0Y0M102D',.F.,$,$,$,$,$,0.00);
#63=IFCTASK('I5npR5l7iJ4pWppFb5MZnx',#6,'Demolish bridge deck',$,$,'2.4',$,$,$,.F.,$,#62,.DEMOLITION.);
#64=IFCTASKTIME('Demolish abutments Time',.PREDICTED.,$,.WORKTIME.,'P0Y0M8D','2027-03-01T07:00:00','2027-03-10T07:00:00','2027-04-13T07:00:00','2027-04-21T07:00:00','2027-09-04T07:00:00','2027-09-13T07:00:00','P0Y0M0D','P0Y0M102D',.F.,$,$,$,$,$,0.00);
#65=IFCTASK('EdM3c9KnQJ4LI5O1v17Rxr',#6,'Demolish abutments',$,$,'2.5',$,$,$,.F.,$,#64,.DEMOLITION.);
#66=IFCTASKTIME('Remove rubble Time',.PREDICTED.,$,.WORKTIME.,'P0Y0M5D','2027-03-01T07:00:00','2027-03-05T07:00:00','2027-04-22T07:00:00','2027-04-28T07:00:00','2027-09-14T07:00:00','2027-09-18T07:00:00','P0Y0M102D','P0Y0M102D',.F.,$,$,$,$,$,0.00);
#67=IFCTASK('NZTNyZW93zo7gNO1lrzN2T',#6,'Remove rubble',$,$,'2.6',$,$,$,.F.,$,#66,.LOGISTIC.);
#68=IFCTASKTIME('3. New foundations Time',.PREDICTED.,$,.WORKTIME.,'P0Y0M5D','2027-03-01T07:00:00','2027-03-05T07:00:00','2027-03-17T07:00:00','2027-05-07T07:00:00','2027-03-17T07:00:00','2027-05-07T07:00:00','P0Y0M0D','P0Y0M0D',.T.,$,$,$,$,$,0.00);
#69=IFCTASK('tNYhX9aHlJypql5F_RP51J',#6,'3. New foundations',$,$,'3',$,$,$,.F.,$,#68,.CONSTRUCTION.);
#70=IFCTASKTIME('Drive sheet piling Time',.PREDICTED.,$,.WORKTIME.,'P0Y0M10D','2027-03-01T07:00:00','2027-03-12T07:00:00','2027-03-17T07:00:00','2027-03-30T07:00:00','2027-03-17T07:00:00','2027-03-30T07:00:00','P0Y0M0D','P0Y0M0D',.T.,$,$,$,$,$,0.00);
#71=IFCTASK('qBNJvPh1sB3Nfb8$oHl3hj',#6,'Drive sheet piling',$,$,'3.1',$,$,$,.F.,$,#70,.CONSTRUCTION.);
#72=IFCTASKTIME('Underwater concrete Time',.PREDICTED.,$,.WORKTIME.,'P0Y0M8D','2027-03-01T07:00:00','2027-03-10T07:00:00','2027-03-31T07:00:00','2027-04-08T07:00:00','2027-03-31T07:00:00','2027-04-08T07:00:00','P0Y0M0D','P0Y0M0D',.T.,$,$,$,$,$,0.00);
#73=IFCTASK('znjPBZmNUv8NDlxn6NobFX',#6,'Underwater concrete',$,$,'3.2',$,$,$,.F.,$,#72,.CONSTRUCTION.);
#74=IFCTASKTIME('Dewater excavation pit Time',.PREDICTED.,$,.WORKTIME.,'P0Y0M5D','2027-03-01T07:00:00','2027-03-05T07:00:00','2027-04-09T07:00:00','2027-04-14T07:00:00','2027-04-09T07:00:00','2027-04-14T07:00:00','P0Y0M0D','P0Y0M0D',.T.,$,$,$,$,$,0.00);
#75=IFCTASK('NPuVCPRXB387Qn1XcZb12Z',#6,'Dewater excavation pit',$,$,'3.3',$,$,$,.F.,$,#74,.CONSTRUCTION.);
#76=IFCTASKTIME('Bore pile foundation Time',.PREDICTED.,$,.WORKTIME.,'P0Y0M12D','2027-03-01T07:00:00','2027-03-16T07:00:00','2027-04-15T07:00:00','2027-04-29T07:00:00','2027-04-15T07:00:00','2027-04-29T07:00:00','P0Y0M0D','P0Y0M0D',.T.,$,$,$,$,$,0.00);
#77=IFCTASK('2FJPLJkHpx1ZRrYVzjA9SN',#6,'Bore pile foundation',$,$,'3.4',$,$,$,.F.,$,#76,.CONSTRUCTION.);
#78=IFCTASKTIME('Ground improvement Time',.PREDICTED.,$,.WORKTIME.,'P0Y0M5D','2027-03-01T07:00:00','2027-03-05T07:00:00','2027-04-30T07:00:00','2027-05-07T07:00:00','2027-04-30T07:00:00','2027-05-07T07:00:00','P0Y0M0D','P0Y0M0D',.T.,$,$,$,$,$,0.00);
#79=IFCTASK('JNWfC51dHjC5P3bFCFPjwR',#6,'Ground improvement',$,$,'3.5',$,$,$,.F.,$,#78,.CONSTRUCTION.);
#80=IFCTASKTIME('4. Concrete structure Time',.PREDICTED.,$,.WORKTIME.,'P0Y0M5D','2027-03-01T07:00:00','2027-03-05T07:00:00','2027-04-26T07:00:00','2027-07-17T07:00:00','2027-04-26T07:00:00','2027-07-17T07:00:00','P0Y0M0D','P0Y0M0D',.T.,$,$,$,$,$,0.00);
#81=IFCTASK('WVZN0l$7cXMFhNKFonpd$j',#6,'4. Concrete structure',$,$,'4',$,$,$,.F.,$,#80,.CONSTRUCTION.);
#82=IFCTASKTIME('West abutment: rebar and pour Time',.PREDICTED.,$,.WORKTIME.,'P0Y0M15D','2027-03-01T07:00:00','2027-03-19T07:00:00','2027-04-26T07:00:00','2027-05-15T07:00:00','2027-04-26T07:00:00','2027-05-15T07:00:00','P0Y0M0D','P0Y0M0D',.T.,$,$,$,$,$,0.00);
#83=IFCTASK('wlTN0FpXhj2RZrw$eDZN2T',#6,'West abutment: rebar and pour',$,$,'4.1',$,$,$,.F.,$,#82,.CONSTRUCTION.);
#84=IFCTASKTIME('East abutment: rebar and pour Time',.PREDICTED.,$,.WORKTIME.,'P0Y0M15D','2027-03-01T07:00:00','2027-03-19T07:00:00','2027-05-03T07:00:00','2027-05-22T07:00:00','2027-05-03T07:00:00','2027-05-22T07:00:00','P0Y0M0D','P0Y0M0D',.T.,$,$,$,$,$,0.00);
#85=IFCTASK('CfULHXB10LR$uN4HDB3fId',#6,'East abutment: rebar and pour',$,$,'4.2',$,$,$,.F.,$,#84,.CONSTRUCTION.);
#86=IFCTASKTIME('Pour central pier Time',.PREDICTED.,$,.WORKTIME.,'P0Y0M10D','2027-03-01T07:00:00','2027-03-12T07:00:00','2027-05-24T07:00:00','2027-06-03T07:00:00','2027-05-24T07:00:00','2027-06-03T07:00:00','P0Y0M0D','P0Y0M0D',.T.,$,$,$,$,$,0.00);
#87=IFCTASK('CLTNSJcV1NBn$B2XR5_r4L',#6,'Pour central pier',$,$,'4.3',$,$,$,.F.,$,#86,.CONSTRUCTION.);
#88=IFCTASKTIME('Place precast beams Time',.PREDICTED.,$,.WORKTIME.,'P0Y0M8D','2027-03-01T07:00:00','2027-03-10T07:00:00','2027-06-04T07:00:00','2027-06-12T07:00:00','2027-06-04T07:00:00','2027-06-12T07:00:00','P0Y0M0D','P0Y0M0D',.T.,$,$,$,$,$,0.00);
#89=IFCTASK('f3HJzrOdr92RR$91Jtcv9D',#6,'Place precast beams',$,$,'4.4',$,$,$,.F.,$,#88,.CONSTRUCTION.);
#90=IFCTASKTIME('Bridge deck reinforcement Time',.PREDICTED.,$,.WORKTIME.,'P0Y0M10D','2027-03-01T07:00:00','2027-03-12T07:00:00','2027-06-14T07:00:00','2027-06-24T07:00:00','2027-06-14T07:00:00','2027-06-24T07:00:00','P0Y0M0D','P0Y0M0D',.T.,$,$,$,$,$,0.00);
#91=IFCTASK('6F1rhtKXbrPjMNmXS96Ptn',#6,'Bridge deck reinforcement',$,$,'4.5',$,$,$,.F.,$,#90,.CONSTRUCTION.);
#92=IFCTASKTIME('Pour bridge deck Time',.PREDICTED.,$,.WORKTIME.,'P0Y0M5D','2027-03-01T07:00:00','2027-03-05T07:00:00','2027-06-25T07:00:00','2027-06-30T07:00:00','2027-06-25T07:00:00','2027-06-30T07:00:00','P0Y0M0D','P0Y0M0D',.T.,$,$,$,$,$,0.00);
#93=IFCTASK('lNe$M$FvUPizb1XVebs9OT',#6,'Pour bridge deck',$,$,'4.6',$,$,$,.F.,$,#92,.CONSTRUCTION.);
#94=IFCTASKTIME('Concrete curing Time',.PREDICTED.,$,.WORKTIME.,'P0Y0M15D','2027-03-01T07:00:00','2027-03-19T07:00:00','2027-07-01T07:00:00','2027-07-17T07:00:00','2027-07-01T07:00:00','2027-07-17T07:00:00','P0Y0M0D','P0Y0M0D',.T.,$,$,$,$,$,0.00);
#95=IFCTASK('dX5nzhingPN57J71$VVbBZ',#6,'Concrete curing',$,$,'4.7',$,$,$,.F.,$,#94,.CONSTRUCTION.);
#96=IFCTASKTIME('5. Finishing Time',.PREDICTED.,$,.WORKTIME.,'P0Y0M5D','2027-03-01T07:00:00','2027-03-05T07:00:00','2027-07-19T07:00:00','2027-09-04T07:00:00','2027-07-19T07:00:00','2027-09-04T07:00:00','P0Y0M0D','P0Y0M0D',.T.,$,$,$,$,$,0.00);
#97=IFCTASK('fz1Z43CV$N5VczRFaf6JkL',#6,'5. Finishing',$,$,'5',$,$,$,.F.,$,#96,.CONSTRUCTION.);
#98=IFCTASKTIME('Install bridge railings Time',.PREDICTED.,$,.WORKTIME.,'P0Y0M5D','2027-03-01T07:00:00','2027-03-05T07:00:00','2027-07-19T07:00:00','2027-07-23T07:00:00','2027-07-19T07:00:00','2027-07-23T07:00:00','P0Y0M0D','P0Y0M0D',.T.,$,$,$,$,$,0.00);
#99=IFCTASK('_nJdj1wvE57h613nqFfTPd',#6,'Install bridge railings',$,$,'5.1',$,$,$,.F.,$,#98,.INSTALLATION.);
#100=IFCTASKTIME('Bridge deck waterproofing Time',.PREDICTED.,$,.WORKTIME.,'P0Y0M5D','2027-03-01T07:00:00','2027-03-05T07:00:00','2027-07-24T07:00:00','2027-08-19T07:00:00','2027-07-24T07:00:00','2027-08-19T07:00:00','P0Y0M0D','P0Y0M0D',.T.,$,$,$,$,$,0.00);
#101=IFCTASK('4HTfajs$q7ePavclDLvpqF',#6,'Bridge deck waterproofing',$,$,'5.2',$,$,$,.F.,$,#100,.INSTALLATION.);
#102=IFCTASKTIME('Asphalt bridge deck Time',.PREDICTED.,$,.WORKTIME.,'P0Y0M3D','2027-03-01T07:00:00','2027-03-03T07:00:00','2027-08-20T07:00:00','2027-08-23T07:00:00','2027-08-20T07:00:00','2027-08-23T07:00:00','P0Y0M0D','P0Y0M0D',.T.,$,$,$,$,$,0.00);
#103=IFCTASK('HbpPRx9NOletnJZHuTZ9OZ',#6,'Asphalt bridge deck',$,$,'5.3',$,$,$,.F.,$,#102,.CONSTRUCTION.);
#104=IFCTASKTIME('Asphalt tie-ins Time',.PREDICTED.,$,.WORKTIME.,'P0Y0M5D','2027-03-01T07:00:00','2027-03-05T07:00:00','2027-08-24T07:00:00','2027-08-28T07:00:00','2027-08-24T07:00:00','2027-08-28T07:00:00','P0Y0M0D','P0Y0M0D',.T.,$,$,$,$,$,0.00);
#105=IFCTASK('A9w9_dbVZXw1GRe1dlBF5F',#6,'Asphalt tie-ins',$,$,'5.4',$,$,$,.F.,$,#104,.CONSTRUCTION.);
#106=IFCTASKTIME('Lighting Time',.PREDICTED.,$,.WORKTIME.,'P0Y0M3D','2027-03-01T07:00:00','2027-03-03T07:00:00','2027-08-30T07:00:00','2027-09-01T07:00:00','2027-08-30T07:00:00','2027-09-01T07:00:00','P0Y0M0D','P0Y0M0D',.T.,$,$,$,$,$,0.00);
#107=IFCTASK('0nb$IFy$eHGVclDH9d0vZ9',#6,'Lighting',$,$,'5.5',$,$,$,.F.,$,#106,.INSTALLATION.);
#108=IFCTASKTIME('Crash barrier Time',.PREDICTED.,$,.WORKTIME.,'P0Y0M3D','2027-03-01T07:00:00','2027-03-03T07:00:00','2027-09-02T07:00:00','2027-09-04T07:00:00','2027-09-02T07:00:00','2027-09-04T07:00:00','P0Y0M0D','P0Y0M0D',.T.,$,$,$,$,$,0.00);
#109=IFCTASK('d1V3kDVdXdtRjJf$onpddv',#6,'Crash barrier',$,$,'5.6',$,$,$,.F.,$,#108,.INSTALLATION.);
#110=IFCTASKTIME('6. Handover Time',.PREDICTED.,$,.WORKTIME.,'P0Y0M5D','2027-03-01T07:00:00','2027-03-05T07:00:00','2027-09-06T07:00:00','2027-09-18T07:00:00','2027-09-06T07:00:00','2027-09-18T07:00:00','P0Y0M0D','P0Y0M0D',.T.,$,$,$,$,$,0.00);
#111=IFCTASK('pLLlZNv93FaJkx0Vn9EViX',#6,'6. Handover',$,$,'6',$,$,$,.F.,$,#110,.CONSTRUCTION.);
#112=IFCTASKTIME('Load test Time',.PREDICTED.,$,.WORKTIME.,'P0Y0M3D','2027-03-01T07:00:00','2027-03-03T07:00:00','2027-09-06T07:00:00','2027-09-08T07:00:00','2027-09-06T07:00:00','2027-09-08T07:00:00','P0Y0M0D','P0Y0M0D',.T.,$,$,$,$,$,0.00);
#113=IFCTASK('1JIxUtbFYJory9KluLGN2V',#6,'Load test',$,$,'6.1',$,$,$,.F.,$,#112,.ATTENDANCE.);
#114=IFCTASKTIME('Remove diversions Time',.PREDICTED.,$,.WORKTIME.,'P0Y0M3D','2027-03-01T07:00:00','2027-03-03T07:00:00','2027-09-09T07:00:00','2027-09-11T07:00:00','2027-09-09T07:00:00','2027-09-11T07:00:00','P0Y0M0D','P0Y0M0D',.T.,$,$,$,$,$,0.00);
#115=IFCTASK('zp_ViNv9D737MtqFqZK57t',#6,'Remove diversions',$,$,'6.2',$,$,$,.F.,$,#114,.LOGISTIC.);
#116=IFCTASKTIME('Clear site Time',.PREDICTED.,$,.WORKTIME.,'P0Y0M5D','2027-03-01T07:00:00','2027-03-05T07:00:00','2027-09-13T07:00:00','2027-09-17T07:00:00','2027-09-13T07:00:00','2027-09-17T07:00:00','P0Y0M0D','P0Y0M0D',.T.,$,$,$,$,$,0.00);
#117=IFCTASK('NzPhRRJFqZ_R5n5Hqz8$A3',#6,'Clear site',$,$,'6.3',$,$,$,.F.,$,#116,.LOGISTIC.);
#118=IFCTASKTIME('Bridge open to traffic Time',.PREDICTED.,$,.WORKTIME.,'P0Y0M0D','2027-03-01T07:00:00','2027-03-01T07:00:00','2027-09-18T07:00:00','2027-09-18T07:00:00','2027-09-18T07:00:00','2027-09-18T07:00:00','P0Y0M0D','P0Y0M0D',.T.,$,$,$,$,$,0.00);
#119=IFCTASK('c5KbqPpncVUfxbyFpr5VO3',#6,'Bridge open to traffic',$,$,'6.4',$,$,$,.T.,$,#118,.CONSTRUCTION.);
#120=IFCRELNESTS('LP8XGPklPpUNx58$6pRnV3',#6,'WBS 1. Preparation & diversions',$,#43,( #45,#47,#49,#51,#53));
#121=IFCRELNESTS('fPuVaj_nWRTPKxO1lLPJMt',#6,'WBS 2. Demolition of old bridge',$,#55,( #57,#59,#61,#63,#65,#67));
#122=IFCRELNESTS('md2rHRzHLd4D8fSlDvWPLN',#6,'WBS 3. New foundations',$,#69,( #71,#73,#75,#77,#79));
#123=IFCRELNESTS('d54Z0lndjNDdSvInKVZfYj',#6,'WBS 4. Concrete structure',$,#81,( #83,#85,#87,#89,#91,#93,#95));
#124=IFCRELNESTS('Y$lJtXklnl87sds$hzFhA3',#6,'WBS 5. Finishing',$,#97,( #99,#101,#103,#105,#107,#109));
#125=IFCRELNESTS('6nlbyZOd3Twjs7Un$X157N',#6,'WBS 6. Handover',$,#111,( #113,#115,#117,#119));
#126=IFCRELNESTS('tjjP5r1vgdnD4TBHzDgTrv',#6,'WBS Hoofd',$,#40,(#43,#55,#69,#81,#97,#111));
#127=IFCRELSEQUENCE('QxqxQJUncDm189mXQTpdxH',#6,$,$,#45,#47,$,.FINISH_START.,$);
#128=IFCRELSEQUENCE('U1X3IjpFYpQVwjHXLTxXSb',#6,$,$,#47,#49,$,.FINISH_START.,$);
#129=IFCRELSEQUENCE('7BIHR5XP$9FLw1BHhvSzr3',#6,$,$,#49,#51,$,.FINISH_START.,$);
#130=IFCRELSEQUENCE('W$PhDHuP9$vD8H91KDob$9',#6,$,$,#51,#53,$,.FINISH_START.,$);
#131=IFCRELSEQUENCE('Lde$YRwVXbx$O$v1k3un1p',#6,$,$,#57,#59,$,.FINISH_START.,$);
#132=IFCRELSEQUENCE('8LkxAnrHdj6jYZTnAXxHDl',#6,$,$,#59,#61,$,.FINISH_START.,$);
#133=IFCRELSEQUENCE('xlpvPfFPv9sTBDFVdrSBq3',#6,$,$,#61,#63,$,.FINISH_START.,$);
#134=IFCRELSEQUENCE('2pklnl9fc1sTthAlyr5XG$',#6,$,$,#63,#65,$,.FINISH_START.,$);
#135=IFCRELSEQUENCE('uj5XW$P9HXQXgtClonxHpl',#6,$,$,#65,#67,$,.FINISH_START.,$);
#136=IFCRELSEQUENCE('dXDPnFLlj9Pj_D7$I3WdN1',#6,$,$,#71,#73,$,.FINISH_START.,$);
#137=IFCRELSEQUENCE('HxnpXNO7KJqxNxqHc7SzlF',#6,$,$,#73,#75,$,.FINISH_START.,$);
#138=IFCRELSEQUENCE('V1XzwzSHbhzNrJhFHBJ7Nz',#6,$,$,#75,#77,$,.FINISH_START.,$);
#139=IFCRELSEQUENCE('l9yT4Xs1WRD9DTf1L74TBP',#6,$,$,#77,#79,$,.FINISH_START.,$);
#140=IFCLAGTIME('Lag',.PREDICTED.,$,IFCDURATION('P5D'),.WORKTIME.);
#141=IFCRELSEQUENCE('bb8VyVkl5FV3DZXXWN2Bql',#6,$,$,#83,#85,#140,.START_START.,$);
#142=IFCRELSEQUENCE('ynnxsHtNcJib$Bw$GXnhIB',#6,$,$,#85,#87,$,.FINISH_START.,$);
#143=IFCRELSEQUENCE('tp9D3PL$6Z6jclZHSNI5Tx',#6,$,$,#87,#89,$,.FINISH_START.,$);
#144=IFCRELSEQUENCE('jtyrtVoHZXkPWDDF719B4h',#6,$,$,#89,#91,$,.FINISH_START.,$);
#145=IFCRELSEQUENCE('INGPLpgP1BT91L6H7VB1A3',#6,$,$,#91,#93,$,.FINISH_START.,$);
#146=IFCRELSEQUENCE('EBd3cpEthJcpSPIVwjd5h9',#6,$,$,#93,#95,$,.FINISH_START.,$);
#147=IFCRELSEQUENCE('HN09knKXJtdjAR0V$15V47',#6,$,$,#99,#101,$,.FINISH_START.,$);
#148=IFCRELSEQUENCE('xFNJNFCXNxX3fP61CZyLQL',#6,$,$,#101,#103,$,.FINISH_START.,$);
#149=IFCRELSEQUENCE('KPunT5QveFyh2pP$KXDPxn',#6,$,$,#103,#105,$,.FINISH_START.,$);
#150=IFCRELSEQUENCE('2ldzkniF63MFdlhnRxcDaN',#6,$,$,#105,#107,$,.FINISH_START.,$);
#151=IFCRELSEQUENCE('TVh16ZW9jLlByznXbXbFJ3',#6,$,$,#107,#109,$,.FINISH_START.,$);
#152=IFCRELSEQUENCE('fzdh5LDXBz0nrdUXv5ER9p',#6,$,$,#113,#115,$,.FINISH_START.,$);
#153=IFCRELSEQUENCE('N3$ZCx$d$LNZ9rc1k3079D',#6,$,$,#115,#117,$,.FINISH_START.,$);
#154=IFCRELSEQUENCE('ZZe1kjJnuXE7U3d$vXjvhJ',#6,$,$,#117,#119,$,.FINISH_START.,$);
#155=IFCLAGTIME('Lag',.PREDICTED.,$,IFCDURATION('P11D'),.WORKTIME.);
#156=IFCRELSEQUENCE('JRTN4ZW9$Nb$aDf$ZzWPFR',#6,$,$,#45,#57,#155,.START_START.,$);
#157=IFCLAGTIME('Lag',.PREDICTED.,$,IFCRATIOMEASURE(0.4),.WORKTIME.);
#158=IFCRELSEQUENCE('IxtxMVpFMvZPaJrFbXr1_1',#6,$,$,#57,#71,#157,.START_START.,$);
#159=IFCLAGTIME('Lag',.PREDICTED.,$,IFCDURATION('-P8D'),.WORKTIME.);
#160=IFCRELSEQUENCE('ynHbKrNf0r151X5FYdyLs7',#6,$,$,#79,#83,#159,.FINISH_START.,$);
#161=IFCLAGTIME('Lag',.PREDICTED.,$,IFCDURATION('P2D'),.WORKTIME.);
#162=IFCRELSEQUENCE('OTTf8p9NmpkdGLEFUvmf_3',#6,$,$,#79,#95,#161,.FINISH_FINISH.,$);
#163=IFCRELSEQUENCE('eZZN4XYn2fovoLknWf6jIr',#6,$,$,#95,#99,$,.FINISH_START.,$);
#164=IFCRELSEQUENCE('stEFJZXvenarGbe$aNk5N1',#6,$,$,#109,#113,$,.FINISH_START.,$);
#165=IFCCONSTRUCTIONEQUIPMENTRESOURCE('FPQjzB09rZaJ6XXVgLOHvR',#6,'Crawler crane 250 t','One crawler crane on site — deck demolition and beam placement share it',$,$,$,$,.USERDEFINED.);
#166=IFCCONSTRUCTIONEQUIPMENTRESOURCE('ZZ0tEXYnsrTt5Ht$i1NhYn',#6,'Piling rig',$,$,$,$,$,.USERDEFINED.);
#167=IFCSUBCONTRACTRESOURCE('wLk5Ez31yx$ZndA$XDMTlB',#6,'Traffic management contractor',$,$,$,$,$,.USERDEFINED.);
#168=IFCSUBCONTRACTRESOURCE('1l1BjZfNGJ6jAbWXXJYFht',#6,'Demolition contractor',$,$,$,$,$,.USERDEFINED.);
#169=IFCSUBCONTRACTRESOURCE('2jEbmPQVxnPryzt$S5DdJz',#6,'Asphalt contractor','Paving gang working inside the agreed road-closure window',$,$,$,$,.USERDEFINED.);
#170=IFCLABORRESOURCE('d$vrHRxVFnSJEXbn07uF3L',#6,'Concrete crew','Two gangs of four; both abutments run in parallel with a five-day stagger',$,$,$,$,.USERDEFINED.);
#171=IFCLABORRESOURCE('qtonnhbn2N6$mB6$4hXbb5',#6,'Steel fixers','Two rebar gangs of four — same parallel abutments',$,$,$,$,.USERDEFINED.);
#172=IFCCONSTRUCTIONMATERIALRESOURCE('NzdLl$fN6n4DmhYF9zfTht',#6,'Concrete C35/45',$,$,$,$,$,.USERDEFINED.);
#173=IFCPROPERTYSINGLEVALUE('CostPerHour',$,IFCMONETARYMEASURE(185),$);
#174=IFCPROPERTYSINGLEVALUE('Color',$,IFCTEXT('#1E293B'),$);
#175=IFCPROPERTYSET('TzibyVs$4nV3nplXnb1Jcl',#6,'OPS_Resource',$,(#173,#174));
#176=IFCRELDEFINESBYPROPERTIES('stMPXf09pdPBulHX9v4Lw$',#6,$,$,(#165),#175);
#177=IFCPROPERTYSINGLEVALUE('CostPerHour',$,IFCMONETARYMEASURE(150),$);
#178=IFCPROPERTYSINGLEVALUE('Color',$,IFCTEXT('#B91C1C'),$);
#179=IFCPROPERTYSET('9JTfuLSHD7LlvJv1bXbnRX',#6,'OPS_Resource',$,(#177,#178));
#180=IFCRELDEFINESBYPROPERTIES('YXBXujpF2TyhczTlSx5Hj$',#6,$,$,(#166),#179);
#181=IFCPROPERTYSINGLEVALUE('MaxUnits',$,IFCREAL(3),$);
#182=IFCPROPERTYSINGLEVALUE('CostPerHour',$,IFCMONETARYMEASURE(55),$);
#183=IFCPROPERTYSINGLEVALUE('Color',$,IFCTEXT('#DB2777'),$);
#184=IFCPROPERTYSET('cXL1QfOvi9sTh3FX$1BFtH',#6,'OPS_Resource',$,(#181,#182,#183));
#185=IFCRELDEFINESBYPROPERTIES('$pkHLDw7gRrF7VlVVjUnf1',#6,$,$,(#167),#184);
#186=IFCPROPERTYSINGLEVALUE('MaxUnits',$,IFCREAL(4),$);
#187=IFCPROPERTYSINGLEVALUE('CostPerHour',$,IFCMONETARYMEASURE(62),$);
#188=IFCPROPERTYSINGLEVALUE('Color',$,IFCTEXT('#C2410C'),$);
#189=IFCPROPERTYSET('J5vBPNtNM5FDWDTFYdCDCn',#6,'OPS_Resource',$,(#186,#187,#188));
#190=IFCRELDEFINESBYPROPERTIES('wFHRW$dtR115DF9$zlnT7N',#6,$,$,(#168),#189);
#191=IFCPROPERTYSINGLEVALUE('MaxUnits',$,IFCREAL(6),$);
#192=IFCPROPERTYSINGLEVALUE('CostPerHour',$,IFCMONETARYMEASURE(70),$);
#193=IFCPROPERTYSINGLEVALUE('Color',$,IFCTEXT('#6366F1'),$);
#194=IFCPROPERTYSET('gZblvrW9l1orWjVX6Dxlj$',#6,'OPS_Resource',$,(#191,#192,#193));
#195=IFCRELDEFINESBYPROPERTIES('3HPzE12NMv51ajDH3ldxDD',#6,$,$,(#169),#194);
#196=IFCPROPERTYSINGLEVALUE('MaxUnits',$,IFCREAL(8),$);
#197=IFCPROPERTYSINGLEVALUE('CostPerHour',$,IFCMONETARYMEASURE(47),$);
#198=IFCPROPERTYSINGLEVALUE('Color',$,IFCTEXT('#0D9488'),$);
#199=IFCPROPERTYSET('jNGPl1$d7fcXoX3lcPunJT',#6,'OPS_Resource',$,(#196,#197,#198));
#200=IFCRELDEFINESBYPROPERTIES('KbTfyV6XbhDPyNO$JtQv19',#6,$,$,(#170),#199);
#201=IFCPROPERTYSINGLEVALUE('MaxUnits',$,IFCREAL(8),$);
#202=IFCPROPERTYSINGLEVALUE('CostPerHour',$,IFCMONETARYMEASURE(44),$);
#203=IFCPROPERTYSINGLEVALUE('Color',$,IFCTEXT('#D97706'),$);
#204=IFCPROPERTYSET('W$npxLjX1tVbThMHYPa3LJ',#6,'OPS_Resource',$,(#201,#202,#203));
#205=IFCRELDEFINESBYPROPERTIES('7LIxU9hlbLrFH391GXVRdB',#6,$,$,(#171),#204);
#206=IFCPROPERTYSINGLEVALUE('MaxUnits',$,IFCREAL(999),$);
#207=IFCPROPERTYSINGLEVALUE('UnitOfMeasure',$,IFCLABEL('m³'),$);
#208=IFCPROPERTYSINGLEVALUE('Color',$,IFCTEXT('#A78BFA'),$);
#209=IFCPROPERTYSET('hduFVpo9JNBF7$3niVRF9n',#6,'OPS_Resource',$,(#206,#207,#208));
#210=IFCRELDEFINESBYPROPERTIES('IRz9ETtNkX5XYNqH2Rtri1',#6,$,$,(#172),#209);
#211=IFCRELASSIGNSTOPROCESS('rton$zqXz3IPmhwHRxkxlh',#6,$,$,(#167),$,#45,$);
#212=IFCRELASSIGNSTOPROCESS('ttoFxlXvCvuNHfanF53tyh',#6,$,$,(#167),$,#47,$);
#213=IFCRELASSIGNSTOPROCESS('kRbHX9KFgbrnzbO1CHLHZf',#6,$,$,(#168),$,#59,$);
#214=IFCRELASSIGNSTOPROCESS('nBVh5hDVpvz7AdoXu3lB4h',#6,$,$,(#168),$,#61,$);
#215=IFCRELASSIGNSTOPROCESS('UZO$M5VdzZcp0T71EJA9Wv',#6,$,$,(#168,#165),$,#63,$);
#216=IFCRELASSIGNSTOPROCESS('Y1$T0FRFQ1QpqLgHA5A3zd',#6,$,$,(#168),$,#65,$);
#217=IFCRELASSIGNSTOPROCESS('dROldRYFonNxF7UnBts9GH',#6,$,$,(#168),$,#67,$);
#218=IFCRELASSIGNSTOPROCESS('ypgPDH8vILLH7JHVBDxlJV',#6,$,$,(#166),$,#71,$);
#219=IFCRELASSIGNSTOPROCESS('DvU$QJs$4lBnzxqnCzeXm$',#6,$,$,(#172),$,#73,$);
#220=IFCRELASSIGNSTOPROCESS('odI5UN9N_NMFNvAle5gZPd',#6,$,$,(#166),$,#77,$);
#221=IFCRELASSIGNSTOPROCESS('ANIxIna16zMFVRSnDdyLE5',#6,$,$,(#171,#170,#172),$,#83,$);
#222=IFCRELASSIGNSTOPROCESS('a$FD7h4HBN6$mBc16tk1Qh',#6,$,$,(#171,#170,#172),$,#85,$);
#223=IFCRELASSIGNSTOPROCESS('4Jk5QfOvCZU5HfSnpvWdvf',#6,$,$,(#170,#172),$,#87,$);
#224=IFCRELASSIGNSTOPROCESS('d5SLVfO7aBhlVHt$GHtri1',#6,$,$,(#165,#170),$,#89,$);
#225=IFCRELASSIGNSTOPROCESS('st_Vy$2fcDOdWJlVznr1gt',#6,$,$,(#171),$,#91,$);
#226=IFCRELASSIGNSTOPROCESS('$lfjt167YJ6JA5SndnHBeB',#6,$,$,(#170,#172),$,#93,$);
#227=IFCRELASSIGNSTOPROCESS('Edk5QJs$qzQVoBEVKjs9e3',#6,$,$,(#170),$,#99,$);
#228=IFCRELASSIGNSTOPROCESS('VTO$Y9rlLvWlP3rFvxIx1j',#6,$,$,(#169),$,#103,$);
#229=IFCRELASSIGNSTOPROCESS('QVj7ZbQVdjwJ6VN$sbcvZ9',#6,$,$,(#169),$,#105,$);
#230=IFCPROPERTYSINGLEVALUE('wLk5Ez31yx$ZndA$XDMTlB#0',$,IFCTEXT('3|UNIFORM'),$);
#231=IFCPROPERTYSET('i5vr3hiVlpWl$VrnfJVpm$',#6,'OPS_Assignments',$,(#230));
#232=IFCRELDEFINESBYPROPERTIES('xnn5ABP9HX6$CljlJ5Rnvt',#6,$,$,(#45),#231);
#233=IFCPROPERTYSINGLEVALUE('wLk5Ez31yx$ZndA$XDMTlB#0',$,IFCTEXT('3|UNIFORM'),$);
#234=IFCPROPERTYSET('Ix7BFBHPHVgndl5noFJvFX',#6,'OPS_Assignments',$,(#233));
#235=IFCRELDEFINESBYPROPERTIES('vnF5AH$vkLxVEBc$I3m9eT',#6,$,$,(#47),#234);
#236=IFCPROPERTYSINGLEVALUE('1l1BjZfNGJ6jAbWXXJYFht#0',$,IFCTEXT('3|UNIFORM'),$);
#237=IFCPROPERTYSET('bXJv$ZedTpmVkxO1PlLlzd',#6,'OPS_Assignments',$,(#236));
#238=IFCRELDEFINESBYPROPERTIES('2jsZmdoHDdnDGhwlDPCpSb',#6,$,$,(#59),#237);
#239=IFCPROPERTYSINGLEVALUE('1l1BjZfNGJ6jAbWXXJYFht#0',$,IFCTEXT('2|UNIFORM'),$);
#240=IFCPROPERTYSET('wHz9_LqXfx9b$L_n9du$6$',#6,'OPS_Assignments',$,(#239));
#241=IFCRELDEFINESBYPROPERTIES('VziJvPzl$NTtDzplZ1b12$',#6,$,$,(#61),#240);
#242=IFCPROPERTYSINGLEVALUE('1l1BjZfNGJ6jAbWXXJYFht#0',$,IFCTEXT('4|UNIFORM'),$);
#243=IFCPROPERTYSINGLEVALUE('FPQjzB09rZaJ6XXVgLOHvR#1',$,IFCTEXT('1|UNIFORM'),$);
#244=IFCPROPERTYSET('L7ibqv1PTX_9R1d$a9_H7x',#6,'OPS_Assignments',$,(#242,#243));
#245=IFCRELDEFINESBYPROPERTIES('IbpdNpVdzTQDCH3HwJd5L9',#6,$,$,(#63),#244);
#246=IFCPROPERTYSINGLEVALUE('1l1BjZfNGJ6jAbWXXJYFht#0',$,IFCTEXT('4|UNIFORM'),$);
#247=IFCPROPERTYSET('PRWfGvotzFaJELIFej1jE9',#6,'OPS_Assignments',$,(#246));
#248=IFCRELDEFINESBYPROPERTIES('E7Avt1k9pbx$0zRn8Z5X47',#6,$,$,(#65),#247);
#249=IFCPROPERTYSINGLEVALUE('1l1BjZfNGJ6jAbWXXJYFht#0',$,IFCTEXT('2|UNIFORM'),$);
#250=IFCPROPERTYSET('GtS36d_FqZY5hz9$W9I12V',#6,'OPS_Assignments',$,(#249));
#251=IFCRELDEFINESBYPROPERTIES('fzHJFB9NE5Nxd3LnftcvTN',#6,$,$,(#67),#250);
#252=IFCPROPERTYSINGLEVALUE('ZZ0tEXYnsrTt5Ht$i1NhYn#0',$,IFCTEXT('1|UNIFORM'),$);
#253=IFCPROPERTYSET('p7U1kFKFUDAlrJplhZTtyB',#6,'OPS_Assignments',$,(#252));
#254=IFCRELDEFINESBYPROPERTIES('qLBFZxcvarb1e1nXNJnTFR',#6,$,$,(#71),#253);
#255=IFCPROPERTYSINGLEVALUE('NzdLl$fN6n4DmhYF9zfTht#0',$,IFCTEXT('60|FRONT_LOADED'),$);
#256=IFCPROPERTYSET('gz9xYx_N6TM3HzlXHrjvv5',#6,'OPS_Assignments',$,(#255));
#257=IFCRELDEFINESBYPROPERTIES('3lXLdxo9vNovkRiF_R$JYj',#6,$,$,(#73),#256);
#258=IFCPROPERTYSINGLEVALUE('ZZ0tEXYnsrTt5Ht$i1NhYn#0',$,IFCTEXT('1|UNIFORM'),$);
#259=IFCPROPERTYSET('fZztcN8PHpG1uld1T1BFZx',#6,'OPS_Assignments',$,(#258));
#260=IFCRELDEFINESBYPROPERTIES('_HXhHXDFUdCxrj3HA$l3Bz',#6,$,$,(#77),#259);
#261=IFCPROPERTYSINGLEVALUE('qtonnhbn2N6$mB6$4hXbb5#0',$,IFCTEXT('4|UNIFORM'),$);
#262=IFCPROPERTYSINGLEVALUE('d$vrHRxVFnSJEXbn07uF3L#1',$,IFCTEXT('4|UNIFORM'),$);
#263=IFCPROPERTYSINGLEVALUE('NzdLl$fN6n4DmhYF9zfTht#2',$,IFCTEXT('25|UNIFORM'),$);
#264=IFCPROPERTYSET('jRDdRbxV9rdJ2pVVeDTNot',#6,'OPS_Assignments',$,(#261,#262,#263));
#265=IFCRELDEFINESBYPROPERTIES('6nlRaFS1Ex1Z9BoXiXpdRV',#6,$,$,(#83),#264);
#266=IFCPROPERTYSINGLEVALUE('qtonnhbn2N6$mB6$4hXbb5#0',$,IFCTEXT('4|UNIFORM'),$);
#267=IFCPROPERTYSINGLEVALUE('d$vrHRxVFnSJEXbn07uF3L#1',$,IFCTEXT('4|UNIFORM'),$);
#268=IFCPROPERTYSINGLEVALUE('NzdLl$fN6n4DmhYF9zfTht#2',$,IFCTEXT('25|UNIFORM'),$);
#269=IFCPROPERTYSET('RRGPl11PX59RDzDHlLNZVT',#6,'OPS_Assignments',$,(#266,#267,#268));
#270=IFCRELDEFINESBYPROPERTIES('C9cN8rGfMxvhQnd10dKjUl',#6,$,$,(#85),#269);
#271=IFCPROPERTYSINGLEVALUE('d$vrHRxVFnSJEXbn07uF3L#0',$,IFCTEXT('4|UNIFORM'),$);
#272=IFCPROPERTYSINGLEVALUE('NzdLl$fN6n4DmhYF9zfTht#1',$,IFCTEXT('20|FRONT_LOADED'),$);
#273=IFCPROPERTYSET('DdI5oT79PvuvUZjFbVJvfZ',#6,'OPS_Assignments',$,(#271,#272));
#274=IFCRELDEFINESBYPROPERTIES('CrfjNnSHPPare$HVLTJvrz',#6,$,$,(#87),#273);
#275=IFCPROPERTYSINGLEVALUE('FPQjzB09rZaJ6XXVgLOHvR#0',$,IFCTEXT('1|UNIFORM'),$);
#276=IFCPROPERTYSINGLEVALUE('d$vrHRxVFnSJEXbn07uF3L#1',$,IFCTEXT('3|UNIFORM'),$);
#277=IFCPROPERTYSET('mNO$6vcva$FLgfWX3l9Bm$',#6,'OPS_Assignments',$,(#275,#276));
#278=IFCRELDEFINESBYPROPERTIES('fZ5nXDMP7NIPut8$IVdJgf',#6,$,$,(#89),#277);
#279=IFCPROPERTYSINGLEVALUE('qtonnhbn2N6$mB6$4hXbb5#0',$,IFCTEXT('5|UNIFORM'),$);
#280=IFCPROPERTYSET('JxHJDjTl7NgnV5e$SRnTN1',#6,'OPS_Assignments',$,(#279));
#281=IFCRELDEFINESBYPROPERTIES('wHb1E$ot3l8v61pnBD5H5L',#6,$,$,(#91),#280);
#282=IFCPROPERTYSINGLEVALUE('d$vrHRxVFnSJEXbn07uF3L#0',$,IFCTEXT('6|UNIFORM'),$);
#283=IFCPROPERTYSINGLEVALUE('NzdLl$fN6n4DmhYF9zfTht#1',$,IFCTEXT('90|FRONT_LOADED'),$);
#284=IFCPROPERTYSET('uBs7TxotTXkdCnVX4LfZZx',#6,'OPS_Assignments',$,(#282,#283));
#285=IFCRELDEFINESBYPROPERTIES('H9CxoXEHj9PjQzxFgFPjsz',#6,$,$,(#93),#284);
#286=IFCPROPERTYSINGLEVALUE('d$vrHRxVFnSJEXbn07uF3L#0',$,IFCTEXT('2|UNIFORM'),$);
#287=IFCPROPERTYSET('NTz9kJL1MvJf7DJn3jQvpF',#6,'OPS_Assignments',$,(#286));
#288=IFCRELDEFINESBYPROPERTIES('2HXLND$PP7GXAdg$rfgZht',#6,$,$,(#99),#287);
#289=IFCPROPERTYSINGLEVALUE('2jEbmPQVxnPryzt$S5DdJz#0',$,IFCTEXT('6|UNIFORM'),$);
#290=IFCPROPERTYSET('M7ibSJwXVbp9ThUFLvKjs7',#6,'OPS_Assignments',$,(#289));
#291=IFCRELDEFINESBYPROPERTIES('HxdL$vkt3TcDK5O1atUFxn',#6,$,$,(#103),#290);
#292=IFCPROPERTYSINGLEVALUE('2jEbmPQVxnPryzt$S5DdJz#0',$,IFCTEXT('4|UNIFORM'),$);
#293=IFCPROPERTYSET('ZzS3kluvUJYx9LAHaRd5bV',#6,'OPS_Assignments',$,(#292));
#294=IFCRELDEFINESBYPROPERTIES('sfk5_rOdR$PjcFf1dri5T5',#6,$,$,(#105),#293);
#295=IFCRELASSIGNSTOCONTROL('rDVhNjbXHjyDCF$VkTSruD',#6,$,$,(#43,#45,#47,#49,#51,#53,#55,#57,#59,#61,#63,#65,#67,#69,#71,#73,#75,#77,#79,#81,#83,#85,#87,#89,#91,#93,#95,#97,#99,#101,#103,#105,#107,#109,#111,#113,#115,#117,#119),$,#40);
#296=IFCPROPERTYSINGLEVALUE('InternalProjectId',$,IFCTEXT('proj-mtx91fji8ct61593'),$);
#297=IFCPROPERTYSINGLEVALUE('wbsAutoNumber',$,IFCBOOLEAN(.T.),$);
#298=IFCPROPERTYSINGLEVALUE('DefaultTaskDurationUnit',$,IFCLABEL('days'),$);
#299=IFCPROPERTYSINGLEVALUE('ProjectStartDate',$,IFCDATE('2027-03-01'),$);
#300=IFCPROPERTYSINGLEVALUE('ProjectEndDate',$,$,$);
#301=IFCPROPERTYSINGLEVALUE('CreatedAt',$,IFCTEXT('2026-09-11T17:47:45.006Z'),$);
#302=IFCPROPERTYSINGLEVALUE('ModifiedAt',$,IFCTEXT('2026-09-11T17:47:45.007Z'),$);
#303=IFCPROPERTYSET('e5a3ArlP$tNZvpDF1ZK5n5',#6,'OPS_ProjectSettings',$,(#296,#297,#298,#299,#300,#301,#302));
#304=IFCRELDEFINESBYPROPERTIES('0Hdzo1sPJhdjQlBF$1BF9l',#6,$,$,(#13),#303);
#305=IFCPROPERTYSINGLEVALUE('InternalTaskId',$,IFCTEXT('task-mtx91fjsfwka1602'),$);
#306=IFCPROPERTYSET('$DkHfjL$gbJfP3jl5H5V09',#6,'OPS_TaskIdentity',$,(#305));
#307=IFCRELDEFINESBYPROPERTIES('6nfJr7Mdpvjf$XBnNjXp8x',#6,$,$,(#43),#306);
#308=IFCPROPERTYSINGLEVALUE('InternalTaskId',$,IFCTEXT('task-mtx91fjtdq341603'),$);
#309=IFCPROPERTYSET('Oz9xg$VP$tt3bVLFLzPJgf',#6,'OPS_TaskIdentity',$,(#308));
#310=IFCRELDEFINESBYPROPERTIES('lb3t6T87M7Td89GXAV3t0t',#6,$,$,(#45),#309);
#311=IFCPROPERTYSINGLEVALUE('InternalTaskId',$,IFCTEXT('task-mtx91fjutfz61604'),$);
#312=IFCPROPERTYSET('Mz95EXg$gRDtlTZFgFdJcl',#6,'OPS_TaskIdentity',$,(#311));
#313=IFCRELDEFINESBYPROPERTIES('FPcJlRTlx5HjQlZHi$fLUF',#6,$,$,(#47),#312);
#314=IFCPROPERTYSINGLEVALUE('InternalTaskId',$,IFCTEXT('task-mtx91fjw4efd1605'),$);
#315=IFCPROPERTYSET('IR39sBNfKNsHPzpln5hXax',#6,'OPS_TaskIdentity',$,(#314));
#316=IFCRELDEFINESBYPROPERTIES('r9QNaHmfuVYfP3DlZ1T9iX',#6,$,$,(#49),#315);
#317=IFCPROPERTYSINGLEVALUE('InternalTaskId',$,IFCTEXT('task-mtx91fjx1f7m1606'),$);
#318=IFCPROPERTYSET('KxNR4167UvO9jprHvb_HlH',#6,'OPS_TaskIdentity',$,(#317));
#319=IFCRELDEFINESBYPROPERTIES('DPwDBziFobBFFJrFJx3tm$',#6,$,$,(#51),#318);
#320=IFCPROPERTYSINGLEVALUE('InternalTaskId',$,IFCTEXT('task-mtx91fjyh0p51607'),$);
#321=IFCPROPERTYSET('GtiJjTldJLnLAxyl$Vtztj',#6,'OPS_TaskIdentity',$,(#320));
#322=IFCRELDEFINESBYPROPERTIES('f7Kby1sd5nvhAvglYBb$YF',#6,$,$,(#53),#321);
#323=IFCPROPERTYSINGLEVALUE('InternalTaskId',$,IFCTEXT('task-mtx91fjz1cl61608'),$);
#324=IFCPROPERTYSET('$HNJbXRX3narmxanlrLl5h',#6,'OPS_TaskIdentity',$,(#323));
#325=IFCRELDEFINESBYPROPERTIES('uDfjl5$P5xPrmBA$$Za3vx',#6,$,$,(#55),#324);
#326=IFCPROPERTYSINGLEVALUE('InternalTaskId',$,IFCTEXT('task-mtx91fk04soy1609'),$);
#327=IFCPROPERTYSET('4lLHrZGfOnyLMfWVRbAtOh',#6,'OPS_TaskIdentity',$,(#326));
#328=IFCRELDEFINESBYPROPERTIES('BjLl9TNNit2bZhsl4vS3NZ',#6,$,$,(#57),#327);
#329=IFCPROPERTYSINGLEVALUE('InternalTaskId',$,IFCTEXT('task-mtx91fk2ugvr1610'),$);
#330=IFCPROPERTYSET('VX3tklW9fxPrm5SHHrBFrd',#6,'OPS_TaskIdentity',$,(#329));
#331=IFCRELDEFINESBYPROPERTIES('e3txAFDVjfBndn$VQ3PJUp',#6,$,$,(#59),#330);
#332=IFCPROPERTYSINGLEVALUE('InternalTaskId',$,IFCTEXT('task-mtx91fk33q6e1611'),$);
#333=IFCPROPERTYSET('_FjPLDw7Qj4LYtO$a5LXSx',#6,'OPS_TaskIdentity',$,(#332));
#334=IFCRELDEFINESBYPROPERTIES('tJhHPRcXxnPBSvEF6pRnVT',#6,$,$,(#61),#333);
#335=IFCPROPERTYSINGLEVALUE('InternalTaskId',$,IFCTEXT('task-mtx91fk4lev71612'),$);
#336=IFCPROPERTYSET('l94r$TmNKtcDmhUFFN_rCl',#6,'OPS_TaskIdentity',$,(#335));
#337=IFCRELDEFINESBYPROPERTIES('OxyrjTd99rfT9LYndLu1EN',#6,$,$,(#63),#336);
#338=IFCPROPERTYSINGLEVALUE('InternalTaskId',$,IFCTEXT('task-mtx91fk5l2c91613'),$);
#339=IFCPROPERTYSET('hdm7zLKncJ4pS76HZVt3HH',#6,'OPS_TaskIdentity',$,(#338));
#340=IFCRELDEFINESBYPROPERTIES('STG7XpgP5bBnZLQHvb2Hn$',#6,$,$,(#65),#339);
#341=IFCPROPERTYSINGLEVALUE('InternalTaskId',$,IFCTEXT('task-mtx91fk60b5t1614'),$);
#342=IFCPROPERTYSET('CrNj5l$vgRRXA5aHdlrnPP',#6,'OPS_TaskIdentity',$,(#341));
#343=IFCRELDEFINESBYPROPERTIES('JtqxUtBlL7OPCn$XYLdjsP',#6,$,$,(#67),#342);
#344=IFCPROPERTYSINGLEVALUE('InternalTaskId',$,IFCTEXT('task-mtx91fk71cyd1615'),$);
#345=IFCPROPERTYSET('QxyZSFalJNrFh9WVh37DiV',#6,'OPS_TaskIdentity',$,(#344));
#346=IFCRELDEFINESBYPROPERTIES('VXh$YREHjtPjUZJFxnfTfX',#6,$,$,(#69),#345);
#347=IFCPROPERTYSINGLEVALUE('InternalTaskId',$,IFCTEXT('task-mtx91fk9jxhi1616'),$);
#348=IFCPROPERTYSET('H5ljdtZ$olbVohQH93nLUj',#6,'OPS_TaskIdentity',$,(#347));
#349=IFCRELDEFINESBYPROPERTIES('sNkxYxUNq7uvohYFJ5Ddxl',#6,$,$,(#71),#348);
#350=IFCPROPERTYSINGLEVALUE('InternalTaskId',$,IFCTEXT('task-mtx91fkar1pn1617'),$);
#351=IFCPROPERTYSET('c$dLBzSl1rZ9TL6ltvyhkv',#6,'OPS_TaskIdentity',$,(#350));
#352=IFCRELDEFINESBYPROPERTIES('jRDddxc7KfYf55mVORcvr3',#6,$,$,(#73),#351);
#353=IFCPROPERTYSINGLEVALUE('InternalTaskId',$,IFCTEXT('task-mtx91fkbkh4f1618'),$);
#354=IFCPROPERTYSET('wr_XqvH74RjNFvglEnr1_$',#6,'OPS_TaskIdentity',$,(#353));
#355=IFCRELDEFINESBYPROPERTIES('$FR$U5Et3F4L6XVVoDYho5',#6,$,$,(#75),#354);
#356=IFCPROPERTYSINGLEVALUE('InternalTaskId',$,IFCTEXT('task-mtx91fkcvimr1619'),$);
#357=IFCPROPERTYSET('RXDPJ$gdBTKz7X71nfYLk7',#6,'OPS_TaskIdentity',$,(#356));
#358=IFCRELDEFINESBYPROPERTIES('ixPhvhylLvWlxRqnOJnTRV',#6,$,$,(#77),#357);
#359=IFCPROPERTYSINGLEVALUE('InternalTaskId',$,IFCTEXT('task-mtx91fke8el01620'),$);
#360=IFCPROPERTYSET('A9cfKLDXhJM3JDjn93VbPh',#6,'OPS_TaskIdentity',$,(#359));
#361=IFCRELDEFINESBYPROPERTIES('3jAZ0nZ$kX5XM9iFA$Xpi$',#6,$,$,(#79),#360);
#362=IFCPROPERTYSINGLEVALUE('InternalTaskId',$,IFCTEXT('task-mtx91fkfz2gk1621'),$);
#363=IFCPROPERTYSET('znrn1zSH79EBChUFl7WPX3',#6,'OPS_TaskIdentity',$,(#362));
#364=IFCRELDEFINESBYPROPERTIES('AJrFRV5V5lBn1rYVdhWP3h',#6,$,$,(#81),#363);
#365=IFCPROPERTYSINGLEVALUE('InternalTaskId',$,IFCTEXT('task-mtx91fkhcbcc1622'),$);
#366=IFCPROPERTYSET('fTZf8jZHnz_tzxalxLmNUn',#6,'OPS_TaskIdentity',$,(#365));
#367=IFCRELDEFINESBYPROPERTIES('mvw9ozDVt$fZjVXV_xpPNV',#6,$,$,(#83),#366);
#368=IFCPROPERTYSINGLEVALUE('InternalTaskId',$,IFCTEXT('task-mtx91fkiyjys1623'),$);
#369=IFCPROPERTYSET('fdWNSjg$2TypGR0VTTqDql',#6,'OPS_TaskIdentity',$,(#368));
#370=IFCRELDEFINESBYPROPERTIES('UTWfurOvSBJ7MBIVEFRFlB',#6,$,$,(#85),#369);
#371=IFCPROPERTYSINGLEVALUE('InternalTaskId',$,IFCTEXT('task-mtx91fkjc9lw1624'),$);
#372=IFCPROPERTYSET('lR5FR$NNUDYNhTDnJt_H5B',#6,'OPS_TaskIdentity',$,(#371));
#373=IFCRELDEFINESBYPROPERTIES('A9w9o$UN0BfZj$znOREVWd',#6,$,$,(#87),#372);
#374=IFCPROPERTYSINGLEVALUE('InternalTaskId',$,IFCTEXT('task-mtx91fklgz9a1625'),$);
#375=IFCPROPERTYSET('qLBFxnJV5n7Lcn915heHxr',#6,'OPS_TaskIdentity',$,(#374));
#376=IFCRELDEFINESBYPROPERTIES('jNOl5BFPfHZdWpLH5L8$cn',#6,$,$,(#89),#375);
#377=IFCPROPERTYSINGLEVALUE('InternalTaskId',$,IFCTEXT('task-mtx91fkmpx4b1626'),$);
#378=IFCPROPERTYSET('NzVz_LiFg7ptnJZlaRXpyL',#6,'OPS_TaskIdentity',$,(#377));
#379=IFCRELDEFINESBYPROPERTIES('GPAZObYnoxdBWD5HOx_rab',#6,$,$,(#91),#378);
#380=IFCPROPERTYSINGLEVALUE('InternalTaskId',$,IFCTEXT('task-mtx91fkolwf91627'),$);
#381=IFCPROPERTYSET('q96tgXr$4Hz76$jFbVz9eh',#6,'OPS_TaskIdentity',$,(#380));
#382=IFCRELDEFINESBYPROPERTIES('xh6Db5H781wjQlBnzjc7pn',#6,$,$,(#93),#381);
#383=IFCPROPERTYSINGLEVALUE('InternalTaskId',$,IFCTEXT('task-mtx91fkpofwr1628'),$);
#384=IFCPROPERTYSET('spNJ5n5FyFvhsRO$m$3fwX',#6,'OPS_TaskIdentity',$,(#383));
#385=IFCRELDEFINESBYPROPERTIES('ltCDhj_nynnDe1XXS55lxh',#6,$,$,(#95),#384);
#386=IFCPROPERTYSINGLEVALUE('InternalTaskId',$,IFCTEXT('task-mtx91fkrn9ek1629'),$);
#387=IFCPROPERTYSET('CLxXCx$PzFq53d_VFR9riV',#6,'OPS_TaskIdentity',$,(#386));
#388=IFCRELDEFINESBYPROPERTIES('jfO$UfHdPjAZvJ9$ijgfM9',#6,$,$,(#97),#387);
#389=IFCPROPERTYSINGLEVALUE('InternalTaskId',$,IFCTEXT('task-mtx91fksyk0q1630'),$);
#390=IFCPROPERTYSET('bXDdhJg1_zuftB2XN9wP5H',#6,'OPS_TaskIdentity',$,(#389));
#391=IFCRELDEFINESBYPROPERTIES('K5PhVNOPLvedKVVV_fszxB',#6,$,$,(#99),#390);
#392=IFCPROPERTYSINGLEVALUE('InternalTaskId',$,IFCTEXT('task-mtx91fktv0yr1631'),$);
#393=IFCPROPERTYSET('PX5FRVDFUPyDixmXGXvDub',#6,'OPS_TaskIdentity',$,(#392));
#394=IFCRELDEFINESBYPROPERTIES('I5Nb0lHP1frF1rw$ebUFHL',#6,$,$,(#101),#393);
#395=IFCPROPERTYSINGLEVALUE('InternalTaskId',$,IFCTEXT('task-mtx91fkvr1mi1632'),$);
#396=IFCPROPERTYSET('k9yBdt3$C7m1KXv13jEX8x',#6,'OPS_TaskIdentity',$,(#395));
#397=IFCRELDEFINESBYPROPERTIES('PxyrppffUDkPOPoXejXDK$',#6,$,$,(#103),#396);
#398=IFCPROPERTYSINGLEVALUE('InternalTaskId',$,IFCTEXT('task-mtx91fkwakyo1633'),$);
#399=IFCPROPERTYSET('PxqpJ$MP$hlrevYFXnRnF5',#6,'OPS_TaskIdentity',$,(#398));
#400=IFCRELDEFINESBYPROPERTIES('W$ljdN9Nc$6j6VnXZTCpqF',#6,$,$,(#105),#399);
#401=IFCPROPERTYSINGLEVALUE('InternalTaskId',$,IFCTEXT('task-mtx91fkywyin1634'),$);
#402=IFCPROPERTYSET('ZX39QDUf0B15J1JnHdi5LN',#6,'OPS_TaskIdentity',$,(#401));
#403=IFCRELDEFINESBYPROPERTIES('MzVzY52Ngd9bTLslKXDdBP',#6,$,$,(#107),#402);
#404=IFCPROPERTYSINGLEVALUE('InternalTaskId',$,IFCTEXT('task-mtx91fkz8u7f1635'),$);
#405=IFCPROPERTYSET('sJ39IJL$QXYfltGXs$d5xn',#6,'OPS_TaskIdentity',$,(#404));
#406=IFCRELDEFINESBYPROPERTIES('lNuVW1$PjfJvELonMB4ZN1',#6,$,$,(#109),#405);
#407=IFCPROPERTYSINGLEVALUE('InternalTaskId',$,IFCTEXT('task-mtx91fl1nj981636'),$);
#408=IFCPROPERTYSET('m7A7FLrH19XRxFxHmVvDqH',#6,'OPS_TaskIdentity',$,(#407));
#409=IFCRELDEFINESBYPROPERTIES('tfwpX9CXxlDtVbCnOJ$JMf',#6,$,$,(#111),#408);
#410=IFCPROPERTYSINGLEVALUE('InternalTaskId',$,IFCTEXT('task-mtx91fl2vium1637'),$);
#411=IFCPROPERTYSET('Y1HJb1d9Nxvhgfu$gheHxB',#6,'OPS_TaskIdentity',$,(#410));
#412=IFCRELDEFINESBYPROPERTIES('fTxFPt31ijCZxxmXK$P5lh',#6,$,$,(#113),#411);
#413=IFCPROPERTYSINGLEVALUE('InternalTaskId',$,IFCTEXT('task-mtx91fl4cis31638'),$);
#414=IFCPROPERTYSET('WVL$YNldFFqxndA1lBrnVz',#6,'OPS_TaskIdentity',$,(#413));
#415=IFCRELDEFINESBYPROPERTIES('d$XzoZFdHpWlJ$Blj5B1sd',#6,$,$,(#115),#414);
#416=IFCPROPERTYSINGLEVALUE('InternalTaskId',$,IFCTEXT('task-mtx91fl5y4d91639'),$);
#417=IFCPROPERTYSET('ChjP5r$729sT$$N$3JUnbV',#6,'OPS_TaskIdentity',$,(#416));
#418=IFCRELDEFINESBYPROPERTIES('jNmvzhCVLPKR1BkXoDYLIB',#6,$,$,(#117),#417);
#419=IFCPROPERTYSINGLEVALUE('InternalTaskId',$,IFCTEXT('task-mtx91fl7wduq1640'),$);
#420=IFCPROPERTYSET('3DEnFLT1wFiRJDznW9EV0f',#6,'OPS_TaskIdentity',$,(#419));
#421=IFCRELDEFINESBYPROPERTIES('4F9D3djFGJg3NdEXuhWPdP',#6,$,$,(#119),#420);
#422=IFCPROPERTYSINGLEVALUE('MilestoneKind',$,IFCLABEL('START'),$);
#423=IFCPROPERTYSET('$HFxkp9f4lrnXbaHzHH3nX',#6,'OPS_Milestone',$,(#422));
#424=IFCRELDEFINESBYPROPERTIES('cxaLJ1sdLdyhMBoVi$lz37',#6,$,$,(#53),#423);
ENDSEC;
END-ISO-10303-21;
