ISO-10303-21;
HEADER;
FILE_DESCRIPTION(('ViewDefinition [SchedulingView]'),'2;1');
FILE_NAME('Stationsplein Car Park, Utrecht.ifc','2026-09-11T17:47:45',('Robert Visser'),('Underground Construction BV'),'Open Planner Studio 0.1','Open Planner Studio','');
FILE_SCHEMA(('IFC4X3'));
ENDSEC;
DATA;
#1=IFCPERSON($,'Robert Visser',$,$,$,$,$,$);
#2=IFCORGANIZATION($,'Underground Construction BV',$,$,$);
#3=IFCPERSONANDORGANIZATION(#1,#2,$);
#4=IFCORGANIZATION($,'OpenAEC Foundation',$,$,$);
#5=IFCAPPLICATION(#4,'0.1','Open Planner Studio','OPS');
#6=IFCOWNERHISTORY(#3,#5,$,.NOCHANGE.,$,$,$,1789148865);
#7=IFCSIUNIT(*,.LENGTHUNIT.,$,.METRE.);
#8=IFCSIUNIT(*,.TIMEUNIT.,$,.SECOND.);
#9=IFCUNITASSIGNMENT((#7,#8));
#10=IFCCARTESIANPOINT((0.,0.,0.));
#11=IFCAXIS2PLACEMENT3D(#10,$,$);
#12=IFCGEOMETRICREPRESENTATIONCONTEXT($,'Plan',3,1.0E-05,#11,$);
#13=IFCPROJECT('ylpvhNW9vzmXwpzFyB5XG$',#6,'Stationsplein Car Park, Utrecht','Three-level underground car park, 400 spaces',$,$,$,(#12),#9);
#14=IFCTIMEPERIOD('07:00:00','16:00:00');
#15=IFCRECURRENCEPATTERN(.WEEKLY.,$,(1,2,3,4,5),$,$,$,$,(#14));
#16=IFCWORKTIME('Standard work week',.PREDICTED.,$,#15,$,$);
#17=IFCWORKTIME('New Year''s Day',.PREDICTED.,$,$,'2027-01-01','2027-01-01');
#18=IFCWORKTIME('Good Friday',.PREDICTED.,$,$,'2027-03-26','2027-03-26');
#19=IFCWORKTIME('Easter',.PREDICTED.,$,$,'2027-03-28','2027-03-29');
#20=IFCWORKTIME('King''s Day',.PREDICTED.,$,$,'2027-04-27','2027-04-27');
#21=IFCWORKTIME('Liberation Day',.PREDICTED.,$,$,'2027-05-05','2027-05-05');
#22=IFCWORKTIME('Ascension Day',.PREDICTED.,$,$,'2027-05-06','2027-05-06');
#23=IFCWORKTIME('Whitsun',.PREDICTED.,$,$,'2027-05-16','2027-05-17');
#24=IFCWORKTIME('Christmas',.PREDICTED.,$,$,'2027-12-25','2027-12-26');
#25=IFCWORKTIME('Construction holiday (northern region)',.PREDICTED.,$,$,'2027-07-26','2027-08-15');
#26=IFCWORKTIME('New Year''s Day',.PREDICTED.,$,$,'2028-01-01','2028-01-01');
#27=IFCWORKTIME('Good Friday',.PREDICTED.,$,$,'2028-04-14','2028-04-14');
#28=IFCWORKTIME('Easter',.PREDICTED.,$,$,'2028-04-16','2028-04-17');
#29=IFCWORKTIME('King''s Day',.PREDICTED.,$,$,'2028-04-27','2028-04-27');
#30=IFCWORKTIME('Liberation Day',.PREDICTED.,$,$,'2028-05-05','2028-05-05');
#31=IFCWORKTIME('Ascension Day',.PREDICTED.,$,$,'2028-05-25','2028-05-25');
#32=IFCWORKTIME('Whitsun',.PREDICTED.,$,$,'2028-06-04','2028-06-05');
#33=IFCWORKTIME('Christmas',.PREDICTED.,$,$,'2028-12-25','2028-12-26');
#34=IFCWORKTIME('Construction holiday (northern region)',.PREDICTED.,$,$,'2028-07-24','2028-08-13');
#35=IFCWORKCALENDAR('_HlbW$VPl1Yxnv_nBDbFBd',#6,'Construction calendar NL','Standard construction calendar: Mon-Fri 07:00-16:00',$,(#16),(#17,#18,#19,#20,#21,#22,#23,#24,#25,#26,#27,#28,#29,#30,#31,#32,#33,#34),.FIRSTSHIFT.);
#36=IFCPROPERTYSINGLEVALUE('HoursPerDay',$,IFCREAL(8),$);
#37=IFCPROPERTYSET('qL5XmPUFgdlJ6X9$WtAtOZ',#6,'OPS_Calendar',$,(#36));
#38=IFCRELDEFINESBYPROPERTIES('bXh12hy$qvOdOP_VbbYntl',#6,$,$,(#35),#37);
#39=IFCWORKPLAN('C92Xq51PXR5$ajJHvbMfo9',#6,'Stationsplein Car Park, Utrecht','Three-level underground car park, 400 spaces',$,$,'2026-09-11T17:47:45',$,$,$,$,$,'2027-03-01T07:00:00','2027-03-26T07:00:00',.PLANNED.);
#40=IFCWORKSCHEDULE('fP8Xy16vs9Hr4TbHopYhkL',#6,'Construction schedule v1.0',$,$,$,'2026-09-11T17:47:45',$,$,$,$,$,'2027-03-01T07:00:00','2027-03-26T07:00:00',.PLANNED.);
#41=IFCRELAGGREGATES('X$Ph9TPtbVDd8te$ftI1sz',#6,$,$,#39,(#40));
#42=IFCTASKTIME('1. Preparation Time',.PREDICTED.,$,.WORKTIME.,'P0Y0M5D','2027-03-01T07:00:00','2027-03-05T07:00:00','2027-03-01T07:00:00','2027-04-05T07:00:00','2027-03-01T07:00:00','2027-12-17T07:00:00','P0Y0M0D','P0Y0M0D',.T.,$,$,$,$,$,0.00);
#43=IFCTASK('6HR$c9qnSXDPqlDlnxZNsP',#6,'1. Preparation',$,$,'1',$,$,$,.F.,$,#42,.CONSTRUCTION.);
#44=IFCTASKTIME('Divert cables and pipes Time',.PREDICTED.,$,.WORKTIME.,'P0Y0M10D','2027-03-01T07:00:00','2027-03-12T07:00:00','2027-03-01T07:00:00','2027-03-12T07:00:00','2027-03-01T07:00:00','2027-03-12T07:00:00','P0Y0M0D','P0Y0M0D',.T.,$,$,$,$,$,0.00);
#45=IFCTASK('$Dcfal0991Fh2JZHSbH3HF',#6,'Divert cables and pipes',$,$,'1.1',$,$,$,.F.,$,#44,.INSTALLATION.);
#46=IFCTASKTIME('Set up site Time',.PREDICTED.,$,.WORKTIME.,'P0Y0M5D','2027-03-01T07:00:00','2027-03-05T07:00:00','2027-03-15T07:00:00','2027-03-19T07:00:00','2027-11-30T07:00:00','2027-12-06T07:00:00','P0Y0M0D','P0Y0M165D',.F.,$,$,$,$,$,0.00);
#47=IFCTASK('uJR1IpHvePV3jDjFpLVbxB',#6,'Set up site',$,$,'1.2',$,$,$,.F.,$,#46,.LOGISTIC.);
#48=IFCTASKTIME('Environmental monitoring Time',.PREDICTED.,$,.WORKTIME.,'P0Y0M3D','2027-03-01T07:00:00','2027-03-03T07:00:00','2027-03-22T07:00:00','2027-03-24T07:00:00','2027-12-07T07:00:00','2027-12-09T07:00:00','P0Y0M0D','P0Y0M165D',.F.,$,$,$,$,$,0.00);
#49=IFCTASK('cxaLFnxFePNxTtCnmFJvj$',#6,'Environmental monitoring',$,$,'1.3',$,$,$,.F.,$,#48,.ATTENDANCE.);
#50=IFCTASKTIME('Traffic management Time',.PREDICTED.,$,.WORKTIME.,'P0Y0M5D','2027-03-01T07:00:00','2027-03-05T07:00:00','2027-03-25T07:00:00','2027-04-02T07:00:00','2027-12-10T07:00:00','2027-12-16T07:00:00','P0Y0M0D','P0Y0M165D',.F.,$,$,$,$,$,0.00);
#51=IFCTASK('vhYhhpUNqvWlbBEVuh8FBd',#6,'Traffic management',$,$,'1.4',$,$,$,.F.,$,#50,.LOGISTIC.);
#52=IFCTASKTIME('Start of construction Time',.PREDICTED.,$,.WORKTIME.,'P0Y0M0D','2027-03-01T07:00:00','2027-03-01T07:00:00','2027-04-05T07:00:00','2027-04-05T07:00:00','2027-12-17T07:00:00','2027-12-17T07:00:00','P0Y0M165D','P0Y0M165D',.F.,$,$,$,$,$,0.00);
#53=IFCTASK('2lHb8jxXbVJvcZv1_tA9i1',#6,'Start of construction',$,$,'1.5',$,$,$,.T.,$,#52,.CONSTRUCTION.);
#54=IFCTASKTIME('2. Excavation pit Time',.PREDICTED.,$,.WORKTIME.,'P0Y0M5D','2027-03-01T07:00:00','2027-03-05T07:00:00','2027-03-17T07:00:00','2027-08-16T07:00:00','2027-03-17T07:00:00','2027-12-17T07:00:00','P0Y0M0D','P0Y0M0D',.T.,$,$,$,$,$,0.00);
#55=IFCTASK('6LkxQ9qnKDetDTv$AbwdXT',#6,'2. Excavation pit',$,$,'2',$,$,$,.F.,$,#54,.CONSTRUCTION.);
#56=IFCTASKTIME('Construct diaphragm walls Time',.PREDICTED.,$,.WORKTIME.,'P0Y0M20D','2027-03-01T07:00:00','2027-03-26T07:00:00','2027-03-17T07:00:00','2027-04-15T07:00:00','2027-03-17T07:00:00','2027-04-15T07:00:00','P0Y0M0D','P0Y0M0D',.T.,$,$,$,$,$,0.00);
#57=IFCTASK('NZxFTxEtnzIPuHVXsx_BqT',#6,'Construct diaphragm walls',$,$,'2.1',$,$,$,.F.,$,#56,.CONSTRUCTION.);
#58=IFCTASKTIME('Struts, level 1 Time',.PREDICTED.,$,.WORKTIME.,'P0Y0M8D','2027-03-01T07:00:00','2027-03-10T07:00:00','2027-04-16T07:00:00','2027-04-28T07:00:00','2027-09-15T07:00:00','2027-09-24T07:00:00','P0Y0M0D','P0Y0M89D',.F.,$,$,$,$,$,0.00);
#59=IFCTASK('KPGPZNdtB9YxplrFLvyL2V',#6,'Struts, level 1',$,$,'2.2',$,$,$,.F.,$,#58,.CONSTRUCTION.);
#60=IFCTASKTIME('Excavate layer 1 Time',.PREDICTED.,$,.WORKTIME.,'P0Y0M10D','2027-03-01T07:00:00','2027-03-12T07:00:00','2027-04-29T07:00:00','2027-05-14T07:00:00','2027-09-27T07:00:00','2027-10-08T07:00:00','P0Y0M0D','P0Y0M89D',.F.,$,$,$,$,$,0.00);
#61=IFCTASK('6Lcjb1VPXvrnHZTnULfZ5H',#6,'Excavate layer 1',$,$,'2.3',$,$,$,.F.,$,#60,.CONSTRUCTION.);
#62=IFCTASKTIME('Struts, level 2 Time',.PREDICTED.,$,.WORKTIME.,'P0Y0M8D','2027-03-01T07:00:00','2027-03-10T07:00:00','2027-05-18T07:00:00','2027-05-27T07:00:00','2027-10-11T07:00:00','2027-10-20T07:00:00','P0Y0M0D','P0Y0M89D',.F.,$,$,$,$,$,0.00);
#63=IFCTASK('2llRmPs$CdiRv1Rl_NMTdd',#6,'Struts, level 2',$,$,'2.4',$,$,$,.F.,$,#62,.CONSTRUCTION.);
#64=IFCTASKTIME('Excavate layer 2 Time',.PREDICTED.,$,.WORKTIME.,'P0Y0M10D','2027-03-01T07:00:00','2027-03-12T07:00:00','2027-05-28T07:00:00','2027-06-10T07:00:00','2027-10-21T07:00:00','2027-11-03T07:00:00','P0Y0M0D','P0Y0M89D',.F.,$,$,$,$,$,0.00);
#65=IFCTASK('NZTfiBV7u1sTBJxngH3f21',#6,'Excavate layer 2',$,$,'2.5',$,$,$,.F.,$,#64,.CONSTRUCTION.);
#66=IFCTASKTIME('Struts, level 3 Time',.PREDICTED.,$,.WORKTIME.,'P0Y0M8D','2027-03-01T07:00:00','2027-03-10T07:00:00','2027-06-11T07:00:00','2027-06-22T07:00:00','2027-11-04T07:00:00','2027-11-15T07:00:00','P0Y0M0D','P0Y0M89D',.F.,$,$,$,$,$,0.00);
#67=IFCTASK('rJhlvhKX1rpdi1rHjbNLI7',#6,'Struts, level 3',$,$,'2.6',$,$,$,.F.,$,#66,.CONSTRUCTION.);
#68=IFCTASKTIME('Excavate layer 3 Time',.PREDICTED.,$,.WORKTIME.,'P0Y0M10D','2027-03-01T07:00:00','2027-03-12T07:00:00','2027-06-23T07:00:00','2027-07-06T07:00:00','2027-11-16T07:00:00','2027-11-29T07:00:00','P0Y0M0D','P0Y0M89D',.F.,$,$,$,$,$,0.00);
#69=IFCTASK('F7cfy$67cp8vEXxnwjNLkB',#6,'Excavate layer 3',$,$,'2.7',$,$,$,.F.,$,#68,.CONSTRUCTION.);
#70=IFCTASKTIME('Underwater concrete slab Time',.PREDICTED.,$,.WORKTIME.,'P0Y0M8D','2027-03-01T07:00:00','2027-03-10T07:00:00','2027-07-07T07:00:00','2027-07-16T07:00:00','2027-11-30T07:00:00','2027-12-09T07:00:00','P0Y0M0D','P0Y0M89D',.F.,$,$,$,$,$,0.00);
#71=IFCTASK('BDHbW$Vd9Lrn7X914BDPzB',#6,'Underwater concrete slab',$,$,'2.8',$,$,$,.F.,$,#70,.CONSTRUCTION.);
#72=IFCTASKTIME('Pump dry Time',.PREDICTED.,$,.WORKTIME.,'P0Y0M5D','2027-03-01T07:00:00','2027-03-05T07:00:00','2027-07-19T07:00:00','2027-07-23T07:00:00','2027-12-10T07:00:00','2027-12-16T07:00:00','P0Y0M0D','P0Y0M89D',.F.,$,$,$,$,$,0.00);
#73=IFCTASK('qNMzEZNNa$dJ2DXVSNAzzP',#6,'Pump dry',$,$,'2.9',$,$,$,.F.,$,#72,.CONSTRUCTION.);
#74=IFCTASKTIME('Excavation pit dry Time',.PREDICTED.,$,.WORKTIME.,'P0Y0M0D','2027-03-01T07:00:00','2027-03-01T07:00:00','2027-08-16T07:00:00','2027-08-16T07:00:00','2027-12-17T07:00:00','2027-12-17T07:00:00','P0Y0M89D','P0Y0M89D',.F.,$,$,$,$,$,0.00);
#75=IFCTASK('0n39wza$E5HJgNe$8zFhQL',#6,'Excavation pit dry',$,$,'2.10',$,$,$,.T.,$,#74,.CONSTRUCTION.);
#76=IFCTASKTIME('3. Concrete structure Time',.PREDICTED.,$,.WORKTIME.,'P0Y0M5D','2027-03-01T07:00:00','2027-03-05T07:00:00','2027-03-31T07:00:00','2027-08-20T07:00:00','2027-03-31T07:00:00','2027-08-20T07:00:00','P0Y0M0D','P0Y0M0D',.T.,$,$,$,$,$,0.00);
#77=IFCTASK('XT09_77tHJKb35qHcvKJIB',#6,'3. Concrete structure',$,$,'3',$,$,$,.F.,$,#76,.CONSTRUCTION.);
#78=IFCTASKTIME('Slab at level -3 Time',.PREDICTED.,$,.WORKTIME.,'P0Y0M10D','2027-03-01T07:00:00','2027-03-12T07:00:00','2027-03-31T07:00:00','2027-04-13T07:00:00','2027-03-31T07:00:00','2027-04-13T07:00:00','P0Y0M0D','P0Y0M0D',.T.,$,$,$,$,$,0.00);
#79=IFCTASK('MdeH7h4$45V3FDP$a5J77x',#6,'Slab at level -3',$,$,'3.1',$,$,$,.F.,$,#78,.CONSTRUCTION.);
#80=IFCTASKTIME('Columns and walls, level -3 Time',.PREDICTED.,$,.WORKTIME.,'P0Y0M8D','2027-03-01T07:00:00','2027-03-10T07:00:00','2027-04-14T07:00:00','2027-04-23T07:00:00','2027-04-14T07:00:00','2027-04-23T07:00:00','P0Y0M0D','P0Y0M0D',.T.,$,$,$,$,$,0.00);
#81=IFCTASK('FvIH5rldX7x$OP6$KJUFLt',#6,'Columns and walls, level -3',$,$,'3.2',$,$,$,.F.,$,#80,.CONSTRUCTION.);
#82=IFCTASKTIME('Slab at level -2 Time',.PREDICTED.,$,.WORKTIME.,'P0Y0M10D','2027-03-01T07:00:00','2027-03-12T07:00:00','2027-04-26T07:00:00','2027-05-12T07:00:00','2027-04-26T07:00:00','2027-05-12T07:00:00','P0Y0M0D','P0Y0M0D',.T.,$,$,$,$,$,0.00);
#83=IFCTASK('It4Zm7Mdn329LNan5hu1QB',#6,'Slab at level -2',$,$,'3.3',$,$,$,.F.,$,#82,.CONSTRUCTION.);
#84=IFCTASKTIME('Columns and walls, level -2 Time',.PREDICTED.,$,.WORKTIME.,'P0Y0M8D','2027-03-01T07:00:00','2027-03-10T07:00:00','2027-05-13T07:00:00','2027-05-25T07:00:00','2027-05-13T07:00:00','2027-05-25T07:00:00','P0Y0M0D','P0Y0M0D',.T.,$,$,$,$,$,0.00);
#85=IFCTASK('Z$9xIJxXLPKzH39$CnPjsT',#6,'Columns and walls, level -2',$,$,'3.4',$,$,$,.F.,$,#84,.CONSTRUCTION.);
#86=IFCTASKTIME('Slab at level -1 Time',.PREDICTED.,$,.WORKTIME.,'P0Y0M10D','2027-03-01T07:00:00','2027-03-12T07:00:00','2027-05-26T07:00:00','2027-06-08T07:00:00','2027-05-26T07:00:00','2027-06-08T07:00:00','P0Y0M0D','P0Y0M0D',.T.,$,$,$,$,$,0.00);
#87=IFCTASK('fzPL9Z1vsfZtPFP$0PijgD',#6,'Slab at level -1',$,$,'3.5',$,$,$,.F.,$,#86,.CONSTRUCTION.);
#88=IFCTASKTIME('Columns and walls, level -1 Time',.PREDICTED.,$,.WORKTIME.,'P0Y0M8D','2027-03-01T07:00:00','2027-03-10T07:00:00','2027-06-09T07:00:00','2027-06-18T07:00:00','2027-06-09T07:00:00','2027-06-18T07:00:00','P0Y0M0D','P0Y0M0D',.T.,$,$,$,$,$,0.00);
#89=IFCTASK('5HJdl$PtXdvhMtqFqnFhM9',#6,'Columns and walls, level -1',$,$,'3.6',$,$,$,.F.,$,#88,.CONSTRUCTION.);
#90=IFCTASKTIME('Car park deck Time',.PREDICTED.,$,.WORKTIME.,'P0Y0M12D','2027-03-01T07:00:00','2027-03-16T07:00:00','2027-06-21T07:00:00','2027-07-06T07:00:00','2027-06-21T07:00:00','2027-07-06T07:00:00','P0Y0M0D','P0Y0M0D',.T.,$,$,$,$,$,0.00);
#91=IFCTASK('phLHjVQXp5HJY3VV2tUnvN',#6,'Car park deck',$,$,'3.7',$,$,$,.F.,$,#90,.CONSTRUCTION.);
#92=IFCTASKTIME('Remove struts Time',.PREDICTED.,$,.WORKTIME.,'P0Y0M8D','2027-03-01T07:00:00','2027-03-10T07:00:00','2027-07-07T07:00:00','2027-07-16T07:00:00','2027-07-07T07:00:00','2027-07-16T07:00:00','P0Y0M0D','P0Y0M0D',.T.,$,$,$,$,$,0.00);
#93=IFCTASK('HxNbmds$eFCTZ9KHeRgfo5',#6,'Remove struts',$,$,'3.8',$,$,$,.F.,$,#92,.DEMOLITION.);
#94=IFCTASKTIME('Waterproofing Time',.PREDICTED.,$,.WORKTIME.,'P0Y0M10D','2027-03-01T07:00:00','2027-03-12T07:00:00','2027-07-19T07:00:00','2027-08-20T07:00:00','2027-07-19T07:00:00','2027-08-20T07:00:00','P0Y0M0D','P0Y0M0D',.T.,$,$,$,$,$,0.00);
#95=IFCTASK('oB1rXJEl1LFhYZJnJ5r1Iv',#6,'Waterproofing',$,$,'3.9',$,$,$,.F.,$,#94,.CONSTRUCTION.);
#96=IFCTASKTIME('4. Building services Time',.PREDICTED.,$,.WORKTIME.,'P0Y0M5D','2027-03-01T07:00:00','2027-03-05T07:00:00','2027-07-08T07:00:00','2027-10-18T07:00:00','2027-07-08T07:00:00','2027-10-18T07:00:00','P0Y0M0D','P0Y0M0D',.T.,$,$,$,$,$,0.00);
#97=IFCTASK('c1HJtX_Fij4p49qlA$7Rdh',#6,'4. Building services',$,$,'4',$,$,$,.F.,$,#96,.INSTALLATION.);
#98=IFCTASKTIME('Main electrical distribution Time',.PREDICTED.,$,.WORKTIME.,'P0Y0M8D','2027-03-01T07:00:00','2027-03-10T07:00:00','2027-07-08T07:00:00','2027-07-19T07:00:00','2027-07-08T07:00:00','2027-07-19T07:00:00','P0Y0M0D','P0Y0M0D',.T.,$,$,$,$,$,0.00);
#99=IFCTASK('bbO$kjRXV57LMroXG$Z9eL',#6,'Main electrical distribution',$,$,'4.1',$,$,$,.F.,$,#98,.INSTALLATION.);
#100=IFCTASKTIME('Lighting, parking levels Time',.PREDICTED.,$,.WORKTIME.,'P0Y0M10D','2027-03-01T07:00:00','2027-03-12T07:00:00','2027-07-20T07:00:00','2027-08-23T07:00:00','2027-07-20T07:00:00','2027-08-23T07:00:00','P0Y0M0D','P0Y0M0D',.T.,$,$,$,$,$,0.00);
#101=IFCTASK('N3FDpHGfgbjNbh2FrJl3xB',#6,'Lighting, parking levels',$,$,'4.2',$,$,$,.F.,$,#100,.INSTALLATION.);
#102=IFCTASKTIME('Ventilation and CO detection Time',.PREDICTED.,$,.WORKTIME.,'P0Y0M10D','2027-03-01T07:00:00','2027-03-12T07:00:00','2027-08-24T07:00:00','2027-09-06T07:00:00','2027-08-24T07:00:00','2027-09-06T07:00:00','P0Y0M0D','P0Y0M0D',.T.,$,$,$,$,$,0.00);
#103=IFCTASK('rNwDZfFdNlZdyTjnJxZNcF',#6,'Ventilation and CO detection',$,$,'4.3',$,$,$,.F.,$,#102,.INSTALLATION.);
#104=IFCTASKTIME('Sprinkler installation Time',.PREDICTED.,$,.WORKTIME.,'P0Y0M8D','2027-03-01T07:00:00','2027-03-10T07:00:00','2027-09-07T07:00:00','2027-09-16T07:00:00','2027-09-07T07:00:00','2027-09-16T07:00:00','P0Y0M0D','P0Y0M0D',.T.,$,$,$,$,$,0.00);
#105=IFCTASK('c5SzkDNfEnN5FPM$h7yhgp',#6,'Sprinkler installation',$,$,'4.4',$,$,$,.F.,$,#104,.INSTALLATION.);
#106=IFCTASKTIME('Parking guidance system Time',.PREDICTED.,$,.WORKTIME.,'P0Y0M5D','2027-03-01T07:00:00','2027-03-05T07:00:00','2027-09-17T07:00:00','2027-09-23T07:00:00','2027-09-17T07:00:00','2027-09-23T07:00:00','P0Y0M0D','P0Y0M0D',.T.,$,$,$,$,$,0.00);
#107=IFCTASK('Z3yrHxF7gdHjIlXXULvDuJ',#6,'Parking guidance system',$,$,'4.5',$,$,$,.F.,$,#106,.INSTALLATION.);
#108=IFCTASKTIME('Lift installation Time',.PREDICTED.,$,.WORKTIME.,'P0Y0M12D','2027-03-01T07:00:00','2027-03-16T07:00:00','2027-09-24T07:00:00','2027-10-11T07:00:00','2027-09-24T07:00:00','2027-10-11T07:00:00','P0Y0M0D','P0Y0M0D',.T.,$,$,$,$,$,0.00);
#109=IFCTASK('FrF5YtZ1UpYNNxalXDA37R',#6,'Lift installation',$,$,'4.6',$,$,$,.F.,$,#108,.INSTALLATION.);
#110=IFCTASKTIME('Fire alarm system Time',.PREDICTED.,$,.WORKTIME.,'P0Y0M5D','2027-03-01T07:00:00','2027-03-05T07:00:00','2027-10-12T07:00:00','2027-10-18T07:00:00','2027-10-12T07:00:00','2027-10-18T07:00:00','P0Y0M0D','P0Y0M0D',.T.,$,$,$,$,$,0.00);
#111=IFCTASK('Kx952vlvCPSj2vQH3JMNAz',#6,'Fire alarm system',$,$,'4.7',$,$,$,.F.,$,#110,.INSTALLATION.);
#112=IFCTASKTIME('5. Finishing Time',.PREDICTED.,$,.WORKTIME.,'P0Y0M5D','2027-03-01T07:00:00','2027-03-05T07:00:00','2027-10-19T07:00:00','2027-11-18T07:00:00','2027-10-19T07:00:00','2027-11-18T07:00:00','P0Y0M0D','P0Y0M0D',.T.,$,$,$,$,$,0.00);
#113=IFCTASK('2DwtoZ17kXR18tGXMndJgp',#6,'5. Finishing',$,$,'5',$,$,$,.F.,$,#112,.CONSTRUCTION.);
#114=IFCTASKTIME('Apply floor coating Time',.PREDICTED.,$,.WORKTIME.,'P0Y0M8D','2027-03-01T07:00:00','2027-03-10T07:00:00','2027-10-19T07:00:00','2027-10-28T07:00:00','2027-10-19T07:00:00','2027-10-28T07:00:00','P0Y0M0D','P0Y0M0D',.T.,$,$,$,$,$,0.00);
#115=IFCTASK('sNsZK9BHNbTdun5lKJYnBv',#6,'Apply floor coating',$,$,'5.1',$,$,$,.F.,$,#114,.CONSTRUCTION.);
#116=IFCTASKTIME('Road marking and signage Time',.PREDICTED.,$,.WORKTIME.,'P0Y0M5D','2027-03-01T07:00:00','2027-03-05T07:00:00','2027-10-29T07:00:00','2027-11-04T07:00:00','2027-10-29T07:00:00','2027-11-04T07:00:00','P0Y0M0D','P0Y0M0D',.T.,$,$,$,$,$,0.00);
#117=IFCTASK('RVL$wZW9zTMzRVDH717RzP',#6,'Road marking and signage',$,$,'5.2',$,$,$,.F.,$,#116,.CONSTRUCTION.);
#118=IFCTASKTIME('Access control barriers Time',.PREDICTED.,$,.WORKTIME.,'P0Y0M5D','2027-03-01T07:00:00','2027-03-05T07:00:00','2027-11-05T07:00:00','2027-11-11T07:00:00','2027-11-05T07:00:00','2027-11-11T07:00:00','P0Y0M0D','P0Y0M0D',.T.,$,$,$,$,$,0.00);
#119=IFCTASK('sNsTif9Nk1djUzFXTTyL2X',#6,'Access control barriers',$,$,'5.3',$,$,$,.F.,$,#118,.INSTALLATION.);
#120=IFCTASKTIME('Finish emergency exits Time',.PREDICTED.,$,.WORKTIME.,'P0Y0M5D','2027-03-01T07:00:00','2027-03-05T07:00:00','2027-11-12T07:00:00','2027-11-18T07:00:00','2027-11-12T07:00:00','2027-11-18T07:00:00','P0Y0M0D','P0Y0M0D',.T.,$,$,$,$,$,0.00);
#121=IFCTASK('xLobyz4HJL7DGBw$i$tBqz',#6,'Finish emergency exits',$,$,'5.4',$,$,$,.F.,$,#120,.CONSTRUCTION.);
#122=IFCTASKTIME('6. Surface reinstatement Time',.PREDICTED.,$,.WORKTIME.,'P0Y0M5D','2027-03-01T07:00:00','2027-03-05T07:00:00','2027-11-19T07:00:00','2027-12-17T07:00:00','2027-11-19T07:00:00','2027-12-17T07:00:00','P0Y0M0D','P0Y0M0D',.T.,$,$,$,$,$,0.00);
#123=IFCTASK('YTO1oZV7GpMnDZFVzj6dhN',#6,'6. Surface reinstatement',$,$,'6',$,$,$,.F.,$,#122,.CONSTRUCTION.);
#124=IFCTASKTIME('Redevelop the square Time',.PREDICTED.,$,.WORKTIME.,'P0Y0M10D','2027-03-01T07:00:00','2027-03-12T07:00:00','2027-11-19T07:00:00','2027-12-02T07:00:00','2027-11-19T07:00:00','2027-12-02T07:00:00','P0Y0M0D','P0Y0M0D',.T.,$,$,$,$,$,0.00);
#125=IFCTASK('CLb$gbRV7N2tX5u$sVztCF',#6,'Redevelop the square',$,$,'6.1',$,$,$,.F.,$,#124,.CONSTRUCTION.);
#126=IFCTASKTIME('Paving and landscaping Time',.PREDICTED.,$,.WORKTIME.,'P0Y0M8D','2027-03-01T07:00:00','2027-03-10T07:00:00','2027-12-03T07:00:00','2027-12-14T07:00:00','2027-12-03T07:00:00','2027-12-14T07:00:00','P0Y0M0D','P0Y0M0D',.T.,$,$,$,$,$,0.00);
#127=IFCTASK('mN8F134lV7rFZLUnnfgTVZ',#6,'Paving and landscaping',$,$,'6.2',$,$,$,.F.,$,#126,.CONSTRUCTION.);
#128=IFCTASKTIME('Remove traffic management Time',.PREDICTED.,$,.WORKTIME.,'P0Y0M3D','2027-03-01T07:00:00','2027-03-03T07:00:00','2027-12-15T07:00:00','2027-12-17T07:00:00','2027-12-15T07:00:00','2027-12-17T07:00:00','P0Y0M0D','P0Y0M0D',.T.,$,$,$,$,$,0.00);
#129=IFCTASK('Chp7bVjFWRhHzdM$T3eV09',#6,'Remove traffic management',$,$,'6.3',$,$,$,.F.,$,#128,.LOGISTIC.);
#130=IFCTASKTIME('Handover Time',.PREDICTED.,$,.WORKTIME.,'P0Y0M0D','2027-03-01T07:00:00','2027-03-01T07:00:00','2027-12-17T07:00:00','2027-12-17T07:00:00','2027-12-17T07:00:00','2027-12-17T07:00:00','P0Y0M0D','P0Y0M0D',.T.,$,$,$,$,$,0.00);
#131=IFCTASK('G7EnnrnPpv37o1N1n9c7hp',#6,'Handover',$,$,'6.4',$,$,$,.T.,$,#130,.CONSTRUCTION.);
#132=IFCRELNESTS('$poF1zqnSLHBytqFuT3fAd',#6,'WBS 1. Preparation',$,#43,( #45,#47,#49,#51,#53));
#133=IFCRELNESTS('DdMz_L4$4bLHDFFV7x2BC3',#6,'WBS 2. Excavation pit',$,#55,( #57,#59,#61,#63,#65,#67,#69,#71,#73,#75));
#134=IFCRELNESTS('e5yTSJ6VB3edaPw$8LuFjT',#6,'WBS 3. Concrete structure',$,#77,( #79,#81,#83,#85,#87,#89,#91,#93,#95));
#135=IFCRELNESTS('XZWfujDn2ZCTNbmVold5tn',#6,'WBS 4. Building services',$,#97,( #99,#101,#103,#105,#107,#109,#111));
#136=IFCRELNESTS('t92VmPcVjBR$O72nZ$j7XP',#6,'WBS 5. Finishing',$,#113,( #115,#117,#119,#121));
#137=IFCRELNESTS('NvqDLJYFIXzfDFXXej7bxB',#6,'WBS 6. Surface reinstatement',$,#123,( #125,#127,#129,#131));
#138=IFCRELNESTS('tjjP5r1vgdnD4TBHzDgTrv',#6,'WBS Hoofd',$,#40,(#43,#55,#77,#97,#113,#123));
#139=IFCRELSEQUENCE('P$HJR11dfHRVorkVwjVDC3',#6,$,$,#45,#47,$,.FINISH_START.,$);
#140=IFCRELSEQUENCE('MzvrDjRVlD8NFPkXsb2H9p',#6,$,$,#47,#49,$,.FINISH_START.,$);
#141=IFCRELSEQUENCE('5LIxY5c70rXbHTbHgH3fsZ',#6,$,$,#49,#51,$,.FINISH_START.,$);
#142=IFCRELSEQUENCE('kbxFLfO7aBxVw1hHnbtrCH',#6,$,$,#51,#53,$,.FINISH_START.,$);
#143=IFCRELSEQUENCE('uLIx_dxVTpOPWJ9$KXTfIP',#6,$,$,#57,#59,$,.FINISH_START.,$);
#144=IFCRELSEQUENCE('a3CpRbZlZ$M3hNSntdGf21',#6,$,$,#59,#61,$,.FINISH_START.,$);
#145=IFCRELSEQUENCE('K5XzQ9iXx5ljwVnVb1H39J',#6,$,$,#61,#63,$,.FINISH_START.,$);
#146=IFCRELSEQUENCE('WV5FRXjFmzm$8tGVm1hlHl',#6,$,$,#63,#65,$,.FINISH_START.,$);
#147=IFCRELSEQUENCE('gPOll$P9730nxFxHaf_riJ',#6,$,$,#65,#67,$,.FINISH_START.,$);
#148=IFCRELSEQUENCE('d1$TKNP95Fdru9WVhThlxB',#6,$,$,#67,#69,$,.FINISH_START.,$);
#149=IFCRELSEQUENCE('V1ljlb5XXvLlxRCHULVbln',#6,$,$,#69,#71,$,.FINISH_START.,$);
#150=IFCRELSEQUENCE('j5FprZ09XbZd8fSl5hOH5B',#6,$,$,#71,#73,$,.FINISH_START.,$);
#151=IFCRELSEQUENCE('ujjdJ$EtDPHJY31XWt6PDp',#6,$,$,#73,#75,$,.FINISH_START.,$);
#152=IFCRELSEQUENCE('bbOlPxUfyF$T9B618TTtOT',#6,$,$,#79,#81,$,.FINISH_START.,$);
#153=IFCRELSEQUENCE('xrY1_hy$SBR$eXJllvu12X',#6,$,$,#81,#83,$,.FINISH_START.,$);
#154=IFCRELSEQUENCE('$Fb$Y5Q7K9khsPYVTz0vZ9',#6,$,$,#83,#85,$,.FINISH_START.,$);
#155=IFCRELSEQUENCE('fz956TeP9BfZVFxHOjvbTN',#6,$,$,#85,#87,$,.FINISH_START.,$);
#156=IFCRELSEQUENCE('NZrX4Te7KJq5h3t1y7iJs3',#6,$,$,#87,#89,$,.FINISH_START.,$);
#157=IFCRELSEQUENCE('JxNbaDAdthBFrvYnPryhw$',#6,$,$,#89,#91,$,.FINISH_START.,$);
#158=IFCRELSEQUENCE('6BU$gVr$q3sl5RiHydOVOh',#6,$,$,#91,#93,$,.FINISH_START.,$);
#159=IFCRELSEQUENCE('ZXbH$PA1C3MnBvsH4vCpWv',#6,$,$,#93,#95,$,.FINISH_START.,$);
#160=IFCRELSEQUENCE('cxKbmt4$0BPJUfyFfJFZbV',#6,$,$,#99,#101,$,.FINISH_START.,$);
#161=IFCRELSEQUENCE('ezNbSH8d9$dJwDzFyvqRNz',#6,$,$,#101,#103,$,.FINISH_START.,$);
#162=IFCRELSEQUENCE('Yz4rr7Q7GT4D8nJnZ3eXaR',#6,$,$,#103,#105,$,.FINISH_START.,$);
#163=IFCRELSEQUENCE('uJ5XuJh16TgznpVVStEX4r',#6,$,$,#105,#107,$,.FINISH_START.,$);
#164=IFCRELSEQUENCE('J94ZGPA1yFXzdHTlKJMNkL',#6,$,$,#107,#109,$,.FINISH_START.,$);
#165=IFCRELSEQUENCE('aza3cJg1gbJfVnhH7XB1Mp',#6,$,$,#109,#111,$,.FINISH_START.,$);
#166=IFCRELSEQUENCE('VT09Yfffip8fJVlXrpz9ub',#6,$,$,#115,#117,$,.FINISH_START.,$);
#167=IFCRELSEQUENCE('b17r1T87UjcDSPc$Mnt3LJ',#6,$,$,#117,#119,$,.FINISH_START.,$);
#168=IFCRELSEQUENCE('ZVDPH$9NahlBGRmVW9oXub',#6,$,$,#119,#121,$,.FINISH_START.,$);
#169=IFCRELSEQUENCE('R$VzIFCV3TcDiX91eRgN61',#6,$,$,#125,#127,$,.FINISH_START.,$);
#170=IFCRELSEQUENCE('2HvZuhinIrPjMLoF_xLVCn',#6,$,$,#127,#129,$,.FINISH_START.,$);
#171=IFCRELSEQUENCE('If09AhJXrtUxvp3nWtYFpp',#6,$,$,#129,#131,$,.FINISH_START.,$);
#172=IFCLAGTIME('Lag',.PREDICTED.,$,IFCDURATION('P12D'),.WORKTIME.);
#173=IFCRELSEQUENCE('qt_Xap2Ng5NxlNylF9A9GF',#6,$,$,#45,#57,#172,.START_START.,$);
#174=IFCLAGTIME('Lag',.PREDICTED.,$,IFCRATIOMEASURE(0.4),.WORKTIME.);
#175=IFCRELSEQUENCE('2jgzQtyHJLdJYTrHTTijQL',#6,$,$,#57,#79,#174,.START_START.,$);
#176=IFCLAGTIME('Lag',.PREDICTED.,$,IFCDURATION('-P17D'),.WORKTIME.);
#177=IFCRELSEQUENCE('h3$TebElBzOP4fWVzlfhk7',#6,$,$,#95,#99,#176,.FINISH_START.,$);
#178=IFCLAGTIME('Lag',.PREDICTED.,$,IFCDURATION('P2D'),.WORKTIME.);
#179=IFCRELSEQUENCE('Oz1ZujDnAhHrqr61uL81A7',#6,$,$,#95,#111,#178,.FINISH_FINISH.,$);
#180=IFCRELSEQUENCE('eZz9QpItXdXzdFd$Wt_Hf3',#6,$,$,#111,#115,$,.FINISH_START.,$);
#181=IFCRELSEQUENCE('Oz95ABtfo5vhMf0XfpRnLf',#6,$,$,#121,#125,$,.FINISH_START.,$);
#182=IFCRELASSIGNSTOCONTROL('rDVhNjbXHjyDCF$VkTSruD',#6,$,$,(#43,#45,#47,#49,#51,#53,#55,#57,#59,#61,#63,#65,#67,#69,#71,#73,#75,#77,#79,#81,#83,#85,#87,#89,#91,#93,#95,#97,#99,#101,#103,#105,#107,#109,#111,#113,#115,#117,#119,#121,#123,#125,#127,#129,#131),$,#40);
#183=IFCPROPERTYSINGLEVALUE('InternalProjectId',$,IFCTEXT('proj-mtx91fpaewh51701'),$);
#184=IFCPROPERTYSINGLEVALUE('wbsAutoNumber',$,IFCBOOLEAN(.T.),$);
#185=IFCPROPERTYSINGLEVALUE('DefaultTaskDurationUnit',$,IFCLABEL('days'),$);
#186=IFCPROPERTYSINGLEVALUE('ProjectStartDate',$,IFCDATE('2027-03-01'),$);
#187=IFCPROPERTYSINGLEVALUE('ProjectEndDate',$,$,$);
#188=IFCPROPERTYSINGLEVALUE('CreatedAt',$,IFCTEXT('2026-09-11T17:47:45.214Z'),$);
#189=IFCPROPERTYSINGLEVALUE('ModifiedAt',$,IFCTEXT('2026-09-11T17:47:45.215Z'),$);
#190=IFCPROPERTYSET('e5a3ArlP$tNZvpDF1ZK5n5',#6,'OPS_ProjectSettings',$,(#183,#184,#185,#186,#187,#188,#189));
#191=IFCRELDEFINESBYPROPERTIES('0Hdzo1sPJhdjQlBF$1BF9l',#6,$,$,(#13),#190);
#192=IFCPROPERTYSINGLEVALUE('InternalTaskId',$,IFCTEXT('task-mtx91fpcor691702'),$);
#193=IFCPROPERTYSET('fTh$_BedJhXb3bmXgB4hAP',#6,'OPS_TaskIdentity',$,(#192));
#194=IFCRELDEFINESBYPROPERTIES('G7_XexYNKDmV27Yn5nPJIP',#6,$,$,(#43),#193);
#195=IFCPROPERTYSINGLEVALUE('InternalTaskId',$,IFCTEXT('task-mtx91fpdp9nb1703'),$);
#196=IFCPROPERTYSET('UVbHFn5FC3gnnDlVf9wPXT',#6,'OPS_TaskIdentity',$,(#195));
#197=IFCRELDEFINESBYPROPERTIES('fznD3vd9D5nDadkVk1pdpJ',#6,$,$,(#45),#196);
#198=IFCPROPERTYSINGLEVALUE('InternalTaskId',$,IFCTEXT('task-mtx91fpetd4h1704'),$);
#199=IFCPROPERTYSET('hZ3tcfe7WR51Wj7$Pr4Lgp',#6,'OPS_TaskIdentity',$,(#198));
#200=IFCRELDEFINESBYPROPERTIES('o7_VmtCVLPC5ZN0V5lzNAd',#6,$,$,(#47),#199);
#201=IFCPROPERTYSINGLEVALUE('InternalTaskId',$,IFCTEXT('task-mtx91fpfjtxb1705'),$);
#202=IFCPROPERTYSET('3p_XqRpn_NsHtLglwfoRvb',#6,'OPS_TaskIdentity',$,(#201));
#203=IFCRELDEFINESBYPROPERTIES('4nPzo3JVR1PJw$xlOjfh2T',#6,$,$,(#49),#202);
#204=IFCPROPERTYSINGLEVALUE('InternalTaskId',$,IFCTEXT('task-mtx91fpgkpua1706'),$);
#205=IFCPROPERTYSET('azyBB7UN89$xbrYV3pgZzB',#6,'OPS_TaskIdentity',$,(#204));
#206=IFCRELDEFINESBYPROPERTIES('TVpdNj3HZJSBOdg11$5XmV',#6,$,$,(#51),#205);
#207=IFCPROPERTYSINGLEVALUE('InternalTaskId',$,IFCTEXT('task-mtx91fphidro1707'),$);
#208=IFCPROPERTYSET('b$lJ1Z87cXUftr2XFxRFhN',#6,'OPS_TaskIdentity',$,(#207));
#209=IFCRELDEFINESBYPROPERTIES('KbZfSFCXrt6JsRe11zuF3h',#6,$,$,(#53),#208);
#210=IFCPROPERTYSINGLEVALUE('InternalTaskId',$,IFCTEXT('task-mtx91fpi9h2q1708'),$);
#211=IFCPROPERTYSET('ZTuVSpQvOPlJorA1znJ7$f',#6,'OPS_TaskIdentity',$,(#210));
#212=IFCRELDEFINESBYPROPERTIES('aVL1_rGNGpYNVlf$YdS3F$',#6,$,$,(#55),#211);
#213=IFCPROPERTYSINGLEVALUE('InternalTaskId',$,IFCTEXT('task-mtx91fpj8dcr1709'),$);
#214=IFCPROPERTYSET('Cr1Bb1$P9$nhIFLH$3Gtm$',#6,'OPS_TaskIdentity',$,(#213));
#215=IFCRELDEFINESBYPROPERTIES('JtCpb57tn3sHjXlXn5xlfZ',#6,$,$,(#57),#214);
#216=IFCPROPERTYSINGLEVALUE('InternalTaskId',$,IFCTEXT('task-mtx91fpkdnpu1710'),$);
#217=IFCPROPERTYSET('9fYLLpQvmDUfNRmVQ3vDSf',#6,'OPS_TaskIdentity',$,(#216));
#218=IFCRELDEFINESBYPROPERTIES('2DMPV9alPdSBWJP1PnNTFx',#6,$,$,(#59),#217);
#219=IFCPROPERTYSINGLEVALUE('InternalTaskId',$,IFCTEXT('task-mtx91fplemju1711'),$);
#220=IFCPROPERTYSET('ZTWfOZHPtrdJ6jFV11hlDl',#6,'OPS_TaskIdentity',$,(#219));
#221=IFCRELDEFINESBYPROPERTIES('aVztgx7tRLb1ulP1b5ERBZ',#6,$,$,(#61),#220);
#222=IFCPROPERTYSINGLEVALUE('InternalTaskId',$,IFCTEXT('task-mtx91fpnh2ao1712'),$);
#223=IFCPROPERTYSET('R1HjvvHva1VRdlhFjNwjMJ',#6,'OPS_TaskIdentity',$,(#222));
#224=IFCRELDEFINESBYPROPERTIES('iRTNyzyHBfMn$rs1BJ9rWv',#6,$,$,(#63),#223);
#225=IFCPROPERTYSINGLEVALUE('InternalTaskId',$,IFCTEXT('task-mtx91fpoi0wm1713'),$);
#226=IFCPROPERTYSET('CrfJLNmf6ZkLYzf1kVPJEN',#6,'OPS_TaskIdentity',$,(#225));
#227=IFCRELDEFINESBYPROPERTIES('JtC5oVYnwlePytKnoFr$AP',#6,$,$,(#65),#226);
#228=IFCPROPERTYSINGLEVALUE('InternalTaskId',$,IFCTEXT('task-mtx91fpp6yys1714'),$);
#229=IFCPROPERTYSET('k5npvre7OnCTVFjFDhNTvf',#6,'OPS_TaskIdentity',$,(#228));
#230=IFCRELDEFINESBYPROPERTIES('rfobyXUn_TqxLzFVT3OVyd',#6,$,$,(#67),#229);
#231=IFCPROPERTYSINGLEVALUE('InternalTaskId',$,IFCTEXT('task-mtx91fpqal1g1715'),$);
#232=IFCPROPERTYSET('KPWNSHGNQpePCrA$TV$x5n',#6,'OPS_TaskIdentity',$,(#231));
#233=IFCRELDEFINESBYPROPERTIES('RRWNORoHxxXznpt1$z8FTx',#6,$,$,(#69),#232);
#234=IFCPROPERTYSINGLEVALUE('InternalTaskId',$,IFCTEXT('task-mtx91fprba3m1716'),$);
#235=IFCPROPERTYSET('IbxFFr7t792bTBoXejXDmF',#6,'OPS_TaskIdentity',$,(#234));
#236=IFCRELDEFINESBYPROPERTIES('BtIlNDv9HJiRHTbHglpPtH',#6,$,$,(#71),#235);
#237=IFCPROPERTYSINGLEVALUE('InternalTaskId',$,IFCTEXT('task-mtx91fps1yjb1717'),$);
#238=IFCPROPERTYSET('NPun7Pr181sTFPw$CFNZzB',#6,'OPS_TaskIdentity',$,(#237));
#239=IFCRELDEFINESBYPROPERTIES('YZuFBPA$uVIPqhInmFj7N3',#6,$,$,(#73),#238);
#240=IFCPROPERTYSINGLEVALUE('InternalTaskId',$,IFCTEXT('task-mtx91fpt0y9z1718'),$);
#241=IFCPROPERTYSET('TVRlH$1dDvjfbLMlQdOVaf',#6,'OPS_TaskIdentity',$,(#240));
#242=IFCRELDEFINESBYPROPERTIES('M395AnZ$ER37EXRnG$Dd9n',#6,$,$,(#75),#241);
#243=IFCPROPERTYSINGLEVALUE('InternalTaskId',$,IFCTEXT('task-mtx91fpvx1i61719'),$);
#244=IFCPROPERTYSET('_nBFZREl$BLHvpbHIVXbPB',#6,'OPS_TaskIdentity',$,(#243));
#245=IFCRELDEFINESBYPROPERTIES('9JZfuh4HV7JfvJ1VCHrF9l',#6,$,$,(#77),#244);
#246=IFCPROPERTYSINGLEVALUE('InternalTaskId',$,IFCTEXT('task-mtx91fpwye3m1720'),$);
#247=IFCPROPERTYSET('vh_rZxsPbXhlpFN1fD5lxL',#6,'OPS_TaskIdentity',$,(#246));
#248=IFCRELDEFINESBYPROPERTIES('0nBFb1tNevLHbB6$GFTfQH',#6,$,$,(#79),#247);
#249=IFCPROPERTYSINGLEVALUE('InternalTaskId',$,IFCTEXT('task-mtx91fpxdxf11721'),$);
#250=IFCPROPERTYSET('KdOlDnaHTVsHFP6$qT4hkB',#6,'OPS_TaskIdentity',$,(#249));
#251=IFCRELDEFINESBYPROPERTIES('RbOl9zbn2z87wX1XKVhXeh',#6,$,$,(#81),#250);
#252=IFCPROPERTYSINGLEVALUE('InternalTaskId',$,IFCTEXT('task-mtx91fpybcol1722'),$);
#253=IFCPROPERTYSET('B9cfurGfSVZ9HZ3n0dSzbR',#6,'OPS_TaskIdentity',$,(#252));
#254=IFCRELDEFINESBYPROPERTIES('4jYL7LS$srDP0zZHexMZpp',#6,$,$,(#83),#253);
#255=IFCPROPERTYSINGLEVALUE('InternalTaskId',$,IFCTEXT('task-mtx91fpzy4vh1723'),$);
#256=IFCPROPERTYSET('6lhHZN79TXIPWjVVI1BFLf',#6,'OPS_TaskIdentity',$,(#255));
#257=IFCRELDEFINESBYPROPERTIES('pL39kFCVLvmVUz7$zjEVqZ',#6,$,$,(#85),#256);
#258=IFCPROPERTYSINGLEVALUE('InternalTaskId',$,IFCTEXT('task-mtx91fq1yuii1724'),$);
#259=IFCPROPERTYSET('CLjPNDVPNb3v6jN$Mh07DH',#6,'OPS_TaskIdentity',$,(#258));
#260=IFCRELDEFINESBYPROPERTIES('jfmv7dxXrt_bb$911ZyZb1',#6,$,$,(#87),#259);
#261=IFCPROPERTYSINGLEVALUE('InternalTaskId',$,IFCTEXT('task-mtx91fq2hi5j1725'),$);
#262=IFCPROPERTYSET('O31ZiNFPXbjfLZblQdu$_X',#6,'OPS_TaskIdentity',$,(#261));
#263=IFCRELDEFINESBYPROPERTIES('HbBVe567cjSBu9e1CHpd$p',#6,$,$,(#89),#262);
#264=IFCPROPERTYSINGLEVALUE('InternalTaskId',$,IFCTEXT('task-mtx91fq3ise71726'),$);
#265=IFCPROPERTYSET('mvAv1TGNcji335ilyhNTHL',#6,'OPS_TaskIdentity',$,(#264));
#266=IFCRELDEFINESBYPROPERTIES('tNwDnHHdNx9RnJDl1TKx5l',#6,$,$,(#91),#265);
#267=IFCPROPERTYSINGLEVALUE('InternalTaskId',$,IFCTEXT('task-mtx91fq5xi9c1727'),$);
#268=IFCPROPERTYSET('IfelLj6X$LVbPnXXW9UnZb',#6,'OPS_TaskIdentity',$,(#267));
#269=IFCRELDEFINESBYPROPERTIES('dR09_h4$89t3N7_FDv81g9',#6,$,$,(#93),#268);
#270=IFCPROPERTYSINGLEVALUE('InternalTaskId',$,IFCTEXT('task-mtx91fq6406r1728'),$);
#271=IFCPROPERTYSET('n72XWVTHDvRX_d2XBDJvrT',#6,'OPS_TaskIdentity',$,(#270));
#272=IFCRELDEFINESBYPROPERTIES('uhAZKf$7ERZPibKHiDMTX3',#6,$,$,(#95),#271);
#273=IFCPROPERTYSINGLEVALUE('InternalTaskId',$,IFCTEXT('task-mtx91fq742yi1729'),$);
#274=IFCPROPERTYSET('tp1BXJkHvZSryfmVyhXbn1',#6,'OPS_TaskIdentity',$,(#273));
#275=IFCRELDEFINESBYPROPERTIES('mtSLND9fKJibxlf$kXfTLf',#6,$,$,(#97),#274);
#276=IFCPROPERTYSINGLEVALUE('InternalTaskId',$,IFCTEXT('task-mtx91fq9eimt1730'),$);
#277=IFCPROPERTYSET('_pY$oZVvijaJM9SHDPSzfT',#6,'OPS_TaskIdentity',$,(#276));
#278=IFCRELDEFINESBYPROPERTIES('xH5Xy1YNWbz7wX1Xqz075h',#6,$,$,(#99),#277);
#279=IFCPROPERTYSINGLEVALUE('InternalTaskId',$,IFCTEXT('task-mtx91fqauwbp1731'),$);
#280=IFCPROPERTYSET('qhhHpn4$iJC5lfCnClj7VP',#6,'OPS_TaskIdentity',$,(#279));
#281=IFCRELDEFINESBYPROPERTIES('JN8F5lFd$hvDOP_Vtd8n7f',#6,$,$,(#101),#280);
#282=IFCPROPERTYSINGLEVALUE('InternalTaskId',$,IFCTEXT('task-mtx91fqbro0m1732'),$);
#283=IFCPROPERTYSET('OxSzUtz$iDO9VRqH_fob1f',#6,'OPS_TaskIdentity',$,(#282));
#284=IFCRELDEFINESBYPROPERTIES('X34BZ5_fA9HBy31VObs9ez',#6,$,$,(#103),#283);
#285=IFCPROPERTYSINGLEVALUE('InternalTaskId',$,IFCTEXT('task-mtx91fqd70ad1733'),$);
#286=IFCPROPERTYSET('3D69M$dt5FnpCrUXXlH3Lj',#6,'OPS_TaskIdentity',$,(#285));
#287=IFCRELDEFINESBYPROPERTIES('4FHRifHP5nN57jHXFR9BWd',#6,$,$,(#105),#286);
#288=IFCPROPERTYSINGLEVALUE('InternalTaskId',$,IFCTEXT('task-mtx91fqf7rp11734'),$);
#289=IFCPROPERTYSET('0H7TKhjXnlWl3dA1xL0vpn',#6,'OPS_TaskIdentity',$,(#288));
#290=IFCRELDEFINESBYPROPERTIES('7FXh5hBH7ZKRxH1X8h07pl',#6,$,$,(#107),#289);
#291=IFCPROPERTYSINGLEVALUE('InternalTaskId',$,IFCTEXT('task-mtx91fqg756d1735'),$);
#292=IFCPROPERTYSET('od2BFBV7ip8fPTXV8ra3f3',#6,'OPS_TaskIdentity',$,(#291));
#293=IFCRELDEFINESBYPROPERTIES('7rEnFLZ1IB$xTNu1ojI$Uj',#6,$,$,(#109),#292);
#294=IFCPROPERTYSINGLEVALUE('InternalTaskId',$,IFCTEXT('task-mtx91fqhmce61736'),$);
#295=IFCPROPERTYSET('FBnxALjVZDm$GbGXQ3fTtl',#6,'OPS_TaskIdentity',$,(#294));
#296=IFCRELDEFINESBYPROPERTIES('M7iRq5VP5H37knhHlrLHfT',#6,$,$,(#111),#295);
#297=IFCPROPERTYSINGLEVALUE('InternalTaskId',$,IFCTEXT('task-mtx91fqjmug51737'),$);
#298=IFCPROPERTYSET('XV5nHb3HPDgFjpRHElvb37',#6,'OPS_TaskIdentity',$,(#297));
#299=IFCRELDEFINESBYPROPERTIES('e3ljxlv9$Bb$O$VXm$DdTb',#6,$,$,(#113),#298);
#300=IFCPROPERTYSINGLEVALUE('InternalTaskId',$,IFCTEXT('task-mtx91fqk5kvl1738'),$);
#301=IFCPROPERTYSET('PR0tALJXBt6jMBw$OpLVmX',#6,'OPS_TaskIdentity',$,(#300));
#302=IFCRELDEFINESBYPROPERTIES('WXTf8jDnwTATBjzlw9k$UD',#6,$,$,(#115),#301);
#303=IFCPROPERTYSINGLEVALUE('InternalTaskId',$,IFCTEXT('task-mtx91fqm99tl1739'),$);
#304=IFCPROPERTYSET('upFxgbDn2fcVsxinQvS3xr',#6,'OPS_TaskIdentity',$,(#303));
#305=IFCRELDEFINESBYPROPERTIES('FBdzMXjFKf614Z5HSN2r4v',#6,$,$,(#117),#304);
#306=IFCPROPERTYSINGLEVALUE('InternalTaskId',$,IFCTEXT('task-mtx91fqnme1k1740'),$);
#307=IFCPROPERTYSET('db09srNfK9Ih_pv$IzWPXT',#6,'OPS_TaskIdentity',$,(#306));
#308=IFCRELDEFINESBYPROPERTIES('WXZNup7thpYN9BUVbXbn7N',#6,$,$,(#119),#307);
#309=IFCPROPERTYSINGLEVALUE('InternalTaskId',$,IFCTEXT('task-mtx91fqp4gu61741'),$);
#310=IFCPROPERTYSET('Y3SzQJIHfbTPy9CFWtc7zd',#6,'OPS_TaskIdentity',$,(#309));
#311=IFCRELDEFINESBYPROPERTIES('RVrV0FjV1fzN7DDn7X5l9J',#6,$,$,(#121),#310);
#312=IFCPROPERTYSINGLEVALUE('InternalTaskId',$,IFCTEXT('task-mtx91fqqkkcx1742'),$);
#313=IFCPROPERTYSET('1F5VWVzHdp_9$rc$MnVbfz',#6,'OPS_TaskIdentity',$,(#312));
#314=IFCRELDEFINESBYPROPERTIES('8JxVaFSHt1HrClbFS5RFN1',#6,$,$,(#123),#313);
#315=IFCPROPERTYSINGLEVALUE('InternalTaskId',$,IFCTEXT('task-mtx91fqs27to1743'),$);
#316=IFCPROPERTYSET('HRz9_7P9b1FL_J5FQvqbR5',#6,'OPS_TaskIdentity',$,(#315));
#317=IFCRELDEFINESBYPROPERTIES('At2VKNHPBNcXQFFXZ3Gt8J',#6,$,$,(#125),#316);
#318=IFCPROPERTYSINGLEVALUE('InternalTaskId',$,IFCTEXT('task-mtx91fqvifmp1744'),$);
#319=IFCPROPERTYSET('DPM3Y9LHJt1xvD3FiJ2HHH',#6,'OPS_TaskIdentity',$,(#318));
#320=IFCRELDEFINESBYPROPERTIES('wBEnxHlPHX6$unjFDrZtKV',#6,$,$,(#127),#319);
#321=IFCPROPERTYSINGLEVALUE('InternalTaskId',$,IFCTEXT('task-mtx91fqy42pj1745'),$);
#322=IFCPROPERTYSET('lbh$2rmfILhHLTLHPH3fwR',#6,'OPS_TaskIdentity',$,(#321));
#323=IFCRELDEFINESBYPROPERTIES('AtgPJXwVhDsHVnjnxHBn9F',#6,$,$,(#129),#322);
#324=IFCPROPERTYSINGLEVALUE('InternalTaskId',$,IFCTEXT('task-mtx91fr1cs7k1746'),$);
#325=IFCPROPERTYSET('JtKjNnqXL7OdCL_Fdlzf6x',#6,'OPS_TaskIdentity',$,(#324));
#326=IFCRELDEFINESBYPROPERTIES('QxKJB7E9pP9bdHjlBN_rSx',#6,$,$,(#131),#325);
#327=IFCPROPERTYSINGLEVALUE('MilestoneKind',$,IFCLABEL('START'),$);
#328=IFCPROPERTYSET('gP0tgxH7CZMzXRqlY78nB7',#6,'OPS_Milestone',$,(#327));
#329=IFCRELDEFINESBYPROPERTIES('Hxdh5hpVbLZt1hEFk$zNYl',#6,$,$,(#53),#328);
#330=IFCPROPERTYSINGLEVALUE('MilestoneKind',$,IFCLABEL('FINISH'),$);
#331=IFCPROPERTYSINGLEVALUE('Mandatory',$,IFCBOOLEAN(.T.),$);
#332=IFCPROPERTYSET('4n9ptzJVH16JA5ylBNERfZ',#6,'OPS_Milestone',$,(#330,#331));
#333=IFCRELDEFINESBYPROPERTIES('ZzyTy$wv_fgFp3hFZV7piJ',#6,$,$,(#131),#332);
ENDSEC;
END-ISO-10303-21;
