ISO-10303-21;
HEADER;
FILE_DESCRIPTION(('ViewDefinition [SchedulingView]'),'2;1');
FILE_NAME('Logistics Warehouse, Venlo.ifc','2026-09-11T17:47:45',('Kees van der Berg'),('Limburg Hall Construction BV'),'Open Planner Studio 0.1','Open Planner Studio','');
FILE_SCHEMA(('IFC4X3'));
ENDSEC;
DATA;
#1=IFCPERSON($,'Kees van der Berg',$,$,$,$,$,$);
#2=IFCORGANIZATION($,'Limburg Hall Construction BV',$,$,$);
#3=IFCPERSONANDORGANIZATION(#1,#2,$);
#4=IFCORGANIZATION($,'OpenAEC Foundation',$,$,$);
#5=IFCAPPLICATION(#4,'0.1','Open Planner Studio','OPS');
#6=IFCOWNERHISTORY(#3,#5,$,.NOCHANGE.,$,$,$,1789148865);
#7=IFCSIUNIT(*,.LENGTHUNIT.,$,.METRE.);
#8=IFCSIUNIT(*,.TIMEUNIT.,$,.SECOND.);
#9=IFCUNITASSIGNMENT((#7,#8));
#10=IFCCARTESIANPOINT((0.,0.,0.));
#11=IFCAXIS2PLACEMENT3D(#10,$,$);
#12=IFCGEOMETRICREPRESENTATIONCONTEXT($,'Plan',3,1.0E-05,#11,$);
#13=IFCPROJECT('9fgzcjIlZJ4Lklf$EFTNox',#6,'Logistics Warehouse, Venlo','10,000 m2 logistics warehouse with office space',$,$,$,(#12),#9);
#14=IFCTIMEPERIOD('07:00:00','16:00:00');
#15=IFCRECURRENCEPATTERN(.WEEKLY.,$,(1,2,3,4,5),$,$,$,$,(#14));
#16=IFCWORKTIME('Standard work week',.PREDICTED.,$,#15,$,$);
#17=IFCWORKTIME('New Year''s Day',.PREDICTED.,$,$,'2027-01-01','2027-01-01');
#18=IFCWORKTIME('Good Friday',.PREDICTED.,$,$,'2027-03-26','2027-03-26');
#19=IFCWORKTIME('Easter',.PREDICTED.,$,$,'2027-03-28','2027-03-29');
#20=IFCWORKTIME('King''s Day',.PREDICTED.,$,$,'2027-04-27','2027-04-27');
#21=IFCWORKTIME('Liberation Day',.PREDICTED.,$,$,'2027-05-05','2027-05-05');
#22=IFCWORKTIME('Ascension Day',.PREDICTED.,$,$,'2027-05-06','2027-05-06');
#23=IFCWORKTIME('Whitsun',.PREDICTED.,$,$,'2027-05-16','2027-05-17');
#24=IFCWORKTIME('Christmas',.PREDICTED.,$,$,'2027-12-25','2027-12-26');
#25=IFCWORKTIME('Construction holiday (northern region)',.PREDICTED.,$,$,'2027-07-26','2027-08-15');
#26=IFCWORKTIME('New Year''s Day',.PREDICTED.,$,$,'2028-01-01','2028-01-01');
#27=IFCWORKTIME('Good Friday',.PREDICTED.,$,$,'2028-04-14','2028-04-14');
#28=IFCWORKTIME('Easter',.PREDICTED.,$,$,'2028-04-16','2028-04-17');
#29=IFCWORKTIME('King''s Day',.PREDICTED.,$,$,'2028-04-27','2028-04-27');
#30=IFCWORKTIME('Liberation Day',.PREDICTED.,$,$,'2028-05-05','2028-05-05');
#31=IFCWORKTIME('Ascension Day',.PREDICTED.,$,$,'2028-05-25','2028-05-25');
#32=IFCWORKTIME('Whitsun',.PREDICTED.,$,$,'2028-06-04','2028-06-05');
#33=IFCWORKTIME('Christmas',.PREDICTED.,$,$,'2028-12-25','2028-12-26');
#34=IFCWORKTIME('Construction holiday (northern region)',.PREDICTED.,$,$,'2028-07-24','2028-08-13');
#35=IFCWORKCALENDAR('_HlbW$VPl1Yxnv_nBDbFBd',#6,'Construction calendar NL','Standard construction calendar: Mon-Fri 07:00-16:00',$,(#16),(#17,#18,#19,#20,#21,#22,#23,#24,#25,#26,#27,#28,#29,#30,#31,#32,#33,#34),.FIRSTSHIFT.);
#36=IFCPROPERTYSINGLEVALUE('HoursPerDay',$,IFCREAL(8),$);
#37=IFCPROPERTYSET('qL5XmPUFgdlJ6X9$WtAtOZ',#6,'OPS_Calendar',$,(#36));
#38=IFCRELDEFINESBYPROPERTIES('bXh12hy$qvOdOP_VbbYntl',#6,$,$,(#35),#37);
#39=IFCWORKPLAN('V1NbuBmfsLlBqhAlWtQ7fz',#6,'Logistics Warehouse, Venlo','10,000 m2 logistics warehouse with office space',$,$,'2026-09-11T17:47:45',$,$,$,$,$,'2027-03-01T07:00:00','2027-03-16T07:00:00',.PLANNED.);
#40=IFCWORKSCHEDULE('yFHb8pHvmZi35npn1zOH1t',#6,'Construction schedule v1.0',$,$,$,'2026-09-11T17:47:45',$,$,$,$,$,'2027-03-01T07:00:00','2027-03-16T07:00:00',.PLANNED.);
#41=IFCRELAGGREGATES('X$Ph9TPtbVDd8te$ftI1sz',#6,$,$,#39,(#40));
#42=IFCTASKTIME('1. Preparation Time',.PREDICTED.,$,.WORKTIME.,'P0Y0M5D','2027-03-01T07:00:00','2027-03-05T07:00:00','2027-03-01T07:00:00','2027-03-18T07:00:00','2027-03-01T07:00:00','2027-09-03T07:00:00','P0Y0M0D','P0Y0M0D',.T.,$,$,$,$,$,0.00);
#43=IFCTASK('R1Vz_PRV3l0nttaFJtgfwx',#6,'1. Preparation',$,$,'1',$,$,$,.F.,$,#42,.CONSTRUCTION.);
#44=IFCTASKTIME('Site ready for construction Time',.PREDICTED.,$,.WORKTIME.,'P0Y0M5D','2027-03-01T07:00:00','2027-03-05T07:00:00','2027-03-01T07:00:00','2027-03-05T07:00:00','2027-03-01T07:00:00','2027-03-05T07:00:00','P0Y0M0D','P0Y0M0D',.T.,$,$,$,$,$,0.00);
#45=IFCTASK('pLJdvhaHxxHJIbKnMHTtW7',#6,'Site ready for construction',$,$,'1.1',$,$,$,.F.,$,#44,.CONSTRUCTION.);
#46=IFCTASKTIME('Sewerage and utility connections Time',.PREDICTED.,$,.WORKTIME.,'P0Y0M8D','2027-03-01T07:00:00','2027-03-10T07:00:00','2027-03-08T07:00:00','2027-03-17T07:00:00','2027-08-24T07:00:00','2027-09-02T07:00:00','P0Y0M0D','P0Y0M100D',.F.,$,$,$,$,$,0.00);
#47=IFCTASK('_JgzsLpVj91x3d2Xrjtrez',#6,'Sewerage and utility connections',$,$,'1.2',$,$,$,.F.,$,#46,.INSTALLATION.);
#48=IFCTASKTIME('Start of construction Time',.PREDICTED.,$,.WORKTIME.,'P0Y0M0D','2027-03-01T07:00:00','2027-03-01T07:00:00','2027-03-18T07:00:00','2027-03-18T07:00:00','2027-09-03T07:00:00','2027-09-03T07:00:00','P0Y0M100D','P0Y0M100D',.F.,$,$,$,$,$,0.00);
#49=IFCTASK('7hkxcjg1kLjvYZbHkz8Fhf',#6,'Start of construction',$,$,'1.3',$,$,$,.T.,$,#48,.CONSTRUCTION.);
#50=IFCTASKTIME('2. Foundations Time',.PREDICTED.,$,.WORKTIME.,'P0Y0M5D','2027-03-01T07:00:00','2027-03-05T07:00:00','2027-03-10T07:00:00','2027-04-13T07:00:00','2027-03-10T07:00:00','2027-09-03T07:00:00','P0Y0M0D','P0Y0M0D',.T.,$,$,$,$,$,0.00);
#51=IFCTASK('eTz9YN$vANZtVxmV8TT94P',#6,'2. Foundations',$,$,'2',$,$,$,.F.,$,#50,.CONSTRUCTION.);
#52=IFCTASKTIME('Ground improvement Time',.PREDICTED.,$,.WORKTIME.,'P0Y0M5D','2027-03-01T07:00:00','2027-03-05T07:00:00','2027-03-10T07:00:00','2027-03-16T07:00:00','2027-03-10T07:00:00','2027-03-16T07:00:00','P0Y0M0D','P0Y0M0D',.T.,$,$,$,$,$,0.00);
#53=IFCTASK('3JMz_7$dznCxrDHVlrLHT9',#6,'Ground improvement',$,$,'2.1',$,$,$,.F.,$,#52,.CONSTRUCTION.);
#54=IFCTASKTIME('Pour strip foundations Time',.PREDICTED.,$,.WORKTIME.,'P0Y0M10D','2027-03-01T07:00:00','2027-03-12T07:00:00','2027-03-17T07:00:00','2027-04-01T07:00:00','2027-07-21T07:00:00','2027-08-24T07:00:00','P0Y0M0D','P0Y0M84D',.F.,$,$,$,$,$,0.00);
#55=IFCTASK('SZ09wzCVz3Mn5ld1TVPj_z',#6,'Pour strip foundations',$,$,'2.2',$,$,$,.F.,$,#54,.CONSTRUCTION.);
#56=IFCTASKTIME('Prepare shallow-founded slab Time',.PREDICTED.,$,.WORKTIME.,'P0Y0M8D','2027-03-01T07:00:00','2027-03-10T07:00:00','2027-04-02T07:00:00','2027-04-13T07:00:00','2027-08-25T07:00:00','2027-09-03T07:00:00','P0Y0M84D','P0Y0M84D',.F.,$,$,$,$,$,0.00);
#57=IFCTASK('cxKjxn3$qT2bb1VVa5pd7f',#6,'Prepare shallow-founded slab',$,$,'2.3',$,$,$,.F.,$,#56,.CONSTRUCTION.);
#58=IFCTASKTIME('3. Steel structure Time',.PREDICTED.,$,.WORKTIME.,'P0Y0M5D','2027-03-01T07:00:00','2027-03-05T07:00:00','2027-03-12T07:00:00','2027-04-22T07:00:00','2027-03-12T07:00:00','2027-09-03T07:00:00','P0Y0M0D','P0Y0M0D',.T.,$,$,$,$,$,0.00);
#59=IFCTASK('m9yZGvUNShdJklv1zDMZ$p',#6,'3. Steel structure',$,$,'3',$,$,$,.F.,$,#58,.CONSTRUCTION.);
#60=IFCTASKTIME('Erect steel columns Time',.PREDICTED.,$,.WORKTIME.,'P0Y0M8D','2027-03-01T07:00:00','2027-03-10T07:00:00','2027-03-12T07:00:00','2027-03-23T07:00:00','2027-03-12T07:00:00','2027-03-23T07:00:00','P0Y0M0D','P0Y0M0D',.T.,$,$,$,$,$,0.00);
#61=IFCTASK('QXZN8rePhdSJcFlVTV$59l',#6,'Erect steel columns',$,$,'3.1',$,$,$,.F.,$,#60,.CONSTRUCTION.);
#62=IFCTASKTIME('Erect steel trusses Time',.PREDICTED.,$,.WORKTIME.,'P0Y0M10D','2027-03-01T07:00:00','2027-03-12T07:00:00','2027-03-24T07:00:00','2027-04-08T07:00:00','2027-03-24T07:00:00','2027-04-08T07:00:00','P0Y0M0D','P0Y0M0D',.T.,$,$,$,$,$,0.00);
#63=IFCTASK('cRO$ABffmZ4hMhkFCHhlrZ',#6,'Erect steel trusses',$,$,'3.2',$,$,$,.F.,$,#62,.CONSTRUCTION.);
#64=IFCTASKTIME('Purlins and wind bracing Time',.PREDICTED.,$,.WORKTIME.,'P0Y0M5D','2027-03-01T07:00:00','2027-03-05T07:00:00','2027-04-09T07:00:00','2027-04-15T07:00:00','2027-04-09T07:00:00','2027-04-15T07:00:00','P0Y0M0D','P0Y0M0D',.T.,$,$,$,$,$,0.00);
#65=IFCTASK('4DA7VJcXz3w1SPQ$wJ$jcl',#6,'Purlins and wind bracing',$,$,'3.3',$,$,$,.F.,$,#64,.CONSTRUCTION.);
#66=IFCTASKTIME('Install crane runway Time',.PREDICTED.,$,.WORKTIME.,'P0Y0M5D','2027-03-01T07:00:00','2027-03-05T07:00:00','2027-04-16T07:00:00','2027-04-22T07:00:00','2027-04-16T07:00:00','2027-04-22T07:00:00','P0Y0M0D','P0Y0M0D',.T.,$,$,$,$,$,0.00);
#67=IFCTASK('PVJvt$kt5HZdKxGV0PyTnR',#6,'Install crane runway',$,$,'3.4',$,$,$,.F.,$,#66,.INSTALLATION.);
#68=IFCTASKTIME('Topping out Time',.PREDICTED.,$,.WORKTIME.,'P0Y0M0D','2027-03-01T07:00:00','2027-03-01T07:00:00','2027-04-22T07:00:00','2027-04-22T07:00:00','2027-09-03T07:00:00','2027-09-03T07:00:00','P0Y0M77D','P0Y0M77D',.F.,$,$,$,$,$,0.00);
#69=IFCTASK('ixHjLf0t$rBFtfmV_5bnht',#6,'Topping out',$,$,'3.5',$,$,$,.T.,$,#68,.CONSTRUCTION.);
#70=IFCTASKTIME('4. Facade & roof Time',.PREDICTED.,$,.WORKTIME.,'P0Y0M5D','2027-03-01T07:00:00','2027-03-05T07:00:00','2027-04-15T07:00:00','2027-06-03T07:00:00','2027-04-15T07:00:00','2027-09-03T07:00:00','P0Y0M0D','P0Y0M0D',.T.,$,$,$,$,$,0.00);
#71=IFCTASK('T$nDbxVPBtcpyZhl3l1Jgp',#6,'4. Facade & roof',$,$,'4',$,$,$,.F.,$,#70,.CONSTRUCTION.);
#72=IFCTASKTIME('Sandwich roof decking Time',.PREDICTED.,$,.WORKTIME.,'P0Y0M10D','2027-03-01T07:00:00','2027-03-12T07:00:00','2027-04-15T07:00:00','2027-04-29T07:00:00','2027-04-15T07:00:00','2027-04-29T07:00:00','P0Y0M0D','P0Y0M0D',.T.,$,$,$,$,$,0.00);
#73=IFCTASK('m94Z0l17UjU5h3XVcTrFzB',#6,'Sandwich roof decking',$,$,'4.1',$,$,$,.F.,$,#72,.INSTALLATION.);
#74=IFCTASKTIME('Facade cladding Time',.PREDICTED.,$,.WORKTIME.,'P0Y0M12D','2027-03-01T07:00:00','2027-03-16T07:00:00','2027-04-30T07:00:00','2027-05-20T07:00:00','2027-04-30T07:00:00','2027-05-20T07:00:00','P0Y0M0D','P0Y0M0D',.T.,$,$,$,$,$,0.00);
#75=IFCTASK('T$7BjzpX$L$5J1blEHdx7N',#6,'Facade cladding',$,$,'4.2',$,$,$,.F.,$,#74,.INSTALLATION.);
#76=IFCTASKTIME('Overhead doors Time',.PREDICTED.,$,.WORKTIME.,'P0Y0M5D','2027-03-01T07:00:00','2027-03-05T07:00:00','2027-05-21T07:00:00','2027-05-27T07:00:00','2027-05-21T07:00:00','2027-05-27T07:00:00','P0Y0M0D','P0Y0M0D',.T.,$,$,$,$,$,0.00);
#77=IFCTASK('UVBX8jzlX7JNVnpFZ1BnHr',#6,'Overhead doors',$,$,'4.3',$,$,$,.F.,$,#76,.INSTALLATION.);
#78=IFCTASKTIME('Roof lights Time',.PREDICTED.,$,.WORKTIME.,'P0Y0M5D','2027-03-01T07:00:00','2027-03-05T07:00:00','2027-05-28T07:00:00','2027-06-03T07:00:00','2027-05-28T07:00:00','2027-06-03T07:00:00','P0Y0M0D','P0Y0M0D',.T.,$,$,$,$,$,0.00);
#79=IFCTASK('NPWfG9KV5xtRHz9$4dOX09',#6,'Roof lights',$,$,'4.4',$,$,$,.F.,$,#78,.INSTALLATION.);
#80=IFCTASKTIME('Wind and weathertight Time',.PREDICTED.,$,.WORKTIME.,'P0Y0M0D','2027-03-01T07:00:00','2027-03-01T07:00:00','2027-06-03T07:00:00','2027-06-03T07:00:00','2027-09-03T07:00:00','2027-09-03T07:00:00','P0Y0M51D','P0Y0M51D',.F.,$,$,$,$,$,0.00);
#81=IFCTASK('zJERObIlbVDdePw$CHxVyd',#6,'Wind and weathertight',$,$,'4.5',$,$,$,.T.,$,#80,.CONSTRUCTION.);
#82=IFCTASKTIME('5. Floor & services Time',.PREDICTED.,$,.WORKTIME.,'P0Y0M5D','2027-03-01T07:00:00','2027-03-05T07:00:00','2027-06-04T07:00:00','2027-07-16T07:00:00','2027-06-04T07:00:00','2027-09-03T07:00:00','P0Y0M0D','P0Y0M0D',.T.,$,$,$,$,$,0.00);
#83=IFCTASK('MzNRiLhHVbbVwVFXHvmNw5',#6,'5. Floor & services',$,$,'5',$,$,$,.F.,$,#82,.CONSTRUCTION.);
#84=IFCTASKTIME('Pour concrete hall floor Time',.PREDICTED.,$,.WORKTIME.,'P0Y0M10D','2027-03-01T07:00:00','2027-03-12T07:00:00','2027-06-04T07:00:00','2027-06-17T07:00:00','2027-06-04T07:00:00','2027-06-17T07:00:00','P0Y0M0D','P0Y0M0D',.T.,$,$,$,$,$,0.00);
#85=IFCTASK('2lPzQjg$cjSJoL6HXp2rSb',#6,'Pour concrete hall floor',$,$,'5.1',$,$,$,.F.,$,#84,.CONSTRUCTION.);
#86=IFCTASKTIME('Floor coating Time',.PREDICTED.,$,.WORKTIME.,'P0Y0M5D','2027-03-01T07:00:00','2027-03-05T07:00:00','2027-06-18T07:00:00','2027-06-24T07:00:00','2027-07-16T07:00:00','2027-07-22T07:00:00','P0Y0M0D','P0Y0M20D',.F.,$,$,$,$,$,0.00);
#87=IFCTASK('pLjdFFz$OvRXY37$DrzN21',#6,'Floor coating',$,$,'5.2',$,$,$,.F.,$,#86,.CONSTRUCTION.);
#88=IFCTASKTIME('Electrical installation, hall Time',.PREDICTED.,$,.WORKTIME.,'P0Y0M8D','2027-03-01T07:00:00','2027-03-10T07:00:00','2027-06-25T07:00:00','2027-07-06T07:00:00','2027-07-23T07:00:00','2027-08-24T07:00:00','P0Y0M0D','P0Y0M20D',.F.,$,$,$,$,$,0.00);
#89=IFCTASK('$lnxgbZHzHOtJJXXA5cDaN',#6,'Electrical installation, hall',$,$,'5.3',$,$,$,.F.,$,#88,.INSTALLATION.);
#90=IFCTASKTIME('Lighting, hall Time',.PREDICTED.,$,.WORKTIME.,'P0Y0M5D','2027-03-01T07:00:00','2027-03-05T07:00:00','2027-07-07T07:00:00','2027-07-13T07:00:00','2027-08-25T07:00:00','2027-08-31T07:00:00','P0Y0M0D','P0Y0M20D',.F.,$,$,$,$,$,0.00);
#91=IFCTASK('VTelTtxF0LhHjXP1lLHBuj',#6,'Lighting, hall',$,$,'5.4',$,$,$,.F.,$,#90,.INSTALLATION.);
#92=IFCTASKTIME('Fire alarm system Time',.PREDICTED.,$,.WORKTIME.,'P0Y0M3D','2027-03-01T07:00:00','2027-03-03T07:00:00','2027-07-14T07:00:00','2027-07-16T07:00:00','2027-09-01T07:00:00','2027-09-03T07:00:00','P0Y0M20D','P0Y0M20D',.F.,$,$,$,$,$,0.00);
#93=IFCTASK('qBHbuDHvqTwJ61RlwDjvzd',#6,'Fire alarm system',$,$,'5.5',$,$,$,.F.,$,#92,.INSTALLATION.);
#94=IFCTASKTIME('6. Office section Time',.PREDICTED.,$,.WORKTIME.,'P0Y0M5D','2027-03-01T07:00:00','2027-03-05T07:00:00','2027-06-28T07:00:00','2027-08-16T07:00:00','2027-06-28T07:00:00','2027-08-16T07:00:00','P0Y0M0D','P0Y0M0D',.T.,$,$,$,$,$,0.00);
#95=IFCTASK('tDFxgbTHfnvLU3d1xhunDJ',#6,'6. Office section',$,$,'6',$,$,$,.F.,$,#94,.CONSTRUCTION.);
#96=IFCTASKTIME('Office internal walls Time',.PREDICTED.,$,.WORKTIME.,'P0Y0M5D','2027-03-01T07:00:00','2027-03-05T07:00:00','2027-06-28T07:00:00','2027-07-02T07:00:00','2027-06-28T07:00:00','2027-07-02T07:00:00','P0Y0M0D','P0Y0M0D',.T.,$,$,$,$,$,0.00);
#97=IFCTASK('whgzMVL1c1IL_Jjl3JQvzd',#6,'Office internal walls',$,$,'6.1',$,$,$,.F.,$,#96,.CONSTRUCTION.);
#98=IFCTASKTIME('Office building services Time',.PREDICTED.,$,.WORKTIME.,'P0Y0M8D','2027-03-01T07:00:00','2027-03-10T07:00:00','2027-07-05T07:00:00','2027-07-14T07:00:00','2027-07-05T07:00:00','2027-07-14T07:00:00','P0Y0M0D','P0Y0M0D',.T.,$,$,$,$,$,0.00);
#99=IFCTASK('I5dhbRRVJNzffxinYL$xZ5',#6,'Office building services',$,$,'6.2',$,$,$,.F.,$,#98,.INSTALLATION.);
#100=IFCTASKTIME('Office finishes Time',.PREDICTED.,$,.WORKTIME.,'P0Y0M5D','2027-03-01T07:00:00','2027-03-05T07:00:00','2027-07-15T07:00:00','2027-07-21T07:00:00','2027-07-15T07:00:00','2027-07-21T07:00:00','P0Y0M0D','P0Y0M0D',.T.,$,$,$,$,$,0.00);
#101=IFCTASK('EdATaH8vERDt9NmXQPmtKD',#6,'Office finishes',$,$,'6.3',$,$,$,.F.,$,#100,.CONSTRUCTION.);
#102=IFCTASKTIME('Sanitary facilities Time',.PREDICTED.,$,.WORKTIME.,'P0Y0M3D','2027-03-01T07:00:00','2027-03-03T07:00:00','2027-07-22T07:00:00','2027-08-16T07:00:00','2027-07-22T07:00:00','2027-08-16T07:00:00','P0Y0M0D','P0Y0M0D',.T.,$,$,$,$,$,0.00);
#103=IFCTASK('rNERWXh1UvGX2j5nMLuF7f',#6,'Sanitary facilities',$,$,'6.4',$,$,$,.F.,$,#102,.INSTALLATION.);
#104=IFCTASKTIME('7. Site works & handover Time',.PREDICTED.,$,.WORKTIME.,'P0Y0M5D','2027-03-01T07:00:00','2027-03-05T07:00:00','2027-08-17T07:00:00','2027-09-03T07:00:00','2027-08-17T07:00:00','2027-09-03T07:00:00','P0Y0M0D','P0Y0M0D',.T.,$,$,$,$,$,0.00);
#105=IFCTASK('cxyT41Etx5PrGxiFcvaBiJ',#6,'7. Site works & handover',$,$,'7',$,$,$,.F.,$,#104,.CONSTRUCTION.);
#106=IFCTASKTIME('Site paving Time',.PREDICTED.,$,.WORKTIME.,'P0Y0M8D','2027-03-01T07:00:00','2027-03-10T07:00:00','2027-08-17T07:00:00','2027-08-26T07:00:00','2027-08-17T07:00:00','2027-08-26T07:00:00','P0Y0M0D','P0Y0M0D',.T.,$,$,$,$,$,0.00);
#107=IFCTASK('99gPrTGN_tIhE$XXORk1AT',#6,'Site paving',$,$,'7.1',$,$,$,.F.,$,#106,.CONSTRUCTION.);
#108=IFCTASKTIME('Site lighting Time',.PREDICTED.,$,.WORKTIME.,'P0Y0M3D','2027-03-01T07:00:00','2027-03-03T07:00:00','2027-08-27T07:00:00','2027-08-31T07:00:00','2027-08-27T07:00:00','2027-08-31T07:00:00','P0Y0M0D','P0Y0M0D',.T.,$,$,$,$,$,0.00);
#109=IFCTASK('yJERuLy$45f5bBUXxnHB0N',#6,'Site lighting',$,$,'7.2',$,$,$,.F.,$,#108,.INSTALLATION.);
#110=IFCTASKTIME('Fencing and gate Time',.PREDICTED.,$,.WORKTIME.,'P0Y0M3D','2027-03-01T07:00:00','2027-03-03T07:00:00','2027-09-01T07:00:00','2027-09-03T07:00:00','2027-09-01T07:00:00','2027-09-03T07:00:00','P0Y0M0D','P0Y0M0D',.T.,$,$,$,$,$,0.00);
#111=IFCTASK('Mz9xoTv9D7zvEBc12tEVu5',#6,'Fencing and gate',$,$,'7.3',$,$,$,.F.,$,#110,.INSTALLATION.);
#112=IFCTASKTIME('Handover Time',.PREDICTED.,$,.WORKTIME.,'P0Y0M0D','2027-03-01T07:00:00','2027-03-01T07:00:00','2027-09-03T07:00:00','2027-09-03T07:00:00','2027-09-03T07:00:00','2027-09-03T07:00:00','P0Y0M0D','P0Y0M0D',.T.,$,$,$,$,$,0.00);
#113=IFCTASK('A9oF3redtrfTF7YFfjVpiX',#6,'Handover',$,$,'7.4',$,$,$,.T.,$,#112,.CONSTRUCTION.);
#114=IFCRELNESTS('YziJLtiVddKzr7IFuhOXCl',#6,'WBS 1. Preparation',$,#43,( #45,#47,#49));
#115=IFCRELNESTS('XVrV8jr1SXhlLTjndBCD8x',#6,'WBS 2. Foundations',$,#51,( #53,#55,#57));
#116=IFCRELNESTS('9jLHZtjVl12RLfaFnRP51p',#6,'WBS 3. Steel structure',$,#59,( #61,#63,#65,#67,#69));
#117=IFCRELNESTS('SzC5oVIH$f5Voh_F13G9up',#6,'WBS 4. Facade & roof',$,#71,( #73,#75,#77,#79,#81));
#118=IFCRELNESTS('Z$Xz2vH7qdCZPTXXStMfAP',#6,'WBS 5. Floor & services',$,#83,( #85,#87,#89,#91,#93));
#119=IFCRELNESTS('2n5XOR_nC3AlT94lFNAzDF',#6,'WBS 6. Office section',$,#95,( #97,#99,#101,#103));
#120=IFCRELNESTS('jNG73Lin_t_RxlHXPlzfYj',#6,'WBS 7. Site works & handover',$,#105,( #107,#109,#111,#113));
#121=IFCRELNESTS('tjjP5r1vgdnD4TBHzDgTrv',#6,'WBS Hoofd',$,#40,(#43,#51,#59,#71,#83,#95,#105));
#122=IFCRELSEQUENCE('odIxUxMd79U51XjlVnZNAZ',#6,$,$,#45,#47,$,.FINISH_START.,$);
#123=IFCRELSEQUENCE('aZG7r7MPDPf5$Vhn1TKxJz',#6,$,$,#47,#49,$,.FINISH_START.,$);
#124=IFCRELSEQUENCE('OTz9Y9T$wz29hte$4vKxhf',#6,$,$,#53,#55,$,.FINISH_START.,$);
#125=IFCRELSEQUENCE('Cf2B7PL$gPnpaD$X253ta9',#6,$,$,#55,#57,$,.FINISH_START.,$);
#126=IFCRELSEQUENCE('3HXL7r87Eb51iX$Xax39qH',#6,$,$,#61,#63,$,.FINISH_START.,$);
#127=IFCRELSEQUENCE('kxPhZ9rljhHBe$HXhZj7vx',#6,$,$,#63,#65,$,.FINISH_START.,$);
#128=IFCRELSEQUENCE('xBwtQp2NkBlB8njnZZSBuj',#6,$,$,#65,#67,$,.FINISH_START.,$);
#129=IFCRELSEQUENCE('PVxnFrFPNHLH1VjHprpPjT',#6,$,$,#67,#69,$,.FINISH_START.,$);
#130=IFCRELSEQUENCE('2pkl1dwX3HePGBs1BJNhk7',#6,$,$,#73,#75,$,.FINISH_START.,$);
#131=IFCRELSEQUENCE('9JLHXfuP9$7pqFnXJxJ7Tf',#6,$,$,#75,#77,$,.FINISH_START.,$);
#132=IFCRELSEQUENCE('dV39cjA10BFLwppFZXHB4v',#6,$,$,#77,#79,$,.FINISH_START.,$);
#133=IFCRELSEQUENCE('4JYh$PQXtL5Xcn$VYLnhMp',#6,$,$,#79,#81,$,.FINISH_START.,$);
#134=IFCRELSEQUENCE('1j6pdRg1sfLHvDTFAxERfZ',#6,$,$,#85,#87,$,.FINISH_START.,$);
#135=IFCRELSEQUENCE('P$dh3vdtxlD9NdYVr9oVWd',#6,$,$,#87,#89,$,.FINISH_START.,$);
#136=IFCRELSEQUENCE('cRWNe5cvC3_tnJhFTVPjMf',#6,$,$,#89,#91,$,.FINISH_START.,$);
#137=IFCRELSEQUENCE('5nnxg$d9tLBFz5il0Pi5xl',#6,$,$,#91,#93,$,.FINISH_START.,$);
#138=IFCRELSEQUENCE('lNGd7LylxlzvsRGXS5j7NZ',#6,$,$,#97,#99,$,.FINISH_START.,$);
#139=IFCRELSEQUENCE('WXj7xFjX9LLHfb81PBa3Bz',#6,$,$,#99,#101,$,.FINISH_START.,$);
#140=IFCRELSEQUENCE('BNsZiB7tT$wjo1d$0vOVer',#6,$,$,#101,#103,$,.FINISH_START.,$);
#141=IFCRELSEQUENCE('T3KJjTNNCToB494FJbP5hf',#6,$,$,#107,#109,$,.FINISH_START.,$);
#142=IFCRELSEQUENCE('wFXLb5XPtLJ7AxSl1zOVe3',#6,$,$,#109,#111,$,.FINISH_START.,$);
#143=IFCRELSEQUENCE('2HP3srd9hPSryTTF29EV8x',#6,$,$,#111,#113,$,.FINISH_START.,$);
#144=IFCLAGTIME('Lag',.PREDICTED.,$,IFCDURATION('P7D'),.WORKTIME.);
#145=IFCRELSEQUENCE('6hcjDJr$yF$TfRO17VLVaf',#6,$,$,#45,#53,#144,.START_START.,$);
#146=IFCLAGTIME('Lag',.PREDICTED.,$,IFCRATIOMEASURE(0.4),.WORKTIME.);
#147=IFCRELSEQUENCE('VVL$sLRnYve9VRCnClT9W7',#6,$,$,#53,#61,#146,.START_START.,$);
#148=IFCLAGTIME('Lag',.PREDICTED.,$,IFCDURATION('-P6D'),.WORKTIME.);
#149=IFCRELSEQUENCE('G7svDJB18VEvors1JtwdZ5',#6,$,$,#67,#73,#148,.FINISH_START.,$);
#150=IFCLAGTIME('Lag',.PREDICTED.,$,IFCDURATION('P2D'),.WORKTIME.);
#151=IFCRELSEQUENCE('3FztMRpnMR37Y90X3J6P1J',#6,$,$,#67,#79,#150,.FINISH_FINISH.,$);
#152=IFCRELSEQUENCE('4HDvFr1vIhj7orEVuhu1Ir',#6,$,$,#79,#85,$,.FINISH_START.,$);
#153=IFCLAGTIME('Lag',.PREDICTED.,$,IFCDURATION('P16D'),.WORKTIME.);
#154=IFCRELSEQUENCE('uD1rnhxn4n$ZHtmVwt_HjX',#6,$,$,#85,#97,#153,.START_START.,$);
#155=IFCRELSEQUENCE('PXztklOPdjILcZHVLzlBC3',#6,$,$,#103,#107,$,.FINISH_START.,$);
#156=IFCRELASSIGNSTOCONTROL('rDVhNjbXHjyDCF$VkTSruD',#6,$,$,(#43,#45,#47,#49,#51,#53,#55,#57,#59,#61,#63,#65,#67,#69,#71,#73,#75,#77,#79,#81,#83,#85,#87,#89,#91,#93,#95,#97,#99,#101,#103,#105,#107,#109,#111,#113),$,#40);
#157=IFCPROPERTYSINGLEVALUE('InternalProjectId',$,IFCTEXT('proj-mtx91ft4hhpv1786'),$);
#158=IFCPROPERTYSINGLEVALUE('wbsAutoNumber',$,IFCBOOLEAN(.T.),$);
#159=IFCPROPERTYSINGLEVALUE('DefaultTaskDurationUnit',$,IFCLABEL('days'),$);
#160=IFCPROPERTYSINGLEVALUE('ProjectStartDate',$,IFCDATE('2027-03-01'),$);
#161=IFCPROPERTYSINGLEVALUE('ProjectEndDate',$,$,$);
#162=IFCPROPERTYSINGLEVALUE('CreatedAt',$,IFCTEXT('2026-09-11T17:47:45.352Z'),$);
#163=IFCPROPERTYSINGLEVALUE('ModifiedAt',$,IFCTEXT('2026-09-11T17:47:45.353Z'),$);
#164=IFCPROPERTYSET('e5a3ArlP$tNZvpDF1ZK5n5',#6,'OPS_ProjectSettings',$,(#157,#158,#159,#160,#161,#162,#163));
#165=IFCRELDEFINESBYPROPERTIES('0Hdzo1sPJhdjQlBF$1BF9l',#6,$,$,(#13),#164);
#166=IFCPROPERTYSINGLEVALUE('InternalTaskId',$,IFCTEXT('task-mtx91ft6wnr41787'),$);
#167=IFCPROPERTYSET('ujb$IHW91NR$qLwlt7KJ6b',#6,'OPS_TaskIdentity',$,(#166));
#168=IFCRELDEFINESBYPROPERTIES('FLb$URkHFFaBevEn6JNhgN',#6,$,$,(#43),#167);
#169=IFCPROPERTYSINGLEVALUE('InternalTaskId',$,IFCTEXT('task-mtx91ft7dk0h1788'),$);
#170=IFCPROPERTYSET('GvU1_hqX9hTt5FBHzjoX8D',#6,'OPS_TaskIdentity',$,(#169));
#171=IFCRELDEFINESBYPROPERTIES('tf2r7dpFUjYxT94lZzmNwb',#6,$,$,(#45),#170);
#172=IFCPROPERTYSINGLEVALUE('InternalTaskId',$,IFCTEXT('task-mtx91ft9g4kk1789'),$);
#173=IFCPROPERTYSET('V1ljh9SHljSjY3$Vml$JQB',#6,'OPS_TaskIdentity',$,(#172));
#174=IFCRELDEFINESBYPROPERTIES('OTTNmdkH1tVbD3JltZxXOz',#6,$,$,(#47),#173);
#175=IFCPROPERTYSINGLEVALUE('InternalTaskId',$,IFCTEXT('task-mtx91ftapdnd1790'),$);
#176=IFCPROPERTYSET('a3iRGPElDvbVIFZnIZKxbX',#6,'OPS_TaskIdentity',$,(#175));
#177=IFCRELDEFINESBYPROPERTIES('ZV3tgRDFYpw1WJ1XKVZfId',#6,$,$,(#49),#176);
#178=IFCPROPERTYSINGLEVALUE('InternalTaskId',$,IFCTEXT('task-mtx91ftbslus1791'),$);
#179=IFCPROPERTYSET('BJLHfjbVHDufZtql6jNh_z',#6,'OPS_TaskIdentity',$,(#178));
#180=IFCRELDEFINESBYPROPERTIES('kf8FnLLHFZUxVnxlWNEbVd',#6,$,$,(#51),#179);
#181=IFCPROPERTYSINGLEVALUE('InternalTaskId',$,IFCTEXT('task-mtx91ftcum3e1792'),$);
#182=IFCPROPERTYSET('W1ljb$9N897DqB2VzHfLgj',#6,'OPS_TaskIdentity',$,(#181));
#183=IFCRELDEFINESBYPROPERTIES('dV5nNFiV7NAHthMlAVDdPP',#6,$,$,(#53),#182);
#184=IFCPROPERTYSINGLEVALUE('InternalTaskId',$,IFCTEXT('task-mtx91ftdq8tt1793'),$);
#185=IFCPROPERTYSET('1JkxYt314HTdi$rHPrS3X7',#6,'OPS_TaskIdentity',$,(#184));
#186=IFCRELDEFINESBYPROPERTIES('wlrFt$_N2zOP8l7$XH7R$t',#6,$,$,(#55),#185);
#187=IFCPROPERTYSINGLEVALUE('InternalTaskId',$,IFCTEXT('task-mtx91fteukyf1794'),$);
#188=IFCPROPERTYSET('3pAvJZPtnn4LMfe1GnJv7b',#6,'OPS_TaskIdentity',$,(#187));
#189=IFCRELDEFINESBYPROPERTIES('4nXLNDP9NbRXQ3RF4dWPxF',#6,$,$,(#57),#188);
#190=IFCPROPERTYSINGLEVALUE('InternalTaskId',$,IFCTEXT('task-mtx91ftfrxhy1795'),$);
#191=IFCPROPERTYSET('pv_Xezz$Cved4TRH2f6j6R',#6,'OPS_TaskIdentity',$,(#190));
#192=IFCRELDEFINESBYPROPERTIES('wLI5EZvtx5vhorEXqn93Zt',#6,$,$,(#59),#191);
#193=IFCPROPERTYSINGLEVALUE('InternalTaskId',$,IFCTEXT('task-mtx91ftgnxab1796'),$);
#194=IFCPROPERTYSET('9jZfGf8P$B5VA5ilmFj7pl',#6,'OPS_TaskIdentity',$,(#193));
#195=IFCRELDEFINESBYPROPERTIES('Gf0tw7kt5n7h6pBldhm9uJ',#6,$,$,(#61),#194);
#196=IFCPROPERTYSINGLEVALUE('InternalTaskId',$,IFCTEXT('task-mtx91fthxac71797'),$);
#197=IFCPROPERTYSET('zj_Bv7VPzz6103bnSbfhAT',#6,'OPS_TaskIdentity',$,(#196));
#198=IFCRELDEFINESBYPROPERTIES('4HxX0HNfC7uvIHVXITqbfT',#6,$,$,(#63),#197);
#199=IFCPROPERTYSINGLEVALUE('InternalTaskId',$,IFCTEXT('task-mtx91ftiutus1798'),$);
#200=IFCPROPERTYSET('X34B77$dtXrnzx4HbVztmV',#6,'OPS_TaskIdentity',$,(#199));
#201=IFCRELDEFINESBYPROPERTIES('c1dLxBNf4x7hMLIFCzu$Yp',#6,$,$,(#65),#200);
#202=IFCPROPERTYSINGLEVALUE('InternalTaskId',$,IFCTEXT('task-mtx91ftjoecs1799'),$);
#203=IFCPROPERTYSET('sp$Bvdr$GzOt3xSFTX$5lh',#6,'OPS_TaskIdentity',$,(#202));
#204=IFCRELDEFINESBYPROPERTIES('H9SL9zDXT$AZJX1VK$$JkP',#6,$,$,(#67),#203);
#205=IFCPROPERTYSINGLEVALUE('InternalTaskId',$,IFCTEXT('task-mtx91ftkj96p1800'),$);
#206=IFCPROPERTYSET('nBNjB7w7QJypmrs$nbPxVT',#6,'OPS_TaskIdentity',$,(#205));
#207=IFCRELDEFINESBYPROPERTIES('g7CpzPL$sf3Npn91fNMTlh',#6,$,$,(#69),#206);
#208=IFCPROPERTYSINGLEVALUE('InternalTaskId',$,IFCTEXT('task-mtx91ftmzx3r1801'),$);
#209=IFCPROPERTYSET('6HJPRRxXrtsTL3f1oHNLcB',#6,'OPS_TaskIdentity',$,(#208));
#210=IFCRELDEFINESBYPROPERTIES('DLhlNDHvSL7pSdEX8r4h_$',#6,$,$,(#71),#209);
#211=IFCPROPERTYSINGLEVALUE('InternalTaskId',$,IFCTEXT('task-mtx91ftnza231802'),$);
#212=IFCPROPERTYSET('pv_X8haHBTiRv1DFHh1xRX',#6,'OPS_TaskIdentity',$,(#211));
#213=IFCRELDEFINESBYPROPERTIES('6hIx_redVvDt71TFoFRnpD',#6,$,$,(#73),#212);
#214=IFCPROPERTYSINGLEVALUE('InternalTaskId',$,IFCTEXT('task-mtx91ftoa7sv1803'),$);
#215=IFCPROPERTYSET('6HR1IDtfyRD93bGX8ZBF3B',#6,'OPS_TaskIdentity',$,(#214));
#216=IFCRELDEFINESBYPROPERTIES('DLDvt$Yf45dBKVP$$30vll',#6,$,$,(#75),#215);
#217=IFCPROPERTYSINGLEVALUE('InternalTaskId',$,IFCTEXT('task-mtx91ftpfdld1804'),$);
#218=IFCPROPERTYSET('5H5X0FBljLPjIn5HC3eVCl',#6,'OPS_TaskIdentity',$,(#217));
#219=IFCRELDEFINESBYPROPERTIES('CLxV4$sdFnqZTtalVpwJ_X',#6,$,$,(#77),#218);
#220=IFCPROPERTYSINGLEVALUE('InternalTaskId',$,IFCTEXT('task-mtx91ftqguu01805'),$);
#221=IFCPROPERTYSET('6BQNGty$SXxXUf4nHveHjV',#6,'OPS_TaskIdentity',$,(#220));
#222=IFCRELDEFINESBYPROPERTIES('$F39cjM$AtFLorA1Dv8$Mf',#6,$,$,(#79),#221);
#223=IFCPROPERTYSINGLEVALUE('InternalTaskId',$,IFCTEXT('task-mtx91ftsklwb1806'),$);
#224=IFCPROPERTYSET('W1dhDnyHtLLllfSFbx_B4h',#6,'OPS_TaskIdentity',$,(#223));
#225=IFCRELDEFINESBYPROPERTIES('PVpPl$d9hPqT$VRFyLt3nX',#6,$,$,(#81),#224);
#226=IFCPROPERTYSINGLEVALUE('InternalTaskId',$,IFCTEXT('task-mtx91fttxovv1807'),$);
#227=IFCPROPERTYSET('DBfJ3hqXZpGVkHFVhPG98b',#6,'OPS_TaskIdentity',$,(#226));
#228=IFCRELDEFINESBYPROPERTIES('ivCphJQVb$FhsbWVvXr1Ul',#6,$,$,(#83),#227);
#229=IFCPROPERTYSINGLEVALUE('InternalTaskId',$,IFCTEXT('task-mtx91ftu5cpo1808'),$);
#230=IFCPROPERTYSET('b$952vHvu1ILUzf1wNQpKJ',#6,'OPS_TaskIdentity',$,(#229));
#231=IFCRELDEFINESBYPROPERTIES('KbL$g1XPvTC5xbaldFPjg9',#6,$,$,(#85),#230);
#232=IFCPROPERTYSINGLEVALUE('InternalTaskId',$,IFCTEXT('task-mtx91ftvw91e1809'),$);
#233=IFCPROPERTYSET('mvU1g1n7Qjq5rD71wNQDql',#6,'OPS_TaskIdentity',$,(#232));
#234=IFCRELDEFINESBYPROPERTIES('tf_BFr9fElptR1N17bwddv',#6,$,$,(#87),#233);
#235=IFCPROPERTYSINGLEVALUE('InternalTaskId',$,IFCTEXT('task-mtx91ftxz79n1810'),$);
#236=IFCPROPERTYSET('aXz9QJwXNlLlLT3nebstGF',#6,'OPS_TaskIdentity',$,(#235));
#237=IFCRELDEFINESBYPROPERTIES('h3t5M1H78NJ72jTHGXXbdr',#6,$,$,(#89),#236);
#238=IFCPROPERTYSINGLEVALUE('InternalTaskId',$,IFCTEXT('task-mtx91ftyxjrn1811'),$);
#239=IFCPROPERTYSET('2nDv5HtfUdC55R4ndra3HH',#6,'OPS_TaskIdentity',$,(#238));
#240=IFCRELDEFINESBYPROPERTIES('tJBnNnCnmDMFrdc$YPazXd',#6,$,$,(#91),#239);
#241=IFCPROPERTYSINGLEVALUE('InternalTaskId',$,IFCTEXT('task-mtx91ftzl9e11812'),$);
#242=IFCPROPERTYSET('HxNRGt4HJhFhIHd1Vjgfch',#6,'OPS_TaskIdentity',$,(#241));
#243=IFCRELDEFINESBYPROPERTIES('sNsTmtiXvt_bNPQ$Mryhgp',#6,$,$,(#93),#242);
#244=IFCPROPERTYSINGLEVALUE('InternalTaskId',$,IFCTEXT('task-mtx91fu1lg6z1813'),$);
#245=IFCPROPERTYSET('iR39cj6XrzufPz5nQZpPJz',#6,'OPS_TaskIdentity',$,(#244));
#246=IFCRELDEFINESBYPROPERTIES('pvQfaFiX3H0FfdUX7RI$61',#6,$,$,(#95),#245);
#247=IFCPROPERTYSINGLEVALUE('InternalTaskId',$,IFCTEXT('task-mtx91fu2bb7e1814'),$);
#248=IFCPROPERTYSET('ZZmvjT7tZ16jIH91i1Hzpn',#6,'OPS_TaskIdentity',$,(#247));
#249=IFCRELDEFINESBYPROPERTIES('SVpdfDtfqvWl9hwHjt2HT9',#6,$,$,(#97),#248);
#250=IFCPROPERTYSINGLEVALUE('InternalTaskId',$,IFCTEXT('task-mtx91fu49xu51815'),$);
#251=IFCPROPERTYSET('HtSzw3KX91fT3dEXeJvbhj',#6,'OPS_TaskIdentity',$,(#250));
#252=IFCRELDEFINESBYPROPERTIES('OxSzkJ5X$NZ9p3THiJEVW7',#6,$,$,(#99),#251);
#253=IFCPROPERTYSINGLEVALUE('InternalTaskId',$,IFCTEXT('task-mtx91fu5c85a1816'),$);
#254=IFCPROPERTYSET('LPmd7r8PFz61WpbHgn$xlB',#6,'OPS_TaskIdentity',$,(#253));
#255=IFCRELDEFINESBYPROPERTIES('STGdjX6V3FCxxRaFDvunZ5',#6,$,$,(#101),#254);
#256=IFCPROPERTYSINGLEVALUE('InternalTaskId',$,IFCTEXT('task-mtx91fu61s6v1817'),$);
#257=IFCPROPERTYSET('e54BbV5X5nXzp3bFy7qRTt',#6,'OPS_TaskIdentity',$,(#256));
#258=IFCRELDEFINESBYPROPERTIES('X3KjnhRF2fcXIHP1rpZNcL',#6,$,$,(#103),#257);
#259=IFCPROPERTYSINGLEVALUE('InternalTaskId',$,IFCTEXT('task-mtx91fu8lave1818'),$);
#260=IFCPROPERTYSET('3pQN4TevSL$5th_nJNoRZt',#6,'OPS_TaskIdentity',$,(#259));
#261=IFCRELDEFINESBYPROPERTIES('4nn5YxEtHJi3Nv_FVpwjgf',#6,$,$,(#105),#260);
#262=IFCPROPERTYSINGLEVALUE('InternalTaskId',$,IFCTEXT('task-mtx91fu9138u1819'),$);
#263=IFCPROPERTYSET('QR8XGfOddJg3tf81A1P5vt',#6,'OPS_TaskIdentity',$,(#262));
#264=IFCRELDEFINESBYPROPERTIES('X$V3srFdbLxVUzXXYrxVCH',#6,$,$,(#107),#263);
#265=IFCPROPERTYSINGLEVALUE('InternalTaskId',$,IFCTEXT('task-mtx91fuahqz71820'),$);
#266=IFCPROPERTYSET('VTG7bVh$oF7hUZJFLvKjgp',#6,'OPS_TaskIdentity',$,(#265));
#267=IFCRELDEFINESBYPROPERTIES('QVpPFnz1aBxXI5e$DPaBOT',#6,$,$,(#109),#266);
#268=IFCPROPERTYSINGLEVALUE('InternalTaskId',$,IFCTEXT('task-mtx91fucvdn11821'),$);
#269=IFCPROPERTYSET('DB9DbRZlznCxRBc1IXfTjz',#6,'OPS_TaskIdentity',$,(#268));
#270=IFCRELDEFINESBYPROPERTIES('iviJxnZ$srxXIbSHJ9Q719',#6,$,$,(#111),#269);
#271=IFCPROPERTYSINGLEVALUE('InternalTaskId',$,IFCTEXT('task-mtx91fudlr8m1822'),$);
#272=IFCPROPERTYSET('PxyrB7MP$B3N5xu1gryZRV',#6,'OPS_TaskIdentity',$,(#271));
#273=IFCRELDEFINESBYPROPERTIES('W$dhXNGfMRx1qHhFlhlrmV',#6,$,$,(#113),#272);
#274=IFCPROPERTYSINGLEVALUE('MilestoneKind',$,IFCLABEL('START'),$);
#275=IFCPROPERTYSET('Drdz6dYFMRjfBD91DvOXmn',#6,'OPS_Milestone',$,(#274));
#276=IFCRELDEFINESBYPROPERTIES('c$ljhfev4HzvczpHZX15Z5',#6,$,$,(#49),#275);
#277=IFCPROPERTYSINGLEVALUE('MilestoneKind',$,IFCLABEL('FINISH'),$);
#278=IFCPROPERTYSET('0lfj9V_n8Xo7orEXWfoRN3',#6,'OPS_Milestone',$,(#277));
#279=IFCRELDEFINESBYPROPERTIES('P5Sz2BmfCTU5bLAHa9YFhf',#6,$,$,(#69),#278);
#280=IFCPROPERTYSINGLEVALUE('MilestoneKind',$,IFCLABEL('FINISH'),$);
#281=IFCPROPERTYSET('HtKJH5v9brHrGBIXMnfTlr',#6,'OPS_Milestone',$,(#280));
#282=IFCRELDEFINESBYPROPERTIES('gzX3IjJFW59bdnXVmHPxjz',#6,$,$,(#81),#281);
#283=IFCPROPERTYSINGLEVALUE('MilestoneKind',$,IFCLABEL('FINISH'),$);
#284=IFCPROPERTYSINGLEVALUE('Mandatory',$,IFCBOOLEAN(.T.),$);
#285=IFCPROPERTYSET('sD9DJ1o97tU55RCniJc7bb',#6,'OPS_Milestone',$,(#283,#284));
#286=IFCRELDEFINESBYPROPERTIES('TVzt6vUfSXZtr7cllvWdHL',#6,$,$,(#113),#285);
ENDSEC;
END-ISO-10303-21;
