ISO-10303-21;
HEADER;
FILE_DESCRIPTION(('ViewDefinition [SchedulingView]'),'2;1');
FILE_NAME('De Linde Care Centre.ifc','2026-09-11T17:47:45',('Linda de Groot'),('Healthcare Construction Netherlands BV'),'Open Planner Studio 0.1','Open Planner Studio','');
FILE_SCHEMA(('IFC4X3'));
ENDSEC;
DATA;
#1=IFCPERSON($,'Linda de Groot',$,$,$,$,$,$);
#2=IFCORGANIZATION($,'Healthcare Construction Netherlands BV',$,$,$);
#3=IFCPERSONANDORGANIZATION(#1,#2,$);
#4=IFCORGANIZATION($,'OpenAEC Foundation',$,$,$);
#5=IFCAPPLICATION(#4,'0.1','Open Planner Studio','OPS');
#6=IFCOWNERHISTORY(#3,#5,$,.NOCHANGE.,$,$,$,1789148865);
#7=IFCSIUNIT(*,.LENGTHUNIT.,$,.METRE.);
#8=IFCSIUNIT(*,.TIMEUNIT.,$,.SECOND.);
#9=IFCUNITASSIGNMENT((#7,#8));
#10=IFCCARTESIANPOINT((0.,0.,0.));
#11=IFCAXIS2PLACEMENT3D(#10,$,$);
#12=IFCGEOMETRICREPRESENTATIONCONTEXT($,'Plan',3,1.0E-05,#11,$);
#13=IFCPROJECT('wLcjnLRnMP1T7DLlFxJvHl',#6,'De Linde Care Centre','New-build care centre with 60 rooms and treatment areas',$,$,$,(#12),#9);
#14=IFCTIMEPERIOD('07:00:00','16:00:00');
#15=IFCRECURRENCEPATTERN(.WEEKLY.,$,(1,2,3,4,5),$,$,$,$,(#14));
#16=IFCWORKTIME('Standard work week',.PREDICTED.,$,#15,$,$);
#17=IFCWORKTIME('New Year''s Day',.PREDICTED.,$,$,'2027-01-01','2027-01-01');
#18=IFCWORKTIME('Good Friday',.PREDICTED.,$,$,'2027-03-26','2027-03-26');
#19=IFCWORKTIME('Easter',.PREDICTED.,$,$,'2027-03-28','2027-03-29');
#20=IFCWORKTIME('King''s Day',.PREDICTED.,$,$,'2027-04-27','2027-04-27');
#21=IFCWORKTIME('Liberation Day',.PREDICTED.,$,$,'2027-05-05','2027-05-05');
#22=IFCWORKTIME('Ascension Day',.PREDICTED.,$,$,'2027-05-06','2027-05-06');
#23=IFCWORKTIME('Whitsun',.PREDICTED.,$,$,'2027-05-16','2027-05-17');
#24=IFCWORKTIME('Christmas',.PREDICTED.,$,$,'2027-12-25','2027-12-26');
#25=IFCWORKTIME('Construction holiday (northern region)',.PREDICTED.,$,$,'2027-07-26','2027-08-15');
#26=IFCWORKTIME('New Year''s Day',.PREDICTED.,$,$,'2028-01-01','2028-01-01');
#27=IFCWORKTIME('Good Friday',.PREDICTED.,$,$,'2028-04-14','2028-04-14');
#28=IFCWORKTIME('Easter',.PREDICTED.,$,$,'2028-04-16','2028-04-17');
#29=IFCWORKTIME('King''s Day',.PREDICTED.,$,$,'2028-04-27','2028-04-27');
#30=IFCWORKTIME('Liberation Day',.PREDICTED.,$,$,'2028-05-05','2028-05-05');
#31=IFCWORKTIME('Ascension Day',.PREDICTED.,$,$,'2028-05-25','2028-05-25');
#32=IFCWORKTIME('Whitsun',.PREDICTED.,$,$,'2028-06-04','2028-06-05');
#33=IFCWORKTIME('Christmas',.PREDICTED.,$,$,'2028-12-25','2028-12-26');
#34=IFCWORKTIME('Construction holiday (northern region)',.PREDICTED.,$,$,'2028-07-24','2028-08-13');
#35=IFCWORKCALENDAR('_HlbW$VPl1Yxnv_nBDbFBd',#6,'Construction calendar NL','Standard construction calendar: Mon-Fri 07:00-16:00',$,(#16),(#17,#18,#19,#20,#21,#22,#23,#24,#25,#26,#27,#28,#29,#30,#31,#32,#33,#34),.FIRSTSHIFT.);
#36=IFCPROPERTYSINGLEVALUE('HoursPerDay',$,IFCREAL(8),$);
#37=IFCPROPERTYSET('qL5XmPUFgdlJ6X9$WtAtOZ',#6,'OPS_Calendar',$,(#36));
#38=IFCRELDEFINESBYPROPERTIES('bXh12hy$qvOdOP_VbbYntl',#6,$,$,(#35),#37);
#39=IFCWORKPLAN('2pIlFlV7O7ZP0zBnprDPjT',#6,'De Linde Care Centre','New-build care centre with 60 rooms and treatment areas',$,$,'2026-09-11T17:47:45',$,$,$,$,$,'2027-03-01T07:00:00','2027-03-19T07:00:00',.PLANNED.);
#40=IFCWORKSCHEDULE('V17BHbzH1fzfz7YFvxIxjT',#6,'Construction schedule v1.0',$,$,$,'2026-09-11T17:47:45',$,$,$,$,$,'2027-03-01T07:00:00','2027-03-19T07:00:00',.PLANNED.);
#41=IFCRELAGGREGATES('X$Ph9TPtbVDd8te$ftI1sz',#6,$,$,#39,(#40));
#42=IFCTASKTIME('1. Preparation Time',.PREDICTED.,$,.WORKTIME.,'P0Y0M5D','2027-03-01T07:00:00','2027-03-05T07:00:00','2027-03-01T07:00:00','2027-03-16T07:00:00','2027-03-01T07:00:00','2028-01-18T07:00:00','P0Y0M0D','P0Y0M0D',.T.,$,$,$,$,$,0.00);
#43=IFCTASK('dRuFVjcVVd9bR1FXZ3untl',#6,'1. Preparation',$,$,'1',$,$,$,.F.,$,#42,.CONSTRUCTION.);
#44=IFCTASKTIME('Set up site Time',.PREDICTED.,$,.WORKTIME.,'P0Y0M5D','2027-03-01T07:00:00','2027-03-05T07:00:00','2027-03-01T07:00:00','2027-03-05T07:00:00','2027-03-01T07:00:00','2027-03-05T07:00:00','P0Y0M0D','P0Y0M0D',.T.,$,$,$,$,$,0.00);
#45=IFCTASK('nLLHvB87_zmXsd2Vrp5Hn1',#6,'Set up site',$,$,'1.1',$,$,$,.F.,$,#44,.LOGISTIC.);
#46=IFCTASKTIME('Additional soil investigation Time',.PREDICTED.,$,.WORKTIME.,'P0Y0M3D','2027-03-01T07:00:00','2027-03-03T07:00:00','2027-03-08T07:00:00','2027-03-10T07:00:00','2028-01-10T07:00:00','2028-01-12T07:00:00','P0Y0M0D','P0Y0M199D',.F.,$,$,$,$,$,0.00);
#47=IFCTASK('xnd3Ar9fUpw$OVjH7RA9e3',#6,'Additional soil investigation',$,$,'1.2',$,$,$,.F.,$,#46,.CONSTRUCTION.);
#48=IFCTASKTIME('Fell and transplant trees Time',.PREDICTED.,$,.WORKTIME.,'P0Y0M3D','2027-03-01T07:00:00','2027-03-03T07:00:00','2027-03-11T07:00:00','2027-03-15T07:00:00','2028-01-13T07:00:00','2028-01-17T07:00:00','P0Y0M0D','P0Y0M199D',.F.,$,$,$,$,$,0.00);
#49=IFCTASK('U3aL93z18XIPi1RHglJ7n1',#6,'Fell and transplant trees',$,$,'1.3',$,$,$,.F.,$,#48,.DEMOLITION.);
#50=IFCTASKTIME('Start of construction Time',.PREDICTED.,$,.WORKTIME.,'P0Y0M0D','2027-03-01T07:00:00','2027-03-01T07:00:00','2027-03-16T07:00:00','2027-03-16T07:00:00','2028-01-18T07:00:00','2028-01-18T07:00:00','P0Y0M199D','P0Y0M199D',.F.,$,$,$,$,$,0.00);
#51=IFCTASK('eRmdPx2foxnD4tSHRbI$_Z',#6,'Start of construction',$,$,'1.4',$,$,$,.T.,$,#50,.CONSTRUCTION.);
#52=IFCTASKTIME('2. Foundations Time',.PREDICTED.,$,.WORKTIME.,'P0Y0M5D','2027-03-01T07:00:00','2027-03-05T07:00:00','2027-03-09T07:00:00','2027-04-30T07:00:00','2027-03-09T07:00:00','2028-01-18T07:00:00','P0Y0M0D','P0Y0M0D',.T.,$,$,$,$,$,0.00);
#53=IFCTASK('L3NbOz314FPrGLknqz0vPL',#6,'2. Foundations',$,$,'2',$,$,$,.F.,$,#52,.CONSTRUCTION.);
#54=IFCTASKTIME('Pile driving, foundation piles Time',.PREDICTED.,$,.WORKTIME.,'P0Y0M12D','2027-03-01T07:00:00','2027-03-16T07:00:00','2027-03-09T07:00:00','2027-03-24T07:00:00','2027-03-09T07:00:00','2027-03-24T07:00:00','P0Y0M0D','P0Y0M0D',.T.,$,$,$,$,$,0.00);
#55=IFCTASK('l5FDRRr$0B7De$HXzlnZhf',#6,'Pile driving, foundation piles',$,$,'2.1',$,$,$,.F.,$,#54,.CONSTRUCTION.);
#56=IFCTASKTIME('Foundation beams Time',.PREDICTED.,$,.WORKTIME.,'P0Y0M8D','2027-03-01T07:00:00','2027-03-10T07:00:00','2027-03-25T07:00:00','2027-04-07T07:00:00','2027-12-16T07:00:00','2027-12-27T07:00:00','P0Y0M0D','P0Y0M169D',.F.,$,$,$,$,$,0.00);
#57=IFCTASK('lbZNSJEl3HufN5CHUPqpCz',#6,'Foundation beams',$,$,'2.2',$,$,$,.F.,$,#56,.CONSTRUCTION.);
#58=IFCTASKTIME('Sewerage and underground pipework Time',.PREDICTED.,$,.WORKTIME.,'P0Y0M8D','2027-03-01T07:00:00','2027-03-10T07:00:00','2027-04-08T07:00:00','2027-04-19T07:00:00','2027-12-28T07:00:00','2028-01-06T07:00:00','P0Y0M0D','P0Y0M169D',.F.,$,$,$,$,$,0.00);
#59=IFCTASK('AjxXuLSHRBXbRXjlXll3JV',#6,'Sewerage and underground pipework',$,$,'2.3',$,$,$,.F.,$,#58,.INSTALLATION.);
#60=IFCTASKTIME('Pour ground floor slab Time',.PREDICTED.,$,.WORKTIME.,'P0Y0M8D','2027-03-01T07:00:00','2027-03-10T07:00:00','2027-04-20T07:00:00','2027-04-30T07:00:00','2028-01-07T07:00:00','2028-01-18T07:00:00','P0Y0M169D','P0Y0M169D',.F.,$,$,$,$,$,0.00);
#61=IFCTASK('F7klj$o9znCx7DxHKps33d',#6,'Pour ground floor slab',$,$,'2.4',$,$,$,.F.,$,#60,.CONSTRUCTION.);
#62=IFCTASKTIME('3. Structural works Time',.PREDICTED.,$,.WORKTIME.,'P0Y0M5D','2027-03-01T07:00:00','2027-03-05T07:00:00','2027-03-16T07:00:00','2027-06-24T07:00:00','2027-03-16T07:00:00','2028-01-18T07:00:00','P0Y0M0D','P0Y0M0D',.T.,$,$,$,$,$,0.00);
#63=IFCTASK('3DIHrzalt$VRnJLF7Xz9ux',#6,'3. Structural works',$,$,'3',$,$,$,.F.,$,#62,.CONSTRUCTION.);
#64=IFCTASKTIME('Ground floor load-bearing structure Time',.PREDICTED.,$,.WORKTIME.,'P0Y0M12D','2027-03-01T07:00:00','2027-03-16T07:00:00','2027-03-16T07:00:00','2027-04-02T07:00:00','2027-03-16T07:00:00','2027-04-02T07:00:00','P0Y0M0D','P0Y0M0D',.T.,$,$,$,$,$,0.00);
#65=IFCTASK('LvyTCRTHnZ_RHZTFQ37p0t',#6,'Ground floor load-bearing structure',$,$,'3.1',$,$,$,.F.,$,#64,.CONSTRUCTION.);
#66=IFCTASKTIME('Floor 1 concrete Time',.PREDICTED.,$,.WORKTIME.,'P0Y0M10D','2027-03-01T07:00:00','2027-03-12T07:00:00','2027-04-05T07:00:00','2027-04-16T07:00:00','2027-04-05T07:00:00','2027-04-16T07:00:00','P0Y0M0D','P0Y0M0D',.T.,$,$,$,$,$,0.00);
#67=IFCTASK('HfOH5hz1aXLHpnXVWN6jEb',#6,'Floor 1 concrete',$,$,'3.2',$,$,$,.F.,$,#66,.CONSTRUCTION.);
#68=IFCTASKTIME('Floor 2 concrete Time',.PREDICTED.,$,.WORKTIME.,'P0Y0M10D','2027-03-01T07:00:00','2027-03-12T07:00:00','2027-04-19T07:00:00','2027-05-03T07:00:00','2027-04-19T07:00:00','2027-05-03T07:00:00','P0Y0M0D','P0Y0M0D',.T.,$,$,$,$,$,0.00);
#69=IFCTASK('m9yrXjs1Cdizdn91fN_BK1',#6,'Floor 2 concrete',$,$,'3.3',$,$,$,.F.,$,#68,.CONSTRUCTION.);
#70=IFCTASKTIME('Facade masonry Time',.PREDICTED.,$,.WORKTIME.,'P0Y0M15D','2027-03-01T07:00:00','2027-03-19T07:00:00','2027-05-04T07:00:00','2027-05-27T07:00:00','2027-05-04T07:00:00','2027-05-27T07:00:00','P0Y0M0D','P0Y0M0D',.T.,$,$,$,$,$,0.00);
#71=IFCTASK('Kv4rvPRVDdljYte$Rx2rWv',#6,'Facade masonry',$,$,'3.4',$,$,$,.F.,$,#70,.CONSTRUCTION.);
#72=IFCTASKTIME('Internal walls, sand-lime brick Time',.PREDICTED.,$,.WORKTIME.,'P0Y0M10D','2027-03-01T07:00:00','2027-03-12T07:00:00','2027-05-28T07:00:00','2027-06-10T07:00:00','2027-05-28T07:00:00','2027-06-10T07:00:00','P0Y0M0D','P0Y0M0D',.T.,$,$,$,$,$,0.00);
#73=IFCTASK('nvkl7LiVrZqZrDHX5BazfT',#6,'Internal walls, sand-lime brick',$,$,'3.5',$,$,$,.F.,$,#72,.CONSTRUCTION.);
#74=IFCTASKTIME('Roof structure Time',.PREDICTED.,$,.WORKTIME.,'P0Y0M10D','2027-03-01T07:00:00','2027-03-12T07:00:00','2027-06-11T07:00:00','2027-06-24T07:00:00','2027-06-11T07:00:00','2027-06-24T07:00:00','P0Y0M0D','P0Y0M0D',.T.,$,$,$,$,$,0.00);
#75=IFCTASK('s9MPNJZlhpYff5KlGnbnlB',#6,'Roof structure',$,$,'3.6',$,$,$,.F.,$,#74,.CONSTRUCTION.);
#76=IFCTASKTIME('Topping out Time',.PREDICTED.,$,.WORKTIME.,'P0Y0M0D','2027-03-01T07:00:00','2027-03-01T07:00:00','2027-06-24T07:00:00','2027-06-24T07:00:00','2028-01-18T07:00:00','2028-01-18T07:00:00','P0Y0M133D','P0Y0M133D',.F.,$,$,$,$,$,0.00);
#77=IFCTASK('DrFxMVbVHj4pi$LHR5kxdv',#6,'Topping out',$,$,'3.7',$,$,$,.T.,$,#76,.CONSTRUCTION.);
#78=IFCTASKTIME('4. Facade & roof Time',.PREDICTED.,$,.WORKTIME.,'P0Y0M5D','2027-03-01T07:00:00','2027-03-05T07:00:00','2027-06-08T07:00:00','2027-08-16T07:00:00','2027-06-08T07:00:00','2028-01-18T07:00:00','P0Y0M0D','P0Y0M0D',.T.,$,$,$,$,$,0.00);
#79=IFCTASK('K7ij3BWtVPFpy3d1pdi5HB',#6,'4. Facade & roof',$,$,'4',$,$,$,.F.,$,#78,.CONSTRUCTION.);
#80=IFCTASKTIME('Facade insulation and finish Time',.PREDICTED.,$,.WORKTIME.,'P0Y0M12D','2027-03-01T07:00:00','2027-03-16T07:00:00','2027-06-08T07:00:00','2027-06-23T07:00:00','2027-06-08T07:00:00','2027-06-23T07:00:00','P0Y0M0D','P0Y0M0D',.T.,$,$,$,$,$,0.00);
#81=IFCTASK('HxvBhtiXbhxX_P2V3FxlF1',#6,'Facade insulation and finish',$,$,'4.1',$,$,$,.F.,$,#80,.INSTALLATION.);
#82=IFCTASKTIME('Window frames and screens Time',.PREDICTED.,$,.WORKTIME.,'P0Y0M10D','2027-03-01T07:00:00','2027-03-12T07:00:00','2027-06-24T07:00:00','2027-07-07T07:00:00','2027-06-24T07:00:00','2027-07-07T07:00:00','P0Y0M0D','P0Y0M0D',.T.,$,$,$,$,$,0.00);
#83=IFCTASK('ohJdrzincjajYfqn0vOXeL',#6,'Window frames and screens',$,$,'4.2',$,$,$,.F.,$,#82,.INSTALLATION.);
#84=IFCTASKTIME('Roof insulation and covering Time',.PREDICTED.,$,.WORKTIME.,'P0Y0M8D','2027-03-01T07:00:00','2027-03-10T07:00:00','2027-07-08T07:00:00','2027-07-19T07:00:00','2027-07-08T07:00:00','2027-07-19T07:00:00','P0Y0M0D','P0Y0M0D',.T.,$,$,$,$,$,0.00);
#85=IFCTASK('d1dLXfGf4HTd8H9$KDgZvt',#6,'Roof insulation and covering',$,$,'4.3',$,$,$,.F.,$,#84,.CONSTRUCTION.);
#86=IFCTASKTIME('Roof edges and rainwater drainage Time',.PREDICTED.,$,.WORKTIME.,'P0Y0M5D','2027-03-01T07:00:00','2027-03-05T07:00:00','2027-07-20T07:00:00','2027-08-16T07:00:00','2027-07-20T07:00:00','2027-08-16T07:00:00','P0Y0M0D','P0Y0M0D',.T.,$,$,$,$,$,0.00);
#87=IFCTASK('exyTGNGf6zIP4fO$DdyZdd',#6,'Roof edges and rainwater drainage',$,$,'4.4',$,$,$,.F.,$,#86,.CONSTRUCTION.);
#88=IFCTASKTIME('Wind and weathertight Time',.PREDICTED.,$,.WORKTIME.,'P0Y0M0D','2027-03-01T07:00:00','2027-03-01T07:00:00','2027-08-16T07:00:00','2027-08-16T07:00:00','2028-01-18T07:00:00','2028-01-18T07:00:00','P0Y0M111D','P0Y0M111D',.F.,$,$,$,$,$,0.00);
#89=IFCTASK('Ap1BFBFd9XzNNRO$BD5lLD',#6,'Wind and weathertight',$,$,'4.5',$,$,$,.T.,$,#88,.CONSTRUCTION.);
#90=IFCTASKTIME('5. Building services Time',.PREDICTED.,$,.WORKTIME.,'P0Y0M5D','2027-03-01T07:00:00','2027-03-05T07:00:00','2027-08-17T07:00:00','2027-11-24T07:00:00','2027-08-17T07:00:00','2028-01-18T07:00:00','P0Y0M0D','P0Y0M0D',.T.,$,$,$,$,$,0.00);
#91=IFCTASK('ItibGfW9fRjNbBUXPhm947',#6,'5. Building services',$,$,'5',$,$,$,.F.,$,#90,.INSTALLATION.);
#92=IFCTASKTIME('Main electrical distribution Time',.PREDICTED.,$,.WORKTIME.,'P0Y0M8D','2027-03-01T07:00:00','2027-03-10T07:00:00','2027-08-17T07:00:00','2027-08-26T07:00:00','2027-08-17T07:00:00','2027-08-26T07:00:00','P0Y0M0D','P0Y0M0D',.T.,$,$,$,$,$,0.00);
#93=IFCTASK('j9ahPbM1gvrnJj918heXKJ',#6,'Main electrical distribution',$,$,'5.1',$,$,$,.F.,$,#92,.INSTALLATION.);
#94=IFCTASKTIME('Emergency power supply Time',.PREDICTED.,$,.WORKTIME.,'P0Y0M5D','2027-03-01T07:00:00','2027-03-05T07:00:00','2027-08-27T07:00:00','2027-09-02T07:00:00','2027-10-21T07:00:00','2027-10-27T07:00:00','P0Y0M0D','P0Y0M39D',.F.,$,$,$,$,$,0.00);
#95=IFCTASK('3FxXCPL$Q1Ux11f$Bfk5f$',#6,'Emergency power supply',$,$,'5.2',$,$,$,.F.,$,#94,.INSTALLATION.);
#96=IFCTASKTIME('Oxygen and medical gases Time',.PREDICTED.,$,.WORKTIME.,'P0Y0M8D','2027-03-01T07:00:00','2027-03-10T07:00:00','2027-09-03T07:00:00','2027-09-14T07:00:00','2027-10-28T07:00:00','2027-11-08T07:00:00','P0Y0M0D','P0Y0M39D',.F.,$,$,$,$,$,0.00);
#97=IFCTASK('xHDvZbcVBtsTrDf$9zHrCF',#6,'Oxygen and medical gases',$,$,'5.3',$,$,$,.F.,$,#96,.INSTALLATION.);
#98=IFCTASKTIME('Heating and cooling Time',.PREDICTED.,$,.WORKTIME.,'P0Y0M10D','2027-03-01T07:00:00','2027-03-12T07:00:00','2027-09-08T07:00:00','2027-09-21T07:00:00','2027-11-02T07:00:00','2027-11-15T07:00:00','P0Y0M0D','P0Y0M39D',.F.,$,$,$,$,$,0.00);
#99=IFCTASK('pLJPj1MdpdXznjRFqzelRx',#6,'Heating and cooling',$,$,'5.4',$,$,$,.F.,$,#98,.INSTALLATION.);
#100=IFCTASKTIME('Ventilation with HEPA filters Time',.PREDICTED.,$,.WORKTIME.,'P0Y0M10D','2027-03-01T07:00:00','2027-03-12T07:00:00','2027-09-22T07:00:00','2027-10-05T07:00:00','2027-11-16T07:00:00','2027-11-29T07:00:00','P0Y0M0D','P0Y0M39D',.F.,$,$,$,$,$,0.00);
#101=IFCTASK('zjobGNW9JrxXUzv1j5RF3B',#6,'Ventilation with HEPA filters',$,$,'5.5',$,$,$,.F.,$,#100,.INSTALLATION.);
#102=IFCTASKTIME('Sprinkler and fire alarm Time',.PREDICTED.,$,.WORKTIME.,'P0Y0M8D','2027-03-01T07:00:00','2027-03-10T07:00:00','2027-10-06T07:00:00','2027-10-15T07:00:00','2027-11-30T07:00:00','2027-12-09T07:00:00','P0Y0M0D','P0Y0M39D',.F.,$,$,$,$,$,0.00);
#103=IFCTASK('PXrXG9iVRrvpyzt14hvpW7',#6,'Sprinkler and fire alarm',$,$,'5.6',$,$,$,.F.,$,#102,.INSTALLATION.);
#104=IFCTASKTIME('Lift installation Time',.PREDICTED.,$,.WORKTIME.,'P0Y0M15D','2027-03-01T07:00:00','2027-03-19T07:00:00','2027-10-18T07:00:00','2027-11-05T07:00:00','2027-12-10T07:00:00','2027-12-30T07:00:00','P0Y0M0D','P0Y0M39D',.F.,$,$,$,$,$,0.00);
#105=IFCTASK('hdeHb51dT1AZjV9$ablzzv',#6,'Lift installation',$,$,'5.7',$,$,$,.F.,$,#104,.INSTALLATION.);
#106=IFCTASKTIME('Nurse call system Time',.PREDICTED.,$,.WORKTIME.,'P0Y0M5D','2027-03-01T07:00:00','2027-03-05T07:00:00','2027-11-08T07:00:00','2027-11-12T07:00:00','2027-12-31T07:00:00','2028-01-06T07:00:00','P0Y0M0D','P0Y0M39D',.F.,$,$,$,$,$,0.00);
#107=IFCTASK('V3CxIlWtdpAlxx8$s$lzPh',#6,'Nurse call system',$,$,'5.8',$,$,$,.F.,$,#106,.INSTALLATION.);
#108=IFCTASKTIME('ICT cabling Time',.PREDICTED.,$,.WORKTIME.,'P0Y0M8D','2027-03-01T07:00:00','2027-03-10T07:00:00','2027-11-15T07:00:00','2027-11-24T07:00:00','2028-01-07T07:00:00','2028-01-18T07:00:00','P0Y0M39D','P0Y0M39D',.F.,$,$,$,$,$,0.00);
#109=IFCTASK('cVJvlxdtpRDt5FZnMLGtu5',#6,'ICT cabling',$,$,'5.9',$,$,$,.F.,$,#108,.INSTALLATION.);
#110=IFCTASKTIME('6. Fit-out Time',.PREDICTED.,$,.WORKTIME.,'P0Y0M5D','2027-03-01T07:00:00','2027-03-05T07:00:00','2027-10-11T07:00:00','2027-12-23T07:00:00','2027-10-11T07:00:00','2027-12-23T07:00:00','P0Y0M0D','P0Y0M0D',.T.,$,$,$,$,$,0.00);
#111=IFCTASK('tJrFNnCn0BdJInTnk1hl9j',#6,'6. Fit-out',$,$,'6',$,$,$,.F.,$,#110,.CONSTRUCTION.);
#112=IFCTASKTIME('Partition walls Time',.PREDICTED.,$,.WORKTIME.,'P0Y0M8D','2027-03-01T07:00:00','2027-03-10T07:00:00','2027-10-11T07:00:00','2027-10-20T07:00:00','2027-10-11T07:00:00','2027-10-20T07:00:00','P0Y0M0D','P0Y0M0D',.T.,$,$,$,$,$,0.00);
#113=IFCTASK('nLR1wP2FKt2RhfqlolHzdB',#6,'Partition walls',$,$,'6.1',$,$,$,.F.,$,#112,.CONSTRUCTION.);
#114=IFCTASKTIME('Finish ceilings and walls Time',.PREDICTED.,$,.WORKTIME.,'P0Y0M10D','2027-03-01T07:00:00','2027-03-12T07:00:00','2027-10-21T07:00:00','2027-11-03T07:00:00','2027-10-21T07:00:00','2027-11-03T07:00:00','P0Y0M0D','P0Y0M0D',.T.,$,$,$,$,$,0.00);
#115=IFCTASK('DP_rBPA1ylD9BvclldCDm$',#6,'Finish ceilings and walls',$,$,'6.2',$,$,$,.F.,$,#114,.CONSTRUCTION.);
#116=IFCTASKTIME('Tiling, wet rooms Time',.PREDICTED.,$,.WORKTIME.,'P0Y0M8D','2027-03-01T07:00:00','2027-03-10T07:00:00','2027-11-04T07:00:00','2027-11-15T07:00:00','2027-11-04T07:00:00','2027-11-15T07:00:00','P0Y0M0D','P0Y0M0D',.T.,$,$,$,$,$,0.00);
#117=IFCTASK('7BMPX9qVnnCZRBIXI3WP9F',#6,'Tiling, wet rooms',$,$,'6.3',$,$,$,.F.,$,#116,.CONSTRUCTION.);
#118=IFCTASKTIME('Screeds and floor finishes Time',.PREDICTED.,$,.WORKTIME.,'P0Y0M8D','2027-03-01T07:00:00','2027-03-10T07:00:00','2027-11-16T07:00:00','2027-11-25T07:00:00','2027-11-16T07:00:00','2027-11-25T07:00:00','P0Y0M0D','P0Y0M0D',.T.,$,$,$,$,$,0.00);
#119=IFCTASK('h31ZGtqXfxtRNdoVeRUnbV',#6,'Screeds and floor finishes',$,$,'6.4',$,$,$,.F.,$,#118,.CONSTRUCTION.);
#120=IFCTASKTIME('Painting Time',.PREDICTED.,$,.WORKTIME.,'P0Y0M10D','2027-03-01T07:00:00','2027-03-12T07:00:00','2027-11-26T07:00:00','2027-12-09T07:00:00','2027-11-26T07:00:00','2027-12-09T07:00:00','P0Y0M0D','P0Y0M0D',.T.,$,$,$,$,$,0.00);
#121=IFCTASK('ix7r5l9fERbXIbiF_b9B0N',#6,'Painting',$,$,'6.5',$,$,$,.F.,$,#120,.CONSTRUCTION.);
#122=IFCTASKTIME('Kitchens and pantry Time',.PREDICTED.,$,.WORKTIME.,'P0Y0M5D','2027-03-01T07:00:00','2027-03-05T07:00:00','2027-12-10T07:00:00','2027-12-16T07:00:00','2027-12-10T07:00:00','2027-12-16T07:00:00','P0Y0M0D','P0Y0M0D',.T.,$,$,$,$,$,0.00);
#123=IFCTASK('jNWNORYFQDu7AvQHDrR1k7',#6,'Kitchens and pantry',$,$,'6.6',$,$,$,.F.,$,#122,.INSTALLATION.);
#124=IFCTASKTIME('Install sanitary fittings Time',.PREDICTED.,$,.WORKTIME.,'P0Y0M5D','2027-03-01T07:00:00','2027-03-05T07:00:00','2027-12-17T07:00:00','2027-12-23T07:00:00','2027-12-17T07:00:00','2027-12-23T07:00:00','P0Y0M0D','P0Y0M0D',.T.,$,$,$,$,$,0.00);
#125=IFCTASK('xF9pvB093nara7_FbR_lDF',#6,'Install sanitary fittings',$,$,'6.7',$,$,$,.F.,$,#124,.INSTALLATION.);
#126=IFCTASKTIME('7. Handover Time',.PREDICTED.,$,.WORKTIME.,'P0Y0M5D','2027-03-01T07:00:00','2027-03-05T07:00:00','2027-12-24T07:00:00','2028-01-18T07:00:00','2027-12-24T07:00:00','2028-01-18T07:00:00','P0Y0M0D','P0Y0M0D',.T.,$,$,$,$,$,0.00);
#127=IFCTASK('QVJ7jZVvGDQVAxSnv$l3V7',#6,'7. Handover',$,$,'7',$,$,$,.F.,$,#126,.CONSTRUCTION.);
#128=IFCTASKTIME('Construct external areas Time',.PREDICTED.,$,.WORKTIME.,'P0Y0M8D','2027-03-01T07:00:00','2027-03-10T07:00:00','2027-12-24T07:00:00','2028-01-04T07:00:00','2027-12-24T07:00:00','2028-01-04T07:00:00','P0Y0M0D','P0Y0M0D',.T.,$,$,$,$,$,0.00);
#129=IFCTASK('OROHhpAPjBLl9BUVfpr1ER',#6,'Construct external areas',$,$,'7.1',$,$,$,.F.,$,#128,.CONSTRUCTION.);
#130=IFCTASKTIME('Room furnishing Time',.PREDICTED.,$,.WORKTIME.,'P0Y0M5D','2027-03-01T07:00:00','2027-03-05T07:00:00','2028-01-05T07:00:00','2028-01-11T07:00:00','2028-01-05T07:00:00','2028-01-11T07:00:00','P0Y0M0D','P0Y0M0D',.T.,$,$,$,$,$,0.00);
#131=IFCTASK('7hgzYtT1Upw1ibCnqTKJcl',#6,'Room furnishing',$,$,'7.2',$,$,$,.F.,$,#130,.LOGISTIC.);
#132=IFCTASKTIME('Test building services Time',.PREDICTED.,$,.WORKTIME.,'P0Y0M5D','2027-03-01T07:00:00','2027-03-05T07:00:00','2028-01-12T07:00:00','2028-01-18T07:00:00','2028-01-12T07:00:00','2028-01-18T07:00:00','P0Y0M0D','P0Y0M0D',.T.,$,$,$,$,$,0.00);
#133=IFCTASK('6h2rt167objN1XBnv5oRhp',#6,'Test building services',$,$,'7.3',$,$,$,.F.,$,#132,.ATTENDANCE.);
#134=IFCTASKTIME('Handover Time',.PREDICTED.,$,.WORKTIME.,'P0Y0M0D','2027-03-01T07:00:00','2027-03-01T07:00:00','2028-01-18T07:00:00','2028-01-18T07:00:00','2028-01-18T07:00:00','2028-01-18T07:00:00','P0Y0M0D','P0Y0M0D',.T.,$,$,$,$,$,0.00);
#135=IFCTASK('b$X3oz5n0hpd8fql6fYLEN',#6,'Handover',$,$,'7.4',$,$,$,.T.,$,#134,.CONSTRUCTION.);
#136=IFCRELNESTS('Itqx_rmfqPKzfPA$9PmfYj',#6,'WBS 1. Preparation',$,#43,( #45,#47,#49,#51));
#137=IFCRELNESTS('S$XzkDF72ZyDCHjH$1LHX7',#6,'WBS 2. Foundations',$,#53,( #55,#57,#59,#61));
#138=IFCRELNESTS('s92XCbjn8$Y5j1DnTXVRtp',#6,'WBS 3. Structural works',$,#63,( #65,#67,#69,#71,#73,#75,#77));
#139=IFCRELNESTS('ph5Xmta1oH3vklv$dBS3fT',#6,'WBS 4. Facade & roof',$,#79,( #81,#83,#85,#87,#89));
#140=IFCRELNESTS('rJ5VuBGfQjyL6pJFLPOHtD',#6,'WBS 5. Building services',$,#91,( #93,#95,#97,#99,#101,#103,#105,#107,#109));
#141=IFCRELNESTS('_HFxIJjnu1ErqhUnj5Dddv',#6,'WBS 6. Fit-out',$,#111,( #113,#115,#117,#119,#121,#123,#125));
#142=IFCRELNESTS('V3ibyVs1aXJv6pJnpLtzbR',#6,'WBS 7. Handover',$,#127,( #129,#131,#133,#135));
#143=IFCRELNESTS('tjjP5r1vgdnD4TBHzDgTrv',#6,'WBS Hoofd',$,#40,(#43,#53,#63,#79,#91,#111,#127));
#144=IFCRELSEQUENCE('nvIH7B0t7fsHh3VVkTarW7',#6,$,$,#45,#47,$,.FINISH_START.,$);
#145=IFCRELSEQUENCE('PVz96Z09X5XzrPEX0vGNsP',#6,$,$,#47,#49,$,.FINISH_START.,$);
#146=IFCRELSEQUENCE('xnfjHRTHTV2t9fWX7XpPrd',#6,$,$,#49,#51,$,.FINISH_START.,$);
#147=IFCRELSEQUENCE('$DY$Mx$P1LlBe7wH7$XpaN',#6,$,$,#55,#57,$,.FINISH_START.,$);
#148=IFCRELSEQUENCE('k5nDrZOvedHJYzf$YLdJcL',#6,$,$,#57,#59,$,.FINISH_START.,$);
#149=IFCRELSEQUENCE('R1PhBzSlTXw1WJnXRVRFZx',#6,$,$,#59,#61,$,.FINISH_START.,$);
#150=IFCRELSEQUENCE('lbJvL9SH79_R71DnjNgTHr',#6,$,$,#65,#67,$,.FINISH_START.,$);
#151=IFCRELSEQUENCE('6BY$_PzldjUxzdIVA5MTBP',#6,$,$,#67,#69,$,.FINISH_START.,$);
#152=IFCRELSEQUENCE('nrfjFLrlfRJfz76lF5RFn5',#6,$,$,#69,#71,$,.FINISH_START.,$);
#153=IFCRELSEQUENCE('BplR0nz$ijqZLzf1gnvp09',#6,$,$,#71,#73,$,.FINISH_START.,$);
#154=IFCRELSEQUENCE('hTjv3LKXnTwJM9incTjvDF',#6,$,$,#73,#75,$,.FINISH_START.,$);
#155=IFCRELSEQUENCE('cXDdFld9h7uN5bqHIXt3bR',#6,$,$,#75,#77,$,.FINISH_START.,$);
#156=IFCRELSEQUENCE('W1$ZyzCV$fhlVFRlonJ7Tt',#6,$,$,#81,#83,$,.FINISH_START.,$);
#157=IFCRELSEQUENCE('8jTNaDwv6lOPy3d$TXFhoN',#6,$,$,#83,#85,$,.FINISH_START.,$);
#158=IFCRELSEQUENCE('tJjP5hT1c$6Js5SlTXnLYj',#6,$,$,#85,#87,$,.FINISH_START.,$);
#159=IFCRELSEQUENCE('0nLH17w7wFSJghMH2xbFxH',#6,$,$,#87,#89,$,.FINISH_START.,$);
#160=IFCRELSEQUENCE('ixtxshjVJBLHz7UFDhvDKD',#6,$,$,#93,#95,$,.FINISH_START.,$);
#161=IFCRELSEQUENCE('NPuVOREHvtkhsvgHollz3d',#6,$,$,#95,#97,$,.FINISH_START.,$);
#162=IFCLAGTIME('Lag',.PREDICTED.,$,IFCDURATION('P3D'),.WORKTIME.);
#163=IFCRELSEQUENCE('vFVLhJQX9r15f5ClI$b$MJ',#6,$,$,#97,#99,#162,.START_START.,$);
#164=IFCRELSEQUENCE('W$PLZ9hlPvWHXFhHrjFZlB',#6,$,$,#99,#101,$,.FINISH_START.,$);
#165=IFCRELSEQUENCE('ZXL1IDvttXLlXFpnhZZt09',#6,$,$,#101,#103,$,.FINISH_START.,$);
#166=IFCRELSEQUENCE('0llbaHu7632tpTf1$XfZLf',#6,$,$,#103,#105,$,.FINISH_START.,$);
#167=IFCRELSEQUENCE('vLERWXB1KfQVQzrFLP81cL',#6,$,$,#105,#107,$,.FINISH_START.,$);
#168=IFCRELSEQUENCE('b5C5kJh1k$$5VnpFNtMf21',#6,$,$,#107,#109,$,.FINISH_START.,$);
#169=IFCRELSEQUENCE('b1fbqRbXD737gfWXzFDPd7',#6,$,$,#113,#115,$,.FINISH_START.,$);
#170=IFCRELSEQUENCE('pvAv3B8dpvRXQZXVKpob5L',#6,$,$,#115,#117,$,.FINISH_START.,$);
#171=IFCRELSEQUENCE('gT5nh9iVr3uNRhwHxhuFHh',#6,$,$,#117,#119,$,.FINISH_START.,$);
#172=IFCRELSEQUENCE('mvwt_revu9NZ5R4HdLWPNX',#6,$,$,#119,#121,$,.FINISH_START.,$);
#173=IFCRELSEQUENCE('LzFDLj6XrzWH37oFoJUF7t',#6,$,$,#121,#123,$,.FINISH_START.,$);
#174=IFCRELSEQUENCE('oP6pNpXPzZwjwpZFEpwjUD',#6,$,$,#123,#125,$,.FINISH_START.,$);
#175=IFCRELSEQUENCE('9f6pBZO7WR37klv1ZZij21',#6,$,$,#129,#131,$,.FINISH_START.,$);
#176=IFCRELSEQUENCE('W1PhRbr$mD6$a7glkV93dh',#6,$,$,#131,#133,$,.FINISH_START.,$);
#177=IFCRELSEQUENCE('ZZGP1dA1iNovEVjH$1xXez',#6,$,$,#133,#135,$,.FINISH_START.,$);
#178=IFCLAGTIME('Lag',.PREDICTED.,$,IFCDURATION('P6D'),.WORKTIME.);
#179=IFCRELSEQUENCE('bbWfWXDFoRZdqFv$kV15pj',#6,$,$,#45,#55,#178,.START_START.,$);
#180=IFCLAGTIME('Lag',.PREDICTED.,$,IFCRATIOMEASURE(0.4),.WORKTIME.);
#181=IFCRELSEQUENCE('qf_BdfdtRVZtPlxnoJEXGH',#6,$,$,#55,#65,#180,.START_START.,$);
#182=IFCLAGTIME('Lag',.PREDICTED.,$,IFCDURATION('-P13D'),.WORKTIME.);
#183=IFCRELSEQUENCE('VzKJT5w7wToruFhHpdqDaR',#6,$,$,#75,#81,#182,.FINISH_START.,$);
#184=IFCLAGTIME('Lag',.PREDICTED.,$,IFCDURATION('P2D'),.WORKTIME.);
#185=IFCRELSEQUENCE('Y195U5Yf8$khclbnK$1jYj',#6,$,$,#75,#87,#184,.FINISH_FINISH.,$);
#186=IFCRELSEQUENCE('4Dsvl5l7yHx$SvInqZK53r',#6,$,$,#87,#93,$,.FINISH_START.,$);
#187=IFCLAGTIME('Lag',.PREDICTED.,$,IFCDURATION('P39D'),.WORKTIME.);
#188=IFCRELSEQUENCE('PVpdLJUnYpkdClhn3nTNAZ',#6,$,$,#93,#113,#187,.START_START.,$);
#189=IFCRELSEQUENCE('ez7BxlP9jLXR3bmXuLGNER',#6,$,$,#125,#129,$,.FINISH_START.,$);
#190=IFCSUBCONTRACTRESOURCE('_F5XOzpV5xN5l90XDhvDax',#6,'Civils and landscaping contractor','Site set-up, tree work, the underground pipework and the external areas at handover',$,$,$,$,.USERDEFINED.);
#191=IFCSUBCONTRACTRESOURCE('g39xAHlPxnVzbVbnKDszLD',#6,'Piling contractor',$,$,$,$,$,.USERDEFINED.);
#192=IFCLABORRESOURCE('7FNj3hqFevhlTfu$zpI53r',#6,'Structural works crew','Concrete gangs for foundations and superstructure; the two phases overlap',$,$,$,$,.USERDEFINED.);
#193=IFCLABORRESOURCE('e54BR19NePPry3XXQ7ar0t',#6,'Bricklayers','Facade masonry and the sand-lime brick internal walls, one gang moving through the building',$,$,$,$,.USERDEFINED.);
#194=IFCCONSTRUCTIONEQUIPMENTRESOURCE('CtMd9TffKpWlBj5ncz$x5H',#6,'Mobile crane','One mobile crane for the floors, the masonry supply and the roof structure',$,$,$,$,.USERDEFINED.);
#195=IFCCONSTRUCTIONMATERIALRESOURCE('W1X3gXjFGD6$KbCFmFztmX',#6,'Concrete C30/37',$,$,$,$,$,.USERDEFINED.);
#196=IFCSUBCONTRACTRESOURCE('zJI5Anhl7fAH11$XYBzfAT',#6,'Facade contractor','Facade insulation and finish, window frames and sun screens',$,$,$,$,.USERDEFINED.);
#197=IFCSUBCONTRACTRESOURCE('WVbl7BWtTJarG5alL3Hr09',#6,'Roofing contractor',$,$,$,$,$,.USERDEFINED.);
#198=IFCLABORRESOURCE('U3ShjXUnMxdBmrA1jtYntH',#6,'Electricians','Distribution, emergency power, nurse call and the data cabling',$,$,$,$,.USERDEFINED.);
#199=IFCLABORRESOURCE('S3KJRVB1OdvLgBUVhdWdr7',#6,'Mechanical fitters',$,$,$,$,$,.USERDEFINED.);
#200=IFCSUBCONTRACTRESOURCE('Gdg367o99XDPKbqn0vWP$p',#6,'Medical gas contractor','Certified installer for oxygen and medical gases — a care-specific package',$,$,$,$,.USERDEFINED.);
#201=IFCSUBCONTRACTRESOURCE('OxiRuJJnq7etlTLljtgNkP',#6,'Lift contractor',$,$,$,$,$,.USERDEFINED.);
#202=IFCLABORRESOURCE('VVL163KVt1fZvDpF$ZyhcF',#6,'Fit-out crew','Partitions, ceilings, screeds, pantries and finally the room furnishing',$,$,$,$,.USERDEFINED.);
#203=IFCLABORRESOURCE('rN2BLtKVZ12RvXN$QzNTDJ',#6,'Tilers',$,$,$,$,$,.USERDEFINED.);
#204=IFCLABORRESOURCE('ZXxnDDlvGjILs7knGnjv19',#6,'Painters',$,$,$,$,$,.USERDEFINED.);
#205=IFCLABORRESOURCE('5HhHl$HvaVDPmBkV_twd79',#6,'Commissioning engineer','Balances and tests the services with the care provider before handover',$,$,$,$,.USERDEFINED.);
#206=IFCPROPERTYSINGLEVALUE('MaxUnits',$,IFCREAL(5),$);
#207=IFCPROPERTYSINGLEVALUE('CostPerHour',$,IFCMONETARYMEASURE(56),$);
#208=IFCPROPERTYSINGLEVALUE('Color',$,IFCTEXT('#1E293B'),$);
#209=IFCPROPERTYSET('kxPh17gPPPCZZtal3nxHHF',#6,'OPS_Resource',$,(#206,#207,#208));
#210=IFCRELDEFINESBYPROPERTIES('vHLlNJ3H73Otb$lX$3OlfT',#6,$,$,(#190),#209);
#211=IFCPROPERTYSINGLEVALUE('MaxUnits',$,IFCREAL(4),$);
#212=IFCPROPERTYSINGLEVALUE('CostPerHour',$,IFCMONETARYMEASURE(78),$);
#213=IFCPROPERTYSINGLEVALUE('Color',$,IFCTEXT('#B91C1C'),$);
#214=IFCPROPERTYSET('g7Kbe3jVv30n5nzFex6jw$',#6,'OPS_Resource',$,(#211,#212,#213));
#215=IFCRELDEFINESBYPROPERTIES('HbL$EXEH3H8NtL6lLTj7Zt',#6,$,$,(#191),#214);
#216=IFCPROPERTYSINGLEVALUE('MaxUnits',$,IFCREAL(12),$);
#217=IFCPROPERTYSINGLEVALUE('CostPerHour',$,IFCMONETARYMEASURE(46),$);
#218=IFCPROPERTYSINGLEVALUE('Color',$,IFCTEXT('#DB2777'),$);
#219=IFCPROPERTYSET('pvIlbxtN8tHr0T91FxB16$',#6,'OPS_Resource',$,(#216,#217,#218));
#220=IFCRELDEFINESBYPROPERTIES('CBHRe3xFC7Od8n3FafwJ61',#6,$,$,(#192),#219);
#221=IFCPROPERTYSINGLEVALUE('MaxUnits',$,IFCREAL(6),$);
#222=IFCPROPERTYSINGLEVALUE('CostPerHour',$,IFCMONETARYMEASURE(46),$);
#223=IFCPROPERTYSINGLEVALUE('Color',$,IFCTEXT('#C2410C'),$);
#224=IFCPROPERTYSET('4nVLvreP9hzNvpTnIXnLQB',#6,'OPS_Resource',$,(#221,#222,#223));
#225=IFCRELDEFINESBYPROPERTIES('T3ibKNdtzZ_bpZHVVDsz7b',#6,$,$,(#193),#224);
#226=IFCPROPERTYSINGLEVALUE('CostPerHour',$,IFCMONETARYMEASURE(95),$);
#227=IFCPROPERTYSINGLEVALUE('Color',$,IFCTEXT('#6366F1'),$);
#228=IFCPROPERTYSET('W17rxHd973OP8H9$8ZLHvx',#6,'OPS_Resource',$,(#226,#227));
#229=IFCRELDEFINESBYPROPERTIES('vhwpBziFgRBFb1nXxnnLgJ',#6,$,$,(#194),#228);
#230=IFCPROPERTYSINGLEVALUE('MaxUnits',$,IFCREAL(999),$);
#231=IFCPROPERTYSINGLEVALUE('UnitOfMeasure',$,IFCLABEL('m³'),$);
#232=IFCPROPERTYSINGLEVALUE('Color',$,IFCTEXT('#0D9488'),$);
#233=IFCPROPERTYSET('qrPzgxVdp5FpSD1X_NQDCZ',#6,'OPS_Resource',$,(#230,#231,#232));
#234=IFCRELDEFINESBYPROPERTIES('bVxFnLz1W59b5l71DrR$Id',#6,$,$,(#195),#233);
#235=IFCPROPERTYSINGLEVALUE('MaxUnits',$,IFCREAL(6),$);
#236=IFCPROPERTYSINGLEVALUE('CostPerHour',$,IFCMONETARYMEASURE(68),$);
#237=IFCPROPERTYSINGLEVALUE('Color',$,IFCTEXT('#D97706'),$);
#238=IFCPROPERTYSET('fT5F3rev8$Y5hTrlnN_BWv',#6,'OPS_Resource',$,(#235,#236,#237));
#239=IFCRELDEFINESBYPROPERTIES('2FZNKr7tBzm1Sd6$K$tBSb',#6,$,$,(#196),#238);
#240=IFCPROPERTYSINGLEVALUE('MaxUnits',$,IFCREAL(4),$);
#241=IFCPROPERTYSINGLEVALUE('CostPerHour',$,IFCMONETARYMEASURE(66),$);
#242=IFCPROPERTYSINGLEVALUE('Color',$,IFCTEXT('#A78BFA'),$);
#243=IFCPROPERTYSET('ChhlLpE93nCT$XjlbVZNYJ',#6,'OPS_Resource',$,(#240,#241,#242));
#244=IFCRELDEFINESBYPROPERTIES('b19xYx_NI1dJgtqnSNk5Hr',#6,$,$,(#197),#243);
#245=IFCPROPERTYSINGLEVALUE('MaxUnits',$,IFCREAL(4),$);
#246=IFCPROPERTYSINGLEVALUE('CostPerHour',$,IFCMONETARYMEASURE(49),$);
#247=IFCPROPERTYSINGLEVALUE('Color',$,IFCTEXT('#38BDF8'),$);
#248=IFCPROPERTYSET('sp1rvdpFgvDtDTnXBNULsd',#6,'OPS_Resource',$,(#245,#246,#247));
#249=IFCRELDEFINESBYPROPERTIES('TXxn9VIlXv37o$P$y7KxtF',#6,$,$,(#198),#248);
#250=IFCPROPERTYSINGLEVALUE('MaxUnits',$,IFCREAL(6),$);
#251=IFCPROPERTYSINGLEVALUE('CostPerHour',$,IFCMONETARYMEASURE(48),$);
#252=IFCPROPERTYSINGLEVALUE('Color',$,IFCTEXT('#4ADE80'),$);
#253=IFCPROPERTYSET('up9pPbg$QjSJ2PoVejtrml',#6,'OPS_Resource',$,(#250,#251,#252));
#254=IFCRELDEFINESBYPROPERTIES('VXL$InCnWbRXQzxnIZ4ZJz',#6,$,$,(#199),#253);
#255=IFCPROPERTYSINGLEVALUE('MaxUnits',$,IFCREAL(3),$);
#256=IFCPROPERTYSINGLEVALUE('CostPerHour',$,IFCMONETARYMEASURE(88),$);
#257=IFCPROPERTYSINGLEVALUE('Color',$,IFCTEXT('#FBBF24'),$);
#258=IFCPROPERTYSET('aZGvnrtNkhJvU3XXUvOVKD',#6,'OPS_Resource',$,(#255,#256,#257));
#259=IFCRELDEFINESBYPROPERTIES('B9oFdtDVZ1gzb$HVlrb$6$',#6,$,$,(#200),#258);
#260=IFCPROPERTYSINGLEVALUE('MaxUnits',$,IFCREAL(3),$);
#261=IFCPROPERTYSINGLEVALUE('CostPerHour',$,IFCMONETARYMEASURE(82),$);
#262=IFCPROPERTYSINGLEVALUE('Color',$,IFCTEXT('#BEF264'),$);
#263=IFCPROPERTYSET('yFFx2P3lXddre7sluLuFJZ',#6,'OPS_Resource',$,(#260,#261,#262));
#264=IFCRELDEFINESBYPROPERTIES('Z3ShtZXvyn$ZRBM15n$5tn',#6,$,$,(#201),#263);
#265=IFCPROPERTYSINGLEVALUE('MaxUnits',$,IFCREAL(6),$);
#266=IFCPROPERTYSINGLEVALUE('CostPerHour',$,IFCMONETARYMEASURE(44),$);
#267=IFCPROPERTYSINGLEVALUE('Color',$,IFCTEXT('#1E293B'),$);
#268=IFCPROPERTYSET('DBdz6dYn6TMzrvcHb$Nhgt',#6,'OPS_Resource',$,(#265,#266,#267));
#269=IFCRELDEFINESBYPROPERTIES('c$HjLfe7qvWl$VrFtzdJg9',#6,$,$,(#202),#268);
#270=IFCPROPERTYSINGLEVALUE('MaxUnits',$,IFCREAL(4),$);
#271=IFCPROPERTYSINGLEVALUE('CostPerHour',$,IFCMONETARYMEASURE(43),$);
#272=IFCPROPERTYSINGLEVALUE('Color',$,IFCTEXT('#1E293B'),$);
#273=IFCPROPERTYSET('VVBXihxn8fZ9bX3HQTT9S9',#6,'OPS_Resource',$,(#270,#271,#272));
#274=IFCRELDEFINESBYPROPERTIES('6ron1ZGNQDO9f7IFyh7pyv',#6,$,$,(#203),#273);
#275=IFCPROPERTYSINGLEVALUE('MaxUnits',$,IFCREAL(5),$);
#276=IFCPROPERTYSINGLEVALUE('CostPerHour',$,IFCMONETARYMEASURE(38),$);
#277=IFCPROPERTYSINGLEVALUE('Color',$,IFCTEXT('#1E293B'),$);
#278=IFCPROPERTYSET('nrlbGN09pvhHZ9Slhz7pi1',#6,'OPS_Resource',$,(#275,#276,#277));
#279=IFCRELDEFINESBYPROPERTIES('Oz1ZmN0tD7jNDFP$i$1J6V',#6,$,$,(#204),#278);
#280=IFCPROPERTYSINGLEVALUE('MaxUnits',$,IFCREAL(2),$);
#281=IFCPROPERTYSINGLEVALUE('CostPerHour',$,IFCMONETARYMEASURE(85),$);
#282=IFCPROPERTYSINGLEVALUE('Color',$,IFCTEXT('#1E293B'),$);
#283=IFCPROPERTYSET('nd_B3h4HdDE7QFFVPheHXd',#6,'OPS_Resource',$,(#280,#281,#282));
#284=IFCRELDEFINESBYPROPERTIES('AJz9kp7tLDslNbu$6t6d9n',#6,$,$,(#205),#283);
#285=IFCRELASSIGNSTOPROCESS('$pA7j3xFShnLUZLHdFt3dh',#6,$,$,(#190),$,#45,$);
#286=IFCRELASSIGNSTOPROCESS('EhztQpc7OHO9fvMHsRMN2Z',#6,$,$,(#190),$,#49,$);
#287=IFCRELASSIGNSTOPROCESS('XzyrfHu76ZAZXHVVojc7DH',#6,$,$,(#191),$,#55,$);
#288=IFCRELASSIGNSTOPROCESS('XZOl93rHTDO9TrIVI1J7fT',#6,$,$,(#192,#195),$,#57,$);
#289=IFCRELASSIGNSTOPROCESS('6h6prTe7CZILorIVI1BFjT',#6,$,$,(#190),$,#59,$);
#290=IFCRELASSIGNSTOPROCESS('VVjvJ3pXd7m1y9Kngr4hg9',#6,$,$,(#192,#195),$,#61,$);
#291=IFCRELASSIGNSTOPROCESS('xlz9UN9N2ZqTxRKFEjA9qz',#6,$,$,(#192,#194,#195),$,#65,$);
#292=IFCRELASSIGNSTOPROCESS('$HPz2hCVL7O9hf4nvRoVOB',#6,$,$,(#192,#194,#195),$,#67,$);
#293=IFCRELASSIGNSTOPROCESS('0F5Vap67UDAH$$f$rNoR$f',#6,$,$,(#192,#194,#195),$,#69,$);
#294=IFCRELASSIGNSTOPROCESS('4lxXKtRnoxX31Bw$afQp4h',#6,$,$,(#193,#194),$,#71,$);
#295=IFCRELASSIGNSTOPROCESS('XVj7PtpXZVEvMLMlAXr1Mf',#6,$,$,(#193),$,#73,$);
#296=IFCRELASSIGNSTOPROCESS('QV3tYfdtH$IhsxCFeRoXSx',#6,$,$,(#192,#194),$,#75,$);
#297=IFCRELASSIGNSTOPROCESS('Vz4Tq7Xd7Tib1hslKXRntn',#6,$,$,(#196),$,#81,$);
#298=IFCRELASSIGNSTOPROCESS('2j_r77F7krlBmxqHMnfTpj',#6,$,$,(#196),$,#83,$);
#299=IFCRELASSIGNSTOPROCESS('NvS3UbwXRr7pyNmXw96d9n',#6,$,$,(#197),$,#85,$);
#300=IFCRELASSIGNSTOPROCESS('uj3tkpdtDbz727gHgHrFNX',#6,$,$,(#197),$,#87,$);
#301=IFCRELASSIGNSTOPROCESS('3Fz9E1YNWbLlRh2n3nB1YD',#6,$,$,(#198),$,#93,$);
#302=IFCRELASSIGNSTOPROCESS('p7w9M1FvIrHBi5GV6jNhMj',#6,$,$,(#198),$,#95,$);
#303=IFCRELASSIGNSTOPROCESS('B9cfCd3lJBxV6VP$zFj7BT',#6,$,$,(#200),$,#97,$);
#304=IFCRELASSIGNSTOPROCESS('zp6t_dr1eHGXYZ5laNs3pF',#6,$,$,(#199),$,#99,$);
#305=IFCRELASSIGNSTOPROCESS('Jx1TOZffWxPr43HXBpTNQH',#6,$,$,(#199),$,#101,$);
#306=IFCRELASSIGNSTOPROCESS('Nd0to1MPNFN5lNalTXHBmX',#6,$,$,(#199),$,#103,$);
#307=IFCRELASSIGNSTOPROCESS('xnPz_LKXflZPCLEFQZDdDD',#6,$,$,(#201),$,#105,$);
#308=IFCRELASSIGNSTOPROCESS('FLD73hKFIX5VkHf$MlxVeh',#6,$,$,(#198),$,#107,$);
#309=IFCRELASSIGNSTOPROCESS('gv4ZO5gP1L15th6lbbc7Z9',#6,$,$,(#198),$,#109,$);
#310=IFCRELASSIGNSTOPROCESS('1DcNSDgPxbD9bXjH7R_HX7',#6,$,$,(#202),$,#113,$);
#311=IFCRELASSIGNSTOPROCESS('Z$PhlXTl5xN5PTlVVj6dRX',#6,$,$,(#202),$,#115,$);
#312=IFCRELASSIGNSTOPROCESS('fTL1IH0t$BLlT9ynLdOlBZ',#6,$,$,(#203),$,#117,$);
#313=IFCRELASSIGNSTOPROCESS('b5C5_Pzl1NLHPzrnJxxlZN',#6,$,$,(#202),$,#119,$);
#314=IFCRELASSIGNSTOPROCESS('SZ8VyZ8vQXkdWpBHHdix5n',#6,$,$,(#204),$,#121,$);
#315=IFCRELASSIGNSTOPROCESS('3Htp3PDF2tkL6Vf16JfLEf',#6,$,$,(#202),$,#123,$);
#316=IFCRELASSIGNSTOPROCESS('BN6DfDtfevJf1X3lU7mf6b',#6,$,$,(#199),$,#125,$);
#317=IFCRELASSIGNSTOPROCESS('uDP3EZ9fUJg3pZ7$EJwPh9',#6,$,$,(#190),$,#129,$);
#318=IFCRELASSIGNSTOPROCESS('NzfRaHePfRx1Ods$vXTfI7',#6,$,$,(#202),$,#131,$);
#319=IFCRELASSIGNSTOPROCESS('gzvBzLCVN5FputWVR5Azbb',#6,$,$,(#205,#198,#199),$,#133,$);
#320=IFCPROPERTYSINGLEVALUE('_F5XOzpV5xN5l90XDhvDax#0',$,IFCTEXT('4|UNIFORM'),$);
#321=IFCPROPERTYSET('s9_VW1$PpPV3PHhFjt2lNz',#6,'OPS_Assignments',$,(#320));
#322=IFCRELDEFINESBYPROPERTIES('nr9p3PbVRhb$iRCnyrDPVz',#6,$,$,(#45),#321);
#323=IFCPROPERTYSINGLEVALUE('_F5XOzpV5xN5l90XDhvDax#0',$,IFCTEXT('3|UNIFORM'),$);
#324=IFCPROPERTYSET('5FfjNlevaLNZRBM13JAtax',#6,'OPS_Assignments',$,(#323));
#325=IFCRELDEFINESBYPROPERTIES('YTuV8LyHr9Uxlfqn4rb$UD',#6,$,$,(#49),#324);
#326=IFCPROPERTYSINGLEVALUE('g39xAHlPxnVzbVbnKDszLD#0',$,IFCTEXT('4|UNIFORM'),$);
#327=IFCPROPERTYSET('gdWfCbL$6luflNyF1XNZr7',#6,'OPS_Assignments',$,(#326));
#328=IFCRELDEFINESBYPROPERTIES('lbpdXNOvSrBnxnJnNjXpCn',#6,$,$,(#55),#327);
#329=IFCPROPERTYSINGLEVALUE('7FNj3hqFevhlTfu$zpI53r#0',$,IFCTEXT('5|UNIFORM'),$);
#330=IFCPROPERTYSINGLEVALUE('W1X3gXjFGD6$KbCFmFztmX#1',$,IFCTEXT('35|UNIFORM'),$);
#331=IFCPROPERTYSET('gv4rxHfNqvOPmBkX29k$2$',#6,'OPS_Assignments',$,(#329,#330));
#332=IFCRELDEFINESBYPROPERTIES('l5NR0npXJ9dJ6DrldLGfIL',#6,$,$,(#57),#331);
#333=IFCPROPERTYSINGLEVALUE('_F5XOzpV5xN5l90XDhvDax#0',$,IFCTEXT('4|UNIFORM'),$);
#334=IFCPROPERTYSET('FP2BpDHv0rXRzRGVkZCDKp',#6,'OPS_Assignments',$,(#333));
#335=IFCRELDEFINESBYPROPERTIES('AD7Z4zy1GJkLU3$XeRMNUp',#6,$,$,(#59),#334);
#336=IFCPROPERTYSINGLEVALUE('7FNj3hqFevhlTfu$zpI53r#0',$,IFCTEXT('5|UNIFORM'),$);
#337=IFCPROPERTYSINGLEVALUE('W1X3gXjFGD6$KbCFmFztmX#1',$,IFCTEXT('55|FRONT_LOADED'),$);
#338=IFCPROPERTYSET('ORe1gbjFGzOPixO10di5n5',#6,'OPS_Assignments',$,(#336,#337));
#339=IFCRELDEFINESBYPROPERTIES('nPUL5LRFoF7LIFpFPnPjcn',#6,$,$,(#61),#338);
#340=IFCPROPERTYSINGLEVALUE('7FNj3hqFevhlTfu$zpI53r#0',$,IFCTEXT('7|UNIFORM'),$);
#341=IFCPROPERTYSINGLEVALUE('CtMd9TffKpWlBj5ncz$x5H#1',$,IFCTEXT('1|UNIFORM'),$);
#342=IFCPROPERTYSINGLEVALUE('W1X3gXjFGD6$KbCFmFztmX#2',$,IFCTEXT('40|UNIFORM'),$);
#343=IFCPROPERTYSET('4jI5w7c7OvBnt9qHQ3vpiX',#6,'OPS_Assignments',$,(#340,#341,#342));
#344=IFCRELDEFINESBYPROPERTIES('LP8XGdg$g5FpapP$ijYn7N',#6,$,$,(#65),#343);
#345=IFCPROPERTYSINGLEVALUE('7FNj3hqFevhlTfu$zpI53r#0',$,IFCTEXT('7|UNIFORM'),$);
#346=IFCPROPERTYSINGLEVALUE('CtMd9TffKpWlBj5ncz$x5H#1',$,IFCTEXT('1|UNIFORM'),$);
#347=IFCPROPERTYSINGLEVALUE('W1X3gXjFGD6$KbCFmFztmX#2',$,IFCTEXT('45|UNIFORM'),$);
#348=IFCPROPERTYSET('8Bw9wZGfgbbVoXRnSx5HpH',#6,'OPS_Assignments',$,(#345,#346,#347));
#349=IFCRELDEFINESBYPROPERTIES('HtSL7BGNyHZdSjRF47a3xh',#6,$,$,(#67),#348);
#350=IFCPROPERTYSINGLEVALUE('7FNj3hqFevhlTfu$zpI53r#0',$,IFCTEXT('7|UNIFORM'),$);
#351=IFCPROPERTYSINGLEVALUE('CtMd9TffKpWlBj5ncz$x5H#1',$,IFCTEXT('1|UNIFORM'),$);
#352=IFCPROPERTYSINGLEVALUE('W1X3gXjFGD6$KbCFmFztmX#2',$,IFCTEXT('45|UNIFORM'),$);
#353=IFCPROPERTYSET('t9QNSjUFYPiRfPw1CF7pWd',#6,'OPS_Assignments',$,(#350,#351,#352));
#354=IFCRELDEFINESBYPROPERTIES('mfm7ZR_FarxXQljldLG9SR',#6,$,$,(#69),#353);
#355=IFCPROPERTYSINGLEVALUE('e54BR19NePPry3XXQ7ar0t#0',$,IFCTEXT('6|UNIFORM'),$);
#356=IFCPROPERTYSINGLEVALUE('CtMd9TffKpWlBj5ncz$x5H#1',$,IFCTEXT('1|UNIFORM'),$);
#357=IFCPROPERTYSET('5rcN41E9DvLHn72FvX5Hz7',#6,'OPS_Assignments',$,(#355,#356));
#358=IFCRELDEFINESBYPROPERTIES('iPGvBvo9ZXo76VFV9z1x9l',#6,$,$,(#71),#357);
#359=IFCPROPERTYSINGLEVALUE('e54BR19NePPry3XXQ7ar0t#0',$,IFCTEXT('6|UNIFORM'),$);
#360=IFCPROPERTYSET('ObO16dUnU70n$rA$vXZfgt',#6,'OPS_Assignments',$,(#359));
#361=IFCRELDEFINESBYPROPERTIES('FPYhVNWt5nnpSj5nkZCbnV',#6,$,$,(#73),#360);
#362=IFCPROPERTYSINGLEVALUE('7FNj3hqFevhlTfu$zpI53r#0',$,IFCTEXT('6|UNIFORM'),$);
#363=IFCPROPERTYSINGLEVALUE('CtMd9TffKpWlBj5ncz$x5H#1',$,IFCTEXT('1|UNIFORM'),$);
#364=IFCPROPERTYSET('ZzCpl1NfQ$6jMr_XVpkxLt',#6,'OPS_Assignments',$,(#362,#363));
#365=IFCRELDEFINESBYPROPERTIES('sfYhLDsdPDMn5nznyBJ7tj',#6,$,$,(#75),#364);
#366=IFCPROPERTYSINGLEVALUE('zJI5Anhl7fAH11$XYBzfAT#0',$,IFCTEXT('6|UNIFORM'),$);
#367=IFCPROPERTYSET('MdOHNDv9lJyhEVbFuraBeZ',#6,'OPS_Assignments',$,(#366));
#368=IFCRELDEFINESBYPROPERTIES('HRL1E$_N6HOth9GXKVr1cB',#6,$,$,(#81),#367);
#369=IFCPROPERTYSINGLEVALUE('zJI5Anhl7fAH11$XYBzfAT#0',$,IFCTEXT('4|UNIFORM'),$);
#370=IFCPROPERTYSET('BNgzctiFsLt3rvon2NYLs3',#6,'OPS_Assignments',$,(#369));
#371=IFCRELDEFINESBYPROPERTIES('EBXLH$XP$tfTzd_XF5bn3r',#6,$,$,(#83),#370);
#372=IFCPROPERTYSINGLEVALUE('WVbl7BWtTJarG5alL3Hr09#0',$,IFCTEXT('4|UNIFORM'),$);
#373=IFCPROPERTYSET('EhLHdRoHv9UxVnxHmX151j',#6,'OPS_Assignments',$,(#372));
#374=IFCRELDEFINESBYPROPERTIES('PVrVOR2FG3m$OvonYv8FRV',#6,$,$,(#85),#373);
#375=IFCPROPERTYSINGLEVALUE('WVbl7BWtTJarG5alL3Hr09#0',$,IFCTEXT('3|UNIFORM'),$);
#376=IFCPROPERTYSET('1DIlpHmfCdibZBYXNJvbJX',#6,'OPS_Assignments',$,(#375));
#377=IFCRELDEFINESBYPROPERTIES('OR8XihjXDxPrad61yrzN6b',#6,$,$,(#87),#376);
#378=IFCPROPERTYSINGLEVALUE('U3ShjXUnMxdBmrA1jtYntH#0',$,IFCTEXT('4|UNIFORM'),$);
#379=IFCPROPERTYSET('wh2rxFJVfbbX6X$VKVDPzr',#6,'OPS_Assignments',$,(#378));
#380=IFCRELDEFINESBYPROPERTIES('jf8XWVh1IXzfrpd1mH9rCn',#6,$,$,(#93),#379);
#381=IFCPROPERTYSINGLEVALUE('U3ShjXUnMxdBmrA1jtYntH#0',$,IFCTEXT('3|UNIFORM'),$);
#382=IFCPROPERTYSET('gzFpdRIlLvWHZfO$GH9rGH',#6,'OPS_Assignments',$,(#381));
#383=IFCRELDEFINESBYPROPERTIES('zHvT0Frlb$FhknRHYda3Tf',#6,$,$,(#95),#382);
#384=IFCPROPERTYSINGLEVALUE('Gdg367o99XDPKbqn0vWP$p#0',$,IFCTEXT('3|UNIFORM'),$);
#385=IFCPROPERTYSET('i5HjL9qna1vDaD71oDgZZ5',#6,'OPS_Assignments',$,(#384));
#386=IFCRELDEFINESBYPROPERTIES('5Fd3Ina$wFSJoVDlrD39G1',#6,$,$,(#97),#385);
#387=IFCPROPERTYSINGLEVALUE('S3KJRVB1OdvLgBUVhdWdr7#0',$,IFCTEXT('6|UNIFORM'),$);
#388=IFCPROPERTYSET('q9oFvPL1cpWlbhwHrjH37b',#6,'OPS_Assignments',$,(#387));
#389=IFCRELDEFINESBYPROPERTIES('pr7ZSnqXhdSreP6$mnRFf1',#6,$,$,(#99),#388);
#390=IFCPROPERTYSINGLEVALUE('S3KJRVB1OdvLgBUVhdWdr7#0',$,IFCTEXT('6|UNIFORM'),$);
#391=IFCPROPERTYSET('S19xoZXvaVrFR1FX3DQDyL',#6,'OPS_Assignments',$,(#390));
#392=IFCRELDEFINESBYPROPERTIES('zDs7FBFdHJKzxlf1wDJ7F$',#6,$,$,(#101),#391);
#393=IFCPROPERTYSINGLEVALUE('S3KJRVB1OdvLgBUVhdWdr7#0',$,IFCTEXT('4|UNIFORM'),$);
#394=IFCPROPERTYSET('Er9pjXIHbV3f5R4HtTpPF5',#6,'OPS_Assignments',$,(#393));
#395=IFCRELDEFINESBYPROPERTIES('P11ZqPJnKDOdqBw$GnDddd',#6,$,$,(#103),#394);
#396=IFCPROPERTYSINGLEVALUE('OxiRuJJnq7etlTLljtgNkP#0',$,IFCTEXT('3|UNIFORM'),$);
#397=IFCPROPERTYSET('yDw96Zmfu1YxfRO1e5_BOh',#6,'OPS_Assignments',$,(#396));
#398=IFCRELDEFINESBYPROPERTIES('h7SL7rmNk1nhYt0X7xUhkv',#6,$,$,(#105),#397);
#399=IFCPROPERTYSINGLEVALUE('U3ShjXUnMxdBmrA1jtYntH#0',$,IFCTEXT('3|UNIFORM'),$);
#400=IFCPROPERTYSET('wnvZiLJVBfYNrjrn5Hb$gN',#6,'OPS_Assignments',$,(#399));
#401=IFCRELDEFINESBYPROPERTIES('XZeHl1H7yn$ZZtynZT4TJT',#6,$,$,(#107),#400);
#402=IFCPROPERTYSINGLEVALUE('U3ShjXUnMxdBmrA1jtYntH#0',$,IFCTEXT('4|UNIFORM'),$);
#403=IFCPROPERTYSET('phZNGdEH$hXRZhsHe5AzZ9',#6,'OPS_Assignments',$,(#402));
#404=IFCRELDEFINESBYPROPERTIES('c$7BTb2FOvhlRhwl3HnT3L',#6,$,$,(#109),#403);
#405=IFCPROPERTYSINGLEVALUE('VVL163KVt1fZvDpF$ZyhcF#0',$,IFCTEXT('6|UNIFORM'),$);
#406=IFCPROPERTYSET('s9Il7BGN_Z4pGbmXYhnLUF',#6,'OPS_Assignments',$,(#405));
#407=IFCRELDEFINESBYPROPERTIES('FBP3MbL$Upo7MNmV8hGNAz',#6,$,$,(#113),#406);
#408=IFCPROPERTYSINGLEVALUE('VVL163KVt1fZvDpF$ZyhcF#0',$,IFCTEXT('6|UNIFORM'),$);
#409=IFCPROPERTYSET('Q54ZKL5F4xdB8NKFUh7pW7',#6,'OPS_Assignments',$,(#408));
#410=IFCRELDEFINESBYPROPERTIES('DvoF5nZ$Y7mVc3rFBNA3tp',#6,$,$,(#115),#409);
#411=IFCPROPERTYSINGLEVALUE('rN2BLtKVZ12RvXN$QzNTDJ#0',$,IFCTEXT('4|UNIFORM'),$);
#412=IFCPROPERTYSET('WVZN0FBl19HrmLonQ3nLUF',#6,'OPS_Assignments',$,(#411));
#413=IFCRELDEFINESBYPROPERTIES('7hsT0FJX$tfTjXVVMFfZ3B',#6,$,$,(#117),#412);
#414=IFCPROPERTYSINGLEVALUE('VVL163KVt1fZvDpF$ZyhcF#0',$,IFCTEXT('5|UNIFORM'),$);
#415=IFCPROPERTYSET('kNGv13iVX59R7Xt1SbdxTx',#6,'OPS_Assignments',$,(#414));
#416=IFCRELDEFINESBYPROPERTIES('hZZNSFCFWb3vgLIFCZCD09',#6,$,$,(#119),#415);
#417=IFCPROPERTYSINGLEVALUE('ZXxnDDlvGjILs7knGnjv19#0',$,IFCTEXT('5|UNIFORM'),$);
#418=IFCPROPERTYSET('j9qxM$PtZD0n$hgHgHDPN1',#6,'OPS_Assignments',$,(#417));
#419=IFCRELDEFINESBYPROPERTIES('Kbjv1zCnWRTPS7InWN6JIL',#6,$,$,(#121),#418);
#420=IFCPROPERTYSINGLEVALUE('VVL163KVt1fZvDpF$ZyhcF#0',$,IFCTEXT('3|UNIFORM'),$);
#421=IFCPROPERTYSET('wBgdRRJnCPiRjpxHaR9rS5',#6,'OPS_Assignments',$,(#420));
#422=IFCRELDEFINESBYPROPERTIES('jtKRy3KFQ1gz1BQ1ITCRtp',#6,$,$,(#123),#421);
#423=IFCPROPERTYSINGLEVALUE('S3KJRVB1OdvLgBUVhdWdr7#0',$,IFCTEXT('3|UNIFORM'),$);
#424=IFCPROPERTYSET('iRh1YNP9$NLHlf4l3Js9W7',#6,'OPS_Assignments',$,(#423));
#425=IFCRELDEFINESBYPROPERTIES('5HhlzdJniJCZTNWVnxj7B3',#6,$,$,(#125),#424);
#426=IFCPROPERTYSINGLEVALUE('_F5XOzpV5xN5l90XDhvDax#0',$,IFCTEXT('5|UNIFORM'),$);
#427=IFCPROPERTYSET('1jg3oXwX3lOtL981nfMZzh',#6,'OPS_Assignments',$,(#426));
#428=IFCRELDEFINESBYPROPERTIES('OxahtTX7KfIdqFv1gB4hg9',#6,$,$,(#129),#427);
#429=IFCPROPERTYSINGLEVALUE('VVL163KVt1fZvDpF$ZyhcF#0',$,IFCTEXT('4|UNIFORM'),$);
#430=IFCPROPERTYSET('W1nDPxktZD8vsPUVzpIxrv',#6,'OPS_Assignments',$,(#429));
#431=IFCRELDEFINESBYPROPERTIES('vBY$wPQXpbTPqFFVdBa3nX',#6,$,$,(#131),#430);
#432=IFCPROPERTYSINGLEVALUE('5HhHl$HvaVDPmBkV_twd79#0',$,IFCTEXT('2|UNIFORM'),$);
#433=IFCPROPERTYSINGLEVALUE('U3ShjXUnMxdBmrA1jtYntH#1',$,IFCTEXT('2|UNIFORM'),$);
#434=IFCPROPERTYSINGLEVALUE('S3KJRVB1OdvLgBUVhdWdr7#2',$,IFCTEXT('2|UNIFORM'),$);
#435=IFCPROPERTYSET('X$NRaHGf8$wJknhl13GteB',#6,'OPS_Assignments',$,(#432,#433,#434));
#436=IFCRELDEFINESBYPROPERTIES('6BklPbEHRLDdG5CHEHVDK1',#6,$,$,(#133),#435);
#437=IFCRELASSIGNSTOCONTROL('rDVhNjbXHjyDCF$VkTSruD',#6,$,$,(#43,#45,#47,#49,#51,#53,#55,#57,#59,#61,#63,#65,#67,#69,#71,#73,#75,#77,#79,#81,#83,#85,#87,#89,#91,#93,#95,#97,#99,#101,#103,#105,#107,#109,#111,#113,#115,#117,#119,#121,#123,#125,#127,#129,#131,#133,#135),$,#40);
#438=IFCPROPERTYSINGLEVALUE('InternalProjectId',$,IFCTEXT('proj-mtx91fvl1bnp1852'),$);
#439=IFCPROPERTYSINGLEVALUE('wbsAutoNumber',$,IFCBOOLEAN(.T.),$);
#440=IFCPROPERTYSINGLEVALUE('DefaultTaskDurationUnit',$,IFCLABEL('days'),$);
#441=IFCPROPERTYSINGLEVALUE('ProjectStartDate',$,IFCDATE('2027-03-01'),$);
#442=IFCPROPERTYSINGLEVALUE('ProjectEndDate',$,$,$);
#443=IFCPROPERTYSINGLEVALUE('CreatedAt',$,IFCTEXT('2026-09-11T17:47:45.441Z'),$);
#444=IFCPROPERTYSINGLEVALUE('ModifiedAt',$,IFCTEXT('2026-09-11T17:47:45.443Z'),$);
#445=IFCPROPERTYSET('e5a3ArlP$tNZvpDF1ZK5n5',#6,'OPS_ProjectSettings',$,(#438,#439,#440,#441,#442,#443,#444));
#446=IFCRELDEFINESBYPROPERTIES('0Hdzo1sPJhdjQlBF$1BF9l',#6,$,$,(#13),#445);
#447=IFCPROPERTYSINGLEVALUE('InternalTaskId',$,IFCTEXT('task-mtx91fw4luu91869'),$);
#448=IFCPROPERTYSET('yDA71Z0t1LPJUNan7VLVGX',#6,'OPS_TaskIdentity',$,(#447));
#449=IFCRELDEFINESBYPROPERTIES('3FjPxhxF0rnh2PYXT3GN_$',#6,$,$,(#43),#448);
#450=IFCPROPERTYSINGLEVALUE('InternalTaskId',$,IFCTEXT('task-mtx91fw5l2061870'),$);
#451=IFCPROPERTYSET('EvEn3rWtZJSjclTHyvaz9J',#6,'OPS_TaskIdentity',$,(#450));
#452=IFCRELDEFINESBYPROPERTIES('vhULXf0tt$nh6p5lC38$QL',#6,$,$,(#45),#451);
#453=IFCPROPERTYSINGLEVALUE('InternalTaskId',$,IFCTEXT('task-mtx91fw7gcsv1871'),$);
#454=IFCPROPERTYSET('eZL$cpsdxFFpGh2nDvu$Ql',#6,'OPS_TaskIdentity',$,(#453));
#455=IFCRELDEFINESBYPROPERTIES('l5V3sldtnnC5vphlrJP5f1',#6,$,$,(#47),#454);
#456=IFCPROPERTYSINGLEVALUE('InternalTaskId',$,IFCTEXT('task-mtx91fw8pifc1872'),$);
#457=IFCPROPERTYSET('$Hdz_7$PZVkdWpbH6fcDi$',#6,'OPS_TaskIdentity',$,(#456));
#458=IFCRELDEFINESBYPROPERTIES('uDP3AFrlLPyhErg$hPOlln',#6,$,$,(#49),#457);
#459=IFCPROPERTYSINGLEVALUE('InternalTaskId',$,IFCTEXT('task-mtx91fw9bvqk1873'),$);
#460=IFCPROPERTYSET('xhkxg1vtv9YxRhslClxXCZ',#6,'OPS_TaskIdentity',$,(#459));
#461=IFCRELDEFINESBYPROPERTIES('2FR1g$nvoF7LsR8$przNsv',#6,$,$,(#51),#460);
#462=IFCPROPERTYSINGLEVALUE('InternalTaskId',$,IFCTEXT('task-mtx91fwa8vlf1874'),$);
#463=IFCPROPERTYSET('ohrnlxfNkXxX_JpHbbgfIr',#6,'OPS_TaskIdentity',$,(#462));
#464=IFCRELDEFINESBYPROPERTIES('LP0tsllPPpQVw13n4rBnZx',#6,$,$,(#53),#463);
#465=IFCPROPERTYSINGLEVALUE('InternalTaskId',$,IFCTEXT('task-mtx91fwbld241875'),$);
#466=IFCPROPERTYSET('IfG7NFqF0LpPaPoVOJ1jEx',#6,'OPS_TaskIdentity',$,(#465));
#467=IFCRELDEFINESBYPROPERTIES('dRuFDJxX$fzNz7onAbAtql',#6,$,$,(#55),#466);
#468=IFCPROPERTYSINGLEVALUE('InternalTaskId',$,IFCTEXT('task-mtx91fwdyp111876'),$);
#469=IFCPROPERTYSET('ktq5YxgdbLJvclDHnRnZ9l',#6,'OPS_TaskIdentity',$,(#468));
#470=IFCRELDEFINESBYPROPERTIES('dxCxkFSH5bJN$$VX4LHrup',#6,$,$,(#57),#469);
#471=IFCPROPERTYSINGLEVALUE('InternalTaskId',$,IFCTEXT('task-mtx91fwenp8f1877'),$);
#472=IFCPROPERTYSET('jbrVmfGNqzUNZNmVMlzfkB',#6,'OPS_TaskIdentity',$,(#471));
#473=IFCRELDEFINESBYPROPERTIES('CtU$676v_3mX2Pg11$BnrP',#6,$,$,(#59),#472);
#474=IFCPROPERTYSINGLEVALUE('InternalTaskId',$,IFCTEXT('task-mtx91fwfkdok1878'),$);
#475=IFCPROPERTYSET('KPOHLJM$ANb14ZjnDBxX0N',#6,'OPS_TaskIdentity',$,(#474));
#476=IFCRELDEFINESBYPROPERTIES('RReHVNOveFib5lnVzDQDOL',#6,$,$,(#61),#475);
#477=IFCPROPERTYSINGLEVALUE('InternalTaskId',$,IFCTEXT('task-mtx91fwgijs11879'),$);
#478=IFCPROPERTYSET('WVxnJ3RnUJAT9r_XXDoR75',#6,'OPS_TaskIdentity',$,(#477));
#479=IFCRELDEFINESBYPROPERTIES('d1lJFhbnUdaBGhgH2fERTt',#6,$,$,(#63),#478);
#480=IFCPROPERTYSINGLEVALUE('InternalTaskId',$,IFCTEXT('task-mtx91fwitorv1880'),$);
#481=IFCPROPERTYSET('uLIxUxUfa$FLIn3nm1Z9WP',#6,'OPS_TaskIdentity',$,(#480));
#482=IFCRELDEFINESBYPROPERTIES('1D2VW1tNqZcDm5KFgF1xBv',#6,$,$,(#65),#481);
#483=IFCPROPERTYSINGLEVALUE('InternalTaskId',$,IFCTEXT('task-mtx91fwjdoky1881'),$);
#484=IFCPROPERTYSET('q9gdZtT$g7JNJ1Rl29_lHH',#6,'OPS_TaskIdentity',$,(#483));
#485=IFCRELDEFINESBYPROPERTIES('5LsZSlW9TjCThzd$nRXpSt',#6,$,$,(#67),#484);
#486=IFCPROPERTYSINGLEVALUE('InternalTaskId',$,IFCTEXT('task-mtx91fwkw5nf1882'),$);
#487=IFCPROPERTYSET('pvsvP9xFyRTdG5inQdOVip',#6,'OPS_TaskIdentity',$,(#486));
#488=IFCRELDEFINESBYPROPERTIES('wLM36vQv4HDt5FZncThHhD',#6,$,$,(#69),#487);
#489=IFCPROPERTYSINGLEVALUE('InternalTaskId',$,IFCTEXT('task-mtx91fwmv09v1883'),$);
#490=IFCPROPERTYSET('99s713al3HWl$V3Hoj_HxL',#6,'OPS_TaskIdentity',$,(#489));
#491=IFCRELDEFINESBYPROPERTIES('2jcJzrePtrnhgLInODTfgD',#6,$,$,(#71),#490);
#492=IFCPROPERTYSINGLEVALUE('InternalTaskId',$,IFCTEXT('task-mtx91fwnj9r51884'),$);
#493=IFCPROPERTYSET('idOHnlV70LhlpHbFOxMZvf',#6,'OPS_TaskIdentity',$,(#492));
#494=IFCRELDEFINESBYPROPERTIES('bbeH5r17AtVRD3jHjbHzpl',#6,$,$,(#73),#493);
#495=IFCPROPERTYSINGLEVALUE('InternalTaskId',$,IFCTEXT('task-mtx91fwo7lgg1885'),$);
#496=IFCPROPERTYSET('P54Zi9RnkhpPCBA$$ZCRf3',#6,'OPS_TaskIdentity',$,(#495));
#497=IFCRELDEFINESBYPROPERTIES('W$X3gXDnUDMnVxmXs1d51D',#6,$,$,(#75),#496);
#498=IFCPROPERTYSINGLEVALUE('InternalTaskId',$,IFCTEXT('task-mtx91fwqybuu1886'),$);
#499=IFCPROPERTYSET('mPQjPfV7WR3vk5u1prBFvN',#6,'OPS_TaskIdentity',$,(#498));
#500=IFCRELDEFINESBYPROPERTIES('99cfe5Qv4Hpthte$W96PV3',#6,$,$,(#77),#499);
#501=IFCPROPERTYSINGLEVALUE('InternalTaskId',$,IFCTEXT('task-mtx91fwr7lle1887'),$);
#502=IFCPROPERTYSET('9ton5lfNeddBOPM$xndJwV',#6,'OPS_TaskIdentity',$,(#501));
#503=IFCRELDEFINESBYPROPERTIES('2JERCdB$4bhH3PUXnN2r8p',#6,$,$,(#79),#502);
#504=IFCPROPERTYSINGLEVALUE('InternalTaskId',$,IFCTEXT('task-mtx91fws31en1888'),$);
#505=IFCPROPERTYSET('kN8VCPTlxxtb$r2VRb6Ptl',#6,'OPS_TaskIdentity',$,(#504));
#506=IFCRELDEFINESBYPROPERTIES('PbGPJXA$S1$x1XrnLvqbtD',#6,$,$,(#81),#505);
#507=IFCPROPERTYSINGLEVALUE('InternalTaskId',$,IFCTEXT('task-mtx91fwuom5z1889'),$);
#508=IFCPROPERTYSET('ndg3MRL1cjqxH9WXdl3fEN',#6,'OPS_TaskIdentity',$,(#507));
#509=IFCRELDEFINESBYPROPERTIES('8Bs7ZbYnElTdGBA$5BaBm1',#6,$,$,(#83),#508);
#510=IFCPROPERTYSINGLEVALUE('InternalTaskId',$,IFCTEXT('task-mtx91fwvw5bi1890'),$);
#511=IFCPROPERTYSET('sJ5Xq7H7OnyLYZzFSNszzd',#6,'OPS_TaskIdentity',$,(#510));
#512=IFCRELDEFINESBYPROPERTIES('HfGvVJ2Fy5drSdA113m9Or',#6,$,$,(#85),#511);
#513=IFCPROPERTYSINGLEVALUE('InternalTaskId',$,IFCTEXT('task-mtx91fwxmbu31891'),$);
#514=IFCPROPERTYSET('xB_V8J5XLdaJ6jXXsV5lv5',#6,'OPS_TaskIdentity',$,(#513));
#515=IFCRELDEFINESBYPROPERTIES('2lPz6Z8d3FizfP6$mldxnb',#6,$,$,(#87),#514);
#516=IFCPROPERTYSINGLEVALUE('InternalTaskId',$,IFCTEXT('task-mtx91fwykgho1892'),$);
#517=IFCPROPERTYSET('J5VzInCnOvbXYfKFoDcp8R',#6,'OPS_TaskIdentity',$,(#516));
#518=IFCRELDEFINESBYPROPERTIES('CfQJfny$uNBFThslipMTF5',#6,$,$,(#89),#517);
#519=IFCPROPERTYSINGLEVALUE('InternalTaskId',$,IFCTEXT('task-mtx91fx031c91893'),$);
#520=IFCPROPERTYSET('B9oF3BGfOvjN$1nV$XPJcl',#6,'OPS_TaskIdentity',$,(#519));
#521=IFCRELDEFINESBYPROPERTIES('yJATqRB1Onqx5xWXDdarSb',#6,$,$,(#91),#520);
#522=IFCPROPERTYSINGLEVALUE('InternalTaskId',$,IFCTEXT('task-mtx91fx1nlcx1894'),$);
#523=IFCPROPERTYSET('sNYLPxUN8tnhInrlNjVpCF',#6,'OPS_TaskIdentity',$,(#522));
#524=IFCRELDEFINESBYPROPERTIES('zp_VmNmNmJU5h3d1h3vDub',#6,$,$,(#93),#523);
#525=IFCPROPERTYSINGLEVALUE('InternalTaskId',$,IFCTEXT('task-mtx91fx3bbii1895'),$);
#526=IFCPROPERTYSET('Q11ZSlevyFtRb$t$NNEbrz',#6,'OPS_TaskIdentity',$,(#525));
#527=IFCRELDEFINESBYPROPERTIES('jRrXObQVjB3NXnTFc3HB8b',#6,$,$,(#95),#526);
#528=IFCPROPERTYSINGLEVALUE('InternalTaskId',$,IFCTEXT('task-mtx91fx41uvr1896'),$);
#529=IFCPROPERTYSET('e3VzUxgPhpw1yNmVeRc7vR',#6,'OPS_TaskIdentity',$,(#528));
#530=IFCRELDEFINESBYPROPERTIES('lbh$kFKFQ$UxvpRHkZijYj',#6,$,$,(#97),#529);
#531=IFCPROPERTYSINGLEVALUE('InternalTaskId',$,IFCTEXT('task-mtx91fx68meu1897'),$);
#532=IFCPROPERTYSET('GvY1Qj2nCPqxH9WVv1FZ5n',#6,'OPS_TaskIdentity',$,(#531));
#533=IFCRELDEFINESBYPROPERTIES('tf2r5FpXJtlBavkFCFlr0f',#6,$,$,(#99),#532);
#534=IFCPROPERTYSINGLEVALUE('InternalTaskId',$,IFCTEXT('task-mtx91fx7xd181898'),$);
#535=IFCPROPERTYSET('W$Phhj6V9Vb1O7wHRbAtiX',#6,'OPS_TaskIdentity',$,(#534));
#536=IFCRELDEFINESBYPROPERTIES('PXpPtZV7y57L61Zn6J1J2X',#6,$,$,(#101),#535);
#537=IFCPROPERTYSINGLEVALUE('InternalTaskId',$,IFCTEXT('task-mtx91fx9b4em1899'),$);
#538=IFCPROPERTYSET('sDvTGNOvif_9HTblk$xV4P',#6,'OPS_TaskIdentity',$,(#537));
#539=IFCRELDEFINESBYPROPERTIES('Hta3Ux_f2TyDadkV2bfL_z',#6,$,$,(#103),#538);
#540=IFCPROPERTYSINGLEVALUE('InternalTaskId',$,IFCTEXT('task-mtx91fxadhoj1900'),$);
#541=IFCPROPERTYSET('urgP371dfH510TN$phVbR5',#6,'OPS_TaskIdentity',$,(#540));
#542=IFCRELDEFINESBYPROPERTIES('$J6D$dM$6Z_RFD9$ZXvDGV',#6,$,$,(#105),#541);
#543=IFCPROPERTYSINGLEVALUE('InternalTaskId',$,IFCTEXT('task-mtx91fxc7kd61901'),$);
#544=IFCPROPERTYSET('_HfJzh4H5FnDSpv$sRoXCz',#6,'OPS_TaskIdentity',$,(#543));
#545=IFCRELDEFINESBYPROPERTIES('tDNjnhhl$LtzJp3F8zt3Pr',#6,$,$,(#107),#544);
#546=IFCPROPERTYSINGLEVALUE('InternalTaskId',$,IFCTEXT('task-mtx91fxe7prc1902'),$);
#547=IFCPROPERTYSET('9JD79VcV9rXRfdYX9zFL_$',#6,'OPS_TaskIdentity',$,(#546));
#548=IFCRELDEFINESBYPROPERTIES('mfmdH$HvyxPByfWXzFj7n$',#6,$,$,(#109),#547);
#549=IFCPROPERTYSINGLEVALUE('InternalTaskId',$,IFCTEXT('task-mtx91fxflwll1903'),$);
#550=IFCPROPERTYSET('Kx7rXjoHx5FDqHTlKDUhUF',#6,'OPS_TaskIdentity',$,(#549));
#551=IFCRELDEFINESBYPROPERTIES('pdsTaH8d3F4hgrkVQTpP5H',#6,$,$,(#111),#550);
#552=IFCPROPERTYSINGLEVALUE('InternalTaskId',$,IFCTEXT('task-mtx91fxhtg5p1904'),$);
#553=IFCPROPERTYSET('o72VKtrldDkPOvgHQZrnxl',#6,'OPS_TaskIdentity',$,(#552));
#554=IFCRELDEFINESBYPROPERTIES('vhIxo1k9$NpdavwH$zGNUF',#6,$,$,(#113),#553);
#555=IFCPROPERTYSINGLEVALUE('InternalTaskId',$,IFCTEXT('task-mtx91fxin26b1905'),$);
#556=IFCPROPERTYSET('gviJfl8PHjqTLzv1dh0vNz',#6,'OPS_TaskIdentity',$,(#555));
#557=IFCRELDEFINESBYPROPERTIES('T3iJZRQXFFaJcn1VQdun5l',#6,$,$,(#115),#556);
#558=IFCPROPERTYSINGLEVALUE('InternalTaskId',$,IFCTEXT('task-mtx91fxksxbp1906'),$);
#559=IFCPROPERTYSET('aZmPXfGNybRXcZP$eJHzxh',#6,'OPS_TaskIdentity',$,(#558));
#560=IFCRELDEFINESBYPROPERTIES('Z$7rJ3rl7Tqxn76lhTrnfX',#6,$,$,(#117),#559);
#561=IFCPROPERTYSINGLEVALUE('InternalTaskId',$,IFCTEXT('task-mtx91fxlwpdn1907'),$);
#562=IFCPROPERTYSET('EhTNmPM$sLHreXpl7XJ73d',#6,'OPS_TaskIdentity',$,(#561));
#563=IFCRELDEFINESBYPROPERTIES('hPe1YxYfOdNxDHDHh31xP7',#6,$,$,(#119),#562);
#564=IFCPROPERTYSINGLEVALUE('InternalTaskId',$,IFCTEXT('task-mtx91fxnr4r11908'),$);
#565=IFCPROPERTYSET('nB$rZxI9R193R$$XQP0vBZ',#6,'OPS_TaskIdentity',$,(#564));
#566=IFCRELDEFINESBYPROPERTIES('g7ahpluPx5Vz1BM$LPm9iD',#6,$,$,(#121),#565);
#567=IFCPROPERTYSINGLEVALUE('InternalTaskId',$,IFCTEXT('task-mtx91fxpqdzl1909'),$);
#568=IFCPROPERTYSET('AtQfe5ktfxvh6jd$FRfLQh',#6,'OPS_TaskIdentity',$,(#567));
#569=IFCRELDEFINESBYPROPERTIES('zjATy1_fsrxXo1P1m1zfMt',#6,$,$,(#123),#568);
#570=IFCPROPERTYSINGLEVALUE('InternalTaskId',$,IFCTEXT('task-mtx91fxrg2pd1910'),$);
#571=IFCPROPERTYSET('eTbl7rmNox7hoVhFfNYLwR',#6,'OPS_TaskIdentity',$,(#570));
#572=IFCRELDEFINESBYPROPERTIES('lxFDbRxXR$dJA76Hff6jId',#6,$,$,(#125),#571);
#573=IFCPROPERTYSINGLEVALUE('InternalTaskId',$,IFCTEXT('task-mtx91fxtpwyo1911'),$);
#574=IFCPROPERTYSET('9jDvb1l7yFvLQ3ZlqTKxjZ',#6,'OPS_TaskIdentity',$,(#573));
#575=IFCRELDEFINESBYPROPERTIES('GfGdxrP9nFSBGxylTZixNV',#6,$,$,(#127),#574);
#576=IFCPROPERTYSINGLEVALUE('InternalTaskId',$,IFCTEXT('task-mtx91fxvdyja1912'),$);
#577=IFCPROPERTYSET('xLAT8D1dHJ4pKVFVLvCper',#6,'OPS_TaskIdentity',$,(#576));
#578=IFCRELDEFINESBYPROPERTIES('_FD7nBfNKDmXkxWXF5TfIr',#6,$,$,(#129),#577);
#579=IFCPROPERTYSINGLEVALUE('InternalTaskId',$,IFCTEXT('task-mtx91fxy7z171913'),$);
#580=IFCPROPERTYSET('Szaz_d3HXPnpm5ynJ5pPFR',#6,'OPS_TaskIdentity',$,(#579));
#581=IFCRELDEFINESBYPROPERTIES('ZVBXORoHr3uNPzrn9ZJvhj',#6,$,$,(#131),#580);
#582=IFCPROPERTYSINGLEVALUE('InternalTaskId',$,IFCTEXT('task-mtx91fy1ggew1914'),$);
#583=IFCPROPERTYSET('ZZOHDl8P9$tzjDrl7R_Hln',#6,'OPS_TaskIdentity',$,(#582));
#584=IFCRELDEFINESBYPROPERTIES('aX5n91YN8VYfVFRHMhmN61',#6,$,$,(#133),#583);
#585=IFCPROPERTYSINGLEVALUE('InternalTaskId',$,IFCTEXT('task-mtx91fy31t4k1915'),$);
#586=IFCPROPERTYSET('8JR1kjh129cDmLIFm1R$cl',#6,'OPS_TaskIdentity',$,(#585));
#587=IFCRELDEFINESBYPROPERTIES('nhR$2dbXlpetxFLlVJYFHh',#6,$,$,(#135),#586);
#588=IFCPROPERTYSINGLEVALUE('MilestoneKind',$,IFCLABEL('START'),$);
#589=IFCPROPERTYSET('i5vrFrv9Vbp9PHxns5gTlh',#6,'OPS_Milestone',$,(#588));
#590=IFCRELDEFINESBYPROPERTIES('xHZNebQVFn4LQZVV83HruJ',#6,$,$,(#51),#589);
#591=IFCPROPERTYSINGLEVALUE('MilestoneKind',$,IFCLABEL('FINISH'),$);
#592=IFCPROPERTYSET('V$t527ffAL7pKRSF9v4hot',#6,'OPS_Milestone',$,(#591));
#593=IFCRELDEFINESBYPROPERTIES('6LsTK9JVNb3v61RlsxgTpD',#6,$,$,(#77),#592);
#594=IFCPROPERTYSINGLEVALUE('MilestoneKind',$,IFCLABEL('FINISH'),$);
#595=IFCPROPERTYSET('YTGdJVg$Yvet$BEV8TpddP',#6,'OPS_Milestone',$,(#594));
#596=IFCRELDEFINESBYPROPERTIES('9twtUNFPHjaB43XVwpztSf',#6,$,$,(#89),#595);
#597=IFCPROPERTYSINGLEVALUE('MilestoneKind',$,IFCLABEL('FINISH'),$);
#598=IFCPROPERTYSINGLEVALUE('Mandatory',$,IFCBOOLEAN(.T.),$);
#599=IFCPROPERTYSET('7LAZ4zy1WRbVkH$VWfs3vx',#6,'OPS_Milestone',$,(#597,#598));
#600=IFCRELDEFINESBYPROPERTIES('kNelfDffkVLH9rQ$gL8$_z',#6,$,$,(#135),#599);
ENDSEC;
END-ISO-10303-21;
