ISO-10303-21;
HEADER;
FILE_DESCRIPTION(('ViewDefinition [SchedulingView]'),'2;1');
FILE_NAME('Sewer Replacement, Delft City Centre.ifc','2026-09-11T17:47:45',('Bas Hendriks'),('Delft Infra BV'),'Open Planner Studio 0.1','Open Planner Studio','');
FILE_SCHEMA(('IFC4X3'));
ENDSEC;
DATA;
#1=IFCPERSON($,'Bas Hendriks',$,$,$,$,$,$);
#2=IFCORGANIZATION($,'Delft Infra BV',$,$,$);
#3=IFCPERSONANDORGANIZATION(#1,#2,$);
#4=IFCORGANIZATION($,'OpenAEC Foundation',$,$,$);
#5=IFCAPPLICATION(#4,'0.1','Open Planner Studio','OPS');
#6=IFCOWNERHISTORY(#3,#5,$,.NOCHANGE.,$,$,$,1789148865);
#7=IFCSIUNIT(*,.LENGTHUNIT.,$,.METRE.);
#8=IFCSIUNIT(*,.TIMEUNIT.,$,.SECOND.);
#9=IFCUNITASSIGNMENT((#7,#8));
#10=IFCCARTESIANPOINT((0.,0.,0.));
#11=IFCAXIS2PLACEMENT3D(#10,$,$);
#12=IFCGEOMETRICREPRESENTATIONCONTEXT($,'Plan',3,1.0E-05,#11,$);
#13=IFCPROJECT('NPeH$vUfGzGXsxSFlrTtqn',#6,'Sewer Replacement, Delft City Centre','Replacement of the city-centre main sewer including street reinstatement',$,$,$,(#12),#9);
#14=IFCTIMEPERIOD('07:00:00','16:00:00');
#15=IFCRECURRENCEPATTERN(.WEEKLY.,$,(1,2,3,4,5,6),$,$,$,$,(#14));
#16=IFCWORKTIME('Standard work week',.PREDICTED.,$,#15,$,$);
#17=IFCWORKTIME('New Year''s Day',.PREDICTED.,$,$,'2027-01-01','2027-01-01');
#18=IFCWORKTIME('Good Friday',.PREDICTED.,$,$,'2027-03-26','2027-03-26');
#19=IFCWORKTIME('Easter',.PREDICTED.,$,$,'2027-03-28','2027-03-29');
#20=IFCWORKTIME('King''s Day',.PREDICTED.,$,$,'2027-04-27','2027-04-27');
#21=IFCWORKTIME('Liberation Day',.PREDICTED.,$,$,'2027-05-05','2027-05-05');
#22=IFCWORKTIME('Ascension Day',.PREDICTED.,$,$,'2027-05-06','2027-05-06');
#23=IFCWORKTIME('Whitsun',.PREDICTED.,$,$,'2027-05-16','2027-05-17');
#24=IFCWORKTIME('Christmas',.PREDICTED.,$,$,'2027-12-25','2027-12-26');
#25=IFCWORKTIME('Construction holiday (northern region)',.PREDICTED.,$,$,'2027-07-26','2027-08-15');
#26=IFCWORKTIME('New Year''s Day',.PREDICTED.,$,$,'2028-01-01','2028-01-01');
#27=IFCWORKTIME('Good Friday',.PREDICTED.,$,$,'2028-04-14','2028-04-14');
#28=IFCWORKTIME('Easter',.PREDICTED.,$,$,'2028-04-16','2028-04-17');
#29=IFCWORKTIME('King''s Day',.PREDICTED.,$,$,'2028-04-27','2028-04-27');
#30=IFCWORKTIME('Liberation Day',.PREDICTED.,$,$,'2028-05-05','2028-05-05');
#31=IFCWORKTIME('Ascension Day',.PREDICTED.,$,$,'2028-05-25','2028-05-25');
#32=IFCWORKTIME('Whitsun',.PREDICTED.,$,$,'2028-06-04','2028-06-05');
#33=IFCWORKTIME('Christmas',.PREDICTED.,$,$,'2028-12-25','2028-12-26');
#34=IFCWORKTIME('Construction holiday (northern region)',.PREDICTED.,$,$,'2028-07-24','2028-08-13');
#35=IFCWORKCALENDAR('_HlbW$VPl1Yxnv_nBDbFBd',#6,'Infrastructure calendar Mon-Sat','Infrastructure/hydraulic works: Mon-Sat',$,(#16),(#17,#18,#19,#20,#21,#22,#23,#24,#25,#26,#27,#28,#29,#30,#31,#32,#33,#34),.FIRSTSHIFT.);
#36=IFCPROPERTYSINGLEVALUE('HoursPerDay',$,IFCREAL(8),$);
#37=IFCPROPERTYSET('qL5XmPUFgdlJ6X9$WtAtOZ',#6,'OPS_Calendar',$,(#36));
#38=IFCRELDEFINESBYPROPERTIES('bXh12hy$qvOdOP_VbbYntl',#6,$,$,(#35),#37);
#39=IFCWORKPLAN('1Fp7vvd9dJg3rd_XD7m98j',#6,'Sewer Replacement, Delft City Centre','Replacement of the city-centre main sewer including street reinstatement',$,$,'2026-09-11T17:47:45',$,$,$,$,$,'2027-03-01T07:00:00','2027-03-10T07:00:00',.PLANNED.);
#40=IFCWORKSCHEDULE('aXj791APBfMFrdg1BNER7b',#6,'Construction schedule v1.0',$,$,$,'2026-09-11T17:47:45',$,$,$,$,$,'2027-03-01T07:00:00','2027-03-10T07:00:00',.PLANNED.);
#41=IFCRELAGGREGATES('X$Ph9TPtbVDd8te$ftI1sz',#6,$,$,#39,(#40));
#42=IFCTASKTIME('1. Preparation Time',.PREDICTED.,$,.WORKTIME.,'P0Y0M5D','2027-03-01T07:00:00','2027-03-05T07:00:00','2027-03-01T07:00:00','2027-03-11T07:00:00','2027-03-01T07:00:00','2027-05-10T07:00:00','P0Y0M0D','P0Y0M0D',.T.,$,$,$,$,$,0.00);
#43=IFCTASK('BJR$Y56voHLHVHf1AbQvTN',#6,'1. Preparation',$,$,'1',$,$,$,.F.,$,#42,.LOGISTIC.);
#44=IFCTASKTIME('Resident letter and communication Time',.PREDICTED.,$,.WORKTIME.,'P0Y0M3D','2027-03-01T07:00:00','2027-03-03T07:00:00','2027-03-01T07:00:00','2027-03-03T07:00:00','2027-03-01T07:00:00','2027-03-03T07:00:00','P0Y0M0D','P0Y0M0D',.T.,$,$,$,$,$,0.00);
#45=IFCTASK('l9KJLt4HLv8NFvMHgB4LQF',#6,'Resident letter and communication',$,$,'1.1',$,$,$,.F.,$,#44,.ATTENDANCE.);
#46=IFCTASKTIME('Traffic management Time',.PREDICTED.,$,.WORKTIME.,'P0Y0M3D','2027-03-01T07:00:00','2027-03-03T07:00:00','2027-03-04T07:00:00','2027-03-06T07:00:00','2027-04-30T07:00:00','2027-05-03T07:00:00','P0Y0M0D','P0Y0M46D',.F.,$,$,$,$,$,0.00);
#47=IFCTASK('ib39_Pr1ahXb1BM1vbA94h',#6,'Traffic management',$,$,'1.2',$,$,$,.F.,$,#46,.LOGISTIC.);
#48=IFCTASKTIME('Locate cables and pipes Time',.PREDICTED.,$,.WORKTIME.,'P0Y0M3D','2027-03-01T07:00:00','2027-03-03T07:00:00','2027-03-08T07:00:00','2027-03-10T07:00:00','2027-05-04T07:00:00','2027-05-08T07:00:00','P0Y0M0D','P0Y0M46D',.F.,$,$,$,$,$,0.00);
#49=IFCTASK('KPOHhDMPtV5XgLkn0Parml',#6,'Locate cables and pipes',$,$,'1.3',$,$,$,.F.,$,#48,.LOGISTIC.);
#50=IFCTASKTIME('Start of works Time',.PREDICTED.,$,.WORKTIME.,'P0Y0M0D','2027-03-01T07:00:00','2027-03-01T07:00:00','2027-03-11T07:00:00','2027-03-11T07:00:00','2027-05-10T07:00:00','2027-05-10T07:00:00','P0Y0M46D','P0Y0M46D',.F.,$,$,$,$,$,0.00);
#51=IFCTASK('Z$dL9ZVvOdf5$191HLtzbR',#6,'Start of works',$,$,'1.4',$,$,$,.T.,$,#50,.LOGISTIC.);
#52=IFCTASKTIME('2. Phase 1 - north side Time',.PREDICTED.,$,.WORKTIME.,'P0Y0M5D','2027-03-01T07:00:00','2027-03-05T07:00:00','2027-03-06T07:00:00','2027-04-13T07:00:00','2027-03-06T07:00:00','2027-04-13T07:00:00','P0Y0M0D','P0Y0M0D',.T.,$,$,$,$,$,0.00);
#53=IFCTASK('Q1FD1dEl3HOtz5yHhPmtaf',#6,'2. Phase 1 - north side',$,$,'2',$,$,$,.F.,$,#52,.CONSTRUCTION.);
#54=IFCTASKTIME('Break up paving, phase 1 Time',.PREDICTED.,$,.WORKTIME.,'P0Y0M5D','2027-03-01T07:00:00','2027-03-05T07:00:00','2027-03-06T07:00:00','2027-03-11T07:00:00','2027-03-06T07:00:00','2027-03-11T07:00:00','P0Y0M0D','P0Y0M0D',.T.,$,$,$,$,$,0.00);
#55=IFCTASK('zpQNm9CFG3u7A5iFcTJ7Zf',#6,'Break up paving, phase 1',$,$,'2.1',$,$,$,.F.,$,#54,.DEMOLITION.);
#56=IFCTASKTIME('Excavate trench, phase 1 Time',.PREDICTED.,$,.WORKTIME.,'P0Y0M8D','2027-03-01T07:00:00','2027-03-10T07:00:00','2027-03-12T07:00:00','2027-03-20T07:00:00','2027-03-12T07:00:00','2027-03-20T07:00:00','P0Y0M0D','P0Y0M0D',.T.,$,$,$,$,$,0.00);
#57=IFCTASK('dXzt_dh$6nyhgf81IVXbj$',#6,'Excavate trench, phase 1',$,$,'2.2',$,$,$,.F.,$,#56,.CONSTRUCTION.);
#58=IFCTASKTIME('Lay sewer pipes, phase 1 Time',.PREDICTED.,$,.WORKTIME.,'P0Y0M8D','2027-03-01T07:00:00','2027-03-10T07:00:00','2027-03-22T07:00:00','2027-04-01T07:00:00','2027-03-22T07:00:00','2027-04-01T07:00:00','P0Y0M0D','P0Y0M0D',.T.,$,$,$,$,$,0.00);
#59=IFCTASK('H9Kb4XwXd7uNLzFVJxr1Up',#6,'Lay sewer pipes, phase 1',$,$,'2.3',$,$,$,.F.,$,#58,.INSTALLATION.);
#60=IFCTASKTIME('House connections, phase 1 Time',.PREDICTED.,$,.WORKTIME.,'P0Y0M5D','2027-03-01T07:00:00','2027-03-05T07:00:00','2027-04-02T07:00:00','2027-04-07T07:00:00','2027-04-02T07:00:00','2027-04-07T07:00:00','P0Y0M0D','P0Y0M0D',.T.,$,$,$,$,$,0.00);
#61=IFCTASK('cXh1shRnwHe9XbinkXXR7R',#6,'House connections, phase 1',$,$,'2.4',$,$,$,.F.,$,#60,.INSTALLATION.);
#62=IFCTASKTIME('Backfill and compact, phase 1 Time',.PREDICTED.,$,.WORKTIME.,'P0Y0M5D','2027-03-01T07:00:00','2027-03-05T07:00:00','2027-04-08T07:00:00','2027-04-13T07:00:00','2027-04-08T07:00:00','2027-04-13T07:00:00','P0Y0M0D','P0Y0M0D',.T.,$,$,$,$,$,0.00);
#63=IFCTASK('nBlbuLCVnlm$CLYnjxZfg9',#6,'Backfill and compact, phase 1',$,$,'2.5',$,$,$,.F.,$,#62,.CONSTRUCTION.);
#64=IFCTASKTIME('3. Phase 2 - south side Time',.PREDICTED.,$,.WORKTIME.,'P0Y0M5D','2027-03-01T07:00:00','2027-03-05T07:00:00','2027-03-09T07:00:00','2027-04-15T07:00:00','2027-03-09T07:00:00','2027-04-15T07:00:00','P0Y0M0D','P0Y0M0D',.T.,$,$,$,$,$,0.00);
#65=IFCTASK('9f2Bdt5nKpG1Sdc$6DztSN',#6,'3. Phase 2 - south side',$,$,'3',$,$,$,.F.,$,#64,.CONSTRUCTION.);
#66=IFCTASKTIME('Break up paving, phase 2 Time',.PREDICTED.,$,.WORKTIME.,'P0Y0M5D','2027-03-01T07:00:00','2027-03-05T07:00:00','2027-03-09T07:00:00','2027-03-13T07:00:00','2027-03-09T07:00:00','2027-03-13T07:00:00','P0Y0M0D','P0Y0M0D',.T.,$,$,$,$,$,0.00);
#67=IFCTASK('bVDd7LinIBHr0ZnXr9Q79D',#6,'Break up paving, phase 2',$,$,'3.1',$,$,$,.F.,$,#66,.DEMOLITION.);
#68=IFCTASKTIME('Excavate trench, phase 2 Time',.PREDICTED.,$,.WORKTIME.,'P0Y0M8D','2027-03-01T07:00:00','2027-03-10T07:00:00','2027-03-15T07:00:00','2027-03-23T07:00:00','2027-03-15T07:00:00','2027-03-23T07:00:00','P0Y0M0D','P0Y0M0D',.T.,$,$,$,$,$,0.00);
#69=IFCTASK('U3qp1dolXxPrK1BlR1fh23',#6,'Excavate trench, phase 2',$,$,'3.2',$,$,$,.F.,$,#68,.CONSTRUCTION.);
#70=IFCTASKTIME('Lay sewer pipes, phase 2 Time',.PREDICTED.,$,.WORKTIME.,'P0Y0M8D','2027-03-01T07:00:00','2027-03-10T07:00:00','2027-03-24T07:00:00','2027-04-03T07:00:00','2027-03-24T07:00:00','2027-04-03T07:00:00','P0Y0M0D','P0Y0M0D',.T.,$,$,$,$,$,0.00);
#71=IFCTASK('EPUhfDvtpdHJ_pv$25z9WP',#6,'Lay sewer pipes, phase 2',$,$,'3.3',$,$,$,.F.,$,#70,.INSTALLATION.);
#72=IFCTASKTIME('House connections, phase 2 Time',.PREDICTED.,$,.WORKTIME.,'P0Y0M5D','2027-03-01T07:00:00','2027-03-05T07:00:00','2027-04-05T07:00:00','2027-04-09T07:00:00','2027-04-05T07:00:00','2027-04-09T07:00:00','P0Y0M0D','P0Y0M0D',.T.,$,$,$,$,$,0.00);
#73=IFCTASK('i5PhNptf4FdBm5iliXxH5h',#6,'House connections, phase 2',$,$,'3.4',$,$,$,.F.,$,#72,.INSTALLATION.);
#74=IFCTASKTIME('Backfill and compact, phase 2 Time',.PREDICTED.,$,.WORKTIME.,'P0Y0M5D','2027-03-01T07:00:00','2027-03-05T07:00:00','2027-04-10T07:00:00','2027-04-15T07:00:00','2027-04-10T07:00:00','2027-04-15T07:00:00','P0Y0M0D','P0Y0M0D',.T.,$,$,$,$,$,0.00);
#75=IFCTASK('BDlbapsdhPC5rpHXvVB16$',#6,'Backfill and compact, phase 2',$,$,'3.5',$,$,$,.F.,$,#74,.CONSTRUCTION.);
#76=IFCTASKTIME('4. Reinstatement Time',.PREDICTED.,$,.WORKTIME.,'P0Y0M5D','2027-03-01T07:00:00','2027-03-05T07:00:00','2027-04-09T07:00:00','2027-05-01T07:00:00','2027-04-09T07:00:00','2027-05-01T07:00:00','P0Y0M0D','P0Y0M0D',.T.,$,$,$,$,$,0.00);
#77=IFCTASK('hZjvnBffy5$TnvwHZ$LH7b',#6,'4. Reinstatement',$,$,'4',$,$,$,.F.,$,#76,.CONSTRUCTION.);
#78=IFCTASKTIME('Paving sub-base Time',.PREDICTED.,$,.WORKTIME.,'P0Y0M5D','2027-03-01T07:00:00','2027-03-05T07:00:00','2027-04-09T07:00:00','2027-04-14T07:00:00','2027-04-09T07:00:00','2027-04-14T07:00:00','P0Y0M0D','P0Y0M0D',.T.,$,$,$,$,$,0.00);
#79=IFCTASK('ez1TSH8dfn7hcZVXiXRnLN',#6,'Paving sub-base',$,$,'4.1',$,$,$,.F.,$,#78,.CONSTRUCTION.);
#80=IFCTASKTIME('Relay paving Time',.PREDICTED.,$,.WORKTIME.,'P0Y0M8D','2027-03-01T07:00:00','2027-03-10T07:00:00','2027-04-15T07:00:00','2027-04-23T07:00:00','2027-04-15T07:00:00','2027-04-23T07:00:00','P0Y0M0D','P0Y0M0D',.T.,$,$,$,$,$,0.00);
#81=IFCTASK('FPwpfplvaLtznjDHLTR$sd',#6,'Relay paving',$,$,'4.2',$,$,$,.F.,$,#80,.CONSTRUCTION.);
#82=IFCTASKTIME('Install street furniture Time',.PREDICTED.,$,.WORKTIME.,'P0Y0M3D','2027-03-01T07:00:00','2027-03-03T07:00:00','2027-04-24T07:00:00','2027-04-28T07:00:00','2027-04-24T07:00:00','2027-04-28T07:00:00','P0Y0M0D','P0Y0M0D',.T.,$,$,$,$,$,0.00);
#83=IFCTASK('FrVLZNnPZX_9PFP1SbPxR$',#6,'Install street furniture',$,$,'4.3',$,$,$,.F.,$,#82,.INSTALLATION.);
#84=IFCTASKTIME('Landscaping Time',.PREDICTED.,$,.WORKTIME.,'P0Y0M3D','2027-03-01T07:00:00','2027-03-03T07:00:00','2027-04-29T07:00:00','2027-05-01T07:00:00','2027-04-29T07:00:00','2027-05-01T07:00:00','P0Y0M0D','P0Y0M0D',.T.,$,$,$,$,$,0.00);
#85=IFCTASK('ujJdB3KVjNZ9R191hZR$kd',#6,'Landscaping',$,$,'4.4',$,$,$,.F.,$,#84,.CONSTRUCTION.);
#86=IFCTASKTIME('5. Handover Time',.PREDICTED.,$,.WORKTIME.,'P0Y0M5D','2027-03-01T07:00:00','2027-03-05T07:00:00','2027-05-03T07:00:00','2027-05-10T07:00:00','2027-05-03T07:00:00','2027-05-10T07:00:00','P0Y0M0D','P0Y0M0D',.T.,$,$,$,$,$,0.00);
#87=IFCTASK('K5t5cj_na$15BjRFe5UL21',#6,'5. Handover',$,$,'5',$,$,$,.F.,$,#86,.CONSTRUCTION.);
#88=IFCTASKTIME('CCTV sewer inspection Time',.PREDICTED.,$,.WORKTIME.,'P0Y0M3D','2027-03-01T07:00:00','2027-03-03T07:00:00','2027-05-03T07:00:00','2027-05-07T07:00:00','2027-05-03T07:00:00','2027-05-07T07:00:00','P0Y0M0D','P0Y0M0D',.T.,$,$,$,$,$,0.00);
#89=IFCTASK('ltCxo$k9VdNx5baH$TSBOT',#6,'CCTV sewer inspection',$,$,'5.1',$,$,$,.F.,$,#88,.ATTENDANCE.);
#90=IFCTASKTIME('Remove traffic management Time',.PREDICTED.,$,.WORKTIME.,'P0Y0M2D','2027-03-01T07:00:00','2027-03-02T07:00:00','2027-05-08T07:00:00','2027-05-10T07:00:00','2027-05-08T07:00:00','2027-05-10T07:00:00','P0Y0M0D','P0Y0M0D',.T.,$,$,$,$,$,0.00);
#91=IFCTASK('$JcjzhaHhjEBajLnBpRnFR',#6,'Remove traffic management',$,$,'5.2',$,$,$,.F.,$,#90,.LOGISTIC.);
#92=IFCTASKTIME('Handover Time',.PREDICTED.,$,.WORKTIME.,'P0Y0M0D','2027-03-01T07:00:00','2027-03-01T07:00:00','2027-05-10T07:00:00','2027-05-10T07:00:00','2027-05-10T07:00:00','2027-05-10T07:00:00','P0Y0M0D','P0Y0M0D',.T.,$,$,$,$,$,0.00);
#93=IFCTASK('xlD7flGfstt3xFhlNNYLEf',#6,'Handover',$,$,'5.3',$,$,$,.T.,$,#92,.CONSTRUCTION.);
#94=IFCRELNESTS('ynXLvh418N5VA5CHYhtzpn',#6,'WBS 1. Preparation',$,#43,( #45,#47,#49,#51));
#95=IFCRELNESTS('XZ0t_L410rlrqHBnDrrFXZ',#6,'WBS 2. Phase 1 - north side',$,#53,( #55,#57,#59,#61,#63));
#96=IFCRELNESTS('mdYhhj2FSLfZBjhn3F398D',#6,'WBS 3. Phase 2 - south side',$,#65,( #67,#69,#71,#73,#75));
#97=IFCRELNESTS('SX3tIJjFePlJMLUF5Ftz$9',#6,'WBS 4. Reinstatement',$,#77,( #79,#81,#83,#85));
#98=IFCRELNESTS('R$1T0l1v_Tarqrg1hPel$f',#6,'WBS 5. Handover',$,#87,( #89,#91,#93));
#99=IFCRELNESTS('tjjP5r1vgdnD4TBHzDgTrv',#6,'WBS Hoofd',$,#40,(#43,#53,#65,#77,#87));
#100=IFCRELSEQUENCE('KPGdPxwvUjQDmL2nlrxVWP',#6,$,$,#45,#47,$,.FINISH_START.,$);
#101=IFCRELSEQUENCE('4ntp7hyHZpm1KbqHonJv3v',#6,$,$,#47,#49,$,.FINISH_START.,$);
#102=IFCRELSEQUENCE('j5PhPbwXV5f5PTd1OJXDab',#6,$,$,#49,#51,$,.FINISH_START.,$);
#103=IFCRELSEQUENCE('Gtq5M5VdvTibt9SHxB4ZBd',#6,$,$,#55,#57,$,.FINISH_START.,$);
#104=IFCRELSEQUENCE('ibh$kDPtl$ILwXv11$b1ox',#6,$,$,#57,#59,$,.FINISH_START.,$);
#105=IFCRELSEQUENCE('uLER0FBHBf29$rQ1ITaryL',#6,$,$,#59,#61,$,.FINISH_START.,$);
#106=IFCRELSEQUENCE('ItKjl5ffIBnhgrc1wNszDF',#6,$,$,#61,#63,$,.FINISH_START.,$);
#107=IFCRELSEQUENCE('ZTmvJZnPHjyD03LFRbc75r',#6,$,$,#67,#69,$,.FINISH_START.,$);
#108=IFCRELSEQUENCE('splbWXDFANBnDzplDv8nlB',#6,$,$,#69,#71,$,.FINISH_START.,$);
#109=IFCRELSEQUENCE('SVbl$7ktRVT9B76lJtI$2T',#6,$,$,#71,#73,$,.FINISH_START.,$);
#110=IFCRELSEQUENCE('kfe1QNevSh$5BDnXZzu1sP',#6,$,$,#73,#75,$,.FINISH_START.,$);
#111=IFCRELSEQUENCE('1nBn5Hv9HJSButu$I$pP9H',#6,$,$,#79,#81,$,.FINISH_START.,$);
#112=IFCRELSEQUENCE('b1Vzo3T1M5VzTLsHatEV47',#6,$,$,#81,#83,$,.FINISH_START.,$);
#113=IFCRELSEQUENCE('3nDvHbjFiN_999Cn0vunxn',#6,$,$,#83,#85,$,.FINISH_START.,$);
#114=IFCRELSEQUENCE('Z$X3_PbXnzMFLNinoFxHPr',#6,$,$,#89,#91,$,.FINISH_START.,$);
#115=IFCRELSEQUENCE('UVrVKt3$i9_Rf7_nzFhXSb',#6,$,$,#91,#93,$,.FINISH_START.,$);
#116=IFCLAGTIME('Lag',.PREDICTED.,$,IFCDURATION('P5D'),.WORKTIME.);
#117=IFCRELSEQUENCE('ZXBV0FDVhjQDWDrldBaz3d',#6,$,$,#45,#55,#116,.START_START.,$);
#118=IFCLAGTIME('Lag',.PREDICTED.,$,IFCRATIOMEASURE(0.4),.WORKTIME.);
#119=IFCRELSEQUENCE('LTrVGdA$SLXRXRil8LeHFX',#6,$,$,#55,#67,#118,.START_START.,$);
#120=IFCLAGTIME('Lag',.PREDICTED.,$,IFCDURATION('P2D'),.WORKTIME.);
#121=IFCRELSEQUENCE('INuXebQXnHuvMhMlAbMNg9',#6,$,$,#63,#75,#120,.FINISH_FINISH.,$);
#122=IFCLAGTIME('Lag',.PREDICTED.,$,IFCDURATION('-P6D'),.WORKTIME.);
#123=IFCRELSEQUENCE('PXJv9VEl7fIdOdEXqzu$YF',#6,$,$,#75,#79,#122,.FINISH_START.,$);
#124=IFCRELSEQUENCE('ADd3E331iDufFdQ$U7WPBP',#6,$,$,#85,#89,$,.FINISH_START.,$);
#125=IFCRELASSIGNSTOCONTROL('rDVhNjbXHjyDCF$VkTSruD',#6,$,$,(#43,#45,#47,#49,#51,#53,#55,#57,#59,#61,#63,#65,#67,#69,#71,#73,#75,#77,#79,#81,#83,#85,#87,#89,#91,#93),$,#40);
#126=IFCPROPERTYSINGLEVALUE('InternalProjectId',$,IFCTEXT('proj-mtx91g5arldf2003'),$);
#127=IFCPROPERTYSINGLEVALUE('wbsAutoNumber',$,IFCBOOLEAN(.T.),$);
#128=IFCPROPERTYSINGLEVALUE('DefaultTaskDurationUnit',$,IFCLABEL('days'),$);
#129=IFCPROPERTYSINGLEVALUE('ProjectStartDate',$,IFCDATE('2027-03-01'),$);
#130=IFCPROPERTYSINGLEVALUE('ProjectEndDate',$,$,$);
#131=IFCPROPERTYSINGLEVALUE('CreatedAt',$,IFCTEXT('2026-09-11T17:47:45.790Z'),$);
#132=IFCPROPERTYSINGLEVALUE('ModifiedAt',$,IFCTEXT('2026-09-11T17:47:45.792Z'),$);
#133=IFCPROPERTYSET('e5a3ArlP$tNZvpDF1ZK5n5',#6,'OPS_ProjectSettings',$,(#126,#127,#128,#129,#130,#131,#132));
#134=IFCRELDEFINESBYPROPERTIES('0Hdzo1sPJhdjQlBF$1BF9l',#6,$,$,(#13),#133);
#135=IFCPROPERTYSINGLEVALUE('InternalTaskId',$,IFCTEXT('task-mtx91g5de2ah2004'),$);
#136=IFCPROPERTYSET('I5VzYbs$eniRpT1XcPunVT',#6,'OPS_TaskIdentity',$,(#135));
#137=IFCRELDEFINESBYPROPERTIES('BfULrTGNsNLlXnbHITqRDF',#6,$,$,(#43),#136);
#138=IFCPROPERTYSINGLEVALUE('InternalTaskId',$,IFCTEXT('task-mtx91g5fqwiz2005'),$);
#139=IFCPROPERTYSET('qNoRm9ylnl8fRh2n5rix9n',#6,'OPS_TaskIdentity',$,(#138));
#140=IFCRELDEFINESBYPROPERTIES('xronnB$voHZdqlLFdn7pCT',#6,$,$,(#45),#139);
#141=IFCPROPERTYSINGLEVALUE('InternalTaskId',$,IFCTEXT('task-mtx91g5grjwo2006'),$);
#142=IFCPROPERTYSET('nLhlNJbXJ9vp0zJHB9wdlB',#6,'OPS_TaskIdentity',$,(#141));
#143=IFCRELDEFINESBYPROPERTIES('Md8nFLLlB3uNvJlX7VpdLN',#6,$,$,(#47),#142);
#144=IFCPROPERTYSINGLEVALUE('InternalTaskId',$,IFCTEXT('task-mtx91g5irjnk2007'),$);
#145=IFCPROPERTYSET('9fQJpDVPPjEBaJ3lAR_Htp',#6,'OPS_TaskIdentity',$,(#144));
#146=IFCRELDEFINESBYPROPERTIES('2DIHtZNfutXRXxmVMFfZnb',#6,$,$,(#49),#145);
#147=IFCPROPERTYSINGLEVALUE('InternalTaskId',$,IFCTEXT('task-mtx91g5k36x62008'),$);
#148=IFCPROPERTYSET('wHxVCRZHTV6$OV5n2x3tOz',#6,'OPS_TaskIdentity',$,(#147));
#149=IFCRELDEFINESBYPROPERTIES('DhjdxrHdH1ATBpXXWf6jQB',#6,$,$,(#51),#148);
#150=IFCPROPERTYSINGLEVALUE('InternalTaskId',$,IFCTEXT('task-mtx91g5ljuxo2009'),$);
#151=IFCPROPERTYSET('tDVh7BmfsttzXRCnKVRnZx',#6,'OPS_TaskIdentity',$,(#150));
#152=IFCRELDEFINESBYPROPERTIES('Gtyrl5F7gxX3htWV3l7bFX',#6,$,$,(#53),#151);
#153=IFCPROPERTYSINGLEVALUE('InternalTaskId',$,IFCTEXT('task-mtx91g5mvoir2010'),$);
#154=IFCPROPERTYSET('WX3tQ9iFkhxVcZd$atYnBv',#6,'OPS_TaskIdentity',$,(#153));
#155=IFCRELDEFINESBYPROPERTIES('P$9xwzqnqve91B6$Ox2ry7',#6,$,$,(#55),#154);
#156=IFCPROPERTYSINGLEVALUE('InternalTaskId',$,IFCTEXT('task-mtx91g5ntlqc2011'),$);
#157=IFCPROPERTYSET('spn5EXUFwHWH5bqniVJ7fz',#6,'OPS_TaskIdentity',$,(#156));
#158=IFCRELDEFINESBYPROPERTIES('ltKbihpV9VhHxxe$uThllH',#6,$,$,(#57),#157);
#159=IFCPROPERTYSINGLEVALUE('InternalTaskId',$,IFCTEXT('task-mtx91g5pal4z2012'),$);
#160=IFCPROPERTYSET('CfMzQNOvmJwJIx8$fJ7Rpn',#6,'OPS_TaskIdentity',$,(#159));
#161=IFCRELDEFINESBYPROPERTIES('5rQfuJpngvBFPFf$pBjvHl',#6,$,$,(#59),#160);
#162=IFCPROPERTYSINGLEVALUE('InternalTaskId',$,IFCTEXT('task-mtx91g5qaar62013'),$);
#163=IFCPROPERTYSET('tJb1EXUFcp876D3FGHP5xF',#6,'OPS_TaskIdentity',$,(#162));
#164=IFCRELDEFINESBYPROPERTIES('Gf8Valed1tdjMNWXzFRFBP',#6,$,$,(#61),#163);
#165=IFCPROPERTYSINGLEVALUE('InternalTaskId',$,IFCTEXT('task-mtx91g5rz0a62014'),$);
#166=IFCPROPERTYSET('oPYLP5k95ntbBP2XdF15Bd',#6,'OPS_TaskIdentity',$,(#165));
#167=IFCRELDEFINESBYPROPERTIES('7BkH$PQXZDuvorg1rNMZPd',#6,$,$,(#63),#166);
#168=IFCPROPERTYSINGLEVALUE('InternalTaskId',$,IFCTEXT('task-mtx91g5se5ab2015'),$);
#169=IFCPROPERTYSET('Qxa32P5XVdPrqlZlm15VWP',#6,'OPS_TaskIdentity',$,(#168));
#170=IFCRELDEFINESBYPROPERTIES('XVrXOzT1UvetjJVVYPSBGn',#6,$,$,(#65),#169);
#171=IFCPROPERTYSINGLEVALUE('InternalTaskId',$,IFCTEXT('task-mtx91g5tqaiv2016'),$);
#172=IFCPROPERTYSET('uD7ZqRpnAh7DyNmVYdi53B',#6,'OPS_TaskIdentity',$,(#171));
#173=IFCRELDEFINESBYPROPERTIES('nBXLbRjnW5ljYzlXrJFTnR',#6,$,$,(#67),#172);
#174=IFCPROPERTYSINGLEVALUE('InternalTaskId',$,IFCTEXT('task-mtx91g5v16i72017'),$);
#175=IFCPROPERTYSET('1l1BVp2fQD87_p1XULXb3P',#6,'OPS_TaskIdentity',$,(#174));
#176=IFCRELDEFINESBYPROPERTIES('uD1BDD9NG30F71rlfJdxzB',#6,$,$,(#69),#175);
#177=IFCPROPERTYSINGLEVALUE('InternalTaskId',$,IFCTEXT('task-mtx91g5ww8jn2018'),$);
#178=IFCPROPERTYSET('hPelbx$dRrNZDHpHxBa3ZN',#6,'OPS_TaskIdentity',$,(#177));
#179=IFCRELDEFINESBYPROPERTIES('SZOltzT$63o76jd$bx_rKD',#6,$,$,(#71),#178);
#180=IFCPROPERTYSINGLEVALUE('InternalTaskId',$,IFCTEXT('task-mtx91g5xtsca2019'),$);
#181=IFCPROPERTYSET('FBVLXNOPfxdrKx8$_92lr3',#6,'OPS_TaskIdentity',$,(#180));
#182=IFCRELDEFINESBYPROPERTIES('gvyBt1_fE5vhor2X7Xr1Yj',#6,$,$,(#73),#181);
#183=IFCPROPERTYSINGLEVALUE('InternalTaskId',$,IFCTEXT('task-mtx91g5y3zca2020'),$);
#184=IFCPROPERTYSET('Ib5nDjzHb$XRxlN$c3t3N3',#6,'OPS_TaskIdentity',$,(#183));
#185=IFCRELDEFINESBYPROPERTIES('rtkHZ9hlvNYfTNmX07Gt0N',#6,$,$,(#75),#184);
#186=IFCPROPERTYSINGLEVALUE('InternalTaskId',$,IFCTEXT('task-mtx91g5zirxr2021'),$);
#187=IFCPROPERTYSET('or$r$3S1QDePmhwlRRgNYH',#6,'OPS_TaskIdentity',$,(#186));
#188=IFCRELDEFINESBYPROPERTIES('L7ShnHHPrfIPCFXVClJ7PB',#6,$,$,(#77),#187);
#189=IFCPROPERTYSINGLEVALUE('InternalTaskId',$,IFCTEXT('task-mtx91g61j11s2022'),$);
#190=IFCPROPERTYSET('rD7TSJ6Xdvetv$BHZTKjQl',#6,'OPS_TaskIdentity',$,(#189));
#191=IFCRELDEFINESBYPROPERTIES('k9a36T097tILMfe1XJoXC3',#6,$,$,(#79),#190);
#192=IFCPROPERTYSINGLEVALUE('InternalTaskId',$,IFCTEXT('task-mtx91g62gyu32023'),$);
#193=IFCPROPERTYSET('ivCp17k9b1PJghUn$Xlr4r',#6,'OPS_TaskIdentity',$,(#192));
#194=IFCRELDEFINESBYPROPERTIES('R5q5klOv0hj7EVbnSNA3Rb',#6,$,$,(#81),#193);
#195=IFCPROPERTYSINGLEVALUE('InternalTaskId',$,IFCTEXT('task-mtx91g64q6fl2024'),$);
#196=IFCPROPERTYSET('EdI5cDsPL7Ot994nxlzNMD',#6,'OPS_TaskIdentity',$,(#195));
#197=IFCRELDEFINESBYPROPERTIES('7BU$sHfNeHOPOXBn3JcvLp',#6,$,$,(#83),#196);
#198=IFCPROPERTYSINGLEVALUE('InternalTaskId',$,IFCTEXT('task-mtx91g65rhht2025'),$);
#199=IFCPROPERTYSET('hTBX8jh$shdJELAHS5J7pH',#6,'OPS_TaskIdentity',$,(#198));
#200=IFCRELDEFINESBYPROPERTIES('E7Avj3BlV7x1qnf$3J_HPh',#6,$,$,(#85),#199);
#201=IFCPROPERTYSINGLEVALUE('InternalTaskId',$,IFCTEXT('task-mtx91g67v0zc2026'),$);
#202=IFCPROPERTYSET('nBnxo1676HmXwDpn1ZS3zd',#6,'OPS_TaskIdentity',$,(#201));
#203=IFCRELDEFINESBYPROPERTIES('MvKbalGNC3kPiR4FTzm98J',#6,$,$,(#87),#202);
#204=IFCPROPERTYSINGLEVALUE('InternalTaskId',$,IFCTEXT('task-mtx91g68hg1x2027'),$);
#205=IFCPROPERTYSET('qfsTSnCVlVAlXlv$VHtB09',#6,'OPS_TaskIdentity',$,(#204));
#206=IFCRELDEFINESBYPROPERTIES('xB6tkpdttLBnFJZHyrj7r3',#6,$,$,(#89),#205);
#207=IFCPROPERTYSINGLEVALUE('InternalTaskId',$,IFCTEXT('task-mtx91g69ryhs2028'),$);
#208=IFCPROPERTYSET('Y$PLJVEHjfLlBjBn937Dyh',#6,'OPS_TaskIdentity',$,(#207));
#209=IFCRELDEFINESBYPROPERTIES('NTDPXNWtnFqxVF5HK$nZHr',#6,$,$,(#91),#208);
#210=IFCPROPERTYSINGLEVALUE('InternalTaskId',$,IFCTEXT('task-mtx91g6azafn2029'),$);
#211=IFCPROPERTYSET('ezXzU9Z$YPizFDlVhZxXuj',#6,'OPS_TaskIdentity',$,(#210));
#212=IFCRELDEFINESBYPROPERTIES('lRL$URkHhvGVo$FX3j_ltp',#6,$,$,(#93),#211);
#213=IFCPROPERTYSINGLEVALUE('MilestoneKind',$,IFCLABEL('START'),$);
#214=IFCPROPERTYSET('tNwDNDNNwletfvslOJVp4r',#6,'OPS_Milestone',$,(#213));
#215=IFCRELDEFINESBYPROPERTIES('GNWNeRkHLdyL2PUXpL7DSN',#6,$,$,(#51),#214);
#216=IFCPROPERTYSINGLEVALUE('MilestoneKind',$,IFCLABEL('FINISH'),$);
#217=IFCPROPERTYSINGLEVALUE('Mandatory',$,IFCBOOLEAN(.T.),$);
#218=IFCPROPERTYSET('P5ahbRpng7RVg9anzlHzDn',#6,'OPS_Milestone',$,(#216,#217));
#219=IFCRELDEFINESBYPROPERTIES('o7wtsBNN4H5$43v1ZZK5tH',#6,$,$,(#93),#218);
ENDSEC;
END-ISO-10303-21;
