ISO-10303-21;
HEADER;
FILE_DESCRIPTION(('ViewDefinition [SchedulingView]'),'2;1');
FILE_NAME('New-Build Villa, Wassenaar.ifc','2026-09-11T17:47:46',('Thomas van Leeuwen'),('Exclusive Living BV'),'Open Planner Studio 0.1','Open Planner Studio','');
FILE_SCHEMA(('IFC4X3'));
ENDSEC;
DATA;
#1=IFCPERSON($,'Thomas van Leeuwen',$,$,$,$,$,$);
#2=IFCORGANIZATION($,'Exclusive Living BV',$,$,$);
#3=IFCPERSONANDORGANIZATION(#1,#2,$);
#4=IFCORGANIZATION($,'OpenAEC Foundation',$,$,$);
#5=IFCAPPLICATION(#4,'0.1','Open Planner Studio','OPS');
#6=IFCOWNERHISTORY(#3,#5,$,.NOCHANGE.,$,$,$,1789148866);
#7=IFCSIUNIT(*,.LENGTHUNIT.,$,.METRE.);
#8=IFCSIUNIT(*,.TIMEUNIT.,$,.SECOND.);
#9=IFCUNITASSIGNMENT((#7,#8));
#10=IFCCARTESIANPOINT((0.,0.,0.));
#11=IFCAXIS2PLACEMENT3D(#10,$,$);
#12=IFCGEOMETRICREPRESENTATIONCONTEXT($,'Plan',3,1.0E-05,#11,$);
#13=IFCPROJECT('NduV8LSHT$wjkRSlN9gNkr',#6,'New-Build Villa, Wassenaar','Detached luxury villa with swimming pool and guest house',$,$,$,(#12),#9);
#14=IFCTIMEPERIOD('07:00:00','16:00:00');
#15=IFCRECURRENCEPATTERN(.WEEKLY.,$,(1,2,3,4,5),$,$,$,$,(#14));
#16=IFCWORKTIME('Standard work week',.PREDICTED.,$,#15,$,$);
#17=IFCWORKTIME('New Year''s Day',.PREDICTED.,$,$,'2027-01-01','2027-01-01');
#18=IFCWORKTIME('Good Friday',.PREDICTED.,$,$,'2027-03-26','2027-03-26');
#19=IFCWORKTIME('Easter',.PREDICTED.,$,$,'2027-03-28','2027-03-29');
#20=IFCWORKTIME('King''s Day',.PREDICTED.,$,$,'2027-04-27','2027-04-27');
#21=IFCWORKTIME('Liberation Day',.PREDICTED.,$,$,'2027-05-05','2027-05-05');
#22=IFCWORKTIME('Ascension Day',.PREDICTED.,$,$,'2027-05-06','2027-05-06');
#23=IFCWORKTIME('Whitsun',.PREDICTED.,$,$,'2027-05-16','2027-05-17');
#24=IFCWORKTIME('Christmas',.PREDICTED.,$,$,'2027-12-25','2027-12-26');
#25=IFCWORKTIME('Construction holiday (northern region)',.PREDICTED.,$,$,'2027-07-26','2027-08-15');
#26=IFCWORKTIME('New Year''s Day',.PREDICTED.,$,$,'2028-01-01','2028-01-01');
#27=IFCWORKTIME('Good Friday',.PREDICTED.,$,$,'2028-04-14','2028-04-14');
#28=IFCWORKTIME('Easter',.PREDICTED.,$,$,'2028-04-16','2028-04-17');
#29=IFCWORKTIME('King''s Day',.PREDICTED.,$,$,'2028-04-27','2028-04-27');
#30=IFCWORKTIME('Liberation Day',.PREDICTED.,$,$,'2028-05-05','2028-05-05');
#31=IFCWORKTIME('Ascension Day',.PREDICTED.,$,$,'2028-05-25','2028-05-25');
#32=IFCWORKTIME('Whitsun',.PREDICTED.,$,$,'2028-06-04','2028-06-05');
#33=IFCWORKTIME('Christmas',.PREDICTED.,$,$,'2028-12-25','2028-12-26');
#34=IFCWORKTIME('Construction holiday (northern region)',.PREDICTED.,$,$,'2028-07-24','2028-08-13');
#35=IFCWORKCALENDAR('_HlbW$VPl1Yxnv_nBDbFBd',#6,'Construction calendar NL','Standard construction calendar: Mon-Fri 07:00-16:00',$,(#16),(#17,#18,#19,#20,#21,#22,#23,#24,#25,#26,#27,#28,#29,#30,#31,#32,#33,#34),.FIRSTSHIFT.);
#36=IFCPROPERTYSINGLEVALUE('HoursPerDay',$,IFCREAL(8),$);
#37=IFCPROPERTYSET('qL5XmPUFgdlJ6X9$WtAtOZ',#6,'OPS_Calendar',$,(#36));
#38=IFCRELDEFINESBYPROPERTIES('bXh12hy$qvOdOP_VbbYntl',#6,$,$,(#35),#37);
#39=IFCWORKPLAN('1FTNSny1qz_t1Bc16pLXyL',#6,'New-Build Villa, Wassenaar','Detached luxury villa with swimming pool and guest house',$,$,'2026-09-11T17:47:46',$,$,$,$,$,'2027-03-01T07:00:00','2027-03-16T07:00:00',.PLANNED.);
#40=IFCWORKSCHEDULE('aXZNi9pXp7JN3ds$XJ2HTt',#6,'Construction schedule v1.0',$,$,$,'2026-09-11T17:47:46',$,$,$,$,$,'2027-03-01T07:00:00','2027-03-16T07:00:00',.PLANNED.);
#41=IFCRELAGGREGATES('X$Ph9TPtbVDd8te$ftI1sz',#6,$,$,#39,(#40));
#42=IFCTASKTIME('1. Preparation Time',.PREDICTED.,$,.WORKTIME.,'P0Y0M5D','2027-03-01T07:00:00','2027-03-05T07:00:00','2027-03-01T07:00:00','2027-03-08T07:00:00','2027-03-01T07:00:00','2027-12-01T07:00:00','P0Y0M0D','P0Y0M0D',.T.,$,$,$,$,$,0.00);
#43=IFCTASK('A9QfOxMdHDm$0Zf$HdSBKp',#6,'1. Preparation',$,$,'1',$,$,$,.F.,$,#42,.CONSTRUCTION.);
#44=IFCTASKTIME('Set up site Time',.PREDICTED.,$,.WORKTIME.,'P0Y0M3D','2027-03-01T07:00:00','2027-03-03T07:00:00','2027-03-01T07:00:00','2027-03-03T07:00:00','2027-03-01T07:00:00','2027-03-03T07:00:00','P0Y0M0D','P0Y0M0D',.T.,$,$,$,$,$,0.00);
#45=IFCTASK('X$npLDwvAtlr8lXVIXvpyr',#6,'Set up site',$,$,'1.1',$,$,$,.F.,$,#44,.LOGISTIC.);
#46=IFCTASKTIME('Protect trees Time',.PREDICTED.,$,.WORKTIME.,'P0Y0M2D','2027-03-01T07:00:00','2027-03-02T07:00:00','2027-03-04T07:00:00','2027-03-05T07:00:00','2027-11-29T07:00:00','2027-11-30T07:00:00','P0Y0M0D','P0Y0M171D',.F.,$,$,$,$,$,0.00);
#47=IFCTASK('AJ39QjM$6ZM3ZrEVODxHvx',#6,'Protect trees',$,$,'1.2',$,$,$,.F.,$,#46,.ATTENDANCE.);
#48=IFCTASKTIME('Start of construction Time',.PREDICTED.,$,.WORKTIME.,'P0Y0M0D','2027-03-01T07:00:00','2027-03-01T07:00:00','2027-03-08T07:00:00','2027-03-08T07:00:00','2027-12-01T07:00:00','2027-12-01T07:00:00','P0Y0M171D','P0Y0M171D',.F.,$,$,$,$,$,0.00);
#49=IFCTASK('qrVLLDI9R11x5bCFW9I$2T',#6,'Start of construction',$,$,'1.3',$,$,$,.T.,$,#48,.CONSTRUCTION.);
#50=IFCTASKTIME('2. Earthworks & foundations Time',.PREDICTED.,$,.WORKTIME.,'P0Y0M5D','2027-03-01T07:00:00','2027-03-05T07:00:00','2027-03-04T07:00:00','2027-04-22T07:00:00','2027-03-04T07:00:00','2027-12-01T07:00:00','P0Y0M0D','P0Y0M0D',.T.,$,$,$,$,$,0.00);
#51=IFCTASK('8p$B3hqnylRVohQHVl$JYj',#6,'2. Earthworks & foundations',$,$,'2',$,$,$,.F.,$,#50,.CONSTRUCTION.);
#52=IFCTASKTIME('Excavate swimming pool Time',.PREDICTED.,$,.WORKTIME.,'P0Y0M8D','2027-03-01T07:00:00','2027-03-10T07:00:00','2027-03-04T07:00:00','2027-03-15T07:00:00','2027-03-04T07:00:00','2027-03-15T07:00:00','P0Y0M0D','P0Y0M0D',.T.,$,$,$,$,$,0.00);
#53=IFCTASK('P5yBt$E95brnxHN1Uh7p8p',#6,'Excavate swimming pool',$,$,'2.1',$,$,$,.F.,$,#52,.CONSTRUCTION.);
#54=IFCTASKTIME('Excavate foundation trenches Time',.PREDICTED.,$,.WORKTIME.,'P0Y0M5D','2027-03-01T07:00:00','2027-03-05T07:00:00','2027-03-16T07:00:00','2027-03-22T07:00:00','2027-10-27T07:00:00','2027-11-02T07:00:00','P0Y0M0D','P0Y0M140D',.F.,$,$,$,$,$,0.00);
#55=IFCTASK('MPGdj1otd70nxHlV1Tix9n',#6,'Excavate foundation trenches',$,$,'2.2',$,$,$,.F.,$,#54,.CONSTRUCTION.);
#56=IFCTASKTIME('Pour foundations Time',.PREDICTED.,$,.WORKTIME.,'P0Y0M8D','2027-03-01T07:00:00','2027-03-10T07:00:00','2027-03-23T07:00:00','2027-04-05T07:00:00','2027-11-03T07:00:00','2027-11-12T07:00:00','P0Y0M0D','P0Y0M140D',.F.,$,$,$,$,$,0.00);
#57=IFCTASK('0Fp7b11P9Vpdqnd1WtMNE9',#6,'Pour foundations',$,$,'2.3',$,$,$,.F.,$,#56,.CONSTRUCTION.);
#58=IFCTASKTIME('Sewerage and drainage Time',.PREDICTED.,$,.WORKTIME.,'P0Y0M5D','2027-03-01T07:00:00','2027-03-05T07:00:00','2027-04-06T07:00:00','2027-04-12T07:00:00','2027-11-15T07:00:00','2027-11-19T07:00:00','P0Y0M0D','P0Y0M140D',.F.,$,$,$,$,$,0.00);
#59=IFCTASK('5rY$sLRnIhBnJD3FuhGtCl',#6,'Sewerage and drainage',$,$,'2.4',$,$,$,.F.,$,#58,.INSTALLATION.);
#60=IFCTASKTIME('Fill crawl space Time',.PREDICTED.,$,.WORKTIME.,'P0Y0M3D','2027-03-01T07:00:00','2027-03-03T07:00:00','2027-04-13T07:00:00','2027-04-15T07:00:00','2027-11-22T07:00:00','2027-11-24T07:00:00','P0Y0M0D','P0Y0M140D',.F.,$,$,$,$,$,0.00);
#61=IFCTASK('2DcN8ptNqzYN7jd$3l$JcH',#6,'Fill crawl space',$,$,'2.5',$,$,$,.F.,$,#60,.CONSTRUCTION.);
#62=IFCTASKTIME('Ground floor slab Time',.PREDICTED.,$,.WORKTIME.,'P0Y0M5D','2027-03-01T07:00:00','2027-03-05T07:00:00','2027-04-16T07:00:00','2027-04-22T07:00:00','2027-11-25T07:00:00','2027-12-01T07:00:00','P0Y0M140D','P0Y0M140D',.F.,$,$,$,$,$,0.00);
#63=IFCTASK('cVz9sHXvC7OtR1HVHBDd3h',#6,'Ground floor slab',$,$,'2.6',$,$,$,.F.,$,#62,.CONSTRUCTION.);
#64=IFCTASKTIME('3. Structural works Time',.PREDICTED.,$,.WORKTIME.,'P0Y0M5D','2027-03-01T07:00:00','2027-03-05T07:00:00','2027-03-09T07:00:00','2027-05-18T07:00:00','2027-03-09T07:00:00','2027-12-01T07:00:00','P0Y0M0D','P0Y0M0D',.T.,$,$,$,$,$,0.00);
#65=IFCTASK('whkxwZePh7GXY9GXej9B0N',#6,'3. Structural works',$,$,'3',$,$,$,.F.,$,#64,.CONSTRUCTION.);
#66=IFCTASKTIME('Ground floor masonry Time',.PREDICTED.,$,.WORKTIME.,'P0Y0M12D','2027-03-01T07:00:00','2027-03-16T07:00:00','2027-03-09T07:00:00','2027-03-24T07:00:00','2027-03-09T07:00:00','2027-03-24T07:00:00','P0Y0M0D','P0Y0M0D',.T.,$,$,$,$,$,0.00);
#67=IFCTASK('b$NbG7cven4DuHFXJR$J_z',#6,'Ground floor masonry',$,$,'3.1',$,$,$,.F.,$,#66,.CONSTRUCTION.);
#68=IFCTASKTIME('Pour upper floor slab Time',.PREDICTED.,$,.WORKTIME.,'P0Y0M5D','2027-03-01T07:00:00','2027-03-05T07:00:00','2027-03-25T07:00:00','2027-04-02T07:00:00','2027-03-25T07:00:00','2027-04-02T07:00:00','P0Y0M0D','P0Y0M0D',.T.,$,$,$,$,$,0.00);
#69=IFCTASK('Sz4TCxPtjrDP49CFC3G94d',#6,'Pour upper floor slab',$,$,'3.2',$,$,$,.F.,$,#68,.CONSTRUCTION.);
#70=IFCTASKTIME('Upper floor masonry Time',.PREDICTED.,$,.WORKTIME.,'P0Y0M10D','2027-03-01T07:00:00','2027-03-12T07:00:00','2027-04-05T07:00:00','2027-04-16T07:00:00','2027-04-05T07:00:00','2027-04-16T07:00:00','P0Y0M0D','P0Y0M0D',.T.,$,$,$,$,$,0.00);
#71=IFCTASK('zpMP1v2NoxlJohQHJxr16X',#6,'Upper floor masonry',$,$,'3.3',$,$,$,.F.,$,#70,.CONSTRUCTION.);
#72=IFCTASKTIME('Timber roof structure Time',.PREDICTED.,$,.WORKTIME.,'P0Y0M10D','2027-03-01T07:00:00','2027-03-12T07:00:00','2027-04-19T07:00:00','2027-05-03T07:00:00','2027-04-19T07:00:00','2027-05-03T07:00:00','P0Y0M0D','P0Y0M0D',.T.,$,$,$,$,$,0.00);
#73=IFCTASK('W11ZOb_narpPCBA1pdSzn$',#6,'Timber roof structure',$,$,'3.4',$,$,$,.F.,$,#72,.CONSTRUCTION.);
#74=IFCTASKTIME('Roof tiles Time',.PREDICTED.,$,.WORKTIME.,'P0Y0M5D','2027-03-01T07:00:00','2027-03-05T07:00:00','2027-05-04T07:00:00','2027-05-12T07:00:00','2027-05-04T07:00:00','2027-05-12T07:00:00','P0Y0M0D','P0Y0M0D',.T.,$,$,$,$,$,0.00);
#75=IFCTASK('SzyrNFiXfHJfLzf$IXXRbb',#6,'Roof tiles',$,$,'3.5',$,$,$,.F.,$,#74,.CONSTRUCTION.);
#76=IFCTASKTIME('Build chimneys Time',.PREDICTED.,$,.WORKTIME.,'P0Y0M3D','2027-03-01T07:00:00','2027-03-03T07:00:00','2027-05-13T07:00:00','2027-05-18T07:00:00','2027-05-13T07:00:00','2027-05-18T07:00:00','P0Y0M0D','P0Y0M0D',.T.,$,$,$,$,$,0.00);
#77=IFCTASK('lRrV4Te7mzuf5R4H1VHBCT',#6,'Build chimneys',$,$,'3.6',$,$,$,.F.,$,#76,.CONSTRUCTION.);
#78=IFCTASKTIME('Topping out Time',.PREDICTED.,$,.WORKTIME.,'P0Y0M0D','2027-03-01T07:00:00','2027-03-01T07:00:00','2027-05-18T07:00:00','2027-05-18T07:00:00','2027-12-01T07:00:00','2027-12-01T07:00:00','P0Y0M126D','P0Y0M126D',.F.,$,$,$,$,$,0.00);
#79=IFCTASK('Ddg3IlOPVvx$ePIVwDRFxn',#6,'Topping out',$,$,'3.7',$,$,$,.T.,$,#78,.CONSTRUCTION.);
#80=IFCTASKTIME('4. Facade & roof Time',.PREDICTED.,$,.WORKTIME.,'P0Y0M5D','2027-03-01T07:00:00','2027-03-05T07:00:00','2027-05-03T07:00:00','2027-06-10T07:00:00','2027-05-03T07:00:00','2027-12-01T07:00:00','P0Y0M0D','P0Y0M0D',.T.,$,$,$,$,$,0.00);
#81=IFCTASK('W$9xcN09Xx1T5xO1i$7b5B',#6,'4. Facade & roof',$,$,'4',$,$,$,.F.,$,#80,.CONSTRUCTION.);
#82=IFCTASKTIME('Facade insulation Time',.PREDICTED.,$,.WORKTIME.,'P0Y0M8D','2027-03-01T07:00:00','2027-03-10T07:00:00','2027-05-03T07:00:00','2027-05-14T07:00:00','2027-05-03T07:00:00','2027-05-14T07:00:00','P0Y0M0D','P0Y0M0D',.T.,$,$,$,$,$,0.00);
#83=IFCTASK('db8V8LqX9Lj7AbmXQ3t3HF',#6,'Facade insulation',$,$,'4.1',$,$,$,.F.,$,#82,.INSTALLATION.);
#84=IFCTASKTIME('Hardwood window frames Time',.PREDICTED.,$,.WORKTIME.,'P0Y0M8D','2027-03-01T07:00:00','2027-03-10T07:00:00','2027-05-18T07:00:00','2027-05-27T07:00:00','2027-05-18T07:00:00','2027-05-27T07:00:00','P0Y0M0D','P0Y0M0D',.T.,$,$,$,$,$,0.00);
#85=IFCTASK('KP8nR1F7EHLHZN81Uv07xr',#6,'Hardwood window frames',$,$,'4.2',$,$,$,.F.,$,#84,.INSTALLATION.);
#86=IFCTASKTIME('Triple glazing HR+++ Time',.PREDICTED.,$,.WORKTIME.,'P0Y0M5D','2027-03-01T07:00:00','2027-03-05T07:00:00','2027-05-28T07:00:00','2027-06-03T07:00:00','2027-05-28T07:00:00','2027-06-03T07:00:00','P0Y0M0D','P0Y0M0D',.T.,$,$,$,$,$,0.00);
#87=IFCTASK('3lvZSD67Q$cDqnd1i17RDH',#6,'Triple glazing HR+++',$,$,'4.3',$,$,$,.F.,$,#86,.INSTALLATION.);
#88=IFCTASKTIME('Zinc gutters and downpipes Time',.PREDICTED.,$,.WORKTIME.,'P0Y0M5D','2027-03-01T07:00:00','2027-03-05T07:00:00','2027-06-04T07:00:00','2027-06-10T07:00:00','2027-06-04T07:00:00','2027-06-10T07:00:00','P0Y0M0D','P0Y0M0D',.T.,$,$,$,$,$,0.00);
#89=IFCTASK('VTeHXNevaBZt$BUVbV5Hb5',#6,'Zinc gutters and downpipes',$,$,'4.4',$,$,$,.F.,$,#88,.CONSTRUCTION.);
#90=IFCTASKTIME('Wind and weathertight Time',.PREDICTED.,$,.WORKTIME.,'P0Y0M0D','2027-03-01T07:00:00','2027-03-01T07:00:00','2027-06-10T07:00:00','2027-06-10T07:00:00','2027-12-01T07:00:00','2027-12-01T07:00:00','P0Y0M109D','P0Y0M109D',.F.,$,$,$,$,$,0.00);
#91=IFCTASK('0nrF9$wvgdvhczhnxBijA3',#6,'Wind and weathertight',$,$,'4.5',$,$,$,.T.,$,#90,.CONSTRUCTION.);
#92=IFCTASKTIME('5. Building services Time',.PREDICTED.,$,.WORKTIME.,'P0Y0M5D','2027-03-01T07:00:00','2027-03-05T07:00:00','2027-06-11T07:00:00','2027-09-01T07:00:00','2027-06-11T07:00:00','2027-12-01T07:00:00','P0Y0M0D','P0Y0M0D',.T.,$,$,$,$,$,0.00);
#93=IFCTASK('$FJPNDVPf57h_pHVjfER9p',#6,'5. Building services',$,$,'5',$,$,$,.F.,$,#92,.INSTALLATION.);
#94=IFCTASKTIME('Electrical first fix Time',.PREDICTED.,$,.WORKTIME.,'P0Y0M8D','2027-03-01T07:00:00','2027-03-10T07:00:00','2027-06-11T07:00:00','2027-06-22T07:00:00','2027-06-11T07:00:00','2027-06-22T07:00:00','P0Y0M0D','P0Y0M0D',.T.,$,$,$,$,$,0.00);
#95=IFCTASK('a3Kb8JB$SV5VEhcHZ38nnb',#6,'Electrical first fix',$,$,'5.1',$,$,$,.F.,$,#94,.INSTALLATION.);
#96=IFCTASKTIME('Plumbing first fix Time',.PREDICTED.,$,.WORKTIME.,'P0Y0M8D','2027-03-01T07:00:00','2027-03-10T07:00:00','2027-06-15T07:00:00','2027-06-24T07:00:00','2027-10-05T07:00:00','2027-10-14T07:00:00','P0Y0M0D','P0Y0M65D',.F.,$,$,$,$,$,0.00);
#97=IFCTASK('TzyZKrV7W5Vz$hInejVpqZ',#6,'Plumbing first fix',$,$,'5.2',$,$,$,.F.,$,#96,.INSTALLATION.);
#98=IFCTASKTIME('Underfloor heating Time',.PREDICTED.,$,.WORKTIME.,'P0Y0M8D','2027-03-01T07:00:00','2027-03-10T07:00:00','2027-06-25T07:00:00','2027-07-06T07:00:00','2027-10-15T07:00:00','2027-10-26T07:00:00','P0Y0M0D','P0Y0M65D',.F.,$,$,$,$,$,0.00);
#99=IFCTASK('d$ljxFhHxRJN9BYVVl7bxr',#6,'Underfloor heating',$,$,'5.3',$,$,$,.F.,$,#98,.INSTALLATION.);
#100=IFCTASKTIME('Home automation system Time',.PREDICTED.,$,.WORKTIME.,'P0Y0M5D','2027-03-01T07:00:00','2027-03-05T07:00:00','2027-07-07T07:00:00','2027-07-13T07:00:00','2027-10-27T07:00:00','2027-11-02T07:00:00','P0Y0M0D','P0Y0M65D',.F.,$,$,$,$,$,0.00);
#101=IFCTASK('1pon1za1EbzvUzt$ObgNUl',#6,'Home automation system',$,$,'5.4',$,$,$,.F.,$,#100,.INSTALLATION.);
#102=IFCTASKTIME('Pool plant Time',.PREDICTED.,$,.WORKTIME.,'P0Y0M10D','2027-03-01T07:00:00','2027-03-12T07:00:00','2027-07-14T07:00:00','2027-08-17T07:00:00','2027-11-03T07:00:00','2027-11-16T07:00:00','P0Y0M0D','P0Y0M65D',.F.,$,$,$,$,$,0.00);
#103=IFCTASK('SXBVup1dtVR1yNO$13OHxB',#6,'Pool plant',$,$,'5.5',$,$,$,.F.,$,#102,.INSTALLATION.);
#104=IFCTASKTIME('Heat pump and ground loop Time',.PREDICTED.,$,.WORKTIME.,'P0Y0M8D','2027-03-01T07:00:00','2027-03-10T07:00:00','2027-08-18T07:00:00','2027-08-27T07:00:00','2027-11-17T07:00:00','2027-11-26T07:00:00','P0Y0M0D','P0Y0M65D',.F.,$,$,$,$,$,0.00);
#105=IFCTASK('T1dh7Be74n9RPlrnrNcp09',#6,'Heat pump and ground loop',$,$,'5.6',$,$,$,.F.,$,#104,.INSTALLATION.);
#106=IFCTASKTIME('Solar panels Time',.PREDICTED.,$,.WORKTIME.,'P0Y0M3D','2027-03-01T07:00:00','2027-03-03T07:00:00','2027-08-30T07:00:00','2027-09-01T07:00:00','2027-11-29T07:00:00','2027-12-01T07:00:00','P0Y0M65D','P0Y0M65D',.F.,$,$,$,$,$,0.00);
#107=IFCTASK('_FJPj$kt9LR$aPc1c393tJ',#6,'Solar panels',$,$,'5.7',$,$,$,.F.,$,#106,.INSTALLATION.);
#108=IFCTASKTIME('6. Fit-out Time',.PREDICTED.,$,.WORKTIME.,'P0Y0M5D','2027-03-01T07:00:00','2027-03-05T07:00:00','2027-07-16T07:00:00','2027-10-26T07:00:00','2027-07-16T07:00:00','2027-10-26T07:00:00','P0Y0M0D','P0Y0M0D',.T.,$,$,$,$,$,0.00);
#109=IFCTASK('6ntD1d2nWbZP8lN1I3Olzv',#6,'6. Fit-out',$,$,'6',$,$,$,.F.,$,#108,.CONSTRUCTION.);
#110=IFCTASKTIME('Plastering, walls and ceilings Time',.PREDICTED.,$,.WORKTIME.,'P0Y0M12D','2027-03-01T07:00:00','2027-03-16T07:00:00','2027-07-16T07:00:00','2027-08-23T07:00:00','2027-07-16T07:00:00','2027-08-23T07:00:00','P0Y0M0D','P0Y0M0D',.T.,$,$,$,$,$,0.00);
#111=IFCTASK('OxazEZ$7Q1Er4zFXFN6JIh',#6,'Plastering, walls and ceilings',$,$,'6.1',$,$,$,.F.,$,#110,.CONSTRUCTION.);
#112=IFCTASKTIME('Luxury bathroom tiling Time',.PREDICTED.,$,.WORKTIME.,'P0Y0M10D','2027-03-01T07:00:00','2027-03-12T07:00:00','2027-08-24T07:00:00','2027-09-06T07:00:00','2027-08-24T07:00:00','2027-09-06T07:00:00','P0Y0M0D','P0Y0M0D',.T.,$,$,$,$,$,0.00);
#113=IFCTASK('RXh1_haHrzWHxbCH_xr$w1',#6,'Luxury bathroom tiling',$,$,'6.2',$,$,$,.F.,$,#112,.CONSTRUCTION.);
#114=IFCTASKTIME('Natural stone floors Time',.PREDICTED.,$,.WORKTIME.,'P0Y0M8D','2027-03-01T07:00:00','2027-03-10T07:00:00','2027-09-07T07:00:00','2027-09-16T07:00:00','2027-09-07T07:00:00','2027-09-16T07:00:00','P0Y0M0D','P0Y0M0D',.T.,$,$,$,$,$,0.00);
#115=IFCTASK('HtSL5rv9v92RNdUVrfUL2T',#6,'Natural stone floors',$,$,'6.3',$,$,$,.F.,$,#114,.CONSTRUCTION.);
#116=IFCTASKTIME('Oak staircases Time',.PREDICTED.,$,.WORKTIME.,'P0Y0M5D','2027-03-01T07:00:00','2027-03-05T07:00:00','2027-09-17T07:00:00','2027-09-23T07:00:00','2027-09-17T07:00:00','2027-09-23T07:00:00','P0Y0M0D','P0Y0M0D',.T.,$,$,$,$,$,0.00);
#117=IFCTASK('ZzS3Ybg$E5XznjplhZLlJ$',#6,'Oak staircases',$,$,'6.4',$,$,$,.F.,$,#116,.INSTALLATION.);
#118=IFCTASKTIME('Bespoke kitchen Time',.PREDICTED.,$,.WORKTIME.,'P0Y0M8D','2027-03-01T07:00:00','2027-03-10T07:00:00','2027-09-24T07:00:00','2027-10-05T07:00:00','2027-09-24T07:00:00','2027-10-05T07:00:00','P0Y0M0D','P0Y0M0D',.T.,$,$,$,$,$,0.00);
#119=IFCTASK('FBnxQNOv4x$THfCFKV5lLp',#6,'Bespoke kitchen',$,$,'6.5',$,$,$,.F.,$,#118,.INSTALLATION.);
#120=IFCTASKTIME('Painting Time',.PREDICTED.,$,.WORKTIME.,'P0Y0M10D','2027-03-01T07:00:00','2027-03-12T07:00:00','2027-10-06T07:00:00','2027-10-19T07:00:00','2027-10-06T07:00:00','2027-10-19T07:00:00','P0Y0M0D','P0Y0M0D',.T.,$,$,$,$,$,0.00);
#121=IFCTASK('hTh1sFbFUjUxF7In8TJ7lF',#6,'Painting',$,$,'6.6',$,$,$,.F.,$,#120,.CONSTRUCTION.);
#122=IFCTASKTIME('Second-fix sanitary fittings Time',.PREDICTED.,$,.WORKTIME.,'P0Y0M5D','2027-03-01T07:00:00','2027-03-05T07:00:00','2027-10-20T07:00:00','2027-10-26T07:00:00','2027-10-20T07:00:00','2027-10-26T07:00:00','P0Y0M0D','P0Y0M0D',.T.,$,$,$,$,$,0.00);
#123=IFCTASK('HtqxsBff4lx1apnVDBxXeL',#6,'Second-fix sanitary fittings',$,$,'6.7',$,$,$,.F.,$,#122,.INSTALLATION.);
#124=IFCTASKTIME('7. External works & handover Time',.PREDICTED.,$,.WORKTIME.,'P0Y0M5D','2027-03-01T07:00:00','2027-03-05T07:00:00','2027-10-27T07:00:00','2027-12-01T07:00:00','2027-10-27T07:00:00','2027-12-01T07:00:00','P0Y0M0D','P0Y0M0D',.T.,$,$,$,$,$,0.00);
#125=IFCTASK('2pw9In4HXdFDmLknmnxlZt',#6,'7. External works & handover',$,$,'7',$,$,$,.F.,$,#124,.CONSTRUCTION.);
#126=IFCTASKTIME('Complete swimming pool Time',.PREDICTED.,$,.WORKTIME.,'P0Y0M8D','2027-03-01T07:00:00','2027-03-10T07:00:00','2027-10-27T07:00:00','2027-11-05T07:00:00','2027-10-27T07:00:00','2027-11-05T07:00:00','P0Y0M0D','P0Y0M0D',.T.,$,$,$,$,$,0.00);
#127=IFCTASK('i5X3QtyHxHjfHtO$BjNLUp',#6,'Complete swimming pool',$,$,'7.1',$,$,$,.F.,$,#126,.CONSTRUCTION.);
#128=IFCTASKTIME('Garden landscaping Time',.PREDICTED.,$,.WORKTIME.,'P0Y0M10D','2027-03-01T07:00:00','2027-03-12T07:00:00','2027-11-08T07:00:00','2027-11-19T07:00:00','2027-11-08T07:00:00','2027-11-19T07:00:00','P0Y0M0D','P0Y0M0D',.T.,$,$,$,$,$,0.00);
#129=IFCTASK('XzyrNHGfGTKRb191FR7bDF',#6,'Garden landscaping',$,$,'7.2',$,$,$,.F.,$,#128,.CONSTRUCTION.);
#130=IFCTASKTIME('Driveway and paving Time',.PREDICTED.,$,.WORKTIME.,'P0Y0M5D','2027-03-01T07:00:00','2027-03-05T07:00:00','2027-11-22T07:00:00','2027-11-26T07:00:00','2027-11-22T07:00:00','2027-11-26T07:00:00','P0Y0M0D','P0Y0M0D',.T.,$,$,$,$,$,0.00);
#131=IFCTASK('whgzshT$YPiR99yHdrKJwx',#6,'Driveway and paving',$,$,'7.3',$,$,$,.F.,$,#130,.CONSTRUCTION.);
#132=IFCTASKTIME('Cleaning Time',.PREDICTED.,$,.WORKTIME.,'P0Y0M3D','2027-03-01T07:00:00','2027-03-03T07:00:00','2027-11-29T07:00:00','2027-12-01T07:00:00','2027-11-29T07:00:00','2027-12-01T07:00:00','P0Y0M0D','P0Y0M0D',.T.,$,$,$,$,$,0.00);
#133=IFCTASK('jxfRWVL16nCx3PkXwDZNA7',#6,'Cleaning',$,$,'7.4',$,$,$,.F.,$,#132,.LOGISTIC.);
#134=IFCTASKTIME('Handover Time',.PREDICTED.,$,.WORKTIME.,'P0Y0M0D','2027-03-01T07:00:00','2027-03-01T07:00:00','2027-12-01T07:00:00','2027-12-01T07:00:00','2027-12-01T07:00:00','2027-12-01T07:00:00','P0Y0M0D','P0Y0M0D',.T.,$,$,$,$,$,0.00);
#135=IFCTASK('ADd3kFyH3T2bpZ9$XDcDCl',#6,'Handover',$,$,'7.5',$,$,$,.T.,$,#134,.CONSTRUCTION.);
#136=IFCRELNESTS('Hx1TWXjnGJg3b$N1B9k1sP',#6,'WBS 1. Preparation',$,#43,( #45,#47,#49));
#137=IFCRELNESTS('$FztYf791rBFDZN$xlrnX3',#6,'WBS 2. Earthworks & foundations',$,#51,( #53,#55,#57,#59,#61,#63));
#138=IFCRELNESTS('pPMzMxtNWbx$4t4F5n7D8R',#6,'WBS 3. Structural works',$,#65,( #67,#69,#71,#73,#75,#77,#79));
#139=IFCRELNESTS('dbmvH5d95lRXwXP1lBzNkh',#6,'WBS 4. Facade & roof',$,#81,( #83,#85,#87,#89,#91));
#140=IFCRELNESTS('6L_BjTNfa1$5$V5F6NcD8b',#6,'WBS 5. Building services',$,#93,( #95,#97,#99,#101,#103,#105,#107));
#141=IFCRELNESTS('1jg3Yx2fo59RhfaFZ$Z9ab',#6,'WBS 6. Fit-out',$,#109,( #111,#113,#115,#117,#119,#121,#123));
#142=IFCRELNESTS('t9_V41MdtX5XU9O$07uFHL',#6,'WBS 7. External works & handover',$,#125,( #127,#129,#131,#133,#135));
#143=IFCRELNESTS('tjjP5r1vgdnD4TBHzDgTrv',#6,'WBS Hoofd',$,#40,(#43,#51,#65,#81,#93,#109,#125));
#144=IFCRELSEQUENCE('aXbld5E9JfzfHf4nxl3fIr',#6,$,$,#45,#47,$,.FINISH_START.,$);
#145=IFCRELSEQUENCE('0nLlNDn7ERTPut81NpxHz7',#6,$,$,#47,#49,$,.FINISH_START.,$);
#146=IFCRELSEQUENCE('W1nD5h31mZaJYzFXZT4hkB',#6,$,$,#53,#55,$,.FINISH_START.,$);
#147=IFCRELSEQUENCE('N3NRuDXddjY5DlpHjNwjUn',#6,$,$,#55,#57,$,.FINISH_START.,$);
#148=IFCRELSEQUENCE('c5Cx27XPzTM3ttiF6fAzNz',#6,$,$,#57,#59,$,.FINISH_START.,$);
#149=IFCRELSEQUENCE('tjTfG9iFM57hErIX2xB$2V',#6,$,$,#59,#61,$,.FINISH_START.,$);
#150=IFCRELSEQUENCE('6FF5MR3HH16jsbe1SxhXG$',#6,$,$,#61,#63,$,.FINISH_START.,$);
#151=IFCRELSEQUENCE('M3FDVtyHjhNTVnTFs$1J_3',#6,$,$,#67,#69,$,.FINISH_START.,$);
#152=IFCRELSEQUENCE('mdEb8p$Pr38fltu1Y7OVGX',#6,$,$,#69,#71,$,.FINISH_START.,$);
#153=IFCRELSEQUENCE('wF1rJZ9fgvbVAR812f_Bip',#6,$,$,#71,#73,$,.FINISH_START.,$);
#154=IFCRELSEQUENCE('NTz9cNu7EH376Vv$HdariV',#6,$,$,#73,#75,$,.FINISH_START.,$);
#155=IFCRELSEQUENCE('2FBnjzbFUD61SjBFzD6jk7',#6,$,$,#75,#77,$,.FINISH_START.,$);
#156=IFCRELSEQUENCE('1FD75F5FyRJfHfalrpLVSf',#6,$,$,#77,#79,$,.FINISH_START.,$);
#157=IFCRELSEQUENCE('BNERuLinoxNxBpt1n5B1Av',#6,$,$,#83,#85,$,.FINISH_START.,$);
#158=IFCRELSEQUENCE('0FBnP9RnEFPr43HXZX935r',#6,$,$,#85,#87,$,.FINISH_START.,$);
#159=IFCRELSEQUENCE('TZmvpjTHLDMF7Xt$O5wj2$',#6,$,$,#87,#89,$,.FINISH_START.,$);
#160=IFCRELSEQUENCE('BfYhbb5VzTsZxxGXopERHF',#6,$,$,#89,#91,$,.FINISH_START.,$);
#161=IFCLAGTIME('Lag',.PREDICTED.,$,IFCDURATION('P2D'),.WORKTIME.);
#162=IFCRELSEQUENCE('xnvTC5XPDxV3jjHXrj1jof',#6,$,$,#95,#97,#161,.START_START.,$);
#163=IFCRELSEQUENCE('fz7BtVg$cDWlvpjFxFtzdB',#6,$,$,#97,#99,$,.FINISH_START.,$);
#164=IFCRELSEQUENCE('_FJdBzylL70Fhtu1BN_rip',#6,$,$,#99,#101,$,.FINISH_START.,$);
#165=IFCRELSEQUENCE('LZpd$vItJB3NHfCFSbdxHL',#6,$,$,#101,#103,$,.FINISH_START.,$);
#166=IFCRELSEQUENCE('k9SzQf8Plj4DGx4ldBSrK1',#6,$,$,#103,#105,$,.FINISH_START.,$);
#167=IFCRELSEQUENCE('pBlRGNGf6TQDqBw$ObwP5l',#6,$,$,#105,#107,$,.FINISH_START.,$);
#168=IFCRELSEQUENCE('YVRllXJnOdtbXRqlUB3Nkv',#6,$,$,#111,#113,$,.FINISH_START.,$);
#169=IFCRELSEQUENCE('1Fjdj$cv89HrCHBnTz07PB',#6,$,$,#113,#115,$,.FINISH_START.,$);
#170=IFCRELSEQUENCE('3FpvDpv9V5FpunDntv4TzB',#6,$,$,#115,#117,$,.FINISH_START.,$);
#171=IFCRELSEQUENCE('EBNJDDfNERhHTtSnZ$Ll$t',#6,$,$,#117,#119,$,.FINISH_START.,$);
#172=IFCRELSEQUENCE('uhYL5r79BZyDKbqlwNMZX3',#6,$,$,#119,#121,$,.FINISH_START.,$);
#173=IFCRELSEQUENCE('RVTf4TOdFniRxHN$MrCpOh',#6,$,$,#121,#123,$,.FINISH_START.,$);
#174=IFCRELSEQUENCE('vh6pBzqFSB3fvJHVVJAtOh',#6,$,$,#127,#129,$,.FINISH_START.,$);
#175=IFCRELSEQUENCE('ObOl37XdtrFhIR4HXltre3',#6,$,$,#129,#131,$,.FINISH_START.,$);
#176=IFCRELSEQUENCE('vrEFppH7C7G$i1Jnb$fhEN',#6,$,$,#131,#133,$,.FINISH_START.,$);
#177=IFCRELSEQUENCE('sjrFH5NNw3UfXFJnH7Wdb$',#6,$,$,#133,#135,$,.FINISH_START.,$);
#178=IFCLAGTIME('Lag',.PREDICTED.,$,IFCDURATION('P3D'),.WORKTIME.);
#179=IFCRELSEQUENCE('UV3tQ9Sl55fxxbilOpB1Up',#6,$,$,#45,#53,#178,.START_START.,$);
#180=IFCLAGTIME('Lag',.PREDICTED.,$,IFCRATIOMEASURE(0.4),.WORKTIME.);
#181=IFCRELSEQUENCE('wL2BzrmfwTILYfCHc39zfz',#6,$,$,#53,#67,#180,.START_START.,$);
#182=IFCLAGTIME('Lag',.PREDICTED.,$,IFCDURATION('-P9D'),.WORKTIME.);
#183=IFCRELSEQUENCE('U1HjpDtfiD0npZFVDrj7pl',#6,$,$,#77,#83,#182,.FINISH_START.,$);
#184=IFCLAGTIME('Lag',.PREDICTED.,$,IFCDURATION('P2D'),.WORKTIME.);
#185=IFCRELSEQUENCE('6HhHdbYncj4pK1RlULlB4h',#6,$,$,#77,#89,#184,.FINISH_FINISH.,$);
#186=IFCRELSEQUENCE('NZ5nvdDn2ZyLIbiH8TJ73P',#6,$,$,#89,#95,$,.FINISH_START.,$);
#187=IFCLAGTIME('Lag',.PREDICTED.,$,IFCDURATION('P25D'),.WORKTIME.);
#188=IFCRELSEQUENCE('tplR8jr$a$VR9tyHnfgZZR',#6,$,$,#95,#111,#187,.START_START.,$);
#189=IFCRELSEQUENCE('U34B3Bmf6nqxFvIFqzeXm$',#6,$,$,#123,#127,$,.FINISH_START.,$);
#190=IFCLABORRESOURCE('FvMPbxNNwFaJsvwH$zOXml',#6,'Bricklayers',$,$,$,$,$,.USERDEFINED.);
#191=IFCLABORRESOURCE('qLTfCbbVTVAHvDpnxri5fX',#6,'Carpenters','Roof structure, frames and joinery; the roof works and the window frames overlap briefly',$,$,$,$,.USERDEFINED.);
#192=IFCLABORRESOURCE('fTrVe5sd7ZSJgr_V$TqD0N',#6,'MEP fitters','Electrical and plumbing; two pairs, briefly working alongside each other',$,$,$,$,.USERDEFINED.);
#193=IFCLABORRESOURCE('_J_rFrnd3lm$qHTlqnPJQl',#6,'Plasterers',$,$,$,$,$,.USERDEFINED.);
#194=IFCLABORRESOURCE('ZVJ7XJA$0rFhkRqFOD5HVv',#6,'Tilers',$,$,$,$,$,.USERDEFINED.);
#195=IFCLABORRESOURCE('xn1rXjIHl$UxvjlVJNYLUJ',#6,'Painters',$,$,$,$,$,.USERDEFINED.);
#196=IFCPROPERTYSINGLEVALUE('MaxUnits',$,IFCREAL(3),$);
#197=IFCPROPERTYSINGLEVALUE('CostPerHour',$,IFCMONETARYMEASURE(46),$);
#198=IFCPROPERTYSINGLEVALUE('Color',$,IFCTEXT('#1E293B'),$);
#199=IFCPROPERTYSET('ZTOHHXxVf5$Tl9O1xryZFx',#6,'OPS_Resource',$,(#196,#197,#198));
#200=IFCRELDEFINESBYPROPERTIES('ANsT8DXdbXrnh9mVs1P5lh',#6,$,$,(#190),#199);
#201=IFCPROPERTYSINGLEVALUE('MaxUnits',$,IFCREAL(5),$);
#202=IFCPROPERTYSINGLEVALUE('CostPerHour',$,IFCMONETARYMEASURE(45),$);
#203=IFCPROPERTYSINGLEVALUE('Color',$,IFCTEXT('#B91C1C'),$);
#204=IFCPROPERTYSET('urw9IniXrTqTnvcH7bc7rZ',#6,'OPS_Resource',$,(#201,#202,#203));
#205=IFCRELDEFINESBYPROPERTIES('HNGvFBtfg7bXAb0VfJnTR1',#6,$,$,(#191),#204);
#206=IFCPROPERTYSINGLEVALUE('MaxUnits',$,IFCREAL(4),$);
#207=IFCPROPERTYSINGLEVALUE('CostPerHour',$,IFCMONETARYMEASURE(48),$);
#208=IFCPROPERTYSINGLEVALUE('Color',$,IFCTEXT('#DB2777'),$);
#209=IFCPROPERTYSET('LvazQtalNl5$uHN$w9EXWP',#6,'OPS_Resource',$,(#206,#207,#208));
#210=IFCRELDEFINESBYPROPERTIES('kxFp1d2ne7p9rvEFYh1579',#6,$,$,(#192),#209);
#211=IFCPROPERTYSINGLEVALUE('MaxUnits',$,IFCREAL(3),$);
#212=IFCPROPERTYSINGLEVALUE('CostPerHour',$,IFCMONETARYMEASURE(42),$);
#213=IFCPROPERTYSINGLEVALUE('Color',$,IFCTEXT('#C2410C'),$);
#214=IFCPROPERTYSET('MZBV0lndp7p9JJXVYr5VSt',#6,'OPS_Resource',$,(#211,#212,#213));
#215=IFCRELDEFINESBYPROPERTIES('zH9ppFyHVdtRBvYFhPu1k7',#6,$,$,(#193),#214);
#216=IFCPROPERTYSINGLEVALUE('MaxUnits',$,IFCREAL(2),$);
#217=IFCPROPERTYSINGLEVALUE('CostPerHour',$,IFCMONETARYMEASURE(43),$);
#218=IFCPROPERTYSINGLEVALUE('Color',$,IFCTEXT('#6366F1'),$);
#219=IFCPROPERTYSET('nBfJpDPtPDUfDHRFClxXyP',#6,'OPS_Resource',$,(#216,#217,#218));
#220=IFCRELDEFINESBYPROPERTIES('ezNbC7l7OHmXQTN1dL0vHl',#6,$,$,(#194),#219);
#221=IFCPROPERTYSINGLEVALUE('MaxUnits',$,IFCREAL(3),$);
#222=IFCPROPERTYSINGLEVALUE('CostPerHour',$,IFCMONETARYMEASURE(38),$);
#223=IFCPROPERTYSINGLEVALUE('Color',$,IFCTEXT('#0D9488'),$);
#224=IFCPROPERTYSET('FvgPFl1vc1M3hfSHxL0vFX',#6,'OPS_Resource',$,(#221,#222,#223));
#225=IFCRELDEFINESBYPROPERTIES('splR4TGNSXR$uHt1eJtr0t',#6,$,$,(#195),#224);
#226=IFCRELASSIGNSTOPROCESS('hvCD5r$vQDGX2p71I3eXyL',#6,$,$,(#190),$,#67,$);
#227=IFCRELASSIGNSTOPROCESS('JbL1klGNSXxXM9aFN9YnnR',#6,$,$,(#190),$,#71,$);
#228=IFCRELASSIGNSTOPROCESS('mf0t27dtFlWHhZpFJNYLkB',#6,$,$,(#191),$,#73,$);
#229=IFCRELASSIGNSTOPROCESS('qhxV41o9Vbp9v$JFDLNZFR',#6,$,$,(#191),$,#75,$);
#230=IFCRELASSIGNSTOPROCESS('VZ0tAn5nipedmBQ1wD5ljX',#6,$,$,(#190),$,#77,$);
#231=IFCRELASSIGNSTOPROCESS('4nvZ8LaHdv0FJDBl$V15hN',#6,$,$,(#191),$,#85,$);
#232=IFCRELASSIGNSTOPROCESS('DPULDlWt3z_tzbmVmXfZnR',#6,$,$,(#191),$,#87,$);
#233=IFCRELASSIGNSTOPROCESS('ChhHxhxn0rVblTRHkXfZTR',#6,$,$,(#192),$,#95,$);
#234=IFCRELASSIGNSTOPROCESS('pL3t27vt5bZdCHzlIT4Z1J',#6,$,$,(#192),$,#97,$);
#235=IFCRELASSIGNSTOPROCESS('N7Sht35FqdSr8FhHrJd5Fb',#6,$,$,(#192),$,#99,$);
#236=IFCRELASSIGNSTOPROCESS('HbrXKBffW5VzHz1V8zPJ2z',#6,$,$,(#192),$,#101,$);
#237=IFCRELASSIGNSTOPROCESS('K7qDRRZlRrlr49ylT307jV',#6,$,$,(#192),$,#103,$);
#238=IFCRELASSIGNSTOPROCESS('Jta3AnpX7N_tfd_XvXB$Ir',#6,$,$,(#192),$,#105,$);
#239=IFCRELASSIGNSTOPROCESS('EdIxQJYF23WldZFXzjstiV',#6,$,$,(#192),$,#107,$);
#240=IFCRELASSIGNSTOPROCESS('ujTN0FT$_3WlJV91OpLX0t',#6,$,$,(#193),$,#111,$);
#241=IFCRELASSIGNSTOPROCESS('LdWfirFdzleP0Z7$QzXRDH',#6,$,$,(#194),$,#113,$);
#242=IFCRELASSIGNSTOPROCESS('1nb1w7gPRr7p0Zd147SzXP',#6,$,$,(#194),$,#115,$);
#243=IFCRELASSIGNSTOPROCESS('DhZf8Dvthp2t7VlV97SrK1',#6,$,$,(#191),$,#117,$);
#244=IFCRELASSIGNSTOPROCESS('1jcJFBP9Xd$Z9rIXUPa3Bz',#6,$,$,(#191),$,#119,$);
#245=IFCRELASSIGNSTOPROCESS('bRWfKNXv8VcX_PoXOj$jQF',#6,$,$,(#195),$,#121,$);
#246=IFCPROPERTYSINGLEVALUE('FvMPbxNNwFaJsvwH$zOXml#0',$,IFCTEXT('3|UNIFORM'),$);
#247=IFCPROPERTYSET('qhJPTNPtBfo7grQ$UvWPbV',#6,'OPS_Assignments',$,(#246));
#248=IFCRELDEFINESBYPROPERTIES('bVZf4$_NERrFFpFXDBb1A7',#6,$,$,(#67),#247);
#249=IFCPROPERTYSINGLEVALUE('FvMPbxNNwFaJsvwH$zOXml#0',$,IFCTEXT('3|UNIFORM'),$);
#250=IFCPROPERTYSET('SVZf0FRnIVzNJ$znebEVm1',#6,'OPS_Assignments',$,(#249));
#251=IFCRELDEFINESBYPROPERTIES('zJ6pbbB$KNUfjX71nf2rWv',#6,$,$,(#71),#250);
#252=IFCPROPERTYSINGLEVALUE('qLTfCbbVTVAHvDpnxri5fX#0',$,IFCTEXT('3|UNIFORM'),$);
#253=IFCPROPERTYSET('vn9pZfVvahdJ6$ZnIZCR5r',#6,'OPS_Assignments',$,(#252));
#254=IFCRELDEFINESBYPROPERTIES('WVBXqvn7UdyhIbile5EbBZ',#6,$,$,(#73),#253);
#255=IFCPROPERTYSINGLEVALUE('qLTfCbbVTVAHvDpnxri5fX#0',$,IFCTEXT('2|UNIFORM'),$);
#256=IFCPROPERTYSET('zlF5kHWtjrrFD3JHJb1JgD',#6,'OPS_Assignments',$,(#255));
#257=IFCRELDEFINESBYPROPERTIES('STGvR11Pvt_R99yntzFhE5',#6,$,$,(#75),#256);
#258=IFCPROPERTYSINGLEVALUE('FvMPbxNNwFaJsvwH$zOXml#0',$,IFCTEXT('2|UNIFORM'),$);
#259=IFCPROPERTYSET('g7iJR1$dx5drqFt1$ZyZr7',#6,'OPS_Assignments',$,(#258));
#260=IFCRELDEFINESBYPROPERTIES('H5$TW$NfQ$oruN4nPhuFNV',#6,$,$,(#77),#259);
#261=IFCPROPERTYSINGLEVALUE('qLTfCbbVTVAHvDpnxri5fX#0',$,IFCTEXT('2|UNIFORM'),$);
#262=IFCPROPERTYSET('5hcJR19fqz61SpFXVl7bpl',#6,'OPS_Assignments',$,(#261));
#263=IFCRELDEFINESBYPROPERTIES('i7yrnLDX1BhHVHXVcduF$J',#6,$,$,(#85),#262);
#264=IFCPROPERTYSINGLEVALUE('qLTfCbbVTVAHvDpnxri5fX#0',$,IFCTEXT('2|UNIFORM'),$);
#265=IFCPROPERTYSET('MZDP1vcvu$ATPzZlep5HHn',#6,'OPS_Assignments',$,(#264));
#266=IFCRELDEFINESBYPROPERTIES('3FZNORA$OP1Z376Hh3t3jX',#6,$,$,(#87),#265);
#267=IFCPROPERTYSINGLEVALUE('fTrVe5sd7ZSJgr_V$TqD0N#0',$,IFCTEXT('2|UNIFORM'),$);
#268=IFCPROPERTYSET('3l1rTbA1ar5XAxilu3nhgD',#6,'OPS_Assignments',$,(#267));
#269=IFCRELDEFINESBYPROPERTIES('aTWfyVIlzzEvoXDllL$5HL',#6,$,$,(#95),#268);
#270=IFCPROPERTYSINGLEVALUE('fTrVe5sd7ZSJgr_V$TqD0N#0',$,IFCTEXT('2|UNIFORM'),$);
#271=IFCPROPERTYSET('yF1BtXkHtBvp4N8$bXpdDp',#6,'OPS_Assignments',$,(#270));
#272=IFCRELDEFINESBYPROPERTIES('TZ8XGN8P1BhltLInydmtCH',#6,$,$,(#97),#271);
#273=IFCPROPERTYSINGLEVALUE('fTrVe5sd7ZSJgr_V$TqD0N#0',$,IFCTEXT('2|UNIFORM'),$);
#274=IFCPROPERTYSET('ohZNKrlPp57Lcn1XkzmtCl',#6,'OPS_Assignments',$,(#273));
#275=IFCRELDEFINESBYPROPERTIES('PXj7nLBHDRjNTN0VfppPtH',#6,$,$,(#99),#274);
#276=IFCPROPERTYSINGLEVALUE('fTrVe5sd7ZSJgr_V$TqD0N#0',$,IFCTEXT('1|UNIFORM'),$);
#277=IFCPROPERTYSET('cXz9E$_fElp9LfSFZ1zNEf',#6,'OPS_Assignments',$,(#276));
#278=IFCRELDEFINESBYPROPERTIES('$JcjDp1PX59RnJZlyv4hsP',#6,$,$,(#101),#277);
#279=IFCPROPERTYSINGLEVALUE('fTrVe5sd7ZSJgr_V$TqD0N#0',$,IFCTEXT('2|UNIFORM'),$);
#280=IFCPROPERTYSET('BJJPDH0tDvx1yzVXQ3$5RV',#6,'OPS_Assignments',$,(#279));
#281=IFCRELDEFINESBYPROPERTIES('S1NbqdxVH$IhoXTlGXlBG$',#6,$,$,(#103),#280);
#282=IFCPROPERTYSINGLEVALUE('fTrVe5sd7ZSJgr_V$TqD0N#0',$,IFCTEXT('2|UNIFORM'),$);
#283=IFCPROPERTYSET('AjhHnHVvq3YfTtaHXJgNkP',#6,'OPS_Assignments',$,(#282));
#284=IFCRELDEFINESBYPROPERTIES('TXBX0FjXvZSBChAH8ByZ7N',#6,$,$,(#105),#283);
#285=IFCPROPERTYSINGLEVALUE('fTrVe5sd7ZSJgr_V$TqD0N#0',$,IFCTEXT('1|UNIFORM'),$);
#286=IFCPROPERTYSET('fZ39IJDnMd9RZLQHF9stG$',#6,'OPS_Assignments',$,(#285));
#287=IFCRELDEFINESBYPROPERTIES('2HXLfDNfs9VbxFBH3D2Ba5',#6,$,$,(#107),#286);
#288=IFCPROPERTYSINGLEVALUE('_J_rFrnd3lm$qHTlqnPJQl#0',$,IFCTEXT('3|UNIFORM'),$);
#289=IFCPROPERTYSET('1DonZRM$YDYN3PEXKpgZ1j',#6,'OPS_Assignments',$,(#288));
#290=IFCRELDEFINESBYPROPERTIES('ORO1o$EthJ6JMrQ1_fk5lB',#6,$,$,(#111),#289);
#291=IFCPROPERTYSINGLEVALUE('ZVJ7XJA$0rFhkRqFOD5HVv#0',$,IFCTEXT('2|UNIFORM'),$);
#292=IFCPROPERTYSET('Cr$Bhty1uVUfFP_XbRstu5',#6,'OPS_Assignments',$,(#291));
#293=IFCRELDEFINESBYPROPERTIES('R195QpYNOnCTL3t$mXVRlH',#6,$,$,(#113),#292);
#294=IFCPROPERTYSINGLEVALUE('ZVJ7XJA$0rFhkRqFOD5HVv#0',$,IFCTEXT('2|UNIFORM'),$);
#295=IFCPROPERTYSET('uhwDJ1k9BfEvEXRnqHBFBv',#6,'OPS_Assignments',$,(#294));
#296=IFCRELDEFINESBYPROPERTIES('lfmP$PcVBf6$SjbnCZqD4r',#6,$,$,(#115),#295);
#297=IFCPROPERTYSINGLEVALUE('qLTfCbbVTVAHvDpnxri5fX#0',$,IFCTEXT('2|UNIFORM'),$);
#298=IFCPROPERTYSET('4nXhLD2Nox9bjp3F078$_3',#6,'OPS_Assignments',$,(#297));
#299=IFCRELDEFINESBYPROPERTIES('ZTe1shZ$sLFhkb4nR1tr0f',#6,$,$,(#117),#298);
#300=IFCPROPERTYSINGLEVALUE('qLTfCbbVTVAHvDpnxri5fX#0',$,IFCTEXT('2|UNIFORM'),$);
#301=IFCPROPERTYSET('ANYhPxI9RVZt5njFzj6PrP',#6,'OPS_Assignments',$,(#300));
#302=IFCRELDEFINESBYPROPERTIES('FhhHPbM1wl87o$t1pvWdnb',#6,$,$,(#119),#301);
#303=IFCPROPERTYSINGLEVALUE('xn1rXjIHl$UxvjlVJNYLUJ#0',$,IFCTEXT('3|UNIFORM'),$);
#304=IFCPROPERTYSET('ktqpP5YNWxXzdljHnfQDa9',#6,'OPS_Assignments',$,(#303));
#305=IFCRELDEFINESBYPROPERTIES('hzXzoVElT$_brvMHA$tBSb',#6,$,$,(#121),#304);
#306=IFCRELASSIGNSTOCONTROL('rDVhNjbXHjyDCF$VkTSruD',#6,$,$,(#43,#45,#47,#49,#51,#53,#55,#57,#59,#61,#63,#65,#67,#69,#71,#73,#75,#77,#79,#81,#83,#85,#87,#89,#91,#93,#95,#97,#99,#101,#103,#105,#107,#109,#111,#113,#115,#117,#119,#121,#123,#125,#127,#129,#131,#133,#135),$,#40);
#307=IFCPROPERTYSINGLEVALUE('InternalProjectId',$,IFCTEXT('proj-mtx91g74s5xh2051'),$);
#308=IFCPROPERTYSINGLEVALUE('wbsAutoNumber',$,IFCBOOLEAN(.T.),$);
#309=IFCPROPERTYSINGLEVALUE('DefaultTaskDurationUnit',$,IFCLABEL('days'),$);
#310=IFCPROPERTYSINGLEVALUE('ProjectStartDate',$,IFCDATE('2027-03-01'),$);
#311=IFCPROPERTYSINGLEVALUE('ProjectEndDate',$,$,$);
#312=IFCPROPERTYSINGLEVALUE('CreatedAt',$,IFCTEXT('2026-09-11T17:47:45.856Z'),$);
#313=IFCPROPERTYSINGLEVALUE('ModifiedAt',$,IFCTEXT('2026-09-11T17:47:45.858Z'),$);
#314=IFCPROPERTYSET('e5a3ArlP$tNZvpDF1ZK5n5',#6,'OPS_ProjectSettings',$,(#307,#308,#309,#310,#311,#312,#313));
#315=IFCRELDEFINESBYPROPERTIES('0Hdzo1sPJhdjQlBF$1BF9l',#6,$,$,(#13),#314);
#316=IFCPROPERTYSINGLEVALUE('InternalTaskId',$,IFCTEXT('task-mtx91g7cxodp2058'),$);
#317=IFCPROPERTYSET('d5ijrvYNqZsTh3FX9zdJ6b',#6,'OPS_TaskIdentity',$,(#316));
#318=IFCRELDEFINESBYPROPERTIES('W$FpVfu76HufH9mX_fQDqn',#6,$,$,(#43),#317);
#319=IFCPROPERTYSINGLEVALUE('InternalTaskId',$,IFCTEXT('task-mtx91g7dschd2059'),$);
#320=IFCPROPERTYSET('yHhHLJIlLvm1aD$XwfYLgf',#6,'OPS_TaskIdentity',$,(#319));
#321=IFCRELDEFINESBYPROPERTIES('BjhlNJbV$hHBO$lX97CbXv',#6,$,$,(#45),#320);
#322=IFCPROPERTYSINGLEVALUE('InternalTaskId',$,IFCTEXT('task-mtx91g7ehd682060'),$);
#323=IFCPROPERTYSET('Jb39_dxXjLFhAbO1070vxh',#6,'OPS_TaskIdentity',$,(#322));
#324=IFCRELDEFINESBYPROPERTIES('qtQNiNNNWbx$KV7$vb6d3r',#6,$,$,(#47),#323);
#325=IFCPROPERTYSINGLEVALUE('InternalTaskId',$,IFCTEXT('task-mtx91g7f7li22061'),$);
#326=IFCPROPERTYSET('l5PL3d5VtLR1uFzFy7qpyB',#6,'OPS_TaskIdentity',$,(#325));
#327=IFCRELDEFINESBYPROPERTIES('sf6pND$dDvjN1VzlUvunvN',#6,$,$,(#49),#326);
#328=IFCPROPERTYSINGLEVALUE('InternalTaskId',$,IFCTEXT('task-mtx91g7gph4t2062'),$);
#329=IFCPROPERTYSET('L3vBbVpnwHOdSp9$3nLV0t',#6,'OPS_TaskIdentity',$,(#328));
#330=IFCRELDEFINESBYPROPERTIES('EdsT0F31SVTtNdA$3n5Hpl',#6,$,$,(#51),#329);
#331=IFCPROPERTYSINGLEVALUE('InternalTaskId',$,IFCTEXT('task-mtx91g7henxv2063'),$);
#332=IFCPROPERTYSET('4JQJfnSlXbx1Crg1XlNLQF',#6,'OPS_TaskIdentity',$,(#331));
#333=IFCRELDEFINESBYPROPERTIES('zHXhzvVdJB5XYfKHqH5X0N',#6,$,$,(#53),#332);
#334=IFCPROPERTYSINGLEVALUE('InternalTaskId',$,IFCTEXT('task-mtx91g7iwv3v2064'),$);
#335=IFCPROPERTYSET('7hsZmPoHdv0npzzl29gN_z',#6,'OPS_TaskIdentity',$,(#334));
#336=IFCRELDEFINESBYPROPERTIES('0FpvdtrltBnh_JDH13OVWP',#6,$,$,(#55),#335);
#337=IFCPROPERTYSINGLEVALUE('InternalTaskId',$,IFCTEXT('task-mtx91g7k48ot2065'),$);
#338=IFCPROPERTYSET('ZVL$YxktDxtbbXTHexcpKD',#6,'OPS_TaskIdentity',$,(#337));
#339=IFCRELDEFINESBYPROPERTIES('g3vBFLZ$MvbVsxqn4L$5xl',#6,$,$,(#57),#338);
#340=IFCPROPERTYSINGLEVALUE('InternalTaskId',$,IFCTEXT('task-mtx91g7ljjrt2066'),$);
#341=IFCPROPERTYSET('UZ09sr1723m1qLAHWtAt0t',#6,'OPS_TaskIdentity',$,(#340));
#342=IFCRELDEFINESBYPROPERTIES('R1NRW$XdtrfTRBkXQZ3Nob',#6,$,$,(#59),#341);
#343=IFCPROPERTYSINGLEVALUE('InternalTaskId',$,IFCTEXT('task-mtx91g7mf1og2067'),$);
#344=IFCPROPERTYSET('XVblxh5ny5npi$ZFcvixDj',#6,'OPS_TaskIdentity',$,(#343));
#345=IFCRELDEFINESBYPROPERTIES('e3FDH1fNcD8vkFrlHPixLf',#6,$,$,(#61),#344);
#346=IFCPROPERTYSINGLEVALUE('InternalTaskId',$,IFCTEXT('task-mtx91g7n0phq2068'),$);
#347=IFCPROPERTYSET('9Jz9IDvtJ9XbD3bne5obrZ',#6,'OPS_TaskIdentity',$,(#346));
#348=IFCRELDEFINESBYPROPERTIES('mfWNOZV7eFaBO$P$GFRFjz',#6,$,$,(#63),#347);
#349=IFCPROPERTYSINGLEVALUE('InternalTaskId',$,IFCTEXT('task-mtx91g7ox7ok2069'),$);
#350=IFCPROPERTYSET('TZuVebkH197pChAHephXCT',#6,'OPS_TaskIdentity',$,(#349));
#351=IFCRELDEFINESBYPROPERTIES('SXL16zingvjfVlN1YhdjYn',#6,$,$,(#65),#350);
#352=IFCPROPERTYSINGLEVALUE('InternalTaskId',$,IFCTEXT('task-mtx91g7q2wl52070'),$);
#353=IFCPROPERTYSET('8JZNmdklXPX3dFlXdn$xR1',#6,'OPS_TaskIdentity',$,(#352));
#354=IFCRELDEFINESBYPROPERTIES('nhTNKhBHh7O9JJN$_N_Be3',#6,$,$,(#67),#353);
#355=IFCPROPERTYSINGLEVALUE('InternalTaskId',$,IFCTEXT('task-mtx91g7s3eqa2071'),$);
#356=IFCPROPERTYSET('1p_XalGf2zWHNbWXf9Qv5B',#6,'OPS_TaskIdentity',$,(#355));
#357=IFCRELDEFINESBYPROPERTIES('wFPzMXTln3w14fGXOb2HV7',#6,$,$,(#69),#356);
#358=IFCPROPERTYSINGLEVALUE('InternalTaskId',$,IFCTEXT('task-mtx91g7t3vt22072'),$);
#359=IFCPROPERTYSET('WVJ7v7HvGDAHhzHV5rqRDF',#6,'OPS_TaskIdentity',$,(#358));
#360=IFCRELDEFINESBYPROPERTIES('P$7rj3xFOHu7Av6HFxztez',#6,$,$,(#71),#359);
#361=IFCPROPERTYSINGLEVALUE('InternalTaskId',$,IFCTEXT('task-mtx91g7u4y3p2073'),$);
#362=IFCPROPERTYSET('3H7Z0l79j9vpyznXdLunBv',#6,'OPS_TaskIdentity',$,(#361));
#363=IFCRELDEFINESBYPROPERTIES('sp7ZCdr$WR51GxSlff_rup',#6,$,$,(#73),#362);
#364=IFCPROPERTYSINGLEVALUE('InternalTaskId',$,IFCTEXT('task-mtx91g7wy6tr2074'),$);
#365=IFCPROPERTYSET('1DA7FLz$qzIPWDrl1XVbVv',#6,'OPS_TaskIdentity',$,(#364));
#366=IFCRELDEFINESBYPROPERTIES('wnXLzdDFobz7kb4FzDQp0t',#6,$,$,(#75),#365);
#367=IFCPROPERTYSINGLEVALUE('InternalTaskId',$,IFCTEXT('task-mtx91g7xfpnp2075'),$);
#368=IFCPROPERTYSET('k9az_LCVbXhlRrYXR$lz7R',#6,'OPS_TaskIdentity',$,(#367));
#369=IFCRELDEFINESBYPROPERTIES('d5azo$_fcJiRpTXVWtstqT',#6,$,$,(#77),#368);
#370=IFCPROPERTYSINGLEVALUE('InternalTaskId',$,IFCTEXT('task-mtx91g7y4cw62076'),$);
#371=IFCPROPERTYSET('Mv4BfH09dvWHLTDFHhfTZx',#6,'OPS_TaskIdentity',$,(#370));
#372=IFCRELDEFINESBYPROPERTIES('TzyrTR2n45X3BP2XvV5llF',#6,$,$,(#79),#371);
#373=IFCPROPERTYSINGLEVALUE('InternalTaskId',$,IFCTEXT('task-mtx91g7zn3wk2077'),$);
#374=IFCPROPERTYSET('zHn5IJJn4RJfDFd$a9c7pl',#6,'OPS_TaskIdentity',$,(#373));
#375=IFCRELDEFINESBYPROPERTIES('ApF5cDw7EFdryzVVA1VDez',#6,$,$,(#81),#374);
#376=IFCPROPERTYSINGLEVALUE('InternalTaskId',$,IFCTEXT('task-mtx91g81tkm12078'),$);
#377=IFCPROPERTYSET('ypcfebcXJBzN5RaFHBT9m1',#6,'OPS_TaskIdentity',$,(#376));
#378=IFCRELDEFINESBYPROPERTIES('zFztkFCVBtUxDHzlgBCDKp',#6,$,$,(#83),#377);
#379=IFCPROPERTYSINGLEVALUE('InternalTaskId',$,IFCTEXT('task-mtx91g820nnd2079'),$);
#380=IFCPROPERTYSET('9fwD7hy1KNAl7DLHHBxVS9',#6,'OPS_TaskIdentity',$,(#379));
#381=IFCRELDEFINESBYPROPERTIES('2DoFXjs1Ovx18fCHkzOlhD',#6,$,$,(#85),#380);
#382=IFCPROPERTYSINGLEVALUE('InternalTaskId',$,IFCTEXT('task-mtx91g84kjjv2080'),$);
#383=IFCPROPERTYSET('cVTNCbxVrNIdGh2F1Zixrv',#6,'OPS_TaskIdentity',$,(#382));
#384=IFCRELDEFINESBYPROPERTIES('J5fb0H9NMb37UN4HVnr$QF',#6,$,$,(#87),#383);
#385=IFCPROPERTYSINGLEVALUE('InternalTaskId',$,IFCTEXT('task-mtx91g85vt2y2081'),$);
#386=IFCPROPERTYSET('_Fpvl5H7KJiR3xalTXXbVP',#6,'OPS_TaskIdentity',$,(#385));
#387=IFCRELDEFINESBYPROPERTIES('tJBFDJTH$rT9njJH1Xt3JV',#6,$,$,(#89),#386);
#388=IFCPROPERTYSINGLEVALUE('InternalTaskId',$,IFCTEXT('task-mtx91g87ox932082'),$);
#389=IFCPROPERTYSET('ZVj7$zy1eFyLEVTl8LWd9n',#6,'OPS_TaskIdentity',$,(#388));
#390=IFCRELDEFINESBYPROPERTIES('MzHJ3rudRL5Vwjd$lLlraf',#6,$,$,(#91),#389);
#391=IFCPROPERTYSINGLEVALUE('InternalTaskId',$,IFCTEXT('task-mtx91g88uop82083'),$);
#392=IFCPROPERTYSET('S$1Z43S$wz61ap$V6pbnhf',#6,'OPS_TaskIdentity',$,(#391));
#393=IFCRELDEFINESBYPROPERTIES('hZrXm9KVB30F99ylNJ9B8b',#6,$,$,(#93),#392);
#394=IFCPROPERTYSINGLEVALUE('InternalTaskId',$,IFCTEXT('task-mtx91g89cdpj2084'),$);
#395=IFCPROPERTYSET('1pQNmfOdBfMndnP$mn5H5L',#6,'OPS_TaskIdentity',$,(#394));
#396=IFCRELDEFINESBYPROPERTIES('6Fn5o$UNyxljELAly7qbBT',#6,$,$,(#95),#395);
#397=IFCPROPERTYSINGLEVALUE('InternalTaskId',$,IFCTEXT('task-mtx91g8b2vdr2085'),$);
#398=IFCPROPERTYSET('0HFxshhlVb51Gb81gnXRDl',#6,'OPS_TaskIdentity',$,(#397));
#399=IFCRELDEFINESBYPROPERTIES('vndzsHP9tBNT3PIXIZyTxn',#6,$,$,(#97),#398);
#400=IFCPROPERTYSINGLEVALUE('InternalTaskId',$,IFCTEXT('task-mtx91g8cf3fs2086'),$);
#401=IFCPROPERTYSET('sjp7Zxk9v3eduH71rt2ltD',#6,'OPS_TaskIdentity',$,(#400));
#402=IFCRELDEFINESBYPROPERTIES('lfOHZ9T1wFqTP3bF4hPJEx',#6,$,$,(#99),#401);
#403=IFCPROPERTYSINGLEVALUE('InternalTaskId',$,IFCTEXT('task-mtx91g8est3a2087'),$);
#404=IFCPROPERTYSET('YVpPPRQXN5vLEXhnL3vD8R',#6,'OPS_TaskIdentity',$,(#403));
#405=IFCRELDEFINESBYPROPERTIES('fzPLrZ8vYPSra7sHWNMTj3',#6,$,$,(#101),#404);
#406=IFCPROPERTYSINGLEVALUE('InternalTaskId',$,IFCTEXT('task-mtx91g8f91932088'),$);
#407=IFCPROPERTYSET('vlTfm7sd9hpPWjv$HPCbbR',#6,'OPS_TaskIdentity',$,(#406));
#408=IFCRELDEFINESBYPROPERTIES('ELTfK931itMzLNqlEFTNMf',#6,$,$,(#103),#407);
#409=IFCPROPERTYSINGLEVALUE('InternalTaskId',$,IFCTEXT('task-mtx91g8hi5mo2089'),$);
#410=IFCPROPERTYSET('6l5V4TmNo5f5$1lX7$trCl',#6,'OPS_TaskIdentity',$,(#409));
#411=IFCRELDEFINESBYPROPERTIES('DhJPLpk9xlBnFp$V_9gfQr',#6,$,$,(#105),#410);
#412=IFCPROPERTYSINGLEVALUE('InternalTaskId',$,IFCTEXT('task-mtx91g8jtd272090'),$);
#413=IFCPROPERTYSET('bXpPhJ_nCZkLcTXXa5Rntl',#6,'OPS_TaskIdentity',$,(#412));
#414=IFCRELDEFINESBYPROPERTIES('i5PhXNGfoRZPqLoFgFFhUn',#6,$,$,(#107),#413);
#415=IFCPROPERTYSINGLEVALUE('InternalTaskId',$,IFCTEXT('task-mtx91g8lcd5j2091'),$);
#416=IFCPROPERTYSET('N3dhvrW9zZwjMLwlPlDd5F',#6,'OPS_TaskIdentity',$,(#415));
#417=IFCRELDEFINESBYPROPERTIES('mP_rT5sPzTcpevcl7b6PjZ',#6,$,$,(#109),#416);
#418=IFCPROPERTYSINGLEVALUE('InternalTaskId',$,IFCTEXT('task-mtx91g8m3x9z2092'),$);
#419=IFCPROPERTYSET('5BU$cfWtdDcVMf81L7CpSt',#6,'OPS_TaskIdentity',$,(#418));
#420=IFCRELDEFINESBYPROPERTIES('_lvTy1sPVvjfvJP$97S3zd',#6,$,$,(#111),#419);
#421=IFCPROPERTYSINGLEVALUE('InternalTaskId',$,IFCTEXT('task-mtx91g8od1gj2093'),$);
#422=IFCPROPERTYSET('uDF5YRA1On4LoXhF9vCR$t',#6,'OPS_TaskIdentity',$,(#421));
#423=IFCRELDEFINESBYPROPERTIES('Frdz2vVd9LBnPF$XEl7bXd',#6,$,$,(#113),#422);
#424=IFCPROPERTYSINGLEVALUE('InternalTaskId',$,IFCTEXT('task-mtx91g8q7gh12094'),$);
#425=IFCPROPERTYSET('CfQJxldtPJILQFXVGHl3vb',#6,'OPS_TaskIdentity',$,(#424));
#426=IFCRELDEFINESBYPROPERTIES('xrMPdREHZ$sZrpv1UBxXa5',#6,$,$,(#115),#425);
#427=IFCPROPERTYSINGLEVALUE('InternalTaskId',$,IFCTEXT('task-mtx91g8ronrv2095'),$);
#428=IFCPROPERTYSET('0HHbuBOdPD_9X5e1VD2Beh',#6,'OPS_TaskIdentity',$,(#427));
#429=IFCRELDEFINESBYPROPERTIES('7nvTKtT1A9fThZZFwt_H5r',#6,$,$,(#117),#428);
#430=IFCPROPERTYSINGLEVALUE('InternalTaskId',$,IFCTEXT('task-mtx91g8tiro82096'),$);
#431=IFCPROPERTYSET('od2rBdM$kLxVMf0XPLmfUJ',#6,'OPS_TaskIdentity',$,(#430));
#432=IFCRELDEFINESBYPROPERTIES('7rEFT5AddpIdmrYXzjI$YH',#6,$,$,(#119),#431);
#433=IFCPROPERTYSINGLEVALUE('InternalTaskId',$,IFCTEXT('task-mtx91g8v6c422097'),$);
#434=IFCPROPERTYSET('ErdzgVL1Y7ePWpbl_R$Jkd',#6,'OPS_TaskIdentity',$,(#433));
#435=IFCRELDEFINESBYPROPERTIES('h74TOzz$enibZL_FZ$pP7N',#6,$,$,(#121),#434);
#436=IFCPROPERTYSINGLEVALUE('InternalTaskId',$,IFCTEXT('task-mtx91g8wsriy2098'),$);
#437=IFCPROPERTYSET('CNATiLZ16HOPevAleJl39J',#6,'OPS_TaskIdentity',$,(#436));
#438=IFCRELDEFINESBYPROPERTIES('5Bw9sHPtTp0FL9O$CZa3Zt',#6,$,$,(#123),#437);
#439=IFCPROPERTYSINGLEVALUE('InternalTaskId',$,IFCTEXT('task-mtx91g8yys432099'),$);
#440=IFCPROPERTYSET('XXxnjTXvKJaJc3hnhTzfUj',#6,'OPS_TaskIdentity',$,(#439));
#441=IFCRELDEFINESBYPROPERTIES('O3ljfHud1rTtzbWXdnFLcF',#6,$,$,(#125),#440);
#442=IFCPROPERTYSINGLEVALUE('InternalTaskId',$,IFCTEXT('task-mtx91g90bifo2100'),$);
#443=IFCPROPERTYSET('nrd3EZP9V7jf$VzlIXVRHF',#6,'OPS_TaskIdentity',$,(#442));
#444=IFCRELDEFINESBYPROPERTIES('gv4ZuptNWb37Qnt$pv07Lj',#6,$,$,(#127),#443);
#445=IFCPROPERTYSINGLEVALUE('InternalTaskId',$,IFCTEXT('task-mtx91g91mv8p2101'),$);
#446=IFCPROPERTYSET('2l7ZSHO7iJqZH90XvR_Hvx',#6,'OPS_TaskIdentity',$,(#445));
#447=IFCRELDEFINESBYPROPERTIES('9p7ZebcV5nNx$1d1m$b1A3',#6,$,$,(#129),#446);
#448=IFCPROPERTYSINGLEVALUE('InternalTaskId',$,IFCTEXT('task-mtx91g9357ri2102'),$);
#449=IFCPROPERTYSET('TZGvvPB1ipWlRLAl0dqDK$',#6,'OPS_TaskIdentity',$,(#448));
#450=IFCRELDEFINESBYPROPERTIES('SXpPB3S1olLlDH3Hgl5Ver',#6,$,$,(#131),#449);
#451=IFCPROPERTYSINGLEVALUE('InternalTaskId',$,IFCTEXT('task-mtx91g95jwie2103'),$);
#452=IFCPROPERTYSET('mf0to$Uf4xnpO$N$Drhl9D',#6,'OPS_TaskIdentity',$,(#451));
#453=IFCRELDEFINESBYPROPERTIES('fd09U5I9r9M3fd6$urCD09',#6,$,$,(#133),#452);
#454=IFCPROPERTYSINGLEVALUE('InternalTaskId',$,IFCTEXT('task-mtx91g97yr7a2104'),$);
#455=IFCPROPERTYSET('Jx95Mx$d9XLlVnxlip_rOB',#6,'OPS_TaskIdentity',$,(#454));
#456=IFCRELDEFINESBYPROPERTIES('CNYLdRolDPnpy3VVMFVbfT',#6,$,$,(#135),#455);
#457=IFCPROPERTYSINGLEVALUE('MilestoneKind',$,IFCLABEL('START'),$);
#458=IFCPROPERTYSET('WVRl1P2FGJoBmxKFkX9zV7',#6,'OPS_Milestone',$,(#457));
#459=IFCRELDEFINESBYPROPERTIES('7BQfajs$Gp29X5u$I$T9Kj',#6,$,$,(#49),#458);
#460=IFCPROPERTYSINGLEVALUE('MilestoneKind',$,IFCLABEL('FINISH'),$);
#461=IFCPROPERTYSET('7ntDXN8vI$9zdFXXKpgTfX',#6,'OPS_Milestone',$,(#460));
#462=IFCRELDEFINESBYPROPERTIES('W$txoX2n0BNZvj7$fjFZrd',#6,$,$,(#79),#461);
#463=IFCPROPERTYSINGLEVALUE('MilestoneKind',$,IFCLABEL('FINISH'),$);
#464=IFCPROPERTYSET('i7CpR5l7a$t3lZZnYrrndP',#6,'OPS_Milestone',$,(#463));
#465=IFCRELDEFINESBYPROPERTIES('JbBVOz5nCZwjYZ5lmnbnDJ',#6,$,$,(#91),#464);
#466=IFCPROPERTYSINGLEVALUE('MilestoneKind',$,IFCLABEL('FINISH'),$);
#467=IFCPROPERTYSINGLEVALUE('Mandatory',$,IFCBOOLEAN(.T.),$);
#468=IFCPROPERTYSET('UT8XGd_n4n1ZjX$VuTj75L',#6,'OPS_Milestone',$,(#466,#467));
#469=IFCRELDEFINESBYPROPERTIES('ttIlrZOvGTaJU9WVt7yZvt',#6,$,$,(#135),#468);
ENDSEC;
END-ISO-10303-21;
