ISO-10303-21;
HEADER;
FILE_DESCRIPTION(('ViewDefinition [SchedulingView]'),'2;1');
FILE_NAME('Amstelveen Municipal Sports Hall.ifc','2026-09-11T17:47:46',('Erik Smit'),('Sports Facilities Holland BV'),'Open Planner Studio 0.1','Open Planner Studio','');
FILE_SCHEMA(('IFC4X3'));
ENDSEC;
DATA;
#1=IFCPERSON($,'Erik Smit',$,$,$,$,$,$);
#2=IFCORGANIZATION($,'Sports Facilities Holland BV',$,$,$);
#3=IFCPERSONANDORGANIZATION(#1,#2,$);
#4=IFCORGANIZATION($,'OpenAEC Foundation',$,$,$);
#5=IFCAPPLICATION(#4,'0.1','Open Planner Studio','OPS');
#6=IFCOWNERHISTORY(#3,#5,$,.NOCHANGE.,$,$,$,1789148866);
#7=IFCSIUNIT(*,.LENGTHUNIT.,$,.METRE.);
#8=IFCSIUNIT(*,.TIMEUNIT.,$,.SECOND.);
#9=IFCUNITASSIGNMENT((#7,#8));
#10=IFCCARTESIANPOINT((0.,0.,0.));
#11=IFCAXIS2PLACEMENT3D(#10,$,$);
#12=IFCGEOMETRICREPRESENTATIONCONTEXT($,'Plan',3,1.0E-05,#11,$);
#13=IFCPROJECT('qfg3URs1GD_9lTRHgF1x3B',#6,'Amstelveen Municipal Sports Hall','Multifunctional sports hall with three courts and a grandstand',$,$,$,(#12),#9);
#14=IFCTIMEPERIOD('07:00:00','16:00:00');
#15=IFCRECURRENCEPATTERN(.WEEKLY.,$,(1,2,3,4,5),$,$,$,$,(#14));
#16=IFCWORKTIME('Standard work week',.PREDICTED.,$,#15,$,$);
#17=IFCWORKTIME('New Year''s Day',.PREDICTED.,$,$,'2027-01-01','2027-01-01');
#18=IFCWORKTIME('Good Friday',.PREDICTED.,$,$,'2027-03-26','2027-03-26');
#19=IFCWORKTIME('Easter',.PREDICTED.,$,$,'2027-03-28','2027-03-29');
#20=IFCWORKTIME('King''s Day',.PREDICTED.,$,$,'2027-04-27','2027-04-27');
#21=IFCWORKTIME('Liberation Day',.PREDICTED.,$,$,'2027-05-05','2027-05-05');
#22=IFCWORKTIME('Ascension Day',.PREDICTED.,$,$,'2027-05-06','2027-05-06');
#23=IFCWORKTIME('Whitsun',.PREDICTED.,$,$,'2027-05-16','2027-05-17');
#24=IFCWORKTIME('Christmas',.PREDICTED.,$,$,'2027-12-25','2027-12-26');
#25=IFCWORKTIME('Construction holiday (northern region)',.PREDICTED.,$,$,'2027-07-26','2027-08-15');
#26=IFCWORKTIME('New Year''s Day',.PREDICTED.,$,$,'2028-01-01','2028-01-01');
#27=IFCWORKTIME('Good Friday',.PREDICTED.,$,$,'2028-04-14','2028-04-14');
#28=IFCWORKTIME('Easter',.PREDICTED.,$,$,'2028-04-16','2028-04-17');
#29=IFCWORKTIME('King''s Day',.PREDICTED.,$,$,'2028-04-27','2028-04-27');
#30=IFCWORKTIME('Liberation Day',.PREDICTED.,$,$,'2028-05-05','2028-05-05');
#31=IFCWORKTIME('Ascension Day',.PREDICTED.,$,$,'2028-05-25','2028-05-25');
#32=IFCWORKTIME('Whitsun',.PREDICTED.,$,$,'2028-06-04','2028-06-05');
#33=IFCWORKTIME('Christmas',.PREDICTED.,$,$,'2028-12-25','2028-12-26');
#34=IFCWORKTIME('Construction holiday (northern region)',.PREDICTED.,$,$,'2028-07-24','2028-08-13');
#35=IFCWORKCALENDAR('_HlbW$VPl1Yxnv_nBDbFBd',#6,'Construction calendar NL','Standard construction calendar: Mon-Fri 07:00-16:00',$,(#16),(#17,#18,#19,#20,#21,#22,#23,#24,#25,#26,#27,#28,#29,#30,#31,#32,#33,#34),.FIRSTSHIFT.);
#36=IFCPROPERTYSINGLEVALUE('HoursPerDay',$,IFCREAL(8),$);
#37=IFCPROPERTYSET('qL5XmPUFgdlJ6X9$WtAtOZ',#6,'OPS_Calendar',$,(#36));
#38=IFCRELDEFINESBYPROPERTIES('bXh12hy$qvOdOP_VbbYntl',#6,$,$,(#35),#37);
#39=IFCWORKPLAN('yF9Dr3CFipWH55O1NNQDeB',#6,'Amstelveen Municipal Sports Hall','Multifunctional sports hall with three courts and a grandstand',$,$,'2026-09-11T17:47:46',$,$,$,$,$,'2027-03-01T07:00:00','2027-03-19T07:00:00',.PLANNED.);
#40=IFCWORKSCHEDULE('PVRHDFa$s993Lte1fts9qZ',#6,'Construction schedule v1.0',$,$,$,'2026-09-11T17:47:46',$,$,$,$,$,'2027-03-01T07:00:00','2027-03-19T07:00:00',.PLANNED.);
#41=IFCRELAGGREGATES('X$Ph9TPtbVDd8te$ftI1sz',#6,$,$,#39,(#40));
#42=IFCTASKTIME('1. Preparation Time',.PREDICTED.,$,.WORKTIME.,'P0Y0M5D','2027-03-01T07:00:00','2027-03-05T07:00:00','2027-03-01T07:00:00','2027-03-15T07:00:00','2027-03-01T07:00:00','2027-09-13T07:00:00','P0Y0M0D','P0Y0M0D',.T.,$,$,$,$,$,0.00);
#43=IFCTASK('$FztALjXf5HJ6$bHkX7pW7',#6,'1. Preparation',$,$,'1',$,$,$,.F.,$,#42,.CONSTRUCTION.);
#44=IFCTASKTIME('Set up site Time',.PREDICTED.,$,.WORKTIME.,'P0Y0M5D','2027-03-01T07:00:00','2027-03-05T07:00:00','2027-03-01T07:00:00','2027-03-05T07:00:00','2027-03-01T07:00:00','2027-03-05T07:00:00','P0Y0M0D','P0Y0M0D',.T.,$,$,$,$,$,0.00);
#45=IFCTASK('Qb0tgRL1MxN5lNKF2f_rCF',#6,'Set up site',$,$,'1.1',$,$,$,.F.,$,#44,.LOGISTIC.);
#46=IFCTASKTIME('Earthworks, site preparation Time',.PREDICTED.,$,.WORKTIME.,'P0Y0M5D','2027-03-01T07:00:00','2027-03-05T07:00:00','2027-03-08T07:00:00','2027-03-12T07:00:00','2027-09-06T07:00:00','2027-09-10T07:00:00','P0Y0M0D','P0Y0M109D',.F.,$,$,$,$,$,0.00);
#47=IFCTASK('IxFDB3KnkXZ91LMHsVB$Ad',#6,'Earthworks, site preparation',$,$,'1.2',$,$,$,.F.,$,#46,.CONSTRUCTION.);
#48=IFCTASKTIME('Start of construction Time',.PREDICTED.,$,.WORKTIME.,'P0Y0M0D','2027-03-01T07:00:00','2027-03-01T07:00:00','2027-03-15T07:00:00','2027-03-15T07:00:00','2027-09-13T07:00:00','2027-09-13T07:00:00','P0Y0M109D','P0Y0M109D',.F.,$,$,$,$,$,0.00);
#49=IFCTASK('RXJ7nBFdZ$M31rM$VnB$6R',#6,'Start of construction',$,$,'1.3',$,$,$,.T.,$,#48,.CONSTRUCTION.);
#50=IFCTASKTIME('2. Foundations Time',.PREDICTED.,$,.WORKTIME.,'P0Y0M5D','2027-03-01T07:00:00','2027-03-05T07:00:00','2027-03-08T07:00:00','2027-04-14T07:00:00','2027-03-08T07:00:00','2027-09-13T07:00:00','P0Y0M0D','P0Y0M0D',.T.,$,$,$,$,$,0.00);
#51=IFCTASK('i7qDJXA1WRDt$hEFkzun7f',#6,'2. Foundations',$,$,'2',$,$,$,.F.,$,#50,.CONSTRUCTION.);
#52=IFCTASKTIME('Drive piles Time',.PREDICTED.,$,.WORKTIME.,'P0Y0M10D','2027-03-01T07:00:00','2027-03-12T07:00:00','2027-03-08T07:00:00','2027-03-19T07:00:00','2027-03-08T07:00:00','2027-03-19T07:00:00','P0Y0M0D','P0Y0M0D',.T.,$,$,$,$,$,0.00);
#53=IFCTASK('wHb1MVB1yn1TF7QHvRoVer',#6,'Drive piles',$,$,'2.1',$,$,$,.F.,$,#52,.CONSTRUCTION.);
#54=IFCTASKTIME('Foundation beams Time',.PREDICTED.,$,.WORKTIME.,'P0Y0M8D','2027-03-01T07:00:00','2027-03-10T07:00:00','2027-03-22T07:00:00','2027-04-02T07:00:00','2027-08-23T07:00:00','2027-09-01T07:00:00','P0Y0M0D','P0Y0M89D',.F.,$,$,$,$,$,0.00);
#55=IFCTASK('Qb09UtxnahXRlTbH25pPhN',#6,'Foundation beams',$,$,'2.2',$,$,$,.F.,$,#54,.CONSTRUCTION.);
#56=IFCTASKTIME('Ground floor slab on piles Time',.PREDICTED.,$,.WORKTIME.,'P0Y0M8D','2027-03-01T07:00:00','2027-03-10T07:00:00','2027-04-05T07:00:00','2027-04-14T07:00:00','2027-09-02T07:00:00','2027-09-13T07:00:00','P0Y0M89D','P0Y0M89D',.F.,$,$,$,$,$,0.00);
#57=IFCTASK('orlRCvH7W5npmxSFVjc775',#6,'Ground floor slab on piles',$,$,'2.3',$,$,$,.F.,$,#56,.CONSTRUCTION.);
#58=IFCTASKTIME('3. Structure Time',.PREDICTED.,$,.WORKTIME.,'P0Y0M5D','2027-03-01T07:00:00','2027-03-05T07:00:00','2027-03-12T07:00:00','2027-05-14T07:00:00','2027-03-12T07:00:00','2027-09-13T07:00:00','P0Y0M0D','P0Y0M0D',.T.,$,$,$,$,$,0.00);
#59=IFCTASK('nrP3IpPt9rnhgroX4vyh6X',#6,'3. Structure',$,$,'3',$,$,$,.F.,$,#58,.CONSTRUCTION.);
#60=IFCTASKTIME('Structural steel trusses Time',.PREDICTED.,$,.WORKTIME.,'P0Y0M15D','2027-03-01T07:00:00','2027-03-19T07:00:00','2027-03-12T07:00:00','2027-04-05T07:00:00','2027-03-12T07:00:00','2027-04-05T07:00:00','P0Y0M0D','P0Y0M0D',.T.,$,$,$,$,$,0.00);
#61=IFCTASK('stU1o$UNqvmVsvcH3DIxtl',#6,'Structural steel trusses',$,$,'3.1',$,$,$,.F.,$,#60,.CONSTRUCTION.);
#62=IFCTASKTIME('Steel columns Time',.PREDICTED.,$,.WORKTIME.,'P0Y0M8D','2027-03-01T07:00:00','2027-03-10T07:00:00','2027-04-06T07:00:00','2027-04-15T07:00:00','2027-04-06T07:00:00','2027-04-15T07:00:00','P0Y0M0D','P0Y0M0D',.T.,$,$,$,$,$,0.00);
#63=IFCTASK('N7SLnnLldvmXARO$nR7RVd',#6,'Steel columns',$,$,'3.2',$,$,$,.F.,$,#62,.CONSTRUCTION.);
#64=IFCTASKTIME('Concrete grandstand structure Time',.PREDICTED.,$,.WORKTIME.,'P0Y0M10D','2027-03-01T07:00:00','2027-03-12T07:00:00','2027-04-16T07:00:00','2027-04-30T07:00:00','2027-04-16T07:00:00','2027-04-30T07:00:00','P0Y0M0D','P0Y0M0D',.T.,$,$,$,$,$,0.00);
#65=IFCTASK('wF1rJZ1vQpmXAP61q3OVCZ',#6,'Concrete grandstand structure',$,$,'3.3',$,$,$,.F.,$,#64,.CONSTRUCTION.);
#66=IFCTASKTIME('Install roof beams Time',.PREDICTED.,$,.WORKTIME.,'P0Y0M8D','2027-03-01T07:00:00','2027-03-10T07:00:00','2027-05-03T07:00:00','2027-05-14T07:00:00','2027-05-03T07:00:00','2027-05-14T07:00:00','P0Y0M0D','P0Y0M0D',.T.,$,$,$,$,$,0.00);
#67=IFCTASK('H5PLplmfSBhHxxu$cdeHRb',#6,'Install roof beams',$,$,'3.4',$,$,$,.F.,$,#66,.CONSTRUCTION.);
#68=IFCTASKTIME('Topping out Time',.PREDICTED.,$,.WORKTIME.,'P0Y0M0D','2027-03-01T07:00:00','2027-03-01T07:00:00','2027-05-14T07:00:00','2027-05-14T07:00:00','2027-09-13T07:00:00','2027-09-13T07:00:00','P0Y0M70D','P0Y0M70D',.F.,$,$,$,$,$,0.00);
#69=IFCTASK('GvMP5r1v_NAHVllXftstm$',#6,'Topping out',$,$,'3.5',$,$,$,.T.,$,#68,.CONSTRUCTION.);
#70=IFCTASKTIME('4. Facade & roof Time',.PREDICTED.,$,.WORKTIME.,'P0Y0M5D','2027-03-01T07:00:00','2027-03-05T07:00:00','2027-05-03T07:00:00','2027-06-14T07:00:00','2027-05-03T07:00:00','2027-09-13T07:00:00','P0Y0M0D','P0Y0M0D',.T.,$,$,$,$,$,0.00);
#71=IFCTASK('X$NRiLz$8NpP0T7$gFnL_T',#6,'4. Facade & roof',$,$,'4',$,$,$,.F.,$,#70,.CONSTRUCTION.);
#72=IFCTASKTIME('Roof deck insulation Time',.PREDICTED.,$,.WORKTIME.,'P0Y0M8D','2027-03-01T07:00:00','2027-03-10T07:00:00','2027-05-03T07:00:00','2027-05-14T07:00:00','2027-05-03T07:00:00','2027-05-14T07:00:00','P0Y0M0D','P0Y0M0D',.T.,$,$,$,$,$,0.00);
#73=IFCTASK('X3iJVjcVTJ4DKRaFXJ2H5L',#6,'Roof deck insulation',$,$,'4.1',$,$,$,.F.,$,#72,.INSTALLATION.);
#74=IFCTASKTIME('Bituminous roofing Time',.PREDICTED.,$,.WORKTIME.,'P0Y0M5D','2027-03-01T07:00:00','2027-03-05T07:00:00','2027-05-18T07:00:00','2027-05-24T07:00:00','2027-05-18T07:00:00','2027-05-24T07:00:00','P0Y0M0D','P0Y0M0D',.T.,$,$,$,$,$,0.00);
#75=IFCTASK('dRun13y1a1XbNPIVYBZ94L',#6,'Bituminous roofing',$,$,'4.2',$,$,$,.F.,$,#74,.CONSTRUCTION.);
#76=IFCTASKTIME('Facade panels Time',.PREDICTED.,$,.WORKTIME.,'P0Y0M10D','2027-03-01T07:00:00','2027-03-12T07:00:00','2027-05-25T07:00:00','2027-06-07T07:00:00','2027-05-25T07:00:00','2027-06-07T07:00:00','P0Y0M0D','P0Y0M0D',.T.,$,$,$,$,$,0.00);
#77=IFCTASK('Jf8XWVJFC7m1unxHij_H7b',#6,'Facade panels',$,$,'4.3',$,$,$,.F.,$,#76,.INSTALLATION.);
#78=IFCTASKTIME('Entrance screens Time',.PREDICTED.,$,.WORKTIME.,'P0Y0M5D','2027-03-01T07:00:00','2027-03-05T07:00:00','2027-06-08T07:00:00','2027-06-14T07:00:00','2027-06-08T07:00:00','2027-06-14T07:00:00','P0Y0M0D','P0Y0M0D',.T.,$,$,$,$,$,0.00);
#79=IFCTASK('6lLHFHP9JLvp4NWVNNEbzP',#6,'Entrance screens',$,$,'4.4',$,$,$,.F.,$,#78,.INSTALLATION.);
#80=IFCTASKTIME('Wind and weathertight Time',.PREDICTED.,$,.WORKTIME.,'P0Y0M0D','2027-03-01T07:00:00','2027-03-01T07:00:00','2027-06-14T07:00:00','2027-06-14T07:00:00','2027-09-13T07:00:00','2027-09-13T07:00:00','P0Y0M50D','P0Y0M50D',.F.,$,$,$,$,$,0.00);
#81=IFCTASK('l5t5Qjg1srj7Y90XXltrSt',#6,'Wind and weathertight',$,$,'4.5',$,$,$,.T.,$,#80,.CONSTRUCTION.);
#82=IFCTASKTIME('5. Sports floor & services Time',.PREDICTED.,$,.WORKTIME.,'P0Y0M5D','2027-03-01T07:00:00','2027-03-05T07:00:00','2027-06-15T07:00:00','2027-08-24T07:00:00','2027-06-15T07:00:00','2027-09-13T07:00:00','P0Y0M0D','P0Y0M0D',.T.,$,$,$,$,$,0.00);
#83=IFCTASK('php7Jz5n8VcVkHv$7R2Hb5',#6,'5. Sports floor & services',$,$,'5',$,$,$,.F.,$,#82,.CONSTRUCTION.);
#84=IFCTASKTIME('Sports floor sub-base Time',.PREDICTED.,$,.WORKTIME.,'P0Y0M10D','2027-03-01T07:00:00','2027-03-12T07:00:00','2027-06-15T07:00:00','2027-06-28T07:00:00','2027-06-15T07:00:00','2027-06-28T07:00:00','P0Y0M0D','P0Y0M0D',.T.,$,$,$,$,$,0.00);
#85=IFCTASK('AfYLtZ9fgRz72vwHFbXDiJ',#6,'Sports floor sub-base',$,$,'5.1',$,$,$,.F.,$,#84,.CONSTRUCTION.);
#86=IFCTASKTIME('Sports floor top layer Time',.PREDICTED.,$,.WORKTIME.,'P0Y0M8D','2027-03-01T07:00:00','2027-03-10T07:00:00','2027-06-29T07:00:00','2027-07-08T07:00:00','2027-07-19T07:00:00','2027-08-18T07:00:00','P0Y0M0D','P0Y0M14D',.F.,$,$,$,$,$,0.00);
#87=IFCTASK('B9U$6PA$qdyDibqlMB4ZnR',#6,'Sports floor top layer',$,$,'5.2',$,$,$,.F.,$,#86,.INSTALLATION.);
#88=IFCTASKTIME('Sports lighting Time',.PREDICTED.,$,.WORKTIME.,'P0Y0M5D','2027-03-01T07:00:00','2027-03-05T07:00:00','2027-07-09T07:00:00','2027-07-15T07:00:00','2027-08-19T07:00:00','2027-08-25T07:00:00','P0Y0M0D','P0Y0M14D',.F.,$,$,$,$,$,0.00);
#89=IFCTASK('VZO1wd6VzH87U9mXA$nZxH',#6,'Sports lighting',$,$,'5.3',$,$,$,.F.,$,#88,.INSTALLATION.);
#90=IFCTASKTIME('HVAC installation Time',.PREDICTED.,$,.WORKTIME.,'P0Y0M10D','2027-03-01T07:00:00','2027-03-12T07:00:00','2027-07-16T07:00:00','2027-08-19T07:00:00','2027-08-26T07:00:00','2027-09-08T07:00:00','P0Y0M0D','P0Y0M14D',.F.,$,$,$,$,$,0.00);
#91=IFCTASK('6rIHhpwv_tkLQZ7125r$of',#6,'HVAC installation',$,$,'5.4',$,$,$,.F.,$,#90,.INSTALLATION.);
#92=IFCTASKTIME('Scoreboards and AV Time',.PREDICTED.,$,.WORKTIME.,'P0Y0M3D','2027-03-01T07:00:00','2027-03-03T07:00:00','2027-08-20T07:00:00','2027-08-24T07:00:00','2027-09-09T07:00:00','2027-09-13T07:00:00','P0Y0M14D','P0Y0M14D',.F.,$,$,$,$,$,0.00);
#93=IFCTASK('Nvq5sFT1UP4LQnt$VjcvPh',#6,'Scoreboards and AV',$,$,'5.5',$,$,$,.F.,$,#92,.INSTALLATION.);
#94=IFCTASKTIME('6. Fit-out Time',.PREDICTED.,$,.WORKTIME.,'P0Y0M5D','2027-03-01T07:00:00','2027-03-05T07:00:00','2027-07-09T07:00:00','2027-08-27T07:00:00','2027-07-09T07:00:00','2027-08-27T07:00:00','P0Y0M0D','P0Y0M0D',.T.,$,$,$,$,$,0.00);
#95=IFCTASK('PVL$wZ8dPvG10T1VopcD8x',#6,'6. Fit-out',$,$,'6',$,$,$,.F.,$,#94,.CONSTRUCTION.);
#96=IFCTASKTIME('Changing room fit-out Time',.PREDICTED.,$,.WORKTIME.,'P0Y0M8D','2027-03-01T07:00:00','2027-03-10T07:00:00','2027-07-09T07:00:00','2027-07-20T07:00:00','2027-07-09T07:00:00','2027-07-20T07:00:00','P0Y0M0D','P0Y0M0D',.T.,$,$,$,$,$,0.00);
#97=IFCTASK('dRGvxFxnOnCZtBM$FN_riD',#6,'Changing room fit-out',$,$,'6.1',$,$,$,.F.,$,#96,.CONSTRUCTION.);
#98=IFCTASKTIME('Sanitary fittings and showers Time',.PREDICTED.,$,.WORKTIME.,'P0Y0M5D','2027-03-01T07:00:00','2027-03-05T07:00:00','2027-07-21T07:00:00','2027-08-17T07:00:00','2027-07-21T07:00:00','2027-08-17T07:00:00','P0Y0M0D','P0Y0M0D',.T.,$,$,$,$,$,0.00);
#99=IFCTASK('vhEbmf09t$$xRhslCTi5RX',#6,'Sanitary fittings and showers',$,$,'6.2',$,$,$,.F.,$,#98,.INSTALLATION.);
#100=IFCTASKTIME('Entrance hall finishes Time',.PREDICTED.,$,.WORKTIME.,'P0Y0M5D','2027-03-01T07:00:00','2027-03-05T07:00:00','2027-08-18T07:00:00','2027-08-24T07:00:00','2027-08-18T07:00:00','2027-08-24T07:00:00','P0Y0M0D','P0Y0M0D',.T.,$,$,$,$,$,0.00);
#101=IFCTASK('l5t5AlX7KNw1Cnd$CZi5R$',#6,'Entrance hall finishes',$,$,'6.3',$,$,$,.F.,$,#100,.CONSTRUCTION.);
#102=IFCTASKTIME('Sports pitch line marking Time',.PREDICTED.,$,.WORKTIME.,'P0Y0M3D','2027-03-01T07:00:00','2027-03-03T07:00:00','2027-08-25T07:00:00','2027-08-27T07:00:00','2027-08-25T07:00:00','2027-08-27T07:00:00','P0Y0M0D','P0Y0M0D',.T.,$,$,$,$,$,0.00);
#103=IFCTASK('spP3o3RnYdq5TfmVc7iJUp',#6,'Sports pitch line marking',$,$,'6.4',$,$,$,.F.,$,#102,.INSTALLATION.);
#104=IFCTASKTIME('7. Handover Time',.PREDICTED.,$,.WORKTIME.,'P0Y0M5D','2027-03-01T07:00:00','2027-03-05T07:00:00','2027-08-30T07:00:00','2027-09-13T07:00:00','2027-08-30T07:00:00','2027-09-13T07:00:00','P0Y0M0D','P0Y0M0D',.T.,$,$,$,$,$,0.00);
#105=IFCTASK('LdG7nhRnAf5V27YnL7qpW7',#6,'7. Handover',$,$,'7',$,$,$,.F.,$,#104,.CONSTRUCTION.);
#106=IFCTASKTIME('External areas and parking Time',.PREDICTED.,$,.WORKTIME.,'P0Y0M8D','2027-03-01T07:00:00','2027-03-10T07:00:00','2027-08-30T07:00:00','2027-09-08T07:00:00','2027-08-30T07:00:00','2027-09-08T07:00:00','P0Y0M0D','P0Y0M0D',.T.,$,$,$,$,$,0.00);
#107=IFCTASK('GPERyX6XPvufvjP$v1$j23',#6,'External areas and parking',$,$,'7.1',$,$,$,.F.,$,#106,.CONSTRUCTION.);
#108=IFCTASKTIME('Test building services Time',.PREDICTED.,$,.WORKTIME.,'P0Y0M3D','2027-03-01T07:00:00','2027-03-03T07:00:00','2027-09-09T07:00:00','2027-09-13T07:00:00','2027-09-09T07:00:00','2027-09-13T07:00:00','P0Y0M0D','P0Y0M0D',.T.,$,$,$,$,$,0.00);
#109=IFCTASK('qfwDTN$7UdSJInLH3Hvbrz',#6,'Test building services',$,$,'7.2',$,$,$,.F.,$,#108,.ATTENDANCE.);
#110=IFCTASKTIME('Handover Time',.PREDICTED.,$,.WORKTIME.,'P0Y0M0D','2027-03-01T07:00:00','2027-03-01T07:00:00','2027-09-13T07:00:00','2027-09-13T07:00:00','2027-09-13T07:00:00','2027-09-13T07:00:00','P0Y0M0D','P0Y0M0D',.T.,$,$,$,$,$,0.00);
#111=IFCTASK('8JjPzPL1_NgnzxyltZLHHF',#6,'Handover',$,$,'7.3',$,$,$,.T.,$,#110,.CONSTRUCTION.);
#112=IFCRELNESTS('whER8Jr$e7x$iVv1xlR1QH',#6,'WBS 1. Preparation',$,#43,( #45,#47,#49));
#113=IFCRELNESTS('Dhb$6vUfutfTXnrHtTR$cB',#6,'WBS 2. Foundations',$,#51,( #53,#55,#57));
#114=IFCRELNESTS('8JjdfJpnQX2t5FLHZXfZrv',#6,'WBS 3. Structure',$,#59,( #61,#63,#65,#67,#69));
#115=IFCRELNESTS('cxahXN8P5Rpt1LYnB9_lRb',#6,'WBS 4. Facade & roof',$,#71,( #73,#75,#77,#79,#81));
#116=IFCRELNESTS('wn9p93jV3z29b1nX1$pd5F',#6,'WBS 5. Sports floor & services',$,#83,( #85,#87,#89,#91,#93));
#117=IFCRELNESTS('WVRlpF41aXhl1VTHaNULAT',#6,'WBS 6. Fit-out',$,#95,( #97,#99,#101,#103));
#118=IFCRELNESTS('ErNJrP2FOd7Lo$1VgBCpmn',#6,'WBS 7. Handover',$,#105,( #107,#109,#111));
#119=IFCRELNESTS('tjjP5r1vgdnD4TBHzDgTrv',#6,'WBS Hoofd',$,#40,(#43,#51,#59,#71,#83,#95,#105));
#120=IFCRELSEQUENCE('cxCDBZmN2fsHLZrHNJH3ZN',#6,$,$,#45,#47,$,.FINISH_START.,$);
#121=IFCRELSEQUENCE('ivKjFhLHNnXzDzBnntgfId',#6,$,$,#47,#49,$,.FINISH_START.,$);
#122=IFCRELSEQUENCE('hZJv5FrHBtILYTDFjf6jIB',#6,$,$,#53,#55,$,.FINISH_START.,$);
#123=IFCRELSEQUENCE('8Dd3Qpw7YPib7X91SN2Bat',#6,$,$,#55,#57,$,.FINISH_START.,$);
#124=IFCRELSEQUENCE('upVL3PbXflLlVl$XGXvDWd',#6,$,$,#61,#63,$,.FINISH_START.,$);
#125=IFCRELSEQUENCE('EBvTSn4189XbbX3H_9I1s3',#6,$,$,#63,#65,$,.FINISH_START.,$);
#126=IFCRELSEQUENCE('CfERObUnk$15$$v1sVpdBv',#6,$,$,#65,#67,$,.FINISH_START.,$);
#127=IFCRELSEQUENCE('2jMz_hCXB9Er8l71$1b$s7',#6,$,$,#67,#69,$,.FINISH_START.,$);
#128=IFCRELSEQUENCE('JN092rGfMx7hs72nlrxVez',#6,$,$,#73,#75,$,.FINISH_START.,$);
#129=IFCRELSEQUENCE('R1$TW$$dBzG1Sv2ntPWPNV',#6,$,$,#75,#77,$,.FINISH_START.,$);
#130=IFCRELSEQUENCE('$pU1sFbnkL3NVl1VS5LXC3',#6,$,$,#77,#79,$,.FINISH_START.,$);
#131=IFCRELSEQUENCE('eRG7t$w7_3ePCn7$cTR121',#6,$,$,#79,#81,$,.FINISH_START.,$);
#132=IFCRELSEQUENCE('qfIxIjDnoxdB03LnJ9UFZb',#6,$,$,#85,#87,$,.FINISH_START.,$);
#133=IFCRELSEQUENCE('lxvrzLqXVPHJYfKFMFnLQh',#6,$,$,#87,#89,$,.FINISH_START.,$);
#134=IFCRELSEQUENCE('4nvZ4T0tn3cX61TFMlDPpJ',#6,$,$,#89,#91,$,.FINISH_START.,$);
#135=IFCRELSEQUENCE('cx4BJT9Nox$T3PoVK11jUj',#6,$,$,#91,#93,$,.FINISH_START.,$);
#136=IFCRELSEQUENCE('mPYhNjzlZjiR$rYVbXDdxl',#6,$,$,#97,#99,$,.FINISH_START.,$);
#137=IFCRELSEQUENCE('XXJ7Vjs$Kji3D3Bnprb$ot',#6,$,$,#99,#101,$,.FINISH_START.,$);
#138=IFCRELSEQUENCE('4nPz6ziV557hEBA17VDdDp',#6,$,$,#101,#103,$,.FINISH_START.,$);
#139=IFCRELSEQUENCE('$JUh3Pzl1NJv_Pw$W9c71N',#6,$,$,#107,#109,$,.FINISH_START.,$);
#140=IFCRELSEQUENCE('zFR1IluvYPqxtrg$Dr3fIv',#6,$,$,#109,#111,$,.FINISH_START.,$);
#141=IFCLAGTIME('Lag',.PREDICTED.,$,IFCDURATION('P5D'),.WORKTIME.);
#142=IFCRELSEQUENCE('3pU1wvkt9BHraJZl0Pi5zh',#6,$,$,#45,#53,#141,.START_START.,$);
#143=IFCLAGTIME('Lag',.PREDICTED.,$,IFCRATIOMEASURE(0.4),.WORKTIME.);
#144=IFCRELSEQUENCE('TzKRujbXhp_9$L_nVpcD8J',#6,$,$,#53,#61,#143,.START_START.,$);
#145=IFCLAGTIME('Lag',.PREDICTED.,$,IFCDURATION('-P8D'),.WORKTIME.);
#146=IFCRELSEQUENCE('EB7Tqx7tt1$5$XjH$1Tteh',#6,$,$,#67,#73,#145,.FINISH_START.,$);
#147=IFCLAGTIME('Lag',.PREDICTED.,$,IFCDURATION('P2D'),.WORKTIME.);
#148=IFCRELSEQUENCE('aZWNCxtNOnqxZtiHm$5Xip',#6,$,$,#67,#79,#147,.FINISH_FINISH.,$);
#149=IFCRELSEQUENCE('xlp7lxnvI19zNdIX2xZf_1',#6,$,$,#79,#85,$,.FINISH_START.,$);
#150=IFCLAGTIME('Lag',.PREDICTED.,$,IFCDURATION('P18D'),.WORKTIME.);
#151=IFCRELSEQUENCE('jtazsL5FWxdrmxSFBDhVy7',#6,$,$,#85,#97,#150,.START_START.,$);
#152=IFCRELSEQUENCE('n7cN0H17EbRXMLIFuz7DOZ',#6,$,$,#103,#107,$,.FINISH_START.,$);
#153=IFCRELASSIGNSTOCONTROL('rDVhNjbXHjyDCF$VkTSruD',#6,$,$,(#43,#45,#47,#49,#51,#53,#55,#57,#59,#61,#63,#65,#67,#69,#71,#73,#75,#77,#79,#81,#83,#85,#87,#89,#91,#93,#95,#97,#99,#101,#103,#105,#107,#109,#111),$,#40);
#154=IFCPROPERTYSINGLEVALUE('InternalProjectId',$,IFCTEXT('proj-mtx91gdm24da2165'),$);
#155=IFCPROPERTYSINGLEVALUE('wbsAutoNumber',$,IFCBOOLEAN(.T.),$);
#156=IFCPROPERTYSINGLEVALUE('DefaultTaskDurationUnit',$,IFCLABEL('days'),$);
#157=IFCPROPERTYSINGLEVALUE('ProjectStartDate',$,IFCDATE('2027-03-01'),$);
#158=IFCPROPERTYSINGLEVALUE('ProjectEndDate',$,$,$);
#159=IFCPROPERTYSINGLEVALUE('CreatedAt',$,IFCTEXT('2026-09-11T17:47:46.090Z'),$);
#160=IFCPROPERTYSINGLEVALUE('ModifiedAt',$,IFCTEXT('2026-09-11T17:47:46.091Z'),$);
#161=IFCPROPERTYSET('e5a3ArlP$tNZvpDF1ZK5n5',#6,'OPS_ProjectSettings',$,(#154,#155,#156,#157,#158,#159,#160));
#162=IFCRELDEFINESBYPROPERTIES('0Hdzo1sPJhdjQlBF$1BF9l',#6,$,$,(#13),#161);
#163=IFCPROPERTYSINGLEVALUE('InternalTaskId',$,IFCTEXT('task-mtx91gdoeqej2166'),$);
#164=IFCPROPERTYSET('a$FpfJzll16Jk5e$5heHV7',#6,'OPS_TaskIdentity',$,(#163));
#165=IFCRELDEFINESBYPROPERTIES('hZRlhJwXZ1kLYZ3nyhHrW7',#6,$,$,(#43),#164);
#166=IFCPROPERTYSINGLEVALUE('InternalTaskId',$,IFCTEXT('task-mtx91gdp51gs2167'),$);
#167=IFCPROPERTYSET('zjg3_7NNEn7h61xHi1vR5B',#6,'OPS_TaskIdentity',$,(#166));
#168=IFCRELDEFINESBYPROPERTIES('ylTfWVTHHpmXUZTnYPyTpJ',#6,$,$,(#45),#167);
#169=IFCPROPERTYSINGLEVALUE('InternalTaskId',$,IFCTEXT('task-mtx91gdqv53n2168'),$);
#170=IFCPROPERTYSET('ltyBlRh$cX61CF9$FxpPhf',#6,'OPS_TaskIdentity',$,(#169));
#171=IFCRELDEFINESBYPROPERTIES('O5yr3BevWbBn5lN$ULNZxl',#6,$,$,(#47),#170);
#172=IFCPROPERTYSINGLEVALUE('InternalTaskId',$,IFCTEXT('task-mtx91gdrfw3q2169'),$);
#173=IFCPROPERTYSET('8pdzcDot$BZ9l3f16NMTxl',#6,'OPS_TaskIdentity',$,(#172));
#174=IFCRELDEFINESBYPROPERTIES('Fr1rh9aHbBXRXx0XbXztGl',#6,$,$,(#49),#173);
#175=IFCPROPERTYSINGLEVALUE('InternalTaskId',$,IFCTEXT('task-mtx91gdsszvv2170'),$);
#176=IFCPROPERTYSET('ttkHzvPt738NJ1LHJ9gfYD',#6,'OPS_TaskIdentity',$,(#175));
#177=IFCRELDEFINESBYPROPERTIES('2jI5sF31KfcVs7QH$$5Vux',#6,$,$,(#51),#176);
#178=IFCPROPERTYSINGLEVALUE('InternalTaskId',$,IFCTEXT('task-mtx91gdut9h92171'),$);
#179=IFCPROPERTYSET('fTh1EzpVrZaB03THG$pPhN',#6,'OPS_TaskIdentity',$,(#178));
#180=IFCRELDEFINESBYPROPERTIES('m72V8JpFY7edqnd1S5hV09',#6,$,$,(#53),#179);
#181=IFCPROPERTYSINGLEVALUE('InternalTaskId',$,IFCTEXT('task-mtx91gdv7vyb2172'),$);
#182=IFCPROPERTYSET('3JMzALxn0BXRtf0X11b1Un',#6,'OPS_TaskIdentity',$,(#181));
#183=IFCRELDEFINESBYPROPERTIES('ylZfO5otPvet$rYXRV5HXd',#6,$,$,(#55),#182);
#184=IFCPROPERTYSINGLEVALUE('InternalTaskId',$,IFCTEXT('task-mtx91gdwmse92173'),$);
#185=IFCPROPERTYSET('FvIl9zhHhDE7UTpF7Xz9GV',#6,'OPS_TaskIdentity',$,(#184));
#186=IFCRELDEFINESBYPROPERTIES('uhwpr3KF2TCTj1ZnMraBCl',#6,$,$,(#57),#185);
#187=IFCPROPERTYSINGLEVALUE('InternalTaskId',$,IFCTEXT('task-mtx91gdydexo2174'),$);
#188=IFCPROPERTYSET('odQJVJ6XfHDtTLEF25LXSb',#6,'OPS_TaskIdentity',$,(#187));
#189=IFCRELDEFINESBYPROPERTIES('vBQf0FRFMPvhYfaFj9gfYF',#6,$,$,(#59),#188);
#190=IFCPROPERTYSINGLEVALUE('InternalTaskId',$,IFCTEXT('task-mtx91gdz24832175'),$);
#191=IFCPROPERTYSET('PxC5wzS1oFvLAbe$W9wdf$',#6,'OPS_TaskIdentity',$,(#190));
#192=IFCRELDEFINESBYPROPERTIES('W1fRezJXZJqTPZf$vREVGl',#6,$,$,(#61),#191);
#193=IFCPROPERTYSINGLEVALUE('InternalTaskId',$,IFCTEXT('task-mtx91ge06x392176'),$);
#194=IFCPROPERTYSET('6hI5AFrHTJibJp5HuzvDWd',#6,'OPS_TaskIdentity',$,(#193));
#195=IFCRELDEFINESBYPROPERTIES('1HdzEzT123WH5x0XL7yTBv',#6,$,$,(#63),#194);
#196=IFCPROPERTYSINGLEVALUE('InternalTaskId',$,IFCTEXT('task-mtx91ge1tft72177'),$);
#197=IFCPROPERTYSET('fzVzg$F7I1Xb1LsHi1tBCF',#6,'OPS_TaskIdentity',$,(#196));
#198=IFCRELDEFINESBYPROPERTIES('GdsT0l7tfnXzNvsleDz9Gl',#6,$,$,(#65),#197);
#199=IFCPROPERTYSINGLEVALUE('InternalTaskId',$,IFCTEXT('task-mtx91ge29soq2178'),$);
#200=IFCPROPERTYSET('kfO$6TePfRp95H9$ejNhQH',#6,'OPS_TaskIdentity',$,(#199));
#201=IFCRELDEFINESBYPROPERTIES('PRmvr7APrfE7YZhlzHvbfZ',#6,$,$,(#67),#200);
#202=IFCPROPERTYSINGLEVALUE('InternalTaskId',$,IFCTEXT('task-mtx91ge3w9z32179'),$);
#203=IFCPROPERTYSET('J9ahpHevKpmVcT919Pu$Mp',#6,'OPS_TaskIdentity',$,(#202));
#204=IFCRELDEFINESBYPROPERTIES('Q5SLPbs1SLVbtN81kTqRXd',#6,$,$,(#69),#203);
#205=IFCPROPERTYSINGLEVALUE('InternalTaskId',$,IFCTEXT('task-mtx91ge52vfv2180'),$);
#206=IFCPROPERTYSET('yHZfyTW9z361CBQ1w9MNUJ',#6,'OPS_TaskIdentity',$,(#205));
#207=IFCRELDEFINESBYPROPERTIES('rJTN0nxFW57LIxO1qFXRLD',#6,$,$,(#71),#206);
#208=IFCPROPERTYSINGLEVALUE('InternalTaskId',$,IFCTEXT('task-mtx91ge6bsba2181'),$);
#209=IFCPROPERTYSET('2HXhNjpFIrdJkxO$WfYhUF',#6,'OPS_TaskIdentity',$,(#208));
#210=IFCRELDEFINESBYPROPERTIES('9DVh5r$vg7ptzbO$zF39eh',#6,$,$,(#73),#209);
#211=IFCPROPERTYSINGLEVALUE('InternalTaskId',$,IFCTEXT('task-mtx91ge74c1j2182'),$);
#212=IFCPROPERTYSET('4psvXDYfCdizlZLHZVPj2X',#6,'OPS_TaskIdentity',$,(#211));
#213=IFCRELDEFINESBYPROPERTIES('3FjdbRzllV61evknK1vbhJ',#6,$,$,(#75),#212);
#214=IFCPROPERTYSINGLEVALUE('InternalTaskId',$,IFCTEXT('task-mtx91ge81q552183'),$);
#215=IFCPROPERTYSET('At_V0FRFcjyDufqniXTNo9',#6,'OPS_TaskIdentity',$,(#214));
#216=IFCRELDEFINESBYPROPERTIES('3JULNpVd1NhH$$XVqHhHdh',#6,$,$,(#77),#215);
#217=IFCPROPERTYSINGLEVALUE('InternalTaskId',$,IFCTEXT('task-mtx91gecpmku2184'),$);
#218=IFCPROPERTYSET('NTblNpHvS1HB49ylXnDPxF',#6,'OPS_TaskIdentity',$,(#217));
#219=IFCRELDEFINESBYPROPERTIES('GvonFBlPlXgFVxGXKXRn$j',#6,$,$,(#79),#218);
#220=IFCPROPERTYSINGLEVALUE('InternalTaskId',$,IFCTEXT('task-mtx91geenl4c2185'),$);
#221=IFCPROPERTYSET('kN8FpDl7qPSBmb0V7x_ByP',#6,'OPS_TaskIdentity',$,(#220));
#222=IFCRELDEFINESBYPROPERTIES('PbWN4Xg1YdSBCLkFqZixjT',#6,$,$,(#81),#221);
#223=IFCPROPERTYSINGLEVALUE('InternalTaskId',$,IFCTEXT('task-mtx91geglhj62186'),$);
#224=IFCPROPERTYSET('G7_XCxH7OHWlT9yHtZDPnb',#6,'OPS_TaskIdentity',$,(#223));
#225=IFCRELDEFINESBYPROPERTIES('tNYLrzaln3YN7DblkV7p4L',#6,$,$,(#83),#224);
#226=IFCPROPERTYSINGLEVALUE('InternalTaskId',$,IFCTEXT('task-mtx91gei8ufw2187'),$);
#227=IFCPROPERTYSET('PRuX4$_f6329njzl2ts9GX',#6,'OPS_TaskIdentity',$,(#226));
#228=IFCRELDEFINESBYPROPERTIES('WVL$AlXvW5vh27MlITyhAz',#6,$,$,(#85),#227);
#229=IFCPROPERTYSINGLEVALUE('InternalTaskId',$,IFCTEXT('task-mtx91gekacya2188'),$);
#230=IFCPROPERTYSET('ebO1wPA$CPqZ5581opsz5B',#6,'OPS_TaskIdentity',$,(#229));
#231=IFCRELDEFINESBYPROPERTIES('VTO$sh5FyRrnVbynb$VDyP',#6,$,$,(#87),#230);
#232=IFCPROPERTYSINGLEVALUE('InternalTaskId',$,IFCTEXT('task-mtx91gel8osn2189'),$);
#233=IFCPROPERTYSET('_nZfmfOveH8frjJlFtcvV7',#6,'OPS_TaskIdentity',$,(#232));
#234=IFCRELDEFINESBYPROPERTIES('tj5V4Z8dhJ_R994nt37DKX',#6,$,$,(#89),#233);
#235=IFCPROPERTYSINGLEVALUE('InternalTaskId',$,IFCTEXT('task-mtx91gen4er62190'),$);
#236=IFCPROPERTYSET('T3SLTffNWRp9lZRlgL8F$p',#6,'OPS_TaskIdentity',$,(#235));
#237=IFCRELDEFINESBYPROPERTIES('a$7B$3inABDP43v$BfQDyd',#6,$,$,(#91),#236);
#238=IFCPROPERTYSINGLEVALUE('InternalTaskId',$,IFCTEXT('task-mtx91geous9k2191'),$);
#239=IFCPROPERTYSET('6h2BxlX7ylrnzR0VjxhVSf',#6,'OPS_TaskIdentity',$,(#238));
#240=IFCRELDEFINESBYPROPERTIES('$lfJBvMdbrfTfxCnWt6d5n',#6,$,$,(#93),#239);
#241=IFCPROPERTYSINGLEVALUE('InternalTaskId',$,IFCTEXT('task-mtx91gep9oo72192'),$);
#242=IFCPROPERTYSET('spP3Mb5VBtwJwXXXIX9zR5',#6,'OPS_TaskIdentity',$,(#241));
#243=IFCRELDEFINESBYPROPERTIES('H94T4VcV33IPutmVw9wPF5',#6,$,$,(#95),#242);
#244=IFCPROPERTYSINGLEVALUE('InternalTaskId',$,IFCTEXT('task-mtx91ger49mu2193'),$);
#245=IFCPROPERTYSET('4pY$gVbXPPSBa7UFrNkxbV',#6,'OPS_TaskIdentity',$,(#244));
#246=IFCRELDEFINESBYPROPERTIES('3F5VajcVpbz7sRu$fjNhs3',#6,$,$,(#97),#245);
#247=IFCPROPERTYSINGLEVALUE('InternalTaskId',$,IFCTEXT('task-mtx91gesc2ws2194'),$);
#248=IFCPROPERTYSET('a3CxcfmN_Z4DunrldrSBCH',#6,'OPS_TaskIdentity',$,(#247));
#249=IFCRELDEFINESBYPROPERTIES('TVZNKrFPB38v6j1Xa5zt4B',#6,$,$,(#99),#248);
#250=IFCPROPERTYSINGLEVALUE('InternalTaskId',$,IFCTEXT('task-mtx91getcioh2195'),$);
#251=IFCPROPERTYSET('kN8F9$6vU7Wlj$hHxhG9qZ',#6,'OPS_TaskIdentity',$,(#250));
#252=IFCRELDEFINESBYPROPERTIES('PbWNeTV7OHWljV71F96PTb',#6,$,$,(#101),#251);
#253=IFCPROPERTYSINGLEVALUE('InternalTaskId',$,IFCTEXT('task-mtx91gev47e92196'),$);
#254=IFCPROPERTYSET('j59xsHFPzHWH3dQ1_xRFR$',#6,'OPS_TaskIdentity',$,(#253));
#255=IFCRELDEFINESBYPROPERTIES('qfUL5hxF0L5VsbO1WfUL6$',#6,$,$,(#103),#254);
#256=IFCPROPERTYSINGLEVALUE('InternalTaskId',$,IFCTEXT('task-mtx91gewyx012197'),$);
#257=IFCPROPERTYSET('uBY1gRxV$NzNrDN$DLdj65',#6,'OPS_TaskIdentity',$,(#256));
#258=IFCRELDEFINESBYPROPERTIES('1J_BhN09ljCTdZ9$hZT9CT',#6,$,$,(#105),#257);
#259=IFCPROPERTYSINGLEVALUE('InternalTaskId',$,IFCTEXT('task-mtx91geyd2j42198'),$);
#260=IFCPROPERTYSET('jNWNKrndDdvLUzXXkzmtO3',#6,'OPS_TaskIdentity',$,(#259));
#261=IFCRELDEFINESBYPROPERTIES('QbWNujpnYv0FdlJl1VFhg9',#6,$,$,(#107),#260);
#262=IFCPROPERTYSINGLEVALUE('InternalTaskId',$,IFCTEXT('task-mtx91gez1jjk2199'),$);
#263=IFCPROPERTYSET('NPO$wZGf8$cDav_FRRgf_V',#6,'OPS_TaskIdentity',$,(#262));
#264=IFCRELDEFINESBYPROPERTIES('YZO1YRoHFZ_RB7Ali17RXd',#6,$,$,(#109),#263);
#265=IFCPROPERTYSINGLEVALUE('InternalTaskId',$,IFCTEXT('task-mtx91gf0qk972200'),$);
#266=IFCPROPERTYSET('LZBXmvI9HVAH11FXb$PxNX',#6,'OPS_TaskIdentity',$,(#265));
#267=IFCRELDEFINESBYPROPERTIES('E7s7htCnWR51yfO1v1$jER',#6,$,$,(#111),#266);
#268=IFCPROPERTYSINGLEVALUE('MilestoneKind',$,IFCLABEL('START'),$);
#269=IFCPROPERTYSET('7rgPT9JVHVsHZ9qFuTjv19',#6,'OPS_Milestone',$,(#268));
#270=IFCRELDEFINESBYPROPERTIES('ktq5sLjXrNYNTNmXOJnZvN',#6,$,$,(#49),#269);
#271=IFCPROPERTYSINGLEVALUE('MilestoneKind',$,IFCLABEL('FINISH'),$);
#272=IFCPROPERTYSET('yn$BxFZ1YvuvYfClEl7RZt',#6,'OPS_Milestone',$,(#271));
#273=IFCRELDEFINESBYPROPERTIES('ZzCx_PTHhDo7YT5lmnJ7Dl',#6,$,$,(#69),#272);
#274=IFCPROPERTYSINGLEVALUE('MilestoneKind',$,IFCLABEL('FINISH'),$);
#275=IFCPROPERTYSET('3n39E3RFwlm143v1t393$f',#6,'OPS_Milestone',$,(#274));
#276=IFCRELDEFINESBYPROPERTIES('STGPpl09BZi3t9SHJ9c7lH',#6,$,$,(#81),#275);
#277=IFCPROPERTYSINGLEVALUE('MilestoneKind',$,IFCLABEL('FINISH'),$);
#278=IFCPROPERTYSINGLEVALUE('Mandatory',$,IFCBOOLEAN(.T.),$);
#279=IFCPROPERTYSET('azyB$3SH55$Zxxu$MFlrSb',#6,'OPS_Milestone',$,(#277,#278));
#280=IFCRELDEFINESBYPROPERTIES('BNg3wdQXRVT9xFRH_R1jIr',#6,$,$,(#111),#279);
ENDSEC;
END-ISO-10303-21;
