ISO-10303-21;
HEADER;
FILE_DESCRIPTION(('ViewDefinition [SchedulingView]'),'2;1');
FILE_NAME('Albert Heijn Supermarket Refurbishment.ifc','2026-09-11T17:47:46',('Anne Willems'),('Retail Build Express BV'),'Open Planner Studio 0.1','Open Planner Studio','');
FILE_SCHEMA(('IFC4X3'));
ENDSEC;
DATA;
#1=IFCPERSON($,'Anne Willems',$,$,$,$,$,$);
#2=IFCORGANIZATION($,'Retail Build Express BV',$,$,$);
#3=IFCPERSONANDORGANIZATION(#1,#2,$);
#4=IFCORGANIZATION($,'OpenAEC Foundation',$,$,$);
#5=IFCAPPLICATION(#4,'0.1','Open Planner Studio','OPS');
#6=IFCOWNERHISTORY(#3,#5,$,.NOCHANGE.,$,$,$,1789148866);
#7=IFCSIUNIT(*,.LENGTHUNIT.,$,.METRE.);
#8=IFCSIUNIT(*,.TIMEUNIT.,$,.SECOND.);
#9=IFCUNITASSIGNMENT((#7,#8));
#10=IFCCARTESIANPOINT((0.,0.,0.));
#11=IFCAXIS2PLACEMENT3D(#10,$,$);
#12=IFCGEOMETRICREPRESENTATIONCONTEXT($,'Plan',3,1.0E-05,#11,$);
#13=IFCPROJECT('ZVbHrza1_3GVUtWXPFFLwX',#6,'Albert Heijn Supermarket Refurbishment','Internal refurbishment and extension of a supermarket',$,$,$,(#12),#9);
#14=IFCTIMEPERIOD('07:00:00','16:00:00');
#15=IFCRECURRENCEPATTERN(.WEEKLY.,$,(1,2,3,4,5),$,$,$,$,(#14));
#16=IFCWORKTIME('Standard work week',.PREDICTED.,$,#15,$,$);
#17=IFCWORKTIME('New Year''s Day',.PREDICTED.,$,$,'2027-01-01','2027-01-01');
#18=IFCWORKTIME('Good Friday',.PREDICTED.,$,$,'2027-03-26','2027-03-26');
#19=IFCWORKTIME('Easter',.PREDICTED.,$,$,'2027-03-28','2027-03-29');
#20=IFCWORKTIME('King''s Day',.PREDICTED.,$,$,'2027-04-27','2027-04-27');
#21=IFCWORKTIME('Liberation Day',.PREDICTED.,$,$,'2027-05-05','2027-05-05');
#22=IFCWORKTIME('Ascension Day',.PREDICTED.,$,$,'2027-05-06','2027-05-06');
#23=IFCWORKTIME('Whitsun',.PREDICTED.,$,$,'2027-05-16','2027-05-17');
#24=IFCWORKTIME('Christmas',.PREDICTED.,$,$,'2027-12-25','2027-12-26');
#25=IFCWORKTIME('Construction holiday (northern region)',.PREDICTED.,$,$,'2027-07-26','2027-08-15');
#26=IFCWORKTIME('New Year''s Day',.PREDICTED.,$,$,'2028-01-01','2028-01-01');
#27=IFCWORKTIME('Good Friday',.PREDICTED.,$,$,'2028-04-14','2028-04-14');
#28=IFCWORKTIME('Easter',.PREDICTED.,$,$,'2028-04-16','2028-04-17');
#29=IFCWORKTIME('King''s Day',.PREDICTED.,$,$,'2028-04-27','2028-04-27');
#30=IFCWORKTIME('Liberation Day',.PREDICTED.,$,$,'2028-05-05','2028-05-05');
#31=IFCWORKTIME('Ascension Day',.PREDICTED.,$,$,'2028-05-25','2028-05-25');
#32=IFCWORKTIME('Whitsun',.PREDICTED.,$,$,'2028-06-04','2028-06-05');
#33=IFCWORKTIME('Christmas',.PREDICTED.,$,$,'2028-12-25','2028-12-26');
#34=IFCWORKTIME('Construction holiday (northern region)',.PREDICTED.,$,$,'2028-07-24','2028-08-13');
#35=IFCWORKCALENDAR('_HlbW$VPl1Yxnv_nBDbFBd',#6,'Construction calendar NL','Standard construction calendar: Mon-Fri 07:00-16:00',$,(#16),(#17,#18,#19,#20,#21,#22,#23,#24,#25,#26,#27,#28,#29,#30,#31,#32,#33,#34),.FIRSTSHIFT.);
#36=IFCPROPERTYSINGLEVALUE('HoursPerDay',$,IFCREAL(8),$);
#37=IFCPROPERTYSET('qL5XmPUFgdlJ6X9$WtAtOZ',#6,'OPS_Calendar',$,(#36));
#38=IFCRELDEFINESBYPROPERTIES('bXh12hy$qvOdOP_VbbYntl',#6,$,$,(#35),#37);
#39=IFCWORKPLAN('B9w9c9CnG3m$SvgH_9_lr3',#6,'Albert Heijn Supermarket Refurbishment','Internal refurbishment and extension of a supermarket',$,$,'2026-09-11T17:47:46',$,$,$,$,$,'2027-03-01T07:00:00','2027-03-10T07:00:00',.PLANNED.);
#40=IFCWORKSCHEDULE('exq5sHXvqP4pCHplNN6J6X',#6,'Construction schedule v1.0',$,$,$,'2026-09-11T17:47:46',$,$,$,$,$,'2027-03-01T07:00:00','2027-03-10T07:00:00',.PLANNED.);
#41=IFCRELAGGREGATES('X$Ph9TPtbVDd8te$ftI1sz',#6,$,$,#39,(#40));
#42=IFCTASKTIME('1. Preparation Time',.PREDICTED.,$,.WORKTIME.,'P0Y0M5D','2027-03-01T07:00:00','2027-03-05T07:00:00','2027-03-01T07:00:00','2027-03-08T07:00:00','2027-03-01T07:00:00','2027-06-02T07:00:00','P0Y0M0D','P0Y0M0D',.T.,$,$,$,$,$,0.00);
#43=IFCTASK('b1dLJ1gPhj6Jw$hllL7DC3',#6,'1. Preparation',$,$,'1',$,$,$,.F.,$,#42,.CONSTRUCTION.);
#44=IFCTASKTIME('Clear out store Time',.PREDICTED.,$,.WORKTIME.,'P0Y0M3D','2027-03-01T07:00:00','2027-03-03T07:00:00','2027-03-01T07:00:00','2027-03-03T07:00:00','2027-03-01T07:00:00','2027-03-03T07:00:00','P0Y0M0D','P0Y0M0D',.T.,$,$,$,$,$,0.00);
#45=IFCTASK('zJobuD9fiDm1KbinsbYnrP',#6,'Clear out store',$,$,'1.1',$,$,$,.F.,$,#44,.LOGISTIC.);
#46=IFCTASKTIME('Temporary facilities Time',.PREDICTED.,$,.WORKTIME.,'P0Y0M2D','2027-03-01T07:00:00','2027-03-02T07:00:00','2027-03-04T07:00:00','2027-03-05T07:00:00','2027-05-31T07:00:00','2027-06-01T07:00:00','P0Y0M0D','P0Y0M56D',.F.,$,$,$,$,$,0.00);
#47=IFCTASK('hZrXmv_NYvuf1XrFtTpd1j',#6,'Temporary facilities',$,$,'1.2',$,$,$,.F.,$,#46,.INSTALLATION.);
#48=IFCTASKTIME('Start of refurbishment Time',.PREDICTED.,$,.WORKTIME.,'P0Y0M0D','2027-03-01T07:00:00','2027-03-01T07:00:00','2027-03-08T07:00:00','2027-03-08T07:00:00','2027-06-02T07:00:00','2027-06-02T07:00:00','P0Y0M56D','P0Y0M56D',.F.,$,$,$,$,$,0.00);
#49=IFCTASK('qhxX8p$dBTCZXHf$wDTfs3',#6,'Start of refurbishment',$,$,'1.3',$,$,$,.T.,$,#48,.CONSTRUCTION.);
#50=IFCTASKTIME('2. Demolition works Time',.PREDICTED.,$,.WORKTIME.,'P0Y0M5D','2027-03-01T07:00:00','2027-03-05T07:00:00','2027-03-04T07:00:00','2027-03-22T07:00:00','2027-03-04T07:00:00','2027-03-31T07:00:00','P0Y0M0D','P0Y0M0D',.T.,$,$,$,$,$,0.00);
#51=IFCTASK('a$VzkHmNobbXA7kFKDwJQr',#6,'2. Demolition works',$,$,'2',$,$,$,.F.,$,#50,.DEMOLITION.);
#52=IFCTASKTIME('Demolish existing fit-out Time',.PREDICTED.,$,.WORKTIME.,'P0Y0M5D','2027-03-01T07:00:00','2027-03-05T07:00:00','2027-03-04T07:00:00','2027-03-10T07:00:00','2027-03-04T07:00:00','2027-03-10T07:00:00','P0Y0M0D','P0Y0M0D',.T.,$,$,$,$,$,0.00);
#53=IFCTASK('1jQJnLbFEnXzLNKlej$jcH',#6,'Demolish existing fit-out',$,$,'2.1',$,$,$,.F.,$,#52,.DEMOLITION.);
#54=IFCTASKTIME('Partially break out floor Time',.PREDICTED.,$,.WORKTIME.,'P0Y0M3D','2027-03-01T07:00:00','2027-03-03T07:00:00','2027-03-11T07:00:00','2027-03-15T07:00:00','2027-03-18T07:00:00','2027-03-22T07:00:00','P0Y0M0D','P0Y0M5D',.F.,$,$,$,$,$,0.00);
#55=IFCTASK('JNelP52fwFiRnpXVS5hXKj',#6,'Partially break out floor',$,$,'2.2',$,$,$,.F.,$,#54,.DEMOLITION.);
#56=IFCTASKTIME('Open up rear facade for extension Time',.PREDICTED.,$,.WORKTIME.,'P0Y0M5D','2027-03-01T07:00:00','2027-03-05T07:00:00','2027-03-16T07:00:00','2027-03-22T07:00:00','2027-03-23T07:00:00','2027-03-31T07:00:00','P0Y0M5D','P0Y0M5D',.F.,$,$,$,$,$,0.00);
#57=IFCTASK('_p6tQtaHjNjv_Ps1PFdjsT',#6,'Open up rear facade for extension',$,$,'2.3',$,$,$,.F.,$,#56,.DEMOLITION.);
#58=IFCTASKTIME('3. Extension Time',.PREDICTED.,$,.WORKTIME.,'P0Y0M5D','2027-03-01T07:00:00','2027-03-05T07:00:00','2027-03-08T07:00:00','2027-04-02T07:00:00','2027-03-08T07:00:00','2027-04-02T07:00:00','P0Y0M0D','P0Y0M0D',.T.,$,$,$,$,$,0.00);
#59=IFCTASK('5Lk5g$XPHVsHBJBF$VvDyr',#6,'3. Extension',$,$,'3',$,$,$,.F.,$,#58,.CONSTRUCTION.);
#60=IFCTASKTIME('Foundations, extension Time',.PREDICTED.,$,.WORKTIME.,'P0Y0M5D','2027-03-01T07:00:00','2027-03-05T07:00:00','2027-03-08T07:00:00','2027-03-12T07:00:00','2027-03-08T07:00:00','2027-03-12T07:00:00','P0Y0M0D','P0Y0M0D',.T.,$,$,$,$,$,0.00);
#61=IFCTASK('1p2Vy3yl$t15rpnXZZCbnV',#6,'Foundations, extension',$,$,'3.1',$,$,$,.F.,$,#60,.CONSTRUCTION.);
#62=IFCTASKTIME('Structural steel, extension Time',.PREDICTED.,$,.WORKTIME.,'P0Y0M5D','2027-03-01T07:00:00','2027-03-05T07:00:00','2027-03-15T07:00:00','2027-03-19T07:00:00','2027-03-15T07:00:00','2027-03-19T07:00:00','P0Y0M0D','P0Y0M0D',.T.,$,$,$,$,$,0.00);
#63=IFCTASK('_nrnfHmNOnC51$XXqZ4Zn5',#6,'Structural steel, extension',$,$,'3.2',$,$,$,.F.,$,#62,.CONSTRUCTION.);
#64=IFCTASKTIME('Roof and facade, extension Time',.PREDICTED.,$,.WORKTIME.,'P0Y0M5D','2027-03-01T07:00:00','2027-03-05T07:00:00','2027-03-22T07:00:00','2027-03-30T07:00:00','2027-03-22T07:00:00','2027-03-30T07:00:00','P0Y0M0D','P0Y0M0D',.T.,$,$,$,$,$,0.00);
#65=IFCTASK('RXTNCd3HDbZdKxe1lL7DCZ',#6,'Roof and facade, extension',$,$,'3.3',$,$,$,.F.,$,#64,.INSTALLATION.);
#66=IFCTASKTIME('Floor, extension Time',.PREDICTED.,$,.WORKTIME.,'P0Y0M3D','2027-03-01T07:00:00','2027-03-03T07:00:00','2027-03-31T07:00:00','2027-04-02T07:00:00','2027-03-31T07:00:00','2027-04-02T07:00:00','P0Y0M0D','P0Y0M0D',.T.,$,$,$,$,$,0.00);
#67=IFCTASK('BJxV0npVn3UN$1nX$1j7Z9',#6,'Floor, extension',$,$,'3.4',$,$,$,.F.,$,#66,.CONSTRUCTION.);
#68=IFCTASKTIME('4. Building services Time',.PREDICTED.,$,.WORKTIME.,'P0Y0M5D','2027-03-01T07:00:00','2027-03-05T07:00:00','2027-03-30T07:00:00','2027-04-28T07:00:00','2027-03-30T07:00:00','2027-04-28T07:00:00','P0Y0M0D','P0Y0M0D',.T.,$,$,$,$,$,0.00);
#69=IFCTASK('_DY$cDgPxbjfBpVXCHDPj3',#6,'4. Building services',$,$,'4',$,$,$,.F.,$,#68,.INSTALLATION.);
#70=IFCTASKTIME('Renew cooling installation Time',.PREDICTED.,$,.WORKTIME.,'P0Y0M8D','2027-03-01T07:00:00','2027-03-10T07:00:00','2027-03-30T07:00:00','2027-04-08T07:00:00','2027-03-30T07:00:00','2027-04-08T07:00:00','P0Y0M0D','P0Y0M0D',.T.,$,$,$,$,$,0.00);
#71=IFCTASK('Y1lJJzjVjL$xj$hljt6P1D',#6,'Renew cooling installation',$,$,'4.1',$,$,$,.F.,$,#70,.INSTALLATION.);
#72=IFCTASKTIME('Electrical, extension Time',.PREDICTED.,$,.WORKTIME.,'P0Y0M5D','2027-03-01T07:00:00','2027-03-05T07:00:00','2027-04-09T07:00:00','2027-04-15T07:00:00','2027-04-09T07:00:00','2027-04-15T07:00:00','P0Y0M0D','P0Y0M0D',.T.,$,$,$,$,$,0.00);
#73=IFCTASK('U1fR4TOvmpMnzxqnC3OXyP',#6,'Electrical, extension',$,$,'4.2',$,$,$,.F.,$,#72,.INSTALLATION.);
#74=IFCTASKTIME('Ventilation and air conditioning Time',.PREDICTED.,$,.WORKTIME.,'P0Y0M5D','2027-03-01T07:00:00','2027-03-05T07:00:00','2027-04-16T07:00:00','2027-04-22T07:00:00','2027-04-16T07:00:00','2027-04-22T07:00:00','P0Y0M0D','P0Y0M0D',.T.,$,$,$,$,$,0.00);
#75=IFCTASK('uhwp3PB1CPKb$rIXMr4hYn',#6,'Ventilation and air conditioning',$,$,'4.3',$,$,$,.F.,$,#74,.INSTALLATION.);
#76=IFCTASKTIME('Fire alarm system Time',.PREDICTED.,$,.WORKTIME.,'P0Y0M3D','2027-03-01T07:00:00','2027-03-03T07:00:00','2027-04-23T07:00:00','2027-04-28T07:00:00','2027-04-23T07:00:00','2027-04-28T07:00:00','P0Y0M0D','P0Y0M0D',.T.,$,$,$,$,$,0.00);
#77=IFCTASK('QbWf8DfNUDw1G5CHEDszR5',#6,'Fire alarm system',$,$,'4.4',$,$,$,.F.,$,#76,.INSTALLATION.);
#78=IFCTASKTIME('5. Fit-out & furnishing Time',.PREDICTED.,$,.WORKTIME.,'P0Y0M5D','2027-03-01T07:00:00','2027-03-05T07:00:00','2027-04-29T07:00:00','2027-06-02T07:00:00','2027-04-29T07:00:00','2027-06-02T07:00:00','P0Y0M0D','P0Y0M0D',.T.,$,$,$,$,$,0.00);
#79=IFCTASK('TXrXCxl7uNDdy3v1HdCbdL',#6,'5. Fit-out & furnishing',$,$,'5',$,$,$,.F.,$,#78,.CONSTRUCTION.);
#80=IFCTASKTIME('Lay floor tiles Time',.PREDICTED.,$,.WORKTIME.,'P0Y0M5D','2027-03-01T07:00:00','2027-03-05T07:00:00','2027-04-29T07:00:00','2027-05-07T07:00:00','2027-04-29T07:00:00','2027-05-07T07:00:00','P0Y0M0D','P0Y0M0D',.T.,$,$,$,$,$,0.00);
#81=IFCTASK('3F3tEZHdtL5XIHnXLdOVaR',#6,'Lay floor tiles',$,$,'5.1',$,$,$,.F.,$,#80,.CONSTRUCTION.);
#82=IFCTASKTIME('Ceilings and lighting Time',.PREDICTED.,$,.WORKTIME.,'P0Y0M5D','2027-03-01T07:00:00','2027-03-05T07:00:00','2027-05-10T07:00:00','2027-05-14T07:00:00','2027-05-10T07:00:00','2027-05-14T07:00:00','P0Y0M0D','P0Y0M0D',.T.,$,$,$,$,$,0.00);
#83=IFCTASK('Z$nDRRZHX5dBO7IFebk1Qr',#6,'Ceilings and lighting',$,$,'5.2',$,$,$,.F.,$,#82,.INSTALLATION.);
#84=IFCTASKTIME('Shelving and refrigeration Time',.PREDICTED.,$,.WORKTIME.,'P0Y0M5D','2027-03-01T07:00:00','2027-03-05T07:00:00','2027-05-18T07:00:00','2027-05-24T07:00:00','2027-05-18T07:00:00','2027-05-24T07:00:00','P0Y0M0D','P0Y0M0D',.T.,$,$,$,$,$,0.00);
#85=IFCTASK('m9KbmPIlxlJfNRGXEFZNoN',#6,'Shelving and refrigeration',$,$,'5.3',$,$,$,.F.,$,#84,.INSTALLATION.);
#86=IFCTASKTIME('Checkout island Time',.PREDICTED.,$,.WORKTIME.,'P0Y0M3D','2027-03-01T07:00:00','2027-03-03T07:00:00','2027-05-25T07:00:00','2027-05-27T07:00:00','2027-05-25T07:00:00','2027-05-27T07:00:00','P0Y0M0D','P0Y0M0D',.T.,$,$,$,$,$,0.00);
#87=IFCTASK('jN0tAHP9r9EB0ZlX71XpSb',#6,'Checkout island',$,$,'5.4',$,$,$,.F.,$,#86,.INSTALLATION.);
#88=IFCTASKTIME('Stocking and fit-out Time',.PREDICTED.,$,.WORKTIME.,'P0Y0M3D','2027-03-01T07:00:00','2027-03-03T07:00:00','2027-05-28T07:00:00','2027-06-01T07:00:00','2027-05-28T07:00:00','2027-06-01T07:00:00','P0Y0M0D','P0Y0M0D',.T.,$,$,$,$,$,0.00);
#89=IFCTASK('xBcfCRr1OvzvoLQHHdCb7x',#6,'Stocking and fit-out',$,$,'5.5',$,$,$,.F.,$,#88,.LOGISTIC.);
#90=IFCTASKTIME('Reopening Time',.PREDICTED.,$,.WORKTIME.,'P0Y0M0D','2027-03-01T07:00:00','2027-03-01T07:00:00','2027-06-02T07:00:00','2027-06-02T07:00:00','2027-06-02T07:00:00','2027-06-02T07:00:00','P0Y0M0D','P0Y0M0D',.T.,$,$,$,$,$,0.00);
#91=IFCTASK('lbrVyzyl5HjNbrA$5h8F7N',#6,'Reopening',$,$,'5.6',$,$,$,.T.,$,#90,.CONSTRUCTION.);
#92=IFCRELNESTS('U3qxMRTHDvz7A5qHMHBFXZ',#6,'WBS 1. Preparation',$,#43,( #45,#47,#49));
#93=IFCRELNESTS('TT8njZfNWRRXgtSFp781cr',#6,'WBS 2. Demolition works',$,#51,( #53,#55,#57));
#94=IFCRELNESTS('qfoRG7otHjKRdnt1DdyL6x',#6,'WBS 3. Extension',$,#59,( #61,#63,#65,#67));
#95=IFCRELNESTS('99gd7LiV$rhHpHRnmXdJ2X',#6,'WBS 4. Building services',$,#69,( #71,#73,#75,#77));
#96=IFCRELNESTS('SZOl1P2FifUNVlFXDh7pqz',#6,'WBS 5. Fit-out & furnishing',$,#79,( #81,#83,#85,#87,#89,#91));
#97=IFCRELNESTS('tjjP5r1vgdnD4TBHzDgTrv',#6,'WBS Hoofd',$,#40,(#43,#51,#59,#69,#79));
#98=IFCRELSEQUENCE('Rb8Xy$k9NxnDe$nVvRgf6b',#6,$,$,#45,#47,$,.FINISH_START.,$);
#99=IFCRELSEQUENCE('YXxFDjxVR$VbR$7$QPWdNX',#6,$,$,#47,#49,$,.FINISH_START.,$);
#100=IFCRELSEQUENCE('W$$TmtS12fYfnP2XhZJ7JX',#6,$,$,#53,#55,$,.FINISH_START.,$);
#101=IFCRELSEQUENCE('bbG7$TmNCZATj1TFQZBnFR',#6,$,$,#55,#57,$,.FINISH_START.,$);
#102=IFCRELSEQUENCE('rpfjvPzlFl8f7pRlopMTN1',#6,$,$,#61,#63,$,.FINISH_START.,$);
#103=IFCRELSEQUENCE('7LgzkjRVlDOtVbSnlBT9uj',#6,$,$,#63,#65,$,.FINISH_START.,$);
#104=IFCRELSEQUENCE('vlz9QN09dvWlNRWVFbXDCz',#6,$,$,#65,#67,$,.FINISH_START.,$);
#105=IFCRELSEQUENCE('WVrXGNe7O7DtDTv$wfoRHl',#6,$,$,#71,#73,$,.FINISH_START.,$);
#106=IFCRELSEQUENCE('Ct_XCbB$OlWHNxinonpPfX',#6,$,$,#73,#75,$,.FINISH_START.,$);
#107=IFCRELSEQUENCE('NTBVOTHdL70FRVrF9zvDCz',#6,$,$,#75,#77,$,.FINISH_START.,$);
#108=IFCRELSEQUENCE('ov2V0FbnElrnDTd1atgfQB',#6,$,$,#81,#83,$,.FINISH_START.,$);
#109=IFCRELSEQUENCE('e3NRGvYfijKRZrIX6JnZXT',#6,$,$,#83,#85,$,.FINISH_START.,$);
#110=IFCRELSEQUENCE('FLR$_LinYDo7AR81T3eXOZ',#6,$,$,#85,#87,$,.FINISH_START.,$);
#111=IFCRELSEQUENCE('qBdzgXTlZ1M3jJ7$1$3NoN',#6,$,$,#87,#89,$,.FINISH_START.,$);
#112=IFCRELSEQUENCE('gTRl3v79B3GVgL2FxhWP9H',#6,$,$,#89,#91,$,.FINISH_START.,$);
#113=IFCLAGTIME('Lag',.PREDICTED.,$,IFCDURATION('P3D'),.WORKTIME.);
#114=IFCRELSEQUENCE('W1t5MXRXRhLlFdQ$IX9zxr',#6,$,$,#45,#53,#113,.START_START.,$);
#115=IFCLAGTIME('Lag',.PREDICTED.,$,IFCRATIOMEASURE(0.4),.WORKTIME.);
#116=IFCRELSEQUENCE('$jsTq5NNwlG1qLwl7$H39p',#6,$,$,#53,#61,#115,.START_START.,$);
#117=IFCLAGTIME('Lag',.PREDICTED.,$,IFCDURATION('P2D'),.WORKTIME.);
#118=IFCRELSEQUENCE('T3a3_Buv2TSriXFVpBBFhN',#6,$,$,#57,#67,#117,.FINISH_FINISH.,$);
#119=IFCLAGTIME('Lag',.PREDICTED.,$,IFCDURATION('-P4D'),.WORKTIME.);
#120=IFCRELSEQUENCE('JN0927ffg5X3pTnVzjI$Ad',#6,$,$,#67,#71,#119,.FINISH_START.,$);
#121=IFCRELSEQUENCE('5Bsvh9qXLdarWD5le56j6X',#6,$,$,#77,#81,$,.FINISH_START.,$);
#122=IFCRELASSIGNSTOCONTROL('rDVhNjbXHjyDCF$VkTSruD',#6,$,$,(#43,#45,#47,#49,#51,#53,#55,#57,#59,#61,#63,#65,#67,#69,#71,#73,#75,#77,#79,#81,#83,#85,#87,#89,#91),$,#40);
#123=IFCPROPERTYSINGLEVALUE('InternalProjectId',$,IFCTEXT('proj-mtx91gl7ts5w2319'),$);
#124=IFCPROPERTYSINGLEVALUE('wbsAutoNumber',$,IFCBOOLEAN(.T.),$);
#125=IFCPROPERTYSINGLEVALUE('DefaultTaskDurationUnit',$,IFCLABEL('days'),$);
#126=IFCPROPERTYSINGLEVALUE('ProjectStartDate',$,IFCDATE('2027-03-01'),$);
#127=IFCPROPERTYSINGLEVALUE('ProjectEndDate',$,$,$);
#128=IFCPROPERTYSINGLEVALUE('CreatedAt',$,IFCTEXT('2026-09-11T17:47:46.363Z'),$);
#129=IFCPROPERTYSINGLEVALUE('ModifiedAt',$,IFCTEXT('2026-09-11T17:47:46.364Z'),$);
#130=IFCPROPERTYSET('e5a3ArlP$tNZvpDF1ZK5n5',#6,'OPS_ProjectSettings',$,(#123,#124,#125,#126,#127,#128,#129));
#131=IFCRELDEFINESBYPROPERTIES('0Hdzo1sPJhdjQlBF$1BF9l',#6,$,$,(#13),#130);
#132=IFCPROPERTYSINGLEVALUE('InternalTaskId',$,IFCTEXT('task-mtx91glapul22320'),$);
#133=IFCPROPERTYSET('8jJdj1sdTJCZrp1XYdyhMN',#6,'OPS_TaskIdentity',$,(#132));
#134=IFCRELDEFINESBYPROPERTIES('nLJPFFrHvzePKXP1nxpdxH',#6,$,$,(#43),#133);
#135=IFCPROPERTYSINGLEVALUE('InternalTaskId',$,IFCTEXT('task-mtx91glb60o62321'),$);
#136=IFCPROPERTYSET('W1PLzPpn2ZyLgfmXgLG9qT',#6,'OPS_TaskIdentity',$,(#135));
#137=IFCRELDEFINESBYPROPERTIES('PVDPXNOdz3Yflt8$El9B8p',#6,$,$,(#45),#136);
#138=IFCPROPERTYSINGLEVALUE('InternalTaskId',$,IFCTEXT('task-mtx91glco7ot2322'),$);
#139=IFCPROPERTYSET('EBvTGPQVb1Fhkbin6pr1Ul',#6,'OPS_TaskIdentity',$,(#138));
#140=IFCRELDEFINESBYPROPERTIES('hvSz_hCXp5fxPZ1VARA9GV',#6,$,$,(#47),#139);
#141=IFCPROPERTYSINGLEVALUE('InternalTaskId',$,IFCTEXT('task-mtx91glduwak2323'),$);
#142=IFCPROPERTYSET('lRZNmvsPzZIhUzFXld4LYl',#6,'OPS_TaskIdentity',$,(#141));
#143=IFCRELDEFINESBYPROPERTIES('A9U16dYng7rFJD5lO5ULA3',#6,$,$,(#49),#142);
#144=IFCPROPERTYSINGLEVALUE('InternalTaskId',$,IFCTEXT('task-mtx91glemkr62324'),$);
#145=IFCPROPERTYSET('7nP3wzinYjYxRhQHdBijcH',#6,'OPS_TaskIdentity',$,(#144));
#146=IFCRELDEFINESBYPROPERTIES('oBP3IjjFmJ2bdH5nQzfTTb',#6,$,$,(#51),#145);
#147=IFCPROPERTYSINGLEVALUE('InternalTaskId',$,IFCTEXT('task-mtx91glgdb3o2325'),$);
#148=IFCPROPERTYSET('Y$PhvhCXB9M3NvMH_tgfYH',#6,'OPS_TaskIdentity',$,(#147));
#149=IFCRELDEFINESBYPROPERTIES('fZpPhDIt5HTPK5e$uh0vhp',#6,$,$,(#53),#148);
#150=IFCPROPERTYSINGLEVALUE('InternalTaskId',$,IFCTEXT('task-mtx91glh1vpw2326'),$);
#151=IFCPROPERTYSET('A9Il$dQV5HhlfRO1rpDdF5',#6,'OPS_TaskIdentity',$,(#150));
#152=IFCRELDEFINESBYPROPERTIES('3jI5AhDXhjAZvpzF8B4hsd',#6,$,$,(#55),#151);
#153=IFCPROPERTYSINGLEVALUE('InternalTaskId',$,IFCTEXT('task-mtx91glipr6i2327'),$);
#154=IFCPROPERTYSET('VX5FNH87IX3fRLons56JQH',#6,'OPS_TaskIdentity',$,(#153));
#155=IFCRELDEFINESBYPROPERTIES('OzHJZRcX9BVRXbalHBhHfT',#6,$,$,(#57),#154);
#156=IFCPROPERTYSINGLEVALUE('InternalTaskId',$,IFCTEXT('task-mtx91glk8n5n2328'),$);
#157=IFCPROPERTYSET('U3yTq79N8$ILAdQ$gFtzVv',#6,'OPS_TaskIdentity',$,(#156));
#158=IFCRELDEFINESBYPROPERTIES('bVh1oZfNG3G$ytqlUrZ9GF',#6,$,$,(#59),#157);
#159=IFCPROPERTYSINGLEVALUE('InternalTaskId',$,IFCTEXT('task-mtx91gllpeqm2329'),$);
#160=IFCPROPERTYSET('YXz9cJoH1rBnxlFXn96Pxl',#6,'OPS_TaskIdentity',$,(#159));
#161=IFCRELDEFINESBYPROPERTIES('N3t5QNW9JhfZnd2XXj_lZt',#6,$,$,(#61),#160);
#162=IFCPROPERTYSINGLEVALUE('InternalTaskId',$,IFCTEXT('task-mtx91glnp5by2330'),$);
#163=IFCPROPERTYSET('bV5n77$dlp0FlZBlzj_H9D',#6,'OPS_TaskIdentity',$,(#162));
#164=IFCRELDEFINESBYPROPERTIES('ixlJj3BH5nFpunRlwfQDe3',#6,$,$,(#63),#163);
#165=IFCPROPERTYSINGLEVALUE('InternalTaskId',$,IFCTEXT('task-mtx91glo4os52331'),$);
#166=IFCPROPERTYSET('uDfJZxcvGZypuHHXbxIxn5',#6,'OPS_TaskIdentity',$,(#165));
#167=IFCRELDEFINESBYPROPERTIES('FrHRO3LHzHet5lN1El1j65',#6,$,$,(#65),#166);
#168=IFCPROPERTYSINGLEVALUE('InternalTaskId',$,IFCTEXT('task-mtx91glq4v642332'),$);
#169=IFCPROPERTYSET('I51ZWV3H7TSBO7sHO5szB3',#6,'OPS_TaskIdentity',$,(#168));
#170=IFCRELDEFINESBYPROPERTIES('Bf2rJzjVpRpttt4Fh7yhYD',#6,$,$,(#67),#169);
#171=IFCPROPERTYSINGLEVALUE('InternalTaskId',$,IFCTEXT('task-mtx91gls8r3i2333'),$);
#172=IFCPROPERTYSET('VXTfithllDmVwVP$71l3hp',#6,'OPS_TaskIdentity',$,(#171));
#173=IFCRELDEFINESBYPROPERTIES('O3NbG7ot7tIhAxCFGn5l$N',#6,$,$,(#69),#172);
#174=IFCPROPERTYSINGLEVALUE('InternalTaskId',$,IFCTEXT('task-mtx91gltrn6l2334'),$);
#175=IFCPROPERTYSET('5F1rxn5FaVpPCrIXMra3pH',#6,'OPS_TaskIdentity',$,(#174));
#176=IFCRELDEFINESBYPROPERTIES('qr1BvvF7gxnpCrYV7bgfkh',#6,$,$,(#71),#175);
#177=IFCPROPERTYSINGLEVALUE('InternalTaskId',$,IFCTEXT('task-mtx91glvcsnm2335'),$);
#178=IFCPROPERTYSET('xnfJJ3Z$230nXRCHkZqRT9',#6,'OPS_TaskIdentity',$,(#177));
#179=IFCRELDEFINESBYPROPERTIES('CBfjv79NGjATz7UnrfYLUF',#6,$,$,(#73),#178);
#180=IFCPROPERTYSINGLEVALUE('InternalTaskId',$,IFCTEXT('task-mtx91glxel5p2336'),$);
#181=IFCPROPERTYSET('bRelj$UfuNLlx5u1xlZtqT',#6,'OPS_TaskIdentity',$,(#180));
#182=IFCRELDEFINESBYPROPERTIES('YX5FNHevW5dr03hFXjQvf3',#6,$,$,(#75),#181);
#183=IFCPROPERTYSINGLEVALUE('InternalTaskId',$,IFCTEXT('task-mtx91glz7y212337'),$);
#184=IFCPROPERTYSET('3JATWV5VLvuNNbmX4PWdT5',#6,'OPS_TaskIdentity',$,(#183));
#185=IFCRELDEFINESBYPROPERTIES('yl3tIlud5RBFDT1XcPGtaR',#6,$,$,(#77),#184);
#186=IFCPROPERTYSINGLEVALUE('InternalTaskId',$,IFCTEXT('task-mtx91gm1szfr2338'),$);
#187=IFCPROPERTYSET('6F7T4zqFuXMn71ZngBazF$',#6,'OPS_TaskIdentity',$,(#186));
#188=IFCRELDEFINESBYPROPERTIES('DBvTWXpnEx9bzRu1s$9Bat',#6,$,$,(#79),#187);
#189=IFCPROPERTYSINGLEVALUE('InternalTaskId',$,IFCTEXT('task-mtx91gm2ptyf2339'),$);
#190=IFCPROPERTYSET('Q1t5IDfNwFC5PT9$Z1R1Ex',#6,'OPS_TaskIdentity',$,(#189));
#191=IFCRELDEFINESBYPROPERTIES('jR39oXUnMvLHPZ71AXr$oN',#6,$,$,(#81),#190);
#192=IFCPROPERTYSINGLEVALUE('InternalTaskId',$,IFCTEXT('task-mtx91gm47qr12340'),$);
#193=IFCPROPERTYSET('6ljPb5NfMRjNxbiHKVhXKX',#6,'OPS_TaskIdentity',$,(#192));
#194=IFCRELDEFINESBYPROPERTIES('pLLHfjZlJ9lr0TlXhZ5V4d',#6,$,$,(#83),#193);
#195=IFCPROPERTYSINGLEVALUE('InternalTaskId',$,IFCTEXT('task-mtx91gm6crc72341'),$);
#196=IFCPROPERTYSET('pvcNOZNfShXbzRWVZ$LHHn',#6,'OPS_TaskIdentity',$,(#195));
#197=IFCRELDEFINESBYPROPERTIES('6hcJVpI9hPyp890V$13N2Z',#6,$,$,(#85),#196);
#198=IFCPROPERTYSINGLEVALUE('InternalTaskId',$,IFCTEXT('task-mtx91gm854152342'),$);
#199=IFCPROPERTYSET('Atw9M1n7cDOPG5qFmV15rP',#6,'OPS_TaskIdentity',$,(#198));
#200=IFCRELDEFINESBYPROPERTIES('zjMzQpUfO7hlzP_XxhWPLf',#6,$,$,(#87),#199);
#201=IFCPROPERTYSINGLEVALUE('InternalTaskId',$,IFCTEXT('task-mtx91gmauxig2343'),$);
#202=IFCPROPERTYSET('YTuFFLhlrTKzt9KFkV$xBd',#6,'OPS_TaskIdentity',$,(#201));
#203=IFCRELDEFINESBYPROPERTIES('b$nDRbbVRr1xJ1RlgHrFpj',#6,$,$,(#89),#202);
#204=IFCPROPERTYSINGLEVALUE('InternalTaskId',$,IFCTEXT('task-mtx91gmcd4u72344'),$);
#205=IFCPROPERTYSET('kta3_rmNQpOdqFf$pB5VOr',#6,'OPS_TaskIdentity',$,(#204));
#206=IFCRELDEFINESBYPROPERTIES('dxS3oVIHrtAZJV$X0vGtS5',#6,$,$,(#91),#205);
#207=IFCPROPERTYSINGLEVALUE('MilestoneKind',$,IFCLABEL('START'),$);
#208=IFCPROPERTYSET('W$$TSDYf8Njv6j$VORwPPd',#6,'OPS_Milestone',$,(#207));
#209=IFCRELDEFINESBYPROPERTIES('7LULXtiXxxN53v_FjNULgj',#6,$,$,(#49),#208);
ENDSEC;
END-ISO-10303-21;
