ISO-10303-21;
HEADER;
FILE_DESCRIPTION(('ViewDefinition [SchedulingView]'),'2;1');
FILE_NAME('Cycle Tunnel, Arnhem Station.ifc','2026-09-11T17:47:46',('Marian Bos'),('Tunnel Construction East BV'),'Open Planner Studio 0.1','Open Planner Studio','');
FILE_SCHEMA(('IFC4X3'));
ENDSEC;
DATA;
#1=IFCPERSON($,'Marian Bos',$,$,$,$,$,$);
#2=IFCORGANIZATION($,'Tunnel Construction East BV',$,$,$);
#3=IFCPERSONANDORGANIZATION(#1,#2,$);
#4=IFCORGANIZATION($,'OpenAEC Foundation',$,$,$);
#5=IFCAPPLICATION(#4,'0.1','Open Planner Studio','OPS');
#6=IFCOWNERHISTORY(#3,#5,$,.NOCHANGE.,$,$,$,1789148866);
#7=IFCSIUNIT(*,.LENGTHUNIT.,$,.METRE.);
#8=IFCSIUNIT(*,.TIMEUNIT.,$,.SECOND.);
#9=IFCUNITASSIGNMENT((#7,#8));
#10=IFCCARTESIANPOINT((0.,0.,0.));
#11=IFCAXIS2PLACEMENT3D(#10,$,$);
#12=IFCGEOMETRICREPRESENTATIONCONTEXT($,'Plan',3,1.0E-05,#11,$);
#13=IFCPROJECT('Pb09kFyldj6JwDpnvXB$ox',#6,'Cycle Tunnel, Arnhem Station','Underground cycle tunnel beneath a railway yard',$,$,$,(#12),#9);
#14=IFCTIMEPERIOD('07:00:00','16:00:00');
#15=IFCRECURRENCEPATTERN(.WEEKLY.,$,(1,2,3,4,5,6),$,$,$,$,(#14));
#16=IFCWORKTIME('Standard work week',.PREDICTED.,$,#15,$,$);
#17=IFCWORKTIME('New Year''s Day',.PREDICTED.,$,$,'2027-01-01','2027-01-01');
#18=IFCWORKTIME('Good Friday',.PREDICTED.,$,$,'2027-03-26','2027-03-26');
#19=IFCWORKTIME('Easter',.PREDICTED.,$,$,'2027-03-28','2027-03-29');
#20=IFCWORKTIME('King''s Day',.PREDICTED.,$,$,'2027-04-27','2027-04-27');
#21=IFCWORKTIME('Liberation Day',.PREDICTED.,$,$,'2027-05-05','2027-05-05');
#22=IFCWORKTIME('Ascension Day',.PREDICTED.,$,$,'2027-05-06','2027-05-06');
#23=IFCWORKTIME('Whitsun',.PREDICTED.,$,$,'2027-05-16','2027-05-17');
#24=IFCWORKTIME('Christmas',.PREDICTED.,$,$,'2027-12-25','2027-12-26');
#25=IFCWORKTIME('Construction holiday (northern region)',.PREDICTED.,$,$,'2027-07-26','2027-08-15');
#26=IFCWORKTIME('New Year''s Day',.PREDICTED.,$,$,'2028-01-01','2028-01-01');
#27=IFCWORKTIME('Good Friday',.PREDICTED.,$,$,'2028-04-14','2028-04-14');
#28=IFCWORKTIME('Easter',.PREDICTED.,$,$,'2028-04-16','2028-04-17');
#29=IFCWORKTIME('King''s Day',.PREDICTED.,$,$,'2028-04-27','2028-04-27');
#30=IFCWORKTIME('Liberation Day',.PREDICTED.,$,$,'2028-05-05','2028-05-05');
#31=IFCWORKTIME('Ascension Day',.PREDICTED.,$,$,'2028-05-25','2028-05-25');
#32=IFCWORKTIME('Whitsun',.PREDICTED.,$,$,'2028-06-04','2028-06-05');
#33=IFCWORKTIME('Christmas',.PREDICTED.,$,$,'2028-12-25','2028-12-26');
#34=IFCWORKTIME('Construction holiday (northern region)',.PREDICTED.,$,$,'2028-07-24','2028-08-13');
#35=IFCWORKCALENDAR('_HlbW$VPl1Yxnv_nBDbFBd',#6,'Infrastructure calendar Mon-Sat','Infrastructure/hydraulic works: Mon-Sat',$,(#16),(#17,#18,#19,#20,#21,#22,#23,#24,#25,#26,#27,#28,#29,#30,#31,#32,#33,#34),.FIRSTSHIFT.);
#36=IFCPROPERTYSINGLEVALUE('HoursPerDay',$,IFCREAL(8),$);
#37=IFCPROPERTYSET('qL5XmPUFgdlJ6X9$WtAtOZ',#6,'OPS_Calendar',$,(#36));
#38=IFCRELDEFINESBYPROPERTIES('bXh12hy$qvOdOP_VbbYntl',#6,$,$,(#35),#37);
#39=IFCWORKPLAN('$DQNG9a1_Z4hA5al9dmNo5',#6,'Cycle Tunnel, Arnhem Station','Underground cycle tunnel beneath a railway yard',$,$,'2026-09-11T17:47:46',$,$,$,$,$,'2027-03-01T07:00:00','2027-03-12T07:00:00',.PLANNED.);
#40=IFCWORKSCHEDULE('Y$txAnjXpRRX2JhndnPjkL',#6,'Construction schedule v1.0',$,$,$,'2026-09-11T17:47:46',$,$,$,$,$,'2027-03-01T07:00:00','2027-03-12T07:00:00',.PLANNED.);
#41=IFCRELAGGREGATES('X$Ph9TPtbVDd8te$ftI1sz',#6,$,$,#39,(#40));
#42=IFCTASKTIME('1. Preparation Time',.PREDICTED.,$,.WORKTIME.,'P0Y0M5D','2027-03-01T07:00:00','2027-03-05T07:00:00','2027-03-01T07:00:00','2027-04-02T07:00:00','2027-03-01T07:00:00','2027-06-25T07:00:00','P0Y0M0D','P0Y0M0D',.T.,$,$,$,$,$,0.00);
#43=IFCTASK('ErvTaFaHjN3NdTnX11zf_Z',#6,'1. Preparation',$,$,'1',$,$,$,.F.,$,#42,.CONSTRUCTION.);
#44=IFCTASKTIME('Divert cables and pipes Time',.PREDICTED.,$,.WORKTIME.,'P0Y0M8D','2027-03-01T07:00:00','2027-03-10T07:00:00','2027-03-01T07:00:00','2027-03-09T07:00:00','2027-03-01T07:00:00','2027-03-09T07:00:00','P0Y0M0D','P0Y0M0D',.T.,$,$,$,$,$,0.00);
#45=IFCTASK('5hwplXJn4bBFzRWX$ZCb37',#6,'Divert cables and pipes',$,$,'1.1',$,$,$,.F.,$,#44,.INSTALLATION.);
#46=IFCTASKTIME('Plan track possessions Time',.PREDICTED.,$,.WORKTIME.,'P0Y0M3D','2027-03-01T07:00:00','2027-03-03T07:00:00','2027-03-10T07:00:00','2027-03-12T07:00:00','2027-06-04T07:00:00','2027-06-07T07:00:00','P0Y0M0D','P0Y0M68D',.F.,$,$,$,$,$,0.00);
#47=IFCTASK('3JgzAr9fI1VRxlFXjxB16b',#6,'Plan track possessions',$,$,'1.2',$,$,$,.F.,$,#46,.ATTENDANCE.);
#48=IFCTASKTIME('Install sheet piling Time',.PREDICTED.,$,.WORKTIME.,'P0Y0M10D','2027-03-01T07:00:00','2027-03-12T07:00:00','2027-03-13T07:00:00','2027-03-24T07:00:00','2027-06-08T07:00:00','2027-06-18T07:00:00','P0Y0M0D','P0Y0M68D',.F.,$,$,$,$,$,0.00);
#49=IFCTASK('vhkxALBlRXb$ads113unb1',#6,'Install sheet piling',$,$,'1.3',$,$,$,.F.,$,#48,.CONSTRUCTION.);
#50=IFCTASKTIME('Set up site Time',.PREDICTED.,$,.WORKTIME.,'P0Y0M5D','2027-03-01T07:00:00','2027-03-05T07:00:00','2027-03-25T07:00:00','2027-04-01T07:00:00','2027-06-19T07:00:00','2027-06-24T07:00:00','P0Y0M0D','P0Y0M68D',.F.,$,$,$,$,$,0.00);
#51=IFCTASK('1pcNGPYFoF9bVx0XNJfLcB',#6,'Set up site',$,$,'1.4',$,$,$,.F.,$,#50,.LOGISTIC.);
#52=IFCTASKTIME('Start of construction Time',.PREDICTED.,$,.WORKTIME.,'P0Y0M0D','2027-03-01T07:00:00','2027-03-01T07:00:00','2027-04-02T07:00:00','2027-04-02T07:00:00','2027-06-25T07:00:00','2027-06-25T07:00:00','P0Y0M68D','P0Y0M68D',.F.,$,$,$,$,$,0.00);
#53=IFCTASK('AJZN8pv9JtHBixu17bwdDJ',#6,'Start of construction',$,$,'1.5',$,$,$,.T.,$,#52,.CONSTRUCTION.);
#54=IFCTASKTIME('2. Excavation pit Time',.PREDICTED.,$,.WORKTIME.,'P0Y0M5D','2027-03-01T07:00:00','2027-03-05T07:00:00','2027-03-16T07:00:00','2027-04-24T07:00:00','2027-03-16T07:00:00','2027-06-25T07:00:00','P0Y0M0D','P0Y0M0D',.T.,$,$,$,$,$,0.00);
#55=IFCTASK('qrvTqx$P$L15$$7$sXjvxr',#6,'2. Excavation pit',$,$,'2',$,$,$,.F.,$,#54,.CONSTRUCTION.);
#56=IFCTASKTIME('Install struts Time',.PREDICTED.,$,.WORKTIME.,'P0Y0M5D','2027-03-01T07:00:00','2027-03-05T07:00:00','2027-03-16T07:00:00','2027-03-20T07:00:00','2027-03-16T07:00:00','2027-03-20T07:00:00','P0Y0M0D','P0Y0M0D',.T.,$,$,$,$,$,0.00);
#57=IFCTASK('B9MP7r8vYJoBSd6$StoXG$',#6,'Install struts',$,$,'2.1',$,$,$,.F.,$,#56,.CONSTRUCTION.);
#58=IFCTASKTIME('Excavation, phase 1 Time',.PREDICTED.,$,.WORKTIME.,'P0Y0M10D','2027-03-01T07:00:00','2027-03-12T07:00:00','2027-03-22T07:00:00','2027-04-03T07:00:00','2027-05-25T07:00:00','2027-06-04T07:00:00','P0Y0M0D','P0Y0M49D',.F.,$,$,$,$,$,0.00);
#59=IFCTASK('3nLlDFqnOdFpS7Ql1XVbPr',#6,'Excavation, phase 1',$,$,'2.2',$,$,$,.F.,$,#58,.CONSTRUCTION.);
#60=IFCTASKTIME('Excavation, phase 2 Time',.PREDICTED.,$,.WORKTIME.,'P0Y0M8D','2027-03-01T07:00:00','2027-03-10T07:00:00','2027-04-05T07:00:00','2027-04-13T07:00:00','2027-06-05T07:00:00','2027-06-14T07:00:00','P0Y0M0D','P0Y0M49D',.F.,$,$,$,$,$,0.00);
#61=IFCTASK('BJ5Xi9T1EF$ZvjVVsXLXql',#6,'Excavation, phase 2',$,$,'2.3',$,$,$,.F.,$,#60,.CONSTRUCTION.);
#62=IFCTASKTIME('Groundwater dewatering Time',.PREDICTED.,$,.WORKTIME.,'P0Y0M5D','2027-03-01T07:00:00','2027-03-05T07:00:00','2027-04-14T07:00:00','2027-04-19T07:00:00','2027-06-15T07:00:00','2027-06-19T07:00:00','P0Y0M0D','P0Y0M49D',.F.,$,$,$,$,$,0.00);
#63=IFCTASK('gZz9Q9iVzFqZPZ1XgH5Vyh',#6,'Groundwater dewatering',$,$,'2.4',$,$,$,.F.,$,#62,.INSTALLATION.);
#64=IFCTASKTIME('Underwater concrete Time',.PREDICTED.,$,.WORKTIME.,'P0Y0M5D','2027-03-01T07:00:00','2027-03-05T07:00:00','2027-04-20T07:00:00','2027-04-24T07:00:00','2027-06-21T07:00:00','2027-06-25T07:00:00','P0Y0M49D','P0Y0M49D',.F.,$,$,$,$,$,0.00);
#65=IFCTASK('i5npxLxFWbx$qHBF$V7p0f',#6,'Underwater concrete',$,$,'2.5',$,$,$,.F.,$,#64,.CONSTRUCTION.);
#66=IFCTASKTIME('3. Tunnel structure Time',.PREDICTED.,$,.WORKTIME.,'P0Y0M5D','2027-03-01T07:00:00','2027-03-05T07:00:00','2027-03-18T07:00:00','2027-05-01T07:00:00','2027-03-18T07:00:00','2027-05-01T07:00:00','P0Y0M0D','P0Y0M0D',.T.,$,$,$,$,$,0.00);
#67=IFCTASK('a1dh5hZ$_Nw1431V4vqDGX',#6,'3. Tunnel structure',$,$,'3',$,$,$,.F.,$,#66,.CONSTRUCTION.);
#68=IFCTASKTIME('Tunnel box floor Time',.PREDICTED.,$,.WORKTIME.,'P0Y0M8D','2027-03-01T07:00:00','2027-03-10T07:00:00','2027-03-18T07:00:00','2027-03-27T07:00:00','2027-03-18T07:00:00','2027-03-27T07:00:00','P0Y0M0D','P0Y0M0D',.T.,$,$,$,$,$,0.00);
#69=IFCTASK('R5a3UbwXpvbXw$Zn2RXD4v',#6,'Tunnel box floor',$,$,'3.1',$,$,$,.F.,$,#68,.CONSTRUCTION.);
#70=IFCTASKTIME('Tunnel box walls Time',.PREDICTED.,$,.WORKTIME.,'P0Y0M10D','2027-03-01T07:00:00','2027-03-12T07:00:00','2027-03-30T07:00:00','2027-04-09T07:00:00','2027-03-30T07:00:00','2027-04-09T07:00:00','P0Y0M0D','P0Y0M0D',.T.,$,$,$,$,$,0.00);
#71=IFCTASK('_HlRSlOvGDYNn7knSNMZ9F',#6,'Tunnel box walls',$,$,'3.2',$,$,$,.F.,$,#70,.CONSTRUCTION.);
#72=IFCTASKTIME('Tunnel box roof Time',.PREDICTED.,$,.WORKTIME.,'P0Y0M8D','2027-03-01T07:00:00','2027-03-10T07:00:00','2027-04-10T07:00:00','2027-04-19T07:00:00','2027-04-10T07:00:00','2027-04-19T07:00:00','P0Y0M0D','P0Y0M0D',.T.,$,$,$,$,$,0.00);
#73=IFCTASK('azC5M$9fCTQpOPw1GH1JMp',#6,'Tunnel box roof',$,$,'3.3',$,$,$,.F.,$,#72,.CONSTRUCTION.);
#74=IFCTASKTIME('Waterproofing Time',.PREDICTED.,$,.WORKTIME.,'P0Y0M5D','2027-03-01T07:00:00','2027-03-05T07:00:00','2027-04-20T07:00:00','2027-04-24T07:00:00','2027-04-20T07:00:00','2027-04-24T07:00:00','P0Y0M0D','P0Y0M0D',.T.,$,$,$,$,$,0.00);
#75=IFCTASK('kbRHjVUFk$FLkbiHqzeX09',#6,'Waterproofing',$,$,'3.4',$,$,$,.F.,$,#74,.CONSTRUCTION.);
#76=IFCTASKTIME('Backfill and compact Time',.PREDICTED.,$,.WORKTIME.,'P0Y0M5D','2027-03-01T07:00:00','2027-03-05T07:00:00','2027-04-26T07:00:00','2027-05-01T07:00:00','2027-04-26T07:00:00','2027-05-01T07:00:00','P0Y0M0D','P0Y0M0D',.T.,$,$,$,$,$,0.00);
#77=IFCTASK('Atcf8jh$kXj72dg1FNUhAZ',#6,'Backfill and compact',$,$,'3.5',$,$,$,.F.,$,#76,.LOGISTIC.);
#78=IFCTASKTIME('4. Approach ramps Time',.PREDICTED.,$,.WORKTIME.,'P0Y0M5D','2027-03-01T07:00:00','2027-03-05T07:00:00','2027-04-23T07:00:00','2027-05-14T07:00:00','2027-04-23T07:00:00','2027-05-14T07:00:00','P0Y0M0D','P0Y0M0D',.T.,$,$,$,$,$,0.00);
#79=IFCTASK('vLYh1PM1MR3vY3$X4vyZ5H',#6,'4. Approach ramps',$,$,'4',$,$,$,.F.,$,#78,.CONSTRUCTION.);
#80=IFCTASKTIME('North approach ramp, concrete works Time',.PREDICTED.,$,.WORKTIME.,'P0Y0M8D','2027-03-01T07:00:00','2027-03-10T07:00:00','2027-04-23T07:00:00','2027-05-03T07:00:00','2027-04-23T07:00:00','2027-05-03T07:00:00','P0Y0M0D','P0Y0M0D',.T.,$,$,$,$,$,0.00);
#81=IFCTASK('gTTN8pNNUdyhor_Vhz1xPd',#6,'North approach ramp, concrete works',$,$,'4.1',$,$,$,.F.,$,#80,.CONSTRUCTION.);
#82=IFCTASKTIME('South approach ramp, concrete works Time',.PREDICTED.,$,.WORKTIME.,'P0Y0M8D','2027-03-01T07:00:00','2027-03-10T07:00:00','2027-04-28T07:00:00','2027-05-08T07:00:00','2027-04-28T07:00:00','2027-05-08T07:00:00','P0Y0M0D','P0Y0M0D',.T.,$,$,$,$,$,0.00);
#83=IFCTASK('1p6twvcvijK3Fpt$lhPjs3',#6,'South approach ramp, concrete works',$,$,'4.2',$,$,$,.F.,$,#82,.CONSTRUCTION.);
#84=IFCTASKTIME('Cycle path ramp Time',.PREDICTED.,$,.WORKTIME.,'P0Y0M5D','2027-03-01T07:00:00','2027-03-05T07:00:00','2027-05-10T07:00:00','2027-05-14T07:00:00','2027-05-10T07:00:00','2027-05-14T07:00:00','P0Y0M0D','P0Y0M0D',.T.,$,$,$,$,$,0.00);
#85=IFCTASK('8DvZebIHTDWlTfGX_NMZXT',#6,'Cycle path ramp',$,$,'4.3',$,$,$,.F.,$,#84,.CONSTRUCTION.);
#86=IFCTASKTIME('5. Building services & finishing Time',.PREDICTED.,$,.WORKTIME.,'P0Y0M5D','2027-03-01T07:00:00','2027-03-05T07:00:00','2027-05-15T07:00:00','2027-06-15T07:00:00','2027-05-15T07:00:00','2027-06-15T07:00:00','P0Y0M0D','P0Y0M0D',.T.,$,$,$,$,$,0.00);
#87=IFCTASK('ixfbeZ9fIV3NTN0XXnbFLf',#6,'5. Building services & finishing',$,$,'5',$,$,$,.F.,$,#86,.CONSTRUCTION.);
#88=IFCTASKTIME('Tunnel lighting Time',.PREDICTED.,$,.WORKTIME.,'P0Y0M5D','2027-03-01T07:00:00','2027-03-05T07:00:00','2027-05-15T07:00:00','2027-05-21T07:00:00','2027-05-15T07:00:00','2027-05-21T07:00:00','P0Y0M0D','P0Y0M0D',.T.,$,$,$,$,$,0.00);
#89=IFCTASK('Ixt5oTNN0Lb$8nxH0PiJ6$',#6,'Tunnel lighting',$,$,'5.1',$,$,$,.F.,$,#88,.INSTALLATION.);
#90=IFCTASKTIME('Pump installation Time',.PREDICTED.,$,.WORKTIME.,'P0Y0M5D','2027-03-01T07:00:00','2027-03-05T07:00:00','2027-05-22T07:00:00','2027-05-27T07:00:00','2027-05-22T07:00:00','2027-05-27T07:00:00','P0Y0M0D','P0Y0M0D',.T.,$,$,$,$,$,0.00);
#91=IFCTASK('tJz927dtHXkdWDblUP4h2X',#6,'Pump installation',$,$,'5.2',$,$,$,.F.,$,#90,.INSTALLATION.);
#92=IFCTASKTIME('Ventilation Time',.PREDICTED.,$,.WORKTIME.,'P0Y0M3D','2027-03-01T07:00:00','2027-03-03T07:00:00','2027-05-28T07:00:00','2027-05-31T07:00:00','2027-05-28T07:00:00','2027-05-31T07:00:00','P0Y0M0D','P0Y0M0D',.T.,$,$,$,$,$,0.00);
#93=IFCTASK('R$lJbVpFMbx1qB6$qzmtWP',#6,'Ventilation',$,$,'5.3',$,$,$,.F.,$,#92,.INSTALLATION.);
#94=IFCTASKTIME('Tiling and wall finishes Time',.PREDICTED.,$,.WORKTIME.,'P0Y0M8D','2027-03-01T07:00:00','2027-03-10T07:00:00','2027-06-01T07:00:00','2027-06-09T07:00:00','2027-06-01T07:00:00','2027-06-09T07:00:00','P0Y0M0D','P0Y0M0D',.T.,$,$,$,$,$,0.00);
#95=IFCTASK('fP0tUbEld7Ot7V$XyrR1Up',#6,'Tiling and wall finishes',$,$,'5.4',$,$,$,.F.,$,#94,.CONSTRUCTION.);
#96=IFCTASKTIME('Cycle path asphalt Time',.PREDICTED.,$,.WORKTIME.,'P0Y0M3D','2027-03-01T07:00:00','2027-03-03T07:00:00','2027-06-10T07:00:00','2027-06-12T07:00:00','2027-06-10T07:00:00','2027-06-12T07:00:00','P0Y0M0D','P0Y0M0D',.T.,$,$,$,$,$,0.00);
#97=IFCTASK('QRWNmdYFkLrnDzBnrfgTDj',#6,'Cycle path asphalt',$,$,'5.5',$,$,$,.F.,$,#96,.CONSTRUCTION.);
#98=IFCTASKTIME('Signage Time',.PREDICTED.,$,.WORKTIME.,'P0Y0M2D','2027-03-01T07:00:00','2027-03-02T07:00:00','2027-06-14T07:00:00','2027-06-15T07:00:00','2027-06-14T07:00:00','2027-06-15T07:00:00','P0Y0M0D','P0Y0M0D',.T.,$,$,$,$,$,0.00);
#99=IFCTASK('VzKjfl09pPvhoBUVxlTtqH',#6,'Signage',$,$,'5.6',$,$,$,.F.,$,#98,.INSTALLATION.);
#100=IFCTASKTIME('6. Handover Time',.PREDICTED.,$,.WORKTIME.,'P0Y0M5D','2027-03-01T07:00:00','2027-03-05T07:00:00','2027-06-16T07:00:00','2027-06-25T07:00:00','2027-06-16T07:00:00','2027-06-25T07:00:00','P0Y0M0D','P0Y0M0D',.T.,$,$,$,$,$,0.00);
#101=IFCTASK('U1fR4zKF2z8NZNe1OJd5b$',#6,'6. Handover',$,$,'6',$,$,$,.F.,$,#100,.CONSTRUCTION.);
#102=IFCTASKTIME('Reinstate track Time',.PREDICTED.,$,.WORKTIME.,'P0Y0M5D','2027-03-01T07:00:00','2027-03-05T07:00:00','2027-06-16T07:00:00','2027-06-21T07:00:00','2027-06-16T07:00:00','2027-06-21T07:00:00','P0Y0M0D','P0Y0M0D',.T.,$,$,$,$,$,0.00);
#103=IFCTASK('5HhH7LCFOvp9JDxHCFlrqz',#6,'Reinstate track',$,$,'6.1',$,$,$,.F.,$,#102,.CONSTRUCTION.);
#104=IFCTASKTIME('Testing and inspection Time',.PREDICTED.,$,.WORKTIME.,'P0Y0M3D','2027-03-01T07:00:00','2027-03-03T07:00:00','2027-06-22T07:00:00','2027-06-24T07:00:00','2027-06-22T07:00:00','2027-06-24T07:00:00','P0Y0M0D','P0Y0M0D',.T.,$,$,$,$,$,0.00);
#105=IFCTASK('phjPz7lvWxf5fRmXUBDPZx',#6,'Testing and inspection',$,$,'6.2',$,$,$,.F.,$,#104,.ATTENDANCE.);
#106=IFCTASKTIME('Tunnel open to traffic Time',.PREDICTED.,$,.WORKTIME.,'P0Y0M0D','2027-03-01T07:00:00','2027-03-01T07:00:00','2027-06-25T07:00:00','2027-06-25T07:00:00','2027-06-25T07:00:00','2027-06-25T07:00:00','P0Y0M0D','P0Y0M0D',.T.,$,$,$,$,$,0.00);
#107=IFCTASK('3npvh9S1sBZt$h_ntPGtiJ',#6,'Tunnel open to traffic',$,$,'6.3',$,$,$,.T.,$,#106,.CONSTRUCTION.);
#108=IFCRELNESTS('vHp7779fa$nL_dkX25r$MN',#6,'WBS 1. Preparation',$,#43,( #45,#47,#49,#51,#53));
#109=IFCRELNESTS('xlBnv7FvANb$K$Jn5nPJYD',#6,'WBS 2. Excavation pit',$,#55,( #57,#59,#61,#63,#65));
#110=IFCRELNESTS('TZ0tQD2Nwluv2PIVkZCRn$',#6,'WBS 3. Tunnel structure',$,#67,( #69,#71,#73,#75,#77));
#111=IFCRELNESTS('EPwpnFhHhJ2bLN4n$XfTht',#6,'WBS 4. Approach ramps',$,#79,( #81,#83,#85));
#112=IFCRELNESTS('R$V3o3xFKjyL_j3Hojs9qF',#6,'WBS 5. Building services & finishing',$,#87,( #89,#91,#93,#95,#97,#99));
#113=IFCRELNESTS('RbuVK9DXp7ZdCrYXBNAzjX',#6,'WBS 6. Handover',$,#101,( #103,#105,#107));
#114=IFCRELNESTS('tjjP5r1vgdnD4TBHzDgTrv',#6,'WBS Hoofd',$,#40,(#43,#55,#67,#79,#87,#101));
#115=IFCRELSEQUENCE('q9s7NlO7G3Wl9honITK5N$',#6,$,$,#45,#47,$,.FINISH_START.,$);
#116=IFCRELSEQUENCE('1JATOb_F0hxXs7EnYPqbVd',#6,$,$,#47,#49,$,.FINISH_START.,$);
#117=IFCRELSEQUENCE('LTh1EZX7S17p03rn7xA3NZ',#6,$,$,#49,#51,$,.FINISH_START.,$);
#118=IFCRELSEQUENCE('gzdLT9pVZV29rvcHJ5z94d',#6,$,$,#51,#53,$,.FINISH_START.,$);
#119=IFCRELSEQUENCE('lfGv1Ze74bjNfb0Xt3fTPv',#6,$,$,#57,#59,$,.FINISH_START.,$);
#120=IFCRELSEQUENCE('ZTWNGvktzzQVsPc1MnvDqz',#6,$,$,#59,#61,$,.FINISH_START.,$);
#121=IFCRELSEQUENCE('3nhlV9ylfbBFz54H1VFhMD',#6,$,$,#61,#63,$,.FINISH_START.,$);
#122=IFCRELSEQUENCE('R$vrbXr1Kf_93bGXmVtzVv',#6,$,$,#63,#65,$,.FINISH_START.,$);
#123=IFCRELSEQUENCE('A9gdPRYFYp6$i5O1HBT9KX',#6,$,$,#69,#71,$,.FINISH_START.,$);
#124=IFCRELSEQUENCE('a1vrhNe7SVLH7J1XuhmfAv',#6,$,$,#71,#73,$,.FINISH_START.,$);
#125=IFCRELSEQUENCE('pLD7LtqVV7TdOVxFIVvpup',#6,$,$,#73,#75,$,.FINISH_START.,$);
#126=IFCRELSEQUENCE('bx4rnB9fI$XRnDHXDvelln',#6,$,$,#75,#77,$,.FINISH_START.,$);
#127=IFCLAGTIME('Lag',.PREDICTED.,$,IFCDURATION('P3D'),.WORKTIME.);
#128=IFCRELSEQUENCE('zln5UfPthP4pGx4HND5HTf',#6,$,$,#81,#83,#127,.START_START.,$);
#129=IFCRELSEQUENCE('$l$BVJIlX73vwDLlzFbFB7',#6,$,$,#83,#85,$,.FINISH_START.,$);
#130=IFCRELSEQUENCE('Y$vrNF4$GDgFPn$Xwtk$o9',#6,$,$,#89,#91,$,.FINISH_START.,$);
#131=IFCRELSEQUENCE('OxCpTNtfAtHBajbnyBrFfV',#6,$,$,#91,#93,$,.FINISH_START.,$);
#132=IFCRELSEQUENCE('e5qpzdDFwluN3dg$HdixZb',#6,$,$,#93,#95,$,.FINISH_START.,$);
#133=IFCRELSEQUENCE('3l7T41gdHjaru9WVPlR1_$',#6,$,$,#95,#97,$,.FINISH_START.,$);
#134=IFCRELSEQUENCE('ezPhfJDnEFtb$rEXm$Z9Gn',#6,$,$,#97,#99,$,.FINISH_START.,$);
#135=IFCRELSEQUENCE('6rQNOzpX7NAlvDblQTzNcF',#6,$,$,#103,#105,$,.FINISH_START.,$);
#136=IFCRELSEQUENCE('eROl1ds145dBmLknuT3fUl',#6,$,$,#105,#107,$,.FINISH_START.,$);
#137=IFCLAGTIME('Lag',.PREDICTED.,$,IFCDURATION('P13D'),.WORKTIME.);
#138=IFCRELSEQUENCE('2DsvrdcVFH0nHzd$LTR1Yl',#6,$,$,#45,#57,#137,.START_START.,$);
#139=IFCLAGTIME('Lag',.PREDICTED.,$,IFCRATIOMEASURE(0.4),.WORKTIME.);
#140=IFCRELSEQUENCE('W1$TKLLlPdCxfxKn_NcD0N',#6,$,$,#57,#69,#139,.START_START.,$);
#141=IFCLAGTIME('Lag',.PREDICTED.,$,IFCDURATION('-P7D'),.WORKTIME.);
#142=IFCRELSEQUENCE('RVL1Ip9fKt2bHzd$znjvBT',#6,$,$,#77,#81,#141,.FINISH_START.,$);
#143=IFCLAGTIME('Lag',.PREDICTED.,$,IFCDURATION('P2D'),.WORKTIME.);
#144=IFCRELSEQUENCE('SZWfOxotBTibf76H$Ti5DD',#6,$,$,#77,#85,#143,.FINISH_FINISH.,$);
#145=IFCRELSEQUENCE('mdM3wdA1uXEvkx0Vn9oXWv',#6,$,$,#85,#89,$,.FINISH_START.,$);
#146=IFCRELSEQUENCE('WVz96dklVvLlRL6lVpobZN',#6,$,$,#99,#103,$,.FINISH_START.,$);
#147=IFCRELASSIGNSTOCONTROL('rDVhNjbXHjyDCF$VkTSruD',#6,$,$,(#43,#45,#47,#49,#51,#53,#55,#57,#59,#61,#63,#65,#67,#69,#71,#73,#75,#77,#79,#81,#83,#85,#87,#89,#91,#93,#95,#97,#99,#101,#103,#105,#107),$,#40);
#148=IFCPROPERTYSINGLEVALUE('InternalProjectId',$,IFCTEXT('proj-mtx91gnkxtyk2365'),$);
#149=IFCPROPERTYSINGLEVALUE('wbsAutoNumber',$,IFCBOOLEAN(.T.),$);
#150=IFCPROPERTYSINGLEVALUE('DefaultTaskDurationUnit',$,IFCLABEL('days'),$);
#151=IFCPROPERTYSINGLEVALUE('ProjectStartDate',$,IFCDATE('2027-03-01'),$);
#152=IFCPROPERTYSINGLEVALUE('ProjectEndDate',$,$,$);
#153=IFCPROPERTYSINGLEVALUE('CreatedAt',$,IFCTEXT('2026-09-11T17:47:46.448Z'),$);
#154=IFCPROPERTYSINGLEVALUE('ModifiedAt',$,IFCTEXT('2026-09-11T17:47:46.450Z'),$);
#155=IFCPROPERTYSET('e5a3ArlP$tNZvpDF1ZK5n5',#6,'OPS_ProjectSettings',$,(#148,#149,#150,#151,#152,#153,#154));
#156=IFCRELDEFINESBYPROPERTIES('0Hdzo1sPJhdjQlBF$1BF9l',#6,$,$,(#13),#155);
#157=IFCPROPERTYSINGLEVALUE('InternalTaskId',$,IFCTEXT('task-mtx91gnnlr892366'),$);
#158=IFCPROPERTYSET('F7wtYRoH9$djEhknW9k1cn',#6,'OPS_TaskIdentity',$,(#157));
#159=IFCRELDEFINESBYPROPERTIES('8hobihxFmzG1e11VMrSrij',#6,$,$,(#43),#158);
#160=IFCPROPERTYSINGLEVALUE('InternalTaskId',$,IFCTEXT('task-mtx91gnpu5a22367'),$);
#161=IFCPROPERTYSET('UzCxsFZ$gdnpCLQlT3GtOZ',#6,'OPS_TaskIdentity',$,(#160));
#162=IFCRELDEFINESBYPROPERTIES('bXZNCR3HXPnpWppFBjlzZN',#6,$,$,(#45),#161);
#163=IFCPROPERTYSINGLEVALUE('InternalTaskId',$,IFCTEXT('task-mtx91gnqr7wc2368'),$);
#164=IFCPROPERTYSET('W1HjzrO7utdJEBs$97azRx',#6,'OPS_TaskIdentity',$,(#163));
#165=IFCRELDEFINESBYPROPERTIES('dV5nHbRVXRBnhNyH1$3NAv',#6,$,$,(#47),#164);
#166=IFCPROPERTYSINGLEVALUE('InternalTaskId',$,IFCTEXT('task-mtx91gnrpbmf2369'),$);
#167=IFCPROPERTYSET('azibW1F7khT971jFpLPjUn',#6,'OPS_TaskIdentity',$,(#166));
#168=IFCRELDEFINESBYPROPERTIES('TVz9cp2f6ZkhUz71Pra3lH',#6,$,$,(#49),#167);
#169=IFCPROPERTYSINGLEVALUE('InternalTaskId',$,IFCTEXT('task-mtx91gnt2srj2370'),$);
#170=IFCPROPERTYSET('YXRHhJA1W5tRZBQ$Yv8$sz',#6,'OPS_TaskIdentity',$,(#169));
#171=IFCRELDEFINESBYPROPERTIES('fzFp7BuPpdV3xlHV1ZCR5r',#6,$,$,(#51),#170);
#172=IFCPROPERTYSINGLEVALUE('InternalTaskId',$,IFCTEXT('task-mtx91gnvanzn2371'),$);
#173=IFCPROPERTYSET('JbTN0H9fQJi3Xx0Vjxzt47',#6,'OPS_TaskIdentity',$,(#172));
#174=IFCRELDEFINESBYPROPERTIES('qt6tg1lvWRhlnvon2NgZbX',#6,$,$,(#53),#173);
#175=IFCPROPERTYSINGLEVALUE('InternalTaskId',$,IFCTEXT('task-mtx91gnw1rtt2372'),$);
#176=IFCPROPERTYSET('Hx1TK9jXHXkP4fO$0dyh23',#6,'OPS_TaskIdentity',$,(#175));
#177=IFCRELDEFINESBYPROPERTIES('sf_Bvdjnu9fT7jd1t7CDyP',#6,$,$,(#55),#176);
#178=IFCPROPERTYSINGLEVALUE('InternalTaskId',$,IFCTEXT('task-mtx91gnxo4ru2373'),$);
#179=IFCPROPERTYSET('ebmP7hS1IhxVUt8$cz$5L9',#6,'OPS_TaskIdentity',$,(#178));
#180=IFCRELDEFINESBYPROPERTIES('VTGPb5XPh78Nj$bHwjvbNZ',#6,$,$,(#57),#179);
#181=IFCPROPERTYSINGLEVALUE('InternalTaskId',$,IFCTEXT('task-mtx91gnzxvc82374'),$);
#182=IFCPROPERTYSET('Q$FpplWtlVUNH9e1ODztiX',#6,'OPS_TaskIdentity',$,(#181));
#183=IFCRELDEFINESBYPROPERTIES('JRRH1doHPv0FnDf$FfI579',#6,$,$,(#59),#182);
#184=IFCPROPERTYSINGLEVALUE('InternalTaskId',$,IFCTEXT('task-mtx91go0nuy72375'),$);
#185=IFCPROPERTYSET('I5$Ty$cvqvmVsxaHN9wP79',#6,'OPS_TaskIdentity',$,(#184));
#186=IFCRELDEFINESBYPROPERTIES('Bf_BFBXvipWHh3t1W9s9yh',#6,$,$,(#61),#185);
#187=IFCPROPERTYSINGLEVALUE('InternalTaskId',$,IFCTEXT('task-mtx91go2pm3w2376'),$);
#188=IFCPROPERTYSET('pLzt_rGfyljNNR8$RXRFTx',#6,'OPS_TaskIdentity',$,(#187));
#189=IFCRELDEFINESBYPROPERTIES('KdWNO5AdDx9b7VXVAXB$gD',#6,$,$,(#63),#188);
#190=IFCPROPERTYSINGLEVALUE('InternalTaskId',$,IFCTEXT('task-mtx91go3gkxu2377'),$);
#191=IFCPROPERTYSET('nrtpjXUFMR37Yz$VStEXW7',#6,'OPS_TaskIdentity',$,(#190));
#192=IFCRELDEFINESBYPROPERTIES('M7Kjzh4HDbrFPlDH1zu$sz',#6,$,$,(#65),#191);
#193=IFCPROPERTYSINGLEVALUE('InternalTaskId',$,IFCTEXT('task-mtx91go50f7w2378'),$);
#194=IFCPROPERTYSET('7FVhJV2FqdKzXxWXD7073v',#6,'OPS_TaskIdentity',$,(#193));
#195=IFCRELDEFINESBYPROPERTIES('orXLvBGfgvrnhfSnBjVpuj',#6,$,$,(#67),#194);
#196=IFCPROPERTYSINGLEVALUE('InternalTaskId',$,IFCTEXT('task-mtx91go7jpgk2379'),$);
#197=IFCPROPERTYSET('_jM3YxothDAHFdUX75kxnb',#6,'OPS_TaskIdentity',$,(#196));
#198=IFCRELDEFINESBYPROPERTIES('xFlbyVQXhv8fTt4n5nXbpF',#6,$,$,(#69),#197);
#199=IFCPROPERTYSINGLEVALUE('InternalTaskId',$,IFCTEXT('task-mtx91go8ic8x2380'),$);
#200=IFCPROPERTYSET('b$HJ3r0tNF7hgroVCT4Lk7',#6,'OPS_TaskIdentity',$,(#199));
#201=IFCRELDEFINESBYPROPERTIES('iRZNO5gPBz0Ft9KF2f_rup',#6,$,$,(#71),#200);
#202=IFCPROPERTYSINGLEVALUE('InternalTaskId',$,IFCTEXT('task-mtx91goawdz72381'),$);
#203=IFCPROPERTYSET('$Dwt_hqFC78N3voFQPunJz',#6,'OPS_TaskIdentity',$,(#202));
#204=IFCRELDEFINESBYPROPERTIES('6nlRq59f8frF5lN1QvazzP',#6,$,$,(#73),#203);
#205=IFCPROPERTYSINGLEVALUE('InternalTaskId',$,IFCTEXT('task-mtx91gocv2yv2382'),$);
#206=IFCPROPERTYSET('lf8FP9BHZpmVMN0Vhv4LMp',#6,'OPS_TaskIdentity',$,(#205));
#207=IFCRELDEFINESBYPROPERTIES('eRunL9CnOFaJsv2n$zG9K1',#6,$,$,(#75),#206);
#208=IFCPROPERTYSINGLEVALUE('InternalTaskId',$,IFCTEXT('task-mtx91god1zrh2383'),$);
#209=IFCPROPERTYSET('P5KjxnRFEbjNzdYVVFDd1J',#6,'OPS_TaskIdentity',$,(#208));
#210=IFCRELDEFINESBYPROPERTIES('W$nDlXL$UvWHLTRH_fcD0t',#6,$,$,(#77),#209);
#211=IFCPROPERTYSINGLEVALUE('InternalTaskId',$,IFCTEXT('task-mtx91gofi5wj2384'),$);
#212=IFCPROPERTYSET('a34rtVkl1fhlJ1xlOxYL6X',#6,'OPS_TaskIdentity',$,(#211));
#213=IFCRELDEFINESBYPROPERTIES('TXDdz79Ni9wjoVTHqFvpmF',#6,$,$,(#79),#212);
#214=IFCPROPERTYSINGLEVALUE('InternalTaskId',$,IFCTEXT('task-mtx91gohughc2385'),$);
#215=IFCPROPERTYSET('DLZf0Hvtt1tzpZXXKpwJch',#6,'OPS_TaskIdentity',$,(#214));
#216=IFCRELDEFINESBYPROPERTIES('id09g1F7g5$Th3VVQZZ98j',#6,$,$,(#81),#215);
#217=IFCPROPERTYSINGLEVALUE('InternalTaskId',$,IFCTEXT('task-mtx91goixsn32386'),$);
#218=IFCPROPERTYSET('YXxnVDQvu1U5XHFV9zVR1f',#6,'OPS_TaskIdentity',$,(#217));
#219=IFCRELDEFINESBYPROPERTIES('fzHjzhqF45N5ZNmXYLFL_X',#6,$,$,(#83),#218);
#220=IFCPROPERTYSINGLEVALUE('InternalTaskId',$,IFCTEXT('task-mtx91gokyk9m2387'),$);
#221=IFCPROPERTYSET('h31Z0l9N296jsdUVvxMZJz',#6,'OPS_TaskIdentity',$,(#220));
#222=IFCRELDEFINESBYPROPERTIES('EPIxAnrHD5FDWjv$XFr$w1',#6,$,$,(#85),#221);
#223=IFCPROPERTYSINGLEVALUE('InternalTaskId',$,IFCTEXT('task-mtx91gonvkb32388'),$);
#224=IFCPROPERTYSET('nBlbmdM$MxX3V581UBBFht',#6,'OPS_TaskIdentity',$,(#223));
#225=IFCRELDEFINESBYPROPERTIES('g7q5ctS1I$1xx5WVn5xlVv',#6,$,$,(#87),#224);
#226=IFCPROPERTYSINGLEVALUE('InternalTaskId',$,IFCTEXT('task-mtx91goo3anf2389'),$);
#227=IFCPROPERTYSET('H9Kj7PDncDOPmbO$OxMTFx',#6,'OPS_TaskIdentity',$,(#226));
#228=IFCRELDEFINESBYPROPERTIES('exijxHv9RLrnR1f1r9oVuj',#6,$,$,(#89),#227);
#229=IFCPROPERTYSINGLEVALUE('InternalTaskId',$,IFCTEXT('task-mtx91gor2kcr2390'),$);
#230=IFCPROPERTYSET('KxnD1PQVrNw103BFnNA3N3',#6,'OPS_TaskIdentity',$,(#229));
#231=IFCRELDEFINESBYPROPERTIES('pd2BJZ9NoxdBmBw18zVRjV',#6,$,$,(#91),#230);
#232=IFCPROPERTYSINGLEVALUE('InternalTaskId',$,IFCTEXT('task-mtx91gotl98l2391'),$);
#233=IFCPROPERTYSET('uJrnJ3bFcXQXI581T3OlN3',#6,'OPS_TaskIdentity',$,(#232));
#234=IFCRELDEFINESBYPROPERTIES('FhrnXpcvqzgFXbyH3JUnXZ',#6,$,$,(#93),#233);
#235=IFCPROPERTYSINGLEVALUE('InternalTaskId',$,IFCTEXT('task-mtx91gov2k0g2392'),$);
#236=IFCPROPERTYSET('6rwtUxAPFHWltBQ1gh8ndv',#6,'OPS_TaskIdentity',$,(#235));
#237=IFCRELDEFINESBYPROPERTIES('1FTfiflPTjSrmhEFQvix1D',#6,$,$,(#95),#236);
#238=IFCPROPERTYSINGLEVALUE('InternalTaskId',$,IFCTEXT('task-mtx91goxwf8y2393'),$);
#239=IFCPROPERTYSET('3jsTuhiVTVo7g9KnQzfTb1',#6,'OPS_TaskIdentity',$,(#238));
#240=IFCRELDEFINESBYPROPERTIES('4lztwZedNxN5nv2FRxYhIP',#6,$,$,(#97),#239);
#241=IFCPROPERTYSINGLEVALUE('InternalTaskId',$,IFCTEXT('task-mtx91gozb1or2394'),$);
#242=IFCPROPERTYSET('_lVh$7I9rNE7IbCHwjd5RV',#6,'OPS_TaskIdentity',$,(#241));
#243=IFCRELDEFINESBYPROPERTIES('9DVLDFa1srLHbLUnRXhXKV',#6,$,$,(#99),#242);
#244=IFCPROPERTYSINGLEVALUE('InternalTaskId',$,IFCTEXT('task-mtx91gp148rl2395'),$);
#245=IFCPROPERTYSET('5FfjJTffelm$KXlVF5394L',#6,'OPS_TaskIdentity',$,(#244));
#246=IFCRELDEFINESBYPROPERTIES('qrNJvPDFgPvLghQHtzPjkd',#6,$,$,(#101),#245);
#247=IFCPROPERTYSINGLEVALUE('InternalTaskId',$,IFCTEXT('task-mtx91gp3v2fh2396'),$);
#248=IFCPROPERTYSET('O3PLdbcXbXBnv1BljxhVCH',#6,'OPS_TaskIdentity',$,(#247));
#249=IFCRELDEFINESBYPROPERTIES('HbDdxr17UdC5Vlv$vbA9m1',#6,$,$,(#103),#248);
#250=IFCPROPERTYSINGLEVALUE('InternalTaskId',$,IFCTEXT('task-mtx91gp5fgfh2397'),$);
#251=IFCPROPERTYSET('mvY$ALRFg5tRbVBFHdCbz7',#6,'OPS_TaskIdentity',$,(#250));
#252=IFCRELDEFINESBYPROPERTIES('tN2rr7QvKjibhtu13D2rWv',#6,$,$,(#105),#251);
#253=IFCPROPERTYSINGLEVALUE('InternalTaskId',$,IFCTEXT('task-mtx91gp7zx4l2398'),$);
#254=IFCPROPERTYSET('Q$7BhfuPdPajU98$VFLVG1',#6,'OPS_TaskIdentity',$,(#253));
#255=IFCRELDEFINESBYPROPERTIES('JRjvXjs1ShVbL9mVKjEV4B',#6,$,$,(#107),#254);
#256=IFCPROPERTYSINGLEVALUE('MilestoneKind',$,IFCLABEL('START'),$);
#257=IFCPROPERTYSET('U3azw3CFifYfjXf16p5HNz',#6,'OPS_Milestone',$,(#256));
#258=IFCRELDEFINESBYPROPERTIES('tf6p3PbVZX_tZBQ1gheHxr',#6,$,$,(#53),#257);
ENDSEC;
END-ISO-10303-21;
