ISO-10303-21;
HEADER;
FILE_DESCRIPTION(('ViewDefinition [SchedulingView]'),'2;1');
FILE_NAME('Markermeerdijk Dike Reinforcement.ifc','2026-09-03T17:33:18',('Dirk Waterschap'),('Hydraulic Engineering Holland BV'),'Open Planner Studio 0.1','Open Planner Studio','');
FILE_SCHEMA(('IFC4X3'));
ENDSEC;
DATA;
#1=IFCPERSON($,'Dirk Waterschap',$,$,$,$,$,$);
#2=IFCORGANIZATION($,'Hydraulic Engineering Holland BV',$,$,$);
#3=IFCPERSONANDORGANIZATION(#1,#2,$);
#4=IFCORGANIZATION($,'OpenAEC Foundation',$,$,$);
#5=IFCAPPLICATION(#4,'0.1','Open Planner Studio','OPS');
#6=IFCOWNERHISTORY(#3,#5,$,.NOCHANGE.,$,$,$,1788456798);
#7=IFCSIUNIT(*,.LENGTHUNIT.,$,.METRE.);
#8=IFCSIUNIT(*,.TIMEUNIT.,$,.SECOND.);
#9=IFCUNITASSIGNMENT((#7,#8));
#10=IFCCARTESIANPOINT((0.,0.,0.));
#11=IFCAXIS2PLACEMENT3D(#10,$,$);
#12=IFCGEOMETRICREPRESENTATIONCONTEXT($,'Plan',3,1.0E-05,#11,$);
#13=IFCPROJECT('5lLlFHP9RXDdClzHwfoRPB',#6,'Markermeerdijk Dike Reinforcement','Dike reinforcement over a 5 km stretch, Hoorn-Amsterdam',$,$,$,(#12),#9);
#14=IFCTIMEPERIOD('07:00:00','16:00:00');
#15=IFCRECURRENCEPATTERN(.WEEKLY.,$,(1,2,3,4,5,6),$,$,$,$,(#14));
#16=IFCWORKTIME('Standard work week',.PREDICTED.,$,#15,$,$);
#17=IFCWORKTIME('New Year''s Day',.PREDICTED.,$,$,'2027-01-01','2027-01-01');
#18=IFCWORKTIME('Good Friday',.PREDICTED.,$,$,'2027-03-26','2027-03-26');
#19=IFCWORKTIME('Easter',.PREDICTED.,$,$,'2027-03-28','2027-03-29');
#20=IFCWORKTIME('King''s Day',.PREDICTED.,$,$,'2027-04-27','2027-04-27');
#21=IFCWORKTIME('Liberation Day',.PREDICTED.,$,$,'2027-05-05','2027-05-05');
#22=IFCWORKTIME('Ascension Day',.PREDICTED.,$,$,'2027-05-06','2027-05-06');
#23=IFCWORKTIME('Whitsun',.PREDICTED.,$,$,'2027-05-16','2027-05-17');
#24=IFCWORKTIME('Christmas',.PREDICTED.,$,$,'2027-12-25','2027-12-26');
#25=IFCWORKTIME('Construction holiday (northern region)',.PREDICTED.,$,$,'2027-07-26','2027-08-15');
#26=IFCWORKTIME('New Year''s Day',.PREDICTED.,$,$,'2028-01-01','2028-01-01');
#27=IFCWORKTIME('Good Friday',.PREDICTED.,$,$,'2028-04-14','2028-04-14');
#28=IFCWORKTIME('Easter',.PREDICTED.,$,$,'2028-04-16','2028-04-17');
#29=IFCWORKTIME('King''s Day',.PREDICTED.,$,$,'2028-04-27','2028-04-27');
#30=IFCWORKTIME('Liberation Day',.PREDICTED.,$,$,'2028-05-05','2028-05-05');
#31=IFCWORKTIME('Ascension Day',.PREDICTED.,$,$,'2028-05-25','2028-05-25');
#32=IFCWORKTIME('Whitsun',.PREDICTED.,$,$,'2028-06-04','2028-06-05');
#33=IFCWORKTIME('Christmas',.PREDICTED.,$,$,'2028-12-25','2028-12-26');
#34=IFCWORKTIME('Construction holiday (northern region)',.PREDICTED.,$,$,'2028-07-24','2028-08-13');
#35=IFCWORKCALENDAR('_HlbW$VPl1Yxnv_nBDbFBd',#6,'Infrastructure calendar Mon-Sat','Infrastructure/hydraulic works: Mon-Sat',$,(#16),(#17,#18,#19,#20,#21,#22,#23,#24,#25,#26,#27,#28,#29,#30,#31,#32,#33,#34),.FIRSTSHIFT.);
#36=IFCPROPERTYSINGLEVALUE('HoursPerDay',$,IFCREAL(8),$);
#37=IFCPROPERTYSET('qL5XmPUFgdlJ6X9$WtAtOZ',#6,'OPS_Calendar',$,(#36));
#38=IFCRELDEFINESBYPROPERTIES('bXh12hy$qvOdOP_VbbYntl',#6,$,$,(#35),#37);
#39=IFCWORKPLAN('jtqx67ktD5N5BjjHlPqpyr',#6,'Markermeerdijk Dike Reinforcement','Dike reinforcement over a 5 km stretch, Hoorn-Amsterdam',$,$,'2026-09-03T17:33:18',$,$,$,$,$,'2027-03-01T07:00:00','2027-03-26T07:00:00',.PLANNED.);
#40=IFCWORKSCHEDULE('A9wtsl7tZ$2bnjxns52B8R',#6,'Construction schedule v1.0',$,$,$,'2026-09-03T17:33:18',$,$,$,$,$,'2027-03-01T07:00:00','2027-03-26T07:00:00',.PLANNED.);
#41=IFCRELAGGREGATES('X$Ph9TPtbVDd8te$ftI1sz',#6,$,$,#39,(#40));
#42=IFCTASKTIME('1. Preparation Time',.PREDICTED.,$,.WORKTIME.,'P0Y0M5D','2027-03-01T07:00:00','2027-03-05T07:00:00','2027-03-01T07:00:00','2027-04-13T07:00:00','2027-03-01T07:00:00','2027-10-23T07:00:00','P0Y0M0D','P0Y0M0D',.T.,$,$,$,$,$,0.00);
#43=IFCTASK('Oxqp$7w7YpYfrpVXu3VR75',#6,'1. Preparation',$,$,'1',$,$,$,.F.,$,#42,.CONSTRUCTION.);
#44=IFCTASKTIME('Ecological survey Time',.PREDICTED.,$,.WORKTIME.,'P0Y0M10D','2027-03-01T07:00:00','2027-03-12T07:00:00','2027-03-01T07:00:00','2027-03-11T07:00:00','2027-03-01T07:00:00','2027-03-11T07:00:00','P0Y0M0D','P0Y0M0D',.T.,$,$,$,$,$,0.00);
#45=IFCTASK('EPEReRUnIVZtXRalnR$Jgj',#6,'Ecological survey',$,$,'1.1',$,$,$,.F.,$,#44,.ATTENDANCE.);
#46=IFCTASKTIME('Water management permits Time',.PREDICTED.,$,.WORKTIME.,'P0Y0M5D','2027-03-01T07:00:00','2027-03-05T07:00:00','2027-03-12T07:00:00','2027-03-17T07:00:00','2027-09-24T07:00:00','2027-09-29T07:00:00','P0Y0M0D','P0Y0M144D',.F.,$,$,$,$,$,0.00);
#47=IFCTASK('UZe1M5PtxFlj6DDFn5TN_V',#6,'Water management permits',$,$,'1.2',$,$,$,.F.,$,#46,.ATTENDANCE.);
#48=IFCTASKTIME('Complete land acquisition Time',.PREDICTED.,$,.WORKTIME.,'P0Y0M5D','2027-03-01T07:00:00','2027-03-05T07:00:00','2027-03-18T07:00:00','2027-03-23T07:00:00','2027-09-30T07:00:00','2027-10-05T07:00:00','P0Y0M0D','P0Y0M144D',.F.,$,$,$,$,$,0.00);
#49=IFCTASK('NdO1Yxw7cXQXQFf13pcDKD',#6,'Complete land acquisition',$,$,'1.3',$,$,$,.F.,$,#48,.ATTENDANCE.);
#50=IFCTASKTIME('Construct site roads Time',.PREDICTED.,$,.WORKTIME.,'P0Y0M10D','2027-03-01T07:00:00','2027-03-12T07:00:00','2027-03-24T07:00:00','2027-04-06T07:00:00','2027-10-06T07:00:00','2027-10-16T07:00:00','P0Y0M0D','P0Y0M144D',.F.,$,$,$,$,$,0.00);
#51=IFCTASK('LzlJVjEHF3QVYfSHzHHz3d',#6,'Construct site roads',$,$,'1.4',$,$,$,.F.,$,#50,.CONSTRUCTION.);
#52=IFCTASKTIME('Set up depots Time',.PREDICTED.,$,.WORKTIME.,'P0Y0M5D','2027-03-01T07:00:00','2027-03-05T07:00:00','2027-04-07T07:00:00','2027-04-12T07:00:00','2027-10-18T07:00:00','2027-10-22T07:00:00','P0Y0M0D','P0Y0M144D',.F.,$,$,$,$,$,0.00);
#53=IFCTASK('xnlbGfuPlJaBChMH2RPxBv',#6,'Set up depots',$,$,'1.5',$,$,$,.F.,$,#52,.LOGISTIC.);
#54=IFCTASKTIME('Start of works Time',.PREDICTED.,$,.WORKTIME.,'P0Y0M0D','2027-03-01T07:00:00','2027-03-01T07:00:00','2027-04-13T07:00:00','2027-04-13T07:00:00','2027-10-23T07:00:00','2027-10-23T07:00:00','P0Y0M144D','P0Y0M144D',.F.,$,$,$,$,$,0.00);
#55=IFCTASK('8D7ZyV2F45$Zfbe1rjP5Z5',#6,'Start of works',$,$,'1.6',$,$,$,.T.,$,#54,.CONSTRUCTION.);
#56=IFCTASKTIME('2. Preloading Time',.PREDICTED.,$,.WORKTIME.,'P0Y0M5D','2027-03-01T07:00:00','2027-03-05T07:00:00','2027-03-22T07:00:00','2027-06-05T07:00:00','2027-03-22T07:00:00','2027-10-23T07:00:00','P0Y0M0D','P0Y0M0D',.T.,$,$,$,$,$,0.00);
#57=IFCTASK('_pcNqPh$IXzfrjZHGHVp8p',#6,'2. Preloading',$,$,'2',$,$,$,.F.,$,#56,.CONSTRUCTION.);
#58=IFCTASKTIME('Deliver soil to depot Time',.PREDICTED.,$,.WORKTIME.,'P0Y0M15D','2027-03-01T07:00:00','2027-03-19T07:00:00','2027-03-22T07:00:00','2027-04-09T07:00:00','2027-03-22T07:00:00','2027-04-09T07:00:00','P0Y0M0D','P0Y0M0D',.T.,$,$,$,$,$,0.00);
#59=IFCTASK('cbe1Mx79fnV31rEX83NT9l',#6,'Deliver soil to depot',$,$,'2.1',$,$,$,.F.,$,#58,.LOGISTIC.);
#60=IFCTASKTIME('Preloading, km 0-1 Time',.PREDICTED.,$,.WORKTIME.,'P0Y0M10D','2027-03-01T07:00:00','2027-03-12T07:00:00','2027-04-10T07:00:00','2027-04-21T07:00:00','2027-09-02T07:00:00','2027-09-13T07:00:00','P0Y0M0D','P0Y0M102D',.F.,$,$,$,$,$,0.00);
#61=IFCTASK('m7cNuJzlzTAZL3lVJ9wPzB',#6,'Preloading, km 0-1',$,$,'2.2',$,$,$,.F.,$,#60,.CONSTRUCTION.);
#62=IFCTASKTIME('Preloading, km 1-2 Time',.PREDICTED.,$,.WORKTIME.,'P0Y0M10D','2027-03-01T07:00:00','2027-03-12T07:00:00','2027-04-16T07:00:00','2027-04-28T07:00:00','2027-09-08T07:00:00','2027-09-18T07:00:00','P0Y0M0D','P0Y0M102D',.F.,$,$,$,$,$,0.00);
#63=IFCTASK('yFtDpnKFUvuf1$lVh3$xtn',#6,'Preloading, km 1-2',$,$,'2.3',$,$,$,.F.,$,#62,.CONSTRUCTION.);
#64=IFCTASKTIME('Preloading, km 2-3 Time',.PREDICTED.,$,.WORKTIME.,'P0Y0M10D','2027-03-01T07:00:00','2027-03-12T07:00:00','2027-04-29T07:00:00','2027-05-12T07:00:00','2027-09-20T07:00:00','2027-09-30T07:00:00','P0Y0M0D','P0Y0M102D',.F.,$,$,$,$,$,0.00);
#65=IFCTASK('PVL1_LCVpRhlbrIVEHVDWv',#6,'Preloading, km 2-3',$,$,'2.4',$,$,$,.F.,$,#64,.CONSTRUCTION.);
#66=IFCTASKTIME('Await settlement period Time',.PREDICTED.,$,.WORKTIME.,'P0Y0M20D','2027-03-01T07:00:00','2027-03-26T07:00:00','2027-05-13T07:00:00','2027-06-05T07:00:00','2027-10-01T07:00:00','2027-10-23T07:00:00','P0Y0M0D','P0Y0M102D',.F.,$,$,$,$,$,0.00);
#67=IFCTASK('jf09AltNcDGVcnd1ODhVqH',#6,'Await settlement period',$,$,'2.5',$,$,$,.F.,$,#66,.CONSTRUCTION.);
#68=IFCTASKTIME('Settlement monitoring Time',.PREDICTED.,$,.WORKTIME.,'P0Y0M20D','2027-03-01T07:00:00','2027-03-26T07:00:00','2027-05-13T07:00:00','2027-06-05T07:00:00','2027-10-01T07:00:00','2027-10-23T07:00:00','P0Y0M102D','P0Y0M102D',.F.,$,$,$,$,$,0.00);
#69=IFCTASK('E7onHxF7sfLlltmVQPWPbX',#6,'Settlement monitoring',$,$,'2.6',$,$,$,.F.,$,#68,.ATTENDANCE.);
#70=IFCTASKTIME('3. Embankment Time',.PREDICTED.,$,.WORKTIME.,'P0Y0M5D','2027-03-01T07:00:00','2027-03-05T07:00:00','2027-03-31T07:00:00','2027-06-18T07:00:00','2027-03-31T07:00:00','2027-06-18T07:00:00','P0Y0M0D','P0Y0M0D',.T.,$,$,$,$,$,0.00);
#71=IFCTASK('ZVjv$3CF8fxVQZ$V2NQp0f',#6,'3. Embankment',$,$,'3',$,$,$,.F.,$,#70,.CONSTRUCTION.);
#72=IFCTASKTIME('Remove preloading Time',.PREDICTED.,$,.WORKTIME.,'P0Y0M10D','2027-03-01T07:00:00','2027-03-12T07:00:00','2027-03-31T07:00:00','2027-04-10T07:00:00','2027-03-31T07:00:00','2027-04-10T07:00:00','P0Y0M0D','P0Y0M0D',.T.,$,$,$,$,$,0.00);
#73=IFCTASK('qNQjVJs$uNrn9N81Ejk12$',#6,'Remove preloading',$,$,'3.1',$,$,$,.F.,$,#72,.CONSTRUCTION.);
#74=IFCTASKTIME('Install geotextile Time',.PREDICTED.,$,.WORKTIME.,'P0Y0M8D','2027-03-01T07:00:00','2027-03-10T07:00:00','2027-04-12T07:00:00','2027-04-20T07:00:00','2027-04-12T07:00:00','2027-04-20T07:00:00','P0Y0M0D','P0Y0M0D',.T.,$,$,$,$,$,0.00);
#75=IFCTASK('r9w9cp_NcXAlPzLn1z0vdh',#6,'Install geotextile',$,$,'3.2',$,$,$,.F.,$,#74,.CONSTRUCTION.);
#76=IFCTASKTIME('Build up clay core, km 0-2 Time',.PREDICTED.,$,.WORKTIME.,'P0Y0M15D','2027-03-01T07:00:00','2027-03-19T07:00:00','2027-04-21T07:00:00','2027-05-11T07:00:00','2027-04-21T07:00:00','2027-05-11T07:00:00','P0Y0M0D','P0Y0M0D',.T.,$,$,$,$,$,0.00);
#77=IFCTASK('DBd3634HlV29ZhsHiJMfo5',#6,'Build up clay core, km 0-2',$,$,'3.3',$,$,$,.F.,$,#76,.CONSTRUCTION.);
#78=IFCTASKTIME('Build up clay core, km 2-5 Time',.PREDICTED.,$,.WORKTIME.,'P0Y0M15D','2027-03-01T07:00:00','2027-03-19T07:00:00','2027-05-12T07:00:00','2027-05-29T07:00:00','2027-05-12T07:00:00','2027-05-29T07:00:00','P0Y0M0D','P0Y0M0D',.T.,$,$,$,$,$,0.00);
#79=IFCTASK('9fEbKBndZXYNLzv1DL7pyr',#6,'Build up clay core, km 2-5',$,$,'3.4',$,$,$,.F.,$,#78,.CONSTRUCTION.);
#80=IFCTASKTIME('Place sand core Time',.PREDICTED.,$,.WORKTIME.,'P0Y0M12D','2027-03-01T07:00:00','2027-03-16T07:00:00','2027-05-31T07:00:00','2027-06-12T07:00:00','2027-05-31T07:00:00','2027-06-12T07:00:00','P0Y0M0D','P0Y0M0D',.T.,$,$,$,$,$,0.00);
#81=IFCTASK('qtkHBTePtLxV2vcl5FvpeL',#6,'Place sand core',$,$,'3.5',$,$,$,.F.,$,#80,.CONSTRUCTION.);
#82=IFCTASKTIME('Survey profile check Time',.PREDICTED.,$,.WORKTIME.,'P0Y0M5D','2027-03-01T07:00:00','2027-03-05T07:00:00','2027-06-14T07:00:00','2027-06-18T07:00:00','2027-06-14T07:00:00','2027-06-18T07:00:00','P0Y0M0D','P0Y0M0D',.T.,$,$,$,$,$,0.00);
#83=IFCTASK('4JoRSHGNwZQp0zLnT$5Xqz',#6,'Survey profile check',$,$,'3.6',$,$,$,.F.,$,#82,.ATTENDANCE.);
#84=IFCTASKTIME('4. Revetment & erosion protection Time',.PREDICTED.,$,.WORKTIME.,'P0Y0M5D','2027-03-01T07:00:00','2027-03-05T07:00:00','2027-06-04T07:00:00','2027-07-20T07:00:00','2027-06-04T07:00:00','2027-07-20T07:00:00','P0Y0M0D','P0Y0M0D',.T.,$,$,$,$,$,0.00);
#85=IFCTASK('8pnxMXr$aLfTz7glEDoRtJ',#6,'4. Revetment & erosion protection',$,$,'4',$,$,$,.F.,$,#84,.CONSTRUCTION.);
#86=IFCTASKTIME('Stone revetment, inner slope Time',.PREDICTED.,$,.WORKTIME.,'P0Y0M12D','2027-03-01T07:00:00','2027-03-16T07:00:00','2027-06-04T07:00:00','2027-06-17T07:00:00','2027-06-04T07:00:00','2027-06-17T07:00:00','P0Y0M0D','P0Y0M0D',.T.,$,$,$,$,$,0.00);
#87=IFCTASK('iPOlb5n7UvWHlNCHc3lrWP',#6,'Stone revetment, inner slope',$,$,'4.1',$,$,$,.F.,$,#86,.CONSTRUCTION.);
#88=IFCTASKTIME('Grass cover, outer slope Time',.PREDICTED.,$,.WORKTIME.,'P0Y0M10D','2027-03-01T07:00:00','2027-03-12T07:00:00','2027-06-18T07:00:00','2027-06-29T07:00:00','2027-06-18T07:00:00','2027-06-29T07:00:00','P0Y0M0D','P0Y0M0D',.T.,$,$,$,$,$,0.00);
#89=IFCTASK('BpvZihrlPDYNrp$XkZqRpn',#6,'Grass cover, outer slope',$,$,'4.2',$,$,$,.F.,$,#88,.CONSTRUCTION.);
#90=IFCTASKTIME('Toe structure, waterside Time',.PREDICTED.,$,.WORKTIME.,'P0Y0M10D','2027-03-01T07:00:00','2027-03-12T07:00:00','2027-06-30T07:00:00','2027-07-10T07:00:00','2027-06-30T07:00:00','2027-07-10T07:00:00','P0Y0M0D','P0Y0M0D',.T.,$,$,$,$,$,0.00);
#91=IFCTASK('lRBViN17_NsHl90XDhvpeT',#6,'Toe structure, waterside',$,$,'4.3',$,$,$,.F.,$,#90,.CONSTRUCTION.);
#92=IFCTASKTIME('Place toe protection berm Time',.PREDICTED.,$,.WORKTIME.,'P0Y0M8D','2027-03-01T07:00:00','2027-03-10T07:00:00','2027-07-12T07:00:00','2027-07-20T07:00:00','2027-07-12T07:00:00','2027-07-20T07:00:00','P0Y0M0D','P0Y0M0D',.T.,$,$,$,$,$,0.00);
#93=IFCTASK('S3ahHVRXp7Jf7j$Xi1VD4r',#6,'Place toe protection berm',$,$,'4.4',$,$,$,.F.,$,#92,.CONSTRUCTION.);
#94=IFCTASKTIME('5. Civil structures Time',.PREDICTED.,$,.WORKTIME.,'P0Y0M5D','2027-03-01T07:00:00','2027-03-05T07:00:00','2027-07-21T07:00:00','2027-09-15T07:00:00','2027-07-21T07:00:00','2027-09-15T07:00:00','P0Y0M0D','P0Y0M0D',.T.,$,$,$,$,$,0.00);
#95=IFCTASK('nBFxE3rl5nVzPHplbbstGH',#6,'5. Civil structures',$,$,'5',$,$,$,.F.,$,#94,.CONSTRUCTION.);
#96=IFCTASKTIME('Culvert renovation Time',.PREDICTED.,$,.WORKTIME.,'P0Y0M10D','2027-03-01T07:00:00','2027-03-12T07:00:00','2027-07-21T07:00:00','2027-08-21T07:00:00','2027-07-21T07:00:00','2027-08-21T07:00:00','P0Y0M0D','P0Y0M0D',.T.,$,$,$,$,$,0.00);
#97=IFCTASK('uLM3cNO7CzUfXHv$VlP51j',#6,'Culvert renovation',$,$,'5.1',$,$,$,.F.,$,#96,.CONSTRUCTION.);
#98=IFCTASKTIME('Modify pumping station Time',.PREDICTED.,$,.WORKTIME.,'P0Y0M8D','2027-03-01T07:00:00','2027-03-10T07:00:00','2027-08-23T07:00:00','2027-08-31T07:00:00','2027-08-23T07:00:00','2027-08-31T07:00:00','P0Y0M0D','P0Y0M0D',.T.,$,$,$,$,$,0.00);
#99=IFCTASK('J9azQNuvwTcDufiHKD6JcH',#6,'Modify pumping station',$,$,'5.2',$,$,$,.F.,$,#98,.RENOVATION.);
#100=IFCTASKTIME('Barrier lock maintenance Time',.PREDICTED.,$,.WORKTIME.,'P0Y0M5D','2027-03-01T07:00:00','2027-03-05T07:00:00','2027-09-01T07:00:00','2027-09-06T07:00:00','2027-09-01T07:00:00','2027-09-06T07:00:00','P0Y0M0D','P0Y0M0D',.T.,$,$,$,$,$,0.00);
#101=IFCTASK('IbL1oz31Ole9Nd2Xv1Vpub',#6,'Barrier lock maintenance',$,$,'5.3',$,$,$,.F.,$,#100,.MAINTENANCE.);
#102=IFCTASKTIME('Stairs and transitions Time',.PREDICTED.,$,.WORKTIME.,'P0Y0M8D','2027-03-01T07:00:00','2027-03-10T07:00:00','2027-09-07T07:00:00','2027-09-15T07:00:00','2027-09-07T07:00:00','2027-09-15T07:00:00','P0Y0M0D','P0Y0M0D',.T.,$,$,$,$,$,0.00);
#103=IFCTASK('OzfbW$tNifgnhf4ndL07pl',#6,'Stairs and transitions',$,$,'5.4',$,$,$,.F.,$,#102,.CONSTRUCTION.);
#104=IFCTASKTIME('6. Finishing & reinstatement Time',.PREDICTED.,$,.WORKTIME.,'P0Y0M5D','2027-03-01T07:00:00','2027-03-05T07:00:00','2027-09-16T07:00:00','2027-10-23T07:00:00','2027-09-16T07:00:00','2027-10-23T07:00:00','P0Y0M0D','P0Y0M0D',.T.,$,$,$,$,$,0.00);
#105=IFCTASK('HbxnnBFPvfMnFjpHVDUhcn',#6,'6. Finishing & reinstatement',$,$,'6',$,$,$,.F.,$,#104,.CONSTRUCTION.);
#106=IFCTASKTIME('Reinstate dike road Time',.PREDICTED.,$,.WORKTIME.,'P0Y0M10D','2027-03-01T07:00:00','2027-03-12T07:00:00','2027-09-16T07:00:00','2027-09-27T07:00:00','2027-09-16T07:00:00','2027-09-27T07:00:00','P0Y0M0D','P0Y0M0D',.T.,$,$,$,$,$,0.00);
#107=IFCTASK('K7CxcDcvutfT55u1QzPJYJ',#6,'Reinstate dike road',$,$,'6.1',$,$,$,.F.,$,#106,.CONSTRUCTION.);
#108=IFCTASKTIME('Construct cycle path Time',.PREDICTED.,$,.WORKTIME.,'P0Y0M8D','2027-03-01T07:00:00','2027-03-10T07:00:00','2027-09-28T07:00:00','2027-10-06T07:00:00','2027-09-28T07:00:00','2027-10-06T07:00:00','P0Y0M0D','P0Y0M0D',.T.,$,$,$,$,$,0.00);
#109=IFCTASK('fd0tctqVBfId8tO$hZZtSN',#6,'Construct cycle path',$,$,'6.2',$,$,$,.F.,$,#108,.CONSTRUCTION.);
#110=IFCTASKTIME('Ecological restoration Time',.PREDICTED.,$,.WORKTIME.,'P0Y0M10D','2027-03-01T07:00:00','2027-03-12T07:00:00','2027-10-07T07:00:00','2027-10-18T07:00:00','2027-10-07T07:00:00','2027-10-18T07:00:00','P0Y0M0D','P0Y0M0D',.T.,$,$,$,$,$,0.00);
#111=IFCTASK('mvkHjV_FSXDdeVDlzFJ7v5',#6,'Ecological restoration',$,$,'6.3',$,$,$,.F.,$,#110,.CONSTRUCTION.);
#112=IFCTASKTIME('Fencing and signage Time',.PREDICTED.,$,.WORKTIME.,'P0Y0M5D','2027-03-01T07:00:00','2027-03-05T07:00:00','2027-10-19T07:00:00','2027-10-23T07:00:00','2027-10-19T07:00:00','2027-10-23T07:00:00','P0Y0M0D','P0Y0M0D',.T.,$,$,$,$,$,0.00);
#113=IFCTASK('RXDdxhDVbB$xrD$VYLvpmH',#6,'Fencing and signage',$,$,'6.4',$,$,$,.F.,$,#112,.INSTALLATION.);
#114=IFCTASKTIME('Handover Time',.PREDICTED.,$,.WORKTIME.,'P0Y0M0D','2027-03-01T07:00:00','2027-03-01T07:00:00','2027-10-23T07:00:00','2027-10-23T07:00:00','2027-10-23T07:00:00','2027-10-23T07:00:00','P0Y0M0D','P0Y0M0D',.T.,$,$,$,$,$,0.00);
#115=IFCTASK('rtU1AB7tBZC5xbCFWtYFr7',#6,'Handover',$,$,'6.5',$,$,$,.T.,$,#114,.CONSTRUCTION.);
#116=IFCRELNESTS('Hf8VeZX7WbLHf5SnzFDPf1',#6,'WBS 1. Preparation',$,#43,( #45,#47,#49,#51,#53,#55));
#117=IFCRELNESTS('ttU1UbcVPjU5J1ZnUvWP3h',#6,'WBS 2. Preloading',$,#57,( #59,#61,#63,#65,#67,#69));
#118=IFCRELNESTS('aZWNuLCFufR1qlTlK1PxDp',#6,'WBS 3. Embankment',$,#71,( #73,#75,#77,#79,#81,#83));
#119=IFCRELNESTS('$FJPP5MP1hlBGBIXMLOlZN',#6,'WBS 4. Revetment & erosion protection',$,#85,( #87,#89,#91,#93));
#120=IFCRELNESTS('8jxVCbh$MvjfLZJFdhGtKX',#6,'WBS 5. Civil structures',$,#95,( #97,#99,#101,#103));
#121=IFCRELNESTS('eZh1QNOdf5nDCLMloDoRVv',#6,'WBS 6. Finishing & reinstatement',$,#105,( #107,#109,#111,#113,#115));
#122=IFCRELNESTS('tjjP5r1vgdnD4TBHzDgTrv',#6,'WBS Hoofd',$,#40,(#43,#57,#71,#85,#95,#105));
#123=IFCRELSEQUENCE('zpU1M5H7Kj4hwjt$qzu$23',#6,$,$,#45,#47,$,.FINISH_START.,$);
#124=IFCRELSEQUENCE('$nD7DJDFcji3TBA1DveVyP',#6,$,$,#47,#49,$,.FINISH_START.,$);
#125=IFCRELSEQUENCE('4pEnrvgd559RNv6ljNI5zL',#6,$,$,#49,#51,$,.FINISH_START.,$);
#126=IFCRELSEQUENCE('L37BjzLHDvbXYfSH3nztip',#6,$,$,#51,#53,$,.FINISH_START.,$);
#127=IFCRELSEQUENCE('AjpvBPM$c1Y5ZtKFkXFLER',#6,$,$,#53,#55,$,.FINISH_START.,$);
#128=IFCRELSEQUENCE('BNgzshpXjtFLMNO1DdyTd7',#6,$,$,#59,#61,$,.FINISH_START.,$);
#129=IFCLAGTIME('Lag',.PREDICTED.,$,IFCDURATION('P5D'),.WORKTIME.);
#130=IFCRELSEQUENCE('Yzq5cta$cjibdlxF2NAzj1',#6,$,$,#61,#63,#129,.START_START.,$);
#131=IFCRELSEQUENCE('_Ds7vdzHTpuNtL_FVpAzJV',#6,$,$,#63,#65,$,.FINISH_START.,$);
#132=IFCRELSEQUENCE('CfsZ8DFvUjsZVnznepRn5H',#6,$,$,#65,#67,$,.FINISH_START.,$);
#133=IFCRELSEQUENCE('wFXhH19NSLlryzd$tPOlln',#6,$,$,#67,#69,$,.START_START.,$);
#134=IFCRELSEQUENCE('S$1TujL1YdypWJf1EHnTf1',#6,$,$,#73,#75,$,.FINISH_START.,$);
#135=IFCRELSEQUENCE('P$9xArdtPDAHf5CnSbl3zd',#6,$,$,#75,#77,$,.FINISH_START.,$);
#136=IFCRELSEQUENCE('6Hb$cjYn_T4DGBkXkzu$k7',#6,$,$,#77,#79,$,.FINISH_START.,$);
#137=IFCRELSEQUENCE('_pU1_79fWRZPuNyl$XFhsd',#6,$,$,#79,#81,$,.FINISH_START.,$);
#138=IFCRELSEQUENCE('fd09gRL1_3uvwJN1YPyZFb',#6,$,$,#81,#83,$,.FINISH_START.,$);
#139=IFCRELSEQUENCE('BJJPHXr1ahdJorkV2bHzfT',#6,$,$,#87,#89,$,.FINISH_START.,$);
#140=IFCRELSEQUENCE('xn1rLtinonHJ2pHXrpB$AT',#6,$,$,#89,#91,$,.FINISH_START.,$);
#141=IFCRELSEQUENCE('4jAZ4TOPVdFDSdM$pLt3ll',#6,$,$,#91,#93,$,.FINISH_START.,$);
#142=IFCRELSEQUENCE('0npvTxE9P7OtjDpFBjfLcL',#6,$,$,#97,#99,$,.FINISH_START.,$);
#143=IFCRELSEQUENCE('g39xEVA18N3fl9WXdnfZhf',#6,$,$,#99,#101,$,.FINISH_START.,$);
#144=IFCRELSEQUENCE('6ndzYxwvQVkPSds1PnVR$f',#6,$,$,#101,#103,$,.FINISH_START.,$);
#145=IFCRELSEQUENCE('7LcJXjs$WxHj2Dt1rp39St',#6,$,$,#107,#109,$,.FINISH_START.,$);
#146=IFCRELSEQUENCE('pPIxUt5nOHOPunpn9PmN2V',#6,$,$,#109,#111,$,.FINISH_START.,$);
#147=IFCRELSEQUENCE('dVL1IDP9xHTdqFv$QvKj6X',#6,$,$,#111,#113,$,.FINISH_START.,$);
#148=IFCRELSEQUENCE('WXxFlxPtxlBF$r2Vh3djob',#6,$,$,#113,#115,$,.FINISH_START.,$);
#149=IFCLAGTIME('Lag',.PREDICTED.,$,IFCDURATION('P18D'),.WORKTIME.);
#150=IFCRELSEQUENCE('nPYhjV_Fq3sHDHjHxlTtqn',#6,$,$,#45,#59,#149,.START_START.,$);
#151=IFCLAGTIME('Lag',.PREDICTED.,$,IFCRATIOMEASURE(0.4),.WORKTIME.);
#152=IFCRELSEQUENCE('S3KRCd3HfbTPyzXV2btrWd',#6,$,$,#59,#73,#151,.START_START.,$);
#153=IFCLAGTIME('Lag',.PREDICTED.,$,IFCDURATION('-P13D'),.WORKTIME.);
#154=IFCRELSEQUENCE('KdGdH17tHjCxTtylZZaruJ',#6,$,$,#83,#87,#153,.FINISH_START.,$);
#155=IFCLAGTIME('Lag',.PREDICTED.,$,IFCDURATION('P2D'),.WORKTIME.);
#156=IFCRELSEQUENCE('mfGddxwv_TyhEXpHbRc77b',#6,$,$,#83,#93,#155,.FINISH_FINISH.,$);
#157=IFCRELSEQUENCE('X$Phzvl7eP7h6JVXA$1jM9',#6,$,$,#93,#97,$,.FINISH_START.,$);
#158=IFCRELSEQUENCE('ix95sFbFUjQpGrYXjbnTbV',#6,$,$,#103,#107,$,.FINISH_START.,$);
#159=IFCRELASSIGNSTOCONTROL('rDVhNjbXHjyDCF$VkTSruD',#6,$,$,(#43,#45,#47,#49,#51,#53,#55,#57,#59,#61,#63,#65,#67,#69,#71,#73,#75,#77,#79,#81,#83,#85,#87,#89,#91,#93,#95,#97,#99,#101,#103,#105,#107,#109,#111,#113,#115),$,#40);
#160=IFCPROPERTYSINGLEVALUE('InternalProjectId',$,IFCTEXT('proj-mtlt017n7w9b2524'),$);
#161=IFCPROPERTYSINGLEVALUE('wbsAutoNumber',$,IFCBOOLEAN(.T.),$);
#162=IFCPROPERTYSINGLEVALUE('DefaultTaskDurationUnit',$,IFCLABEL('days'),$);
#163=IFCPROPERTYSINGLEVALUE('ProjectStartDate',$,IFCDATE('2027-03-01'),$);
#164=IFCPROPERTYSINGLEVALUE('ProjectEndDate',$,$,$);
#165=IFCPROPERTYSINGLEVALUE('CreatedAt',$,IFCTEXT('2026-09-03T17:33:17.987Z'),$);
#166=IFCPROPERTYSINGLEVALUE('ModifiedAt',$,IFCTEXT('2026-09-03T17:33:17.990Z'),$);
#167=IFCPROPERTYSET('e5a3ArlP$tNZvpDF1ZK5n5',#6,'OPS_ProjectSettings',$,(#160,#161,#162,#163,#164,#165,#166));
#168=IFCRELDEFINESBYPROPERTIES('0Hdzo1sPJhdjQlBF$1BF9l',#6,$,$,(#13),#167);
#169=IFCPROPERTYSINGLEVALUE('InternalTaskId',$,IFCTEXT('task-mtlt017qh62d2525'),$);
#170=IFCPROPERTYSET('xrklV94lDb5$4tSFXJ2HLD',#6,'OPS_TaskIdentity',$,(#169));
#171=IFCRELDEFINESBYPROPERTIES('_lNjTb_F4HLlZNGV6jtBiJ',#6,$,$,(#43),#170);
#172=IFCPROPERTYSINGLEVALUE('InternalTaskId',$,IFCTEXT('task-mtlt017rmvtc2526'),$);
#173=IFCPROPERTYSET('LduXmtKV$h$5bLQHVHfLcl',#6,'OPS_TaskIdentity',$,(#172));
#174=IFCRELDEFINESBYPROPERTIES('SZ8ViN9f_tAZ9BQ$kXXR9p',#6,$,$,(#45),#173);
#175=IFCPROPERTYSINGLEVALUE('InternalTaskId',$,IFCTEXT('task-mtlt017tjva62527'),$);
#176=IFCPROPERTYSET('1F5VSH0tFTIhYtu$xnFh23',#6,'OPS_TaskIdentity',$,(#175));
#177=IFCRELDEFINESBYPROPERTIES('uj5XW$79V5ljQZt$Jfwjch',#6,$,$,(#47),#176);
#178=IFCPROPERTYSINGLEVALUE('InternalTaskId',$,IFCTEXT('task-mtlt017uvs9t2528'),$);
#179=IFCPROPERTYSET('6BU1Yxw7wnKRXR4lNjFTLf',#6,'OPS_TaskIdentity',$,(#178));
#180=IFCRELDEFINESBYPROPERTIES('1nxVC7dt1fJvgBQ$sxkx3B',#6,$,$,(#49),#179);
#181=IFCPROPERTYSINGLEVALUE('InternalTaskId',$,IFCTEXT('task-mtlt017vsmqa2529'),$);
#182=IFCPROPERTYSET('EhpvfFy$4nvhsPM$PByTfX',#6,'OPS_TaskIdentity',$,(#181));
#183=IFCRELDEFINESBYPROPERTIES('hPelV9a12ZajE1d$qzmf6X',#6,$,$,(#51),#182);
#184=IFCPROPERTYSINGLEVALUE('InternalTaskId',$,IFCTEXT('task-mtlt017w2rk82530'),$);
#185=IFCPROPERTYSET('eZTfGfePvzmVYzf$Qz7pup',#6,'OPS_TaskIdentity',$,(#184));
#186=IFCRELDEFINESBYPROPERTIES('l5NbyZevGpE7U90XNpjvDH',#6,$,$,(#53),#185);
#187=IFCPROPERTYSINGLEVALUE('InternalTaskId',$,IFCTEXT('task-mtlt017xrrsa2531'),$);
#188=IFCPROPERTYSET('h3$Zy3y$e7TPGxinIzOHDl',#6,'OPS_TaskIdentity',$,(#187));
#189=IFCRELDEFINESBYPROPERTIES('EPI5QjcXf5FDGrYVDh9zT9',#6,$,$,(#55),#188);
#190=IFCPROPERTYSINGLEVALUE('InternalTaskId',$,IFCTEXT('task-mtlt017z7s5z2532'),$);
#191=IFCPROPERTYSET('XVRHP5gdB3m$mBA$JNwjkh',#6,'OPS_TaskIdentity',$,(#190));
#192=IFCRELDEFINESBYPROPERTIES('OznDDnqFiNw18ld1n5bnVT',#6,$,$,(#57),#191);
#193=IFCPROPERTYSINGLEVALUE('InternalTaskId',$,IFCTEXT('task-mtlt01806zru2533'),$);
#194=IFCPROPERTYSET('3j_rP9JXxn$TFPc$oJstGF',#6,'OPS_TaskIdentity',$,(#193));
#195=IFCRELDEFINESBYPROPERTIES('4l5VWVZHhDIdaPc$MFNTlB',#6,$,$,(#59),#194);
#196=IFCPROPERTYSINGLEVALUE('InternalTaskId',$,IFCTEXT('task-mtlt0181v0q22534'),$);
#197=IFCPROPERTYSET('jtiRG7Q7KpO9pzhF3lXp4L',#6,'OPS_TaskIdentity',$,(#196));
#198=IFCRELDEFINESBYPROPERTIES('cxKRSnqFifAl37_nv$HzdB',#6,$,$,(#61),#197);
#199=IFCPROPERTYSINGLEVALUE('InternalTaskId',$,IFCTEXT('task-mtlt0182jtm02535'),$);
#200=IFCPROPERTYSET('P1FDxLxnC7G$qhsl4vSzV7',#6,'OPS_TaskIdentity',$,(#199));
#201=IFCRELDEFINESBYPROPERTIES('kRRll$NfYvedibqnyBT9up',#6,$,$,(#63),#200);
#202=IFCPROPERTYSINGLEVALUE('InternalTaskId',$,IFCTEXT('task-mtlt0184gifq2536'),$);
#203=IFCPROPERTYSET('ADP3_BmNcpWlthYnLdu$YJ',#6,'OPS_TaskIdentity',$,(#202));
#204=IFCRELDEFINESBYPROPERTIES('lt4TG7gd1L1xl90X$X$xd7',#6,$,$,(#65),#203);
#205=IFCPROPERTYSINGLEVALUE('InternalTaskId',$,IFCTEXT('task-mtlt018543912537'),$);
#206=IFCPROPERTYSET('A9wtM1XdzToBuFRlU7Olxr',#6,'OPS_TaskIdentity',$,(#205));
#207=IFCRELDEFINESBYPROPERTIES('zJMzcDktvzufz7MHs1Hzhj',#6,$,$,(#67),#206);
#208=IFCPROPERTYSINGLEVALUE('InternalTaskId',$,IFCTEXT('task-mtlt01861b032538'),$);
#209=IFCPROPERTYSET('h7yrvPr$arhl3vQlJ5ZN21',#6,'OPS_TaskIdentity',$,(#208));
#210=IFCRELDEFINESBYPROPERTIES('Szyr5HX74xHjY9WVNfMZ1j',#6,$,$,(#69),#209);
#211=IFCPROPERTYSINGLEVALUE('InternalTaskId',$,IFCTEXT('task-mtlt01882vmk2539'),$);
#212=IFCPROPERTYSET('wn$rnhZ$MPNxBJDlZ1Jv5h',#6,'OPS_TaskIdentity',$,(#211));
#213=IFCRELDEFINESBYPROPERTIES('DB$rBdolflBnXRSHbbA9S9',#6,$,$,(#71),#212);
#214=IFCPROPERTYSINGLEVALUE('InternalTaskId',$,IFCTEXT('task-mtlt018932y62540'),$);
#215=IFCPROPERTYSET('fPuVKf9fQ$g3pzrF5lTtqH',#6,'OPS_TaskIdentity',$,(#214));
#216=IFCRELDEFINESBYPROPERTIES('UZuXm9KXJ9FhohEnQ7CDml',#6,$,$,(#73),#215);
#217=IFCPROPERTYSINGLEVALUE('InternalTaskId',$,IFCTEXT('task-mtlt018bdkmy2541'),$);
#218=IFCPROPERTYSET('Ob0tQjolDPdr0ZXXWtk1cr',#6,'OPS_TaskIdentity',$,(#217));
#219=IFCRELDEFINESBYPROPERTIES('XT09sn31eFCZnd_XHr3f2T',#6,$,$,(#75),#218);
#220=IFCPROPERTYSINGLEVALUE('InternalTaskId',$,IFCTEXT('task-mtlt018cir992542'),$);
#221=IFCPROPERTYSET('GPEROTvtZXYfhZbHIV$51j',#6,'OPS_TaskIdentity',$,(#220));
#222=IFCRELDEFINESBYPROPERTIES('9t_XqPxVxHZdSdEViVztq3',#6,$,$,(#77),#221);
#223=IFCPROPERTYSINGLEVALUE('InternalTaskId',$,IFCTEXT('task-mtlt018elwmr2543'),$);
#224=IFCPROPERTYSET('c5Kjl5vt7NQVInJnPBKjUD',#6,'OPS_TaskIdentity',$,(#223));
#225=IFCRELDEFINESBYPROPERTIES('XVblhjwVLDo7sPkXIZ4THB',#6,$,$,(#79),#224);
#226=IFCPROPERTYSINGLEVALUE('InternalTaskId',$,IFCTEXT('task-mtlt018f1he92544'),$);
#227=IFCPROPERTYSET('NvCDBzyH5lptlZhHNfYh_z',#6,'OPS_TaskIdentity',$,(#226));
#228=IFCRELDEFINESBYPROPERTIES('Y3qpPxAPhvOP43$Vy7qpOT',#6,$,$,(#81),#227);
#229=IFCPROPERTYSINGLEVALUE('InternalTaskId',$,IFCTEXT('task-mtlt018h1me92545'),$);
#230=IFCPROPERTYSET('VZGvlx7tNndr89GXwNIxN1',#6,'OPS_TaskIdentity',$,(#229));
#231=IFCRELDEFINESBYPROPERTIES('QXpPTNld3ZsZH98$wpTfAP',#6,$,$,(#83),#230);
#232=IFCPROPERTYSINGLEVALUE('InternalTaskId',$,IFCTEXT('task-mtlt018i7fn92546'),$);
#233=IFCPROPERTYSET('L3t5URkl9BXRPHbFqF7pyP',#6,'OPS_TaskIdentity',$,(#232));
#234=IFCRELDEFINESBYPROPERTIES('Edcj3BuPNn$T5b4nb$XD4h',#6,$,$,(#85),#233);
#235=IFCPROPERTYSINGLEVALUE('InternalTaskId',$,IFCTEXT('task-mtlt018kubwm2547'),$);
#236=IFCPROPERTYSET('tfcJzLy1uNLHxxGXqF93$N',#6,'OPS_TaskIdentity',$,(#235));
#237=IFCRELDEFINESBYPROPERTIES('_DkldRM$g57hE1d$4vazDn',#6,$,$,(#87),#236);
#238=IFCPROPERTYSINGLEVALUE('InternalTaskId',$,IFCTEXT('task-mtlt018mshac2548'),$);
#239=IFCPROPERTYSET('IbZN4ziXNF1T9hclhPWdN1',#6,'OPS_TaskIdentity',$,(#238));
#240=IFCRELDEFINESBYPROPERTIES('B96927H74bhlBpnX$VNT5n',#6,$,$,(#89),#239);
#241=IFCPROPERTYSINGLEVALUE('InternalTaskId',$,IFCTEXT('task-mtlt018owij02549'),$);
#242=IFCPROPERTYSET('k9S367wvA9nhYNqnaxr$65',#6,'OPS_TaskIdentity',$,(#241));
#243=IFCRELDEFINESBYPROPERTIES('d5azMbDF_ZajMrc12fULsP',#6,$,$,(#91),#242);
#244=IFCPROPERTYSINGLEVALUE('InternalTaskId',$,IFCTEXT('task-mtlt018pozmp2550'),$);
#245=IFCPROPERTYSET('1pgdvL4HdDIdqB61Ojvb75',#6,'OPS_TaskIdentity',$,(#244));
#246=IFCRELDEFINESBYPROPERTIES('wF1rTb2nW5XzH3HVXpobXP',#6,$,$,(#93),#245);
#247=IFCPROPERTYSINGLEVALUE('InternalTaskId',$,IFCTEXT('task-mtlt018rqsv22551'),$);
#248=IFCPROPERTYSET('oP2BJZ1vYDUfDljlZz8nXZ',#6,'OPS_TaskIdentity',$,(#247));
#249=IFCRELDEFINESBYPROPERTIES('vrEnxnRn2f29LfqFm$R$Uj',#6,$,$,(#95),#248);
#250=IFCPROPERTYSINGLEVALUE('InternalTaskId',$,IFCTEXT('task-mtlt018s7w2w2552'),$);
#251=IFCPROPERTYSET('bbO$Ij5VBf_9LfSlD7eVWP',#6,'OPS_TaskIdentity',$,(#250));
#252=IFCRELDEFINESBYPROPERTIES('UXBXKhT1AtNTL3v$L7CDqH',#6,$,$,(#97),#251);
#253=IFCPROPERTYSINGLEVALUE('InternalTaskId',$,IFCTEXT('task-mtlt018u7fh62553'),$);
#254=IFCPROPERTYSET('ANsZGNGf23WHrDv1IZCDSR',#6,'OPS_TaskIdentity',$,(#253));
#255=IFCRELDEFINESBYPROPERTIES('3p696zS1Q1orSDnVlvmtW7',#6,$,$,(#99),#254);
#256=IFCPROPERTYSINGLEVALUE('InternalTaskId',$,IFCTEXT('task-mtlt018wwp8t2554'),$);
#257=IFCPROPERTYSET('lf8X41c78Xw18F3nydWdj3',#6,'OPS_TaskIdentity',$,(#256));
#258=IFCRELDEFINESBYPROPERTIES('ORuV0nBlnn4pGr61W9_l1N',#6,$,$,(#101),#257);
#259=IFCPROPERTYSINGLEVALUE('InternalTaskId',$,IFCTEXT('task-mtlt018ykvij2555'),$);
#260=IFCPROPERTYSET('BDlbe5EtvtcpixmVORcvXv',#6,'OPS_TaskIdentity',$,(#259));
#261=IFCRELDEFINESBYPROPERTIES('I9qx2Bu76Zg3vVHXZXPj23',#6,$,$,(#103),#260);
#262=IFCPROPERTYSINGLEVALUE('InternalTaskId',$,IFCTEXT('task-mtlt018zf55w2556'),$);
#263=IFCPROPERTYSET('ItqDbbzHfxPrG5KnYLt3R5',#6,'OPS_TaskIdentity',$,(#262));
#264=IFCRELDEFINESBYPROPERTIES('PxCp$PwXr3edG5CnyBj7LJ',#6,$,$,(#105),#263);
#265=IFCPROPERTYSINGLEVALUE('InternalTaskId',$,IFCTEXT('task-mtlt0191jiy92557'),$);
#266=IFCPROPERTYSET('9tw92vF7ALdJ6XP$VpobBz',#6,'OPS_TaskIdentity',$,(#265));
#267=IFCRELDEFINESBYPROPERTIES('2Jgz6dA$GTC5HNqloFRnv9',#6,$,$,(#107),#266);
#268=IFCPROPERTYSINGLEVALUE('InternalTaskId',$,IFCTEXT('task-mtlt0193y2ou2558'),$);
#269=IFCPROPERTYSET('6B6tcta1Ydiz71rHFN6Jw1',#6,'OPS_TaskIdentity',$,(#268));
#270=IFCRELDEFINESBYPROPERTIES('1nTfaJs$yFvLAPIX_fQp0f',#6,$,$,(#109),#269);
#271=IFCPROPERTYSINGLEVALUE('InternalTaskId',$,IFCTEXT('task-mtlt0194shu62559'),$);
#272=IFCPROPERTYSET('j9CDZtT$gdf51$nXHvu1AP',#6,'OPS_TaskIdentity',$,(#271));
#273=IFCRELDEFINESBYPROPERTIES('c5qpXty1OvBF$BM1JxDdXZ',#6,$,$,(#111),#272);
#274=IFCPROPERTYSINGLEVALUE('InternalTaskId',$,IFCTEXT('task-mtlt01968nfc2560'),$);
#275=IFCPROPERTYSET('8p7ZWVL$I1NTFdIX_NEbhJ',#6,'OPS_TaskIdentity',$,(#274));
#276=IFCRELDEFINESBYPROPERTIES('FrVL7BW97TSrqrYXDhPJMp',#6,$,$,(#113),#275);
#277=IFCPROPERTYSINGLEVALUE('InternalTaskId',$,IFCTEXT('task-mtlt0198tsde2561'),$);
#278=IFCPROPERTYSET('ebe$M5lvqZATvjN12bVDmV',#6,'OPS_TaskIdentity',$,(#277));
#279=IFCRELDEFINESBYPROPERTIES('XZO$cNO7CTQp8nZns1nZHh',#6,$,$,(#115),#278);
#280=IFCPROPERTYSINGLEVALUE('MilestoneKind',$,IFCLABEL('START'),$);
#281=IFCPROPERTYSET('aZm7h9iFon7LEhYFTz0vJV',#6,'OPS_Milestone',$,(#280));
#282=IFCRELDEFINESBYPROPERTIES('B9EFT5c7Ol87cFVVG$DdVz',#6,$,$,(#55),#281);
#283=IFCPROPERTYSINGLEVALUE('MilestoneKind',$,IFCLABEL('FINISH'),$);
#284=IFCPROPERTYSINGLEVALUE('Mandatory',$,IFCBOOLEAN(.T.),$);
#285=IFCPROPERTYSET('9JJd9zT$MRRVkFpnlL155H',#6,'OPS_Milestone',$,(#283,#284));
#286=IFCRELDEFINESBYPROPERTIES('YXRH7rmf4F1Tbrs$xrarOr',#6,$,$,(#115),#285);
ENDSEC;
END-ISO-10303-21;
