ISO-10303-21;
HEADER;
FILE_DESCRIPTION(('ViewDefinition [SchedulingView]'),'2;1');
FILE_NAME('120-Room Hotel, Scheveningen.ifc','2026-09-11T17:47:47',('Chantal Zee'),('Coastal Construction BV'),'Open Planner Studio 0.1','Open Planner Studio','');
FILE_SCHEMA(('IFC4X3'));
ENDSEC;
DATA;
#1=IFCPERSON($,'Chantal Zee',$,$,$,$,$,$);
#2=IFCORGANIZATION($,'Coastal Construction BV',$,$,$);
#3=IFCPERSONANDORGANIZATION(#1,#2,$);
#4=IFCORGANIZATION($,'OpenAEC Foundation',$,$,$);
#5=IFCAPPLICATION(#4,'0.1','Open Planner Studio','OPS');
#6=IFCOWNERHISTORY(#3,#5,$,.NOCHANGE.,$,$,$,1789148867);
#7=IFCSIUNIT(*,.LENGTHUNIT.,$,.METRE.);
#8=IFCSIUNIT(*,.TIMEUNIT.,$,.SECOND.);
#9=IFCUNITASSIGNMENT((#7,#8));
#10=IFCCARTESIANPOINT((0.,0.,0.));
#11=IFCAXIS2PLACEMENT3D(#10,$,$);
#12=IFCGEOMETRICREPRESENTATIONCONTEXT($,'Plan',3,1.0E-05,#11,$);
#13=IFCPROJECT('X$HjL9SHHjyDmRO$xhun1J',#6,'120-Room Hotel, Scheveningen','New-build six-storey seafront hotel with wellness facilities',$,$,$,(#12),#9);
#14=IFCTIMEPERIOD('07:00:00','16:00:00');
#15=IFCRECURRENCEPATTERN(.WEEKLY.,$,(1,2,3,4,5),$,$,$,$,(#14));
#16=IFCWORKTIME('Standard work week',.PREDICTED.,$,#15,$,$);
#17=IFCWORKTIME('New Year''s Day',.PREDICTED.,$,$,'2027-01-01','2027-01-01');
#18=IFCWORKTIME('Good Friday',.PREDICTED.,$,$,'2027-03-26','2027-03-26');
#19=IFCWORKTIME('Easter',.PREDICTED.,$,$,'2027-03-28','2027-03-29');
#20=IFCWORKTIME('King''s Day',.PREDICTED.,$,$,'2027-04-27','2027-04-27');
#21=IFCWORKTIME('Liberation Day',.PREDICTED.,$,$,'2027-05-05','2027-05-05');
#22=IFCWORKTIME('Ascension Day',.PREDICTED.,$,$,'2027-05-06','2027-05-06');
#23=IFCWORKTIME('Whitsun',.PREDICTED.,$,$,'2027-05-16','2027-05-17');
#24=IFCWORKTIME('Christmas',.PREDICTED.,$,$,'2027-12-25','2027-12-26');
#25=IFCWORKTIME('Construction holiday (northern region)',.PREDICTED.,$,$,'2027-07-26','2027-08-15');
#26=IFCWORKTIME('New Year''s Day',.PREDICTED.,$,$,'2028-01-01','2028-01-01');
#27=IFCWORKTIME('Good Friday',.PREDICTED.,$,$,'2028-04-14','2028-04-14');
#28=IFCWORKTIME('Easter',.PREDICTED.,$,$,'2028-04-16','2028-04-17');
#29=IFCWORKTIME('King''s Day',.PREDICTED.,$,$,'2028-04-27','2028-04-27');
#30=IFCWORKTIME('Liberation Day',.PREDICTED.,$,$,'2028-05-05','2028-05-05');
#31=IFCWORKTIME('Ascension Day',.PREDICTED.,$,$,'2028-05-25','2028-05-25');
#32=IFCWORKTIME('Whitsun',.PREDICTED.,$,$,'2028-06-04','2028-06-05');
#33=IFCWORKTIME('Christmas',.PREDICTED.,$,$,'2028-12-25','2028-12-26');
#34=IFCWORKTIME('Construction holiday (northern region)',.PREDICTED.,$,$,'2028-07-24','2028-08-13');
#35=IFCWORKCALENDAR('_HlbW$VPl1Yxnv_nBDbFBd',#6,'Construction calendar NL','Standard construction calendar: Mon-Fri 07:00-16:00',$,(#16),(#17,#18,#19,#20,#21,#22,#23,#24,#25,#26,#27,#28,#29,#30,#31,#32,#33,#34),.FIRSTSHIFT.);
#36=IFCPROPERTYSINGLEVALUE('HoursPerDay',$,IFCREAL(8),$);
#37=IFCPROPERTYSET('qL5XmPUFgdlJ6X9$WtAtOZ',#6,'OPS_Calendar',$,(#36));
#38=IFCRELDEFINESBYPROPERTIES('bXh12hy$qvOdOP_VbbYntl',#6,$,$,(#35),#37);
#39=IFCWORKPLAN('t9gP7LS$EFN5bLgl6jnTtn',#6,'120-Room Hotel, Scheveningen','New-build six-storey seafront hotel with wellness facilities',$,$,'2026-09-11T17:47:47',$,$,$,$,$,'2027-03-01T07:00:00','2027-03-19T07:00:00',.PLANNED.);
#40=IFCWORKSCHEDULE('QxaLtzRFYjgzt9ylBNAzBZ',#6,'Construction schedule v1.0',$,$,$,'2026-09-11T17:47:47',$,$,$,$,$,'2027-03-01T07:00:00','2027-03-19T07:00:00',.PLANNED.);
#41=IFCRELAGGREGATES('X$Ph9TPtbVDd8te$ftI1sz',#6,$,$,#39,(#40));
#42=IFCTASKTIME('1. Preparation Time',.PREDICTED.,$,.WORKTIME.,'P0Y0M5D','2027-03-01T07:00:00','2027-03-05T07:00:00','2027-03-01T07:00:00','2027-03-25T07:00:00','2027-03-01T07:00:00','2028-02-16T07:00:00','P0Y0M0D','P0Y0M0D',.T.,$,$,$,$,$,0.00);
#43=IFCTASK('bxyBrds$0Btzrd2XzHd59n',#6,'1. Preparation',$,$,'1',$,$,$,.F.,$,#42,.CONSTRUCTION.);
#44=IFCTASKTIME('Demolish existing building Time',.PREDICTED.,$,.WORKTIME.,'P0Y0M10D','2027-03-01T07:00:00','2027-03-12T07:00:00','2027-03-01T07:00:00','2027-03-12T07:00:00','2027-03-01T07:00:00','2027-03-12T07:00:00','P0Y0M0D','P0Y0M0D',.T.,$,$,$,$,$,0.00);
#45=IFCTASK('FLBF9$2NkrdJYZDFrpztGF',#6,'Demolish existing building',$,$,'1.1',$,$,$,.F.,$,#44,.DEMOLITION.);
#46=IFCTASKTIME('Set up site Time',.PREDICTED.,$,.WORKTIME.,'P0Y0M5D','2027-03-01T07:00:00','2027-03-05T07:00:00','2027-03-15T07:00:00','2027-03-19T07:00:00','2028-02-04T07:00:00','2028-02-10T07:00:00','P0Y0M0D','P0Y0M213D',.F.,$,$,$,$,$,0.00);
#47=IFCTASK('5F1rb1P9jhdJQHzlkTSzV7',#6,'Set up site',$,$,'1.2',$,$,$,.F.,$,#46,.LOGISTIC.);
#48=IFCTASKTIME('Foundation survey Time',.PREDICTED.,$,.WORKTIME.,'P0Y0M3D','2027-03-01T07:00:00','2027-03-03T07:00:00','2027-03-22T07:00:00','2027-03-24T07:00:00','2028-02-11T07:00:00','2028-02-15T07:00:00','P0Y0M0D','P0Y0M213D',.F.,$,$,$,$,$,0.00);
#49=IFCTASK('$JUhVf09NlD9DzxnEjYFfV',#6,'Foundation survey',$,$,'1.3',$,$,$,.F.,$,#48,.ATTENDANCE.);
#50=IFCTASKTIME('Start of new build Time',.PREDICTED.,$,.WORKTIME.,'P0Y0M0D','2027-03-01T07:00:00','2027-03-01T07:00:00','2027-03-25T07:00:00','2027-03-25T07:00:00','2028-02-16T07:00:00','2028-02-16T07:00:00','P0Y0M213D','P0Y0M213D',.F.,$,$,$,$,$,0.00);
#51=IFCTASK('X$FDNDFvkrHBK13FyLt3j1',#6,'Start of new build',$,$,'1.4',$,$,$,.T.,$,#50,.CONSTRUCTION.);
#52=IFCTASKTIME('2. Foundations Time',.PREDICTED.,$,.WORKTIME.,'P0Y0M5D','2027-03-01T07:00:00','2027-03-05T07:00:00','2027-03-12T07:00:00','2027-05-24T07:00:00','2027-03-12T07:00:00','2028-02-16T07:00:00','P0Y0M0D','P0Y0M0D',.T.,$,$,$,$,$,0.00);
#53=IFCTASK('XXbHVfuvg5drev2F3HvR5B',#6,'2. Foundations',$,$,'2',$,$,$,.F.,$,#52,.CONSTRUCTION.);
#54=IFCTASKTIME('Sheet piling, boulevard Time',.PREDICTED.,$,.WORKTIME.,'P0Y0M10D','2027-03-01T07:00:00','2027-03-12T07:00:00','2027-03-12T07:00:00','2027-03-25T07:00:00','2027-03-12T07:00:00','2027-03-25T07:00:00','P0Y0M0D','P0Y0M0D',.T.,$,$,$,$,$,0.00);
#55=IFCTASK('l57rpp$dX5N5thEncPeHhj',#6,'Sheet piling, boulevard',$,$,'2.1',$,$,$,.F.,$,#54,.CONSTRUCTION.);
#56=IFCTASKTIME('Excavate basement Time',.PREDICTED.,$,.WORKTIME.,'P0Y0M8D','2027-03-01T07:00:00','2027-03-10T07:00:00','2027-03-30T07:00:00','2027-04-08T07:00:00','2027-12-29T07:00:00','2028-01-07T07:00:00','P0Y0M0D','P0Y0M177D',.F.,$,$,$,$,$,0.00);
#57=IFCTASK('yp_X8pl7GTCxVFhHnRfhA3',#6,'Excavate basement',$,$,'2.2',$,$,$,.F.,$,#56,.CONSTRUCTION.);
#58=IFCTASKTIME('Foundation piles Time',.PREDICTED.,$,.WORKTIME.,'P0Y0M12D','2027-03-01T07:00:00','2027-03-16T07:00:00','2027-04-09T07:00:00','2027-04-26T07:00:00','2028-01-10T07:00:00','2028-01-25T07:00:00','P0Y0M0D','P0Y0M177D',.F.,$,$,$,$,$,0.00);
#59=IFCTASK('SZmvFLhlF3Mn$rw1WtI16V',#6,'Foundation piles',$,$,'2.3',$,$,$,.F.,$,#58,.CONSTRUCTION.);
#60=IFCTASKTIME('Basement floor, wellness Time',.PREDICTED.,$,.WORKTIME.,'P0Y0M8D','2027-03-01T07:00:00','2027-03-10T07:00:00','2027-04-28T07:00:00','2027-05-11T07:00:00','2028-01-26T07:00:00','2028-02-04T07:00:00','P0Y0M0D','P0Y0M177D',.F.,$,$,$,$,$,0.00);
#61=IFCTASK('0HlRW$tNahlrad2X$zu$wR',#6,'Basement floor, wellness',$,$,'2.4',$,$,$,.F.,$,#60,.CONSTRUCTION.);
#62=IFCTASKTIME('Basement walls Time',.PREDICTED.,$,.WORKTIME.,'P0Y0M8D','2027-03-01T07:00:00','2027-03-10T07:00:00','2027-05-12T07:00:00','2027-05-24T07:00:00','2028-02-07T07:00:00','2028-02-16T07:00:00','P0Y0M177D','P0Y0M177D',.F.,$,$,$,$,$,0.00);
#63=IFCTASK('4jQJLfuvUpYfLzHXn5pP9F',#6,'Basement walls',$,$,'2.5',$,$,$,.F.,$,#62,.CONSTRUCTION.);
#64=IFCTASKTIME('3. Structural works Time',.PREDICTED.,$,.WORKTIME.,'P0Y0M5D','2027-03-01T07:00:00','2027-03-05T07:00:00','2027-03-18T07:00:00','2027-06-29T07:00:00','2027-03-18T07:00:00','2028-02-16T07:00:00','P0Y0M0D','P0Y0M0D',.T.,$,$,$,$,$,0.00);
#65=IFCTASK('NvShvrGfOvbXcZN1t37pqH',#6,'3. Structural works',$,$,'3',$,$,$,.F.,$,#64,.CONSTRUCTION.);
#66=IFCTASKTIME('Ground floor lobby Time',.PREDICTED.,$,.WORKTIME.,'P0Y0M10D','2027-03-01T07:00:00','2027-03-12T07:00:00','2027-03-18T07:00:00','2027-04-02T07:00:00','2027-03-18T07:00:00','2027-04-02T07:00:00','P0Y0M0D','P0Y0M0D',.T.,$,$,$,$,$,0.00);
#67=IFCTASK('5FPzIp$PnTsZ55u1jxxlZt',#6,'Ground floor lobby',$,$,'3.1',$,$,$,.F.,$,#66,.CONSTRUCTION.);
#68=IFCTASKTIME('Floor 1 rooms Time',.PREDICTED.,$,.WORKTIME.,'P0Y0M8D','2027-03-01T07:00:00','2027-03-10T07:00:00','2027-04-05T07:00:00','2027-04-14T07:00:00','2027-04-05T07:00:00','2027-04-14T07:00:00','P0Y0M0D','P0Y0M0D',.T.,$,$,$,$,$,0.00);
#69=IFCTASK('lxfRaHuPddypWpBlvRMf_X',#6,'Floor 1 rooms',$,$,'3.2',$,$,$,.F.,$,#68,.CONSTRUCTION.);
#70=IFCTASKTIME('Floor 2 rooms Time',.PREDICTED.,$,.WORKTIME.,'P0Y0M8D','2027-03-01T07:00:00','2027-03-10T07:00:00','2027-04-15T07:00:00','2027-04-26T07:00:00','2027-04-15T07:00:00','2027-04-26T07:00:00','P0Y0M0D','P0Y0M0D',.T.,$,$,$,$,$,0.00);
#71=IFCTASK('tp7TmvUfa$fZ7JnXXFxlTt',#6,'Floor 2 rooms',$,$,'3.3',$,$,$,.F.,$,#70,.CONSTRUCTION.);
#72=IFCTASKTIME('Floor 3 rooms Time',.PREDICTED.,$,.WORKTIME.,'P0Y0M8D','2027-03-01T07:00:00','2027-03-10T07:00:00','2027-04-28T07:00:00','2027-05-11T07:00:00','2027-04-28T07:00:00','2027-05-11T07:00:00','P0Y0M0D','P0Y0M0D',.T.,$,$,$,$,$,0.00);
#73=IFCTASK('6lzt2dpFYPiRHz$VKJk12X',#6,'Floor 3 rooms',$,$,'3.4',$,$,$,.F.,$,#72,.CONSTRUCTION.);
#74=IFCTASKTIME('Floor 4 rooms Time',.PREDICTED.,$,.WORKTIME.,'P0Y0M8D','2027-03-01T07:00:00','2027-03-10T07:00:00','2027-05-12T07:00:00','2027-05-24T07:00:00','2027-05-12T07:00:00','2027-05-24T07:00:00','P0Y0M0D','P0Y0M0D',.T.,$,$,$,$,$,0.00);
#75=IFCTASK('nhD7r7cvylBFV5GVsVztyv',#6,'Floor 4 rooms',$,$,'3.5',$,$,$,.F.,$,#74,.CONSTRUCTION.);
#76=IFCTASKTIME('Floor 5 rooms Time',.PREDICTED.,$,.WORKTIME.,'P0Y0M8D','2027-03-01T07:00:00','2027-03-10T07:00:00','2027-05-25T07:00:00','2027-06-03T07:00:00','2027-05-25T07:00:00','2027-06-03T07:00:00','P0Y0M0D','P0Y0M0D',.T.,$,$,$,$,$,0.00);
#77=IFCTASK('ChJPXNedH$Er0zJHZ3WPzh',#6,'Floor 5 rooms',$,$,'3.6',$,$,$,.F.,$,#76,.CONSTRUCTION.);
#78=IFCTASKTIME('Penthouse floor Time',.PREDICTED.,$,.WORKTIME.,'P0Y0M10D','2027-03-01T07:00:00','2027-03-12T07:00:00','2027-06-04T07:00:00','2027-06-17T07:00:00','2027-06-04T07:00:00','2027-06-17T07:00:00','P0Y0M0D','P0Y0M0D',.T.,$,$,$,$,$,0.00);
#79=IFCTASK('mf8ViNtN2ZSj2Dd1mVPjUp',#6,'Penthouse floor',$,$,'3.7',$,$,$,.F.,$,#78,.CONSTRUCTION.);
#80=IFCTASKTIME('Roof terrace structure Time',.PREDICTED.,$,.WORKTIME.,'P0Y0M8D','2027-03-01T07:00:00','2027-03-10T07:00:00','2027-06-18T07:00:00','2027-06-29T07:00:00','2027-06-18T07:00:00','2027-06-29T07:00:00','P0Y0M0D','P0Y0M0D',.T.,$,$,$,$,$,0.00);
#81=IFCTASK('GvQf4VA1q3ovkbqFabtr09',#6,'Roof terrace structure',$,$,'3.8',$,$,$,.F.,$,#80,.CONSTRUCTION.);
#82=IFCTASKTIME('Topping out Time',.PREDICTED.,$,.WORKTIME.,'P0Y0M0D','2027-03-01T07:00:00','2027-03-01T07:00:00','2027-06-29T07:00:00','2027-06-29T07:00:00','2028-02-16T07:00:00','2028-02-16T07:00:00','P0Y0M151D','P0Y0M151D',.F.,$,$,$,$,$,0.00);
#83=IFCTASK('wBsv91c7q3UfDH5n2Ns3BZ',#6,'Topping out',$,$,'3.9',$,$,$,.T.,$,#82,.CONSTRUCTION.);
#84=IFCTASKTIME('4. Facade Time',.PREDICTED.,$,.WORKTIME.,'P0Y0M5D','2027-03-01T07:00:00','2027-03-05T07:00:00','2027-06-10T07:00:00','2027-08-25T07:00:00','2027-06-10T07:00:00','2028-02-16T07:00:00','P0Y0M0D','P0Y0M0D',.T.,$,$,$,$,$,0.00);
#85=IFCTASK('lN09srv9znSj_D9$f9EV0N',#6,'4. Facade',$,$,'4',$,$,$,.F.,$,#84,.INSTALLATION.);
#86=IFCTASKTIME('Curtain wall, sea side Time',.PREDICTED.,$,.WORKTIME.,'P0Y0M12D','2027-03-01T07:00:00','2027-03-16T07:00:00','2027-06-10T07:00:00','2027-06-25T07:00:00','2027-06-10T07:00:00','2027-06-25T07:00:00','P0Y0M0D','P0Y0M0D',.T.,$,$,$,$,$,0.00);
#87=IFCTASK('wB2XW$d9dJQDunjFt3PJIL',#6,'Curtain wall, sea side',$,$,'4.1',$,$,$,.F.,$,#86,.INSTALLATION.);
#88=IFCTASKTIME('Curtain wall, land side Time',.PREDICTED.,$,.WORKTIME.,'P0Y0M10D','2027-03-01T07:00:00','2027-03-12T07:00:00','2027-06-28T07:00:00','2027-07-09T07:00:00','2027-06-28T07:00:00','2027-07-09T07:00:00','P0Y0M0D','P0Y0M0D',.T.,$,$,$,$,$,0.00);
#89=IFCTASK('F7gPDniXDP9Rh9WXj9Q7f3',#6,'Curtain wall, land side',$,$,'4.2',$,$,$,.F.,$,#88,.INSTALLATION.);
#90=IFCTASKTIME('Natural stone cladding Time',.PREDICTED.,$,.WORKTIME.,'P0Y0M10D','2027-03-01T07:00:00','2027-03-12T07:00:00','2027-07-12T07:00:00','2027-07-23T07:00:00','2027-07-12T07:00:00','2027-07-23T07:00:00','P0Y0M0D','P0Y0M0D',.T.,$,$,$,$,$,0.00);
#91=IFCTASK('W$VzkludHJKb$LcHTZK5tH',#6,'Natural stone cladding',$,$,'4.3',$,$,$,.F.,$,#90,.CONSTRUCTION.);
#92=IFCTASKTIME('Window frames and glazing Time',.PREDICTED.,$,.WORKTIME.,'P0Y0M8D','2027-03-01T07:00:00','2027-03-10T07:00:00','2027-08-16T07:00:00','2027-08-25T07:00:00','2027-08-16T07:00:00','2027-08-25T07:00:00','P0Y0M0D','P0Y0M0D',.T.,$,$,$,$,$,0.00);
#93=IFCTASK('ItyZ8L4HxHjNx5WVNfgTJT',#6,'Window frames and glazing',$,$,'4.4',$,$,$,.F.,$,#92,.INSTALLATION.);
#94=IFCTASKTIME('Wind and weathertight Time',.PREDICTED.,$,.WORKTIME.,'P0Y0M0D','2027-03-01T07:00:00','2027-03-01T07:00:00','2027-08-25T07:00:00','2027-08-25T07:00:00','2028-02-16T07:00:00','2028-02-16T07:00:00','P0Y0M125D','P0Y0M125D',.F.,$,$,$,$,$,0.00);
#95=IFCTASK('K5fb43KVXx9R5l$XqnnhYH',#6,'Wind and weathertight',$,$,'4.5',$,$,$,.T.,$,#94,.INSTALLATION.);
#96=IFCTASKTIME('5. Building services Time',.PREDICTED.,$,.WORKTIME.,'P0Y0M5D','2027-03-01T07:00:00','2027-03-05T07:00:00','2027-08-26T07:00:00','2027-12-02T07:00:00','2027-08-26T07:00:00','2028-02-16T07:00:00','P0Y0M0D','P0Y0M0D',.T.,$,$,$,$,$,0.00);
#97=IFCTASK('HN09M1lvq7G1ixO1TXXRFX',#6,'5. Building services',$,$,'5',$,$,$,.F.,$,#96,.INSTALLATION.);
#98=IFCTASKTIME('Main electrical distribution Time',.PREDICTED.,$,.WORKTIME.,'P0Y0M8D','2027-03-01T07:00:00','2027-03-10T07:00:00','2027-08-26T07:00:00','2027-09-06T07:00:00','2027-08-26T07:00:00','2027-09-06T07:00:00','P0Y0M0D','P0Y0M0D',.T.,$,$,$,$,$,0.00);
#99=IFCTASK('kfG75npVNlzvYfyHrNs3fz',#6,'Main electrical distribution',$,$,'5.1',$,$,$,.F.,$,#98,.INSTALLATION.);
#100=IFCTASKTIME('Risers, all services Time',.PREDICTED.,$,.WORKTIME.,'P0Y0M12D','2027-03-01T07:00:00','2027-03-16T07:00:00','2027-09-07T07:00:00','2027-09-22T07:00:00','2027-11-22T07:00:00','2027-12-07T07:00:00','P0Y0M0D','P0Y0M54D',.F.,$,$,$,$,$,0.00);
#101=IFCTASK('fzV3ctiFstvDGbGVqHR$Mt',#6,'Risers, all services',$,$,'5.2',$,$,$,.F.,$,#100,.INSTALLATION.);
#102=IFCTASKTIME('VRF climate system Time',.PREDICTED.,$,.WORKTIME.,'P0Y0M10D','2027-03-01T07:00:00','2027-03-12T07:00:00','2027-09-14T07:00:00','2027-09-27T07:00:00','2027-11-29T07:00:00','2027-12-10T07:00:00','P0Y0M0D','P0Y0M54D',.F.,$,$,$,$,$,0.00);
#103=IFCTASK('2nztsnhlnTAZDljH752rmH',#6,'VRF climate system',$,$,'5.3',$,$,$,.F.,$,#102,.INSTALLATION.);
#104=IFCTASKTIME('Ventilation and air handling Time',.PREDICTED.,$,.WORKTIME.,'P0Y0M10D','2027-03-01T07:00:00','2027-03-12T07:00:00','2027-09-28T07:00:00','2027-10-11T07:00:00','2027-12-13T07:00:00','2027-12-24T07:00:00','P0Y0M0D','P0Y0M54D',.F.,$,$,$,$,$,0.00);
#105=IFCTASK('pPYLFld93zkP0T9$NNobvR',#6,'Ventilation and air handling',$,$,'5.4',$,$,$,.F.,$,#104,.INSTALLATION.);
#106=IFCTASKTIME('Lift installation (2 units) Time',.PREDICTED.,$,.WORKTIME.,'P0Y0M15D','2027-03-01T07:00:00','2027-03-19T07:00:00','2027-10-12T07:00:00','2027-11-01T07:00:00','2027-12-27T07:00:00','2028-01-14T07:00:00','P0Y0M0D','P0Y0M54D',.F.,$,$,$,$,$,0.00);
#107=IFCTASK('f7yrfHmN6H8f3vkniDUhkL',#6,'Lift installation (2 units)',$,$,'5.5',$,$,$,.F.,$,#106,.INSTALLATION.);
#108=IFCTASKTIME('Sprinkler and fire alarm Time',.PREDICTED.,$,.WORKTIME.,'P0Y0M8D','2027-03-01T07:00:00','2027-03-10T07:00:00','2027-11-02T07:00:00','2027-11-11T07:00:00','2028-01-17T07:00:00','2028-01-26T07:00:00','P0Y0M0D','P0Y0M54D',.F.,$,$,$,$,$,0.00);
#109=IFCTASK('ypklJXs1C7uvAP2VXDYhcn',#6,'Sprinkler and fire alarm',$,$,'5.6',$,$,$,.F.,$,#108,.INSTALLATION.);
#110=IFCTASKTIME('Wellness building services Time',.PREDICTED.,$,.WORKTIME.,'P0Y0M10D','2027-03-01T07:00:00','2027-03-12T07:00:00','2027-11-12T07:00:00','2027-11-25T07:00:00','2028-01-27T07:00:00','2028-02-09T07:00:00','P0Y0M0D','P0Y0M54D',.F.,$,$,$,$,$,0.00);
#111=IFCTASK('Pxqp1vAdBtEB4zXXol9BaN',#6,'Wellness building services',$,$,'5.7',$,$,$,.F.,$,#110,.INSTALLATION.);
#112=IFCTASKTIME('Hotel automation Time',.PREDICTED.,$,.WORKTIME.,'P0Y0M5D','2027-03-01T07:00:00','2027-03-05T07:00:00','2027-11-26T07:00:00','2027-12-02T07:00:00','2028-02-10T07:00:00','2028-02-16T07:00:00','P0Y0M54D','P0Y0M54D',.F.,$,$,$,$,$,0.00);
#113=IFCTASK('T3qxM1vtHpWHpFVXij6dn5',#6,'Hotel automation',$,$,'5.8',$,$,$,.F.,$,#112,.INSTALLATION.);
#114=IFCTASKTIME('6. Fit-out Time',.PREDICTED.,$,.WORKTIME.,'P0Y0M5D','2027-03-01T07:00:00','2027-03-05T07:00:00','2027-10-20T07:00:00','2028-01-21T07:00:00','2027-10-20T07:00:00','2028-01-21T07:00:00','P0Y0M0D','P0Y0M0D',.T.,$,$,$,$,$,0.00);
#115=IFCTASK('aZe1QjQX7zuvsb81ol1JEx',#6,'6. Fit-out',$,$,'6',$,$,$,.F.,$,#114,.CONSTRUCTION.);
#116=IFCTASKTIME('Prefab room walls Time',.PREDICTED.,$,.WORKTIME.,'P0Y0M12D','2027-03-01T07:00:00','2027-03-16T07:00:00','2027-10-20T07:00:00','2027-11-04T07:00:00','2027-10-20T07:00:00','2027-11-04T07:00:00','P0Y0M0D','P0Y0M0D',.T.,$,$,$,$,$,0.00);
#117=IFCTASK('0nzt2dZlHDWHndc12xLXyB',#6,'Prefab room walls',$,$,'6.1',$,$,$,.F.,$,#116,.CONSTRUCTION.);
#118=IFCTASKTIME('Prefab bathroom pods Time',.PREDICTED.,$,.WORKTIME.,'P0Y0M10D','2027-03-01T07:00:00','2027-03-12T07:00:00','2027-11-05T07:00:00','2027-11-18T07:00:00','2027-11-05T07:00:00','2027-11-18T07:00:00','P0Y0M0D','P0Y0M0D',.T.,$,$,$,$,$,0.00);
#119=IFCTASK('4FvZezZ1o5PrOdw$eR2HVv',#6,'Prefab bathroom pods',$,$,'6.2',$,$,$,.F.,$,#118,.INSTALLATION.);
#120=IFCTASKTIME('Screeds and carpet Time',.PREDICTED.,$,.WORKTIME.,'P0Y0M8D','2027-03-01T07:00:00','2027-03-10T07:00:00','2027-11-19T07:00:00','2027-11-30T07:00:00','2027-11-19T07:00:00','2027-11-30T07:00:00','P0Y0M0D','P0Y0M0D',.T.,$,$,$,$,$,0.00);
#121=IFCTASK('yDIlDF41eFSJAxqHkzmfcr',#6,'Screeds and carpet',$,$,'6.3',$,$,$,.F.,$,#120,.CONSTRUCTION.);
#122=IFCTASKTIME('Luxury lobby finishes Time',.PREDICTED.,$,.WORKTIME.,'P0Y0M10D','2027-03-01T07:00:00','2027-03-12T07:00:00','2027-12-01T07:00:00','2027-12-14T07:00:00','2027-12-01T07:00:00','2027-12-14T07:00:00','P0Y0M0D','P0Y0M0D',.T.,$,$,$,$,$,0.00);
#123=IFCTASK('ZVrXGfePpRhHnP6$Wfs3nX',#6,'Luxury lobby finishes',$,$,'6.4',$,$,$,.F.,$,#122,.CONSTRUCTION.);
#124=IFCTASKTIME('Restaurant kitchen Time',.PREDICTED.,$,.WORKTIME.,'P0Y0M8D','2027-03-01T07:00:00','2027-03-10T07:00:00','2027-12-15T07:00:00','2027-12-24T07:00:00','2027-12-15T07:00:00','2027-12-24T07:00:00','P0Y0M0D','P0Y0M0D',.T.,$,$,$,$,$,0.00);
#125=IFCTASK('RxSLxLT1QpOdeXjHNjtreT',#6,'Restaurant kitchen',$,$,'6.5',$,$,$,.F.,$,#124,.INSTALLATION.);
#126=IFCTASKTIME('Painting Time',.PREDICTED.,$,.WORKTIME.,'P0Y0M10D','2027-03-01T07:00:00','2027-03-12T07:00:00','2027-12-27T07:00:00','2028-01-07T07:00:00','2027-12-27T07:00:00','2028-01-07T07:00:00','P0Y0M0D','P0Y0M0D',.T.,$,$,$,$,$,0.00);
#127=IFCTASK('BJhHJ1APFnSr4ZTnUd4Lwx',#6,'Painting',$,$,'6.6',$,$,$,.F.,$,#126,.CONSTRUCTION.);
#128=IFCTASKTIME('Room furnishing Time',.PREDICTED.,$,.WORKTIME.,'P0Y0M10D','2027-03-01T07:00:00','2027-03-12T07:00:00','2028-01-10T07:00:00','2028-01-21T07:00:00','2028-01-10T07:00:00','2028-01-21T07:00:00','P0Y0M0D','P0Y0M0D',.T.,$,$,$,$,$,0.00);
#129=IFCTASK('WVRH3PJnmpEv6VnXzjAtOZ',#6,'Room furnishing',$,$,'6.7',$,$,$,.F.,$,#128,.LOGISTIC.);
#130=IFCTASKTIME('7. Handover Time',.PREDICTED.,$,.WORKTIME.,'P0Y0M5D','2027-03-01T07:00:00','2027-03-05T07:00:00','2028-01-24T07:00:00','2028-02-16T07:00:00','2028-01-24T07:00:00','2028-02-16T07:00:00','P0Y0M0D','P0Y0M0D',.T.,$,$,$,$,$,0.00);
#131=IFCTASK('V$$ZCd3HPJUxltGVGlP5$j',#6,'7. Handover',$,$,'7',$,$,$,.F.,$,#130,.CONSTRUCTION.);
#132=IFCTASKTIME('Finish roof terrace Time',.PREDICTED.,$,.WORKTIME.,'P0Y0M5D','2027-03-01T07:00:00','2027-03-05T07:00:00','2028-01-24T07:00:00','2028-01-28T07:00:00','2028-01-24T07:00:00','2028-01-28T07:00:00','P0Y0M0D','P0Y0M0D',.T.,$,$,$,$,$,0.00);
#133=IFCTASK('gTTNKf7t7NYf9Lknex2BWv',#6,'Finish roof terrace',$,$,'7.1',$,$,$,.F.,$,#132,.CONSTRUCTION.);
#134=IFCTASKTIME('External areas, boulevard Time',.PREDICTED.,$,.WORKTIME.,'P0Y0M8D','2027-03-01T07:00:00','2027-03-10T07:00:00','2028-01-31T07:00:00','2028-02-09T07:00:00','2028-01-31T07:00:00','2028-02-09T07:00:00','P0Y0M0D','P0Y0M0D',.T.,$,$,$,$,$,0.00);
#135=IFCTASK('kf09MxH7uX2ttf0VL74hsv',#6,'External areas, boulevard',$,$,'7.2',$,$,$,.F.,$,#134,.CONSTRUCTION.);
#136=IFCTASKTIME('Testing and commissioning Time',.PREDICTED.,$,.WORKTIME.,'P0Y0M5D','2027-03-01T07:00:00','2027-03-05T07:00:00','2028-02-10T07:00:00','2028-02-16T07:00:00','2028-02-10T07:00:00','2028-02-16T07:00:00','P0Y0M0D','P0Y0M0D',.T.,$,$,$,$,$,0.00);
#137=IFCTASK('OTDPpFKn29wJM9KH8z7DSN',#6,'Testing and commissioning',$,$,'7.3',$,$,$,.F.,$,#136,.ATTENDANCE.);
#138=IFCTASKTIME('Hotel handover Time',.PREDICTED.,$,.WORKTIME.,'P0Y0M0D','2027-03-01T07:00:00','2027-03-01T07:00:00','2028-02-16T07:00:00','2028-02-16T07:00:00','2028-02-16T07:00:00','2028-02-16T07:00:00','P0Y0M0D','P0Y0M0D',.T.,$,$,$,$,$,0.00);
#139=IFCTASK('rJxXuDNNc1QDqBkXMnPjQn',#6,'Hotel handover',$,$,'7.4',$,$,$,.T.,$,#138,.CONSTRUCTION.);
#140=IFCRELNESTS('KPOHxrHPtBlr8NqFGn3tm1',#6,'WBS 1. Preparation',$,#43,( #45,#47,#49,#51));
#141=IFCRELNESTS('QR09Alv9NlBn5lFVjRFZbX',#6,'WBS 2. Foundations',$,#53,( #55,#57,#59,#61,#63));
#142=IFCRELNESTS('mN8Fzr8vsfZ9r7YFNpTNYJ',#6,'WBS 3. Structural works',$,#65,( #67,#69,#71,#73,#75,#77,#79,#81,#83));
#143=IFCRELNESTS('ApP3sHtfYDIdKRqFip2BmF',#6,'WBS 4. Facade',$,#85,( #87,#89,#91,#93,#95));
#144=IFCRELNESTS('spPzE$APHVMFNvIFK1lzlF',#6,'WBS 5. Building services',$,#97,( #99,#101,#103,#105,#107,#109,#111,#113));
#145=IFCRELNESTS('L7aLXf09hjQpePUV1VFLEb',#6,'WBS 6. Fit-out',$,#115,( #117,#119,#121,#123,#125,#127,#129));
#146=IFCRELNESTS('c5qpd5o9vtU5vj9$afIxnb',#6,'WBS 7. Handover',$,#131,( #133,#135,#137,#139));
#147=IFCRELNESTS('tjjP5r1vgdnD4TBHzDgTrv',#6,'WBS Hoofd',$,#40,(#43,#53,#65,#85,#97,#115,#131));
#148=IFCRELSEQUENCE('stIlXfW9LdyLwJFVxHT98J',#6,$,$,#45,#47,$,.FINISH_START.,$);
#149=IFCRELSEQUENCE('AjDvL9y$GJM399ClgFHBCH',#6,$,$,#47,#49,$,.FINISH_START.,$);
#150=IFCRELSEQUENCE('tDHRC71d7fYfhTzFGVfZLt',#6,$,$,#49,#51,$,.FINISH_START.,$);
#151=IFCRELSEQUENCE('pdgz_d3HTDG$8nhlXp6JUl',#6,$,$,#55,#57,$,.FINISH_START.,$);
#152=IFCRELSEQUENCE('zHtDdbQV9hxXYZblA5I5d7',#6,$,$,#57,#59,$,.FINISH_START.,$);
#153=IFCRELSEQUENCE('uJ3tgxVPhP4D43f$IZyL_X',#6,$,$,#59,#61,$,.FINISH_START.,$);
#154=IFCRELSEQUENCE('1pw9cN09d7WlxRKFkZ4Zzr',#6,$,$,#61,#63,$,.FINISH_START.,$);
#155=IFCRELSEQUENCE('6Hb$2vP9dj6Jgr2XRRAteT',#6,$,$,#67,#69,$,.FINISH_START.,$);
#156=IFCRELSEQUENCE('mNmPhD_NshVR3xClsVpPjT',#6,$,$,#69,#71,$,.FINISH_START.,$);
#157=IFCRELSEQUENCE('rDvTGf8vsf5Xkn3na5J7bb',#6,$,$,#71,#73,$,.FINISH_START.,$);
#158=IFCRELSEQUENCE('9fI5UtDXr3ed0Tf$3JcvT9',#6,$,$,#73,#75,$,.FINISH_START.,$);
#159=IFCRELSEQUENCE('8jb$Q9qn4x$ZN5alTVNTxF',#6,$,$,#75,#77,$,.FINISH_START.,$);
#160=IFCRELSEQUENCE('Y$dL7LalLD61ePYVv5I5jZ',#6,$,$,#77,#79,$,.FINISH_START.,$);
#161=IFCRELSEQUENCE('c5q5kHGfcXgFFDf$7RAtu5',#6,$,$,#79,#81,$,.FINISH_START.,$);
#162=IFCRELSEQUENCE('fTjvbXRVpPlJ613F8Zb1YD',#6,$,$,#81,#83,$,.FINISH_START.,$);
#163=IFCRELSEQUENCE('Pb8XmtCFmz0Frds$TVfTZ5',#6,$,$,#87,#89,$,.FINISH_START.,$);
#164=IFCRELSEQUENCE('P$fR8LiXbhxXQF91ZX1xxH',#6,$,$,#89,#91,$,.FINISH_START.,$);
#165=IFCRELSEQUENCE('5B69YRcVZp8v6jd$T$b$IL',#6,$,$,#91,#93,$,.FINISH_START.,$);
#166=IFCRELSEQUENCE('XZWNiLZ$6l0FL9GXeRstiX',#6,$,$,#93,#95,$,.FINISH_START.,$);
#167=IFCRELSEQUENCE('R5aLBzqXZDWHFPoXmXVRT9',#6,$,$,#99,#101,$,.FINISH_START.,$);
#168=IFCLAGTIME('Lag',.PREDICTED.,$,IFCDURATION('P5D'),.WORKTIME.);
#169=IFCRELSEQUENCE('sNg3oV6V3ni3lTblAXJ7zv',#6,$,$,#101,#103,#168,.START_START.,$);
#170=IFCRELSEQUENCE('f7C52BmfEF7LYfSFPHxXuJ',#6,$,$,#103,#105,$,.FINISH_START.,$);
#171=IFCRELSEQUENCE('FLLHVf8vExFp8te$N96Pzh',#6,$,$,#105,#107,$,.FINISH_START.,$);
#172=IFCRELSEQUENCE('UZe1EzT1Udi3nDXVm$zfcr',#6,$,$,#107,#109,$,.FINISH_START.,$);
#173=IFCRELSEQUENCE('ivCpB3al$BjvEL2FpveX0N',#6,$,$,#109,#111,$,.FINISH_START.,$);
#174=IFCRELSEQUENCE('tjxV8JTHRhBnR$f$fj1jAz',#6,$,$,#111,#113,$,.FINISH_START.,$);
#175=IFCRELSEQUENCE('8rkH3PzlNRTd0ZlXxhWdN1',#6,$,$,#117,#119,$,.FINISH_START.,$);
#176=IFCRELSEQUENCE('9ts7pjDFANT9xHP$L3VbDH',#6,$,$,#119,#121,$,.FINISH_START.,$);
#177=IFCRELSEQUENCE('IbDPzPh$khzNHNSlLz7p4L',#6,$,$,#121,#123,$,.FINISH_START.,$);
#178=IFCRELSEQUENCE('tfg32BOPTDm$GrkX_9EVm1',#6,$,$,#123,#125,$,.FINISH_START.,$);
#179=IFCRELSEQUENCE('4HR1E1I9djM3rdEXC3u1_Z',#6,$,$,#125,#127,$,.FINISH_START.,$);
#180=IFCRELSEQUENCE('0lvTG7APFlG1GLMlwDpP$J',#6,$,$,#127,#129,$,.FINISH_START.,$);
#181=IFCRELSEQUENCE('k5vrl5vtNHx$apN1TzGfId',#6,$,$,#133,#135,$,.FINISH_START.,$);
#182=IFCRELSEQUENCE('0HVhTfXvGTCTl9WXZXfTnx',#6,$,$,#135,#137,$,.FINISH_START.,$);
#183=IFCRELSEQUENCE('H5$ZGPolLjQDiX$VOjlzj1',#6,$,$,#137,#139,$,.FINISH_START.,$);
#184=IFCLAGTIME('Lag',.PREDICTED.,$,IFCDURATION('P9D'),.WORKTIME.);
#185=IFCRELSEQUENCE('JRZNyziV1BjvU9e1S9YF5n',#6,$,$,#45,#55,#184,.START_START.,$);
#186=IFCLAGTIME('Lag',.PREDICTED.,$,IFCRATIOMEASURE(0.4),.WORKTIME.);
#187=IFCRELSEQUENCE('I5X3AhhlLDIPqr2XdFXRxL',#6,$,$,#55,#67,#186,.START_START.,$);
#188=IFCLAGTIME('Lag',.PREDICTED.,$,IFCDURATION('-P14D'),.WORKTIME.);
#189=IFCRELSEQUENCE('FrF5YtBHtBnhoVTlyhfTRX',#6,$,$,#81,#87,#188,.FINISH_START.,$);
#190=IFCLAGTIME('Lag',.PREDICTED.,$,IFCDURATION('P2D'),.WORKTIME.);
#191=IFCRELSEQUENCE('ZTWNWV3lv3O97Xf1s$Xp4B',#6,$,$,#81,#93,#190,.FINISH_FINISH.,$);
#192=IFCRELSEQUENCE('STGPLDMdxbD9HzFXR1$J2T',#6,$,$,#93,#99,$,.FINISH_START.,$);
#193=IFCLAGTIME('Lag',.PREDICTED.,$,IFCDURATION('P39D'),.WORKTIME.);
#194=IFCRELSEQUENCE('WVDd$7QvqvG1m54n3pMTHr',#6,$,$,#99,#117,#193,.START_START.,$);
#195=IFCRELSEQUENCE('O5CxIlmNQjCZ11HVrJlz1N',#6,$,$,#129,#133,$,.FINISH_START.,$);
#196=IFCRELASSIGNSTOCONTROL('rDVhNjbXHjyDCF$VkTSruD',#6,$,$,(#43,#45,#47,#49,#51,#53,#55,#57,#59,#61,#63,#65,#67,#69,#71,#73,#75,#77,#79,#81,#83,#85,#87,#89,#91,#93,#95,#97,#99,#101,#103,#105,#107,#109,#111,#113,#115,#117,#119,#121,#123,#125,#127,#129,#131,#133,#135,#137,#139),$,#40);
#197=IFCPROPERTYSINGLEVALUE('InternalProjectId',$,IFCTEXT('proj-mtx91h2awrwz2612'),$);
#198=IFCPROPERTYSINGLEVALUE('wbsAutoNumber',$,IFCBOOLEAN(.T.),$);
#199=IFCPROPERTYSINGLEVALUE('DefaultTaskDurationUnit',$,IFCLABEL('days'),$);
#200=IFCPROPERTYSINGLEVALUE('ProjectStartDate',$,IFCDATE('2027-03-01'),$);
#201=IFCPROPERTYSINGLEVALUE('ProjectEndDate',$,$,$);
#202=IFCPROPERTYSINGLEVALUE('CreatedAt',$,IFCTEXT('2026-09-11T17:47:46.978Z'),$);
#203=IFCPROPERTYSINGLEVALUE('ModifiedAt',$,IFCTEXT('2026-09-11T17:47:46.980Z'),$);
#204=IFCPROPERTYSET('e5a3ArlP$tNZvpDF1ZK5n5',#6,'OPS_ProjectSettings',$,(#197,#198,#199,#200,#201,#202,#203));
#205=IFCRELDEFINESBYPROPERTIES('0Hdzo1sPJhdjQlBF$1BF9l',#6,$,$,(#13),#204);
#206=IFCPROPERTYSINGLEVALUE('InternalTaskId',$,IFCTEXT('task-mtx91h2dwwrn2613'),$);
#207=IFCPROPERTYSET('_j2Brv67YJgzPHZHSbnTzh',#6,'OPS_TaskIdentity',$,(#206));
#208=IFCRELDEFINESBYPROPERTIES('5nvTCbL1IhDPiV7$hP8$of',#6,$,$,(#43),#207);
#209=IFCPROPERTYSINGLEVALUE('InternalTaskId',$,IFCTEXT('task-mtx91h2dvk1k2614'),$);
#210=IFCPROPERTYSET('o7kHZNdtdp6$e$N1zjk$23',#6,'OPS_TaskIdentity',$,(#209));
#211=IFCRELDEFINESBYPROPERTIES('7L2BjT17MxdrSvcl$$3fQH',#6,$,$,(#45),#210);
#212=IFCPROPERTYSINGLEVALUE('InternalTaskId',$,IFCTEXT('task-mtx91h2ezmh82615'),$);
#213=IFCPROPERTYSET('eZjv5l$76TwJYZpnN9oX0t',#6,'OPS_TaskIdentity',$,(#212));
#214=IFCRELDEFINESBYPROPERTIES('Hx7BlbRXjNLlJ$xH8zXbHn',#6,$,$,(#47),#213);
#215=IFCPROPERTYSINGLEVALUE('InternalTaskId',$,IFCTEXT('task-mtx91h2gb6qw2616'),$);
#216=IFCPROPERTYSET('Y$Vzkl8PHD0nH391GH7bVP',#6,'OPS_TaskIdentity',$,(#215));
#217=IFCRELDEFINESBYPROPERTIES('NTh1YRM1QpWHLZ3FODxHtJ',#6,$,$,(#49),#216);
#218=IFCPROPERTYSINGLEVALUE('InternalTaskId',$,IFCTEXT('task-mtx91h2hpe382617'),$);
#219=IFCPROPERTYSET('yHLH9zjVPJEBytyFTzWd1j',#6,'OPS_TaskIdentity',$,(#218));
#220=IFCRELDEFINESBYPROPERTIES('BjLlr3S$6nSrmbO18ryhQr',#6,$,$,(#51),#219);
#221=IFCPROPERTYSINGLEVALUE('InternalTaskId',$,IFCTEXT('task-mtx91h2ig0gv2618'),$);
#222=IFCPROPERTYSET('4nXL1Ps$KjSBiRKF6NIxRV',#6,'OPS_TaskIdentity',$,(#221));
#223=IFCRELDEFINESBYPROPERTIES('rDtpTtLHDPdryzN$Izmf2X',#6,$,$,(#53),#222);
#224=IFCPROPERTYSINGLEVALUE('InternalTaskId',$,IFCTEXT('task-mtx91h2jj5un2619'),$);
#225=IFCPROPERTYSET('kNuXihjXbVZ9LfqHA11Jgj',#6,'OPS_TaskIdentity',$,(#224));
#226=IFCRELDEFINESBYPROPERTIES('dRGPb5vtrZ4pWp5Hablz1f',#6,$,$,(#55),#225);
#227=IFCPROPERTYSINGLEVALUE('InternalTaskId',$,IFCTEXT('task-mtx91h2lx74n2620'),$);
#228=IFCPROPERTYSET('X34TG9yHX7rnVRaljf_r4h',#6,'OPS_TaskIdentity',$,(#227));
#229=IFCRELDEFINESBYPROPERTIES('Q$X3EV2n8tlr49CHAR2ltJ',#6,$,$,(#57),#228);
#230=IFCPROPERTYSINGLEVALUE('InternalTaskId',$,IFCTEXT('task-mtx91h2m88by2621'),$);
#231=IFCPROPERTYSET('1J2r9VUnUvm$i1hl1TKjsv',#6,'OPS_TaskIdentity',$,(#230));
#232=IFCRELDEFINESBYPROPERTIES('wlxVmf8vUDUNhz7$v5Ixb1',#6,$,$,(#59),#231);
#233=IFCPROPERTYSINGLEVALUE('InternalTaskId',$,IFCTEXT('task-mtx91h2nnft52622'),$);
#234=IFCPROPERTYSET('Z$NRebolV5X3X5e1Vp6jA7',#6,'OPS_TaskIdentity',$,(#233));
#235=IFCRELDEFINESBYPROPERTIES('MTTN4Z09NnHJk5GX2RNhQr',#6,$,$,(#61),#234);
#236=IFCPROPERTYSINGLEVALUE('InternalTaskId',$,IFCTEXT('task-mtx91h2o1f312623'),$);
#237=IFCPROPERTYSET('VTe$kJRVRBXR715lyLdj6x',#6,'OPS_TaskIdentity',$,(#236));
#238=IFCRELDEFINESBYPROPERTIES('cXrXiL31GTibPFP$qz07hD',#6,$,$,(#63),#237);
#239=IFCPROPERTYSINGLEVALUE('InternalTaskId',$,IFCTEXT('task-mtx91h2p725f2624'),$);
#240=IFCPROPERTYSET('6hk5U5w7kVxX2J5ncTjvHH',#6,'OPS_TaskIdentity',$,(#239));
#241=IFCRELDEFINESBYPROPERTIES('1HPz6v2fElrFnjhnBJ1j2V',#6,$,$,(#65),#240);
#242=IFCPROPERTYSINGLEVALUE('InternalTaskId',$,IFCTEXT('task-mtx91h2q3pvq2625'),$);
#243=IFCPROPERTYSET('OTh1EZ$7M59bt9iHyr5Xi1',#6,'OPS_TaskIdentity',$,(#242));
#244=IFCRELDEFINESBYPROPERTIES('HxXzE1_NsL9zXbynJRvbBT',#6,$,$,(#67),#243);
#245=IFCPROPERTYSINGLEVALUE('InternalTaskId',$,IFCTEXT('task-mtx91h2rouke2626'),$);
#246=IFCPROPERTYSET('kfeH7LCFGpE7ARe1GXPjI7',#6,'OPS_TaskIdentity',$,(#245));
#247=IFCRELDEFINESBYPROPERTIES('db0tQjklPJEr4TLHlrpPLf',#6,$,$,(#69),#246);
#248=IFCPROPERTYSINGLEVALUE('InternalTaskId',$,IFCTEXT('task-mtx91h2trhop2627'),$);
#249=IFCPROPERTYSET('iRrXGdQVD5vLgtCHgryhkB',#6,'OPS_TaskIdentity',$,(#248));
#250=IFCRELDEFINESBYPROPERTIES('pvY1kJB$ynX3rvYFJ5DPxH',#6,$,$,(#71),#249);
#251=IFCPROPERTYSINGLEVALUE('InternalTaskId',$,IFCTEXT('task-mtx91h2u2zxb2628'),$);
#252=IFCPROPERTYSET('NT3tcJM$cXId0zbFuZBn1p',#6,'OPS_TaskIdentity',$,(#251));
#253=IFCRELDEFINESBYPROPERTIES('GvQfy341qzgFtNe$hZxV0t',#6,$,$,(#73),#252);
#254=IFCPROPERTYSINGLEVALUE('InternalTaskId',$,IFCTEXT('task-mtx91h2v8jcj2629'),$);
#255=IFCPROPERTYSET('ovMP$vcviDePWD5HipAztj',#6,'OPS_TaskIdentity',$,(#254));
#256=IFCRELDEFINESBYPROPERTIES('vLAZ8rudZX2tB7on6t2HZN',#6,$,$,(#75),#255);
#257=IFCPROPERTYSINGLEVALUE('InternalTaskId',$,IFCTEXT('task-mtx91h2w4x9t2630'),$);
#258=IFCPROPERTYSET('lbBXiBV74Hz7kHnVb$FZFx',#6,'OPS_TaskIdentity',$,(#257));
#259=IFCRELDEFINESBYPROPERTIES('Ats7H57t7NkdClRF8zt39p',#6,$,$,(#77),#258);
#260=IFCPROPERTYSINGLEVALUE('InternalTaskId',$,IFCTEXT('task-mtx91h2xhyh82631'),$);
#261=IFCPROPERTYSET('pPQJXjIH3TY5xxmVghGNs7',#6,'OPS_TaskIdentity',$,(#260));
#262=IFCRELDEFINESBYPROPERTIES('6B2VuDVd$fjvoX3HgLuF5l',#6,$,$,(#79),#261);
#263=IFCPROPERTYSINGLEVALUE('InternalTaskId',$,IFCTEXT('task-mtx91h2zz62t2632'),$);
#264=IFCPROPERTYSET('J9ibKLT16l0Fnpt1rDZfcL',#6,'OPS_TaskIdentity',$,(#263));
#265=IFCRELDEFINESBYPROPERTIES('Q5KRO5wvILJvInLH9dmfkP',#6,$,$,(#81),#264);
#266=IFCPROPERTYSINGLEVALUE('InternalTaskId',$,IFCTEXT('task-mtx91h310me92633'),$);
#267=IFCPROPERTYSET('ZzazcJIHlV61yfGVEFr$Et',#6,'OPS_TaskIdentity',$,(#266));
#268=IFCRELDEFINESBYPROPERTIES('S11ZO3DVvNgnBvMHMLmfAz',#6,$,$,(#83),#267);
#269=IFCPROPERTYSINGLEVALUE('InternalTaskId',$,IFCTEXT('task-mtx91h35xrgp2634'),$);
#270=IFCPROPERTYSET('q9klB34$WRbXoVzlI$rFPP',#6,'OPS_TaskIdentity',$,(#269));
#271=IFCRELDEFINESBYPROPERTIES('xh_rLtyH9hBFZB_XrDDdv9',#6,$,$,(#85),#270);
#272=IFCPROPERTYSINGLEVALUE('InternalTaskId',$,IFCTEXT('task-mtx91h37obwm2635'),$);
#273=IFCPROPERTYSET('ZziRuDNfYjsZjXHXxhmtub',#6,'OPS_TaskIdentity',$,(#272));
#274=IFCRELDEFINESBYPROPERTIES('a$t5cDAP$9nLErc1Ab2l5h',#6,$,$,(#87),#273);
#275=IFCPROPERTYSINGLEVALUE('InternalTaskId',$,IFCTEXT('task-mtx91h394xjc2636'),$);
#276=IFCPROPERTYSET('KPGdpHW9BNkPSjpldlxV0f',#6,'OPS_TaskIdentity',$,(#275));
#277=IFCRELDEFINESBYPROPERTIES('RRmPnHNf8VsljXXVEpcD4L',#6,$,$,(#89),#276);
#278=IFCPROPERTYSINGLEVALUE('InternalTaskId',$,IFCTEXT('task-mtx91h3azbje2637'),$);
#279=IFCPROPERTYSET('3lPzcJEHVRD9Bds13nzt8R',#6,'OPS_TaskIdentity',$,(#278));
#280=IFCRELDEFINESBYPROPERTIES('ApdzEZnPjfLHvJlV$Z4LEx',#6,$,$,(#91),#279);
#281=IFCPROPERTYSINGLEVALUE('InternalTaskId',$,IFCTEXT('task-mtx91h3b8p1l2638'),$);
#282=IFCPROPERTYSET('B9cfmPEHV5$Z7prHjbFTXT',#6,'OPS_TaskIdentity',$,(#281));
#283=IFCRELDEFINESBYPROPERTIES('yJYh$vk9XP$TdTnXnfMTvN',#6,$,$,(#93),#282);
#284=IFCPROPERTYSINGLEVALUE('InternalTaskId',$,IFCTEXT('task-mtx91h3d1upv2639'),$);
#285=IFCPROPERTYSET('nBlbSH8v_torKRily7iJMN',#6,'OPS_TaskIdentity',$,(#284));
#286=IFCRELDEFINESBYPROPERTIES('MvCxo1UfWxHJI5GVCTazdh',#6,$,$,(#95),#285);
#287=IFCPROPERTYSINGLEVALUE('InternalTaskId',$,IFCTEXT('task-mtx91h3e06yk2640'),$);
#288=IFCPROPERTYSET('C9kHFnZ1MdPrWDLHJ96dNV',#6,'OPS_TaskIdentity',$,(#287));
#289=IFCRELDEFINESBYPROPERTIES('xL2Bl5nvcXcV_jZHeJFZDj',#6,$,$,(#97),#288);
#290=IFCPROPERTYSINGLEVALUE('InternalTaskId',$,IFCTEXT('task-mtx91h3guo7s2641'),$);
#291=IFCPROPERTYSET('rN6p9zhHjtNTJ13niVhV0t',#6,'OPS_TaskIdentity',$,(#290));
#292=IFCRELDEFINESBYPROPERTIES('4DAvFhz1i9ored2XdlBnbV',#6,$,$,(#99),#291);
#293=IFCPROPERTYSINGLEVALUE('InternalTaskId',$,IFCTEXT('task-mtx91h3ichty2642'),$);
#294=IFCPROPERTYSET('CLR$cNuPhpE7Ad_XxLOHj$',#6,'OPS_TaskIdentity',$,(#293));
#295=IFCRELDEFINESBYPROPERTIES('jf8XeZv9JfxX2pP$07uF1D',#6,$,$,(#101),#294);
#296=IFCPROPERTYSINGLEVALUE('InternalTaskId',$,IFCTEXT('task-mtx91h3j2k1y2643'),$);
#297=IFCPROPERTYSET('RV3tkJL1gxPBiX9$m$Bnj3',#6,'OPS_TaskIdentity',$,(#296));
#298=IFCRELDEFINESBYPROPERTIES('Kxt5Qp2fYJEB43VVI1pdZ5',#6,$,$,(#103),#297);
#299=IFCPROPERTYSINGLEVALUE('InternalTaskId',$,IFCTEXT('task-mtx91h3l60pe2644'),$);
#300=IFCPROPERTYSET('g7qD5LhH$rTtjp3nG1j7NZ',#6,'OPS_TaskIdentity',$,(#299));
#301=IFCRELDEFINESBYPROPERTIES('Z3CpV9iFgvTPWDpn3Hd5FR',#6,$,$,(#105),#300);
#302=IFCPROPERTYSINGLEVALUE('InternalTaskId',$,IFCTEXT('task-mtx91h3nqh8q2645'),$);
#303=IFCPROPERTYSET('wLoby$ItJhvp8nbl6fobtJ',#6,'OPS_TaskIdentity',$,(#302));
#304=IFCRELDEFINESBYPROPERTIES('$l7TexMdXbTd4tSFHhHBuR',#6,$,$,(#107),#303);
#305=IFCPROPERTYSINGLEVALUE('InternalTaskId',$,IFCTEXT('task-mtx91h3p4qbw2646'),$);
#306=IFCPROPERTYSET('X3CD3PjnahtzpZP1yPm9mF',#6,'OPS_TaskIdentity',$,(#305));
#307=IFCRELDEFINESBYPROPERTIES('Q$Hjt1E9JNDPWDRlEHfhsZ',#6,$,$,(#109),#306);
#308=IFCPROPERTYSINGLEVALUE('InternalTaskId',$,IFCTEXT('task-mtx91h3qimqz2647'),$);
#309=IFCPROPERTYSET('yJI5kDd97ZKzR1$VkTKxPP',#6,'OPS_TaskIdentity',$,(#308));
#310=IFCRELDEFINESBYPROPERTIES('zlNjTbkH5F1TndkVgHZ98D',#6,$,$,(#111),#309);
#311=IFCPROPERTYSINGLEVALUE('InternalTaskId',$,IFCTEXT('task-mtx91h3si87v2648'),$);
#312=IFCPROPERTYSET('0HfJd9rl7ZKRXbSF9d8F1J',#6,'OPS_TaskIdentity',$,(#311));
#313=IFCRELDEFINESBYPROPERTIES('vFHbq5Nfw3_tp3ZHyBjvVP',#6,$,$,(#113),#312);
#314=IFCPROPERTYSINGLEVALUE('InternalTaskId',$,IFCTEXT('task-mtx91h3t1odq2649'),$);
#315=IFCPROPERTYSET('$Jg3_PbVLjcD4fWVhTT9Cn',#6,'OPS_TaskIdentity',$,(#314));
#316=IFCRELDEFINESBYPROPERTIES('6lTNW1HvSBLHP3TlOJlzJ$',#6,$,$,(#115),#315);
#317=IFCPROPERTYSINGLEVALUE('InternalTaskId',$,IFCTEXT('task-mtx91h3vk0oa2650'),$);
#318=IFCPROPERTYSET('ZXbH9zrlb17paPoXqTi5F5',#6,'OPS_TaskIdentity',$,(#317));
#319=IFCRELDEFINESBYPROPERTIES('M3txkplv45V3nDv$ghelj$',#6,$,$,(#117),#318);
#320=IFCPROPERTYSINGLEVALUE('InternalTaskId',$,IFCTEXT('task-mtx91h3xmnb92651'),$);
#321=IFCPROPERTYSET('P$$ZGvMP7NAlnv_nt7S3jV',#6,'OPS_TaskIdentity',$,(#320));
#322=IFCRELDEFINESBYPROPERTIES('IRrXqdpFgRTPO$N13ps3n$',#6,$,$,(#119),#321);
#323=IFCPROPERTYSINGLEVALUE('InternalTaskId',$,IFCTEXT('task-mtx91h3z3zrx2652'),$);
#324=IFCPROPERTYSET('V3CDZNnPDP1ZXHt$S9wPPd',#6,'OPS_TaskIdentity',$,(#323));
#325=IFCRELDEFINESBYPROPERTIES('Q1ljNnqXB9wJIbiHqn7p4L',#6,$,$,(#121),#324);
#326=IFCPROPERTYSINGLEVALUE('InternalTaskId',$,IFCTEXT('task-mtx91h408now2653'),$);
#327=IFCPROPERTYSET('wn7TmtCnGJAT$Vbne5EbXv',#6,'OPS_TaskIdentity',$,(#326));
#328=IFCRELDEFINESBYPROPERTIES('DB7Zir$76TU5lfinoFbFj3',#6,$,$,(#123),#327);
#329=IFCPROPERTYSINGLEVALUE('InternalTaskId',$,IFCTEXT('task-mtx91h420kum2654'),$);
#330=IFCPROPERTYSET('_jYhbbbVX5f5BDlVxL8nbV',#6,'OPS_TaskIdentity',$,(#329));
#331=IFCRELDEFINESBYPROPERTIES('xFdz6TOPZDOPe7Ql$XdJ_z',#6,$,$,(#125),#330);
#332=IFCPROPERTYSINGLEVALUE('InternalTaskId',$,IFCTEXT('task-mtx91h45dyi32655'),$);
#333=IFCPROPERTYSET('I5nDjX_FSVb1eP2V3l9riV',#6,'OPS_TaskIdentity',$,(#332));
#334=IFCRELDEFINESBYPROPERTIES('rNoRmNedpRLlRBUVPhu1Mp',#6,$,$,(#127),#333);
#335=IFCPROPERTYSINGLEVALUE('InternalTaskId',$,IFCTEXT('task-mtx91h47ixpr2656'),$);
#336=IFCPROPERTYSET('zFjdB3inonXzFp91PHpPn5',#6,'OPS_TaskIdentity',$,(#335));
#337=IFCRELDEFINESBYPROPERTIES('AjjP17APhv0FdFVVaNAzll',#6,$,$,(#129),#336);
#338=IFCPROPERTYSINGLEVALUE('InternalTaskId',$,IFCTEXT('task-mtx91h4anzql2657'),$);
#339=IFCPROPERTYSET('yl5XalGfg5PrGxSnJ9cvrT',#6,'OPS_TaskIdentity',$,(#338));
#340=IFCRELDEFINESBYPROPERTIES('BJ5VurGfmZKbjj71b1Pxpp',#6,$,$,(#131),#339);
#341=IFCPROPERTYSINGLEVALUE('InternalTaskId',$,IFCTEXT('task-mtx91h4cwat72658'),$);
#342=IFCPROPERTYSET('DLTNyzyll$2RpzRnCZK5h9',#6,'OPS_TaskIdentity',$,(#341));
#343=IFCRELDEFINESBYPROPERTIES('id09QjIH73OPunLlPFvDKX',#6,$,$,(#133),#342);
#344=IFCPROPERTYSINGLEVALUE('InternalTaskId',$,IFCTEXT('task-mtx91h4eoe3o2659'),$);
#345=IFCPROPERTYSET('rNATCPJFyl3vsPYX5FNTR$',#6,'OPS_TaskIdentity',$,(#344));
#346=IFCRELDEFINESBYPROPERTIES('ypwtM$H7KjSBqBoXGH7bDF',#6,$,$,(#135),#345);
#347=IFCPROPERTYSINGLEVALUE('InternalTaskId',$,IFCTEXT('task-mtx91h4hcnpt2660'),$);
#348=IFCPROPERTYSET('rJ5XWXJnCZUxVH91aR$jwV',#6,'OPS_TaskIdentity',$,(#347));
#349=IFCRELDEFINESBYPROPERTIES('IfO$snpV5bTPu9mXuLuFfV',#6,$,$,(#137),#348);
#350=IFCPROPERTYSINGLEVALUE('InternalTaskId',$,IFCTEXT('task-mtx91h4kcspn2661'),$);
#351=IFCPROPERTYSET('k5$ZOzxF0r7DOX3lI1J7NT',#6,'OPS_TaskIdentity',$,(#350));
#352=IFCRELDEFINESBYPROPERTIES('rf2BbXL$QJibJJf$glT9Oh',#6,$,$,(#139),#351);
#353=IFCPROPERTYSINGLEVALUE('MilestoneKind',$,IFCLABEL('START'),$);
#354=IFCPROPERTYSET('rNM3Y9xFa$NZ55mV8r4Lw5',#6,'OPS_Milestone',$,(#353));
#355=IFCRELDEFINESBYPROPERTIES('ELR16T0tbrlBqrs$fNgTpj',#6,$,$,(#51),#354);
#356=IFCPROPERTYSINGLEVALUE('MilestoneKind',$,IFCLABEL('FINISH'),$);
#357=IFCPROPERTYSET('EBXLnltNonlJAbO1Cnnh6x',#6,'OPS_Milestone',$,(#356));
#358=IFCRELDEFINESBYPROPERTIES('dVbld52NI1VbFDXX07GNcF',#6,$,$,(#83),#357);
#359=IFCPROPERTYSINGLEVALUE('MilestoneKind',$,IFCLABEL('FINISH'),$);
#360=IFCPROPERTYSET('0lHbup$P5RhHtBoXW9st0t',#6,'OPS_Milestone',$,(#359));
#361=IFCRELDEFINESBYPROPERTIES('PxyrB7APNbptL9mXGXnh_z',#6,$,$,(#95),#360);
#362=IFCPROPERTYSINGLEVALUE('MilestoneKind',$,IFCLABEL('FINISH'),$);
#363=IFCPROPERTYSINGLEVALUE('Mandatory',$,IFCBOOLEAN(.T.),$);
#364=IFCPROPERTYSET('Vzyr1TuP$h93LtWVdnvpeB',#6,'OPS_Milestone',$,(#362,#363));
#365=IFCRELDEFINESBYPROPERTIES('8BEF$Z0tV5f5H9O$pdyLs7',#6,$,$,(#139),#364);
ENDSEC;
END-ISO-10303-21;
