ISO-10303-21;
HEADER;
FILE_DESCRIPTION(('ViewDefinition [SchedulingView]'),'2;1');
FILE_NAME('Breda Railway Station Extension.ifc','2026-09-11T17:47:47',('Willem Spoor'),('Station Construction BV'),'Open Planner Studio 0.1','Open Planner Studio','');
FILE_SCHEMA(('IFC4X3'));
ENDSEC;
DATA;
#1=IFCPERSON($,'Willem Spoor',$,$,$,$,$,$);
#2=IFCORGANIZATION($,'Station Construction BV',$,$,$);
#3=IFCPERSONANDORGANIZATION(#1,#2,$);
#4=IFCORGANIZATION($,'OpenAEC Foundation',$,$,$);
#5=IFCAPPLICATION(#4,'0.1','Open Planner Studio','OPS');
#6=IFCOWNERHISTORY(#3,#5,$,.NOCHANGE.,$,$,$,1789148867);
#7=IFCSIUNIT(*,.LENGTHUNIT.,$,.METRE.);
#8=IFCSIUNIT(*,.TIMEUNIT.,$,.SECOND.);
#9=IFCUNITASSIGNMENT((#7,#8));
#10=IFCCARTESIANPOINT((0.,0.,0.));
#11=IFCAXIS2PLACEMENT3D(#10,$,$);
#12=IFCGEOMETRICREPRESENTATIONCONTEXT($,'Plan',3,1.0E-05,#11,$);
#13=IFCPROJECT('OTDdPxktrfE7_J5nEDEbhJ',#6,'Breda Railway Station Extension','Extension of the station concourse and an extra platform with underpass',$,$,$,(#12),#9);
#14=IFCTIMEPERIOD('07:00:00','16:00:00');
#15=IFCRECURRENCEPATTERN(.WEEKLY.,$,(1,2,3,4,5,6),$,$,$,$,(#14));
#16=IFCWORKTIME('Standard work week',.PREDICTED.,$,#15,$,$);
#17=IFCWORKTIME('New Year''s Day',.PREDICTED.,$,$,'2027-01-01','2027-01-01');
#18=IFCWORKTIME('Good Friday',.PREDICTED.,$,$,'2027-03-26','2027-03-26');
#19=IFCWORKTIME('Easter',.PREDICTED.,$,$,'2027-03-28','2027-03-29');
#20=IFCWORKTIME('King''s Day',.PREDICTED.,$,$,'2027-04-27','2027-04-27');
#21=IFCWORKTIME('Liberation Day',.PREDICTED.,$,$,'2027-05-05','2027-05-05');
#22=IFCWORKTIME('Ascension Day',.PREDICTED.,$,$,'2027-05-06','2027-05-06');
#23=IFCWORKTIME('Whitsun',.PREDICTED.,$,$,'2027-05-16','2027-05-17');
#24=IFCWORKTIME('Christmas',.PREDICTED.,$,$,'2027-12-25','2027-12-26');
#25=IFCWORKTIME('Construction holiday (northern region)',.PREDICTED.,$,$,'2027-07-26','2027-08-15');
#26=IFCWORKTIME('New Year''s Day',.PREDICTED.,$,$,'2028-01-01','2028-01-01');
#27=IFCWORKTIME('Good Friday',.PREDICTED.,$,$,'2028-04-14','2028-04-14');
#28=IFCWORKTIME('Easter',.PREDICTED.,$,$,'2028-04-16','2028-04-17');
#29=IFCWORKTIME('King''s Day',.PREDICTED.,$,$,'2028-04-27','2028-04-27');
#30=IFCWORKTIME('Liberation Day',.PREDICTED.,$,$,'2028-05-05','2028-05-05');
#31=IFCWORKTIME('Ascension Day',.PREDICTED.,$,$,'2028-05-25','2028-05-25');
#32=IFCWORKTIME('Whitsun',.PREDICTED.,$,$,'2028-06-04','2028-06-05');
#33=IFCWORKTIME('Christmas',.PREDICTED.,$,$,'2028-12-25','2028-12-26');
#34=IFCWORKTIME('Construction holiday (northern region)',.PREDICTED.,$,$,'2028-07-24','2028-08-13');
#35=IFCWORKCALENDAR('_HlbW$VPl1Yxnv_nBDbFBd',#6,'Infrastructure calendar Mon-Sat','Infrastructure/hydraulic works: Mon-Sat',$,(#16),(#17,#18,#19,#20,#21,#22,#23,#24,#25,#26,#27,#28,#29,#30,#31,#32,#33,#34),.FIRSTSHIFT.);
#36=IFCPROPERTYSINGLEVALUE('HoursPerDay',$,IFCREAL(8),$);
#37=IFCPROPERTYSET('qL5XmPUFgdlJ6X9$WtAtOZ',#6,'OPS_Calendar',$,(#36));
#38=IFCRELDEFINESBYPROPERTIES('bXh12hy$qvOdOP_VbbYntl',#6,$,$,(#35),#37);
#39=IFCWORKPLAN('m9aLFHFPfFtbH3N1QvK55F',#6,'Breda Railway Station Extension','Extension of the station concourse and an extra platform with underpass',$,$,'2026-09-11T17:47:47',$,$,$,$,$,'2027-03-01T07:00:00','2027-03-16T07:00:00',.PLANNED.);
#40=IFCWORKSCHEDULE('DPsTy3iX1BJ7kFTns1dxX3',#6,'Construction schedule v1.0',$,$,$,'2026-09-11T17:47:47',$,$,$,$,$,'2027-03-01T07:00:00','2027-03-16T07:00:00',.PLANNED.);
#41=IFCRELAGGREGATES('X$Ph9TPtbVDd8te$ftI1sz',#6,$,$,#39,(#40));
#42=IFCTASKTIME('1. Preparation Time',.PREDICTED.,$,.WORKTIME.,'P0Y0M5D','2027-03-01T07:00:00','2027-03-05T07:00:00','2027-03-01T07:00:00','2027-04-05T07:00:00','2027-03-01T07:00:00','2027-09-30T07:00:00','P0Y0M0D','P0Y0M0D',.T.,$,$,$,$,$,0.00);
#43=IFCTASK('eTh1AFz1K9wjE1v$onr$oR',#6,'1. Preparation',$,$,'1',$,$,$,.F.,$,#42,.CONSTRUCTION.);
#44=IFCTASKTIME('Phasing of rail traffic Time',.PREDICTED.,$,.WORKTIME.,'P0Y0M5D','2027-03-01T07:00:00','2027-03-05T07:00:00','2027-03-01T07:00:00','2027-03-05T07:00:00','2027-03-01T07:00:00','2027-03-05T07:00:00','P0Y0M0D','P0Y0M0D',.T.,$,$,$,$,$,0.00);
#45=IFCTASK('EPIx27dtXdtRJpTnYhlB8D',#6,'Phasing of rail traffic',$,$,'1.1',$,$,$,.F.,$,#44,.ATTENDANCE.);
#46=IFCTASKTIME('Temporary platform facility Time',.PREDICTED.,$,.WORKTIME.,'P0Y0M8D','2027-03-01T07:00:00','2027-03-10T07:00:00','2027-03-06T07:00:00','2027-03-15T07:00:00','2027-09-03T07:00:00','2027-09-11T07:00:00','P0Y0M0D','P0Y0M131D',.F.,$,$,$,$,$,0.00);
#47=IFCTASK('1Dwtg1P99rXRr7kFOJVDiJ',#6,'Temporary platform facility',$,$,'1.2',$,$,$,.F.,$,#46,.CONSTRUCTION.);
#48=IFCTASKTIME('Rail cables and pipes Time',.PREDICTED.,$,.WORKTIME.,'P0Y0M10D','2027-03-01T07:00:00','2027-03-12T07:00:00','2027-03-16T07:00:00','2027-03-27T07:00:00','2027-09-13T07:00:00','2027-09-23T07:00:00','P0Y0M0D','P0Y0M131D',.F.,$,$,$,$,$,0.00);
#49=IFCTASK('vBgdZtZ$29sTfxiHebQ7tp',#6,'Rail cables and pipes',$,$,'1.3',$,$,$,.F.,$,#48,.INSTALLATION.);
#50=IFCTASKTIME('Set up site Time',.PREDICTED.,$,.WORKTIME.,'P0Y0M5D','2027-03-01T07:00:00','2027-03-05T07:00:00','2027-03-30T07:00:00','2027-04-03T07:00:00','2027-09-24T07:00:00','2027-09-29T07:00:00','P0Y0M0D','P0Y0M131D',.F.,$,$,$,$,$,0.00);
#51=IFCTASK('H5vrBPA1CvedePkVkZ4TpD',#6,'Set up site',$,$,'1.4',$,$,$,.F.,$,#50,.LOGISTIC.);
#52=IFCTASKTIME('Start of works Time',.PREDICTED.,$,.WORKTIME.,'P0Y0M0D','2027-03-01T07:00:00','2027-03-01T07:00:00','2027-04-05T07:00:00','2027-04-05T07:00:00','2027-09-30T07:00:00','2027-09-30T07:00:00','P0Y0M131D','P0Y0M131D',.F.,$,$,$,$,$,0.00);
#53=IFCTASK('8LIxgXTlfFV3NvAH8zvDW7',#6,'Start of works',$,$,'1.5',$,$,$,.T.,$,#52,.CONSTRUCTION.);
#54=IFCTASKTIME('2. Underpass Time',.PREDICTED.,$,.WORKTIME.,'P0Y0M5D','2027-03-01T07:00:00','2027-03-05T07:00:00','2027-03-17T07:00:00','2027-06-05T07:00:00','2027-03-17T07:00:00','2027-09-30T07:00:00','P0Y0M0D','P0Y0M0D',.T.,$,$,$,$,$,0.00);
#55=IFCTASK('T1fb8BO74FHjwpBHLPGfEb',#6,'2. Underpass',$,$,'2',$,$,$,.F.,$,#54,.CONSTRUCTION.);
#56=IFCTASKTIME('Sheet piling, tunnel Time',.PREDICTED.,$,.WORKTIME.,'P0Y0M12D','2027-03-01T07:00:00','2027-03-16T07:00:00','2027-03-17T07:00:00','2027-04-01T07:00:00','2027-03-17T07:00:00','2027-04-01T07:00:00','P0Y0M0D','P0Y0M0D',.T.,$,$,$,$,$,0.00);
#57=IFCTASK('Ch5VW179P7WHvpjnvxEbBz',#6,'Sheet piling, tunnel',$,$,'2.1',$,$,$,.F.,$,#56,.CONSTRUCTION.);
#58=IFCTASKTIME('Track possession, weekend 1 Time',.PREDICTED.,$,.WORKTIME.,'P0Y0M3D','2027-03-01T07:00:00','2027-03-03T07:00:00','2027-04-02T07:00:00','2027-04-05T07:00:00','2027-07-12T07:00:00','2027-07-14T07:00:00','P0Y0M0D','P0Y0M82D',.F.,$,$,$,$,$,0.00);
#59=IFCTASK('FLjP5Bldz3MFX5GXkTCRZt',#6,'Track possession, weekend 1',$,$,'2.2',$,$,$,.F.,$,#58,.ATTENDANCE.);
#60=IFCTASKTIME('Excavate tunnel box Time',.PREDICTED.,$,.WORKTIME.,'P0Y0M10D','2027-03-01T07:00:00','2027-03-12T07:00:00','2027-04-06T07:00:00','2027-04-16T07:00:00','2027-07-15T07:00:00','2027-08-16T07:00:00','P0Y0M0D','P0Y0M82D',.F.,$,$,$,$,$,0.00);
#61=IFCTASK('wlp7Vpw72zuvQ33lcZrn7N',#6,'Excavate tunnel box',$,$,'2.3',$,$,$,.F.,$,#60,.CONSTRUCTION.);
#62=IFCTASKTIME('Pour tunnel floor Time',.PREDICTED.,$,.WORKTIME.,'P0Y0M8D','2027-03-01T07:00:00','2027-03-10T07:00:00','2027-04-17T07:00:00','2027-04-26T07:00:00','2027-08-17T07:00:00','2027-08-25T07:00:00','P0Y0M0D','P0Y0M82D',.F.,$,$,$,$,$,0.00);
#63=IFCTASK('WVztEXM1QJiR3RGVqF9zjV',#6,'Pour tunnel floor',$,$,'2.4',$,$,$,.F.,$,#62,.CONSTRUCTION.);
#64=IFCTASKTIME('Pour tunnel walls Time',.PREDICTED.,$,.WORKTIME.,'P0Y0M10D','2027-03-01T07:00:00','2027-03-12T07:00:00','2027-04-28T07:00:00','2027-05-11T07:00:00','2027-08-26T07:00:00','2027-09-06T07:00:00','P0Y0M0D','P0Y0M82D',.F.,$,$,$,$,$,0.00);
#65=IFCTASK('$DIlXNmNILrn3bO$ej1J2V',#6,'Pour tunnel walls',$,$,'2.5',$,$,$,.F.,$,#64,.CONSTRUCTION.);
#66=IFCTASKTIME('Place precast tunnel roof Time',.PREDICTED.,$,.WORKTIME.,'P0Y0M5D','2027-03-01T07:00:00','2027-03-05T07:00:00','2027-05-12T07:00:00','2027-05-18T07:00:00','2027-09-07T07:00:00','2027-09-11T07:00:00','P0Y0M0D','P0Y0M82D',.F.,$,$,$,$,$,0.00);
#67=IFCTASK('xrgPd5cv816Jkxe1h3nhEx',#6,'Place precast tunnel roof',$,$,'2.6',$,$,$,.F.,$,#66,.CONSTRUCTION.);
#68=IFCTASKTIME('Track possession, weekend 2 Time',.PREDICTED.,$,.WORKTIME.,'P0Y0M3D','2027-03-01T07:00:00','2027-03-03T07:00:00','2027-05-19T07:00:00','2027-05-21T07:00:00','2027-09-13T07:00:00','2027-09-15T07:00:00','P0Y0M0D','P0Y0M82D',.F.,$,$,$,$,$,0.00);
#69=IFCTASK('1FrnVpUf89VRHz$X83t3dh',#6,'Track possession, weekend 2',$,$,'2.7',$,$,$,.F.,$,#68,.ATTENDANCE.);
#70=IFCTASKTIME('Tunnel waterproofing Time',.PREDICTED.,$,.WORKTIME.,'P0Y0M8D','2027-03-01T07:00:00','2027-03-10T07:00:00','2027-05-22T07:00:00','2027-05-31T07:00:00','2027-09-16T07:00:00','2027-09-24T07:00:00','P0Y0M0D','P0Y0M82D',.F.,$,$,$,$,$,0.00);
#71=IFCTASK('stklVfuPvt6jY3N$c7K5Tx',#6,'Tunnel waterproofing',$,$,'2.8',$,$,$,.F.,$,#70,.CONSTRUCTION.);
#72=IFCTASKTIME('Backfill over tunnel Time',.PREDICTED.,$,.WORKTIME.,'P0Y0M5D','2027-03-01T07:00:00','2027-03-05T07:00:00','2027-06-01T07:00:00','2027-06-05T07:00:00','2027-09-25T07:00:00','2027-09-30T07:00:00','P0Y0M82D','P0Y0M82D',.F.,$,$,$,$,$,0.00);
#73=IFCTASK('f3$Zqdh$ABj7sxyltz$51j',#6,'Backfill over tunnel',$,$,'2.9',$,$,$,.F.,$,#72,.LOGISTIC.);
#74=IFCTASKTIME('3. Platform structure Time',.PREDICTED.,$,.WORKTIME.,'P0Y0M5D','2027-03-01T07:00:00','2027-03-05T07:00:00','2027-03-23T07:00:00','2027-05-25T07:00:00','2027-03-23T07:00:00','2027-05-25T07:00:00','P0Y0M0D','P0Y0M0D',.T.,$,$,$,$,$,0.00);
#75=IFCTASK('9t_V4ZO7Ole9TLkFepRnb1',#6,'3. Platform structure',$,$,'3',$,$,$,.F.,$,#74,.CONSTRUCTION.);
#76=IFCTASKTIME('Prefab platform edges Time',.PREDICTED.,$,.WORKTIME.,'P0Y0M8D','2027-03-01T07:00:00','2027-03-10T07:00:00','2027-03-23T07:00:00','2027-04-02T07:00:00','2027-03-23T07:00:00','2027-04-02T07:00:00','P0Y0M0D','P0Y0M0D',.T.,$,$,$,$,$,0.00);
#77=IFCTASK('HxHjr7Q7ylTPO7kFO5MZbV',#6,'Prefab platform edges',$,$,'3.1',$,$,$,.F.,$,#76,.CONSTRUCTION.);
#78=IFCTASKTIME('Platform infill Time',.PREDICTED.,$,.WORKTIME.,'P0Y0M5D','2027-03-01T07:00:00','2027-03-05T07:00:00','2027-04-03T07:00:00','2027-04-08T07:00:00','2027-04-03T07:00:00','2027-04-08T07:00:00','P0Y0M0D','P0Y0M0D',.T.,$,$,$,$,$,0.00);
#79=IFCTASK('cXDPrTOdp5vLoBs1v$9BaN',#6,'Platform infill',$,$,'3.2',$,$,$,.F.,$,#78,.CONSTRUCTION.);
#80=IFCTASKTIME('Lay platform tiles Time',.PREDICTED.,$,.WORKTIME.,'P0Y0M8D','2027-03-01T07:00:00','2027-03-10T07:00:00','2027-04-09T07:00:00','2027-04-17T07:00:00','2027-04-09T07:00:00','2027-04-17T07:00:00','P0Y0M0D','P0Y0M0D',.T.,$,$,$,$,$,0.00);
#81=IFCTASK('sDtDR57t7tQp0TFXh7SBiJ',#6,'Lay platform tiles',$,$,'3.3',$,$,$,.F.,$,#80,.CONSTRUCTION.);
#82=IFCTASKTIME('Steel canopy Time',.PREDICTED.,$,.WORKTIME.,'P0Y0M10D','2027-03-01T07:00:00','2027-03-12T07:00:00','2027-04-19T07:00:00','2027-04-30T07:00:00','2027-04-19T07:00:00','2027-04-30T07:00:00','P0Y0M0D','P0Y0M0D',.T.,$,$,$,$,$,0.00);
#83=IFCTASK('exyTOZvtT1kL61pnHhvD8x',#6,'Steel canopy',$,$,'3.4',$,$,$,.F.,$,#82,.CONSTRUCTION.);
#84=IFCTASKTIME('Glass canopy Time',.PREDICTED.,$,.WORKTIME.,'P0Y0M8D','2027-03-01T07:00:00','2027-03-10T07:00:00','2027-05-01T07:00:00','2027-05-12T07:00:00','2027-05-01T07:00:00','2027-05-12T07:00:00','P0Y0M0D','P0Y0M0D',.T.,$,$,$,$,$,0.00);
#85=IFCTASK('fzljhNW9fxnDunrHn9EVSN',#6,'Glass canopy',$,$,'3.5',$,$,$,.F.,$,#84,.CONSTRUCTION.);
#86=IFCTASKTIME('Install stairs and lifts Time',.PREDICTED.,$,.WORKTIME.,'P0Y0M10D','2027-03-01T07:00:00','2027-03-12T07:00:00','2027-05-13T07:00:00','2027-05-25T07:00:00','2027-05-13T07:00:00','2027-05-25T07:00:00','P0Y0M0D','P0Y0M0D',.T.,$,$,$,$,$,0.00);
#87=IFCTASK('xrs7r76v6z_9nDnVjbFT1D',#6,'Install stairs and lifts',$,$,'3.6',$,$,$,.F.,$,#86,.INSTALLATION.);
#88=IFCTASKTIME('4. Station concourse extension Time',.PREDICTED.,$,.WORKTIME.,'P0Y0M5D','2027-03-01T07:00:00','2027-03-05T07:00:00','2027-05-13T07:00:00','2027-06-23T07:00:00','2027-05-13T07:00:00','2027-06-23T07:00:00','P0Y0M0D','P0Y0M0D',.T.,$,$,$,$,$,0.00);
#89=IFCTASK('LZBXmtal9XhHDF91N9_HRb',#6,'4. Station concourse extension',$,$,'4',$,$,$,.F.,$,#88,.CONSTRUCTION.);
#90=IFCTASKTIME('Structural steel, hall Time',.PREDICTED.,$,.WORKTIME.,'P0Y0M12D','2027-03-01T07:00:00','2027-03-16T07:00:00','2027-05-13T07:00:00','2027-05-27T07:00:00','2027-05-13T07:00:00','2027-05-27T07:00:00','P0Y0M0D','P0Y0M0D',.T.,$,$,$,$,$,0.00);
#91=IFCTASK('Jta3ABnPzn4DGhMlgHxXqT',#6,'Structural steel, hall',$,$,'4.1',$,$,$,.F.,$,#90,.CONSTRUCTION.);
#92=IFCTASKTIME('Glass facade and roof Time',.PREDICTED.,$,.WORKTIME.,'P0Y0M10D','2027-03-01T07:00:00','2027-03-12T07:00:00','2027-05-28T07:00:00','2027-06-08T07:00:00','2027-05-28T07:00:00','2027-06-08T07:00:00','P0Y0M0D','P0Y0M0D',.T.,$,$,$,$,$,0.00);
#93=IFCTASK('MZDPjVM1obBnzRmXYh1xlh',#6,'Glass facade and roof',$,$,'4.2',$,$,$,.F.,$,#92,.INSTALLATION.);
#94=IFCTASKTIME('Natural stone flooring Time',.PREDICTED.,$,.WORKTIME.,'P0Y0M8D','2027-03-01T07:00:00','2027-03-10T07:00:00','2027-06-09T07:00:00','2027-06-17T07:00:00','2027-06-09T07:00:00','2027-06-17T07:00:00','P0Y0M0D','P0Y0M0D',.T.,$,$,$,$,$,0.00);
#95=IFCTASK('3jQjVjolxbx1Gr6$e56j_1',#6,'Natural stone flooring',$,$,'4.3',$,$,$,.F.,$,#94,.CONSTRUCTION.);
#96=IFCTASKTIME('Shopfronts Time',.PREDICTED.,$,.WORKTIME.,'P0Y0M5D','2027-03-01T07:00:00','2027-03-05T07:00:00','2027-06-18T07:00:00','2027-06-23T07:00:00','2027-06-18T07:00:00','2027-06-23T07:00:00','P0Y0M0D','P0Y0M0D',.T.,$,$,$,$,$,0.00);
#97=IFCTASK('Jb5FlbJn4x$TRh_nF5xlxh',#6,'Shopfronts',$,$,'4.4',$,$,$,.F.,$,#96,.INSTALLATION.);
#98=IFCTASKTIME('5. Building services Time',.PREDICTED.,$,.WORKTIME.,'P0Y0M5D','2027-03-01T07:00:00','2027-03-05T07:00:00','2027-06-24T07:00:00','2027-08-28T07:00:00','2027-06-24T07:00:00','2027-09-30T07:00:00','P0Y0M0D','P0Y0M0D',.T.,$,$,$,$,$,0.00);
#99=IFCTASK('_DwtEzJVxFVzHTLldlLlvb',#6,'5. Building services',$,$,'5',$,$,$,.F.,$,#98,.INSTALLATION.);
#100=IFCTASKTIME('Platform power and lighting Time',.PREDICTED.,$,.WORKTIME.,'P0Y0M8D','2027-03-01T07:00:00','2027-03-10T07:00:00','2027-06-24T07:00:00','2027-07-02T07:00:00','2027-06-24T07:00:00','2027-07-02T07:00:00','P0Y0M0D','P0Y0M0D',.T.,$,$,$,$,$,0.00);
#101=IFCTASK('XXBVm7_fgdPrClLF$z0vPh',#6,'Platform power and lighting',$,$,'5.1',$,$,$,.F.,$,#100,.INSTALLATION.);
#102=IFCTASKTIME('Passenger information systems Time',.PREDICTED.,$,.WORKTIME.,'P0Y0M5D','2027-03-01T07:00:00','2027-03-05T07:00:00','2027-07-03T07:00:00','2027-07-08T07:00:00','2027-08-26T07:00:00','2027-08-31T07:00:00','P0Y0M0D','P0Y0M28D',.F.,$,$,$,$,$,0.00);
#103=IFCTASK('wFtDxrvtbLT999ilipUhgN',#6,'Passenger information systems',$,$,'5.2',$,$,$,.F.,$,#102,.INSTALLATION.);
#104=IFCTASKTIME('Install escalators Time',.PREDICTED.,$,.WORKTIME.,'P0Y0M10D','2027-03-01T07:00:00','2027-03-12T07:00:00','2027-07-09T07:00:00','2027-07-20T07:00:00','2027-09-01T07:00:00','2027-09-11T07:00:00','P0Y0M0D','P0Y0M28D',.F.,$,$,$,$,$,0.00);
#105=IFCTASK('dxq5c94$0rHr0T91T1b1Ul',#6,'Install escalators',$,$,'5.3',$,$,$,.F.,$,#104,.INSTALLATION.);
#106=IFCTASKTIME('Public address system Time',.PREDICTED.,$,.WORKTIME.,'P0Y0M3D','2027-03-01T07:00:00','2027-03-03T07:00:00','2027-07-21T07:00:00','2027-07-23T07:00:00','2027-09-13T07:00:00','2027-09-15T07:00:00','P0Y0M0D','P0Y0M28D',.F.,$,$,$,$,$,0.00);
#107=IFCTASK('fZL$YfHPPDgnR1nV3JYF1D',#6,'Public address system',$,$,'5.4',$,$,$,.F.,$,#106,.INSTALLATION.);
#108=IFCTASKTIME('CCTV and security Time',.PREDICTED.,$,.WORKTIME.,'P0Y0M5D','2027-03-01T07:00:00','2027-03-05T07:00:00','2027-07-24T07:00:00','2027-08-19T07:00:00','2027-09-16T07:00:00','2027-09-21T07:00:00','P0Y0M0D','P0Y0M28D',.F.,$,$,$,$,$,0.00);
#109=IFCTASK('VTelTtpXJNrFN7gHQzdjs3',#6,'CCTV and security',$,$,'5.5',$,$,$,.F.,$,#108,.INSTALLATION.);
#110=IFCTASKTIME('HVAC installation, hall Time',.PREDICTED.,$,.WORKTIME.,'P0Y0M8D','2027-03-01T07:00:00','2027-03-10T07:00:00','2027-08-20T07:00:00','2027-08-28T07:00:00','2027-09-22T07:00:00','2027-09-30T07:00:00','P0Y0M28D','P0Y0M28D',.F.,$,$,$,$,$,0.00);
#111=IFCTASK('a11ZeRs$q3IPGRGXGH1jo5',#6,'HVAC installation, hall',$,$,'5.6',$,$,$,.F.,$,#110,.INSTALLATION.);
#112=IFCTASKTIME('6. Track & finishing Time',.PREDICTED.,$,.WORKTIME.,'P0Y0M5D','2027-03-01T07:00:00','2027-03-05T07:00:00','2027-07-17T07:00:00','2027-09-17T07:00:00','2027-07-17T07:00:00','2027-09-17T07:00:00','P0Y0M0D','P0Y0M0D',.T.,$,$,$,$,$,0.00);
#113=IFCTASK('tjTNaniX$LHB49CH_9MNkh',#6,'6. Track & finishing',$,$,'6',$,$,$,.F.,$,#112,.CONSTRUCTION.);
#114=IFCTASKTIME('Lay track at new platform Time',.PREDICTED.,$,.WORKTIME.,'P0Y0M10D','2027-03-01T07:00:00','2027-03-12T07:00:00','2027-07-17T07:00:00','2027-08-18T07:00:00','2027-07-17T07:00:00','2027-08-18T07:00:00','P0Y0M0D','P0Y0M0D',.T.,$,$,$,$,$,0.00);
#115=IFCTASK('oPATK95nqZcpSjRFmnxlPh',#6,'Lay track at new platform',$,$,'6.1',$,$,$,.F.,$,#114,.CONSTRUCTION.);
#116=IFCTASKTIME('Overhead line portals Time',.PREDICTED.,$,.WORKTIME.,'P0Y0M8D','2027-03-01T07:00:00','2027-03-10T07:00:00','2027-08-19T07:00:00','2027-08-27T07:00:00','2027-08-19T07:00:00','2027-08-27T07:00:00','P0Y0M0D','P0Y0M0D',.T.,$,$,$,$,$,0.00);
#117=IFCTASK('b5azoXYFUd4DeVZl8LmN61',#6,'Overhead line portals',$,$,'6.2',$,$,$,.F.,$,#116,.INSTALLATION.);
#118=IFCTASKTIME('Overhead line commissioning Time',.PREDICTED.,$,.WORKTIME.,'P0Y0M5D','2027-03-01T07:00:00','2027-03-05T07:00:00','2027-08-28T07:00:00','2027-09-02T07:00:00','2027-08-28T07:00:00','2027-09-02T07:00:00','P0Y0M0D','P0Y0M0D',.T.,$,$,$,$,$,0.00);
#119=IFCTASK('EhR$gRL$23GXQnf$phPjgp',#6,'Overhead line commissioning',$,$,'6.3',$,$,$,.F.,$,#118,.INSTALLATION.);
#120=IFCTASKTIME('Signalling and safety systems Time',.PREDICTED.,$,.WORKTIME.,'P0Y0M5D','2027-03-01T07:00:00','2027-03-05T07:00:00','2027-09-03T07:00:00','2027-09-08T07:00:00','2027-09-03T07:00:00','2027-09-08T07:00:00','P0Y0M0D','P0Y0M0D',.T.,$,$,$,$,$,0.00);
#121=IFCTASK('0Hnxc9iVTX6$mbu$75MTDp',#6,'Signalling and safety systems',$,$,'6.4',$,$,$,.F.,$,#120,.INSTALLATION.);
#122=IFCTASKTIME('Painting and finishing Time',.PREDICTED.,$,.WORKTIME.,'P0Y0M8D','2027-03-01T07:00:00','2027-03-10T07:00:00','2027-09-09T07:00:00','2027-09-17T07:00:00','2027-09-09T07:00:00','2027-09-17T07:00:00','P0Y0M0D','P0Y0M0D',.T.,$,$,$,$,$,0.00);
#123=IFCTASK('UT8X0lnPVxPBK5O$5hu$Mt',#6,'Painting and finishing',$,$,'6.5',$,$,$,.F.,$,#122,.CONSTRUCTION.);
#124=IFCTASKTIME('7. Handover Time',.PREDICTED.,$,.WORKTIME.,'P0Y0M5D','2027-03-01T07:00:00','2027-03-05T07:00:00','2027-09-18T07:00:00','2027-09-30T07:00:00','2027-09-18T07:00:00','2027-09-30T07:00:00','P0Y0M0D','P0Y0M0D',.T.,$,$,$,$,$,0.00);
#125=IFCTASK('2psv5nDVnTQDSdoVGlVpqH',#6,'7. Handover',$,$,'7',$,$,$,.F.,$,#124,.CONSTRUCTION.);
#126=IFCTASKTIME('Platform trial operation Time',.PREDICTED.,$,.WORKTIME.,'P0Y0M5D','2027-03-01T07:00:00','2027-03-05T07:00:00','2027-09-18T07:00:00','2027-09-23T07:00:00','2027-09-18T07:00:00','2027-09-23T07:00:00','P0Y0M0D','P0Y0M0D',.T.,$,$,$,$,$,0.00);
#127=IFCTASK('m9azcJYFYdi3npv16Dr1ob',#6,'Platform trial operation',$,$,'7.1',$,$,$,.F.,$,#126,.ATTENDANCE.);
#128=IFCTASKTIME('Remove temporary facilities Time',.PREDICTED.,$,.WORKTIME.,'P0Y0M5D','2027-03-01T07:00:00','2027-03-05T07:00:00','2027-09-24T07:00:00','2027-09-29T07:00:00','2027-09-24T07:00:00','2027-09-29T07:00:00','P0Y0M0D','P0Y0M0D',.T.,$,$,$,$,$,0.00);
#129=IFCTASK('yndzcDI9zzE7wXd$Z$5XSf',#6,'Remove temporary facilities',$,$,'7.2',$,$,$,.F.,$,#128,.DEMOLITION.);
#130=IFCTASKTIME('Station in service Time',.PREDICTED.,$,.WORKTIME.,'P0Y0M0D','2027-03-01T07:00:00','2027-03-01T07:00:00','2027-09-30T07:00:00','2027-09-30T07:00:00','2027-09-30T07:00:00','2027-09-30T07:00:00','P0Y0M0D','P0Y0M0D',.T.,$,$,$,$,$,0.00);
#131=IFCTASK('ZzqDH1$dLDMFV50X$$rnPP',#6,'Station in service',$,$,'7.3',$,$,$,.T.,$,#130,.CONSTRUCTION.);
#132=IFCRELNESTS('VXpPdR6Vjf3fbrIVARYntl',#6,'WBS 1. Preparation',$,#43,( #45,#47,#49,#51,#53));
#133=IFCRELNESTS('S3yZuru7Ydq5Rh6HVDERXd',#6,'WBS 2. Underpass',$,#55,( #57,#59,#61,#63,#65,#67,#69,#71,#73));
#134=IFCRELNESTS('mvs7TbkHRVJ76$LHv1$jMp',#6,'WBS 3. Platform structure',$,#75,( #77,#79,#81,#83,#85,#87));
#135=IFCRELNESTS('aX5FbXbVPdSr4T3F0PSzf3',#6,'WBS 4. Station concourse extension',$,#89,( #91,#93,#95,#97));
#136=IFCRELNESTS('99_XGvQve737_PQ$IZaB8D',#6,'WBS 5. Building services',$,#99,( #101,#103,#105,#107,#109,#111));
#137=IFCRELNESTS('2HP3oVs1KNIPWjFX3pERlH',#6,'WBS 6. Track & finishing',$,#113,( #115,#117,#119,#121,#123));
#138=IFCRELNESTS('ttkHLp2NwT_bN72FNNkxJz',#6,'WBS 7. Handover',$,#125,( #127,#129,#131));
#139=IFCRELNESTS('tjjP5r1vgdnD4TBHzDgTrv',#6,'WBS Hoofd',$,#40,(#43,#55,#75,#89,#99,#113,#125));
#140=IFCRELSEQUENCE('b5qDbxVdVP7L_j3HMlR16x',#6,$,$,#45,#47,$,.FINISH_START.,$);
#141=IFCRELSEQUENCE('SZWNiNldbVpdGRmX4PeXWP',#6,$,$,#47,#49,$,.FINISH_START.,$);
#142=IFCRELSEQUENCE('7LwDhjQVtLzfzv_nBjNhkB',#6,$,$,#49,#51,$,.FINISH_START.,$);
#143=IFCRELSEQUENCE('LPe$IFqnW5dr8HVXITi5fX',#6,$,$,#51,#53,$,.FINISH_START.,$);
#144=IFCRELSEQUENCE('pBXLb5vtzFiR9NGX0PqbtJ',#6,$,$,#57,#59,$,.FINISH_START.,$);
#145=IFCRELSEQUENCE('od2rh9a1_38v6V9$ebI16V',#6,$,$,#59,#61,$,.FINISH_START.,$);
#146=IFCRELSEQUENCE('W1Nbi9T1ANLHj1Jn9ZZ9WP',#6,$,$,#61,#63,$,.FINISH_START.,$);
#147=IFCRELSEQUENCE('rjJd9Z17_TqZxxmVgL0vBz',#6,$,$,#63,#65,$,.FINISH_START.,$);
#148=IFCRELSEQUENCE('EPUh3dDnonFDSdkX_xDdDJ',#6,$,$,#65,#67,$,.FINISH_START.,$);
#149=IFCRELSEQUENCE('UZ8X41c7u9PJwVFXxl3fkP',#6,$,$,#67,#69,$,.FINISH_START.,$);
#150=IFCRELSEQUENCE('pdwDFnbngxlJIRSlHr5XCz',#6,$,$,#69,#71,$,.FINISH_START.,$);
#151=IFCRELSEQUENCE('U1FDP5E9$rzfVnJF3jwdlh',#6,$,$,#71,#73,$,.FINISH_START.,$);
#152=IFCRELSEQUENCE('4ntD17YfS1Pjgrs$HB3NEt',#6,$,$,#77,#79,$,.FINISH_START.,$);
#153=IFCRELSEQUENCE('$ld3EzZ1AfrnbVxnQTpPdv',#6,$,$,#79,#81,$,.FINISH_START.,$);
#154=IFCRELSEQUENCE('a$npbxfNgb3vkl9$0PSrer',#6,$,$,#81,#83,$,.FINISH_START.,$);
#155=IFCRELSEQUENCE('Dvcfy3a1g751apFVhvix7N',#6,$,$,#83,#85,$,.FINISH_START.,$);
#156=IFCRELSEQUENCE('XVDdJ$67QDm$WpzFi1FZf$',#6,$,$,#85,#87,$,.FINISH_START.,$);
#157=IFCRELSEQUENCE('fvKj9167MPf5Vn5lyBT9ax',#6,$,$,#91,#93,$,.FINISH_START.,$);
#158=IFCRELSEQUENCE('IfG71ZuddPare1N$Njd59l',#6,$,$,#93,#95,$,.FINISH_START.,$);
#159=IFCRELSEQUENCE('GNm7Lt41WxFpePoVObYnxH',#6,$,$,#95,#97,$,.FINISH_START.,$);
#160=IFCRELSEQUENCE('XXh$M$XPjh7pePs1ZV1xJZ',#6,$,$,#101,#103,$,.FINISH_START.,$);
#161=IFCRELSEQUENCE('7BEFpDXdHVMnhfClI3G9er',#6,$,$,#103,#105,$,.FINISH_START.,$);
#162=IFCRELSEQUENCE('S$npBTmfKDWHj$ZFojstmF',#6,$,$,#105,#107,$,.FINISH_START.,$);
#163=IFCRELSEQUENCE('Y3a3EV6XVbLHLTJFl7GfcL',#6,$,$,#107,#109,$,.FINISH_START.,$);
#164=IFCRELSEQUENCE('W1nDlVr$mjgzbVDHHrhHJV',#6,$,$,#109,#111,$,.FINISH_START.,$);
#165=IFCRELSEQUENCE('lxlj91ktdDovErw1CZSBup',#6,$,$,#115,#117,$,.FINISH_START.,$);
#166=IFCRELSEQUENCE('XVrXaHu7sNTtFp$X_9Qv3v',#6,$,$,#117,#119,$,.FINISH_START.,$);
#167=IFCRELSEQUENCE('gvKb4Z0td7ufRB2XtvSBux',#6,$,$,#119,#121,$,.FINISH_START.,$);
#168=IFCRELSEQUENCE('J5vBDD$dhpsHbrUVLPOVu5',#6,$,$,#121,#123,$,.FINISH_START.,$);
#169=IFCRELSEQUENCE('_lPzIDH7mpkdWJ$VWfMTJ3',#6,$,$,#127,#129,$,.FINISH_START.,$);
#170=IFCRELSEQUENCE('qN6DDH8d7tYxh3P$$3OXiJ',#6,$,$,#129,#131,$,.FINISH_START.,$);
#171=IFCLAGTIME('Lag',.PREDICTED.,$,IFCDURATION('P14D'),.WORKTIME.);
#172=IFCRELSEQUENCE('zHn5IninAhfTj$Dn$T4hkL',#6,$,$,#45,#57,#171,.START_START.,$);
#173=IFCLAGTIME('Lag',.PREDICTED.,$,IFCRATIOMEASURE(0.4),.WORKTIME.);
#174=IFCRELSEQUENCE('ov_VGvI9p5Fp0zRFGF5lFX',#6,$,$,#57,#77,#173,.START_START.,$);
#175=IFCLAGTIME('Lag',.PREDICTED.,$,IFCDURATION('-P10D'),.WORKTIME.);
#176=IFCRELSEQUENCE('2pcf0Hdt5FtbPnnV1Vdjkd',#6,$,$,#87,#91,#175,.FINISH_START.,$);
#177=IFCLAGTIME('Lag',.PREDICTED.,$,IFCDURATION('P2D'),.WORKTIME.);
#178=IFCRELSEQUENCE('Aj5VSnCXtrlBKV1VG1b1Ex',#6,$,$,#87,#97,#177,.FINISH_FINISH.,$);
#179=IFCRELSEQUENCE('OTZNy3SH3He9npHVJfszHn',#6,$,$,#97,#101,$,.FINISH_START.,$);
#180=IFCLAGTIME('Lag',.PREDICTED.,$,IFCDURATION('P20D'),.WORKTIME.);
#181=IFCRELSEQUENCE('JbBXKr9fgxdrulFXvRI1s3',#6,$,$,#101,#115,#180,.START_START.,$);
#182=IFCRELSEQUENCE('wlBndNXvC3UNpnFVnfEb7b',#6,$,$,#123,#127,$,.FINISH_START.,$);
#183=IFCRELASSIGNSTOCONTROL('rDVhNjbXHjyDCF$VkTSruD',#6,$,$,(#43,#45,#47,#49,#51,#53,#55,#57,#59,#61,#63,#65,#67,#69,#71,#73,#75,#77,#79,#81,#83,#85,#87,#89,#91,#93,#95,#97,#99,#101,#103,#105,#107,#109,#111,#113,#115,#117,#119,#121,#123,#125,#127,#129,#131),$,#40);
#184=IFCPROPERTYSINGLEVALUE('InternalProjectId',$,IFCTEXT('proj-mtx91h7yomrb2704'),$);
#185=IFCPROPERTYSINGLEVALUE('wbsAutoNumber',$,IFCBOOLEAN(.T.),$);
#186=IFCPROPERTYSINGLEVALUE('DefaultTaskDurationUnit',$,IFCLABEL('days'),$);
#187=IFCPROPERTYSINGLEVALUE('ProjectStartDate',$,IFCDATE('2027-03-01'),$);
#188=IFCPROPERTYSINGLEVALUE('ProjectEndDate',$,$,$);
#189=IFCPROPERTYSINGLEVALUE('CreatedAt',$,IFCTEXT('2026-09-11T17:47:47.182Z'),$);
#190=IFCPROPERTYSINGLEVALUE('ModifiedAt',$,IFCTEXT('2026-09-11T17:47:47.184Z'),$);
#191=IFCPROPERTYSET('e5a3ArlP$tNZvpDF1ZK5n5',#6,'OPS_ProjectSettings',$,(#184,#185,#186,#187,#188,#189,#190));
#192=IFCRELDEFINESBYPROPERTIES('0Hdzo1sPJhdjQlBF$1BF9l',#6,$,$,(#13),#191);
#193=IFCPROPERTYSINGLEVALUE('InternalTaskId',$,IFCTEXT('task-mtx91h80qobc2705'),$);
#194=IFCPROPERTYSET('rj39YxcvynlJwDhlrJHzRb',#6,'OPS_TaskIdentity',$,(#193));
#195=IFCRELDEFINESBYPROPERTIES('kfWN8BmNq7uv2p7$w9EXux',#6,$,$,(#43),#194);
#196=IFCPROPERTYSINGLEVALUE('InternalTaskId',$,IFCTEXT('task-mtx91h810zol2706'),$);
#197=IFCPROPERTYSET('LdO$gxfNMbx$e1f1XFxH$9',#6,'OPS_TaskIdentity',$,(#196));
#198=IFCRELDEFINESBYPROPERTIES('SZe$E3JX5FdBWjP1R5kxX3',#6,$,$,(#45),#197);
#199=IFCPROPERTYSINGLEVALUE('InternalTaskId',$,IFCTEXT('task-mtx91h82k5qy2707'),$);
#200=IFCPROPERTYSET('UXxnFhhH3nq5LZDFbRA9i$',#6,'OPS_TaskIdentity',$,(#199));
#201=IFCRELDEFINESBYPROPERTIES('f3ljDpF7wzMntNu$5nlBOz',#6,$,$,(#47),#200);
#202=IFCPROPERTYSINGLEVALUE('InternalTaskId',$,IFCTEXT('task-mtx91h832k1b2708'),$);
#203=IFCPROPERTYSET('aZGPzP5VBfYN$X3Hol9BSR',#6,'OPS_TaskIdentity',$,(#202));
#204=IFCRELDEFINESBYPROPERTIES('T$7rt$Q7ybrnfvYF5lhlZt',#6,$,$,(#49),#203);
#205=IFCPROPERTYSINGLEVALUE('InternalTaskId',$,IFCTEXT('task-mtx91h85ycna2709'),$);
#206=IFCPROPERTYSET('kfuVKfd9lXIPi5WXbRgfoR',#6,'OPS_TaskIdentity',$,(#205));
#207=IFCRELDEFINESBYPROPERTIES('PRGdplW95HjN9LEnIVVbDl',#6,$,$,(#51),#206);
#208=IFCPROPERTYSINGLEVALUE('InternalTaskId',$,IFCTEXT('task-mtx91h860zhm2710'),$);
#209=IFCPROPERTYSET('RbWNaDAdtLrFzbO1FRl3FV',#6,'OPS_TaskIdentity',$,(#208));
#210=IFCRELDEFINESBYPROPERTIES('UVzt_r0tXxPBmLglcvyhcB',#6,$,$,(#53),#209);
#211=IFCPROPERTYSINGLEVALUE('InternalTaskId',$,IFCTEXT('task-mtx91h87tam82711'),$);
#212=IFCPROPERTYSET('6lrF$T0tBTqZ9Bg1zJYFXz',#6,'OPS_TaskIdentity',$,(#211));
#213=IFCRELDEFINESBYPROPERTIES('pLZNqPTlRr1xTfmXUPqDWP',#6,$,$,(#55),#212);
#214=IFCPROPERTYSINGLEVALUE('InternalTaskId',$,IFCTEXT('task-mtx91h88vbgz2712'),$);
#215=IFCPROPERTYSET('HRZNe5Uf8$QpmhAHObEXKp',#6,'OPS_TaskIdentity',$,(#214));
#216=IFCRELDEFINESBYPROPERTIES('AtY1URg$UDw18FDnv1nZDD',#6,$,$,(#57),#215);
#217=IFCPROPERTYSINGLEVALUE('InternalTaskId',$,IFCTEXT('task-mtx91h89tt6v2713'),$);
#218=IFCPROPERTYSET('E7A7NHOP1Njv_pP$uLWP1D',#6,'OPS_TaskIdentity',$,(#217));
#219=IFCRELDEFINESBYPROPERTIES('7hgzoZNNW5f5LTJn3pobdr',#6,$,$,(#59),#218);
#220=IFCPROPERTYSINGLEVALUE('InternalTaskId',$,IFCTEXT('task-mtx91h8apchc2714'),$);
#221=IFCPROPERTYSET('fTj777H7yF$Z9rc1A$fhQl',#6,'OPS_TaskIdentity',$,(#220));
#222=IFCRELDEFINESBYPROPERTIES('mvgdXNGf0L5VoV5Fwf_B47',#6,$,$,(#61),#221);
#223=IFCPROPERTYSINGLEVALUE('InternalTaskId',$,IFCTEXT('task-mtx91h8bfmlk2715'),$);
#224=IFCPROPERTYSET('zFhlvB0tv9U5LznVjRNhAz',#6,'OPS_TaskIdentity',$,(#223));
#225=IFCRELDEFINESBYPROPERTIES('sJLlJVoHHDG$ulf$MBqbrZ',#6,$,$,(#63),#224);
#226=IFCPROPERTYSINGLEVALUE('InternalTaskId',$,IFCTEXT('task-mtx91h8crzrm2716'),$);
#227=IFCPROPERTYSET('YXjvHxdtPD2t99alnb9rup',#6,'OPS_TaskIdentity',$,(#226));
#228=IFCRELDEFINESBYPROPERTIES('N37rxnjVFlm$CFnV5n9zrT',#6,$,$,(#65),#227);
#229=IFCPROPERTYSINGLEVALUE('InternalTaskId',$,IFCTEXT('task-mtx91h8dqp532717'),$);
#230=IFCPROPERTYSET('YZ8XapgdFzw$i1zFuZxXuj',#6,'OPS_TaskIdentity',$,(#229));
#231=IFCRELDEFINESBYPROPERTIES('R$V3cfWtb$nL2dM1tTJvNZ',#6,$,$,(#67),#230);
#232=IFCPROPERTYSINGLEVALUE('InternalTaskId',$,IFCTEXT('task-mtx91h8e37s02718'),$);
#233=IFCPROPERTYSET('S17r7vF7Eb5$y9SlFRHzVv',#6,'OPS_TaskIdentity',$,(#232));
#234=IFCRELDEFINESBYPROPERTIES('LZJ7ZxgP3narajpHJ9UnXT',#6,$,$,(#69),#233);
#235=IFCPROPERTYSINGLEVALUE('InternalTaskId',$,IFCTEXT('task-mtx91h8g4oum2719'),$);
#236=IFCPROPERTYSET('PxaLPx2N_TizzxinwpTNIP',#6,'OPS_TaskIdentity',$,(#235));
#237=IFCRELDEFINESBYPROPERTIES('W17B3Bu7QXovc3jHNp3tS9',#6,$,$,(#71),#236);
#238=IFCPROPERTYSINGLEVALUE('InternalTaskId',$,IFCTEXT('task-mtx91h8hvk3m2720'),$);
#239=IFCPROPERTYSET('ChxVaFiVZ$cpadkVgrKx3r',#6,'OPS_TaskIdentity',$,(#238));
#240=IFCRELDEFINESBYPROPERTIES('jNe1wZ8dX57hI5u1I$hHDn',#6,$,$,(#73),#239);
#241=IFCPROPERTYSINGLEVALUE('InternalTaskId',$,IFCTEXT('task-mtx91h8i8ref2721'),$);
#242=IFCPROPERTYSET('QbWfapcvq78f5RilClxVyr',#6,'OPS_TaskIdentity',$,(#241));
#243=IFCRELDEFINESBYPROPERTIES('X19xQfmNWRTPChonMFPj6b',#6,$,$,(#75),#242);
#244=IFCPROPERTYSINGLEVALUE('InternalTaskId',$,IFCTEXT('task-mtx91h8jdlp92722'),$);
#245=IFCPROPERTYSET('kNGd9ZnPdPSB4fGXAXJ7PB',#6,'OPS_TaskIdentity',$,(#244));
#246=IFCRELDEFINESBYPROPERTIES('PbelDHWt5lD9b$XXqZCb5h',#6,$,$,(#77),#245);
#247=IFCPROPERTYSINGLEVALUE('InternalTaskId',$,IFCTEXT('task-mtx91h8lfdkr2723'),$);
#248=IFCPROPERTYSET('tJJPDF41CTsZBplXhTT9ub',#6,'OPS_TaskIdentity',$,(#247));
#249=IFCRELDEFINESBYPROPERTIES('mNm7ZRQX5HTdWj1VeDRnlh',#6,$,$,(#79),#248);
#250=IFCPROPERTYSINGLEVALUE('InternalTaskId',$,IFCTEXT('task-mtx91h8mojk72724'),$);
#251=IFCPROPERTYSET('jxPh3vFv6TUx7JP$1z812T',#6,'OPS_TaskIdentity',$,(#250));
#252=IFCRELDEFINESBYPROPERTIES('qNEbuD1d9VJvQHjHhP8Fh9',#6,$,$,(#81),#251);
#253=IFCPROPERTYSINGLEVALUE('InternalTaskId',$,IFCTEXT('task-mtx91h8n2owm2725'),$);
#254=IFCPROPERTYSET('xB2XmNO7arzNpHzH6D5lLD',#6,'OPS_TaskIdentity',$,(#253));
#255=IFCRELDEFINESBYPROPERTIES('2ld3E$kt3Z2b5l7$FN_rGV',#6,$,$,(#83),#254);
#256=IFCPROPERTYSINGLEVALUE('InternalTaskId',$,IFCTEXT('task-mtx91h8on5ni2726'),$);
#257=IFCPROPERTYSET('CLrFzhCna1Xb5npnb5MT1p',#6,'OPS_TaskIdentity',$,(#256));
#258=IFCRELDEFINESBYPROPERTIES('jfOHTN9fstlrmr_VZXnLwb',#6,$,$,(#85),#257);
#259=IFCPROPERTYSINGLEVALUE('InternalTaskId',$,IFCTEXT('task-mtx91h8qovo92727'),$);
#260=IFCPROPERTYSET('UTO1wv_NMxN5Lzt$0PSBqn',#6,'OPS_TaskIdentity',$,(#259));
#261=IFCRELDEFINESBYPROPERTIES('R$1ZC5VdH$Ere1v$k3WPpD',#6,$,$,(#87),#260);
#262=IFCPROPERTYSINGLEVALUE('InternalTaskId',$,IFCTEXT('task-mtx91h8rjtzo2728'),$);
#263=IFCPROPERTYSET('EB7ZmfWtpbZPqrkXQZDd$p',#6,'OPS_TaskIdentity',$,(#262));
#264=IFCRELDEFINESBYPROPERTIES('L7SzY56vM5lJgfWXJ9MNcB',#6,$,$,(#89),#263);
#265=IFCPROPERTYSINGLEVALUE('InternalTaskId',$,IFCTEXT('task-mtx91h8sl47t2729'),$);
#266=IFCPROPERTYSET('sNsTirNNufjv2d6$eJ1jgJ',#6,'OPS_TaskIdentity',$,(#265));
#267=IFCRELDEFINESBYPROPERTIES('3Dwt6dEHZ1EB03RFipMZhf',#6,$,$,(#91),#266);
#268=IFCPROPERTYSINGLEVALUE('InternalTaskId',$,IFCTEXT('task-mtx91h8ubsxk2730'),$);
#269=IFCPROPERTYSET('phJdhp_N6ZILEr2Xznr$sd',#6,'OPS_TaskIdentity',$,(#268));
#270=IFCRELDEFINESBYPROPERTIES('KPmvLN87AtPJQHxFwJXDax',#6,$,$,(#93),#269);
#271=IFCPROPERTYSINGLEVALUE('InternalTaskId',$,IFCTEXT('task-mtx91h8va2hl2731'),$);
#272=IFCPROPERTYSET('W$$TSJIlnFSB4Ne$Jfs3jX',#6,'OPS_TaskIdentity',$,(#271));
#273=IFCRELDEFINESBYPROPERTIES('dXrVm9qXtr$x7jt1mnDdrv',#6,$,$,(#95),#272);
#274=IFCPROPERTYSINGLEVALUE('InternalTaskId',$,IFCTEXT('task-mtx91h8x9i9k2732'),$);
#275=IFCPROPERTYSET('GtShR57tp7TPSv_FhZjvJ$',#6,'OPS_TaskIdentity',$,(#274));
#276=IFCRELDEFINESBYPROPERTIES('NvCDl1NN6z2t7X1ViXDP$j',#6,$,$,(#97),#275);
#277=IFCPROPERTYSINGLEVALUE('InternalTaskId',$,IFCTEXT('task-mtx91h8yome82733'),$);
#278=IFCPROPERTYSET('VVxFlxnvwz29NPM1FtEX8x',#6,'OPS_TaskIdentity',$,(#277));
#279=IFCRELDEFINESBYPROPERTIES('O3HJ5FRn_f2tnD1VMrKxtF',#6,$,$,(#99),#278);
#280=IFCPROPERTYSINGLEVALUE('InternalTaskId',$,IFCTEXT('task-mtx91h90w3w82734'),$);
#281=IFCPROPERTYSET('yFHRmN8PnZU5NxSlpdqbFV',#6,'OPS_TaskIdentity',$,(#280));
#282=IFCRELDEFINESBYPROPERTIES('rD7TaD2f6ZILghUnZZSz9j',#6,$,$,(#101),#281);
#283=IFCPROPERTYSINGLEVALUE('InternalTaskId',$,IFCTEXT('task-mtx91h91ijy82735'),$);
#284=IFCPROPERTYSET('fzPLTN9fQXgnL9GVatwdHB',#6,'OPS_TaskIdentity',$,(#283));
#285=IFCRELDEFINESBYPROPERTIES('Gd2rv7lv81orCLglARgfQh',#6,$,$,(#103),#284);
#286=IFCPROPERTYSINGLEVALUE('InternalTaskId',$,IFCTEXT('task-mtx91h93cnlq2736'),$);
#287=IFCPROPERTYSET('4JgzwPElv9_RZrEXuh0v9J',#6,'OPS_TaskIdentity',$,(#286));
#288=IFCRELDEFINESBYPROPERTIES('3lHRaDMPpPljQlplN9wPpD',#6,$,$,(#105),#287);
#289=IFCPROPERTYSINGLEVALUE('InternalTaskId',$,IFCTEXT('task-mtx91h94ki5u2737'),$);
#290=IFCPROPERTYSET('CBnxIlmNmp29RXbFOxszhp',#6,'OPS_TaskIdentity',$,(#289));
#291=IFCRELDEFINESBYPROPERTIES('jtyZaJ6XVRz7wDTncz15R$',#6,$,$,(#107),#290);
#292=IFCPROPERTYSINGLEVALUE('InternalTaskId',$,IFCTEXT('task-mtx91h956b4z2738'),$);
#293=IFCPROPERTYSET('_Fp75HX7q3QXE11VsbUn5H',#6,'OPS_TaskIdentity',$,(#292));
#294=IFCRELDEFINESBYPROPERTIES('9jBnfn4$WbrnzR81FfAz9J',#6,$,$,(#109),#293);
#295=IFCPROPERTYSINGLEVALUE('InternalTaskId',$,IFCTEXT('task-mtx91h97ppui2739'),$);
#296=IFCPROPERTYSET('vn7ZW$lvy5fxDlzlkZSzxL',#6,'OPS_TaskIdentity',$,(#295));
#297=IFCRELDEFINESBYPROPERTIES('EB7ZitJVPDYf7j71Tzu$sZ',#6,$,$,(#111),#296);
#298=IFCPROPERTYSINGLEVALUE('InternalTaskId',$,IFCTEXT('task-mtx91h98t58y2740'),$);
#299=IFCPROPERTYSET('ixlJxF31u$cpi5WX9POHjX',#6,'OPS_TaskIdentity',$,(#298));
#300=IFCRELDEFINESBYPROPERTIES('pPULdxItD5fxPz5FsVz9yr',#6,$,$,(#113),#299);
#301=IFCPROPERTYSINGLEVALUE('InternalTaskId',$,IFCTEXT('task-mtx91h9a13fe2741'),$);
#302=IFCPROPERTYSET('hdmdNpl7a$$53vgls5k5tF',#6,'OPS_TaskIdentity',$,(#301));
#303=IFCRELDEFINESBYPROPERTIES('aZGPZtz14lRV6Vd$3HnTLf',#6,$,$,(#115),#302);
#304=IFCPROPERTYSINGLEVALUE('InternalTaskId',$,IFCTEXT('task-mtx91h9bci682742'),$);
#305=IFCPROPERTYSET('_Jg3o$Qve737M9aFXD6j65',#6,'OPS_TaskIdentity',$,(#304));
#306=IFCRELDEFINESBYPROPERTIES('5FHbeRElbhT9dlplTVXRjX',#6,$,$,(#117),#305);
#307=IFCPROPERTYSINGLEVALUE('InternalTaskId',$,IFCTEXT('task-mtx91h9dpo812743'),$);
#308=IFCPROPERTYSET('ndobWVZHT$gz99CHEjEXat',#6,'OPS_TaskIdentity',$,(#307));
#309=IFCRELDEFINESBYPROPERTIES('8r_X4VA1Srj7_7gHoDMTPP',#6,$,$,(#119),#308);
#310=IFCPROPERTYSINGLEVALUE('InternalTaskId',$,IFCTEXT('task-mtx91h9em46w2744'),$);
#311=IFCPROPERTYSET('Z195kpffI1FhUtWX3nLV8R',#6,'OPS_TaskIdentity',$,(#310));
#312=IFCRELDEFINESBYPROPERTIES('gT39ALjXdjwJYThlRRUn5H',#6,$,$,(#121),#311);
#313=IFCPROPERTYSINGLEVALUE('InternalTaskId',$,IFCTEXT('task-mtx91h9g1n3y2745'),$);
#314=IFCPROPERTYSET('1nR1kJDnM7Jfpnv$kXVbDl',#6,'OPS_TaskIdentity',$,(#313));
#315=IFCRELDEFINESBYPROPERTIES('uJR$Arv9Bzedm5aFlhnL_Z',#6,$,$,(#123),#314);
#316=IFCPROPERTYSINGLEVALUE('InternalTaskId',$,IFCTEXT('task-mtx91h9hdlib2746'),$);
#317=IFCPROPERTYSET('XXBXupNNg5fxXlVXk$b$gf',#6,'OPS_TaskIdentity',$,(#316));
#318=IFCRELDEFINESBYPROPERTIES('ez1Z4TmN_TKzHzXVUda3xL',#6,$,$,(#125),#317);
#319=IFCPROPERTYSINGLEVALUE('InternalTaskId',$,IFCTEXT('task-mtx91h9jmsj42747'),$);
#320=IFCPROPERTYSET('D7Y1UtZ1kLzNrJRFml7bhJ',#6,'OPS_TaskIdentity',$,(#319));
#321=IFCRELDEFINESBYPROPERTIES('wLEbG7YNWRLH37sHiXRnN1',#6,$,$,(#127),#320);
#322=IFCPROPERTYSINGLEVALUE('InternalTaskId',$,IFCTEXT('task-mtx91h9kk4rk2748'),$);
#323=IFCPROPERTYSET('d1XzInS$kBVRFJjl$13NYH',#6,'OPS_TaskIdentity',$,(#322));
#324=IFCRELDEFINESBYPROPERTIES('kbL$6vE99V5XYNaFVjcv75',#6,$,$,(#129),#323);
#325=IFCPROPERTYSINGLEVALUE('InternalTaskId',$,IFCTEXT('task-mtx91h9maizj2749'),$);
#326=IFCPROPERTYSET('0H$BnLbnERTdqL2FLzFh6R',#6,'OPS_TaskIdentity',$,(#325));
#327=IFCRELDEFINESBYPROPERTIES('7nNJjzZ$MP7LYZZngBCDS5',#6,$,$,(#131),#326);
#328=IFCPROPERTYSINGLEVALUE('MilestoneKind',$,IFCLABEL('START'),$);
#329=IFCPROPERTYSET('qLR1InqXrf2tr7kn8zdjkL',#6,'OPS_Milestone',$,(#328));
#330=IFCRELDEFINESBYPROPERTIES('R$7BXJYnMxlJA5qF0PCRvx',#6,$,$,(#53),#329);
ENDSEC;
END-ISO-10303-21;
