ISO-10303-21;
HEADER;
FILE_DESCRIPTION(('ViewDefinition [SchedulingView]'),'2;1');
FILE_NAME('New-Build Primary School (Integrated Child Centre).ifc','2026-09-11T17:47:47',('Femke Onderwijs'),('School Construction West BV'),'Open Planner Studio 0.1','Open Planner Studio','');
FILE_SCHEMA(('IFC4X3'));
ENDSEC;
DATA;
#1=IFCPERSON($,'Femke Onderwijs',$,$,$,$,$,$);
#2=IFCORGANIZATION($,'School Construction West BV',$,$,$);
#3=IFCPERSONANDORGANIZATION(#1,#2,$);
#4=IFCORGANIZATION($,'OpenAEC Foundation',$,$,$);
#5=IFCAPPLICATION(#4,'0.1','Open Planner Studio','OPS');
#6=IFCOWNERHISTORY(#3,#5,$,.NOCHANGE.,$,$,$,1789148867);
#7=IFCSIUNIT(*,.LENGTHUNIT.,$,.METRE.);
#8=IFCSIUNIT(*,.TIMEUNIT.,$,.SECOND.);
#9=IFCUNITASSIGNMENT((#7,#8));
#10=IFCCARTESIANPOINT((0.,0.,0.));
#11=IFCAXIS2PLACEMENT3D(#10,$,$);
#12=IFCGEOMETRICREPRESENTATIONCONTEXT($,'Plan',3,1.0E-05,#11,$);
#13=IFCPROJECT('fTDdXNW9jrjvErYX11Tti$',#6,'New-Build Primary School (Integrated Child Centre)','Integrated child centre with school, after-school care and day care',$,$,$,(#12),#9);
#14=IFCTIMEPERIOD('07:00:00','16:00:00');
#15=IFCRECURRENCEPATTERN(.WEEKLY.,$,(1,2,3,4,5),$,$,$,$,(#14));
#16=IFCWORKTIME('Standard work week',.PREDICTED.,$,#15,$,$);
#17=IFCWORKTIME('New Year''s Day',.PREDICTED.,$,$,'2027-01-01','2027-01-01');
#18=IFCWORKTIME('Good Friday',.PREDICTED.,$,$,'2027-03-26','2027-03-26');
#19=IFCWORKTIME('Easter',.PREDICTED.,$,$,'2027-03-28','2027-03-29');
#20=IFCWORKTIME('King''s Day',.PREDICTED.,$,$,'2027-04-27','2027-04-27');
#21=IFCWORKTIME('Liberation Day',.PREDICTED.,$,$,'2027-05-05','2027-05-05');
#22=IFCWORKTIME('Ascension Day',.PREDICTED.,$,$,'2027-05-06','2027-05-06');
#23=IFCWORKTIME('Whitsun',.PREDICTED.,$,$,'2027-05-16','2027-05-17');
#24=IFCWORKTIME('Christmas',.PREDICTED.,$,$,'2027-12-25','2027-12-26');
#25=IFCWORKTIME('Construction holiday (northern region)',.PREDICTED.,$,$,'2027-07-26','2027-08-15');
#26=IFCWORKTIME('New Year''s Day',.PREDICTED.,$,$,'2028-01-01','2028-01-01');
#27=IFCWORKTIME('Good Friday',.PREDICTED.,$,$,'2028-04-14','2028-04-14');
#28=IFCWORKTIME('Easter',.PREDICTED.,$,$,'2028-04-16','2028-04-17');
#29=IFCWORKTIME('King''s Day',.PREDICTED.,$,$,'2028-04-27','2028-04-27');
#30=IFCWORKTIME('Liberation Day',.PREDICTED.,$,$,'2028-05-05','2028-05-05');
#31=IFCWORKTIME('Ascension Day',.PREDICTED.,$,$,'2028-05-25','2028-05-25');
#32=IFCWORKTIME('Whitsun',.PREDICTED.,$,$,'2028-06-04','2028-06-05');
#33=IFCWORKTIME('Christmas',.PREDICTED.,$,$,'2028-12-25','2028-12-26');
#34=IFCWORKTIME('Construction holiday (northern region)',.PREDICTED.,$,$,'2028-07-24','2028-08-13');
#35=IFCWORKCALENDAR('_HlbW$VPl1Yxnv_nBDbFBd',#6,'Construction calendar NL','Standard construction calendar: Mon-Fri 07:00-16:00',$,(#16),(#17,#18,#19,#20,#21,#22,#23,#24,#25,#26,#27,#28,#29,#30,#31,#32,#33,#34),.FIRSTSHIFT.);
#36=IFCPROPERTYSINGLEVALUE('HoursPerDay',$,IFCREAL(8),$);
#37=IFCPROPERTYSET('qL5XmPUFgdlJ6X9$WtAtOZ',#6,'OPS_Calendar',$,(#36));
#38=IFCRELDEFINESBYPROPERTIES('bXh12hy$qvOdOP_VbbYntl',#6,$,$,(#35),#37);
#39=IFCWORKPLAN('Hbh$2dzlv3G$4zlXfNwJId',#6,'New-Build Primary School (Integrated Child Centre)','Integrated child centre with school, after-school care and day care',$,$,'2026-09-11T17:47:47',$,$,$,$,$,'2027-03-01T07:00:00','2027-03-16T07:00:00',.PLANNED.);
#40=IFCWORKSCHEDULE('kN8V0nJVjBDPy3HV9dmNEx',#6,'Construction schedule v1.0',$,$,$,'2026-09-11T17:47:47',$,$,$,$,$,'2027-03-01T07:00:00','2027-03-16T07:00:00',.PLANNED.);
#41=IFCRELAGGREGATES('X$Ph9TPtbVDd8te$ftI1sz',#6,$,$,#39,(#40));
#42=IFCTASKTIME('1. Preparation Time',.PREDICTED.,$,.WORKTIME.,'P0Y0M5D','2027-03-01T07:00:00','2027-03-05T07:00:00','2027-03-01T07:00:00','2027-03-11T07:00:00','2027-03-01T07:00:00','2027-10-15T07:00:00','P0Y0M0D','P0Y0M0D',.T.,$,$,$,$,$,0.00);
#43=IFCTASK('ZZuX41QvKD0n$hknSxJvnX',#6,'1. Preparation',$,$,'1',$,$,$,.F.,$,#42,.CONSTRUCTION.);
#44=IFCTASKTIME('Prepare construction site Time',.PREDICTED.,$,.WORKTIME.,'P0Y0M5D','2027-03-01T07:00:00','2027-03-05T07:00:00','2027-03-01T07:00:00','2027-03-05T07:00:00','2027-03-01T07:00:00','2027-03-05T07:00:00','P0Y0M0D','P0Y0M0D',.T.,$,$,$,$,$,0.00);
#45=IFCTASK('QXZfiBFPP7WH7Jf1UPSBWP',#6,'Prepare construction site',$,$,'1.1',$,$,$,.F.,$,#44,.CONSTRUCTION.);
#46=IFCTASKTIME('Set up site Time',.PREDICTED.,$,.WORKTIME.,'P0Y0M3D','2027-03-01T07:00:00','2027-03-03T07:00:00','2027-03-08T07:00:00','2027-03-10T07:00:00','2027-10-12T07:00:00','2027-10-14T07:00:00','P0Y0M0D','P0Y0M135D',.F.,$,$,$,$,$,0.00);
#47=IFCTASK('YTm7Fr172NMFlzt1Opz9ml',#6,'Set up site',$,$,'1.2',$,$,$,.F.,$,#46,.LOGISTIC.);
#48=IFCTASKTIME('Start of construction Time',.PREDICTED.,$,.WORKTIME.,'P0Y0M0D','2027-03-01T07:00:00','2027-03-01T07:00:00','2027-03-11T07:00:00','2027-03-11T07:00:00','2027-10-15T07:00:00','2027-10-15T07:00:00','P0Y0M135D','P0Y0M135D',.F.,$,$,$,$,$,0.00);
#49=IFCTASK('tfg3_v79X5N5plxFkzuFtn',#6,'Start of construction',$,$,'1.3',$,$,$,.T.,$,#48,.CONSTRUCTION.);
#50=IFCTASKTIME('2. Foundations Time',.PREDICTED.,$,.WORKTIME.,'P0Y0M5D','2027-03-01T07:00:00','2027-03-05T07:00:00','2027-03-05T07:00:00','2027-04-15T07:00:00','2027-03-05T07:00:00','2027-10-15T07:00:00','P0Y0M0D','P0Y0M0D',.T.,$,$,$,$,$,0.00);
#51=IFCTASK('LdOlH17t1rZ9D35Fk3G9eB',#6,'2. Foundations',$,$,'2',$,$,$,.F.,$,#50,.CONSTRUCTION.);
#52=IFCTASKTIME('Pile driving, foundation piles Time',.PREDICTED.,$,.WORKTIME.,'P0Y0M10D','2027-03-01T07:00:00','2027-03-12T07:00:00','2027-03-05T07:00:00','2027-03-18T07:00:00','2027-03-05T07:00:00','2027-03-18T07:00:00','P0Y0M0D','P0Y0M0D',.T.,$,$,$,$,$,0.00);
#53=IFCTASK('QR0tcNePH1wJsxCFS5LV8p',#6,'Pile driving, foundation piles',$,$,'2.1',$,$,$,.F.,$,#52,.CONSTRUCTION.);
#54=IFCTASKTIME('Foundation beams and pile caps Time',.PREDICTED.,$,.WORKTIME.,'P0Y0M8D','2027-03-01T07:00:00','2027-03-10T07:00:00','2027-03-19T07:00:00','2027-04-01T07:00:00','2027-09-22T07:00:00','2027-10-01T07:00:00','P0Y0M0D','P0Y0M112D',.F.,$,$,$,$,$,0.00);
#55=IFCTASK('_DA75F5nevDtJJXVYParSR',#6,'Foundation beams and pile caps',$,$,'2.2',$,$,$,.F.,$,#54,.CONSTRUCTION.);
#56=IFCTASKTIME('Below-slab drainage Time',.PREDICTED.,$,.WORKTIME.,'P0Y0M5D','2027-03-01T07:00:00','2027-03-05T07:00:00','2027-04-02T07:00:00','2027-04-08T07:00:00','2027-10-04T07:00:00','2027-10-08T07:00:00','P0Y0M0D','P0Y0M112D',.F.,$,$,$,$,$,0.00);
#57=IFCTASK('e3vrr7gPvfo7s7oFAVB$65',#6,'Below-slab drainage',$,$,'2.3',$,$,$,.F.,$,#56,.INSTALLATION.);
#58=IFCTASKTIME('Pour ground floor slab Time',.PREDICTED.,$,.WORKTIME.,'P0Y0M5D','2027-03-01T07:00:00','2027-03-05T07:00:00','2027-04-09T07:00:00','2027-04-15T07:00:00','2027-10-11T07:00:00','2027-10-15T07:00:00','P0Y0M112D','P0Y0M112D',.F.,$,$,$,$,$,0.00);
#59=IFCTASK('AfUhzvXdrfUfn7EFgHT9ub',#6,'Pour ground floor slab',$,$,'2.4',$,$,$,.F.,$,#58,.CONSTRUCTION.);
#60=IFCTASKTIME('3. Structural works Time',.PREDICTED.,$,.WORKTIME.,'P0Y0M5D','2027-03-01T07:00:00','2027-03-05T07:00:00','2027-03-11T07:00:00','2027-05-18T07:00:00','2027-03-11T07:00:00','2027-10-15T07:00:00','P0Y0M0D','P0Y0M0D',.T.,$,$,$,$,$,0.00);
#61=IFCTASK('O3$Ty3SHLJsT37oFUPyTj3',#6,'3. Structural works',$,$,'3',$,$,$,.F.,$,#60,.CONSTRUCTION.);
#62=IFCTASKTIME('Ground floor masonry Time',.PREDICTED.,$,.WORKTIME.,'P0Y0M12D','2027-03-01T07:00:00','2027-03-16T07:00:00','2027-03-11T07:00:00','2027-03-30T07:00:00','2027-03-11T07:00:00','2027-03-30T07:00:00','P0Y0M0D','P0Y0M0D',.T.,$,$,$,$,$,0.00);
#63=IFCTASK('d$npDFa$ABxXA5CHA5A3vx',#6,'Ground floor masonry',$,$,'3.1',$,$,$,.F.,$,#62,.CONSTRUCTION.);
#64=IFCTASKTIME('Precast upper floor slab Time',.PREDICTED.,$,.WORKTIME.,'P0Y0M5D','2027-03-01T07:00:00','2027-03-05T07:00:00','2027-03-31T07:00:00','2027-04-06T07:00:00','2027-03-31T07:00:00','2027-04-06T07:00:00','P0Y0M0D','P0Y0M0D',.T.,$,$,$,$,$,0.00);
#65=IFCTASK('VZWNiNnPFTUxvpDF$Z4L6X',#6,'Precast upper floor slab',$,$,'3.2',$,$,$,.F.,$,#64,.CONSTRUCTION.);
#66=IFCTASKTIME('Upper floor masonry Time',.PREDICTED.,$,.WORKTIME.,'P0Y0M10D','2027-03-01T07:00:00','2027-03-12T07:00:00','2027-04-07T07:00:00','2027-04-20T07:00:00','2027-04-07T07:00:00','2027-04-20T07:00:00','P0Y0M0D','P0Y0M0D',.T.,$,$,$,$,$,0.00);
#67=IFCTASK('N74rl5fNk1VRt94nL7qb3P',#6,'Upper floor masonry',$,$,'3.3',$,$,$,.F.,$,#66,.CONSTRUCTION.);
#68=IFCTASKTIME('CLT roof structure Time',.PREDICTED.,$,.WORKTIME.,'P0Y0M8D','2027-03-01T07:00:00','2027-03-10T07:00:00','2027-04-21T07:00:00','2027-05-03T07:00:00','2027-04-21T07:00:00','2027-05-03T07:00:00','P0Y0M0D','P0Y0M0D',.T.,$,$,$,$,$,0.00);
#69=IFCTASK('Y$vBnBv9j9HrS76HBJPx1j',#6,'CLT roof structure',$,$,'3.4',$,$,$,.F.,$,#68,.CONSTRUCTION.);
#70=IFCTASKTIME('EPDM roofing Time',.PREDICTED.,$,.WORKTIME.,'P0Y0M5D','2027-03-01T07:00:00','2027-03-05T07:00:00','2027-05-04T07:00:00','2027-05-12T07:00:00','2027-05-04T07:00:00','2027-05-12T07:00:00','P0Y0M0D','P0Y0M0D',.T.,$,$,$,$,$,0.00);
#71=IFCTASK('NPeH3vl7ynX3pTd1iVJvRx',#6,'EPDM roofing',$,$,'3.5',$,$,$,.F.,$,#70,.CONSTRUCTION.);
#72=IFCTASKTIME('Install sedum roof Time',.PREDICTED.,$,.WORKTIME.,'P0Y0M3D','2027-03-01T07:00:00','2027-03-03T07:00:00','2027-05-13T07:00:00','2027-05-18T07:00:00','2027-05-13T07:00:00','2027-05-18T07:00:00','P0Y0M0D','P0Y0M0D',.T.,$,$,$,$,$,0.00);
#73=IFCTASK('nBdzYbQVR17p8tO$1z8$QL',#6,'Install sedum roof',$,$,'3.6',$,$,$,.F.,$,#72,.CONSTRUCTION.);
#74=IFCTASKTIME('Topping out Time',.PREDICTED.,$,.WORKTIME.,'P0Y0M0D','2027-03-01T07:00:00','2027-03-01T07:00:00','2027-05-18T07:00:00','2027-05-18T07:00:00','2027-10-15T07:00:00','2027-10-15T07:00:00','P0Y0M93D','P0Y0M93D',.F.,$,$,$,$,$,0.00);
#75=IFCTASK('DrHbKhBl5ljNDHrnlPqp8b',#6,'Topping out',$,$,'3.7',$,$,$,.T.,$,#74,.CONSTRUCTION.);
#76=IFCTASKTIME('4. Facade & roof Time',.PREDICTED.,$,.WORKTIME.,'P0Y0M5D','2027-03-01T07:00:00','2027-03-05T07:00:00','2027-05-03T07:00:00','2027-06-17T07:00:00','2027-05-03T07:00:00','2027-10-15T07:00:00','P0Y0M0D','P0Y0M0D',.T.,$,$,$,$,$,0.00);
#77=IFCTASK('sDtD5hRFQJKRrPg$H7G9mV',#6,'4. Facade & roof',$,$,'4',$,$,$,.F.,$,#76,.CONSTRUCTION.);
#78=IFCTASKTIME('ETICS facade insulation Time',.PREDICTED.,$,.WORKTIME.,'P0Y0M10D','2027-03-01T07:00:00','2027-03-12T07:00:00','2027-05-03T07:00:00','2027-05-19T07:00:00','2027-05-03T07:00:00','2027-05-19T07:00:00','P0Y0M0D','P0Y0M0D',.T.,$,$,$,$,$,0.00);
#79=IFCTASK('gT5FZ5UfWRJfBJRFKVTNoN',#6,'ETICS facade insulation',$,$,'4.1',$,$,$,.F.,$,#78,.INSTALLATION.);
#80=IFCTASKTIME('Aluminium window frames Time',.PREDICTED.,$,.WORKTIME.,'P0Y0M8D','2027-03-01T07:00:00','2027-03-10T07:00:00','2027-05-20T07:00:00','2027-05-31T07:00:00','2027-05-20T07:00:00','2027-05-31T07:00:00','P0Y0M0D','P0Y0M0D',.T.,$,$,$,$,$,0.00);
#81=IFCTASK('2nrFFhxFmT4LcF91lLfZrv',#6,'Aluminium window frames',$,$,'4.2',$,$,$,.F.,$,#80,.INSTALLATION.);
#82=IFCTASKTIME('Facade finish, brick slips Time',.PREDICTED.,$,.WORKTIME.,'P0Y0M8D','2027-03-01T07:00:00','2027-03-10T07:00:00','2027-06-01T07:00:00','2027-06-10T07:00:00','2027-06-01T07:00:00','2027-06-10T07:00:00','P0Y0M0D','P0Y0M0D',.T.,$,$,$,$,$,0.00);
#83=IFCTASK('V1PLxrP9V7TPqhIFSfs3Xv',#6,'Facade finish, brick slips',$,$,'4.3',$,$,$,.F.,$,#82,.CONSTRUCTION.);
#84=IFCTASKTIME('Roof solar panels Time',.PREDICTED.,$,.WORKTIME.,'P0Y0M5D','2027-03-01T07:00:00','2027-03-05T07:00:00','2027-06-11T07:00:00','2027-06-17T07:00:00','2027-06-11T07:00:00','2027-06-17T07:00:00','P0Y0M0D','P0Y0M0D',.T.,$,$,$,$,$,0.00);
#85=IFCTASK('CBvZGP6XrZyDWDLlpv8$UJ',#6,'Roof solar panels',$,$,'4.4',$,$,$,.F.,$,#84,.INSTALLATION.);
#86=IFCTASKTIME('Wind and weathertight Time',.PREDICTED.,$,.WORKTIME.,'P0Y0M0D','2027-03-01T07:00:00','2027-03-01T07:00:00','2027-06-17T07:00:00','2027-06-17T07:00:00','2027-10-15T07:00:00','2027-10-15T07:00:00','P0Y0M71D','P0Y0M71D',.F.,$,$,$,$,$,0.00);
#87=IFCTASK('wBAvBdQV1fR1e7InqlZ9Gl',#6,'Wind and weathertight',$,$,'4.5',$,$,$,.T.,$,#86,.CONSTRUCTION.);
#88=IFCTASKTIME('5. Building services Time',.PREDICTED.,$,.WORKTIME.,'P0Y0M5D','2027-03-01T07:00:00','2027-03-05T07:00:00','2027-06-18T07:00:00','2027-08-25T07:00:00','2027-06-18T07:00:00','2027-10-15T07:00:00','P0Y0M0D','P0Y0M0D',.T.,$,$,$,$,$,0.00);
#89=IFCTASK('FrXhZfffShlr4ZhH3n3t8D',#6,'5. Building services',$,$,'5',$,$,$,.F.,$,#88,.INSTALLATION.);
#90=IFCTASKTIME('Electrical and data Time',.PREDICTED.,$,.WORKTIME.,'P0Y0M8D','2027-03-01T07:00:00','2027-03-10T07:00:00','2027-06-18T07:00:00','2027-06-29T07:00:00','2027-06-18T07:00:00','2027-06-29T07:00:00','P0Y0M0D','P0Y0M0D',.T.,$,$,$,$,$,0.00);
#91=IFCTASK('WXDPl1HvKt2R7$5HSxbF9H',#6,'Electrical and data',$,$,'5.1',$,$,$,.F.,$,#90,.INSTALLATION.);
#92=IFCTASKTIME('Air-to-water heat pump Time',.PREDICTED.,$,.WORKTIME.,'P0Y0M5D','2027-03-01T07:00:00','2027-03-05T07:00:00','2027-06-30T07:00:00','2027-07-06T07:00:00','2027-09-10T07:00:00','2027-09-16T07:00:00','P0Y0M0D','P0Y0M37D',.F.,$,$,$,$,$,0.00);
#93=IFCTASK('3jUh$vw7IVT9h9GXcTR$Un',#6,'Air-to-water heat pump',$,$,'5.2',$,$,$,.F.,$,#92,.INSTALLATION.);
#94=IFCTASKTIME('Underfloor heating Time',.PREDICTED.,$,.WORKTIME.,'P0Y0M8D','2027-03-01T07:00:00','2027-03-10T07:00:00','2027-07-02T07:00:00','2027-07-13T07:00:00','2027-09-14T07:00:00','2027-09-23T07:00:00','P0Y0M0D','P0Y0M37D',.F.,$,$,$,$,$,0.00);
#95=IFCTASK('Z3iJ7PDnkBvDaJxnUhNT3L',#6,'Underfloor heating',$,$,'5.3',$,$,$,.F.,$,#94,.INSTALLATION.);
#96=IFCTASKTIME('CO2-controlled ventilation Time',.PREDICTED.,$,.WORKTIME.,'P0Y0M8D','2027-03-01T07:00:00','2027-03-10T07:00:00','2027-07-14T07:00:00','2027-07-23T07:00:00','2027-09-24T07:00:00','2027-10-05T07:00:00','P0Y0M0D','P0Y0M37D',.F.,$,$,$,$,$,0.00);
#97=IFCTASK('iPWNuh4H5nvhcnXXGnz9O3',#6,'CO2-controlled ventilation',$,$,'5.4',$,$,$,.F.,$,#96,.INSTALLATION.);
#98=IFCTASKTIME('Sanitary pipework Time',.PREDICTED.,$,.WORKTIME.,'P0Y0M5D','2027-03-01T07:00:00','2027-03-05T07:00:00','2027-08-16T07:00:00','2027-08-20T07:00:00','2027-10-06T07:00:00','2027-10-12T07:00:00','P0Y0M0D','P0Y0M37D',.F.,$,$,$,$,$,0.00);
#99=IFCTASK('J9ah17sdxHJfbLgl2tMf2V',#6,'Sanitary pipework',$,$,'5.5',$,$,$,.F.,$,#98,.INSTALLATION.);
#100=IFCTASKTIME('Fire alarm and evacuation Time',.PREDICTED.,$,.WORKTIME.,'P0Y0M3D','2027-03-01T07:00:00','2027-03-03T07:00:00','2027-08-23T07:00:00','2027-08-25T07:00:00','2027-10-13T07:00:00','2027-10-15T07:00:00','P0Y0M37D','P0Y0M37D',.F.,$,$,$,$,$,0.00);
#101=IFCTASK('hzNRORM1MdvLYt0Xh7a3Zf',#6,'Fire alarm and evacuation',$,$,'5.6',$,$,$,.F.,$,#100,.INSTALLATION.);
#102=IFCTASKTIME('6. Fit-out Time',.PREDICTED.,$,.WORKTIME.,'P0Y0M5D','2027-03-01T07:00:00','2027-03-05T07:00:00','2027-07-15T07:00:00','2027-10-05T07:00:00','2027-07-15T07:00:00','2027-10-05T07:00:00','P0Y0M0D','P0Y0M0D',.T.,$,$,$,$,$,0.00);
#103=IFCTASK('uroFnhRnwzw1qFv$Urj7HF',#6,'6. Fit-out',$,$,'6',$,$,$,.F.,$,#102,.CONSTRUCTION.);
#104=IFCTASKTIME('Internal walls, metal stud Time',.PREDICTED.,$,.WORKTIME.,'P0Y0M8D','2027-03-01T07:00:00','2027-03-10T07:00:00','2027-07-15T07:00:00','2027-08-16T07:00:00','2027-07-15T07:00:00','2027-08-16T07:00:00','P0Y0M0D','P0Y0M0D',.T.,$,$,$,$,$,0.00);
#105=IFCTASK('WXJv9$EtHJSJAPkXsVLVqT',#6,'Internal walls, metal stud',$,$,'6.1',$,$,$,.F.,$,#104,.CONSTRUCTION.);
#106=IFCTASKTIME('Acoustic ceilings Time',.PREDICTED.,$,.WORKTIME.,'P0Y0M5D','2027-03-01T07:00:00','2027-03-05T07:00:00','2027-08-17T07:00:00','2027-08-23T07:00:00','2027-08-17T07:00:00','2027-08-23T07:00:00','P0Y0M0D','P0Y0M0D',.T.,$,$,$,$,$,0.00);
#107=IFCTASK('2ln5cp_NArj7Adg1NDZN65',#6,'Acoustic ceilings',$,$,'6.2',$,$,$,.F.,$,#106,.CONSTRUCTION.);
#108=IFCTASKTIME('Screed floors Time',.PREDICTED.,$,.WORKTIME.,'P0Y0M5D','2027-03-01T07:00:00','2027-03-05T07:00:00','2027-08-24T07:00:00','2027-08-30T07:00:00','2027-08-24T07:00:00','2027-08-30T07:00:00','P0Y0M0D','P0Y0M0D',.T.,$,$,$,$,$,0.00);
#109=IFCTASK('2nLHVfudLj2b5lFXXFj79j',#6,'Screed floors',$,$,'6.3',$,$,$,.F.,$,#108,.CONSTRUCTION.);
#110=IFCTASKTIME('Tiling, sanitary areas Time',.PREDICTED.,$,.WORKTIME.,'P0Y0M5D','2027-03-01T07:00:00','2027-03-05T07:00:00','2027-08-31T07:00:00','2027-09-06T07:00:00','2027-08-31T07:00:00','2027-09-06T07:00:00','P0Y0M0D','P0Y0M0D',.T.,$,$,$,$,$,0.00);
#111=IFCTASK('6BsvfHed5FNxplRFy7K5zB',#6,'Tiling, sanitary areas',$,$,'6.4',$,$,$,.F.,$,#110,.CONSTRUCTION.);
#112=IFCTASKTIME('Painting Time',.PREDICTED.,$,.WORKTIME.,'P0Y0M8D','2027-03-01T07:00:00','2027-03-10T07:00:00','2027-09-07T07:00:00','2027-09-16T07:00:00','2027-09-07T07:00:00','2027-09-16T07:00:00','P0Y0M0D','P0Y0M0D',.T.,$,$,$,$,$,0.00);
#113=IFCTASK('S3a3gbr1mTiRXR4FdLu$QB',#6,'Painting',$,$,'6.5',$,$,$,.F.,$,#112,.CONSTRUCTION.);
#114=IFCTASKTIME('Linoleum floor finish Time',.PREDICTED.,$,.WORKTIME.,'P0Y0M5D','2027-03-01T07:00:00','2027-03-05T07:00:00','2027-09-17T07:00:00','2027-09-23T07:00:00','2027-09-17T07:00:00','2027-09-23T07:00:00','P0Y0M0D','P0Y0M0D',.T.,$,$,$,$,$,0.00);
#115=IFCTASK('F7svlbh$Af3fBj5nAR6Ppj',#6,'Linoleum floor finish',$,$,'6.6',$,$,$,.F.,$,#114,.CONSTRUCTION.);
#116=IFCTASKTIME('Outdoor playground Time',.PREDICTED.,$,.WORKTIME.,'P0Y0M8D','2027-03-01T07:00:00','2027-03-10T07:00:00','2027-09-24T07:00:00','2027-10-05T07:00:00','2027-09-24T07:00:00','2027-10-05T07:00:00','P0Y0M0D','P0Y0M0D',.T.,$,$,$,$,$,0.00);
#117=IFCTASK('ZVDdHXpn_TyhErYVdL0vfZ',#6,'Outdoor playground',$,$,'6.7',$,$,$,.F.,$,#116,.CONSTRUCTION.);
#118=IFCTASKTIME('7. Handover Time',.PREDICTED.,$,.WORKTIME.,'P0Y0M5D','2027-03-01T07:00:00','2027-03-05T07:00:00','2027-10-06T07:00:00','2027-10-15T07:00:00','2027-10-06T07:00:00','2027-10-15T07:00:00','P0Y0M0D','P0Y0M0D',.T.,$,$,$,$,$,0.00);
#119=IFCTASK('5LsTirnPHjSra7YFzJ2lln',#6,'7. Handover',$,$,'7',$,$,$,.F.,$,#118,.CONSTRUCTION.);
#120=IFCTASKTIME('Classroom furnishing Time',.PREDICTED.,$,.WORKTIME.,'P0Y0M5D','2027-03-01T07:00:00','2027-03-05T07:00:00','2027-10-06T07:00:00','2027-10-12T07:00:00','2027-10-06T07:00:00','2027-10-12T07:00:00','P0Y0M0D','P0Y0M0D',.T.,$,$,$,$,$,0.00);
#121=IFCTASK('tpFxcpYfu1EBev2FffMZtF',#6,'Classroom furnishing',$,$,'7.1',$,$,$,.F.,$,#120,.LOGISTIC.);
#122=IFCTASKTIME('Testing and commissioning Time',.PREDICTED.,$,.WORKTIME.,'P0Y0M3D','2027-03-01T07:00:00','2027-03-03T07:00:00','2027-10-13T07:00:00','2027-10-15T07:00:00','2027-10-13T07:00:00','2027-10-15T07:00:00','P0Y0M0D','P0Y0M0D',.T.,$,$,$,$,$,0.00);
#123=IFCTASK('aTe$E3rHL7ufJV9$q3eV4P',#6,'Testing and commissioning',$,$,'7.2',$,$,$,.F.,$,#122,.ATTENDANCE.);
#124=IFCTASKTIME('Child centre handover Time',.PREDICTED.,$,.WORKTIME.,'P0Y0M0D','2027-03-01T07:00:00','2027-03-01T07:00:00','2027-10-15T07:00:00','2027-10-15T07:00:00','2027-10-15T07:00:00','2027-10-15T07:00:00','P0Y0M0D','P0Y0M0D',.T.,$,$,$,$,$,0.00);
#125=IFCTASK('dROlvLa1ElDtZBkV6pz9m1',#6,'Child centre handover',$,$,'7.3',$,$,$,.T.,$,#124,.CONSTRUCTION.);
#126=IFCRELNESTS('M7yrrPM$EbRVMr_XrpRFj3',#6,'WBS 1. Preparation',$,#43,( #45,#47,#49));
#127=IFCRELNESTS('ErFxAhRn2fcVQn$VEl9r4v',#6,'WBS 2. Foundations',$,#51,( #53,#55,#57,#59));
#128=IFCRELNESTS('V17B77ffIh3N$1v1s$$jIv',#6,'WBS 3. Structural works',$,#61,( #63,#65,#67,#69,#71,#73,#75));
#129=IFCRELNESTS('3nTNCbB1SLXbPHJlprR$YD',#6,'WBS 4. Facade & roof',$,#77,( #79,#81,#83,#85,#87));
#130=IFCRELNESTS('uJBnLNGNiD8f3PkVoFxlDF',#6,'WBS 5. Building services',$,#89,( #91,#93,#95,#97,#99,#101));
#131=IFCRELNESTS('n76tMVB$45f5jX$XCFPjcL',#6,'WBS 6. Fit-out',$,#103,( #105,#107,#109,#111,#113,#115,#117));
#132=IFCRELNESTS('qNMzIHWtvzOPm5iH4P0vn$',#6,'WBS 7. Handover',$,#119,( #121,#123,#125));
#133=IFCRELNESTS('tjjP5r1vgdnD4TBHzDgTrv',#6,'WBS Hoofd',$,#40,(#43,#51,#61,#77,#89,#103,#119));
#134=IFCRELSEQUENCE('bxSLV9KV$h93PFnXzjgfQr',#6,$,$,#45,#47,$,.FINISH_START.,$);
#135=IFCRELSEQUENCE('Rx4r$zinUJ_bnjRFK1H33d',#6,$,$,#47,#49,$,.FINISH_START.,$);
#136=IFCRELSEQUENCE('Q$tx2dh$MPHjgrEXyvK51J',#6,$,$,#53,#55,$,.FINISH_START.,$);
#137=IFCRELSEQUENCE('WXpdP5w7ILb1CrkX2xRn3r',#6,$,$,#55,#57,$,.FINISH_START.,$);
#138=IFCRELSEQUENCE('bxKbSnSHX5nD4zHVLZTtux',#6,$,$,#57,#59,$,.FINISH_START.,$);
#139=IFCRELSEQUENCE('$jsTaFinY7uNlNiHeRUnh9',#6,$,$,#63,#65,$,.FINISH_START.,$);
#140=IFCRELSEQUENCE('xBsvDDn7Y7ett94HPh8$gf',#6,$,$,#65,#67,$,.FINISH_START.,$);
#141=IFCRELSEQUENCE('hT5nvdh1shHr8llV9d8$sz',#6,$,$,#67,#69,$,.FINISH_START.,$);
#142=IFCRELSEQUENCE('qN_rRXB$4xtRlZzFGXvD09',#6,$,$,#69,#71,$,.FINISH_START.,$);
#143=IFCRELSEQUENCE('hPm7nBd9nFC5vpblYdqDK$',#6,$,$,#71,#73,$,.FINISH_START.,$);
#144=IFCRELSEQUENCE('WXrXuhiFA9lBK1znK1XDiJ',#6,$,$,#73,#75,$,.FINISH_START.,$);
#145=IFCRELSEQUENCE('Ix$Z4T87sfR1yTxHe5wjcn',#6,$,$,#79,#81,$,.FINISH_START.,$);
#146=IFCRELSEQUENCE('mPg3sh31OdFpiXN1kVdJsZ',#6,$,$,#81,#83,$,.FINISH_START.,$);
#147=IFCRELSEQUENCE('fZh1MbRV3lO9l37$RV5lr3',#6,$,$,#83,#85,$,.FINISH_START.,$);
#148=IFCRELSEQUENCE('$nJd935nOnib1LQH$1hHv5',#6,$,$,#85,#87,$,.FINISH_START.,$);
#149=IFCRELSEQUENCE('cVxnlbTHlJ4DClRn0vunN1',#6,$,$,#91,#93,$,.FINISH_START.,$);
#150=IFCLAGTIME('Lag',.PREDICTED.,$,IFCDURATION('P2D'),.WORKTIME.);
#151=IFCRELSEQUENCE('$JsZG9y1GzOttfWVZV93JV',#6,$,$,#93,#95,#150,.START_START.,$);
#152=IFCRELSEQUENCE('gzFD$dwXVbbXIH1Xi1P5zL',#6,$,$,#95,#97,$,.FINISH_START.,$);
#153=IFCRELSEQUENCE('MdeHbRL$krXbHZznm1Zte3',#6,$,$,#97,#99,$,.FINISH_START.,$);
#154=IFCRELSEQUENCE('c1PLj$AdPjwjsRWVznxlll',#6,$,$,#99,#101,$,.FINISH_START.,$);
#155=IFCRELSEQUENCE('U17Blxn7UDo7QnlXjN2rWP',#6,$,$,#105,#107,$,.FINISH_START.,$);
#156=IFCRELSEQUENCE('n7Md7rmNIVJvs7AHijk1AT',#6,$,$,#107,#109,$,.FINISH_START.,$);
#157=IFCRELSEQUENCE('o7QfyXQVVdHjczTHO5gTv9',#6,$,$,#109,#111,$,.FINISH_START.,$);
#158=IFCRELSEQUENCE('rjz9EzbFUv0FnDHV9PeVKj',#6,$,$,#111,#113,$,.FINISH_START.,$);
#159=IFCRELSEQUENCE('nvgdfJ5Vb1djQHjlTZi5fX',#6,$,$,#113,#115,$,.FINISH_START.,$);
#160=IFCRELSEQUENCE('tfQjl5dtRVJ7Ut8$jR9Bq3',#6,$,$,#115,#117,$,.FINISH_START.,$);
#161=IFCRELSEQUENCE('1DEn9$E9LjM3VR4n9Z5X4d',#6,$,$,#121,#123,$,.FINISH_START.,$);
#162=IFCRELSEQUENCE('5LcjnBHdlXUfpnf1hdOVm1',#6,$,$,#123,#125,$,.FINISH_START.,$);
#163=IFCLAGTIME('Lag',.PREDICTED.,$,IFCDURATION('P4D'),.WORKTIME.);
#164=IFCRELSEQUENCE('dRm7HbbX55PrClrFNpTf_z',#6,$,$,#45,#53,#163,.START_START.,$);
#165=IFCLAGTIME('Lag',.PREDICTED.,$,IFCRATIOMEASURE(0.4),.WORKTIME.);
#166=IFCRELSEQUENCE('sNsZSF41yxHjgLwH5rCbHl',#6,$,$,#53,#63,#165,.START_START.,$);
#167=IFCLAGTIME('Lag',.PREDICTED.,$,IFCDURATION('-P9D'),.WORKTIME.);
#168=IFCRELSEQUENCE('wL2BR$l7Cv8fnPw1CnvDSx',#6,$,$,#73,#79,#167,.FINISH_START.,$);
#169=IFCLAGTIME('Lag',.PREDICTED.,$,IFCDURATION('P2D'),.WORKTIME.);
#170=IFCRELSEQUENCE('O3fbKfFP1LXRfvAH4rBF$j',#6,$,$,#73,#85,#169,.FINISH_FINISH.,$);
#171=IFCRELSEQUENCE('cRGdxB79PPiR99qFeDDdJZ',#6,$,$,#85,#91,$,.FINISH_START.,$);
#172=IFCLAGTIME('Lag',.PREDICTED.,$,IFCDURATION('P19D'),.WORKTIME.);
#173=IFCRELSEQUENCE('ST0t6z4$WRZd0zjllvWdzL',#6,$,$,#91,#105,#172,.START_START.,$);
#174=IFCRELSEQUENCE('aZWNC5fNwH0FVbCHsXZN6V',#6,$,$,#117,#121,$,.FINISH_START.,$);
#175=IFCRELASSIGNSTOCONTROL('rDVhNjbXHjyDCF$VkTSruD',#6,$,$,(#43,#45,#47,#49,#51,#53,#55,#57,#59,#61,#63,#65,#67,#69,#71,#73,#75,#77,#79,#81,#83,#85,#87,#89,#91,#93,#95,#97,#99,#101,#103,#105,#107,#109,#111,#113,#115,#117,#119,#121,#123,#125),$,#40);
#176=IFCPROPERTYSINGLEVALUE('InternalProjectId',$,IFCTEXT('proj-mtx91hbgf6p02788'),$);
#177=IFCPROPERTYSINGLEVALUE('wbsAutoNumber',$,IFCBOOLEAN(.T.),$);
#178=IFCPROPERTYSINGLEVALUE('DefaultTaskDurationUnit',$,IFCLABEL('days'),$);
#179=IFCPROPERTYSINGLEVALUE('ProjectStartDate',$,IFCDATE('2027-03-01'),$);
#180=IFCPROPERTYSINGLEVALUE('ProjectEndDate',$,$,$);
#181=IFCPROPERTYSINGLEVALUE('CreatedAt',$,IFCTEXT('2026-09-11T17:47:47.308Z'),$);
#182=IFCPROPERTYSINGLEVALUE('ModifiedAt',$,IFCTEXT('2026-09-11T17:47:47.310Z'),$);
#183=IFCPROPERTYSET('e5a3ArlP$tNZvpDF1ZK5n5',#6,'OPS_ProjectSettings',$,(#176,#177,#178,#179,#180,#181,#182));
#184=IFCRELDEFINESBYPROPERTIES('0Hdzo1sPJhdjQlBF$1BF9l',#6,$,$,(#13),#183);
#185=IFCPROPERTYSINGLEVALUE('InternalTaskId',$,IFCTEXT('task-mtx91hbjrbxp2789'),$);
#186=IFCPROPERTYSET('0nz9kl8Pd70FlZZFMLmNMJ',#6,'OPS_TaskIdentity',$,(#185));
#187=IFCRELDEFINESBYPROPERTIES('7l3t_BOva1XbRVLFbxkxJz',#6,$,$,(#43),#186);
#188=IFCPROPERTYSINGLEVALUE('InternalTaskId',$,IFCTEXT('task-mtx91hbkf08h2790'),$);
#189=IFCPROPERTYSET('9JTfSHWtXvz76XnXNjNLIL',#6,'OPS_TaskIdentity',$,(#188));
#190=IFCRELDEFINESBYPROPERTIES('GN0tE$Q7W5$Zj1pnT$Z9ql',#6,$,$,(#45),#189);
#191=IFCPROPERTYSINGLEVALUE('InternalTaskId',$,IFCTEXT('task-mtx91hblre632791'),$);
#192=IFCPROPERTYSET('$njPHVL$ExHjsRe$07m9qT',#6,'OPS_TaskIdentity',$,(#191));
#193=IFCRELDEFINESBYPROPERTIES('8JJP5BfNuNJ7AbmV2twdL9',#6,$,$,(#47),#192);
#194=IFCPROPERTYSINGLEVALUE('InternalTaskId',$,IFCTEXT('task-mtx91hbmp4wz2792'),$);
#195=IFCPROPERTYSET('cxib8DFvQVov6$Zn6foR1f',#6,'OPS_TaskIdentity',$,(#194));
#196=IFCRELDEFINESBYPROPERTIES('XXztE$_f2tU5pF$XkZiJgf',#6,$,$,(#49),#195);
#197=IFCPROPERTYSINGLEVALUE('InternalTaskId',$,IFCTEXT('task-mtx91hbn3lis2793'),$);
#198=IFCPROPERTYSET('uBgP7rOPzTILA7_nbbI$ER',#6,'OPS_TaskIdentity',$,(#197));
#199=IFCRELDEFINESBYPROPERTIES('1J6DxhpX1rzfTfe1eb_lfT',#6,$,$,(#51),#198);
#200=IFCPROPERTYSINGLEVALUE('InternalTaskId',$,IFCTEXT('task-mtx91hbohae22794'),$);
#201=IFCPROPERTYSET('3jMzUxUN899zPl3lolNhwR',#6,'OPS_TaskIdentity',$,(#200));
#202=IFCRELDEFINESBYPROPERTIES('yHZNSjs1m3OPGhEn_9c79p',#6,$,$,(#53),#201);
#203=IFCPROPERTYSINGLEVALUE('InternalTaskId',$,IFCTEXT('task-mtx91hbp99ks2795'),$);
#204=IFCPROPERTYSET('XXrVuDn76FSr4Z3FORgNYp',#6,'OPS_TaskIdentity',$,(#203));
#205=IFCRELDEFINESBYPROPERTIES('O3$ZyZedf5f5Vn5HuByTLf',#6,$,$,(#55),#204);
#206=IFCPROPERTYSINGLEVALUE('InternalTaskId',$,IFCTEXT('task-mtx91hbqpcpm2796'),$);
#207=IFCPROPERTYSET('rp1BjZdtrtwJYfylPLu1ot',#6,'OPS_TaskIdentity',$,(#206));
#208=IFCRELDEFINESBYPROPERTIES('I9SL3vffk1PJUzVV69Q7PL',#6,$,$,(#57),#207);
#209=IFCPROPERTYSINGLEVALUE('InternalTaskId',$,IFCTEXT('task-mtx91hbs4ltw2797'),$);
#210=IFCPROPERTYSET('PRuX0lPtvTK33bO$VDgZFx',#6,'OPS_TaskIdentity',$,(#209));
#211=IFCRELDEFINESBYPROPERTIES('WVh1o$_NQJK3RV3HA1Hz5L',#6,$,$,(#59),#210);
#212=IFCPROPERTYSINGLEVALUE('InternalTaskId',$,IFCTEXT('task-mtx91hbt1ufm2798'),$);
#213=IFCPROPERTYSET('rD7TSHWt5HRX6$znGFB$Ql',#6,'OPS_TaskIdentity',$,(#212));
#214=IFCRELDEFINESBYPROPERTIES('Itazo$w7oxf5nPw14LdjgN',#6,$,$,(#61),#213);
#215=IFCPROPERTYSINGLEVALUE('InternalTaskId',$,IFCTEXT('task-mtx91hbudhl02799'),$);
#216=IFCPROPERTYSET('AJJdjX2F4xFpClJHzpEbT9',#6,'OPS_TaskIdentity',$,(#215));
#217=IFCRELDEFINESBYPROPERTIES('lf8nBdM$_fId4371DL93Hl',#6,$,$,(#63),#216);
#218=IFCPROPERTYSINGLEVALUE('InternalTaskId',$,IFCTEXT('task-mtx91hbvvroq2800'),$);
#219=IFCPROPERTYSET('2FhHX9iFY7ufZfO1WfMTF5',#6,'OPS_TaskIdentity',$,(#218));
#220=IFCRELDEFINESBYPROPERTIES('tj3tURcX$tHrWJt$8LGti1',#6,$,$,(#65),#219);
#221=IFCPROPERTYSINGLEVALUE('InternalTaskId',$,IFCTEXT('task-mtx91hbwi6ip2801'),$);
#222=IFCPROPERTYSET('whobKLrl5lLlfbO$urS3F1',#6,'OPS_TaskIdentity',$,(#221));
#223=IFCRELDEFINESBYPROPERTIES('$HvZm9inEbTPSD$XIV$5zr',#6,$,$,(#67),#222);
#224=IFCPROPERTYSINGLEVALUE('InternalTaskId',$,IFCTEXT('task-mtx91hbx9to12802'),$);
#225=IFCPROPERTYSET('xnd3IFy1Wxf5lfan1ZyTtF',#6,'OPS_TaskIdentity',$,(#224));
#226=IFCRELDEFINESBYPROPERTIES('qrP36vEtfFtRFp9$LZDPXT',#6,$,$,(#69),#225);
#227=IFCPROPERTYSINGLEVALUE('InternalTaskId',$,IFCTEXT('task-mtx91hbzzqyq2803'),$);
#228=IFCPROPERTYSET('6BIlhJwXpvz7w$3nK$fLw$',#6,'OPS_TaskIdentity',$,(#227));
#229=IFCRELDEFINESBYPROPERTIES('$FBn9VA$y5HJ6Dxl4h$5lB',#6,$,$,(#71),#228);
#230=IFCPROPERTYSINGLEVALUE('InternalTaskId',$,IFCTEXT('task-mtx91hc0jpal2804'),$);
#231=IFCPROPERTYSET('odQjHxlvOvbVY90V1X157f',#6,'OPS_TaskIdentity',$,(#230));
#232=IFCRELDEFINESBYPROPERTIES('7rcfGdg$ERBF1LIna92lpl',#6,$,$,(#73),#231);
#233=IFCPROPERTYSINGLEVALUE('InternalTaskId',$,IFCTEXT('task-mtx91hc1hoou2805'),$);
#234=IFCPROPERTYSET('Gd6D7Bu7Q1cpOXDlNtAt8x',#6,'OPS_TaskIdentity',$,(#233));
#235=IFCRELDEFINESBYPROPERTIES('9969kna$EnNxDFv1ARoV85',#6,$,$,(#75),#234);
#236=IFCPROPERTYSINGLEVALUE('InternalTaskId',$,IFCTEXT('task-mtx91hc2tq7b2806'),$);
#237=IFCPROPERTYSET('jxPLTN17_NE7grA$L37pSN',#6,'OPS_TaskIdentity',$,(#236));
#238=IFCRELDEFINESBYPROPERTIES('qNEbOZNNW5npunznepxlT9',#6,$,$,(#77),#237);
#239=IFCPROPERTYSINGLEVALUE('InternalTaskId',$,IFCTEXT('task-mtx91hc4cwiz2807'),$);
#240=IFCPROPERTYSET('DLrnTRklf59bN7QlRVDdb$',#6,'OPS_TaskIdentity',$,(#239));
#241=IFCRELDEFINESBYPROPERTIES('ideHB34lHX_tFp7$QvKJ6V',#6,$,$,(#79),#240);
#242=IFCPROPERTYSINGLEVALUE('InternalTaskId',$,IFCTEXT('task-mtx91hc5lpa82808'),$);
#243=IFCPROPERTYSET('RVxFHbL$YvOdCLgHcznhYl',#6,'OPS_TaskIdentity',$,(#242));
#244=IFCRELDEFINESBYPROPERTIES('KxHj5lHdNbptnpv1_xr$ER',#6,$,$,(#81),#243);
#245=IFCPROPERTYSINGLEVALUE('InternalTaskId',$,IFCTEXT('task-mtx91hc6br192809'),$);
#246=IFCPROPERTYSET('4lJdRRbVT16JIRynjxpdR$',#6,'OPS_TaskIdentity',$,(#245));
#247=IFCRELDEFINESBYPROPERTIES('BjjPPb_nel0n7X91ODhVux',#6,$,$,(#83),#246);
#248=IFCPROPERTYSINGLEVALUE('InternalTaskId',$,IFCTEXT('task-mtx91hc89es22810'),$);
#249=IFCPROPERTYSET('Hx$ZuJpFI$VRFjTliVjvRx',#6,'OPS_TaskIdentity',$,(#248));
#250=IFCRELDEFINESBYPROPERTIES('AN2rj3Z1kVR1WpJFzjk1ox',#6,$,$,(#85),#249);
#251=IFCPROPERTYSINGLEVALUE('InternalTaskId',$,IFCTEXT('task-mtx91hc9snnj2811'),$);
#252=IFCPROPERTYSET('ZzSzYbwX1hlBa7UFTzWPBP',#6,'OPS_TaskIdentity',$,(#251));
#253=IFCRELDEFINESBYPROPERTIES('a$$TCbh1MPljMrEXStMNUH',#6,$,$,(#87),#252);
#254=IFCPROPERTYSINGLEVALUE('InternalTaskId',$,IFCTEXT('task-mtx91hcb35p02812'),$);
#255=IFCPROPERTYSET('EdkxQD2NE5HjcZ9$j9I1EN',#6,'OPS_TaskIdentity',$,(#254));
#256=IFCRELDEFINESBYPROPERTIES('vrY1sHnPpvZPmrM1zDcDup',#6,$,$,(#89),#255);
#257=IFCPROPERTYSINGLEVALUE('InternalTaskId',$,IFCTEXT('task-mtx91hcd475b2813'),$);
#258=IFCPROPERTYSET('3n5Vap_fsh$59B61yBR1QF',#6,'OPS_TaskIdentity',$,(#257));
#259=IFCRELDEFINESBYPROPERTIES('AjxVuh4$qZcpqLQlzjcvzP',#6,$,$,(#91),#258);
#260=IFCPROPERTYSINGLEVALUE('InternalTaskId',$,IFCTEXT('task-mtx91hcegp792814'),$);
#261=IFCPROPERTYSET('W195IlWthvedi$Znwp39eT',#6,'OPS_TaskIdentity',$,(#260));
#262=IFCRELDEFINESBYPROPERTIES('dV39ID7trZCxLZhH5r4TR1',#6,$,$,(#93),#261);
#263=IFCPROPERTYSINGLEVALUE('InternalTaskId',$,IFCTEXT('task-mtx91hcgb8d62815'),$);
#264=IFCPROPERTYSET('0HXhl$lvifkdunTF2x3tSx',#6,'OPS_TaskIdentity',$,(#263));
#265=IFCRELDEFINESBYPROPERTIES('vn9DJX2nC7uNTfmX0v8n5F',#6,$,$,(#95),#264);
#266=IFCPROPERTYSINGLEVALUE('InternalTaskId',$,IFCTEXT('task-mtx91hch0hns2816'),$);
#267=IFCPROPERTYSET('9Nob0H17MxHj_pv1oJ_l$f',#6,'OPS_TaskIdentity',$,(#266));
#268=IFCRELDEFINESBYPROPERTIES('_DcfaFqna$93H371T3WdJZ',#6,$,$,(#97),#267);
#269=IFCPROPERTYSINGLEVALUE('InternalTaskId',$,IFCTEXT('task-mtx91hcil1dy2817'),$);
#270=IFCPROPERTYSET('sfYh1PcVL7GVkxe19vKjw5',#6,'OPS_TaskIdentity',$,(#269));
#271=IFCRELDEFINESBYPROPERTIES('3p_XuhSlBZyLMtinI3WdbV',#6,$,$,(#99),#270);
#272=IFCPROPERTYSINGLEVALUE('InternalTaskId',$,IFCTEXT('task-mtx91hckf45v2818'),$);
#273=IFCPROPERTYSET('ELBFXjIHtrdjMhYFb17bPr',#6,'OPS_TaskIdentity',$,(#272));
#274=IFCRELDEFINESBYPROPERTIES('hd0tQfmfaL7D0TP$ab9rij',#6,$,$,(#101),#273);
#275=IFCPROPERTYSINGLEVALUE('InternalTaskId',$,IFCTEXT('task-mtx91hclbhqe2819'),$);
#276=IFCPROPERTYSET('RxKJfFKF2tAZrJ5nUdCbBZ',#6,'OPS_TaskIdentity',$,(#275));
#277=IFCRELDEFINESBYPROPERTIES('U1FphjklZJyhUZxlij2HTt',#6,$,$,(#103),#276);
#278=IFCPROPERTYSINGLEVALUE('InternalTaskId',$,IFCTEXT('task-mtx91hcntcx32820'),$);
#279=IFCPROPERTYSET('zFR16ZmfIh5VcHZlGXvpS9',#6,'OPS_TaskIdentity',$,(#278));
#280=IFCRELDEFINESBYPROPERTIES('AjR1YR2FmjsT7JFXHP4Txl',#6,$,$,(#105),#279);
#281=IFCPROPERTYSINGLEVALUE('InternalTaskId',$,IFCTEXT('task-mtx91hcorxtx2821'),$);
#282=IFCPROPERTYSET('R1nDH$l7uVw1uFBH$XVbxh',#6,'OPS_TaskIdentity',$,(#281));
#283=IFCRELDEFINESBYPROPERTIES('iRztsnjXtLJ7oV3lEpMZtH',#6,$,$,(#107),#282);
#284=IFCPROPERTYSINGLEVALUE('InternalTaskId',$,IFCTEXT('task-mtx91hcpsqg12822'),$);
#285=IFCPROPERTYSET('bXbHvLiFsB5X_7slyh15dd',#6,'OPS_TaskIdentity',$,(#284));
#286=IFCRELDEFINESBYPROPERTIES('Kxnpj$c7ijqTRrs$XJEXql',#6,$,$,(#109),#285);
#287=IFCPROPERTYSINGLEVALUE('InternalTaskId',$,IFCTEXT('task-mtx91hcr6w0l2823'),$);
#288=IFCPROPERTYSET('Tzazw34lDbBFHZRlsR6Pn5',#6,'OPS_TaskIdentity',$,(#287));
#289=IFCRELDEFINESBYPROPERTIES('a11Z8D79LJcpa7YnvbMfUF',#6,$,$,(#111),#288);
#290=IFCPROPERTYSINGLEVALUE('InternalTaskId',$,IFCTEXT('task-mtx91hcssmru2824'),$);
#291=IFCPROPERTYSET('$DU$knqV1tHrajLn9PGfEf',#6,'OPS_TaskIdentity',$,(#290));
#292=IFCRELDEFINESBYPROPERTIES('wF7TW1F7o5HjYZDntd8FbX',#6,$,$,(#113),#291);
#293=IFCPROPERTYSINGLEVALUE('InternalTaskId',$,IFCTEXT('task-mtx91hcuwkx32825'),$);
#294=IFCPROPERTYSET('idGvFh5n0Bt3l3v$jbl319',#6,'OPS_TaskIdentity',$,(#293));
#295=IFCRELDEFINESBYPROPERTIES('RRmvLt4l5lDt1LAHKjUFF5',#6,$,$,(#115),#294);
#296=IFCPROPERTYSINGLEVALUE('InternalTaskId',$,IFCTEXT('task-mtx91hcwho4k2826'),$);
#297=IFCPROPERTYSET('wnVhnFT1shNZxRKlCFfZf$',#6,'OPS_TaskIdentity',$,(#296));
#298=IFCRELDEFINESBYPROPERTIES('prXLz7F7_fYNJ$zn0vmt47',#6,$,$,(#117),#297);
#299=IFCPROPERTYSINGLEVALUE('InternalTaskId',$,IFCTEXT('task-mtx91hcxjy2w2827'),$);
#300=IFCPROPERTYSET('UzaLP5UfqPSry9alt7CbXd',#6,'OPS_TaskIdentity',$,(#299));
#301=IFCRELDEFINESBYPROPERTIES('bXjvLN87_zWH$Vzlojk1Ef',#6,$,$,(#119),#300);
#302=IFCPROPERTYSINGLEVALUE('InternalTaskId',$,IFCTEXT('task-mtx91hczuupo2828'),$);
#303=IFCPROPERTYSET('KR3tgRr$C3o7YNyFZzunFR',#6,'OPS_TaskIdentity',$,(#302));
#304=IFCRELDEFINESBYPROPERTIES('p7cNC71PD7z7gLMHYLtzF$',#6,$,$,(#121),#303);
#305=IFCPROPERTYSINGLEVALUE('InternalTaskId',$,IFCTEXT('task-mtx91hd0v9az2829'),$);
#306=IFCPROPERTYSET('1JgzwvI933kdqHZHOjXDOL',#6,'OPS_TaskIdentity',$,(#305));
#307=IFCRELDEFINESBYPROPERTIES('6HZNCvVP7zu7IRSljt6P9H',#6,$,$,(#123),#306);
#308=IFCPROPERTYSINGLEVALUE('InternalTaskId',$,IFCTEXT('task-mtx91hd2b7eq2830'),$);
#309=IFCPROPERTYSET('yDMd$7ItFlGV6V713DA3vR',#6,'OPS_TaskIdentity',$,(#308));
#310=IFCRELDEFINESBYPROPERTIES('3FDvDJ5V$fZ95npnpPyThf',#6,$,$,(#125),#309);
#311=IFCPROPERTYSINGLEVALUE('MilestoneKind',$,IFCLABEL('START'),$);
#312=IFCPROPERTYSET('BDd3IJbXvN_9rd2VHr5Vat',#6,'OPS_Milestone',$,(#311));
#313=IFCRELDEFINESBYPROPERTIES('a1vrzh4HnFKRvXN$QvKxFb',#6,$,$,(#49),#312);
#314=IFCPROPERTYSINGLEVALUE('MilestoneKind',$,IFCLABEL('FINISH'),$);
#315=IFCPROPERTYSET('X1fbe5Uf0hxVQlxFkXFLs3',#6,'OPS_Milestone',$,(#314));
#316=IFCRELDEFINESBYPROPERTIES('whgzE3bFQXgnHZxlSt_H$9',#6,$,$,(#75),#315);
#317=IFCPROPERTYSINGLEVALUE('MilestoneKind',$,IFCLABEL('FINISH'),$);
#318=IFCPROPERTYSET('EBXhBZ0tNlD9ZBYVHPazT9',#6,'OPS_Milestone',$,(#317));
#319=IFCRELDEFINESBYPROPERTIES('dXRlTNPtl1EBK$ZFopwJMJ',#6,$,$,(#87),#318);
#320=IFCPROPERTYSINGLEVALUE('MilestoneKind',$,IFCLABEL('FINISH'),$);
#321=IFCPROPERTYSINGLEVALUE('Mandatory',$,IFCBOOLEAN(.T.),$);
#322=IFCPROPERTYSET('JRxFVDUfaBZ9XbincPOH1N',#6,'OPS_Milestone',$,(#320,#321));
#323=IFCRELDEFINESBYPROPERTIES('wHTfGvItZjiz5lnXVHNL_Z',#6,$,$,(#125),#322);
ENDSEC;
END-ISO-10303-21;
