ISO-10303-21;
HEADER;
FILE_DESCRIPTION(('ViewDefinition [SchedulingView]'),'2;1');
FILE_NAME('60-Home Residential District, Almere.ifc','2026-09-11T17:47:47',('Gerrit Nieuwland'),('Flevoland Housing Construction BV'),'Open Planner Studio 0.1','Open Planner Studio','');
FILE_SCHEMA(('IFC4X3'));
ENDSEC;
DATA;
#1=IFCPERSON($,'Gerrit Nieuwland',$,$,$,$,$,$);
#2=IFCORGANIZATION($,'Flevoland Housing Construction BV',$,$,$);
#3=IFCPERSONANDORGANIZATION(#1,#2,$);
#4=IFCORGANIZATION($,'OpenAEC Foundation',$,$,$);
#5=IFCAPPLICATION(#4,'0.1','Open Planner Studio','OPS');
#6=IFCOWNERHISTORY(#3,#5,$,.NOCHANGE.,$,$,$,1789148867);
#7=IFCSIUNIT(*,.LENGTHUNIT.,$,.METRE.);
#8=IFCSIUNIT(*,.TIMEUNIT.,$,.SECOND.);
#9=IFCUNITASSIGNMENT((#7,#8));
#10=IFCCARTESIANPOINT((0.,0.,0.));
#11=IFCAXIS2PLACEMENT3D(#10,$,$);
#12=IFCGEOMETRICREPRESENTATIONCONTEXT($,'Plan',3,1.0E-05,#11,$);
#13=IFCPROJECT('$jk56PUnAhlravgHs11JgD',#6,'60-Home Residential District, Almere','New residential district with 40 terraced houses and 20 semi-detached homes',$,$,$,(#12),#9);
#14=IFCTIMEPERIOD('07:00:00','16:00:00');
#15=IFCRECURRENCEPATTERN(.WEEKLY.,$,(1,2,3,4,5),$,$,$,$,(#14));
#16=IFCWORKTIME('Standard work week',.PREDICTED.,$,#15,$,$);
#17=IFCWORKTIME('New Year''s Day',.PREDICTED.,$,$,'2027-01-01','2027-01-01');
#18=IFCWORKTIME('Good Friday',.PREDICTED.,$,$,'2027-03-26','2027-03-26');
#19=IFCWORKTIME('Easter',.PREDICTED.,$,$,'2027-03-28','2027-03-29');
#20=IFCWORKTIME('King''s Day',.PREDICTED.,$,$,'2027-04-27','2027-04-27');
#21=IFCWORKTIME('Liberation Day',.PREDICTED.,$,$,'2027-05-05','2027-05-05');
#22=IFCWORKTIME('Ascension Day',.PREDICTED.,$,$,'2027-05-06','2027-05-06');
#23=IFCWORKTIME('Whitsun',.PREDICTED.,$,$,'2027-05-16','2027-05-17');
#24=IFCWORKTIME('Christmas',.PREDICTED.,$,$,'2027-12-25','2027-12-26');
#25=IFCWORKTIME('Construction holiday (northern region)',.PREDICTED.,$,$,'2027-07-26','2027-08-15');
#26=IFCWORKTIME('New Year''s Day',.PREDICTED.,$,$,'2028-01-01','2028-01-01');
#27=IFCWORKTIME('Good Friday',.PREDICTED.,$,$,'2028-04-14','2028-04-14');
#28=IFCWORKTIME('Easter',.PREDICTED.,$,$,'2028-04-16','2028-04-17');
#29=IFCWORKTIME('King''s Day',.PREDICTED.,$,$,'2028-04-27','2028-04-27');
#30=IFCWORKTIME('Liberation Day',.PREDICTED.,$,$,'2028-05-05','2028-05-05');
#31=IFCWORKTIME('Ascension Day',.PREDICTED.,$,$,'2028-05-25','2028-05-25');
#32=IFCWORKTIME('Whitsun',.PREDICTED.,$,$,'2028-06-04','2028-06-05');
#33=IFCWORKTIME('Christmas',.PREDICTED.,$,$,'2028-12-25','2028-12-26');
#34=IFCWORKTIME('Construction holiday (northern region)',.PREDICTED.,$,$,'2028-07-24','2028-08-13');
#35=IFCWORKCALENDAR('_HlbW$VPl1Yxnv_nBDbFBd',#6,'Construction calendar NL','Standard construction calendar: Mon-Fri 07:00-16:00',$,(#16),(#17,#18,#19,#20,#21,#22,#23,#24,#25,#26,#27,#28,#29,#30,#31,#32,#33,#34),.FIRSTSHIFT.);
#36=IFCPROPERTYSINGLEVALUE('HoursPerDay',$,IFCREAL(8),$);
#37=IFCPROPERTYSET('qL5XmPUFgdlJ6X9$WtAtOZ',#6,'OPS_Calendar',$,(#36));
#38=IFCRELDEFINESBYPROPERTIES('bXh12hy$qvOdOP_VbbYntl',#6,$,$,(#35),#37);
#39=IFCWORKPLAN('PR0tEZnd91HrOVplF5Zfgp',#6,'60-Home Residential District, Almere','New residential district with 40 terraced houses and 20 semi-detached homes',$,$,'2026-09-11T17:47:47',$,$,$,$,$,'2027-03-01T07:00:00','2027-03-19T07:00:00',.PLANNED.);
#40=IFCWORKSCHEDULE('yjg3_hSlX5V3ttylB9cvnX',#6,'Construction schedule v1.0',$,$,$,'2026-09-11T17:47:47',$,$,$,$,$,'2027-03-01T07:00:00','2027-03-19T07:00:00',.PLANNED.);
#41=IFCRELAGGREGATES('X$Ph9TPtbVDd8te$ftI1sz',#6,$,$,#39,(#40));
#42=IFCTASKTIME('1. Site preparation Time',.PREDICTED.,$,.WORKTIME.,'P0Y0M5D','2027-03-01T07:00:00','2027-03-05T07:00:00','2027-03-01T07:00:00','2027-04-26T07:00:00','2027-03-01T07:00:00','2028-06-27T07:00:00','P0Y0M0D','P0Y0M0D',.T.,$,$,$,$,$,0.00);
#43=IFCTASK('FBtDxhbF2TqTbrs13FbFB7',#6,'1. Site preparation',$,$,'1',$,$,$,.F.,$,#42,.CONSTRUCTION.);
#44=IFCTASKTIME('Clear and level site Time',.PREDICTED.,$,.WORKTIME.,'P0Y0M8D','2027-03-01T07:00:00','2027-03-10T07:00:00','2027-03-01T07:00:00','2027-03-10T07:00:00','2027-03-01T07:00:00','2027-03-10T07:00:00','P0Y0M0D','P0Y0M0D',.T.,$,$,$,$,$,0.00);
#45=IFCTASK('_Hn5wdA1OvD935ylDLHBKX',#6,'Clear and level site',$,$,'1.1',$,$,$,.F.,$,#44,.DEMOLITION.);
#46=IFCTASKTIME('Install main sewer Time',.PREDICTED.,$,.WORKTIME.,'P0Y0M12D','2027-03-01T07:00:00','2027-03-16T07:00:00','2027-03-11T07:00:00','2027-03-30T07:00:00','2028-05-12T07:00:00','2028-05-30T07:00:00','P0Y0M0D','P0Y0M281D',.F.,$,$,$,$,$,0.00);
#47=IFCTASK('gTztMxtf0BFL6XFVLv4hgp',#6,'Install main sewer',$,$,'1.2',$,$,$,.F.,$,#46,.INSTALLATION.);
#48=IFCTASKTIME('Utility main Time',.PREDICTED.,$,.WORKTIME.,'P0Y0M10D','2027-03-01T07:00:00','2027-03-12T07:00:00','2027-03-31T07:00:00','2027-04-13T07:00:00','2028-05-31T07:00:00','2028-06-14T07:00:00','P0Y0M0D','P0Y0M281D',.F.,$,$,$,$,$,0.00);
#49=IFCTASK('Fd6DvLCFqPiR3xin6pDdDp',#6,'Utility main',$,$,'1.3',$,$,$,.F.,$,#48,.INSTALLATION.);
#50=IFCTASKTIME('Construct site roads Time',.PREDICTED.,$,.WORKTIME.,'P0Y0M8D','2027-03-01T07:00:00','2027-03-10T07:00:00','2027-04-14T07:00:00','2027-04-23T07:00:00','2028-06-15T07:00:00','2028-06-26T07:00:00','P0Y0M0D','P0Y0M281D',.F.,$,$,$,$,$,0.00);
#51=IFCTASK('Uz4TaFiVjtlBu90VVHnZLN',#6,'Construct site roads',$,$,'1.4',$,$,$,.F.,$,#50,.CONSTRUCTION.);
#52=IFCTASKTIME('Start of construction Time',.PREDICTED.,$,.WORKTIME.,'P0Y0M0D','2027-03-01T07:00:00','2027-03-01T07:00:00','2027-04-26T07:00:00','2027-04-26T07:00:00','2028-06-27T07:00:00','2028-06-27T07:00:00','P0Y0M281D','P0Y0M281D',.F.,$,$,$,$,$,0.00);
#53=IFCTASK('fTxn9$sPLvWHrDXXOpxHDn',#6,'Start of construction',$,$,'1.5',$,$,$,.T.,$,#52,.CONSTRUCTION.);
#54=IFCTASKTIME('2. Foundations phase 1 (blocks 1-3) Time',.PREDICTED.,$,.WORKTIME.,'P0Y0M5D','2027-03-01T07:00:00','2027-03-05T07:00:00','2027-03-30T07:00:00','2027-05-27T07:00:00','2027-03-30T07:00:00','2028-06-27T07:00:00','P0Y0M0D','P0Y0M0D',.T.,$,$,$,$,$,0.00);
#55=IFCTASK('kx7rXpMdbhBnjjnXjbP5xF',#6,'2. Foundations phase 1 (blocks 1-3)',$,$,'2',$,$,$,.F.,$,#54,.CONSTRUCTION.);
#56=IFCTASKTIME('Piling block 1 (10 terraced houses) Time',.PREDICTED.,$,.WORKTIME.,'P0Y0M8D','2027-03-01T07:00:00','2027-03-10T07:00:00','2027-03-30T07:00:00','2027-04-08T07:00:00','2027-03-30T07:00:00','2027-04-08T07:00:00','P0Y0M0D','P0Y0M0D',.T.,$,$,$,$,$,0.00);
#57=IFCTASK('cxS3gRJn4HrFdlbFu3FLMj',#6,'Piling block 1 (10 terraced houses)',$,$,'2.1',$,$,$,.F.,$,#56,.CONSTRUCTION.);
#58=IFCTASKTIME('Piling block 2 (10 terraced houses) Time',.PREDICTED.,$,.WORKTIME.,'P0Y0M8D','2027-03-01T07:00:00','2027-03-10T07:00:00','2027-04-09T07:00:00','2027-04-20T07:00:00','2028-05-12T07:00:00','2028-05-23T07:00:00','P0Y0M0D','P0Y0M262D',.F.,$,$,$,$,$,0.00);
#59=IFCTASK('6HR$Y9BlZDO9ThYnPBi5VZ',#6,'Piling block 2 (10 terraced houses)',$,$,'2.2',$,$,$,.F.,$,#58,.CONSTRUCTION.);
#60=IFCTASKTIME('Piling block 3 (10 terraced houses) Time',.PREDICTED.,$,.WORKTIME.,'P0Y0M8D','2027-03-01T07:00:00','2027-03-10T07:00:00','2027-04-14T07:00:00','2027-04-23T07:00:00','2028-05-17T07:00:00','2028-05-29T07:00:00','P0Y0M0D','P0Y0M262D',.F.,$,$,$,$,$,0.00);
#61=IFCTASK('DvQNirndlD0F$Bs197yh_z',#6,'Piling block 3 (10 terraced houses)',$,$,'2.3',$,$,$,.F.,$,#60,.CONSTRUCTION.);
#62=IFCTASKTIME('Foundation beams, blocks 1-3 Time',.PREDICTED.,$,.WORKTIME.,'P0Y0M10D','2027-03-01T07:00:00','2027-03-12T07:00:00','2027-04-26T07:00:00','2027-05-12T07:00:00','2028-05-30T07:00:00','2028-06-13T07:00:00','P0Y0M0D','P0Y0M262D',.F.,$,$,$,$,$,0.00);
#63=IFCTASK('I9S32BGfy5Fp0zTl4vaBeZ',#6,'Foundation beams, blocks 1-3',$,$,'2.4',$,$,$,.F.,$,#62,.CONSTRUCTION.);
#64=IFCTASKTIME('Ground floor slab, blocks 1-3 Time',.PREDICTED.,$,.WORKTIME.,'P0Y0M10D','2027-03-01T07:00:00','2027-03-12T07:00:00','2027-05-13T07:00:00','2027-05-27T07:00:00','2028-06-14T07:00:00','2028-06-27T07:00:00','P0Y0M262D','P0Y0M262D',.F.,$,$,$,$,$,0.00);
#65=IFCTASK('$jAZiNfNmjore7knGF5lNz',#6,'Ground floor slab, blocks 1-3',$,$,'2.5',$,$,$,.F.,$,#64,.CONSTRUCTION.);
#66=IFCTASKTIME('3. Foundations phase 2 (blocks 4-5) Time',.PREDICTED.,$,.WORKTIME.,'P0Y0M5D','2027-03-01T07:00:00','2027-03-05T07:00:00','2027-04-02T07:00:00','2027-05-13T07:00:00','2027-04-02T07:00:00','2027-05-13T07:00:00','P0Y0M0D','P0Y0M0D',.T.,$,$,$,$,$,0.00);
#67=IFCTASK('b1Fp5L5n0rlrO11XMn7Dax',#6,'3. Foundations phase 2 (blocks 4-5)',$,$,'3',$,$,$,.F.,$,#66,.CONSTRUCTION.);
#68=IFCTASKTIME('Piling block 4 (10 terraced houses) Time',.PREDICTED.,$,.WORKTIME.,'P0Y0M8D','2027-03-01T07:00:00','2027-03-10T07:00:00','2027-04-02T07:00:00','2027-04-13T07:00:00','2027-04-02T07:00:00','2027-04-13T07:00:00','P0Y0M0D','P0Y0M0D',.T.,$,$,$,$,$,0.00);
#69=IFCTASK('Cfg3MXB$OnqTH9O$GlFZbV',#6,'Piling block 4 (10 terraced houses)',$,$,'3.1',$,$,$,.F.,$,#68,.CONSTRUCTION.);
#70=IFCTASKTIME('Piling block 5 (10 semi-detached) Time',.PREDICTED.,$,.WORKTIME.,'P0Y0M8D','2027-03-01T07:00:00','2027-03-10T07:00:00','2027-04-07T07:00:00','2027-04-16T07:00:00','2027-04-07T07:00:00','2027-04-16T07:00:00','P0Y0M0D','P0Y0M0D',.T.,$,$,$,$,$,0.00);
#71=IFCTASK('1HF5_vl7q3E7kFrHhvKJsT',#6,'Piling block 5 (10 semi-detached)',$,$,'3.2',$,$,$,.F.,$,#70,.CONSTRUCTION.);
#72=IFCTASKTIME('Foundation beams, blocks 4-5 Time',.PREDICTED.,$,.WORKTIME.,'P0Y0M8D','2027-03-01T07:00:00','2027-03-10T07:00:00','2027-04-19T07:00:00','2027-04-29T07:00:00','2027-04-19T07:00:00','2027-04-29T07:00:00','P0Y0M0D','P0Y0M0D',.T.,$,$,$,$,$,0.00);
#73=IFCTASK('KvqxkD7tPvOP8981ARstqF',#6,'Foundation beams, blocks 4-5',$,$,'3.3',$,$,$,.F.,$,#72,.CONSTRUCTION.);
#74=IFCTASKTIME('Ground floor slab, blocks 4-5 Time',.PREDICTED.,$,.WORKTIME.,'P0Y0M8D','2027-03-01T07:00:00','2027-03-10T07:00:00','2027-04-30T07:00:00','2027-05-13T07:00:00','2027-04-30T07:00:00','2027-05-13T07:00:00','P0Y0M0D','P0Y0M0D',.T.,$,$,$,$,$,0.00);
#75=IFCTASK('99gP$Ps1OdvLQzTlCz8nVZ',#6,'Ground floor slab, blocks 4-5',$,$,'3.4',$,$,$,.F.,$,#74,.CONSTRUCTION.);
#76=IFCTASKTIME('4. Structural works phase 1 Time',.PREDICTED.,$,.WORKTIME.,'P0Y0M5D','2027-03-01T07:00:00','2027-03-05T07:00:00','2027-05-04T07:00:00','2027-08-23T07:00:00','2027-05-04T07:00:00','2028-06-27T07:00:00','P0Y0M0D','P0Y0M0D',.T.,$,$,$,$,$,0.00);
#77=IFCTASK('mvQN8BuPLDkPutGX83fTzh',#6,'4. Structural works phase 1',$,$,'4',$,$,$,.F.,$,#76,.CONSTRUCTION.);
#78=IFCTASKTIME('Masonry ground floor, blocks 1-3 Time',.PREDICTED.,$,.WORKTIME.,'P0Y0M15D','2027-03-01T07:00:00','2027-03-19T07:00:00','2027-05-04T07:00:00','2027-05-27T07:00:00','2027-05-04T07:00:00','2027-05-27T07:00:00','P0Y0M0D','P0Y0M0D',.T.,$,$,$,$,$,0.00);
#79=IFCTASK('D7En7v9NC3MFnJjlfj9ryL',#6,'Masonry ground floor, blocks 1-3',$,$,'4.1',$,$,$,.F.,$,#78,.CONSTRUCTION.);
#80=IFCTASKTIME('Upper floor slab, blocks 1-3 Time',.PREDICTED.,$,.WORKTIME.,'P0Y0M10D','2027-03-01T07:00:00','2027-03-12T07:00:00','2027-05-28T07:00:00','2027-06-10T07:00:00','2027-05-28T07:00:00','2027-06-10T07:00:00','P0Y0M0D','P0Y0M0D',.T.,$,$,$,$,$,0.00);
#81=IFCTASK('RbWNyzKVznyDWj7$hPG98D',#6,'Upper floor slab, blocks 1-3',$,$,'4.2',$,$,$,.F.,$,#80,.CONSTRUCTION.);
#82=IFCTASKTIME('Masonry upper floor, blocks 1-3 Time',.PREDICTED.,$,.WORKTIME.,'P0Y0M15D','2027-03-01T07:00:00','2027-03-19T07:00:00','2027-06-11T07:00:00','2027-07-01T07:00:00','2027-06-11T07:00:00','2027-07-01T07:00:00','P0Y0M0D','P0Y0M0D',.T.,$,$,$,$,$,0.00);
#83=IFCTASK('V11TG7ot9$15bh_FNfUh6$',#6,'Masonry upper floor, blocks 1-3',$,$,'4.3',$,$,$,.F.,$,#82,.CONSTRUCTION.);
#84=IFCTASKTIME('Roof structure, blocks 1-3 Time',.PREDICTED.,$,.WORKTIME.,'P0Y0M12D','2027-03-01T07:00:00','2027-03-16T07:00:00','2027-07-02T07:00:00','2027-07-19T07:00:00','2027-07-02T07:00:00','2027-07-19T07:00:00','P0Y0M0D','P0Y0M0D',.T.,$,$,$,$,$,0.00);
#85=IFCTASK('gZRlxrd9vZqxRhgHgF15Zx',#6,'Roof structure, blocks 1-3',$,$,'4.4',$,$,$,.F.,$,#84,.CONSTRUCTION.);
#86=IFCTASKTIME('Roof tiles, blocks 1-3 Time',.PREDICTED.,$,.WORKTIME.,'P0Y0M10D','2027-03-01T07:00:00','2027-03-12T07:00:00','2027-07-20T07:00:00','2027-08-23T07:00:00','2027-07-20T07:00:00','2027-08-23T07:00:00','P0Y0M0D','P0Y0M0D',.T.,$,$,$,$,$,0.00);
#87=IFCTASK('1HvZ8r8PhpsHlfSn1TqRnV',#6,'Roof tiles, blocks 1-3',$,$,'4.5',$,$,$,.F.,$,#86,.CONSTRUCTION.);
#88=IFCTASKTIME('Topping out, phase 1 Time',.PREDICTED.,$,.WORKTIME.,'P0Y0M0D','2027-03-01T07:00:00','2027-03-01T07:00:00','2027-08-23T07:00:00','2027-08-23T07:00:00','2028-06-27T07:00:00','2028-06-27T07:00:00','P0Y0M215D','P0Y0M215D',.F.,$,$,$,$,$,0.00);
#89=IFCTASK('kbz9_B87cXw1qnf1Z3unHL',#6,'Topping out, phase 1',$,$,'4.6',$,$,$,.T.,$,#88,.CONSTRUCTION.);
#90=IFCTASKTIME('5. Structural works phase 2 Time',.PREDICTED.,$,.WORKTIME.,'P0Y0M5D','2027-03-01T07:00:00','2027-03-05T07:00:00','2027-08-24T07:00:00','2027-11-04T07:00:00','2027-08-24T07:00:00','2028-06-27T07:00:00','P0Y0M0D','P0Y0M0D',.T.,$,$,$,$,$,0.00);
#91=IFCTASK('T34TqbB1enqx7DBlLdm9OT',#6,'5. Structural works phase 2',$,$,'5',$,$,$,.F.,$,#90,.CONSTRUCTION.);
#92=IFCTASKTIME('Masonry ground floor, blocks 4-5 Time',.PREDICTED.,$,.WORKTIME.,'P0Y0M15D','2027-03-01T07:00:00','2027-03-19T07:00:00','2027-08-24T07:00:00','2027-09-13T07:00:00','2027-08-24T07:00:00','2027-09-13T07:00:00','P0Y0M0D','P0Y0M0D',.T.,$,$,$,$,$,0.00);
#93=IFCTASK('tJp7nrv9Nn7LEBYVTTKjsv',#6,'Masonry ground floor, blocks 4-5',$,$,'5.1',$,$,$,.F.,$,#92,.CONSTRUCTION.);
#94=IFCTASKTIME('Upper floor slab, blocks 4-5 Time',.PREDICTED.,$,.WORKTIME.,'P0Y0M8D','2027-03-01T07:00:00','2027-03-10T07:00:00','2027-09-14T07:00:00','2027-09-23T07:00:00','2028-04-28T07:00:00','2028-05-10T07:00:00','P0Y0M0D','P0Y0M160D',.F.,$,$,$,$,$,0.00);
#95=IFCTASK('h3Nb8DfNUdSB0TP18BS3hD',#6,'Upper floor slab, blocks 4-5',$,$,'5.2',$,$,$,.F.,$,#94,.CONSTRUCTION.);
#96=IFCTASKTIME('Masonry upper floor, blocks 4-5 Time',.PREDICTED.,$,.WORKTIME.,'P0Y0M12D','2027-03-01T07:00:00','2027-03-16T07:00:00','2027-09-24T07:00:00','2027-10-11T07:00:00','2028-05-11T07:00:00','2028-05-29T07:00:00','P0Y0M0D','P0Y0M160D',.F.,$,$,$,$,$,0.00);
#97=IFCTASK('hdGvJZVvW5vLkHt$4vCbxr',#6,'Masonry upper floor, blocks 4-5',$,$,'5.3',$,$,$,.F.,$,#96,.CONSTRUCTION.);
#98=IFCTASKTIME('Roof structure, blocks 4-5 Time',.PREDICTED.,$,.WORKTIME.,'P0Y0M10D','2027-03-01T07:00:00','2027-03-12T07:00:00','2027-10-12T07:00:00','2027-10-25T07:00:00','2028-05-30T07:00:00','2028-06-13T07:00:00','P0Y0M0D','P0Y0M160D',.F.,$,$,$,$,$,0.00);
#99=IFCTASK('ChrF1ZGf6T6jQZN$9ZR1w1',#6,'Roof structure, blocks 4-5',$,$,'5.4',$,$,$,.F.,$,#98,.CONSTRUCTION.);
#100=IFCTASKTIME('Roof tiles, blocks 4-5 Time',.PREDICTED.,$,.WORKTIME.,'P0Y0M8D','2027-03-01T07:00:00','2027-03-10T07:00:00','2027-10-26T07:00:00','2027-11-04T07:00:00','2028-06-14T07:00:00','2028-06-23T07:00:00','P0Y0M0D','P0Y0M160D',.F.,$,$,$,$,$,0.00);
#101=IFCTASK('OzPLrzKVnzkduFpn5h81ot',#6,'Roof tiles, blocks 4-5',$,$,'5.5',$,$,$,.F.,$,#100,.CONSTRUCTION.);
#102=IFCTASKTIME('Topping out, phase 2 Time',.PREDICTED.,$,.WORKTIME.,'P0Y0M0D','2027-03-01T07:00:00','2027-03-01T07:00:00','2027-11-04T07:00:00','2027-11-04T07:00:00','2028-06-27T07:00:00','2028-06-27T07:00:00','P0Y0M162D','P0Y0M162D',.F.,$,$,$,$,$,0.00);
#103=IFCTASK('OReH7L4$ylBFr7UFpBhl1f',#6,'Topping out, phase 2',$,$,'5.6',$,$,$,.T.,$,#102,.CONSTRUCTION.);
#104=IFCTASKTIME('6. Facades & roofs Time',.PREDICTED.,$,.WORKTIME.,'P0Y0M5D','2027-03-01T07:00:00','2027-03-05T07:00:00','2027-09-30T07:00:00','2027-11-22T07:00:00','2027-09-30T07:00:00','2028-06-27T07:00:00','P0Y0M0D','P0Y0M0D',.T.,$,$,$,$,$,0.00);
#105=IFCTASK('yjoRKf17Yv8vsvInafoR$N',#6,'6. Facades & roofs',$,$,'6',$,$,$,.F.,$,#104,.INSTALLATION.);
#106=IFCTASKTIME('Window frames, blocks 1-3 Time',.PREDICTED.,$,.WORKTIME.,'P0Y0M10D','2027-03-01T07:00:00','2027-03-12T07:00:00','2027-09-30T07:00:00','2027-10-13T07:00:00','2027-09-30T07:00:00','2027-10-13T07:00:00','P0Y0M0D','P0Y0M0D',.T.,$,$,$,$,$,0.00);
#107=IFCTASK('JtaLdb2nW5$TZf0X5FlriV',#6,'Window frames, blocks 1-3',$,$,'6.1',$,$,$,.F.,$,#106,.INSTALLATION.);
#108=IFCTASKTIME('Window frames, blocks 4-5 Time',.PREDICTED.,$,.WORKTIME.,'P0Y0M8D','2027-03-01T07:00:00','2027-03-10T07:00:00','2027-10-14T07:00:00','2027-10-25T07:00:00','2028-05-17T07:00:00','2028-05-29T07:00:00','P0Y0M0D','P0Y0M150D',.F.,$,$,$,$,$,0.00);
#109=IFCTASK('ibblPbUFs9HBad2Xv11Jgf',#6,'Window frames, blocks 4-5',$,$,'6.2',$,$,$,.F.,$,#108,.INSTALLATION.);
#110=IFCTASKTIME('Facade sealing and insulation Time',.PREDICTED.,$,.WORKTIME.,'P0Y0M12D','2027-03-01T07:00:00','2027-03-16T07:00:00','2027-10-26T07:00:00','2027-11-10T07:00:00','2028-05-30T07:00:00','2028-06-15T07:00:00','P0Y0M0D','P0Y0M150D',.F.,$,$,$,$,$,0.00);
#111=IFCTASK('wFP3AnZ$UdSBSPEXejdxzB',#6,'Facade sealing and insulation',$,$,'6.3',$,$,$,.F.,$,#110,.INSTALLATION.);
#112=IFCTASKTIME('Gutters and rainwater downpipes Time',.PREDICTED.,$,.WORKTIME.,'P0Y0M8D','2027-03-01T07:00:00','2027-03-10T07:00:00','2027-11-11T07:00:00','2027-11-22T07:00:00','2028-06-16T07:00:00','2028-06-27T07:00:00','P0Y0M0D','P0Y0M150D',.F.,$,$,$,$,$,0.00);
#113=IFCTASK('a17BHRRVrTC5plRFyrjvln',#6,'Gutters and rainwater downpipes',$,$,'6.4',$,$,$,.F.,$,#112,.INSTALLATION.);
#114=IFCTASKTIME('Wind and weathertight, all blocks Time',.PREDICTED.,$,.WORKTIME.,'P0Y0M0D','2027-03-01T07:00:00','2027-03-01T07:00:00','2027-11-22T07:00:00','2027-11-22T07:00:00','2028-06-27T07:00:00','2028-06-27T07:00:00','P0Y0M150D','P0Y0M150D',.F.,$,$,$,$,$,0.00);
#115=IFCTASK('CLR$IlO78tfZ7Dzne5s3fT',#6,'Wind and weathertight, all blocks',$,$,'6.5',$,$,$,.T.,$,#114,.INSTALLATION.);
#116=IFCTASKTIME('7. Building services Time',.PREDICTED.,$,.WORKTIME.,'P0Y0M5D','2027-03-01T07:00:00','2027-03-05T07:00:00','2027-10-06T07:00:00','2027-12-22T07:00:00','2027-10-06T07:00:00','2027-12-22T07:00:00','P0Y0M0D','P0Y0M0D',.T.,$,$,$,$,$,0.00);
#117=IFCTASK('uJDvjzT16nKRVxO$ej7RLp',#6,'7. Building services',$,$,'7',$,$,$,.F.,$,#116,.INSTALLATION.);
#118=IFCTASKTIME('Electrical, blocks 1-3 Time',.PREDICTED.,$,.WORKTIME.,'P0Y0M12D','2027-03-01T07:00:00','2027-03-16T07:00:00','2027-10-06T07:00:00','2027-10-21T07:00:00','2027-10-06T07:00:00','2027-10-21T07:00:00','P0Y0M0D','P0Y0M0D',.T.,$,$,$,$,$,0.00);
#119=IFCTASK('k5t5oTffmpYfDHLnJNERJX',#6,'Electrical, blocks 1-3',$,$,'7.1',$,$,$,.F.,$,#118,.INSTALLATION.);
#120=IFCTASKTIME('Electrical, blocks 4-5 Time',.PREDICTED.,$,.WORKTIME.,'P0Y0M8D','2027-03-01T07:00:00','2027-03-10T07:00:00','2027-10-13T07:00:00','2027-10-22T07:00:00','2027-10-13T07:00:00','2027-10-22T07:00:00','P0Y0M0D','P0Y0M0D',.T.,$,$,$,$,$,0.00);
#121=IFCTASK('Y$95YbQV5HDtjJ71RVB1kr',#6,'Electrical, blocks 4-5',$,$,'7.2',$,$,$,.F.,$,#120,.INSTALLATION.);
#122=IFCTASKTIME('Plumbing, blocks 1-3 Time',.PREDICTED.,$,.WORKTIME.,'P0Y0M10D','2027-03-01T07:00:00','2027-03-12T07:00:00','2027-10-25T07:00:00','2027-11-05T07:00:00','2027-10-25T07:00:00','2027-11-05T07:00:00','P0Y0M0D','P0Y0M0D',.T.,$,$,$,$,$,0.00);
#123=IFCTASK('orfjFhDXHpetp3hnjtoVez',#6,'Plumbing, blocks 1-3',$,$,'7.3',$,$,$,.F.,$,#122,.INSTALLATION.);
#124=IFCTASKTIME('Plumbing, blocks 4-5 Time',.PREDICTED.,$,.WORKTIME.,'P0Y0M8D','2027-03-01T07:00:00','2027-03-10T07:00:00','2027-11-08T07:00:00','2027-11-17T07:00:00','2027-11-08T07:00:00','2027-11-17T07:00:00','P0Y0M0D','P0Y0M0D',.T.,$,$,$,$,$,0.00);
#125=IFCTASK('4nd3oX2nenqxBJLnDveVS5',#6,'Plumbing, blocks 4-5',$,$,'7.4',$,$,$,.F.,$,#124,.INSTALLATION.);
#126=IFCTASKTIME('Heat pumps, all dwellings Time',.PREDICTED.,$,.WORKTIME.,'P0Y0M15D','2027-03-01T07:00:00','2027-03-19T07:00:00','2027-11-18T07:00:00','2027-12-08T07:00:00','2027-11-18T07:00:00','2027-12-08T07:00:00','P0Y0M0D','P0Y0M0D',.T.,$,$,$,$,$,0.00);
#127=IFCTASK('At_Xmf09Nnf5vjP1ZVPJsZ',#6,'Heat pumps, all dwellings',$,$,'7.5',$,$,$,.F.,$,#126,.INSTALLATION.);
#128=IFCTASKTIME('Heat recovery ventilation units Time',.PREDICTED.,$,.WORKTIME.,'P0Y0M10D','2027-03-01T07:00:00','2027-03-12T07:00:00','2027-12-09T07:00:00','2027-12-22T07:00:00','2027-12-09T07:00:00','2027-12-22T07:00:00','P0Y0M0D','P0Y0M0D',.T.,$,$,$,$,$,0.00);
#129=IFCTASK('6nFx2BmN4lBFLNal3HXpaf',#6,'Heat recovery ventilation units',$,$,'7.6',$,$,$,.F.,$,#128,.INSTALLATION.);
#130=IFCTASKTIME('8. Fit-out phase 1 Time',.PREDICTED.,$,.WORKTIME.,'P0Y0M5D','2027-03-01T07:00:00','2027-03-05T07:00:00','2027-12-06T07:00:00','2028-02-14T07:00:00','2027-12-06T07:00:00','2028-02-14T07:00:00','P0Y0M0D','P0Y0M0D',.T.,$,$,$,$,$,0.00);
#131=IFCTASK('CBVh7La$M5Vz5Fhl7VZNcH',#6,'8. Fit-out phase 1',$,$,'8',$,$,$,.F.,$,#130,.CONSTRUCTION.);
#132=IFCTASKTIME('Plastering, blocks 1-3 Time',.PREDICTED.,$,.WORKTIME.,'P0Y0M15D','2027-03-01T07:00:00','2027-03-19T07:00:00','2027-12-06T07:00:00','2027-12-24T07:00:00','2027-12-06T07:00:00','2027-12-24T07:00:00','P0Y0M0D','P0Y0M0D',.T.,$,$,$,$,$,0.00);
#133=IFCTASK('MvShj$ItlV6$8HnXb11jAP',#6,'Plastering, blocks 1-3',$,$,'8.1',$,$,$,.F.,$,#132,.CONSTRUCTION.);
#134=IFCTASKTIME('Tiling, blocks 1-3 Time',.PREDICTED.,$,.WORKTIME.,'P0Y0M10D','2027-03-01T07:00:00','2027-03-12T07:00:00','2027-12-27T07:00:00','2028-01-07T07:00:00','2027-12-27T07:00:00','2028-01-07T07:00:00','P0Y0M0D','P0Y0M0D',.T.,$,$,$,$,$,0.00);
#135=IFCTASK('At6tozpVt$FLMLYn5lZtyr',#6,'Tiling, blocks 1-3',$,$,'8.2',$,$,$,.F.,$,#134,.CONSTRUCTION.);
#136=IFCTASKTIME('Kitchens, blocks 1-3 Time',.PREDICTED.,$,.WORKTIME.,'P0Y0M8D','2027-03-01T07:00:00','2027-03-10T07:00:00','2028-01-10T07:00:00','2028-01-19T07:00:00','2028-01-10T07:00:00','2028-01-19T07:00:00','P0Y0M0D','P0Y0M0D',.T.,$,$,$,$,$,0.00);
#137=IFCTASK('2DMd7LinkXpPedIVU7GNIv',#6,'Kitchens, blocks 1-3',$,$,'8.3',$,$,$,.F.,$,#136,.INSTALLATION.);
#138=IFCTASKTIME('Painting, blocks 1-3 Time',.PREDICTED.,$,.WORKTIME.,'P0Y0M10D','2027-03-01T07:00:00','2027-03-12T07:00:00','2028-01-20T07:00:00','2028-02-02T07:00:00','2028-01-20T07:00:00','2028-02-02T07:00:00','P0Y0M0D','P0Y0M0D',.T.,$,$,$,$,$,0.00);
#139=IFCTASK('sfwDrZO7iJi33x4nXHH31t',#6,'Painting, blocks 1-3',$,$,'8.4',$,$,$,.F.,$,#138,.CONSTRUCTION.);
#140=IFCTASKTIME('Floor finishes, blocks 1-3 Time',.PREDICTED.,$,.WORKTIME.,'P0Y0M8D','2027-03-01T07:00:00','2027-03-10T07:00:00','2028-02-03T07:00:00','2028-02-14T07:00:00','2028-02-03T07:00:00','2028-02-14T07:00:00','P0Y0M0D','P0Y0M0D',.T.,$,$,$,$,$,0.00);
#141=IFCTASK('O5yZKNPtBf2tVbaFNNgT79',#6,'Floor finishes, blocks 1-3',$,$,'8.5',$,$,$,.F.,$,#140,.CONSTRUCTION.);
#142=IFCTASKTIME('9. Fit-out phase 2 Time',.PREDICTED.,$,.WORKTIME.,'P0Y0M5D','2027-03-01T07:00:00','2027-03-05T07:00:00','2028-02-15T07:00:00','2028-04-06T07:00:00','2028-02-15T07:00:00','2028-06-27T07:00:00','P0Y0M0D','P0Y0M0D',.T.,$,$,$,$,$,0.00);
#143=IFCTASK('prHRqRJnaVb1mBIVEJoX0N',#6,'9. Fit-out phase 2',$,$,'9',$,$,$,.F.,$,#142,.CONSTRUCTION.);
#144=IFCTASKTIME('Plastering, blocks 4-5 Time',.PREDICTED.,$,.WORKTIME.,'P0Y0M12D','2027-03-01T07:00:00','2027-03-16T07:00:00','2028-02-15T07:00:00','2028-03-01T07:00:00','2028-02-15T07:00:00','2028-03-01T07:00:00','P0Y0M0D','P0Y0M0D',.T.,$,$,$,$,$,0.00);
#145=IFCTASK('TzKJJTX7KNAHNRe1L39zn$',#6,'Plastering, blocks 4-5',$,$,'9.1',$,$,$,.F.,$,#144,.CONSTRUCTION.);
#146=IFCTASKTIME('Tiling, blocks 4-5 Time',.PREDICTED.,$,.WORKTIME.,'P0Y0M8D','2027-03-01T07:00:00','2027-03-10T07:00:00','2028-03-02T07:00:00','2028-03-13T07:00:00','2028-05-19T07:00:00','2028-05-31T07:00:00','P0Y0M0D','P0Y0M52D',.F.,$,$,$,$,$,0.00);
#147=IFCTASK('$JYLFFZ$obZPi5O$9duFr7',#6,'Tiling, blocks 4-5',$,$,'9.2',$,$,$,.F.,$,#146,.CONSTRUCTION.);
#148=IFCTASKTIME('Kitchens, blocks 4-5 Time',.PREDICTED.,$,.WORKTIME.,'P0Y0M5D','2027-03-01T07:00:00','2027-03-05T07:00:00','2028-03-14T07:00:00','2028-03-20T07:00:00','2028-06-01T07:00:00','2028-06-08T07:00:00','P0Y0M0D','P0Y0M52D',.F.,$,$,$,$,$,0.00);
#149=IFCTASK('uBEFPNtfwnCxVl1Xyr3NMf',#6,'Kitchens, blocks 4-5',$,$,'9.3',$,$,$,.F.,$,#148,.INSTALLATION.);
#150=IFCTASKTIME('Painting, blocks 4-5 Time',.PREDICTED.,$,.WORKTIME.,'P0Y0M8D','2027-03-01T07:00:00','2027-03-10T07:00:00','2028-03-21T07:00:00','2028-03-30T07:00:00','2028-06-09T07:00:00','2028-06-20T07:00:00','P0Y0M0D','P0Y0M52D',.F.,$,$,$,$,$,0.00);
#151=IFCTASK('odMzsnjVxn7hMhclTTKJQn',#6,'Painting, blocks 4-5',$,$,'9.4',$,$,$,.F.,$,#150,.CONSTRUCTION.);
#152=IFCTASKTIME('Floor finishes, blocks 4-5 Time',.PREDICTED.,$,.WORKTIME.,'P0Y0M5D','2027-03-01T07:00:00','2027-03-05T07:00:00','2028-03-31T07:00:00','2028-04-06T07:00:00','2028-06-21T07:00:00','2028-06-27T07:00:00','P0Y0M52D','P0Y0M52D',.F.,$,$,$,$,$,0.00);
#153=IFCTASK('2nTfGNmNCTorKxGVaN2B4v',#6,'Floor finishes, blocks 4-5',$,$,'9.5',$,$,$,.F.,$,#152,.CONSTRUCTION.);
#154=IFCTASKTIME('10. Final site works Time',.PREDICTED.,$,.WORKTIME.,'P0Y0M5D','2027-03-01T07:00:00','2027-03-05T07:00:00','2028-03-13T07:00:00','2028-05-29T07:00:00','2028-03-13T07:00:00','2028-05-29T07:00:00','P0Y0M0D','P0Y0M0D',.T.,$,$,$,$,$,0.00);
#155=IFCTASK('RVTf41gPzHedaDXXS9I$g9',#6,'10. Final site works',$,$,'10',$,$,$,.F.,$,#154,.CONSTRUCTION.);
#156=IFCTASKTIME('Connect permanent sewer Time',.PREDICTED.,$,.WORKTIME.,'P0Y0M8D','2027-03-01T07:00:00','2027-03-10T07:00:00','2028-03-13T07:00:00','2028-03-22T07:00:00','2028-03-13T07:00:00','2028-03-22T07:00:00','P0Y0M0D','P0Y0M0D',.T.,$,$,$,$,$,0.00);
#157=IFCTASK('N7q5oTff4bp9jDLH3HVDKj',#6,'Connect permanent sewer',$,$,'10.1',$,$,$,.F.,$,#156,.INSTALLATION.);
#158=IFCTASKTIME('Paving and pavements Time',.PREDICTED.,$,.WORKTIME.,'P0Y0M15D','2027-03-01T07:00:00','2027-03-19T07:00:00','2028-03-23T07:00:00','2028-04-12T07:00:00','2028-03-23T07:00:00','2028-04-12T07:00:00','P0Y0M0D','P0Y0M0D',.T.,$,$,$,$,$,0.00);
#159=IFCTASK('P5KJ5lfNqzcV6XHVtPmNYj',#6,'Paving and pavements',$,$,'10.2',$,$,$,.F.,$,#158,.CONSTRUCTION.);
#160=IFCTASKTIME('Construct parking spaces Time',.PREDICTED.,$,.WORKTIME.,'P0Y0M8D','2027-03-01T07:00:00','2027-03-10T07:00:00','2028-04-13T07:00:00','2028-04-26T07:00:00','2028-04-13T07:00:00','2028-04-26T07:00:00','P0Y0M0D','P0Y0M0D',.T.,$,$,$,$,$,0.00);
#161=IFCTASK('J9Szo3Z1cjK33b0VtTpdLt',#6,'Construct parking spaces',$,$,'10.3',$,$,$,.F.,$,#160,.CONSTRUCTION.);
#162=IFCTASKTIME('Landscaping and trees Time',.PREDICTED.,$,.WORKTIME.,'P0Y0M10D','2027-03-01T07:00:00','2027-03-12T07:00:00','2028-04-28T07:00:00','2028-05-12T07:00:00','2028-04-28T07:00:00','2028-05-12T07:00:00','P0Y0M0D','P0Y0M0D',.T.,$,$,$,$,$,0.00);
#163=IFCTASK('ylztkle7CdqxhZDFpdixLf',#6,'Landscaping and trees',$,$,'10.4',$,$,$,.F.,$,#162,.CONSTRUCTION.);
#164=IFCTASKTIME('Play equipment Time',.PREDICTED.,$,.WORKTIME.,'P0Y0M5D','2027-03-01T07:00:00','2027-03-05T07:00:00','2028-05-15T07:00:00','2028-05-19T07:00:00','2028-05-15T07:00:00','2028-05-19T07:00:00','P0Y0M0D','P0Y0M0D',.T.,$,$,$,$,$,0.00);
#165=IFCTASK('Z1fbCbjnOdHJYN4nJbPxtF',#6,'Play equipment',$,$,'10.5',$,$,$,.F.,$,#164,.INSTALLATION.);
#166=IFCTASKTIME('Street lighting Time',.PREDICTED.,$,.WORKTIME.,'P0Y0M5D','2027-03-01T07:00:00','2027-03-05T07:00:00','2028-05-22T07:00:00','2028-05-29T07:00:00','2028-05-22T07:00:00','2028-05-29T07:00:00','P0Y0M0D','P0Y0M0D',.T.,$,$,$,$,$,0.00);
#167=IFCTASK('FvY$6ZOPzTsTL3XXI3mf6x',#6,'Street lighting',$,$,'10.6',$,$,$,.F.,$,#166,.INSTALLATION.);
#168=IFCTASKTIME('11. Handover Time',.PREDICTED.,$,.WORKTIME.,'P0Y0M5D','2027-03-01T07:00:00','2027-03-05T07:00:00','2028-05-30T07:00:00','2028-06-27T07:00:00','2028-05-30T07:00:00','2028-06-27T07:00:00','P0Y0M0D','P0Y0M0D',.T.,$,$,$,$,$,0.00);
#169=IFCTASK('ErfJP9JVXPljkHt$yBDPTR',#6,'11. Handover',$,$,'11',$,$,$,.F.,$,#168,.CONSTRUCTION.);
#170=IFCTASKTIME('Pre-handover inspection, phase 1 Time',.PREDICTED.,$,.WORKTIME.,'P0Y0M5D','2027-03-01T07:00:00','2027-03-05T07:00:00','2028-05-30T07:00:00','2028-06-06T07:00:00','2028-05-30T07:00:00','2028-06-06T07:00:00','P0Y0M0D','P0Y0M0D',.T.,$,$,$,$,$,0.00);
#171=IFCTASK('KRblxB9fIV5VU39$mlXpOh',#6,'Pre-handover inspection, phase 1',$,$,'11.1',$,$,$,.F.,$,#170,.ATTENDANCE.);
#172=IFCTASKTIME('Pre-handover inspection, phase 2 Time',.PREDICTED.,$,.WORKTIME.,'P0Y0M5D','2027-03-01T07:00:00','2027-03-05T07:00:00','2028-06-07T07:00:00','2028-06-13T07:00:00','2028-06-07T07:00:00','2028-06-13T07:00:00','P0Y0M0D','P0Y0M0D',.T.,$,$,$,$,$,0.00);
#173=IFCTASK('YT09o1_foHjNL3lVdn7p85',#6,'Pre-handover inspection, phase 2',$,$,'11.2',$,$,$,.F.,$,#172,.ATTENDANCE.);
#174=IFCTASKTIME('Handover of dwellings Time',.PREDICTED.,$,.WORKTIME.,'P0Y0M10D','2027-03-01T07:00:00','2027-03-12T07:00:00','2028-06-14T07:00:00','2028-06-27T07:00:00','2028-06-14T07:00:00','2028-06-27T07:00:00','P0Y0M0D','P0Y0M0D',.T.,$,$,$,$,$,0.00);
#175=IFCTASK('_Jg3InCFaVjvwJHVLZrnRX',#6,'Handover of dwellings',$,$,'11.3',$,$,$,.F.,$,#174,.ATTENDANCE.);
#176=IFCTASKTIME('Residential district complete Time',.PREDICTED.,$,.WORKTIME.,'P0Y0M0D','2027-03-01T07:00:00','2027-03-01T07:00:00','2028-06-27T07:00:00','2028-06-27T07:00:00','2028-06-27T07:00:00','2028-06-27T07:00:00','P0Y0M0D','P0Y0M0D',.T.,$,$,$,$,$,0.00);
#177=IFCTASK('V$lJR17t1rpPWDLHF5Dd3h',#6,'Residential district complete',$,$,'11.4',$,$,$,.T.,$,#176,.CONSTRUCTION.);
#178=IFCRELNESTS('8JZNCd5X5nPBOVhndHTtiV',#6,'WBS 1. Site preparation',$,#43,( #45,#47,#49,#51,#53));
#179=IFCRELNESTS('d1nDLD_NEHRXAvknK$1j2Z',#6,'WBS 2. Foundations phase 1 (blocks 1-3)',$,#55,( #57,#59,#61,#63,#65));
#180=IFCRELNESTS('YzS3EXg12zGVg9SFpda3hJ',#6,'WBS 3. Foundations phase 2 (blocks 4-5)',$,#67,( #69,#71,#73,#75));
#181=IFCRELNESTS('N31TGNuPF36$KRSnR5k59n',#6,'WBS 4. Structural works phase 1',$,#77,( #79,#81,#83,#85,#87,#89));
#182=IFCRELNESTS('MPm7Z5w7_Z4pWJd$dHxXW7',#6,'WBS 5. Structural works phase 2',$,#91,( #93,#95,#97,#99,#101,#103));
#183=IFCRELNESTS('rNsZOxUNWbbVYZjF93VRhp',#6,'WBS 6. Facades & roofs',$,#105,( #107,#109,#111,#113,#115));
#184=IFCRELNESTS('$H9pFF5FyHZdunrlT3WPpJ',#6,'WBS 7. Building services',$,#117,( #119,#121,#123,#125,#127,#129));
#185=IFCRELNESTS('5HZfmfudVbD9pzzloH$jYJ',#6,'WBS 8. Fit-out phase 1',$,#131,( #133,#135,#137,#139,#141));
#186=IFCRELNESTS('6HR1QJ2FelO9t9ynb$tBSx',#6,'WBS 9. Fit-out phase 2',$,#143,( #145,#147,#149,#151,#153));
#187=IFCRELNESTS('UZuXKrFPLD29zbWXFRNLAT',#6,'WBS 10. Final site works',$,#155,( #157,#159,#161,#163,#165,#167));
#188=IFCRELNESTS('vHztkJr$u9Xb$hwlDPK5R1',#6,'WBS 11. Handover',$,#169,( #171,#173,#175,#177));
#189=IFCRELNESTS('tjjP5r1vgdnD4TBHzDgTrv',#6,'WBS Hoofd',$,#40,(#43,#55,#67,#77,#91,#105,#117,#131,#143,#155,#169));
#190=IFCRELSEQUENCE('rpF52B8dF36$qn71Qz7Dip',#6,$,$,#45,#47,$,.FINISH_START.,$);
#191=IFCRELSEQUENCE('1jg3oT7t9$t3rdEV0dCRjV',#6,$,$,#47,#49,$,.FINISH_START.,$);
#192=IFCRELSEQUENCE('O5ijH5Xd5nPrunDn9vyZHL',#6,$,$,#49,#51,$,.FINISH_START.,$);
#193=IFCRELSEQUENCE('KP0tgRL$2ZC5RL2FJ9k$_1',#6,$,$,#51,#53,$,.FINISH_START.,$);
#194=IFCRELSEQUENCE('q9cNGd_nOdPB8Nylj5ZNMt',#6,$,$,#57,#59,$,.FINISH_START.,$);
#195=IFCLAGTIME('Lag',.PREDICTED.,$,IFCDURATION('P3D'),.WORKTIME.);
#196=IFCRELSEQUENCE('K7S3YbolB3GX_72FZXVb3P',#6,$,$,#59,#61,#195,.START_START.,$);
#197=IFCRELSEQUENCE('gP0tw7ItFnarWDrltTjvPL',#6,$,$,#61,#63,$,.FINISH_START.,$);
#198=IFCRELSEQUENCE('$DAvVDMPV5N5ZfmVGnr$s3',#6,$,$,#63,#65,$,.FINISH_START.,$);
#199=IFCLAGTIME('Lag',.PREDICTED.,$,IFCDURATION('P3D'),.WORKTIME.);
#200=IFCRELSEQUENCE('NPO1MXpnYdSBSjZHqFdjUF',#6,$,$,#69,#71,#199,.START_START.,$);
#201=IFCRELSEQUENCE('0nZNuBGNALXbnpXXOJfLkL',#6,$,$,#71,#73,$,.FINISH_START.,$);
#202=IFCRELSEQUENCE('V$7B9VcXnniRjj7$XnJ7T9',#6,$,$,#73,#75,$,.FINISH_START.,$);
#203=IFCRELSEQUENCE('9DFxgx1dznajcn7$QZTt8b',#6,$,$,#79,#81,$,.FINISH_START.,$);
#204=IFCRELSEQUENCE('9twtkJJFSVjvYfKn2fszlF',#6,$,$,#81,#83,$,.FINISH_START.,$);
#205=IFCRELSEQUENCE('NZZNy$k9r92bjp5lOx_B0f',#6,$,$,#83,#85,$,.FINISH_START.,$);
#206=IFCRELSEQUENCE('ivqD5B79tXZtFDf$dheVWd',#6,$,$,#85,#87,$,.FINISH_START.,$);
#207=IFCRELSEQUENCE('bRuXeZHd7Tizfds$JtQvtD',#6,$,$,#87,#89,$,.FINISH_START.,$);
#208=IFCRELSEQUENCE('E7s7xHNfCdSrCLQlprR1sT',#6,$,$,#93,#95,$,.FINISH_START.,$);
#209=IFCRELSEQUENCE('DhDvtVM1_9QDiXf$2RPxzL',#6,$,$,#95,#97,$,.FINISH_START.,$);
#210=IFCRELSEQUENCE('jt4T434lfbrF3bWXjfwjof',#6,$,$,#97,#99,$,.FINISH_START.,$);
#211=IFCRELSEQUENCE('4jwDxr9NQ$khMh2FXpQper',#6,$,$,#99,#101,$,.FINISH_START.,$);
#212=IFCRELSEQUENCE('K74TitDVlD0FdHDHJtMfsZ',#6,$,$,#101,#103,$,.FINISH_START.,$);
#213=IFCRELSEQUENCE('pLR$6vUfKNMFNd_XDdqDGV',#6,$,$,#107,#109,$,.FINISH_START.,$);
#214=IFCRELSEQUENCE('9N2Blxn7wzAH9LUnvRcvzv',#6,$,$,#109,#111,$,.FINISH_START.,$);
#215=IFCRELSEQUENCE('Q5S3AltfkXrnzxinkXtz1t',#6,$,$,#111,#113,$,.FINISH_START.,$);
#216=IFCRELSEQUENCE('uLwDDna1ANDdajjHJRFTZ5',#6,$,$,#113,#115,$,.FINISH_START.,$);
#217=IFCLAGTIME('Lag',.PREDICTED.,$,IFCDURATION('P5D'),.WORKTIME.);
#218=IFCRELSEQUENCE('_jIxwTev8t7DOXRnmVfTlL',#6,$,$,#119,#121,#217,.START_START.,$);
#219=IFCRELSEQUENCE('fz1ZCPxVPjg3$roVqH5Xqz',#6,$,$,#121,#123,$,.FINISH_START.,$);
#220=IFCRELSEQUENCE('nPobKfndVbrnDTVV0dijIB',#6,$,$,#123,#125,$,.FINISH_START.,$);
#221=IFCRELSEQUENCE('AtY$63qVJhdJUZpFPHb1Yp',#6,$,$,#125,#127,$,.FINISH_START.,$);
#222=IFCRELSEQUENCE('exShRRjnynNx1VzlI3mtCl',#6,$,$,#127,#129,$,.FINISH_START.,$);
#223=IFCRELSEQUENCE('xrklR5ffYpw1ixGVmnhVqn',#6,$,$,#133,#135,$,.FINISH_START.,$);
#224=IFCRELSEQUENCE('GNGvh9qFq3MFN7IFaR$jUJ',#6,$,$,#135,#137,$,.FINISH_START.,$);
#225=IFCRELSEQUENCE('RVjvZbklxHjfTf0X1X$xJT',#6,$,$,#137,#139,$,.FINISH_START.,$);
#226=IFCRELSEQUENCE('3pAvTbEHXbLl9hYF3pgT$J',#6,$,$,#139,#141,$,.FINISH_START.,$);
#227=IFCRELSEQUENCE('Af2rL9qFuNxXEVbF8LmfsZ',#6,$,$,#145,#147,$,.FINISH_START.,$);
#228=IFCRELSEQUENCE('k9Kbq71dZ$6jIbSHPnXbF1',#6,$,$,#147,#149,$,.FINISH_START.,$);
#229=IFCRELSEQUENCE('Ld0tcDAdNbRXknTF2NwJsZ',#6,$,$,#149,#151,$,.FINISH_START.,$);
#230=IFCRELSEQUENCE('uL_BPN79fFFDiV1XaRd5RV',#6,$,$,#151,#153,$,.FINISH_START.,$);
#231=IFCRELSEQUENCE('k51TSjA1mzm$O1$X2RHzjV',#6,$,$,#157,#159,$,.FINISH_START.,$);
#232=IFCRELSEQUENCE('Y1Hj5HndBZq5tB2XhZR$6$',#6,$,$,#159,#161,$,.FINISH_START.,$);
#233=IFCRELSEQUENCE('ynNJ3hqnKp0FLNSlt74TTR',#6,$,$,#161,#163,$,.FINISH_START.,$);
#234=IFCRELSEQUENCE('AJJPJ$Adb$FhkFpnDd4TVT',#6,$,$,#163,#165,$,.FINISH_START.,$);
#235=IFCRELSEQUENCE('uLQJzLSlB3WHpHxn69k1ob',#6,$,$,#165,#167,$,.FINISH_START.,$);
#236=IFCRELSEQUENCE('EhhHR5dthve91rw1GnJvRR',#6,$,$,#171,#173,$,.FINISH_START.,$);
#237=IFCRELSEQUENCE('5HZNyVolxRTPSjbFat6drv',#6,$,$,#173,#175,$,.FINISH_START.,$);
#238=IFCRELSEQUENCE('tDtD$dUFwT_RPFt13F3t4r',#6,$,$,#175,#177,$,.FINISH_START.,$);
#239=IFCLAGTIME('Lag',.PREDICTED.,$,IFCDURATION('P19D'),.WORKTIME.);
#240=IFCRELSEQUENCE('BfwpFnxn8XsHnds$VDAzDn',#6,$,$,#45,#57,#239,.START_START.,$);
#241=IFCLAGTIME('Lag',.PREDICTED.,$,IFCRATIOMEASURE(0.4),.WORKTIME.);
#242=IFCRELSEQUENCE('mtijfna16F4DiRanXjc7nV',#6,$,$,#57,#69,#241,.START_START.,$);
#243=IFCLAGTIME('Lag',.PREDICTED.,$,IFCDURATION('-P6D'),.WORKTIME.);
#244=IFCRELSEQUENCE('Jf8ViLpXJfpPaDt1HhXbJV',#6,$,$,#75,#79,#243,.FINISH_START.,$);
#245=IFCRELSEQUENCE('UVL$g$XPrN29$BM$9zfTj3',#6,$,$,#87,#93,$,.FINISH_START.,$);
#246=IFCLAGTIME('Lag',.PREDICTED.,$,IFCDURATION('P27D'),.WORKTIME.);
#247=IFCRELSEQUENCE('KP0tgXB$4nlJgBM1tTpdLf',#6,$,$,#93,#107,#246,.START_START.,$);
#248=IFCLAGTIME('Lag',.PREDICTED.,$,IFCDURATION('P2D'),.WORKTIME.);
#249=IFCRELSEQUENCE('ovcN0l7t1rJvklv$NJvRHl',#6,$,$,#101,#113,#248,.FINISH_FINISH.,$);
#250=IFCLAGTIME('Lag',.PREDICTED.,$,IFCRATIOMEASURE(0.4),.WORKTIME.);
#251=IFCRELSEQUENCE('q9onZxsdlXAlzPc$EHNh2V',#6,$,$,#107,#119,#250,.START_START.,$);
#252=IFCLAGTIME('Lag',.PREDICTED.,$,IFCDURATION('-P13D'),.WORKTIME.);
#253=IFCRELSEQUENCE('hzdh7Ly1GZCxTN8$xHb1MD',#6,$,$,#129,#133,#252,.FINISH_START.,$);
#254=IFCRELSEQUENCE('9tcfK9310LpPi1pFJNkxdd',#6,$,$,#141,#145,$,.FINISH_START.,$);
#255=IFCLAGTIME('Lag',.PREDICTED.,$,IFCDURATION('P19D'),.WORKTIME.);
#256=IFCRELSEQUENCE('bb8FXDAdfRTdmBIVw9s947',#6,$,$,#145,#157,#255,.START_START.,$);
#257=IFCRELSEQUENCE('T$Hj13qXxn7hsdUVVld5DD',#6,$,$,#167,#171,$,.FINISH_START.,$);
#258=IFCCREWRESOURCE('hPmvfFyHf5$ZHfaFbREVm$',#6,'Structural works crew','Overarching structural works crew moving from block to block',$,$,$,$,.USERDEFINED.);
#259=IFCLABORRESOURCE('Uzib0n3$KJSjIHHVL3XbhJ',#6,'Bricklayers',$,$,$,$,$,.USERDEFINED.);
#260=IFCLABORRESOURCE('lbBXaDsdTDO9LNSH7$Hz3P',#6,'Carpenters','Roof structures plus window frames; the two overlap across the phase boundary',$,$,$,$,.USERDEFINED.);
#261=IFCLABORRESOURCE('7Lk5M5vtt1VbpZ9$vXbnvf',#6,'MEP fitters','Electrical and plumbing gangs moving from block to block, with a staggered start',$,$,$,$,.USERDEFINED.);
#262=IFCLABORRESOURCE('2ldzcN8v_9wJ2JDH7$FZfV',#6,'Plasterers',$,$,$,$,$,.USERDEFINED.);
#263=IFCLABORRESOURCE('Qb09M5$dRLLHPTf$PriJw$',#6,'Tilers',$,$,$,$,$,.USERDEFINED.);
#264=IFCLABORRESOURCE('hzNb4TOdLvO97$znyv4Ttn',#6,'Kitchen fitters',$,$,$,$,$,.USERDEFINED.);
#265=IFCLABORRESOURCE('xlTfeZtfMvrFhNal1TqDmH',#6,'Painters',$,$,$,$,$,.USERDEFINED.);
#266=IFCSUBCONTRACTRESOURCE('$jI5YtZ1Yv8vAdg1JRtBm1',#6,'Civils contractor','Sewers, roads, paving and public space',$,$,$,$,.USERDEFINED.);
#267=IFCCONSTRUCTIONMATERIALRESOURCE('yFvZGtinAtXRD3LFXjI$Up',#6,'Concrete C20/25',$,$,$,$,$,.USERDEFINED.);
#268=IFCPROPERTYSINGLEVALUE('Color',$,IFCTEXT('#1E293B'),$);
#269=IFCPROPERTYSET('$nJdj$APJLtzvVP$VpQp0N',#6,'OPS_Resource',$,(#268));
#270=IFCRELDEFINESBYPROPERTIES('cR8FJzjXBfw1i5GVI3OHpl',#6,$,$,(#258),#269);
#271=IFCPROPERTYSINGLEVALUE('MaxUnits',$,IFCREAL(8),$);
#272=IFCPROPERTYSINGLEVALUE('CostPerHour',$,IFCMONETARYMEASURE(46),$);
#273=IFCPROPERTYSINGLEVALUE('Color',$,IFCTEXT('#B91C1C'),$);
#274=IFCPROPERTYSINGLEVALUE('ParentGuid',$,IFCTEXT('hPmvfFyHf5$ZHfaFbREVm$'),$);
#275=IFCPROPERTYSET('ADF5cJklf5dB0ZN1zJ_HB3',#6,'OPS_Resource',$,(#271,#272,#273,#274));
#276=IFCRELDEFINESBYPROPERTIES('ZVL$oXkHNbRXc3THCFXbXP',#6,$,$,(#259),#275);
#277=IFCPROPERTYSINGLEVALUE('MaxUnits',$,IFCREAL(8),$);
#278=IFCPROPERTYSINGLEVALUE('CostPerHour',$,IFCMONETARYMEASURE(45),$);
#279=IFCPROPERTYSINGLEVALUE('Color',$,IFCTEXT('#DB2777'),$);
#280=IFCPROPERTYSINGLEVALUE('ParentGuid',$,IFCTEXT('hPmvfFyHf5$ZHfaFbREVm$'),$);
#281=IFCPROPERTYSET('b54r7PL1oR51i$hl5LmNcH',#6,'OPS_Resource',$,(#277,#278,#279,#280));
#282=IFCRELDEFINESBYPROPERTIES('C9EFflmfOl0F1LonQZpPrP',#6,$,$,(#260),#281);
#283=IFCPROPERTYSINGLEVALUE('MaxUnits',$,IFCREAL(10),$);
#284=IFCPROPERTYSINGLEVALUE('CostPerHour',$,IFCMONETARYMEASURE(48),$);
#285=IFCPROPERTYSINGLEVALUE('Color',$,IFCTEXT('#C2410C'),$);
#286=IFCPROPERTYSET('RVh$QJQVdpo7UNiHejtBGl',#6,'OPS_Resource',$,(#283,#284,#285));
#287=IFCRELDEFINESBYPROPERTIES('2pkHNJTl3FCT$$1XkXHBGF',#6,$,$,(#261),#286);
#288=IFCPROPERTYSINGLEVALUE('MaxUnits',$,IFCREAL(6),$);
#289=IFCPROPERTYSINGLEVALUE('CostPerHour',$,IFCMONETARYMEASURE(42),$);
#290=IFCPROPERTYSINGLEVALUE('Color',$,IFCTEXT('#6366F1'),$);
#291=IFCPROPERTYSET('IRL1QpI9h7etPHLn9duFJZ',#6,'OPS_Resource',$,(#288,#289,#290));
#292=IFCRELDEFINESBYPROPERTIES('7FNJHx$d$BJ7svIFqFHr4v',#6,$,$,(#262),#291);
#293=IFCPROPERTYSINGLEVALUE('MaxUnits',$,IFCREAL(4),$);
#294=IFCPROPERTYSINGLEVALUE('CostPerHour',$,IFCMONETARYMEASURE(43),$);
#295=IFCPROPERTYSINGLEVALUE('Color',$,IFCTEXT('#0D9488'),$);
#296=IFCPROPERTYSET('wlZNGNudp7LlZfWXHLfZ5F',#6,'OPS_Resource',$,(#293,#294,#295));
#297=IFCRELDEFINESBYPROPERTIES('VZmvjzRFc$ErCnt$T$DPR$',#6,$,$,(#263),#296);
#298=IFCPROPERTYSINGLEVALUE('MaxUnits',$,IFCREAL(4),$);
#299=IFCPROPERTYSINGLEVALUE('CostPerHour',$,IFCMONETARYMEASURE(46),$);
#300=IFCPROPERTYSINGLEVALUE('Color',$,IFCTEXT('#D97706'),$);
#301=IFCPROPERTYSET('fd09YN9Ns9PJYZZnYvm9S9',#6,'OPS_Resource',$,(#298,#299,#300));
#302=IFCRELDEFINESBYPROPERTIES('mPgzInqXR$nLIxO1uz93vb',#6,$,$,(#264),#301);
#303=IFCPROPERTYSINGLEVALUE('MaxUnits',$,IFCREAL(6),$);
#304=IFCPROPERTYSINGLEVALUE('CostPerHour',$,IFCMONETARYMEASURE(38),$);
#305=IFCPROPERTYSINGLEVALUE('Color',$,IFCTEXT('#A78BFA'),$);
#306=IFCPROPERTYSET('nPwDFlFdnTcDqhIFSRH3DF',#6,'OPS_Resource',$,(#303,#304,#305));
#307=IFCRELDEFINESBYPROPERTIES('AJ5X41UN4bRVY90XFfcpa9',#6,$,$,(#265),#306);
#308=IFCPROPERTYSINGLEVALUE('MaxUnits',$,IFCREAL(6),$);
#309=IFCPROPERTYSINGLEVALUE('CostPerHour',$,IFCMONETARYMEASURE(58),$);
#310=IFCPROPERTYSINGLEVALUE('Color',$,IFCTEXT('#38BDF8'),$);
#311=IFCPROPERTYSET('LTxFPtxFyHTdibSFbRQ7vx',#6,'OPS_Resource',$,(#308,#309,#310));
#312=IFCRELDEFINESBYPROPERTIES('yH5VuhqniJKb$rc$AXpP9F',#6,$,$,(#266),#311);
#313=IFCPROPERTYSINGLEVALUE('MaxUnits',$,IFCREAL(999),$);
#314=IFCPROPERTYSINGLEVALUE('UnitOfMeasure',$,IFCLABEL('m³'),$);
#315=IFCPROPERTYSINGLEVALUE('Color',$,IFCTEXT('#4ADE80'),$);
#316=IFCPROPERTYSET('mdM3oT79v9gznj5n_NQDuj',#6,'OPS_Resource',$,(#313,#314,#315));
#317=IFCRELDEFINESBYPROPERTIES('9DtDXtCn8NzNLzt$qnPJYD',#6,$,$,(#267),#316);
#318=IFCRELNESTS('bRuVG9CFenqTzPs$DP4Ttl',#6,'Ploeg Structural works crew',$,#258,(#259,#260));
#319=IFCRELASSIGNSTOPROCESS('cxKJzLSHrZ4hcHjH1XfTdP',#6,$,$,(#266),$,#47,$);
#320=IFCRELASSIGNSTOPROCESS('V17rfH87c1_bDzRnCTarGF',#6,$,$,(#266),$,#49,$);
#321=IFCRELASSIGNSTOPROCESS('ohLHFl1vg7rn$rIXMhmNQl',#6,$,$,(#266),$,#51,$);
#322=IFCRELASSIGNSTOPROCESS('_FrFt$2fsrJ72pHXVJI$sd',#6,$,$,(#267),$,#63,$);
#323=IFCRELASSIGNSTOPROCESS('HxnD$7gP1rjvMh_n7XhVyh',#6,$,$,(#267),$,#65,$);
#324=IFCRELASSIGNSTOPROCESS('4HBFNny1ut9zht0Vj5r1gt',#6,$,$,(#267),$,#73,$);
#325=IFCRELASSIGNSTOPROCESS('dVztInS16FaJoBc1wtUFlh',#6,$,$,(#267),$,#75,$);
#326=IFCRELASSIGNSTOPROCESS('TVBV4VoHZVYN3d2XpdSBql',#6,$,$,(#259),$,#79,$);
#327=IFCRELASSIGNSTOPROCESS('HtqxUNNNCTUxj1zFuZBnNX',#6,$,$,(#259),$,#83,$);
#328=IFCRELASSIGNSTOPROCESS('c54rVDktpRjNXn5HmnhXKj',#6,$,$,(#260),$,#85,$);
#329=IFCRELASSIGNSTOPROCESS('nPwDpluPjfTtDZv1U7eXi$',#6,$,$,(#260),$,#87,$);
#330=IFCRELASSIGNSTOPROCESS('vrcf8LS1g5driXHVBjd57N',#6,$,$,(#259),$,#93,$);
#331=IFCRELASSIGNSTOPROCESS('5nlRe5AdxHp9fvIFyL$xv9',#6,$,$,(#259),$,#97,$);
#332=IFCRELASSIGNSTOPROCESS('4jwphDsPjLFhAvAl8LeHNT',#6,$,$,(#260),$,#99,$);
#333=IFCRELASSIGNSTOPROCESS('ebO1sLpV5RbV_PoVqzOlxh',#6,$,$,(#260),$,#101,$);
#334=IFCRELASSIGNSTOPROCESS('zF39o$QvaBT97X$VqzeV8D',#6,$,$,(#260),$,#107,$);
#335=IFCRELASSIGNSTOPROCESS('a3SzIpfN63sHh3HXXjk1ob',#6,$,$,(#260),$,#109,$);
#336=IFCRELASSIGNSTOPROCESS('UTG7v7$PJttz71ZnITijcn',#6,$,$,(#261),$,#119,$);
#337=IFCRELASSIGNSTOPROCESS('Ifm79$EtBzGVo1d1SxZfk7',#6,$,$,(#261),$,#121,$);
#338=IFCRELASSIGNSTOPROCESS('2DMdRRpnQ$khUzVVQdmNQn',#6,$,$,(#261),$,#123,$);
#339=IFCRELASSIGNSTOPROCESS('q9QfuDVdnnibBP_XdHZ9er',#6,$,$,(#261),$,#125,$);
#340=IFCRELASSIGNSTOPROCESS('cVRl5LDV5Rrnxld$lh$xFR',#6,$,$,(#261),$,#127,$);
#341=IFCRELASSIGNSTOPROCESS('s9EFl51dbLzf$VLnZ$3NgJ',#6,$,$,(#261),$,#129,$);
#342=IFCRELASSIGNSTOPROCESS('6H39M$dtVvrF5nBl$1zfsv',#6,$,$,(#262),$,#133,$);
#343=IFCRELASSIGNSTOPROCESS('cXJ7v7nvs9Hr8NSnrp5lLj',#6,$,$,(#263),$,#135,$);
#344=IFCRELASSIGNSTOPROCESS('Ib39oXQXLd4piban3HnZ$j',#6,$,$,(#264),$,#137,$);
#345=IFCRELASSIGNSTOPROCESS('Q$1TSF41WbbXkxGV_9EX0f',#6,$,$,(#265),$,#139,$);
#346=IFCRELASSIGNSTOPROCESS('phJdj$2NcjiRFpt1jts9OZ',#6,$,$,(#262),$,#145,$);
#347=IFCRELASSIGNSTOPROCESS('H5txE1MdzH0F$h_nbbMNsd',#6,$,$,(#263),$,#147,$);
#348=IFCRELASSIGNSTOPROCESS('eTpPt3xFuVw1ed_XHLnhgN',#6,$,$,(#264),$,#149,$);
#349=IFCRELASSIGNSTOPROCESS('U1$ZGPcVbXb$iXf$ARwP3B',#6,$,$,(#265),$,#151,$);
#350=IFCRELASSIGNSTOPROCESS('vHD77P3HlVw$aPkVwDz9Cn',#6,$,$,(#266),$,#157,$);
#351=IFCRELASSIGNSTOPROCESS('9jJdr3CnOv5$O1$XQd0vT9',#6,$,$,(#266),$,#159,$);
#352=IFCRELASSIGNSTOPROCESS('3nBn$zCVfbx$0ZP$mXNTFR',#6,$,$,(#266),$,#161,$);
#353=IFCRELASSIGNSTOPROCESS('qfEbOboHbhBF9fO$xryTpj',#6,$,$,(#266),$,#163,$);
#354=IFCPROPERTYSINGLEVALUE('$jI5YtZ1Yv8vAdg1JRtBm1#0',$,IFCTEXT('6|UNIFORM'),$);
#355=IFCPROPERTYSET('lfmdDH09bBFhklHXHLtz9j',#6,'OPS_Assignments',$,(#354));
#356=IFCRELDEFINESBYPROPERTIES('gzt5_re7i9ILQHZHyvSr8b',#6,$,$,(#47),#355);
#357=IFCPROPERTYSINGLEVALUE('$jI5YtZ1Yv8vAdg1JRtBm1#0',$,IFCTEXT('4|UNIFORM'),$);
#358=IFCPROPERTYSET('exS36PM1AtXRdFVXKVbFPd',#6,'OPS_Assignments',$,(#357));
#359=IFCRELDEFINESBYPROPERTIES('n7IHj$2NkXrnjJ$XKV5lDn',#6,$,$,(#49),#358);
#360=IFCPROPERTYSINGLEVALUE('$jI5YtZ1Yv8vAdg1JRtBm1#0',$,IFCTEXT('4|UNIFORM'),$);
#361=IFCPROPERTYSET('xn1Bfn41O7ZPqhIFej9rGV',#6,'OPS_Assignments',$,(#360));
#362=IFCRELDEFINESBYPROPERTIES('UTWN0HndddSJgLglgLuFpp',#6,$,$,(#51),#361);
#363=IFCPROPERTYSINGLEVALUE('yFvZGtinAtXRD3LFXjI$Up#0',$,IFCTEXT('45|FRONT_LOADED'),$);
#364=IFCPROPERTYSET('7Bs7DJjFKjKzv1Dn3lVpq3',#6,'OPS_Assignments',$,(#363));
#365=IFCRELDEFINESBYPROPERTIES('If09Ina1_TCZ9BUXdhWdBd',#6,$,$,(#63),#364);
#366=IFCPROPERTYSINGLEVALUE('yFvZGtinAtXRD3LFXjI$Up#0',$,IFCTEXT('60|FRONT_LOADED'),$);
#367=IFCPROPERTYSET('Q1vBXjQXl$gzJjP1nxLX8j',#6,'OPS_Assignments',$,(#366));
#368=IFCRELDEFINESBYPROPERTIES('$DcfGdEld78fpljHbXZfQH',#6,$,$,(#65),#367);
#369=IFCPROPERTYSINGLEVALUE('yFvZGtinAtXRD3LFXjI$Up#0',$,IFCTEXT('35|FRONT_LOADED'),$);
#370=IFCPROPERTYSET('5Bs7T5Md1rb$ytyl1XnhEb',#6,'OPS_Assignments',$,(#369));
#371=IFCRELDEFINESBYPROPERTIES('id09oXg1_fQVM9iF2bfhYj',#6,$,$,(#73),#370);
#372=IFCPROPERTYSINGLEVALUE('yFvZGtinAtXRD3LFXjI$Up#0',$,IFCTEXT('45|FRONT_LOADED'),$);
#373=IFCPROPERTYSET('UTOl9zBlXdvLwXP$zlFZ5l',#6,'OPS_Assignments',$,(#372));
#374=IFCRELDEFINESBYPROPERTIES('9fULxBv9$LVRBv_FrphVmX',#6,$,$,(#75),#373);
#375=IFCPROPERTYSINGLEVALUE('Uzib0n3$KJSjIHHVL3XbhJ#0',$,IFCTEXT('8|UNIFORM'),$);
#376=IFCPROPERTYSET('QRWN4T8d9VJvoroXCn$x9F',#6,'OPS_Assignments',$,(#375));
#377=IFCRELDEFINESBYPROPERTIES('pPM3MVTl3FCxFd2V5helj1',#6,$,$,(#79),#376);
#378=IFCPROPERTYSINGLEVALUE('Uzib0n3$KJSjIHHVL3XbhJ#0',$,IFCTEXT('8|UNIFORM'),$);
#379=IFCPROPERTYSET('8jLlzv7tDdPB0ZnVb$Hzdh',#6,'OPS_Assignments',$,(#378));
#380=IFCRELDEFINESBYPROPERTIES('VXrV4Vg$oFfxtrc16p3tij',#6,$,$,(#83),#379);
#381=IFCPROPERTYSINGLEVALUE('lbBXaDsdTDO9LNSH7$Hz3P#0',$,IFCTEXT('6|UNIFORM'),$);
#382=IFCPROPERTYSET('lNuX41MPn3_9htGXmHP5Lf',#6,'OPS_Assignments',$,(#381));
#383=IFCRELDEFINESBYPROPERTIES('g3npNjjnuVQXwjd$rpj7F$',#6,$,$,(#85),#382);
#384=IFCPROPERTYSINGLEVALUE('lbBXaDsdTDO9LNSH7$Hz3P#0',$,IFCTEXT('4|UNIFORM'),$);
#385=IFCPROPERTYSET('OTbHLp_fYPi3lZTn2xRF1D',#6,'OPS_Assignments',$,(#384));
#386=IFCRELDEFINESBYPROPERTIES('$FxXiN79XbJNxbiF2NA35r',#6,$,$,(#87),#385);
#387=IFCPROPERTYSINGLEVALUE('Uzib0n3$KJSjIHHVL3XbhJ#0',$,IFCTEXT('6|UNIFORM'),$);
#388=IFCPROPERTYSET('mvIHb51Pt1NTVFrlb$7RHF',#6,'OPS_Assignments',$,(#387));
#389=IFCRELDEFINESBYPROPERTIES('tpP3Yx67w3_tttiHmXXR3P',#6,$,$,(#93),#388);
#390=IFCPROPERTYSINGLEVALUE('Uzib0n3$KJSjIHHVL3XbhJ#0',$,IFCTEXT('6|UNIFORM'),$);
#391=IFCPROPERTYSET('ypEnb1dt3TwjsRO$bRUFxH',#6,'OPS_Assignments',$,(#390));
#392=IFCRELDEFINESBYPROPERTIES('h7S3MbL$ILBnVb4lxnvp4h',#6,$,$,(#97),#391);
#393=IFCPROPERTYSINGLEVALUE('lbBXaDsdTDO9LNSH7$Hz3P#0',$,IFCTEXT('5|UNIFORM'),$);
#394=IFCPROPERTYSET('DPwDBZu7YDIdunRHw9Atat',#6,'OPS_Assignments',$,(#393));
#395=IFCRELDEFINESBYPROPERTIES('CB1rLNudJNrn$L_FrDB$6X',#6,$,$,(#99),#394);
#396=IFCPROPERTYSINGLEVALUE('lbBXaDsdTDO9LNSH7$Hz3P#0',$,IFCTEXT('3|UNIFORM'),$);
#397=IFCPROPERTYSET('FBF5c94H3ZwjQFt1$Z4Zxn',#6,'OPS_Assignments',$,(#396));
#398=IFCRELDEFINESBYPROPERTIES('eZpdt3hlLJ6JYzP1dndJYp',#6,$,$,(#101),#397);
#399=IFCPROPERTYSINGLEVALUE('lbBXaDsdTDO9LNSH7$Hz3P#0',$,IFCTEXT('3|UNIFORM'),$);
#400=IFCPROPERTYSET('6L_rxnxnmJErqFlVNNk5Zx',#6,'OPS_Assignments',$,(#399));
#401=IFCRELDEFINESBYPROPERTIES('JN8VWXDFMbTPuFBH3jQ7PL',#6,$,$,(#107),#400);
#402=IFCPROPERTYSINGLEVALUE('lbBXaDsdTDO9LNSH7$Hz3P#0',$,IFCTEXT('3|UNIFORM'),$);
#403=IFCPROPERTYSET('jNWNO3xnSBpdmhonQd8F3h',#6,'OPS_Assignments',$,(#402));
#404=IFCRELDEFINESBYPROPERTIES('i5PLz77t1Bb$O$HXxrCRjX',#6,$,$,(#109),#403);
#405=IFCPROPERTYSINGLEVALUE('7Lk5M5vtt1VbpZ9$vXbnvf#0',$,IFCTEXT('6|UNIFORM'),$);
#406=IFCPROPERTYSET('LvyZCxXPXd$T$1v$MFVR9j',#6,'OPS_Assignments',$,(#405));
#407=IFCRELDEFINESBYPROPERTIES('IRblXNW9$f5XMfWV71NLcl',#6,$,$,(#119),#406);
#408=IFCPROPERTYSINGLEVALUE('7Lk5M5vtt1VbpZ9$vXbnvf#0',$,IFCTEXT('4|UNIFORM'),$);
#409=IFCPROPERTYSET('tDdzIjpnUjorapf$5nPJsd',#6,'OPS_Assignments',$,(#408));
#410=IFCRELDEFINESBYPROPERTIES('UXRlHXpFEbZduNSlpdqpml',#6,$,$,(#121),#409);
#411=IFCPROPERTYSINGLEVALUE('7Lk5M5vtt1VbpZ9$vXbnvf#0',$,IFCTEXT('6|UNIFORM'),$);
#412=IFCPROPERTYSET('r96tgbDFgRTd03zH_5hVyh',#6,'OPS_Assignments',$,(#411));
#413=IFCRELDEFINESBYPROPERTIES('Ehp7RXpFMb3vE$d18LG94P',#6,$,$,(#123),#412);
#414=IFCPROPERTYSINGLEVALUE('7Lk5M5vtt1VbpZ9$vXbnvf#0',$,IFCTEXT('4|UNIFORM'),$);
#415=IFCPROPERTYSET('L3ljnBfN0hpduN4HXnj7dB',#6,'OPS_Assignments',$,(#414));
#416=IFCRELDEFINESBYPROPERTIES('ylb1ozLHvfo7s54nbVJ7hJ',#6,$,$,(#125),#415);
#417=IFCPROPERTYSINGLEVALUE('7Lk5M5vtt1VbpZ9$vXbnvf#0',$,IFCTEXT('6|UNIFORM'),$);
#418=IFCPROPERTYSET('TzShBZevKNw1yNO1FxhX8x',#6,'OPS_Assignments',$,(#417));
#419=IFCRELDEFINESBYPROPERTIES('Afg3gXjFS$XRD3plf9EVSx',#6,$,$,(#127),#418);
#420=IFCPROPERTYSINGLEVALUE('7Lk5M5vtt1VbpZ9$vXbnvf#0',$,IFCTEXT('4|UNIFORM'),$);
#421=IFCPROPERTYSET('jxXzIDVPTJyDGR8$LPeXWd',#6,'OPS_Assignments',$,(#420));
#422=IFCRELDEFINESBYPROPERTIES('wlLHfDNfEFFpSPg$$XHrGH',#6,$,$,(#129),#421);
#423=IFCPROPERTYSINGLEVALUE('2ldzcN8v_9wJ2JDH7$FZfV#0',$,IFCTEXT('6|UNIFORM'),$);
#424=IFCPROPERTYSET('3pIlhjUFYpkPWJnXr9wPfX',#6,'OPS_Assignments',$,(#423));
#425=IFCRELDEFINESBYPROPERTIES('gd8ValOP33gnRVZH83PjYF',#6,$,$,(#133),#424);
#426=IFCPROPERTYSINGLEVALUE('Qb09M5$dRLLHPTf$PriJw$#0',$,IFCTEXT('4|UNIFORM'),$);
#427=IFCPROPERTYSET('T3a3_h41GTKRNvonEjs9K1',#6,'OPS_Assignments',$,(#426));
#428=IFCRELDEFINESBYPROPERTIES('ANI5shDXLjU5DH3HEDobrT',#6,$,$,(#135),#427);
#429=IFCPROPERTYSINGLEVALUE('hzNb4TOdLvO97$znyv4Ttn#0',$,IFCTEXT('4|UNIFORM'),$);
#430=IFCPROPERTYSET('bXxnv77t7t_RJjXVYveX4v',#6,'OPS_Assignments',$,(#429));
#431=IFCRELDEFINESBYPROPERTIES('_JYhRx1dBTi33xinUv0vNz',#6,$,$,(#137),#430);
#432=IFCPROPERTYSINGLEVALUE('xlTfeZtfMvrFhNal1TqDmH#0',$,IFCTEXT('6|UNIFORM'),$);
#433=IFCPROPERTYSET('ZTWNyZePV7hHJX71vbk1kv',#6,'OPS_Assignments',$,(#432));
#434=IFCRELDEFINESBYPROPERTIES('s9s7LfOvG3G$e7Mls$XDeZ',#6,$,$,(#139),#433);
#435=IFCPROPERTYSINGLEVALUE('2ldzcN8v_9wJ2JDH7$FZfV#0',$,IFCTEXT('4|UNIFORM'),$);
#436=IFCPROPERTYSET('yFnxAnhHbhhHH9e1zlPxN1',#6,'OPS_Assignments',$,(#435));
#437=IFCRELDEFINESBYPROPERTIES('TT8F1ZW9pRp9BPkVgHT9m1',#6,$,$,(#145),#436);
#438=IFCPROPERTYSINGLEVALUE('Qb09M5$dRLLHPTf$PriJw$#0',$,IFCTEXT('3|UNIFORM'),$);
#439=IFCPROPERTYSET('Q$lJlRRXdPSjMfmXml1jwb',#6,'OPS_Assignments',$,(#438));
#440=IFCRELDEFINESBYPROPERTIES('$p_VmtqnGjcDaJzlYBBFJ3',#6,$,$,(#147),#439);
#441=IFCPROPERTYSINGLEVALUE('hzNb4TOdLvO97$znyv4Ttn#0',$,IFCTEXT('3|UNIFORM'),$);
#442=IFCPROPERTYSET('X3yTy$cvOlG1yN0VF9Q7J$',#6,'OPS_Assignments',$,(#441));
#443=IFCRELDEFINESBYPROPERTIES('8hYhZfV70BlB4fmVW92H19',#6,$,$,(#149),#442);
#444=IFCPROPERTYSINGLEVALUE('xlTfeZtfMvrFhNal1TqDmH#0',$,IFCTEXT('4|UNIFORM'),$);
#445=IFCPROPERTYSET('dRWfWXDnkB153P2VnxhVqH',#6,'OPS_Assignments',$,(#444));
#446=IFCRELDEFINESBYPROPERTIES('o7A777HvybZdWDzFObEVSb',#6,$,$,(#151),#445);
#447=IFCPROPERTYSINGLEVALUE('$jI5YtZ1Yv8vAdg1JRtBm1#0',$,IFCTEXT('4|UNIFORM'),$);
#448=IFCPROPERTYSET('2J2Bh94$u1oBGr_Xn5B12V',#6,'OPS_Assignments',$,(#447));
#449=IFCRELDEFINESBYPROPERTIES('NdOlpnqFGp_9PFHVFR$jMp',#6,$,$,(#157),#448);
#450=IFCPROPERTYSINGLEVALUE('$jI5YtZ1Yv8vAdg1JRtBm1#0',$,IFCTEXT('6|UNIFORM'),$);
#451=IFCPROPERTYSET('0HFx2rmf_30nR$f$NpDPFb',#6,'OPS_Assignments',$,(#450));
#452=IFCRELDEFINESBYPROPERTIES('dRundf1vYvePaJxFMHxVSN',#6,$,$,(#159),#451);
#453=IFCPROPERTYSINGLEVALUE('$jI5YtZ1Yv8vAdg1JRtBm1#0',$,IFCTEXT('4|UNIFORM'),$);
#454=IFCPROPERTYSET('6LgzcfOPDxFD8n5lq307j1',#6,'OPS_Assignments',$,(#453));
#455=IFCRELDEFINESBYPROPERTIES('jN09wZevmzm$8Hf$2RXDat',#6,$,$,(#161),#454);
#456=IFCPROPERTYSINGLEVALUE('$jI5YtZ1Yv8vAdg1JRtBm1#0',$,IFCTEXT('4|UNIFORM'),$);
#457=IFCPROPERTYSET('hTh$IH0t9VDPapVVeRMfUj',#6,'OPS_Assignments',$,(#456));
#458=IFCRELDEFINESBYPROPERTIES('yF9Dj$Yf4b5$utO1dH3Ngp',#6,$,$,(#163),#457);
#459=IFCRELASSIGNSTOCONTROL('rDVhNjbXHjyDCF$VkTSruD',#6,$,$,(#43,#45,#47,#49,#51,#53,#55,#57,#59,#61,#63,#65,#67,#69,#71,#73,#75,#77,#79,#81,#83,#85,#87,#89,#91,#93,#95,#97,#99,#101,#103,#105,#107,#109,#111,#113,#115,#117,#119,#121,#123,#125,#127,#129,#131,#133,#135,#137,#139,#141,#143,#145,#147,#149,#151,#153,#155,#157,#159,#161,#163,#165,#167,#169,#171,#173,#175,#177),$,#40);
#460=IFCPROPERTYSINGLEVALUE('InternalProjectId',$,IFCTEXT('proj-mtx91hf023wv2866'),$);
#461=IFCPROPERTYSINGLEVALUE('wbsAutoNumber',$,IFCBOOLEAN(.T.),$);
#462=IFCPROPERTYSINGLEVALUE('DefaultTaskDurationUnit',$,IFCLABEL('days'),$);
#463=IFCPROPERTYSINGLEVALUE('ProjectStartDate',$,IFCDATE('2027-03-01'),$);
#464=IFCPROPERTYSINGLEVALUE('ProjectEndDate',$,$,$);
#465=IFCPROPERTYSINGLEVALUE('CreatedAt',$,IFCTEXT('2026-09-11T17:47:47.436Z'),$);
#466=IFCPROPERTYSINGLEVALUE('ModifiedAt',$,IFCTEXT('2026-09-11T17:47:47.438Z'),$);
#467=IFCPROPERTYSET('e5a3ArlP$tNZvpDF1ZK5n5',#6,'OPS_ProjectSettings',$,(#460,#461,#462,#463,#464,#465,#466));
#468=IFCRELDEFINESBYPROPERTIES('0Hdzo1sPJhdjQlBF$1BF9l',#6,$,$,(#13),#467);
#469=IFCPROPERTYSINGLEVALUE('InternalTaskId',$,IFCTEXT('task-mtx91hfi1btb2877'),$);
#470=IFCPROPERTYSET('odMzUN7txxX3RXRnuB4h_T',#6,'OPS_TaskIdentity',$,(#469));
#471=IFCRELDEFINESBYPROPERTIES('7rA7pJbVd70FX58$zjI1MJ',#6,$,$,(#43),#470);
#472=IFCPROPERTYSINGLEVALUE('InternalTaskId',$,IFCTEXT('task-mtx91hfkjask2878'),$);
#473=IFCPROPERTYSET('b$npjVIlhvOPaJTlab7bdh',#6,'OPS_TaskIdentity',$,(#472));
#474=IFCRELDEFINESBYPROPERTIES('Kbzt63qX9hZtxnpnnbH3Vd',#6,$,$,(#45),#473);
#475=IFCPROPERTYSINGLEVALUE('InternalTaskId',$,IFCTEXT('task-mtx91hfml5ze2879'),$);
#476=IFCPROPERTYSET('DLz9o1wvkLR1OPM1$X159n',#6,'OPS_TaskIdentity',$,(#475));
#477=IFCRELDEFINESBYPROPERTIES('idWNalmf4lLl$VbnSfEbX7',#6,$,$,(#47),#476);
#478=IFCPROPERTYSINGLEVALUE('InternalTaskId',$,IFCTEXT('task-mtx91hfok45o2880'),$);
#479=IFCPROPERTYSET('K7CDFlffCZ_R7$LHzHFZ3r',#6,'OPS_TaskIdentity',$,(#478));
#480=IFCRELDEFINESBYPROPERTIES('Rxq5YftfABTtvVlXtdmf2Z',#6,$,$,(#49),#479);
#481=IFCPROPERTYSINGLEVALUE('InternalTaskId',$,IFCTEXT('task-mtx91hfp425e2881'),$);
#482=IFCPROPERTYSET('1HFxgxlvel0ndlDlTVt3ln',#6,'OPS_TaskIdentity',$,(#481));
#483=IFCRELDEFINESBYPROPERTIES('upF52BOPPjYxHte$qTKxpp',#6,$,$,(#51),#482);
#484=IFCPROPERTYSINGLEVALUE('InternalTaskId',$,IFCTEXT('task-mtx91hfrj8k32882'),$);
#485=IFCPROPERTYSET('qB1rFB1vstdJklVVMBCDqH',#6,'OPS_TaskIdentity',$,(#484));
#486=IFCRELDEFINESBYPROPERTIES('j9qDfpn7cp0FDTlXrJ7bbb',#6,$,$,(#53),#485);
#487=IFCPROPERTYSINGLEVALUE('InternalTaskId',$,IFCTEXT('task-mtx91hftdpfr2883'),$);
#488=IFCPROPERTYSET('Ht4ZW1H7KJyp8npFzltr09',#6,'OPS_TaskIdentity',$,(#487));
#489=IFCRELDEFINESBYPROPERTIES('e5yZi9T$IVR1m5il07mfEt',#6,$,$,(#55),#488);
#490=IFCPROPERTYSINGLEVALUE('InternalTaskId',$,IFCTEXT('task-mtx91hfuhzrb2884'),$);
#491=IFCPROPERTYSET('zD692vHvKtMzR$$VITix1p',#6,'OPS_TaskIdentity',$,(#490));
#492=IFCRELDEFINESBYPROPERTIES('4nHbmtiVtVhH5RiHK$$j6X',#6,$,$,(#57),#491);
#493=IFCPROPERTYSINGLEVALUE('InternalTaskId',$,IFCTEXT('task-mtx91hfwkhh62885'),$);
#494=IFCPROPERTYSET('NZL$cjwX7NsHXHXXoFZfYp',#6,'OPS_TaskIdentity',$,(#493));
#495=IFCRELDEFINESBYPROPERTIES('G72V4ziX7NQXkR4lxFFhcF',#6,$,$,(#59),#494);
#496=IFCPROPERTYSINGLEVALUE('InternalTaskId',$,IFCTEXT('task-mtx91hfy66a62886'),$);
#497=IFCPROPERTYSET('MduFl5d9DxtRjjnVfpr16x',#6,'OPS_TaskIdentity',$,(#496));
#498=IFCRELDEFINESBYPROPERTIES('ZTWN0nhHDPvhwJ1VWt_HX7',#6,$,$,(#61),#497);
#499=IFCPROPERTYSINGLEVALUE('InternalTaskId',$,IFCTEXT('task-mtx91hg0ytr42887'),$);
#500=IFCPROPERTYSET('r9wtwvsd$fjvQFVXa5LVOZ',#6,'OPS_TaskIdentity',$,(#499));
#501=IFCRELDEFINESBYPROPERTIES('4J_rtVcXXd9RJj$XCnvpOr',#6,$,$,(#63),#500);
#502=IFCPROPERTYSINGLEVALUE('InternalTaskId',$,IFCTEXT('task-mtx91hg2176w2888'),$);
#503=IFCPROPERTYSET('U$t5YfVvCdK3FjjHPLu1kh',#6,'OPS_TaskIdentity',$,(#502));
#504=IFCRELDEFINESBYPROPERTIES('NZ3tIJB$it6jwJt$ql3Nob',#6,$,$,(#65),#503);
#505=IFCPROPERTYSINGLEVALUE('InternalTaskId',$,IFCTEXT('task-mtx91hg358k32889'),$);
#506=IFCPROPERTYSET('uJhlRbL1YPCZ$$1V6tst0t',#6,'OPS_TaskIdentity',$,(#505));
#507=IFCRELDEFINESBYPROPERTIES('FhhHvrW9xlptXRKnElnZ5H',#6,$,$,(#67),#506);
#508=IFCPROPERTYSINGLEVALUE('InternalTaskId',$,IFCTEXT('task-mtx91hg5updk2890'),$);
#509=IFCPROPERTYSET('NP8FXJUFwl8vwDDF71lz5r',#6,'OPS_TaskIdentity',$,(#508));
#510=IFCRELDEFINESBYPROPERTIES('UTun3rW9VdN5RhEFYPCRPr',#6,$,$,(#69),#509);
#511=IFCPROPERTYSINGLEVALUE('InternalTaskId',$,IFCTEXT('task-mtx91hg7zbos2891'),$);
#512=IFCPROPERTYSET('SXz9oXA$WbbVMNu1AXjvzd',#6,'OPS_TaskIdentity',$,(#511));
#513=IFCRELDEFINESBYPROPERTIES('Lz9x2rudvt2bJpblkT4ZZ5',#6,$,$,(#71),#512);
#514=IFCPROPERTYSINGLEVALUE('InternalTaskId',$,IFCTEXT('task-mtx91hg883t62892'),$);
#515=IFCPROPERTYSET('99w9c9yHDbBnfvYFxlT9SN',#6,'OPS_TaskIdentity',$,(#514));
#516=IFCRELDEFINESBYPROPERTIES('2jg3IFqneHmXo$9$lBDPtF',#6,$,$,(#73),#515);
#517=IFCPROPERTYSINGLEVALUE('InternalTaskId',$,IFCTEXT('task-mtx91hgad9pq2893'),$);
#518=IFCPROPERTYSET('cb8XKfFPjN5VwjXXMBS3fT',#6,'OPS_TaskIdentity',$,(#517));
#519=IFCRELDEFINESBYPROPERTIES('X$V3_r09HJyLUTRlYh15Fb',#6,$,$,(#75),#518);
#520=IFCPROPERTYSINGLEVALUE('InternalTaskId',$,IFCTEXT('task-mtx91hgbeyx12894'),$);
#521=IFCPROPERTYSET('j9ibWXjnOvZdyf0XTZCpGn',#6,'OPS_TaskIdentity',$,(#520));
#522=IFCRELDEFINESBYPROPERTIES('c5KRiNHPr9AZNbmVghWdhf',#6,$,$,(#77),#521);
#523=IFCPROPERTYSINGLEVALUE('InternalTaskId',$,IFCTEXT('task-mtx91hgdfyhb2895'),$);
#524=IFCPROPERTYSET('MPG777dtdJkhorUX75_B0t',#6,'OPS_TaskIdentity',$,(#523));
#525=IFCRELDEFINESBYPROPERTIES('TT8FTR2n0hJ7oB_XPFNZR$',#6,$,$,(#79),#524);
#526=IFCPROPERTYSINGLEVALUE('InternalTaskId',$,IFCTEXT('task-mtx91hgf4dt62896'),$);
#527=IFCPROPERTYSET('2DQN4Zu7_TCTLZpFnbVDqH',#6,'OPS_TaskIdentity',$,(#526));
#528=IFCRELDEFINESBYPROPERTIES('xlztwvotRLzfvjf1UhVbZf',#6,$,$,(#81),#527);
#529=IFCPROPERTYSINGLEVALUE('InternalTaskId',$,IFCTEXT('task-mtx91hghezrr2897'),$);
#530=IFCPROPERTYSET('yHxVmds$0hJvcHZl4LVRpH',#6,'OPS_TaskIdentity',$,(#529));
#531=IFCRELDEFINESBYPROPERTIES('BjxVCx1dZV_tTBM$bXTfAT',#6,$,$,(#83),#530);
#532=IFCPROPERTYSINGLEVALUE('InternalTaskId',$,IFCTEXT('task-mtx91hgjgxis2898'),$);
#533=IFCPROPERTYSET('Dhhl3dRXB3G$8FrH7xIx1p',#6,'OPS_TaskIdentity',$,(#532));
#534=IFCRELDEFINESBYPROPERTIES('iPunJ3rHzZY51V3Hk3G9CZ',#6,$,$,(#85),#533);
#535=IFCPROPERTYSINGLEVALUE('InternalTaskId',$,IFCTEXT('task-mtx91hgl0sjv2899'),$);
#536=IFCPROPERTYSET('SVBV8Link1$5dzZHSfUhox',#6,'OPS_TaskIdentity',$,(#535));
#537=IFCRELDEFINESBYPROPERTIES('Lz$TifX74RJfBp$VAXhX0f',#6,$,$,(#87),#536);
#538=IFCPROPERTYSINGLEVALUE('InternalTaskId',$,IFCTEXT('task-mtx91hgpe0j62900'),$);
#539=IFCPROPERTYSET('lNWfiNP9xHbVI50XpLPJw$',#6,'OPS_TaskIdentity',$,(#538));
#540=IFCRELDEFINESBYPROPERTIES('eRWNGPwX5RZPyfWXlB5XS9',#6,$,$,(#89),#539);
#541=IFCPROPERTYSINGLEVALUE('InternalTaskId',$,IFCTEXT('task-mtx91hgrn6x32901'),$);
#542=IFCPROPERTYSET('0ln5M5$Pp7Jf5baHD7uFzh',#6,'OPS_TaskIdentity',$,(#541));
#543=IFCRELDEFINESBYPROPERTIES('vFd3M1n7A9PjkHnXxFVRBT',#6,$,$,(#91),#542);
#544=IFCPROPERTYSINGLEVALUE('InternalTaskId',$,IFCTEXT('task-mtx91hguitv62902'),$);
#545=IFCPROPERTYSET('KxV3cpgd3HG$43d$TX1xjT',#6,'OPS_TaskIdentity',$,(#544));
#546=IFCRELDEFINESBYPROPERTIES('pdEbSniFEFdreVxnEDwJUH',#6,$,$,(#93),#545);
#547=IFCPROPERTYSINGLEVALUE('InternalTaskId',$,IFCTEXT('task-mtx91hgwhjfn2903'),$);
#548=IFCPROPERTYSET('EhrnnrX7mDAHNRe$DdqRXP',#6,'OPS_TaskIdentity',$,(#547));
#549=IFCRELDEFINESBYPROPERTIES('hP0tg$n7gxVz$h2Fh3fTnb',#6,$,$,(#95),#548);
#550=IFCPROPERTYSINGLEVALUE('InternalTaskId',$,IFCTEXT('task-mtx91hgyrym72904'),$);
#551=IFCPROPERTYSET('urY1kDnvQD87ohAlW9Q7XP',#6,'OPS_TaskIdentity',$,(#550));
#552=IFCRELDEFINESBYPROPERTIES('$J2rfFCFq3sldTP$OJ9Bip',#6,$,$,(#97),#551);
#553=IFCPROPERTYSINGLEVALUE('InternalTaskId',$,IFCTEXT('task-mtx91hh0ussf2905'),$);
#554=IFCPROPERTYSET('lbJvNlGNwzIP0Tt$jNIxVz',#6,'OPS_TaskIdentity',$,(#553));
#555=IFCRELDEFINESBYPROPERTIES('AtIlHVRVRLLlvjP$XDgTBv',#6,$,$,(#99),#554);
#556=IFCPROPERTYSINGLEVALUE('InternalTaskId',$,IFCTEXT('task-mtx91hh1vtub2906'),$);
#557=IFCPROPERTYSET('BDXhzdh1gx7L2vIFqZqpi1',#6,'OPS_TaskIdentity',$,(#556));
#558=IFCRELDEFINESBYPROPERTIES('I9yrJzbFsL7DOPs$L3$xRX',#6,$,$,(#101),#557);
#559=IFCPROPERTYSINGLEVALUE('InternalTaskId',$,IFCTEXT('task-mtx91hh31cqw2907'),$);
#560=IFCPROPERTYSET('5hATitrlRVJvkRiF2NAzf3',#6,'OPS_TaskIdentity',$,(#559));
#561=IFCRELDEFINESBYPROPERTIES('_FDvbXr1OPdrmhoFs$vRJV',#6,$,$,(#103),#560);
#562=IFCPROPERTYSINGLEVALUE('InternalTaskId',$,IFCTEXT('task-mtx91hh5uz8l2908'),$);
#563=IFCPROPERTYSET('VZG7$TWtxHDtnp$XwpJ73d',#6,'OPS_TaskIdentity',$,(#562));
#564=IFCRELDEFINESBYPROPERTIES('QXDdj1gP5bJfDFFXvbUFNX',#6,$,$,(#105),#563);
#565=IFCPROPERTYSINGLEVALUE('InternalTaskId',$,IFCTEXT('task-mtx91hh70nd32909'),$);
#566=IFCPROPERTYSET('sNYLd5wv_3m$K1blYBjvRb',#6,'OPS_TaskIdentity',$,(#565));
#567=IFCRELDEFINESBYPROPERTIES('3D2XGNePBt6j_dQ$I3GfoR',#6,$,$,(#107),#566);
#568=IFCPROPERTYSINGLEVALUE('InternalTaskId',$,IFCTEXT('task-mtx91hh9fwsp2910'),$);
#569=IFCPROPERTYSET('FhJPFFpX1hVbDZN1B92l9j',#6,'OPS_TaskIdentity',$,(#568));
#570=IFCRELDEFINESBYPROPERTIES('gPmvNH8PRLrnR1N$r9styB',#6,$,$,(#109),#569);
#571=IFCPROPERTYSINGLEVALUE('InternalTaskId',$,IFCTEXT('task-mtx91hhc8btg2911'),$);
#572=IFCPROPERTYSET('f3t5EZ793HOdyTpnDv8nzh',#6,'OPS_TaskIdentity',$,(#571));
#573=IFCRELDEFINESBYPROPERTIES('mPoRupPthdSrK1BH$1hlBZ',#6,$,$,(#111),#572);
#574=IFCPROPERTYSINGLEVALUE('InternalTaskId',$,IFCTEXT('task-mtx91hhffqco2912'),$);
#575=IFCPROPERTYSET('vn1Bvd5V7TiRxFLlNtEXeZ',#6,'OPS_TaskIdentity',$,(#574));
#576=IFCRELDEFINESBYPROPERTIES('or1rxHV7CTATz7sHG$b$ox',#6,$,$,(#113),#575);
#577=IFCPROPERTYSINGLEVALUE('InternalTaskId',$,IFCTEXT('task-mtx91hhhy02w2913'),$);
#578=IFCPROPERTYSET('Hbzt63qVnnSJAvslOxA31f',#6,'OPS_TaskIdentity',$,(#577));
#579=IFCRELDEFINESBYPROPERTIES('A92XyZu7EbbXgBEXCzmf6R',#6,$,$,(#115),#578);
#580=IFCPROPERTYSINGLEVALUE('InternalTaskId',$,IFCTEXT('task-mtx91hhjhq5a2914'),$);
#581=IFCPROPERTYSET('LTL$ctSH7toBChsHyvyTJz',#6,'OPS_TaskIdentity',$,(#580));
#582=IFCRELDEFINESBYPROPERTIES('o7gdhDYfyHLHLTLlnxZfUJ',#6,$,$,(#117),#581);
#583=IFCPROPERTYSINGLEVALUE('InternalTaskId',$,IFCTEXT('task-mtx91hhmztpm2915'),$);
#584=IFCPROPERTYSET('ltij7dDnsLt3V5u19zHBK1',#6,'OPS_TaskIdentity',$,(#583));
#585=IFCRELDEFINESBYPROPERTIES('O5ij5lvtrzG103THyvixlh',#6,$,$,(#119),#584);
#586=IFCPROPERTYSINGLEVALUE('InternalTaskId',$,IFCTEXT('task-mtx91hho63mx2916'),$);
#587=IFCPROPERTYSET('xntDhj_FCdK3RVTlatAtGV',#6,'OPS_TaskIdentity',$,(#586));
#588=IFCRELDEFINESBYPROPERTIES('qrtpVfmNM7rnXRyHvbI$ER',#6,$,$,(#121),#587);
#589=IFCPROPERTYSINGLEVALUE('InternalTaskId',$,IFCTEXT('task-mtx91hhr2ynw2917'),$);
#590=IFCPROPERTYSET('n7gPr3S$oRhlVlVXwpDdBv',#6,'OPS_TaskIdentity',$,(#589));
#591=IFCRELDEFINESBYPROPERTIES('uh_rBdUnsrpPWDjn$XlBuD',#6,$,$,(#123),#590);
#592=IFCPROPERTYSINGLEVALUE('InternalTaskId',$,IFCTEXT('task-mtx91hhuetsf2918'),$);
#593=IFCPROPERTYSET('P1X3cpcvmJ6jo$XVGlfhYl',#6,'OPS_TaskIdentity',$,(#592));
#594=IFCRELDEFINESBYPROPERTIES('IbL$EzjVPjYxT9Kn6jFTrv',#6,$,$,(#125),#593);
#595=IFCPROPERTYSINGLEVALUE('InternalTaskId',$,IFCTEXT('task-mtx91hhwp6gr2919'),$);
#596=IFCPROPERTYSET('dxKbe5UNKtU5vDzFuhGNQL',#6,'OPS_TaskIdentity',$,(#595));
#597=IFCRELDEFINESBYPROPERTIES('W1t5srnPJ9nLkxu$kVPjox',#6,$,$,(#127),#596);
#598=IFCPROPERTYSINGLEVALUE('InternalTaskId',$,IFCTEXT('task-mtx91hhzbpys2920'),$);
#599=IFCPROPERTYSET('N3npr3iVDd1TNb0V7RYnxn',#6,'OPS_TaskIdentity',$,(#598));
#600=IFCRELDEFINESBYPROPERTIES('mPQJrPwVrTaJo1HXzFbFRV',#6,$,$,(#129),#599);
#601=IFCPROPERTYSINGLEVALUE('InternalTaskId',$,IFCTEXT('task-mtx91hi21qcy2921'),$);
#602=IFCPROPERTYSET('l5dLnnDVPdSjkF3nS9MNsv',#6,'OPS_TaskIdentity',$,(#601));
#603=IFCRELDEFINESBYPROPERTIES('AN6pZNd9xn9bFJTHqZK5F5',#6,$,$,(#131),#602);
#604=IFCPROPERTYSINGLEVALUE('InternalTaskId',$,IFCTEXT('task-mtx91hi4wqru2922'),$);
#605=IFCPROPERTYSET('7B2VmdoHRBVRnDd$SNMTXT',#6,'OPS_TaskIdentity',$,(#604));
#606=IFCRELDEFINESBYPROPERTIES('0ldzkF4lLP4D03ZlmHHzdh',#6,$,$,(#133),#605);
#607=IFCPROPERTYSINGLEVALUE('InternalTaskId',$,IFCTEXT('task-mtx91hi7xya92923'),$);
#608=IFCPROPERTYSET('P5qpfjbXNHjN7pLHDveXer',#6,'OPS_TaskIdentity',$,(#607));
#609=IFCRELDEFINESBYPROPERTIES('W1lj5Fxn0BfZn7sHC3Gt4B',#6,$,$,(#135),#608);
#610=IFCPROPERTYSINGLEVALUE('InternalTaskId',$,IFCTEXT('task-mtx91hiaf4ya2924'),$);
#611=IFCPROPERTYSET('XVL$_d5XFnaJQnf1tZDPZR',#6,'OPS_TaskIdentity',$,(#610));
#612=IFCRELDEFINESBYPROPERTIES('e3Vzwv2fsfb$GBEXSRFTVz',#6,$,$,(#137),#611);
#613=IFCPROPERTYSINGLEVALUE('InternalTaskId',$,IFCTEXT('task-mtx91hicxc112925'),$);
#614=IFCPROPERTYSET('PbGvNnCXjBb18NKnA5YLM9',#6,'OPS_TaskIdentity',$,(#613));
#615=IFCRELDEFINESBYPROPERTIES('WVDdxBX7uVov_v2FxrSryL',#6,$,$,(#139),#614);
#616=IFCPROPERTYSINGLEVALUE('InternalTaskId',$,IFCTEXT('task-mtx91hifxzah2926'),$);
#617=IFCPROPERTYSET('5r_XyZu7Eb3voBkVQZR$AZ',#6,'OPS_TaskIdentity',$,(#616));
#618=IFCRELDEFINESBYPROPERTIES('_HPzUxo9zF4hQTv16tc7N3',#6,$,$,(#141),#617);
#619=IFCPROPERTYSINGLEVALUE('InternalTaskId',$,IFCTEXT('task-mtx91hiia6pu2927'),$);
#620=IFCPROPERTYSET('md6pd5QvmDMn9tKlW9wdpJ',#6,'OPS_TaskIdentity',$,(#619));
#621=IFCRELDEFINESBYPROPERTIES('t969oXkHfRjflt8$Y78Frv',#6,$,$,(#143),#620);
#622=IFCPROPERTYSINGLEVALUE('InternalTaskId',$,IFCTEXT('task-mtx91hikjthe2928'),$);
#623=IFCPROPERTYSET('0lXhZt5n0r931rc$El1J65',#6,'OPS_TaskIdentity',$,(#622));
#624=IFCRELDEFINESBYPROPERTIES('vn9pXNuPjNxVsRGVEJQv7x',#6,$,$,(#145),#623);
#625=IFCPROPERTYSINGLEVALUE('InternalTaskId',$,IFCTEXT('task-mtx91hing3z32929'),$);
#626=IFCPROPERTYSET('Y$X3_vnvUdqZpljHPLuFtn',#6,'OPS_TaskIdentity',$,(#625));
#627=IFCRELDEFINESBYPROPERTIES('NTL$ozxFijqZvDJFB9cvXv',#6,$,$,(#147),#626);
#628=IFCPROPERTYSINGLEVALUE('InternalTaskId',$,IFCTEXT('task-mtx91hiqutp62930'),$);
#629=IFCPROPERTYSET('b5KJ13ylv3Ott9SF97aB85',#6,'OPS_TaskIdentity',$,(#628));
#630=IFCRELDEFINESBYPROPERTIES('U1Fp3d5V9hb$SJTH47Kx5n',#6,$,$,(#149),#629);
#631=IFCPROPERTYSINGLEVALUE('InternalTaskId',$,IFCTEXT('task-mtx91hisa0ta2931'),$);
#632=IFCPROPERTYSET('hPGvDDNfUdqTj1pFJ9_lxh',#6,'OPS_TaskIdentity',$,(#631));
#633=IFCRELDEFINESBYPROPERTIES('aTm7FhZ$s9FLQHBn11zNYn',#6,$,$,(#151),#632);
#634=IFCPROPERTYSINGLEVALUE('InternalTaskId',$,IFCTEXT('task-mtx91hivclrq2932'),$);
#635=IFCPROPERTYSET('RVTNuLqXxnHjs7MHEpMZ9l',#6,'OPS_TaskIdentity',$,(#634));
#636=IFCRELDEFINESBYPROPERTIES('KxNbqbr$8fZ9R$911TiJYF',#6,$,$,(#153),#635);
#637=IFCPROPERTYSINGLEVALUE('InternalTaskId',$,IFCTEXT('task-mtx91hiyked12933'),$);
#638=IFCPROPERTYSET('8DfJDpl7G38vgfu1dhGNMf',#6,'OPS_TaskIdentity',$,(#637));
#639=IFCRELDEFINESBYPROPERTIES('FBlRurmN2NEvYfylhd8FB7',#6,$,$,(#155),#638);
#640=IFCPROPERTYSINGLEVALUE('InternalTaskId',$,IFCTEXT('task-mtx91hiz38zl2934'),$);
#641=IFCPROPERTYSET('wh2rj35F4RjNfxSF9dunJz',#6,'OPS_TaskIdentity',$,(#640));
#642=IFCRELDEFINESBYPROPERTIES('$HfjJTVv4HbVk5u$_9Mf_V',#6,$,$,(#157),#641);
#643=IFCPROPERTYSINGLEVALUE('InternalTaskId',$,IFCTEXT('task-mtx91hj23ba32935'),$);
#644=IFCPROPERTYSET('4JEbWXRXRr7pmr_V$T4Tlh',#6,'OPS_TaskIdentity',$,(#643));
#645=IFCRELDEFINESBYPROPERTIES('zHtpd56vUvWHvjlXdHxVGF',#6,$,$,(#159),#644);
#646=IFCPROPERTYSINGLEVALUE('InternalTaskId',$,IFCTEXT('task-mtx91hj5w4w12936'),$);
#647=IFCPROPERTYSET('ANsZ8JRXjfb1ChonopULAv',#6,'OPS_TaskIdentity',$,(#646));
#648=IFCRELDEFINESBYPROPERTIES('3p69kHmf_30FxFJnVl$jUl',#6,$,$,(#161),#647);
#649=IFCPROPERTYSINGLEVALUE('InternalTaskId',$,IFCTEXT('task-mtx91hj8n7to2937'),$);
#650=IFCPROPERTYSET('dVRlvrWtV7zvARGXmHd5N1',#6,'OPS_TaskIdentity',$,(#649));
#651=IFCRELDEFINESBYPROPERTIES('kx95U5YNKDGXARGVA1vRZf',#6,$,$,(#163),#650);
#652=IFCPROPERTYSINGLEVALUE('InternalTaskId',$,IFCTEXT('task-mtx91hjcz1ww2938'),$);
#653=IFCPROPERTYSET('6HBFRVB$CZkLQn71cdOH75',#6,'OPS_TaskIdentity',$,(#652));
#654=IFCRELDEFINESBYPROPERTIES('phZfGfWt9rlBKRKlKjoXSb',#6,$,$,(#165),#653);
#655=IFCPROPERTYSINGLEVALUE('InternalTaskId',$,IFCTEXT('task-mtx91hjf18xr2939'),$);
#656=IFCPROPERTYSET('iPO$6z4$arrnTrEVuL81Ul',#6,'OPS_TaskIdentity',$,(#655));
#657=IFCRELDEFINESBYPROPERTIES('Rbe1AH1vIBFLsd2Vj9wdrP',#6,$,$,(#167),#656);
#658=IFCPROPERTYSINGLEVALUE('InternalTaskId',$,IFCTEXT('task-mtx91hji6lb12940'),$);
#659=IFCPROPERTYSET('F7MdTNv91BxXUN4n1$hl9J',#6,'OPS_TaskIdentity',$,(#658));
#660=IFCRELDEFINESBYPROPERTIES('8h2BpDtf81ILQlhntvqb1N',#6,$,$,(#169),#659);
#661=IFCPROPERTYSINGLEVALUE('InternalTaskId',$,IFCTEXT('task-mtx91hjml2bz2941'),$);
#662=IFCPROPERTYSET('FhjPplW9jLdJ6jVX_5hXOZ',#6,'OPS_TaskIdentity',$,(#661));
#663=IFCRELDEFINESBYPROPERTIES('gPm7Z5Md3Fib9N0V11BFXz',#6,$,$,(#171),#662);
#664=IFCPROPERTYSINGLEVALUE('InternalTaskId',$,IFCTEXT('task-mtx91hjp4sd12942'),$);
#665=IFCPROPERTYSET('$nZfqbDFERhH37EngL0vr3',#6,'OPS_TaskIdentity',$,(#664));
#666=IFCRELDEFINESBYPROPERTIES('8JZNOZHd9LR$qBM11XfZ3h',#6,$,$,(#173),#665);
#667=IFCPROPERTYSINGLEVALUE('InternalTaskId',$,IFCTEXT('task-mtx91hjt6z5x2943'),$);
#668=IFCPROPERTYSET('V1ljZ5gPtXLldT$XEHd5dv',#6,'OPS_TaskIdentity',$,(#667));
#669=IFCRELDEFINESBYPROPERTIES('OTTfuBGN8tVbr7onsbAtC3',#6,$,$,(#175),#668);
#670=IFCPROPERTYSINGLEVALUE('InternalTaskId',$,IFCTEXT('task-mtx91hjw2uor2944'),$);
#671=IFCPROPERTYSET('4HrFJ3T1Ahtzrdw$y7qRFX',#6,'OPS_TaskIdentity',$,(#670));
#672=IFCRELDEFINESBYPROPERTIES('BJrF13KX7tkLErIXsxI5rP',#6,$,$,(#177),#671);
#673=IFCPROPERTYSINGLEVALUE('MilestoneKind',$,IFCLABEL('START'),$);
#674=IFCPROPERTYSET('zDkHxrffu9dj6Vv1n9k$sZ',#6,'OPS_Milestone',$,(#673));
#675=IFCRELDEFINESBYPROPERTIES('MvS363inc$MzV5O$yBLlLj',#6,$,$,(#53),#674);
#676=IFCPROPERTYSINGLEVALUE('MilestoneKind',$,IFCLABEL('FINISH'),$);
#677=IFCPROPERTYSET('2nz9cjQXVPf5vjf$w9EVGn',#6,'OPS_Milestone',$,(#676));
#678=IFCRELDEFINESBYPROPERTIES('RRmPXfW95l5$GhYFDhHrK$',#6,$,$,(#89),#677);
#679=IFCPROPERTYSINGLEVALUE('MilestoneKind',$,IFCLABEL('FINISH'),$);
#680=IFCPROPERTYSET('K5lJnL3$ijibpzrFt3$5xl',#6,'OPS_Milestone',$,(#679));
#681=IFCRELDEFINESBYPROPERTIES('xlxX8LKVZ1wjwj9$e5Qp8x',#6,$,$,(#103),#680);
#682=IFCPROPERTYSINGLEVALUE('MilestoneKind',$,IFCLABEL('FINISH'),$);
#683=IFCPROPERTYSET('W$VzsH17E5fxbBYVjb9rmn',#6,'OPS_Milestone',$,(#682));
#684=IFCRELDEFINESBYPROPERTIES('vL2rXDUN816JclplT$3NcB',#6,$,$,(#115),#683);
#685=IFCPROPERTYSINGLEVALUE('MilestoneKind',$,IFCLABEL('FINISH'),$);
#686=IFCPROPERTYSET('rfAT0FrHnFCZ3dIVgnXbbb',#6,'OPS_Milestone',$,(#685));
#687=IFCRELDEFINESBYPROPERTIES('oLxVSFy$WxlJA5yHR1fhMJ',#6,$,$,(#177),#686);
ENDSEC;
END-ISO-10303-21;
