ISO-10303-21;
HEADER;
FILE_DESCRIPTION(('ViewDefinition [SchedulingView]'),'2;1');
FILE_NAME('Refurbishment & Extension of a Family Home.ifc','2026-09-03T17:33:07',('Contractor'),('Van Dijk Construction BV'),'Open Planner Studio 0.1','Open Planner Studio','');
FILE_SCHEMA(('IFC4X3'));
ENDSEC;
DATA;
#1=IFCPERSON($,'Contractor',$,$,$,$,$,$);
#2=IFCORGANIZATION($,'Van Dijk Construction BV',$,$,$);
#3=IFCPERSONANDORGANIZATION(#1,#2,$);
#4=IFCORGANIZATION($,'OpenAEC Foundation',$,$,$);
#5=IFCAPPLICATION(#4,'0.1','Open Planner Studio','OPS');
#6=IFCOWNERHISTORY(#3,#5,$,.NOCHANGE.,$,$,$,1788456787);
#7=IFCSIUNIT(*,.LENGTHUNIT.,$,.METRE.);
#8=IFCSIUNIT(*,.TIMEUNIT.,$,.SECOND.);
#9=IFCUNITASSIGNMENT((#7,#8));
#10=IFCCARTESIANPOINT((0.,0.,0.));
#11=IFCAXIS2PLACEMENT3D(#10,$,$);
#12=IFCGEOMETRICREPRESENTATIONCONTEXT($,'Plan',3,1.0E-05,#11,$);
#13=IFCPROJECT('Ajb1Qpsd9hLlJXP1LZrnHr',#6,'Refurbishment & Extension of a Family Home','Extension plus internal refurbishment of a family home — entry-level schedule.',$,$,$,(#12),#9);
#14=IFCTIMEPERIOD('07:00:00','16:00:00');
#15=IFCRECURRENCEPATTERN(.WEEKLY.,$,(1,2,3,4,5),$,$,$,$,(#14));
#16=IFCWORKTIME('Standard work week',.PREDICTED.,$,#15,$,$);
#17=IFCWORKTIME('New Year''s Day',.PREDICTED.,$,$,'2027-01-01','2027-01-01');
#18=IFCWORKTIME('Good Friday',.PREDICTED.,$,$,'2027-03-26','2027-03-26');
#19=IFCWORKTIME('Easter',.PREDICTED.,$,$,'2027-03-28','2027-03-29');
#20=IFCWORKTIME('King''s Day',.PREDICTED.,$,$,'2027-04-27','2027-04-27');
#21=IFCWORKTIME('Liberation Day',.PREDICTED.,$,$,'2027-05-05','2027-05-05');
#22=IFCWORKTIME('Ascension Day',.PREDICTED.,$,$,'2027-05-06','2027-05-06');
#23=IFCWORKTIME('Whitsun',.PREDICTED.,$,$,'2027-05-16','2027-05-17');
#24=IFCWORKTIME('Christmas',.PREDICTED.,$,$,'2027-12-25','2027-12-26');
#25=IFCWORKTIME('Construction holiday (northern region)',.PREDICTED.,$,$,'2027-07-26','2027-08-15');
#26=IFCWORKTIME('New Year''s Day',.PREDICTED.,$,$,'2028-01-01','2028-01-01');
#27=IFCWORKTIME('Good Friday',.PREDICTED.,$,$,'2028-04-14','2028-04-14');
#28=IFCWORKTIME('Easter',.PREDICTED.,$,$,'2028-04-16','2028-04-17');
#29=IFCWORKTIME('King''s Day',.PREDICTED.,$,$,'2028-04-27','2028-04-27');
#30=IFCWORKTIME('Liberation Day',.PREDICTED.,$,$,'2028-05-05','2028-05-05');
#31=IFCWORKTIME('Ascension Day',.PREDICTED.,$,$,'2028-05-25','2028-05-25');
#32=IFCWORKTIME('Whitsun',.PREDICTED.,$,$,'2028-06-04','2028-06-05');
#33=IFCWORKTIME('Christmas',.PREDICTED.,$,$,'2028-12-25','2028-12-26');
#34=IFCWORKTIME('Construction holiday (northern region)',.PREDICTED.,$,$,'2028-07-24','2028-08-13');
#35=IFCWORKCALENDAR('_HlbW$VPl1Yxnv_nBDbFBd',#6,'Construction calendar NL','Standard construction calendar: Mon-Fri 07:00-16:00',$,(#16),(#17,#18,#19,#20,#21,#22,#23,#24,#25,#26,#27,#28,#29,#30,#31,#32,#33,#34),.FIRSTSHIFT.);
#36=IFCPROPERTYSINGLEVALUE('HoursPerDay',$,IFCREAL(8),$);
#37=IFCPROPERTYSET('qL5XmPUFgdlJ6X9$WtAtOZ',#6,'OPS_Calendar',$,(#36));
#38=IFCRELDEFINESBYPROPERTIES('bXh12hy$qvOdOP_VbbYntl',#6,$,$,(#35),#37);
#39=IFCWORKPLAN('kRrXSnyldJ2RHz9$m$xXOr',#6,'Refurbishment & Extension of a Family Home','Extension plus internal refurbishment of a family home — entry-level schedule.',$,$,'2026-09-03T17:33:07',$,$,$,$,$,'2027-03-01T07:00:00','2027-03-08T07:00:00',.PLANNED.);
#40=IFCWORKSCHEDULE('H9az_BOdFnSBKRSHhZJ719',#6,'Construction schedule v1.0',$,$,$,'2026-09-03T17:33:07',$,$,$,$,$,'2027-03-01T07:00:00','2027-03-08T07:00:00',.PLANNED.);
#41=IFCWORKSCHEDULE('3HP3sltNAr5XsvcljR9BSf',#6,'Baseline plan',$,$,$,'2026-09-03T17:33:07.542Z',$,$,$,$,$,$,'2027-05-04T07:00:00',.BASELINE.);
#42=IFCRELAGGREGATES('X$Ph9TPtbVDd8te$ftI1sz',#6,$,$,#39,(#40,#41));
#43=IFCTASKTIME('Start of refurbishment Time',.PREDICTED.,$,.WORKTIME.,'P0Y0M0D','2027-03-01T07:00:00','2027-03-01T07:00:00','2027-03-01T07:00:00','2027-03-01T07:00:00','2027-03-05T07:00:00','2027-03-05T07:00:00','P0Y0M0D','P0Y0M4D',.F.,$,$,$,$,$,0.00);
#44=IFCTASK('2j2BnhJXzZ6jgtqFWNQDO3',#6,'Start of refurbishment',$,$,'1',$,$,$,.T.,$,#43,.CONSTRUCTION.);
#45=IFCTASKTIME('1. Preparation Time',.PREDICTED.,$,.WORKTIME.,'P0Y0M5D','2027-03-01T07:00:00','2027-03-05T07:00:00','2027-03-01T07:00:00','2027-03-11T07:00:00','2027-03-05T07:00:00','2027-03-11T07:00:00','P0Y0M0D','P0Y0M0D',.T.,$,$,$,$,$,0.00);
#46=IFCTASK('T$9xEZ79NF9R$hAHCF93zP',#6,'1. Preparation',$,$,'2',$,$,$,.F.,$,#45,.LOGISTIC.);
#47=IFCTASKTIME('Set up site Time',.PREDICTED.,$,.WORKTIME.,'P0Y0M2D','2027-03-01T07:00:00','2027-03-02T07:00:00','2027-03-01T07:00:00','2027-03-02T07:00:00','2027-03-05T07:00:00','2027-03-08T07:00:00','P0Y0M4D','P0Y0M4D',.F.,$,$,$,$,$,0.00);
#48=IFCTASK('uhEbuLyHH$sTl9u$cTb$A3',#6,'Set up site',$,$,'2.1',$,$,$,.F.,$,#47,.LOGISTIC.);
#49=IFCTASKTIME('Demolish existing extension Time',.PREDICTED.,$,.WORKTIME.,'P0Y0M3D','2027-03-01T07:00:00','2027-03-03T07:00:00','2027-03-09T07:00:00','2027-03-11T07:00:00','2027-03-09T07:00:00','2027-03-11T07:00:00','P0Y0M0D','P0Y0M0D',.T.,$,$,$,$,$,0.00);
#50=IFCTASK('pvIHzdZlRBVbpTlVPHJ7Vd',#6,'Demolish existing extension',$,$,'2.2',$,$,$,.F.,$,#49,.DEMOLITION.);
#51=IFCTASKTIME('2. Foundations & structure Time',.PREDICTED.,$,.WORKTIME.,'P0Y0M5D','2027-03-01T07:00:00','2027-03-05T07:00:00','2027-03-12T07:00:00','2027-04-06T07:00:00','2027-03-12T07:00:00','2027-04-06T07:00:00','P0Y0M0D','P0Y0M0D',.T.,$,$,$,$,$,0.00);
#52=IFCTASK('V17r$TuPdPCTDHbnCFXbhD',#6,'2. Foundations & structure',$,$,'3',$,$,$,.F.,$,#51,.CONSTRUCTION.);
#53=IFCTASKTIME('Earthworks for extension Time',.PREDICTED.,$,.WORKTIME.,'P0Y0M3D','2027-03-01T07:00:00','2027-03-03T07:00:00','2027-03-12T07:00:00','2027-03-16T07:00:00','2027-03-12T07:00:00','2027-03-16T07:00:00','P0Y0M0D','P0Y0M0D',.T.,$,$,$,$,$,0.00);
#54=IFCTASK('Yzazw3CXfbzvwVlVtvyTP7',#6,'Earthworks for extension',$,$,'3.1',$,$,$,.F.,$,#53,.CONSTRUCTION.);
#55=IFCTASKTIME('Extension foundations Time',.PREDICTED.,$,.WORKTIME.,'P0Y0M4D','2027-03-01T07:00:00','2027-03-04T07:00:00','2027-03-17T07:00:00','2027-03-22T07:00:00','2027-03-17T07:00:00','2027-03-22T07:00:00','P0Y0M0D','P0Y0M0D',.T.,$,$,$,$,$,0.00);
#56=IFCTASK('cxKbq7tNaB5X_JjHXnr$Ih',#6,'Extension foundations',$,$,'3.2',$,$,$,.F.,$,#55,.CONSTRUCTION.);
#57=IFCTASKTIME('Pour ground floor slab Time',.PREDICTED.,$,.WORKTIME.,'P0Y0M3D','2027-03-01T07:00:00','2027-03-03T07:00:00','2027-03-23T07:00:00','2027-03-25T07:00:00','2027-03-23T07:00:00','2027-03-25T07:00:00','P0Y0M0D','P0Y0M0D',.T.,$,$,$,$,$,0.00);
#58=IFCTASK('tj3tMVxXpb372Pc1Yrb$sP',#6,'Pour ground floor slab',$,$,'3.3',$,$,$,.F.,$,#57,.CONSTRUCTION.);
#59=IFCTASKTIME('Build masonry walls Time',.PREDICTED.,$,.WORKTIME.,'P0Y0M6D','2027-03-01T07:00:00','2027-03-08T07:00:00','2027-03-30T07:00:00','2027-04-06T07:00:00','2027-03-30T07:00:00','2027-04-06T07:00:00','P0Y0M0D','P0Y0M0D',.T.,$,$,$,$,$,0.00);
#60=IFCTASK('$p6tIHuPvt6j6XnVR1tBup',#6,'Build masonry walls',$,$,'3.4',$,$,$,.F.,$,#59,.CONSTRUCTION.);
#61=IFCTASKTIME('Install roof structure Time',.PREDICTED.,$,.WORKTIME.,'P0Y0M4D','2027-03-01T07:00:00','2027-03-04T07:00:00','2027-04-01T07:00:00','2027-04-06T07:00:00','2027-04-01T07:00:00','2027-04-06T07:00:00','P0Y0M0D','P0Y0M0D',.T.,$,$,$,$,$,0.00);
#62=IFCTASK('oBVL$vAP7zm$CLUFL7qR9J',#6,'Install roof structure',$,$,'3.5',$,$,$,.F.,$,#61,.CONSTRUCTION.);
#63=IFCTASKTIME('3. Fit-out Time',.PREDICTED.,$,.WORKTIME.,'P0Y0M5D','2027-03-01T07:00:00','2027-03-05T07:00:00','2027-04-07T07:00:00','2027-04-30T07:00:00','2027-04-07T07:00:00','2027-04-30T07:00:00','P0Y0M0D','P0Y0M0D',.T.,$,$,$,$,$,0.00);
#64=IFCTASK('UVblj1UNSrb$G5ynfJ9BKV',#6,'3. Fit-out',$,$,'4',$,$,$,.F.,$,#63,.CONSTRUCTION.);
#65=IFCTASKTIME('Apply roofing Time',.PREDICTED.,$,.WORKTIME.,'P0Y0M3D','2027-03-01T07:00:00','2027-03-03T07:00:00','2027-04-07T07:00:00','2027-04-09T07:00:00','2027-04-07T07:00:00','2027-04-09T07:00:00','P0Y0M0D','P0Y0M0D',.T.,$,$,$,$,$,0.00);
#66=IFCTASK('nPAT4TuvIL3fZ9SFhZpPpj',#6,'Apply roofing',$,$,'4.1',$,$,$,.F.,$,#65,.CONSTRUCTION.);
#67=IFCTASKTIME('Install window frames Time',.PREDICTED.,$,.WORKTIME.,'P0Y0M4D','2027-03-01T07:00:00','2027-03-04T07:00:00','2027-04-12T07:00:00','2027-04-15T07:00:00','2027-04-12T07:00:00','2027-04-15T07:00:00','P0Y0M0D','P0Y0M0D',.T.,$,$,$,$,$,0.00);
#68=IFCTASK('KdGdbxHvifovsvslydmtOT',#6,'Install window frames',$,$,'4.2',$,$,$,.F.,$,#67,.INSTALLATION.);
#69=IFCTASKTIME('Plastering Time',.PREDICTED.,$,.WORKTIME.,'P0Y0M5D','2027-03-01T07:00:00','2027-03-05T07:00:00','2027-04-16T07:00:00','2027-04-22T07:00:00','2027-04-16T07:00:00','2027-04-22T07:00:00','P0Y0M0D','P0Y0M0D',.T.,$,$,$,$,$,0.00);
#70=IFCTASK('f7S3Y9Z$wTYxFvIFat6PbX',#6,'Plastering',$,$,'4.3',$,$,$,.F.,$,#69,.CONSTRUCTION.);
#71=IFCTASKTIME('Tiling Time',.PREDICTED.,$,.WORKTIME.,'P0Y0M4D','2027-03-01T07:00:00','2027-03-04T07:00:00','2027-04-23T07:00:00','2027-04-29T07:00:00','2027-04-23T07:00:00','2027-04-29T07:00:00','P0Y0M0D','P0Y0M0D',.T.,$,$,$,$,$,0.00);
#72=IFCTASK('oLb12dxVRXzNFvAHSxjvJ$',#6,'Tiling',$,$,'4.4',$,$,$,.F.,$,#71,.INSTALLATION.);
#73=IFCTASKTIME('Painting Time',.PREDICTED.,$,.WORKTIME.,'P0Y0M3D','2027-03-01T07:00:00','2027-03-03T07:00:00','2027-04-28T07:00:00','2027-04-30T07:00:00','2027-04-28T07:00:00','2027-04-30T07:00:00','P0Y0M0D','P0Y0M0D',.T.,$,$,$,$,$,0.00);
#74=IFCTASK('RRuXuBmN4xtbxnznSfAz1t',#6,'Painting',$,$,'4.5',$,$,$,.F.,$,#73,.CONSTRUCTION.);
#75=IFCTASKTIME('4. Handover Time',.PREDICTED.,$,.WORKTIME.,'P0Y0M5D','2027-03-01T07:00:00','2027-03-05T07:00:00','2027-05-03T07:00:00','2027-05-04T07:00:00','2027-05-03T07:00:00','2027-05-04T07:00:00','P0Y0M0D','P0Y0M0D',.T.,$,$,$,$,$,0.00);
#76=IFCTASK('e54T4T0tNH37cnVXiDobRb',#6,'4. Handover',$,$,'5',$,$,$,.F.,$,#75,.ATTENDANCE.);
#77=IFCTASKTIME('Final cleaning Time',.PREDICTED.,$,.WORKTIME.,'P0Y0M1D','2027-03-01T07:00:00','2027-03-01T07:00:00','2027-05-03T07:00:00','2027-05-03T07:00:00','2027-05-03T07:00:00','2027-05-03T07:00:00','P0Y0M0D','P0Y0M0D',.T.,$,$,$,$,$,0.00);
#78=IFCTASK('9jJdrzinQjyLAxKncdeX4d',#6,'Final cleaning',$,$,'5.1',$,$,$,.F.,$,#77,.LOGISTIC.);
#79=IFCTASKTIME('Handover inspection Time',.PREDICTED.,$,.WORKTIME.,'P0Y0M0D','2027-03-01T07:00:00','2027-03-01T07:00:00','2027-05-03T07:00:00','2027-05-03T07:00:00','2027-05-03T07:00:00','2027-05-03T07:00:00','P0Y0M0D','P0Y0M0D',.T.,$,$,$,$,$,0.00);
#80=IFCTASK('_pY$AFxFSLFLI50XhdWPZ5',#6,'Handover inspection','Mandatory handover inspection; the deadline has ample margin (no conflict).',$,'5.2',$,$,$,.T.,$,#79,.CONSTRUCTION.);
#81=IFCTASKTIME('Final handover with the occupant Time',.PREDICTED.,$,.WORKTIME.,'P0Y0M1D','2027-03-01T07:00:00','2027-03-01T07:00:00','2027-05-04T07:00:00','2027-05-04T07:00:00','2027-05-04T07:00:00','2027-05-04T07:00:00','P0Y0M0D','P0Y0M0D',.T.,$,$,$,$,$,0.00);
#82=IFCTASK('_jk5YtZ$Uj2bfPM$pLnLkr',#6,'Final handover with the occupant',$,$,'5.3',$,$,$,.F.,$,#81,.ATTENDANCE.);
#83=IFCRELNESTS('aT8V8Dtf81QpyZ3FWf2rGF',#6,'WBS 1. Preparation',$,#46,( #48,#50));
#84=IFCRELNESTS('QROHVfePnl8vMNu$1VvpGl',#6,'WBS 2. Foundations & structure',$,#52,( #54,#56,#58,#60,#62));
#85=IFCRELNESTS('bRWf8hSHHDu7wjf1Uv07BT',#6,'WBS 3. Fit-out',$,#64,( #66,#68,#70,#72,#74));
#86=IFCRELNESTS('HtShl$Fvst93jDxHW9_HHF',#6,'WBS 4. Handover',$,#76,( #78,#80,#82));
#87=IFCRELNESTS('tjjP5r1vgdnD4TBHzDgTrv',#6,'WBS Hoofd',$,#40,(#44,#46,#52,#64,#76));
#88=IFCRELSEQUENCE('fdGP9TVvWbrFJDhlhZBFvt',#6,$,$,#44,#48,$,.FINISH_START.,$);
#89=IFCRELSEQUENCE('ORunLt41SrDdajhF7VjvhD',#6,$,$,#48,#50,$,.FINISH_START.,$);
#90=IFCRELSEQUENCE('LPuX0Fz1uVQXsPEVKD_BuJ',#6,$,$,#50,#54,$,.FINISH_START.,$);
#91=IFCRELSEQUENCE('AtonzhCFKD8N9hglARUnDp',#6,$,$,#54,#56,$,.FINISH_START.,$);
#92=IFCRELSEQUENCE('6BgdVtKVn3E7wjf1gHDdZx',#6,$,$,#56,#58,$,.FINISH_START.,$);
#93=IFCRELSEQUENCE('ZXBXyV_n4xfxfR0VbXZNsv',#6,$,$,#58,#60,$,.FINISH_START.,$);
#94=IFCLAGTIME('Lag',.PREDICTED.,$,IFCDURATION('P2D'),.WORKTIME.);
#95=IFCRELSEQUENCE('zH9Dj$gPFZkhU3t$ejHzv5',#6,$,$,#60,#62,#94,.START_START.,$);
#96=IFCRELSEQUENCE('uhgzU9pXv96J6XP$PHzfkd',#6,$,$,#62,#66,$,.FINISH_START.,$);
#97=IFCRELSEQUENCE('R1fbuDXdNRrn7X91WN_r0N',#6,$,$,#66,#68,$,.FINISH_START.,$);
#98=IFCRELSEQUENCE('HtC5_79NuNJ7gr_XJNoR19',#6,$,$,#68,#70,$,.FINISH_START.,$);
#99=IFCRELSEQUENCE('8ptDNpnvIXDdi5GX6jvbtj',#6,$,$,#70,#72,$,.FINISH_START.,$);
#100=IFCRELSEQUENCE('LZBVihbF6FSJoBEXW9MNMJ',#6,$,$,#70,#74,$,.FINISH_START.,$);
#101=IFCLAGTIME('Lag',.PREDICTED.,$,IFCDURATION('P1D'),.WORKTIME.);
#102=IFCRELSEQUENCE('bVjvJTnPzFizzRWXHht3zP',#6,$,$,#72,#74,#101,.FINISH_FINISH.,$);
#103=IFCRELSEQUENCE('2j_rRXr$evp9JjVXMFVb3v',#6,$,$,#74,#78,$,.FINISH_START.,$);
#104=IFCRELSEQUENCE('GfunL9CVdjU5pnnX931xRX',#6,$,$,#78,#80,$,.FINISH_START.,$);
#105=IFCRELSEQUENCE('rfEROzxnOvbVgtSnzH$js3',#6,$,$,#80,#82,$,.FINISH_START.,$);
#106=IFCRELASSIGNSTOCONTROL('rDVhNjbXHjyDCF$VkTSruD',#6,$,$,(#44,#46,#48,#50,#52,#54,#56,#58,#60,#62,#64,#66,#68,#70,#72,#74,#76,#78,#80,#82),$,#40);
#107=IFCPROPERTYSINGLEVALUE('InternalProjectId',$,IFCTEXT('proj-mtlszt360u0v26'),$);
#108=IFCPROPERTYSINGLEVALUE('wbsAutoNumber',$,IFCBOOLEAN(.T.),$);
#109=IFCPROPERTYSINGLEVALUE('DefaultTaskDurationUnit',$,IFCLABEL('days'),$);
#110=IFCPROPERTYSINGLEVALUE('ProjectStartDate',$,IFCDATE('2027-03-01'),$);
#111=IFCPROPERTYSINGLEVALUE('ProjectEndDate',$,$,$);
#112=IFCPROPERTYSINGLEVALUE('CreatedAt',$,IFCTEXT('2026-09-03T17:33:07.458Z'),$);
#113=IFCPROPERTYSINGLEVALUE('ModifiedAt',$,IFCTEXT('2026-09-03T17:33:07.461Z'),$);
#114=IFCPROPERTYSET('e5a3ArlP$tNZvpDF1ZK5n5',#6,'OPS_ProjectSettings',$,(#107,#108,#109,#110,#111,#112,#113));
#115=IFCRELDEFINESBYPROPERTIES('0Hdzo1sPJhdjQlBF$1BF9l',#6,$,$,(#13),#114);
#116=IFCPROPERTYSINGLEVALUE('InternalTaskId',$,IFCTEXT('task-mtlszt3amlws27'),$);
#117=IFCPROPERTYSET('VXxFdfd9l1_bDZnXBtcvF$',#6,'OPS_TaskIdentity',$,(#116));
#118=IFCRELDEFINESBYPROPERTIES('eZz9wzalljKzr7QHr96PZx',#6,$,$,(#44),#117);
#119=IFCPROPERTYSINGLEVALUE('InternalTaskId',$,IFCTEXT('task-mtlszt3c0jlo28'),$);
#120=IFCPROPERTYSET('wFXhPxYfqZ6j_jbnSf2rKp',#6,'OPS_TaskIdentity',$,(#119));
#121=IFCRELDEFINESBYPROPERTIES('DLBnjTd9l1khsbWVzHVDK$',#6,$,$,(#46),#120);
#122=IFCPROPERTYSINGLEVALUE('InternalTaskId',$,IFCTEXT('task-mtlszt3e2rtc29'),$);
#123=IFCPROPERTYSET('RxCpLpgPT$wJQZP$ab$Jox',#6,'OPS_TaskIdentity',$,(#122));
#124=IFCRELDEFINESBYPROPERTIES('UVRH5BX74Rx18NCnKjwdtn',#6,$,$,(#48),#123);
#125=IFCPROPERTYSINGLEVALUE('InternalTaskId',$,IFCTEXT('task-mtlszt3hveln30'),$);
#126=IFCPROPERTYSET('Mv4TSJUnsrBn7Xf$olVpGX',#6,'OPS_TaskIdentity',$,(#125));
#127=IFCRELDEFINESBYPROPERTIES('ZZG7nrP9DbbV2dIV6j7RpF',#6,$,$,(#50),#126);
#128=IFCPROPERTYSINGLEVALUE('InternalTaskId',$,IFCTEXT('task-mtlszt3jga4631'),$);
#129=IFCPROPERTYSET('ynnxgVB$mZaraP6$8ZLl$t',#6,'OPS_TaskIdentity',$,(#128));
#130=IFCRELDEFINESBYPROPERTIES('rJ5XG9SlPPK3V5WXpvGNM9',#6,$,$,(#52),#129);
#131=IFCPROPERTYSINGLEVALUE('InternalTaskId',$,IFCTEXT('task-mtlszt3l7lq232'),$);
#132=IFCPROPERTYSET('$nBF7vXdHVMnNPIVcvK5pj',#6,'OPS_TaskIdentity',$,(#131));
#133=IFCRELDEFINESBYPROPERTIES('8D9pH$NNQj4hg9ilmlNhk7',#6,$,$,(#54),#132);
#134=IFCPROPERTYSINGLEVALUE('InternalTaskId',$,IFCTEXT('task-mtlszt3nwqmb33'),$);
#135=IFCPROPERTYSET('3JQjT5MdBTSriVHV1zOlDl',#6,'OPS_TaskIdentity',$,(#134));
#136=IFCRELDEFINESBYPROPERTIES('yF$BXD6v2zOt7Vd1JfkxT5',#6,$,$,(#56),#135);
#137=IFCPROPERTYSINGLEVALUE('InternalTaskId',$,IFCTEXT('task-mtlszt3ogfgd34'),$);
#138=IFCPROPERTYSET('KbDPvLqFePnD8nxlOx6j2T',#6,'OPS_TaskIdentity',$,(#137));
#139=IFCRELDEFINESBYPROPERTIES('pdAZ4$Ad5Ftb5FJnb$$JsT',#6,$,$,(#58),#138);
#140=IFCPROPERTYSINGLEVALUE('InternalTaskId',$,IFCTEXT('task-mtlszt3qi0ya35'),$);
#141=IFCPROPERTYSET('Y$7B$zKFwHGXAdkXITKxZ5',#6,'OPS_TaskIdentity',$,(#140));
#142=IFCRELDEFINESBYPROPERTIES('f3dL93rHPjgz9fWVdFdjMD',#6,$,$,(#60),#141);
#143=IFCPROPERTYSINGLEVALUE('InternalTaskId',$,IFCTEXT('task-mtlszt3t5s6236'),$);
#144=IFCPROPERTYSET('nd6ppl09RhhHDlrnZZ4LQr',#6,'OPS_TaskIdentity',$,(#143));
#145=IFCRELDEFINESBYPROPERTIES('8hI5gbjFGTqTplLnt7qb5B',#6,$,$,(#62),#144);
#146=IFCPROPERTYSINGLEVALUE('InternalTaskId',$,IFCTEXT('task-mtlszt3v8nla37'),$);
#147=IFCPROPERTYSET('xn7T43aHdPyDyt4H$VvDGV',#6,'OPS_TaskIdentity',$,(#146));
#148=IFCRELDEFINESBYPROPERTIES('CLpvTbwX79IhkbSlR56Jgp',#6,$,$,(#64),#147);
#149=IFCPROPERTYSINGLEVALUE('InternalTaskId',$,IFCTEXT('task-mtlszt3wju9f38'),$);
#150=IFCPROPERTYSET('KPWfO56v6Z_RXxu$EH9Bip',#6,'OPS_TaskIdentity',$,(#149));
#151=IFCRELDEFINESBYPROPERTIES('bxSz6767wZMzLtO$dHb1gj',#6,$,$,(#66),#150);
#152=IFCPROPERTYSINGLEVALUE('InternalTaskId',$,IFCTEXT('task-mtlszt3zl5ft39'),$);
#153=IFCPROPERTYSET('t9QfSlO7u9$5Lz1XGnpdZ5',#6,'OPS_TaskIdentity',$,(#152));
#154=IFCRELDEFINESBYPROPERTIES('_DY$cJElr30FZrEVCFXRdL',#6,$,$,(#68),#153);
#155=IFCPROPERTYSINGLEVALUE('InternalTaskId',$,IFCTEXT('task-mtlszt4098i940'),$);
#156=IFCPROPERTYSET('6rIl9zpXzHetlzFVj5zt4B',#6,'OPS_TaskIdentity',$,(#155));
#157=IFCRELDEFINESBYPROPERTIES('1H9pXNmfCzovIHlXXjI161',#6,$,$,(#70),#156);
#158=IFCPROPERTYSINGLEVALUE('InternalTaskId',$,IFCTEXT('task-mtlszt42al8041'),$);
#159=IFCPROPERTYSET('nvonPfHPrtIhIlnXBNYLAv',#6,'OPS_TaskIdentity',$,(#158));
#160=IFCRELDEFINESBYPROPERTIES('8r6t63SlrZCT$$nXpLfTf1',#6,$,$,(#72),#159);
#161=IFCPROPERTYSINGLEVALUE('InternalTaskId',$,IFCTEXT('task-mtlszt44eryy42'),$);
#162=IFCPROPERTYSET('2Job43S$sNb14391yh7p4v',#6,'OPS_TaskIdentity',$,(#161));
#163=IFCRELDEFINESBYPROPERTIES('5lZfi9JV$frnhNyl$XlBaf',#6,$,$,(#74),#162);
#164=IFCPROPERTYSINGLEVALUE('InternalTaskId',$,IFCTEXT('task-mtlszt46re6j43'),$);
#165=IFCPROPERTYSET('xhYLR5tNqZM3tfu1XFTfg9',#6,'OPS_TaskIdentity',$,(#164));
#166=IFCRELDEFINESBYPROPERTIES('_llRG9SlrZC5plLntdWd7t',#6,$,$,(#76),#165);
#167=IFCPROPERTYSINGLEVALUE('InternalTaskId',$,IFCTEXT('task-mtlszt483k5244'),$);
#168=IFCPROPERTYSET('ibTfqRZlvNcVcTXXKjUnfX',#6,'OPS_TaskIdentity',$,(#167));
#169=IFCRELDEFINESBYPROPERTIES('DdcJvdTHfHD9h9e$tdunHr',#6,$,$,(#78),#168);
#170=IFCPROPERTYSINGLEVALUE('InternalTaskId',$,IFCTEXT('task-mtlszt4anbe145'),$);
#171=IFCPROPERTYSET('X$vBR1$dFzw1SpN1VldxNV',#6,'OPS_TaskIdentity',$,(#170));
#172=IFCRELDEFINESBYPROPERTIES('O3npzPzHN5drWDjnNj1jMj',#6,$,$,(#80),#171);
#173=IFCPROPERTYSINGLEVALUE('InternalTaskId',$,IFCTEXT('task-mtlszt4c3mv946'),$);
#174=IFCPROPERTYSET('XVh$kl0t9VpdyfmVkXFhQl',#6,'OPS_TaskIdentity',$,(#173));
#175=IFCRELDEFINESBYPROPERTIES('OZpdVty1OPHJQHjHBtk$Mf',#6,$,$,(#82),#174);
#176=IFCPROPERTYSINGLEVALUE('ConstraintType',$,IFCLABEL('SNET'),$);
#177=IFCPROPERTYSINGLEVALUE('ConstraintDate',$,IFCDATE('2027-03-09'),$);
#178=IFCPROPERTYSET('hznDfDNfUP4LInpFrjVpi1',#6,'OPS_Constraints',$,(#176,#177));
#179=IFCRELDEFINESBYPROPERTIES('Evw9UxE9FZwjMrYXvbMfgN',#6,$,$,(#50),#178);
#180=IFCPROPERTYSINGLEVALUE('Deadline',$,IFCDATE('2027-05-24'),$);
#181=IFCPROPERTYSET('s92XKrP9xnljEhInGnxldL',#6,'OPS_Constraints',$,(#180));
#182=IFCRELDEFINESBYPROPERTIES('3DY$YN$7c$6J_Ps$dHb16x',#6,$,$,(#80),#181);
#183=IFCPROPERTYSINGLEVALUE('MilestoneKind',$,IFCLABEL('START'),$);
#184=IFCPROPERTYSET('kfelLpktzzkPadA1jtk1IP',#6,'OPS_Milestone',$,(#183));
#185=IFCRELDEFINESBYPROPERTIES('LT39_vFvsrDPi1LH9vqpCz',#6,$,$,(#44),#184);
#186=IFCPROPERTYSINGLEVALUE('MilestoneKind',$,IFCLABEL('FINISH'),$);
#187=IFCPROPERTYSINGLEVALUE('Mandatory',$,IFCBOOLEAN(.T.),$);
#188=IFCPROPERTYSET('ItqDt3pVtVJ7IRKHSNobJ$',#6,'OPS_Milestone',$,(#186,#187));
#189=IFCRELDEFINESBYPROPERTIES('hz95UbcXpRzvcHLFpvGN_$',#6,$,$,(#80),#188);
#190=IFCPROPERTYSINGLEVALUE('Baselines',$,IFCTEXT('[{"id":"baseline-mtlszt5izbcf63","name":"Baseline plan","createdAt":"2026-09-03T17:33:07.542Z","tasks":[{"taskId":"task-mtlszt3amlws27","start":"2027-03-01","finish":"2027-03-01","duration":0,"isMilestone":true,"milestoneKind":"START"},{"taskId":"task-mtlszt3e2rtc29","start":"2027-03-01","finish":"2027-03-02","duration":2,"isMilestone":false},{"taskId":"task-mtlszt3hveln30","start":"2027-03-09","finish":"2027-03-11","duration":3,"isMilestone":false},{"taskId":"task-mtlszt3l7lq232","start":"2027-03-12","finish":"2027-03-16","duration":3,"isMilestone":false},{"taskId":"task-mtlszt3nwqmb33","start":"2027-03-17","finish":"2027-03-22","duration":4,"isMilestone":false},{"taskId":"task-mtlszt3ogfgd34","start":"2027-03-23","finish":"2027-03-25","duration":3,"isMilestone":false},{"taskId":"task-mtlszt3qi0ya35","start":"2027-03-30","finish":"2027-04-06","duration":6,"isMilestone":false},{"taskId":"task-mtlszt3t5s6236","start":"2027-04-01","finish":"2027-04-06","duration":4,"isMilestone":false},{"taskId":"task-mtlszt3wju9f38","start":"2027-04-07","finish":"2027-04-09","duration":3,"isMilestone":false},{"taskId":"task-mtlszt3zl5ft39","start":"2027-04-12","finish":"2027-04-15","duration":4,"isMilestone":false},{"taskId":"task-mtlszt4098i940","start":"2027-04-16","finish":"2027-04-22","duration":5,"isMilestone":false},{"taskId":"task-mtlszt42al8041","start":"2027-04-23","finish":"2027-04-29","duration":4,"isMilestone":false},{"taskId":"task-mtlszt44eryy42","start":"2027-04-28","finish":"2027-04-30","duration":3,"isMilestone":false},{"taskId":"task-mtlszt483k5244","start":"2027-05-03","finish":"2027-05-03","duration":1,"isMilestone":false},{"taskId":"task-mtlszt4anbe145","start":"2027-05-03","finish":"2027-05-03","duration":0,"isMilestone":true,"milestoneKind":"FINISH"},{"taskId":"task-mtlszt4c3mv946","start":"2027-05-04","finish":"2027-05-04","duration":1,"isMilestone":false}],"projectEnd":"2027-05-04","projectDuration":44}]'),$);
#191=IFCPROPERTYSINGLEVALUE('TaskGuids',$,IFCTEXT('{"task-mtlszt3amlws27":"2j2BnhJXzZ6jgtqFWNQDO3","task-mtlszt3e2rtc29":"uhEbuLyHH$sTl9u$cTb$A3","task-mtlszt3hveln30":"pvIHzdZlRBVbpTlVPHJ7Vd","task-mtlszt3l7lq232":"Yzazw3CXfbzvwVlVtvyTP7","task-mtlszt3nwqmb33":"cxKbq7tNaB5X_JjHXnr$Ih","task-mtlszt3ogfgd34":"tj3tMVxXpb372Pc1Yrb$sP","task-mtlszt3qi0ya35":"$p6tIHuPvt6j6XnVR1tBup","task-mtlszt3t5s6236":"oBVL$vAP7zm$CLUFL7qR9J","task-mtlszt3wju9f38":"nPAT4TuvIL3fZ9SFhZpPpj","task-mtlszt3zl5ft39":"KdGdbxHvifovsvslydmtOT","task-mtlszt4098i940":"f7S3Y9Z$wTYxFvIFat6PbX","task-mtlszt42al8041":"oLb12dxVRXzNFvAHSxjvJ$","task-mtlszt44eryy42":"RRuXuBmN4xtbxnznSfAz1t","task-mtlszt483k5244":"9jJdrzinQjyLAxKncdeX4d","task-mtlszt4anbe145":"_pY$AFxFSLFLI50XhdWPZ5","task-mtlszt4c3mv946":"_jk5YtZ$Uj2bfPM$pLnLkr"}'),$);
#192=IFCPROPERTYSINGLEVALUE('ActiveBaselineId',$,IFCTEXT('baseline-mtlszt5izbcf63'),$);
#193=IFCPROPERTYSET('XXh1w34HTJCTF7clPLWdrv',#6,'OPS_Baselines',$,(#190,#191,#192));
#194=IFCRELDEFINESBYPROPERTIES('Oz1Z43KV$BzN1$1VwJtr4B',#6,$,$,(#40),#193);
ENDSEC;
END-ISO-10303-21;
